<?xml version="1.0" encoding="UTF-8"?>
<svg id="a" data-name="레이어 1" xmlns="http://www.w3.org/2000/svg" width="1920" height="1280" viewBox="0 0 1920 1280">
  <rect width="1920" height="1280" fill="#ef6c0a"/>
  <g>
    <polygon points="960 263.086 978.787 320.905 1039.582 320.905 990.397 356.64 1009.184 414.459 960 378.725 910.816 414.459 929.603 356.64 880.418 320.905 941.213 320.905 960 263.086" fill="#fff"/>
    <polygon points="1243.507 496.895 1262.294 554.714 1323.089 554.714 1273.904 590.449 1292.691 648.268 1243.507 612.534 1194.323 648.268 1213.11 590.449 1163.925 554.714 1224.72 554.714 1243.507 496.895" fill="#fff"/>
    <polygon points="1135.134 803.693 1153.921 861.513 1214.716 861.513 1165.532 897.247 1184.318 955.066 1135.134 919.332 1085.95 955.066 1104.737 897.247 1055.553 861.513 1116.348 861.513 1135.134 803.693" fill="#fff"/>
    <polygon points="783.3 803.693 802.087 861.513 862.882 861.513 813.698 897.247 832.484 955.066 783.3 919.332 734.116 955.066 752.903 897.247 703.719 861.513 764.514 861.513 783.3 803.693" fill="#fff"/>
    <polygon points="676.493 496.895 695.28 554.714 756.075 554.714 706.89 590.449 725.677 648.268 676.493 612.534 627.309 648.268 646.096 590.449 596.911 554.714 657.706 554.714 676.493 496.895" fill="#fff"/>
  </g>
</svg>