<?xml version="1.0" encoding="UTF-8"?>
<svg id="a" data-name="레이어 1" xmlns="http://www.w3.org/2000/svg" width="1920" height="1280" viewBox="0 0 1920 1280">
  <rect width="1920" height="1280" fill="#ffc3da"/>
  <g>
    <path d="M368.351,459.803c-3.369,33.188-6.705,66.407-8.106,99.748-1.387,33.021-.831,66.185,3.538,98.98,2.473,18.559,5.128,37.068,10.001,55.175,4.271,15.868,10.275,31.1,17.018,46.078,5.128,11.391,11.307,22.346,18.778,32.371,5.819,7.808,11.742,15.66,18.559,22.647s14.527,12.832,22.31,18.697c4.861,3.663,10.027,6.919,15.448,9.688,6.18,3.157,12.686,5.761,19.107,8.339,3.481,1.398,7.038,2.604,10.648,3.624,11.036,3.121,22.644,4.565,34.007,5.689,7.524,.744,15.098,.911,22.652,.682,7.85-.238,15.682-.9,23.481-1.811,11.246-1.312,22.518-2.77,33.677-4.718,7.184-1.254,14.335-2.842,21.226-5.259,1.628-.571,3.233-1.198,4.827-1.858,5.163-2.139,10.433-4.167,15.428-6.703,3.16-1.604,6.196-3.456,9.039-5.574,5.603-4.175,11.418-8.359,16.348-13.372,4.999-5.083,9.245-10.975,13.511-16.637,4.229-5.614,7.797-11.685,10.992-17.938,3.339-6.533,6.316-13.251,9.184-20.002,4.424-10.414,8.812-20.826,12.696-31.455,10.519-28.787,18.076-58.601,23.312-88.784,5.903-34.026,9.576-68.489,11.128-102.985,1.389-30.879,1.184-61.813,.06-92.697-.276-7.576-.608-15.15-.984-22.721,.234-6.196-1.058-11.975-3.876-17.338-1.815-5.579-4.916-10.406-9.305-14.482-4.076-4.388-8.903-7.49-14.482-9.305-5.363-2.817-11.142-4.109-17.338-3.876l-11.963,1.607c-7.623,2.138-14.242,5.996-19.857,11.573l-7.036,9.107c-4.071,7.019-6.119,14.589-6.144,22.712,1.182,23.807,1.918,47.639,1.895,71.477-.022,23.746-.792,47.5-2.633,71.178-1.041,13.387-2.431,26.745-4.214,40.053l1.607-11.963c-4.787,35.467-12.438,70.6-24.1,104.465-3.269,9.492-6.854,18.872-10.749,28.125l4.536-10.75c-5.736,13.566-11.838,27.291-20.821,39.067l7.036-9.107c-3.686,4.759-7.835,9.103-12.59,12.805l9.107-7.036c-4.453,3.393-9.32,6.11-14.464,8.305l10.75-4.536c-12.983,5.412-27.054,7.496-40.906,9.365l11.963-1.607c-19.113,2.549-38.541,3.945-57.737,1.444l11.963,1.607c-10.141-1.373-20.08-3.864-29.535-7.809l10.75,4.536c-8.245-3.5-15.971-8.052-23.082-13.496l9.107,7.036c-8.346-6.455-15.719-14.034-22.196-22.352l7.036,9.107c-9.258-11.983-16.595-25.316-22.483-39.244l4.536,10.75c-9.844-23.458-15.367-48.351-18.787-73.493l1.607,11.963c-3.445-25.661-4.557-51.576-4.206-77.452,.353-26.04,2.154-52.037,4.474-77.967,1.304-14.569,2.774-29.123,4.251-43.676,.234-6.196-1.058-11.975-3.876-17.338-1.815-5.579-4.916-10.406-9.305-14.482-4.076-4.388-8.903-7.49-14.482-9.305-5.363-2.817-11.142-4.109-17.338-3.876l-11.963,1.607c-7.623,2.138-14.242,5.996-19.857,11.573l-7.036,9.107c-4.071,7.019-6.119,14.589-6.144,22.712h0Z"/>
    <path d="M1068.248,862.955c1.22-5.774,2.256-11.586,3.094-17.427,1.364-9.508,2.7-19.046,3.47-28.627,.939-11.687,1.116-23.435,.538-35.146-.287-5.817-.761-11.624-1.421-17.41-1.097-9.621-2.363-19.249-4.063-28.786-2.037-11.429-4.769-22.774-8.335-33.825-.801-2.481-1.666-4.942-2.661-7.352-2.344-5.678-4.621-11.91-7.735-17.361-.621-1.087-1.285-2.151-1.998-3.181-.397-.573-.813-1.129-1.233-1.684-2.647-3.492-5.249-7.069-8.092-10.407-.765-.898-1.578-1.756-2.442-2.559-.426-.396-.864-.779-1.313-1.15-3.388-2.796-6.941-5.52-10.488-8.11-4.879-3.562-11.556-5.883-16.824-7.913-1.07-.413-2.155-.774-3.271-1.042-.491-.118-.986-.22-1.484-.304-2.218-.375-4.61-.632-6.728-.917-2.181-.293-4.617-.705-6.918-.906-1.125-.098-2.258-.104-3.383-.007-4.377,.377-8.947,1.042-13.275,1.767-.627,.105-1.249,.232-1.863,.397-4.686,1.258-9.514,3.66-13.642,5.571-1.159,.536-2.271,1.15-3.33,1.864-2.005,1.351-3.931,2.97-5.802,4.415-1.885,1.457-3.911,2.918-5.756,4.489-.99,.844-1.926,1.751-2.816,2.699-.808,.861-1.578,1.757-2.318,2.676-3.098,3.848-6.163,7.754-9.054,11.763-3.043,4.22-5.899,8.586-8.664,12.992-5.773,9.202-11.03,18.732-15.684,28.548-3.99,8.417-7.608,17.028-11.036,25.685-1.987,5.019-3.803,10.107-5.414,15.259-1.63,5.211-3.053,10.488-4.223,15.821-1.961,8.936-3.11,18.052-4.189,27.124-.301,2.532-.531,5.071-.695,7.616h90c.332-23.52,5.338-47.107,2.451-70.624-1.178-9.6-2.187-19.319-5.28-28.535-2.084-6.21-4.752-12.247-7.495-18.183-1.164-2.519-2.396-5.014-3.822-7.397-.673-1.125-1.392-2.224-2.169-3.28-3.017-4.105-6.003-8.389-9.532-12.11-.856-.902-1.775-1.721-2.739-2.506-3.386-2.758-8.061-6.798-12.407-9.228-.546-.305-1.102-.592-1.668-.86-3.996-1.895-8.178-3.565-12.28-5.209-1.3-.521-2.626-.967-3.979-1.331s-2.737-.652-4.126-.872c-5.177-.821-10.419-1.632-15.663-2.04-2.348-.183-4.708-.203-7.058-.062-1.043,.063-2.084,.157-3.122,.283-5.071,.614-10.187,1.174-15.216,2.106-8.173,1.514-15.906,5.157-23.412,8.508-4.154,1.855-8.094,4.176-11.773,6.85-6.796,4.94-13.729,10.099-19.55,16.235-1.62,1.708-3.167,3.486-4.637,5.325-3.784,4.733-7.622,9.505-11.035,14.531-2.735,4.028-5.137,8.284-7.171,12.707-2.558,5.563-4.988,11.216-7.107,16.964-.812,2.202-1.533,4.438-2.156,6.7-.778,2.827-1.409,5.697-1.937,8.581-1.262,6.892-2.147,13.875-2.881,20.839-1.309,12.417-.72,24.963,.856,37.327,1.278,10.03,2.621,20.03,4.525,29.96,1.192,6.218,2.539,12.404,3.944,18.577,.69,3.031,1.393,6.058,2.1,9.085,1.392,5.856,4.077,10.957,8.055,15.303,3.173,4.899,7.382,8.762,12.626,11.59,5.165,3.288,10.742,5.069,16.731,5.34,5.981,1.34,11.963,1.072,17.944-.804l10.75-4.536c6.762-4.001,12.143-9.382,16.144-16.144l4.536-10.75c2.143-7.975,2.143-15.95,0-23.926-3.417-14.641-6.767-29.323-8.776-44.237l1.607,11.963c-1.848-13.93-2.481-28.059-.651-42.027l-1.607,11.963c1.133-8.387,3.11-16.608,6.375-24.428l-4.536,10.75c2.985-7.068,6.866-13.724,11.555-19.797l-7.036,9.107c4.131-5.304,8.856-10.122,14.167-14.249l-9.107,7.036c4.54-3.492,9.465-6.446,14.745-8.675l-10.75,4.536c4.477-1.859,9.15-3.169,13.954-3.832l-11.963,1.607c4.562-.599,9.173-.613,13.734,0l-11.963-1.607c3.204,.461,6.333,1.244,9.326,2.487l-10.75-4.536c2.182,.941,4.229,2.111,6.111,3.564l-9.107-7.036c1.725,1.381,3.242,2.957,4.613,4.688l-7.036-9.107c3.249,4.208,5.636,9.08,7.698,13.96l-4.536-10.75c2.695,6.488,4.413,13.298,5.376,20.25l-1.607-11.963c2.491,18.579-.141,37.324-1.516,55.881-.395,5.338-.692,10.684-.768,16.038-.234,6.196,1.058,11.975,3.876,17.338,1.815,5.579,4.916,10.406,9.305,14.482,4.076,4.388,8.903,7.49,14.482,9.305,5.363,2.817,11.142,4.109,17.338,3.876l11.963-1.607c7.623-2.138,14.242-5.996,19.857-11.573l7.036-9.107c4.071-7.019,6.119-14.589,6.144-22.712,.213-3.308,.545-6.606,.984-9.892l-1.607,11.963c2.296-16.843,7.349-33.214,13.929-48.854l-4.536,10.75c6.291-14.881,13.989-29.161,22.806-42.696,2.344-3.598,4.716-7.209,7.329-10.62l-7.036,9.107c2.083-2.682,4.376-5.189,7.067-7.274l-9.107,7.036c1.538-1.157,3.163-2.142,4.928-2.914l-10.75,4.536c1.543-.64,3.127-1.089,4.78-1.333l-11.963,1.607c1.757-.224,3.501-.213,5.258,.005l-11.963-1.607c2.021,.288,3.967,.836,5.858,1.603l-10.75-4.536c2.27,.962,4.379,2.207,6.34,3.699l-9.107-7.036c2.096,1.639,3.929,3.523,5.57,5.615l-7.036-9.107c2.557,3.338,4.539,7.032,6.187,10.892l-4.536-10.75c3.443,8.203,5.746,16.95,7.839,25.58,2.197,9.056,3.911,18.224,5.165,27.457l-1.607-11.963c2.509,18.705,3.097,37.656,1.7,56.478-.397,5.343-.957,10.673-1.667,15.983l1.607-11.963c-.897,6.618-2.035,13.2-3.415,19.734-1.875,5.981-2.143,11.963-.804,17.944,.272,5.989,2.052,11.566,5.34,16.731,2.828,5.244,6.691,9.453,11.59,12.626,4.346,3.977,9.447,6.662,15.303,8.055l11.963,1.607c8.123-.025,15.694-2.073,22.712-6.144l9.107-7.036c5.577-5.615,9.435-12.234,11.573-19.857h0Z"/>
    <path d="M1193.046,420.919c-4.485,5.477-9.098,11.097-12.713,17.233-3.698,6.279-6.304,13.196-9.094,19.884-2.74,6.571-4.733,13.407-6.343,20.335-3.63,15.627-6.103,31.589-8.324,47.468-5.171,36.98-8.596,74.023-8.812,111.386-.096,16.626,.363,33.255,1.379,49.85,.47,7.665,1.072,15.327,2.06,22.944,1.474,11.359,2.835,22.746,5.799,33.833,.967,3.617,2.089,7.192,3.391,10.703,2.573,6.938,5.433,13.828,8.716,20.463,2.866,5.791,6.349,11.226,10.279,16.349,6.179,8.055,12.175,15.883,19.669,22.733,2.336,2.136,4.757,4.179,7.247,6.133,5.369,4.212,10.731,8.493,16.365,12.358,13.929,9.555,29.235,16.195,44.765,22.677,12.891,5.38,26.254,9.766,39.777,13.255,11.592,2.991,23.322,4.714,35.217,6.11,8.124,.954,16.354,1.16,24.492,.249,10.852-1.215,21.593-2.558,31.889-6.267,6.639-2.392,13.178-5.175,19.543-8.212,3.057-1.459,6.041-3.071,8.941-4.821,9.003-5.432,17.43-12.028,25.353-18.901,5.246-4.55,10.113-9.531,14.585-14.842,12.056-14.317,22.576-29.584,31.033-46.27,8.599-16.965,15.805-34.705,22.513-52.491,5.593-14.827,10.58-29.881,14.957-45.111,9.826-34.197,16.072-69.073,20.364-104.368,3.812-31.346,5.127-62.998,3.888-94.552-.304-7.744-.767-15.481-1.375-23.208,.234-6.196-1.058-11.975-3.876-17.338-1.815-5.579-4.916-10.406-9.305-14.482-4.076-4.388-8.903-7.49-14.482-9.305-5.363-2.817-11.142-4.109-17.338-3.876l-11.963,1.607c-7.623,2.138-14.242,5.996-19.857,11.573l-7.036,9.107c-4.071,7.019-6.119,14.589-6.144,22.712,2.56,32.522,2.418,65.243-.423,97.742-.806,9.219-1.831,18.418-3.06,27.59l1.607-11.963c-5.44,40.239-14.943,79.916-28.46,118.209-3.777,10.702-7.861,21.297-12.266,31.756l4.536-10.75c-7.997,18.908-17.293,37.393-29.84,53.73l7.036-9.107c-7.03,9.076-15.022,17.335-24.094,24.387l9.107-7.036c-7.289,5.608-15.176,10.379-23.633,14.01l10.75-4.536c-7.311,3.085-14.934,5.248-22.794,6.355l11.963-1.607c-9.679,1.283-19.435,.988-29.096-.299l11.963,1.607c-11.775-1.63-23.299-4.642-34.643-8.146-9.137-2.822-18.155-6.029-26.968-9.745l10.75,4.536c-13.997-5.941-27.483-13.194-39.548-22.498l9.107,7.036c-7.625-5.931-14.593-12.655-20.543-20.276l7.036,9.107c-5.17-6.698-9.442-13.979-12.757-21.766l4.536,10.75c-4.789-11.457-7.486-23.605-9.153-35.877l1.607,11.963c-2.85-21.468-3.438-43.353-3.569-64.986-.134-22.25,.726-44.504,2.571-66.678,1.055-12.671,2.439-25.313,4.132-37.914l-1.607,11.963c1.771-13.084,3.874-26.123,6.333-39.095,2.103-11.092,4.551-22.19,8.953-32.628l-4.536,10.75c2.372-5.514,5.285-10.747,8.943-15.514l-7.036,9.107c.385-.491,.774-.977,1.17-1.46,4.388-4.076,7.49-8.903,9.305-14.482,2.817-5.363,4.109-11.142,3.876-17.338,.234-6.196-1.058-11.975-3.876-17.338-1.815-5.579-4.916-10.406-9.305-14.482l-9.107-7.036c-7.019-4.071-14.589-6.119-22.712-6.144l-11.963,1.607c-7.623,2.138-14.242,5.996-19.857,11.573h0Z"/>
  </g>
</svg>