<?xml version="1.0" encoding="utf-8"?>
<!-- Generator: Adobe Illustrator 26.0.3, SVG Export Plug-In . SVG Version: 6.00 Build 0)  -->
<svg version="1.1" id="레이어_1" xmlns="http://www.w3.org/2000/svg" xmlns:xlink="http://www.w3.org/1999/xlink" x="0px"
	 y="0px" viewBox="0 0 2160 2160" style="enable-background:new 0 0 2160 2160;" xml:space="preserve">
<style type="text/css">
	.st0{fill:#487BE3;}
	.st1{fill:#FCFDFE;}
	.st2{fill:#FAFBFD;}
	.st3{fill:none;}
</style>
<g>
	<path class="st0" d="M2160,600v960c0,132.5-107.5,240-240,240H240c-132.5,0-240-107.5-240-240V600c0-132.5,107.5-240,240-240h1680
		C2052.5,360,2160,467.5,2160,600z"/>
	<path class="st1" d="M796.9,707.1c27.2,57.4,57.7,112.3,86.5,168c9,17.4,15.8,35.9,20.3,55.2c4.8,20.6,5,41.1-2.5,60.9
		c-4,10.7,1.1,11.9,8.7,17.4c23.5,17.2,44.2,8.6,65.9-1.9c5.2-2.5,7.7-4.7,5.4-10.8c-14.4-37.9-5.4-74,10.9-108.5
		c29.3-61.9,64.5-120.9,90.6-183.9c5.6-0.4,6,3.6,7.1,6.4c23.6,55.2,52.5,107.7,80,160.8c12.2,23.5,22,48,25.1,74.5
		c2,16.4,0.3,32.6-5.6,48.1c-1.4,3.8,0.9,7.6,7.2,12.8c0.7,0.6,1.5,1.1,2.2,1.7c22.2,18.3,43.7,10.1,65.5-1.1
		c4.8-2.5,8.1-4.3,5.8-10.6c-16.4-44-2.1-84.2,17.4-122.9c28-55.6,58.7-109.9,83.1-167.3c0.3-0.7,1.3-1,2.2-1.7
		c3,4.9,1.4,10.2,1.4,15.1c0.1,88.7,0.3,177.5-0.2,266.2c0,10.4,2.9,15.8,12.5,20.9c48.8,25.6,74.1,77.1,66.3,130.9
		c-1.6,10.8-3.3,14-14.4,7.5c-75.6-44.3-156.9-73.7-243.5-87.2c-149.3-23.3-292.2-2.1-428.1,64.2c-12.9,6.3-25.7,12.9-38.1,20.2
		c-9,5.4-11.1,2.6-12.1-6.7c-6.1-54.9,18.5-104.2,67.1-129.2c11-5.7,13.5-12.1,13.4-23.3c-0.4-87.8-0.2-175.5-0.2-263.3
		C796.9,715.5,796.9,711.3,796.9,707.1z"/>
	<path class="st2" d="M1372.3,1469.2c-14.9-33.6-29-66.4-38-101c-3.4-13,0.8-25.7,5.7-37.8c7.7-19,9.9-38.9,10.7-59.1
		c0.3-6.6,1.6-13.8-9-14.2c-9.2-0.3-13.7,2-14.7,12.4c-2.6,29.6-11.8,57.1-28.3,82.1c-7.5,11.3-16.3,21.3-27.2,29.5
		c-27.9,20.8-59,20.7-85.9-1.4c-33.9-27.8-48.1-65.9-53.9-107.9c-1-6.9-0.2-14.7-11.2-14.8c-8.9-0.1-13.1,2.1-12.8,12
		c0.7,21.3,2.9,42.2,11.3,61.9c7.9,18.8,7.5,36.8,0.5,55.8c-10.2,27.8-20.5,55.4-34.6,85.5c-16.4-37.7-32.6-71.7-39.9-108.9
		c-2.3-11.6,2.1-22.8,6.4-33.5c7.7-19,9.5-39,10.6-59.2c0.4-7.3,0.1-13.3-9.9-13.6c-8.7-0.2-13,2.2-13.9,11.8
		c-3,32.1-13,61.9-32.2,88.1c-13.3,18.2-29.6,32.5-52.5,37.8c-22.1,5.2-40.9-2-57.4-15.6c-30.9-25.3-45.2-59.9-52-98.2
		c-0.8-4.2-1.6-8.5-1.8-12.8c-0.3-9.9-6.2-11.3-14.5-11.1c-9.3,0.2-9.4,5.9-9.2,12.6c0.5,21.8,3.6,43.1,12,63.3
		c7.2,17.4,6.8,34.1,0.5,51.7c-9.6,27-19.8,53.8-32,80.4c-3.9-5.2-2.3-10.1-2.3-14.8c-0.1-55.2-0.2-110.4,0.1-165.5
		c0-8.4-2.1-13.9-9.3-19.2c-18.8-13.8-32.3-32.4-44.6-52.2c-5.2-8.4-3.1-11.9,4.8-16.5c69.8-41,144.4-68.9,224.3-81.8
		c158.5-25.5,307.1,2.6,445.8,83.6c10.3,6,12.1,10.9,5.1,20.8c-11.7,16.5-23.1,33.2-39.7,45.1c-7.2,5.2-9.2,11-9.2,19.4
		c0.3,56.6,0.2,113.2,0.1,169.8C1374.3,1458.4,1375.6,1463.3,1372.3,1469.2z M1190.2,1329c2.1-3.2,3.4-5.1,4.6-7
		c20.6-32.8,46.7-33.2,68.6-1c0.3,0.4,0.5,0.8,0.7,1.3c3.1,7.3,6.2,5.7,9.7,0.2c10.9-17.5,16.5-36.6,17.9-57
		c0.5-6.6-2.6-8.4-8.7-7.6c-10.7,1.4-20.3,5.6-29.7,10.4c-2.5,1.3-5.2,3.6-7.8,1.4c-2.6-2.1-1-5.4-0.2-8.1
		c5.8-18.7,19.7-27.5,37.8-31.2c4.2-0.9,8.2-0.2,8.6-6.8c1.4-24.6-37-65.5-62.3-65.5c-1.9,0-3.8,0.5-5.6,1.1
		c-28.5,10-48.6,28.1-56.1,58.5c-2,8-1.1,11.7,8.6,13.2c17,2.6,30.4,11.5,36.4,28.8c1,3,3.1,6.7,0.4,9.5c-3.2,3.3-6.1-0.4-8.9-1.7
		c-9.1-4.2-18.2-8.6-28.5-9.6c-4.6-0.4-9.5-1.2-9,5.4C1168.4,1286.9,1174.3,1309.2,1190.2,1329z M1002.7,1268.1
		c2.6-10.5-3.7-11.8-13.9-9.4c-8.5,2-16.3,5.7-24,9.4c-2.5,1.2-5.1,3.6-7.8,1.4c-2.6-2.2-1.2-5.4-0.4-8.1
		c5.5-18.1,18.9-27.7,36.5-30.6c9.7-1.6,10.1-5.9,8.9-13.5c-4.1-25.1-32-53.8-57.6-58.7c-2.7-0.5-5.9-0.7-8.4,0.2
		c-29.1,10-49.6,28.2-57.2,59.1c-2.1,8.5,0.2,11.4,9.2,12.9c16.4,2.7,29.5,11.3,35.6,27.8c1.3,3.5,3.5,7.8,0.1,10.7
		c-3.1,2.6-6.1-1.1-9-2.3c-8.8-3.8-17.4-7.7-27.1-9.2c-8.2-1.3-10.4,1.8-9.5,9.2c2.2,18.7,7,36.6,16.6,53.1
		c5.1,8.7,7.2,8.6,12.7-0.2c17.7-27.9,42.6-30.2,61.9-6.6c2.1,2.6,4.3,5.3,5.7,8.3c3.8,8.5,7,5.6,10.5-0.1
		C995.1,1305.8,1000.7,1288.6,1002.7,1268.1z M842.9,1173.3c-19.2,10.8-27.8,29.5-24.4,49.8c1.2,7.1,5.6,6.3,10.4,6.6
		c6.2,0.4,8.2-2.6,8.8-8.4C839,1205.7,841,1190.1,842.9,1173.3z M1327.3,1174c2,17.3,3.8,32.9,5.4,48.5c0.6,5.5,3.6,7.3,8.6,7.2
		c4.5-0.1,8.3-0.2,9.6-6C1355.2,1205.6,1346.2,1184.8,1327.3,1174z"/>
</g>
<g>
	<path class="st3" d="M2160,600v960c0,132.5-107.5,240-240,240H240c-132.5,0-240-107.5-240-240V600c0-132.5,107.5-240,240-240h1680
		C2052.5,360,2160,467.5,2160,600z"/>
</g>
</svg>
