<svg xmlns="http://www.w3.org/2000/svg" width="2160" height="1440" viewBox="0 0 2160 1440">
  <g>
    <rect width="2160" height="1440" fill="#487be3"/>
    <path d="M796.926,347.127c27.227,57.415,57.677,112.3,86.525,168a237.427,237.427,0,0,1,20.311,55.185c4.83,20.623,4.964,41.134-2.451,60.907-4,10.672,1.128,11.886,8.7,17.447,23.476,17.239,44.159,8.611,65.874-1.942,5.218-2.536,7.658-4.748,5.365-10.78-14.416-37.92-5.4-73.962,10.922-108.466,29.277-61.905,64.527-120.861,90.63-183.906,5.649-.4,5.96,3.624,7.142,6.395,23.556,55.175,52.456,107.683,80.048,160.849,12.2,23.51,21.976,47.969,25.134,74.531a100.3,100.3,0,0,1-5.622,48.117c-1.444,3.756.858,7.637,7.221,12.812.742.6,1.5,1.109,2.175,1.666,22.16,18.262,43.723,10.148,65.461-1.08,4.84-2.5,8.136-4.32,5.782-10.635-16.419-44.044-2.09-84.165,17.4-122.871,28.011-55.632,58.656-109.946,83.135-167.335.285-.666,1.294-1.023,2.2-1.7,2.955,4.875,1.368,10.166,1.374,15.148.109,88.733.251,177.467-.16,266.2-.048,10.444,2.917,15.834,12.518,20.881,48.752,25.625,74.056,77.131,66.318,130.918-1.561,10.849-3.294,14.041-14.438,7.519-75.649-44.278-156.931-73.656-243.49-87.177q-223.887-34.971-428.143,64.16c-12.913,6.295-25.727,12.895-38.065,20.232-9,5.354-11.113,2.571-12.145-6.657-6.145-54.9,18.549-104.177,67.105-129.219,11.043-5.7,13.45-12.125,13.4-23.277-.375-87.771-.218-175.546-.225-263.319Z" fill="#fcfdfe"/>
    <path d="M1372.266,1109.15c-14.906-33.594-29.019-66.353-37.988-101.014-3.376-13.046.807-25.733,5.743-37.827,7.749-18.99,9.881-38.933,10.694-59.128.268-6.638,1.647-13.821-9.016-14.167-9.183-.3-13.742,1.961-14.662,12.437a174.983,174.983,0,0,1-28.29,82.1,115.4,115.4,0,0,1-27.192,29.467c-27.917,20.848-59,20.706-85.9-1.37-33.913-27.829-48.106-65.872-53.948-107.926-.963-6.932-.189-14.692-11.223-14.778-8.9-.07-13.067,2.105-12.763,12.009.655,21.274,2.95,42.223,11.282,61.9,7.943,18.763,7.47,36.809.465,55.819-10.225,27.753-20.5,55.413-34.6,85.485-16.352-37.742-32.627-71.67-39.865-108.915-2.26-11.63,2.054-22.825,6.408-33.508,7.749-19.011,9.532-38.993,10.611-59.157.389-7.274.142-13.329-9.863-13.56-8.728-.2-12.958,2.208-13.863,11.778-3.031,32.06-12.954,61.887-32.175,88.074-13.348,18.186-29.638,32.453-52.465,37.849-22.1,5.226-40.895-2.049-57.413-15.587-30.918-25.34-45.166-59.916-52-98.208a87.541,87.541,0,0,1-1.764-12.821c-.276-9.945-6.23-11.263-14.5-11.082-9.3.2-9.38,5.875-9.211,12.607.548,21.759,3.649,43.113,12.038,63.251,7.246,17.392,6.807,34.082.527,51.693-9.635,27.02-19.822,53.752-32.024,80.389-3.947-5.17-2.325-10.137-2.334-14.752-.108-55.177-.188-110.355.075-165.531.04-8.358-2.109-13.941-9.3-19.229-18.8-13.818-32.348-32.423-44.572-52.182-5.189-8.388-3.062-11.9,4.758-16.494,69.792-41,144.426-68.938,224.288-81.812q237.72-38.321,445.781,83.636c10.282,6.007,12.116,10.855,5.088,20.817-11.662,16.532-23.094,33.212-39.715,45.11-7.195,5.151-9.2,11.008-9.16,19.389.286,56.615.189,113.233.094,169.849C1374.3,1098.415,1375.646,1103.306,1372.266,1109.15ZM1190.239,968.973c2.085-3.16,3.407-5.078,4.643-7.049,20.56-32.794,46.671-33.184,68.6-1.013a7.362,7.362,0,0,1,.668,1.271c3.112,7.323,6.234,5.683,9.679.16,10.9-17.481,16.455-36.6,17.925-57.045.477-6.63-2.6-8.351-8.717-7.553-10.675,1.393-20.268,5.624-29.695,10.434-2.494,1.273-5.213,3.593-7.792,1.446-2.563-2.133-1.023-5.366-.193-8.062,5.752-18.659,19.723-27.526,37.781-31.237,4.22-.868,8.229-.226,8.609-6.806,1.423-24.639-37.025-65.477-62.278-65.515a17.223,17.223,0,0,0-5.6,1.087c-28.516,10.05-48.583,28.148-56.129,58.451-1.99,7.991-1.051,11.747,8.58,13.239,17.016,2.634,30.437,11.525,36.368,28.836,1.032,3.011,3.149,6.691.4,9.509-3.228,3.307-6.081-.4-8.884-1.7-9.149-4.243-18.22-8.561-28.492-9.556-4.6-.445-9.466-1.227-8.984,5.41C1168.443,926.931,1174.266,949.168,1190.239,968.973Zm-187.528-60.885c2.589-10.524-3.729-11.795-13.895-9.431-8.519,1.982-16.255,5.663-24.041,9.361-2.5,1.186-5.123,3.6-7.786,1.406-2.627-2.167-1.158-5.406-.354-8.058,5.484-18.1,18.919-27.654,36.479-30.564,9.707-1.609,10.128-5.874,8.872-13.517-4.124-25.1-31.988-53.8-57.575-58.669a17.282,17.282,0,0,0-8.434.19c-29.083,9.958-49.576,28.245-57.178,59.142-2.085,8.474.186,11.415,9.189,12.887,16.427,2.685,29.472,11.3,35.573,27.846,1.282,3.475,3.516,7.783.091,10.713-3.066,2.624-6.063-1.075-8.975-2.348-8.776-3.837-17.429-7.712-27.117-9.212-8.228-1.275-10.43,1.8-9.542,9.241,2.236,18.735,7,36.556,16.648,53.06,5.095,8.714,7.169,8.6,12.734-.18,17.7-27.906,42.646-30.168,61.924-6.556a38.325,38.325,0,0,1,5.653,8.3c3.781,8.516,7.016,5.615,10.486-.107C995.067,945.751,1000.705,928.619,1002.711,908.088ZM842.89,813.309c-19.249,10.811-27.791,29.51-24.417,49.838,1.171,7.056,5.55,6.341,10.356,6.619,6.165.357,8.246-2.552,8.782-8.411C839.044,845.715,841.005,830.123,842.89,813.309Zm484.438.649c1.96,17.337,3.813,32.928,5.439,48.542.57,5.48,3.579,7.294,8.648,7.152,4.456-.125,8.259-.164,9.612-6.038C1355.179,845.6,1346.154,824.809,1327.328,813.958Z" fill="#fafbfd"/>
  </g>
</svg>
