<?xml version="1.0" encoding="UTF-8"?>
<svg id="a" data-name="레이어 1" xmlns="http://www.w3.org/2000/svg" width="2160" height="1440" viewBox="0 0 2160 1440">
  <rect width="2160" height="1440" fill="#487be3"/>
  <g>
    <rect x="1031.669" y="745.214" width="97.026" height="150.191" fill="#e43035"/>
    <path d="M731.284,1134.087c-2.333-2.708-2.439-5.821-2.437-9.027,.044-62.319-.086-124.638,.228-186.955,.052-10.362-3.624-17.634-11.803-23.743-20.653-15.426-35.391-35.98-48.332-57.897-4.101-6.946-2.455-11.208,5.442-15.897,18.893-11.215,38.259-21.563,58.081-31.036,44.835-21.426,91.411-38.09,139.728-49.597,25.162-5.993,50.62-10.7,76.385-13.621,19.974-2.264,39.935-4.478,60.037-5.168,3.03-.104,5.887-1.015,8.708-2.076,17.784-6.689,36.069-11.705,54.436-16.491,5.075-1.322,9.813-.976,14.722,.301,18.207,4.734,36.325,9.75,53.935,16.435,3.802,1.443,7.78,1.699,11.777,1.879,107.23,4.843,208.388,32.013,303.172,82.541,10.13,5.4,20.138,11.043,30.06,16.817,8.516,4.957,9.671,9.363,4.625,17.617-13.54,22.146-28.823,42.812-50.082,58.378-6.32,4.628-9.093,10.996-9.076,18.984,.136,62.818,.103,125.637,.121,188.455,0,3.587,.386,7.282-3.189,10.728-3.208-7.352-6.303-14.263-9.251-21.236-9.772-23.115-18.75-46.535-26.837-70.295-6.397-18.796-5.25-37.237,2.32-55.462,7.871-18.948,11.382-38.791,11.866-59.233,.121-5.121,1.64-10.197,.113-15.385-.486-1.653-.808-3.313-2.218-4.292-5.143-3.571-10.76-2.766-16.271-1.256-4.735,1.297-6.128,5.236-6.59,9.621-2.663,25.31-8.809,49.679-19.736,72.74-10.013,21.132-24.217,38.929-42.672,53.317-30.412,23.711-64.666,21.1-94-1.961-25.587-20.115-40.624-47.605-50.536-78.08-4.583-14.093-7.35-28.622-8.649-43.398-1.18-13.423-8.899-14.24-18.839-12.859-4.399,.611-6.696,3.86-6.688,8.586,.044,24.406,2.3,48.426,11.559,71.352,2.172,5.378,3.885,10.947,5.693,16.466,4.019,12.267,.392,24.028-2.578,35.791-7.316,28.966-19.343,56.179-31.227,83.441-2.755,6.32-5.565,12.616-9.162,18.718v-226.37c-10.547,8.342-20.77,15.301-33.814,15.897-13.055,.596-23.638-5.4-34.338-13.397v223.86c-.346,.08-.692,.16-1.039,.239-4.37-9.954-8.79-19.886-13.099-29.867-11.99-27.772-23.317-55.748-29.589-85.534-2.195-10.421-.747-20.187,2.693-29.86,4.172-11.733,9.129-23.18,11.292-35.576,2.49-14.274,3.844-28.634,3.947-43.104,.051-7.118-2.537-10.302-8.214-10.98-9.492-1.133-15.179,1.583-16.614,8.707-1.443,7.165-1.905,14.523-3.181,21.728-6.669,37.649-21.828,71.194-49.55,98.069-16.86,16.345-37.108,25.638-61.21,24.406-15.737-.805-29.072-7.665-41.173-17.184-28.52-22.435-45.117-52.401-54.159-86.945-3.318-12.677-6.365-25.443-7.235-38.625-.43-6.517-4.272-9.827-10.771-10.182-.166-.009-.333,0-.5-.006-12.116-.425-14.916,2.827-14.38,14.898,1.114,25.078,5.22,49.408,14.823,72.812,6.356,15.492,5.857,31.681,.603,47.409-10.271,30.748-22.111,60.909-35.447,90.47-.345,.765-.556,1.578-1.882,1.931Zm98.063-226.577c-9.835-.135-11.772,1.767-10.995,9.14,.591,5.608,1.557,11.19,2.614,16.734,2.921,15.309,8.161,29.782,16.183,43.181,4.738,7.915,7.292,7.992,12.309,.437,3.323-5.004,6.735-9.936,11.002-14.187,16.404-16.342,37.072-16.234,53.382,.202,4.601,4.637,8.637,9.639,11.636,15.513,3.039,5.952,5.88,6.016,9.715,.492,1.042-1.501,1.902-3.128,2.837-4.703,10.842-18.256,15.494-38.382,17.767-59.201,.543-4.971-1.816-7.463-6.847-7.625-3.499-.113-6.944,.113-10.368,1.125-9.289,2.747-18.177,6.426-26.722,10.962-2.091,1.11-4.15,2.236-6.504,.562-2.414-1.717-1.57-4.147-1.449-6.402,.034-.639,.391-1.257,.573-1.893,5.769-20.208,20.011-30.637,39.914-34.374,9.343-1.754,11.671-4.771,10.16-13.977-4.523-27.559-33.662-58.34-61.166-64.734-4.127-.959-8.116-1.559-12.231,.02-8.557,3.285-16.976,6.819-24.702,11.844-19.976,12.993-32.435,31.169-37.518,54.399-1.549,7.077,.549,10.29,7.554,12.015,2.406,.593,4.895,.847,7.308,1.416,18.214,4.293,30.244,15.316,35.818,33.215,.898,2.883,1.475,6.085-1.255,8.357-2.833,2.357-5.156,.028-7.671-1.233-10.723-5.378-21.703-10.062-31.343-11.287Zm386.59,.012c-10.894-.198-12.833,2.105-11.337,10.467,.204,1.14,.233,2.31,.364,3.464,2.315,20.442,8.373,39.628,19.415,57.085,3.92,6.197,6.886,6.059,10.231-.381,4.231-8.149,10.122-14.872,17.449-20.268,13.771-10.142,29.373-9.618,42.795,.932,6.955,5.467,11.773,12.603,16.645,19.776,3.554,5.233,6.564,5.334,9.852,.135,12.356-19.539,18.241-41.202,20.284-64.003,.476-5.307-1.764-7.177-7.056-7.256-3.344-.05-6.62,.193-9.86,1.22-9.361,2.966-18.662,6.02-27.167,11.105-4.47,2.672-7.921,.583-7.798-4.619,.035-1.456,.451-2.936,.891-4.344,6.116-19.587,20.211-29.792,39.722-33.345,10.658-1.941,12.686-4.731,9.944-15.314-8.711-33.632-31.506-53.318-63.443-63.904-2.599-.861-5.199-.64-7.868-.067-12.342,2.648-23.115,8.46-32.611,16.557-15.411,13.142-27.502,28.529-31.117,49.157-1.505,8.59,1.132,12.09,9.647,13.495,8.471,1.398,16.384,4.22,23.405,9.264,9.355,6.719,14.874,15.997,17.595,27.005,.528,2.133,1.046,4.662-1.338,6.413-2.331,1.712-4.405,.652-6.495-.483-.585-.318-1.138-.702-1.739-.984-10.53-4.946-21.012-10.04-30.41-11.107Zm-169.995-57.193c0,6.827,.034,13.654-.016,20.481-.022,2.98,1.202,5.459,3.89,6.332,2.583,.839,3.591-1.876,4.757-3.596,2.34-3.449,4.69-6.883,7.666-9.823,10.833-10.706,21.882-10.69,32.648,.066,1.29,1.289,2.47,2.708,3.564,4.17,1.793,2.396,3.421,4.915,5.219,7.307,1.272,1.692,2.956,3.291,4.887,1.12,2.641-2.969,5.277-6.212,5.327-10.415,.146-12.32-.017-24.644,.105-36.964,.028-2.846-1.164-3.047-3.313-2.307-5.348,1.842-10.712,3.654-15.702,6.366-1.883,1.023-3.736,2.77-5.829,.771-1.816-1.734-1.195-3.909-.522-6.06,3.508-11.205,10.986-18.457,22.091-21.858,2.576-.789,3.335-1.842,3.282-4.423-.16-7.823-.226-15.656,.019-23.474,.108-3.456-1.063-6.004-3.257-8.493-8.154-9.245-18.378-15.215-29.833-19.35-1.664-.6-3.138-.6-4.807,.009-10.122,3.695-19.386,8.734-27.093,16.437-2.122,2.12-3.247,4.234-3.167,7.391,.23,9.152,.242,18.318-.005,27.47-.087,3.233,1.057,4.637,3.96,5.762,9.656,3.741,15.622,10.993,18.699,20.745,.663,2.101,1.195,4.337-.792,6.006-1.986,1.668-3.644,.029-5.445-.785-4.389-1.984-8.875-3.754-13.302-5.656-2.431-1.044-3.134-.271-3.081,2.293,.139,6.824,.047,13.653,.048,20.48Zm-282.693,26.042c7.025,.049,9.913-2.347,10.625-8.961,1.7-15.808,3.379-31.619,4.999-47.436,.139-1.354,1.165-3.246-.509-4.023-1.462-.678-2.692,.958-3.846,1.793-16.608,12.011-24.16,28.086-21.794,48.635,.925,8.034,2.833,9.939,10.524,9.992Zm632.98,.002c7.241-.011,9.979-1.834,10.766-7.607,2.935-21.536-4.219-38.788-22.122-51.361-1.025-.72-2.107-2.17-3.458-1.454-1.441,.764-.576,2.4-.45,3.624,1.65,15.981,3.322,31.959,5.052,47.932,.697,6.435,3.593,8.877,10.212,8.866Z" fill="#fefefe"/>
    <path d="M730.037,303.836c4.817,9.77,9.623,19.544,14.452,29.308,25.373,51.294,52.931,101.449,79.264,152.244,11.926,23.005,20.666,47.14,25.066,72.703,3.155,18.33,1.903,36.458-4.03,54.187-3.778,11.289-3.235,12.529,6.437,19.476,8.622,6.193,17.699,11.003,28.506,12.226,6.62,.749,12.965-.315,19.185-1.963,9.834-2.605,19.097-6.825,28.096-11.536,5.045-2.641,6.503-5.61,4.622-10.619-14.283-38.014-7.97-74.579,7.816-110.364,13.094-29.684,28.424-58.278,43.374-87.052,20.543-39.538,41.335-78.956,58.54-120.121,.32-.766,.683-1.515,1.044-2.263,.456-.945,1.052-1.726,2.264-1.563,1.439,.194,1.196,1.359,1.249,2.301,.056,.997,.022,1.999,.022,2.998,0,122.795-.025,245.59,.105,368.385,.005,4.407-1.055,5.557-5.474,5.479-23.653-.416-47.279,.82-70.809,3.004-65.941,6.12-130.1,20.411-192.342,43.124-42.4,15.472-83.581,33.602-122.631,56.365-.859,.5-1.746,.956-2.643,1.385-6.711,3.214-10.124,1.687-11.069-5.667-7.079-55.054,13.512-111.662,69.343-142.892,1.453-.813,2.901-1.638,4.391-2.379,9.965-4.959,14.321-12.757,14.278-24.102-.268-69.477-.172-138.956-.192-208.434-.008-29.491-.001-58.982-.001-88.472v-5.423l1.139-.335Z" fill="#fefefe"/>
    <path d="M1430.981,303.983c0,1.928,0,3.829,0,5.731-.024,97.969,.155,195.94-.3,293.907-.065,14.094,5.394,22.4,17.469,28.88,38.108,20.452,61.07,52.555,69.577,94.805,3.166,15.725,3.122,31.743,1.217,47.702-1.022,8.561-4.86,10.325-13.054,5.512-27.158-15.95-55.558-29.376-84.533-41.595-48.179-20.317-97.896-35.789-149.135-46.247-23.588-4.814-47.371-8.604-71.326-10.97-27.156-2.682-54.395-4.428-81.711-4.065-3.979,.053-5.357-.719-5.353-5.077,.128-123.128,.097-246.256,.166-369.384,0-1.547-1.294-4.126,1.344-4.569,2.43-.408,2.545,2.338,3.175,3.839,18.647,44.357,41.458,86.663,63.414,129.4,16.026,31.194,33.364,61.808,45.211,94.976,10.835,30.334,12.696,60.956,1.611,91.758-2.329,6.472-1.35,9.157,4.66,12.176,12.498,6.28,25.195,12.231,39.392,13.359,11.183,.888,21.3-2.723,30.593-8.764,2.788-1.813,5.452-3.819,8.159-5.755,5.639-4.033,7.095-7.253,4.711-13.643-11.184-29.984-6.915-59.42,2.41-88.847,9.678-30.541,26.044-57.882,40.771-85.995,23.457-44.78,47.276-89.371,69.201-134.936,.391-.813,.321-2.04,2.329-2.197Z" fill="#fefefe"/>
  </g>
</svg>