<svg xmlns="http://www.w3.org/2000/svg" width="1024" height="1024" viewBox="0 0 1024 1024">
  <g>
    <g>
      <path d="M514.5,810.307A401.691,401.691,0,0,1,358.181,38.693,401.69,401.69,0,0,1,670.82,778.744,399.1,399.1,0,0,1,514.5,810.307Zm0-780.7a379.11,379.11,0,0,0-268.07,647.18A379.109,379.109,0,0,0,782.571,140.648,376.629,376.629,0,0,0,514.5,29.609Z" fill="#1e5ecd"/>
      <g>
        <path d="M235.581,185.586A355.669,355.669,0,0,0,157.3,408.718c0,129.79,69.227,243.4,172.767,305.953v-434.6Z" fill="#3a7aeb"/>
        <path d="M475.053,313.483V53.7a355.5,355.5,0,0,0-66.09,13.677v180.02Z" fill="#3a7aeb"/>
        <path d="M793.419,631.85A355.67,355.67,0,0,0,871.7,408.718c0-129.79-69.228-243.4-172.767-305.953v434.6Z" fill="#3a7aeb"/>
        <path d="M620.038,458.468V67.374A355.5,355.5,0,0,0,553.948,53.7V392.378Z" fill="#3a7aeb"/>
        <path d="M553.948,503.953V763.739a355.5,355.5,0,0,0,66.09-13.677V570.043Z" fill="#3a7aeb"/>
        <path d="M408.963,358.968V750.062a355.5,355.5,0,0,0,66.09,13.677V425.058Z" fill="#3a7aeb"/>
      </g>
    </g>
    <g>
      <path d="M71.769,920.451h16.5v75.414H42.663V920.451h16.5v22.9h12.6Zm-12.6,37.907v22.5h12.6v-22.5Zm69.312-12v17.3q-.6,0-1.3.05t-1.5.15a13.192,13.192,0,0,0-1.6.1,13.675,13.675,0,0,1-1.7.1q-1.7.3-3.251.6t-2.95.6v34.906h-18.5V919.65h18.5v28.506q1.4-.4,2.95-.75t3.351-.65a14.932,14.932,0,0,0,1.751-.1,13.482,13.482,0,0,1,1.55-.1c.533-.066,1.015-.116,1.45-.15S128.079,946.355,128.479,946.355Z"/>
      <path d="M159.084,971.961v-3.5h-31.2v-13h82.715v13H178.388v3.5h27.305v28.205H132.18V971.961Zm10.4-18.9a100.307,100.307,0,0,1-16.354-1.15,33.612,33.612,0,0,1-11.051-3.551,16.253,16.253,0,0,1-6.4-5.4,13.182,13.182,0,0,1-2.1-7.4,13.4,13.4,0,0,1,2.1-7.251,19.729,19.729,0,0,1,6.4-6.052,34.93,34.93,0,0,1,11-3.851,85.618,85.618,0,0,1,16.4-1.35,85.19,85.19,0,0,1,16.253,1.35,36.3,36.3,0,0,1,11.152,3.851,20.605,20.605,0,0,1,6.351,6.052,13.176,13.176,0,0,1,2.151,7.251,12.961,12.961,0,0,1-2.151,7.4,16.826,16.826,0,0,1-6.351,5.4,34.84,34.84,0,0,1-11.152,3.551A99.608,99.608,0,0,1,169.487,953.057Zm18.7,35.107v-4.2H149.683v4.2Zm-18.7-47.409a79.737,79.737,0,0,0,8.151-.351,17.751,17.751,0,0,0,5.351-1.25,8.015,8.015,0,0,0,2.8-1.7,3.274,3.274,0,0,0,1-2.4,3.061,3.061,0,0,0-1-2.2,10.774,10.774,0,0,0-2.8-1.9,28.12,28.12,0,0,0-5.351-1.15,62.566,62.566,0,0,0-8.151-.45,64.427,64.427,0,0,0-8.352.45,23.576,23.576,0,0,0-5.151,1.15,8.716,8.716,0,0,0-2.9,1.9,3.22,3.22,0,0,0-.9,2.2,3.461,3.461,0,0,0,.9,2.4,6.929,6.929,0,0,0,2.9,1.7,15.393,15.393,0,0,0,5.151,1.25A82.12,82.12,0,0,0,169.487,940.755Z"/>
      <path d="M238.6,920.451h15v29.606h7.6V919.65h15.9v80.616H261.2V965.859q-2.3.2-4.2.2h-3.4v29.805H214.7V920.451h15v22.9h8.9Zm-8.9,37.907v22.5h8.9v-22.5Zm52.31,41.908V919.65h15.8v80.616Z"/>
      <path d="M321.715,920.951v59.511h15.2q2.1,0,4.2-.1t4.2-.4a31.706,31.706,0,0,0,3.851-.4,21.926,21.926,0,0,0,3.251-.8v14.8a12.587,12.587,0,0,1-3.151,1.25,24.846,24.846,0,0,1-3.851.651q-2.3.3-4.5.4t-4.4.1H303.211V920.951Zm36.507,79.215V919.65h18.5v80.516Z"/>
      <path d="M426.334,928.452v8.7a66.841,66.841,0,0,1-1,9.1,73.814,73.814,0,0,1-2.1,8.6q-.9,2.7-1.95,5.251t-2.25,4.952q1.5,1.2,2.95,2.5t2.951,2.5q2.8,2.9,5.5,6.15a73.35,73.35,0,0,1,5.1,6.952l-11.6,12.4q-2.7-4.1-5.4-7.452a64.583,64.583,0,0,0-5.4-5.951l-3.3-2.7q-1.2,1.5-2.5,2.9t-2.5,2.7a85.677,85.677,0,0,1-6.551,6.1,80.21,80.21,0,0,1-6.951,5.2l-11.6-12.5a92.793,92.793,0,0,0,10.651-9,73.212,73.212,0,0,0,8.352-9.8,59.263,59.263,0,0,0,5.651-10.052,44.591,44.591,0,0,0,3.151-10.553H383.726v-16h11.2v-10.8h18.5v10.8Zm12.4,71.714V919.65h18.5v80.516Z"/>
      <path d="M526.854,920.451v8.7a37.327,37.327,0,0,1-1.3,7.3,48.927,48.927,0,0,1-2.5,6.8c-.336.6-.651,1.168-.951,1.7s-.584,1.1-.85,1.7c.4.334.832.667,1.3,1s.931.667,1.4,1a71.334,71.334,0,0,1,5.7,5.3q2.7,2.8,5.1,5.8l-11.6,12.3q-2.4-2.9-4.851-5.551t-4.851-5.051c-.266-.2-.517-.4-.75-.6s-.45-.4-.65-.6q-.4-.3-.75-.6c-.235-.2-.45-.4-.65-.6q-1.9,1.5-3.851,2.9a46.349,46.349,0,0,1-4.051,2.6,59.8,59.8,0,0,1-7.1,3.65,65.889,65.889,0,0,1-7.3,2.65l-8.6-12.5a99.97,99.97,0,0,0,10-4.5,63.279,63.279,0,0,0,8.5-5.3,39.984,39.984,0,0,0,6.4-5.752,31.065,31.065,0,0,0,4.4-6.351h-25.8v-16Zm-22.706,53.01v11.5h56.711v15H486.645v-26.5Zm38.108-24.805a1.649,1.649,0,0,1-.75.25,9.506,9.506,0,0,1-1.051.05,6.679,6.679,0,0,1-1.4.25q-.7.051-1.3.05a12.415,12.415,0,0,1-1.549.1h-1.351a11.219,11.219,0,0,1-1.4.1h-3.2v-16h12v-13.8h17.5v56.211h-17.5Z"/>
      <path d="M567.561,976.861h56.91v-2.6h-56.91v-10.4h27.1v-3.1H563.459v-11.5h82.716v11.5H613.969v3.1h27.5v23.4H584.563v2.4h58.711v10.7H567.561Zm-2.1-42.408a134.986,134.986,0,0,0,14.3-2.25,58.624,58.624,0,0,0,10.1-3.051,21.323,21.323,0,0,0,6-3.45,6.578,6.578,0,0,0,2.4-3.951l.2-1.8h18.3v1.1q-.2,1.5-.5,2.85a26.088,26.088,0,0,1-.7,2.551q3.3.6,6.452,1.3t6.25,1.5q4.3,1.2,8.6,2.75t8.7,3.351l-5.2,11.7q-4.4-1.8-8.6-3.3t-8.3-2.6q-4.1-.9-8.552-1.75t-9.352-1.55a1.53,1.53,0,0,1-.4.3,3.522,3.522,0,0,1-.5.2l-.4.2-.4.2a66.67,66.67,0,0,1-14.7,4.8,161.145,161.145,0,0,1-20.1,2.9Z"/>
      <path d="M695.884,920.451v8.7a35.8,35.8,0,0,1-1.7,7,34.166,34.166,0,0,1-3.1,6.5,6.3,6.3,0,0,1-.65,1.05c-.235.3-.45.585-.65.851a3.576,3.576,0,0,0,.4.349,2.314,2.314,0,0,0,.4.25,1.5,1.5,0,0,0,.4.3,3.732,3.732,0,0,0,.5.2,62.648,62.648,0,0,1,6.051,4.951,52.3,52.3,0,0,1,5.251,5.652l-11.6,12.3q-2.4-2.7-4.952-5.2t-5.251-4.8q-.7-.5-1.4-.951a12.622,12.622,0,0,1-1.3-.95q-2.4,1.8-4.9,3.352a43.011,43.011,0,0,1-5.2,2.75,67.56,67.56,0,0,1-7.451,3.1,52.13,52.13,0,0,1-7.452,2l-7.5-13q5.7-1.6,10.6-3.5a76.328,76.328,0,0,0,9.1-4.2,35.437,35.437,0,0,0,7.05-4.8,27.019,27.019,0,0,0,5.052-5.9H650.275v-16Zm11.5,79.815v-13.4H653.376v-16H724.89v29.406Zm28.8-66.813v17.3a4.491,4.491,0,0,0-.649.05,5.245,5.245,0,0,1-.751.049h-1.5l-1.8.2q-.9.1-1.7.2c-.334.067-.649.117-.95.149a6.815,6.815,0,0,0-.85.151,6.651,6.651,0,0,1-.8.15,5.621,5.621,0,0,1-.7.05c-.4.135-.718.25-.95.349s-.45.185-.65.25v15h-17.4V919.65h17.4v16.1a11.346,11.346,0,0,1,1.8-.9q1-.4,2.3-.8a22.028,22.028,0,0,1,3.1-.45Q733.891,933.453,736.191,933.453Z"/>
      <path d="M780.9,920.451v8.7a37.178,37.178,0,0,1-1.3,7.3,48.8,48.8,0,0,1-2.5,6.8q-.5.9-.951,1.7c-.3.535-.585,1.1-.85,1.7q.6.5,1.3,1t1.4,1a71.692,71.692,0,0,1,5.7,5.3q2.7,2.8,5.1,5.8l-11.6,12.3q-2.4-2.9-4.85-5.551t-4.851-5.051q-.4-.3-.751-.6t-.649-.6q-.4-.3-.751-.6c-.235-.2-.45-.4-.65-.6q-1.9,1.5-3.85,2.9a46.5,46.5,0,0,1-4.051,2.6,59.813,59.813,0,0,1-7.1,3.65,65.889,65.889,0,0,1-7.3,2.65l-8.6-12.5a99.868,99.868,0,0,0,10-4.5,63.279,63.279,0,0,0,8.5-5.3,39.949,39.949,0,0,0,6.4-5.752,31.144,31.144,0,0,0,4.4-6.351h-25.8v-16Zm-22.7,53.01v11.5h56.71v15H740.691v-26.5ZM796.3,948.656a1.641,1.641,0,0,1-.75.25,9.486,9.486,0,0,1-1.05.05,6.7,6.7,0,0,1-1.4.25q-.7.051-1.3.05a12.442,12.442,0,0,1-1.55.1H788.9a11.217,11.217,0,0,1-1.4.1h-3.2v-16h12v-13.8h17.5v56.211H796.3Z"/>
      <path d="M848.712,1000.266v-16.4H817.506v-15.5h82.716v15.5H868.016v16.4Zm29.006-80.116h17.5v41.309H822.907V920.15h17.5v6.5h37.308Zm-37.308,21v5.8h37.308v-5.8Z"/>
      <path d="M943.029,921.451v15h-21.2v44.508h10.2q1.8,0,3.6-.1a32.664,32.664,0,0,0,3.6-.4,23.221,23.221,0,0,0,3.2-.4,14.2,14.2,0,0,0,2.7-.8v14.3a10.093,10.093,0,0,1-2.651,1.25,17.4,17.4,0,0,1-3.25.651q-2,.3-3.9.4t-3.7.1H904.322V921.451Zm27.606,43.908q-1.3.3-2.7.6a13.825,13.825,0,0,1-2.9.3v34.306h-15.9V919.65h15.9v29.606h5.6V919.65h15.8v80.916h-15.8Z"/>
    </g>
  </g>
</svg>
