<svg xmlns="http://www.w3.org/2000/svg" viewBox="0 0 1164.37 189.8" width="1164.37" heigh="189.8"><defs><style>.cls-1{fill:#214584;}</style></defs><g id="레이어_2" data-name="레이어 2"><g id="레이어_1-2" data-name="레이어 1"><path class="cls-1" d="M109.58,0,0,189.8H219.16Zm0,82.81,37.87,65.59H71.72Z"/><path d="M283.16,81.06q.9-4.4,1.62-9.38t1.1-10.55q.39-5.43.39-11.71t-.13-13.53h21.22q.13,9.7.07,17.73T307,67.86q-.39,3.63-.85,7.06t-.84,6.53q3.24,4.14,6.35,8.48t5.95,8.86q2.85,4.92,5.37,10T327.81,119l-15.66,11.13q-2.58-5.45-5.17-10.55t-5.31-9.9c-.52-.78-1.06-1.62-1.62-2.53s-1.1-1.74-1.62-2.52q-.39,1-.84,2c-.3.64-.62,1.27-1,1.87a20.56,20.56,0,0,1-.84,1.94c-.3.61-.58,1.21-.84,1.82a109.76,109.76,0,0,1-6,10.54,101.5,101.5,0,0,1-7.18,9.78l-16.57-14.89c1-1.29,2.05-2.67,3-4.14s2-3.06,3-4.79c.86-1.55,1.75-3.13,2.66-4.72s1.74-3.26,2.52-5,1.51-3.27,2.2-4.91,1.38-3.24,2.07-4.79c.52-1.56,1-3,1.42-4.34A34,34,0,0,0,283.16,81.06Zm47.89,56.82V84.56a33.4,33.4,0,0,1-4.66.45c-1.55,0-3.11.07-4.66.07s-2.89.12-4,.12h-2.59V64.5h15.92V33.56h20.58V137.88Zm26.92,0V33.56h20.45V137.88Z"/><path d="M384.38,136.2V115.49h107V136.2Zm1-49.57a107.61,107.61,0,0,0,17.41-10.36A86.32,86.32,0,0,0,416.34,64a51,51,0,0,0,8.81-13.85,45.33,45.33,0,0,0,3.49-15.53h24.2a81.34,81.34,0,0,1-1.16,10.48,60.24,60.24,0,0,1-2.59,9.71q5.82,3.36,11.26,6.79c3.63,2.29,7,4.64,10.23,7.06q4.65,3.89,9.7,8.41t10.36,10l-15.28,17.34q-4.53-5-9.31-9.58t-9.84-8.67q-4.66-3.24-9.13-6.21t-9-5.57l-1.55,1.94a100.51,100.51,0,0,1-8,8.61,89.92,89.92,0,0,1-9.06,7.57,106.24,106.24,0,0,1-10.29,6.8,117.17,117.17,0,0,1-10.68,5.5Z"/><path d="M499.31,72.91h36.37V54.66H500V34.6h57.72V92.32H521.31v19.81h40v20.06h-62Zm111.05-4.79V90.51c-.51,0-1.08,0-1.68.07s-1.25.11-1.94.19a16,16,0,0,0-2.07.13,17.13,17.13,0,0,1-2.2.13c-1.47.26-2.87.52-4.21.78s-2.61.51-3.82.77v45.17H570.5V33.56h23.94V70.45c1.21-.34,2.48-.67,3.82-1s2.78-.58,4.34-.84a20.8,20.8,0,0,0,2.26-.13,16.46,16.46,0,0,1,2-.13c.69-.09,1.31-.15,1.87-.2S609.85,68.12,610.36,68.12Z"/><path d="M633.33,96.47a30.05,30.05,0,0,1-10.67-6.35,24,24,0,0,1-7.12-10.22,41,41,0,0,1-2.33-14.5,45.79,45.79,0,0,1,.58-7.44,29.55,29.55,0,0,1,1.88-6.67,30,30,0,0,1,2.85-5.56,25.89,25.89,0,0,1,4-4.79,27.73,27.73,0,0,1,4.92-3.69,35.46,35.46,0,0,1,5.82-2.78,40.25,40.25,0,0,1,6.34-1.62,42.35,42.35,0,0,1,7.25-.58,41.84,41.84,0,0,1,7,.58,44,44,0,0,1,6.54,1.62,35.08,35.08,0,0,1,5.63,2.78,34.49,34.49,0,0,1,5,3.69,37.51,37.51,0,0,1,3.82,4.79,43.41,43.41,0,0,1,3.17,5.56A39.21,39.21,0,0,1,679.87,58a41.63,41.63,0,0,1,.64,7.44,40.32,40.32,0,0,1-2.39,14.5,25.13,25.13,0,0,1-7.06,10.22,31.41,31.41,0,0,1-10.8,6.35,41,41,0,0,1-13.4,2.07A41.46,41.46,0,0,1,633.33,96.47Zm8.22,6.73v14.88h72.1v19.41H618.9V103.2Zm7.06-26.15a10.94,10.94,0,0,0,2.13-.52,5.67,5.67,0,0,0,1.88-.64,10.74,10.74,0,0,0,1.88-1.3A6.17,6.17,0,0,0,656,73.1,20.51,20.51,0,0,0,657.34,71a11,11,0,0,0,.85-2.4,14.08,14.08,0,0,0,.32-3.17,12.91,12.91,0,0,0-.32-2.91,14.06,14.06,0,0,0-.85-2.52q-.65-1-1.35-1.95a22.26,22.26,0,0,0-1.49-1.68c-.61-.34-1.23-.69-1.88-1s-1.27-.65-1.88-.91L648.61,54a9,9,0,0,0-1.75-.2,11.17,11.17,0,0,0-2.07.2c-.69.13-1.34.28-1.94.45a11,11,0,0,0-2.07.91c-.61.34-1.17.69-1.69,1A12.12,12.12,0,0,0,637.48,58a7.28,7.28,0,0,0-1.1,1.95,8,8,0,0,0-.91,2.52,15.83,15.83,0,0,0-.26,2.91,17.27,17.27,0,0,0,.26,3.17,6.7,6.7,0,0,0,.91,2.4,7.56,7.56,0,0,0,1.1,2.13,5.13,5.13,0,0,0,1.61,1.49,8,8,0,0,0,1.69,1.3,5.24,5.24,0,0,0,2.07.64,6.86,6.86,0,0,0,1.94.52,16,16,0,0,0,2.07.13A12.78,12.78,0,0,0,648.61,77.05Zm41.09,28.61V33.56h22.65v72.1Z"/><path d="M719,136.2V115.49H826V136.2Zm76.5-54.49q3.62,0,7-.06c2.24-.05,4.4-.15,6.47-.33a46.61,46.61,0,0,0,5.5-.32c1.77-.22,3.43-.45,5-.71V99.44a28.25,28.25,0,0,1-4.2,1.1,36,36,0,0,1-5.38.58c-2.07.26-4.25.44-6.53.52s-4.64.13-7.06.13h-70.8V35.63h91.25V55.69h-68.6v26Z"/><path d="M880.74,35.89V47.15c-.17,4.14-.51,8.27-1,12.36s-1.21,8.14-2.07,12.1q-1.17,4.8-2.66,9.45T871.81,90l3,3.82c1,1.25,2,2.53,3,3.82q3.11,4.66,6.08,9.51t5.69,9.9l-14.1,14.76q-1.56-2.72-3-5.18T870,121.83a22.52,22.52,0,0,1-1.42-2.13c-.44-.73-.87-1.45-1.3-2.14s-.86-1.51-1.29-2.2-.87-1.42-1.3-2.2c-.26-.26-.49-.52-.71-.77s-.41-.52-.58-.78a6.31,6.31,0,0,1-.71-.84,7.83,7.83,0,0,1-.59-1c-.34.51-.66,1-1,1.55s-.62,1-1,1.55-.67.89-1,1.36l-.84,1.36q-3.5,4.92-7.25,9.26a91.64,91.64,0,0,1-7.76,8L828.45,118a138.29,138.29,0,0,0,11.78-14.24,133,133,0,0,0,9.45-15.14,94.09,94.09,0,0,0,6.21-15.73A86.75,86.75,0,0,0,859,56.6H832.85V35.89Zm13.33,102V90.25c-1.21.18-2.37.31-3.49.39s-2.2.13-3.24.13c-1.21.09-2.24.13-3.1.13H882V69h12V33.56h20.58V137.88Zm26.93,0V33.56h20.45V137.88Z"/><path d="M1004.87,39.13v10a37.79,37.79,0,0,1-1.56,6.09,31.46,31.46,0,0,1-2.46,5.43c2.08,1.21,4.32,2.59,6.74,4.14s4.91,3.28,7.5,5.18l-12.42,14q-3.37-2.72-6.73-5a71.14,71.14,0,0,0-6.86-4.08,1.08,1.08,0,0,1-.52-.13,1.25,1.25,0,0,1-.39-.26,1.11,1.11,0,0,1-.52-.13,1.39,1.39,0,0,1-.39-.26,48.81,48.81,0,0,1-6.53,3.43,69.35,69.35,0,0,1-7.19,2.66,68.85,68.85,0,0,1-9.31,2.46,91.79,91.79,0,0,1-9.84,1.29l-7.9-14.75q3.5-.52,6.54-1.1c2-.39,4-.85,5.76-1.36q2.58-.53,4.92-1.23c1.55-.48,3.06-1,4.53-1.49,1.29-.52,2.56-1.06,3.82-1.62a30.07,30.07,0,0,0,3.56-1.88c1-.6,2.07-1.27,3.1-2A31.4,31.4,0,0,0,981.83,56H951V39.13h13.21V29.68h23.94v9.45Zm-50,66.27h72v-3.5H955.55V87.41h93.32v31.83h-72V123h73.26v14.49H954.91Zm71.18-60.58V33.56h22.65V83.65h-22.65V62.81c-.86.26-1.72.48-2.58.65a13.46,13.46,0,0,1-2.59.26,18.07,18.07,0,0,1-3.17.26h-7.19V45.34h6.86a9.49,9.49,0,0,0,1.62.13,11.94,11.94,0,0,0,1.75-.13h1.49a8.55,8.55,0,0,0,1.48-.13,12.07,12.07,0,0,0,1.23-.06A3.19,3.19,0,0,0,1026.09,44.82Z"/><path d="M1056.12,136.2V115.49h43V95.17h23.43v20.32h40.64V136.2Zm1-49.57a110,110,0,0,0,17.47-10.36A95.47,95.47,0,0,0,1088.48,64a50.49,50.49,0,0,0,9-13.85A44.27,44.27,0,0,0,1101,34.6h24.21A74.66,74.66,0,0,1,1124,45a68.82,68.82,0,0,1-2.66,9.77c1.82,1,3.67,2.11,5.57,3.23s3.75,2.2,5.57,3.24c1.63,1.21,3.3,2.42,5,3.62s3.38,2.46,5.11,3.76q2.33,1.94,4.79,4.07c1.64,1.43,3.28,2.87,4.92,4.34.77.78,1.55,1.58,2.33,2.4s1.59,1.61,2.46,2.39,1.72,1.73,2.59,2.59,1.76,1.73,2.71,2.59l-15.27,17.34q-4.53-5-9.19-9.58t-9.58-8.67q-4.53-3.36-9-6.34t-9-5.57a6.65,6.65,0,0,0-.45.52,5.21,5.21,0,0,1-.45.52,3.65,3.65,0,0,0-.46.52,3.57,3.57,0,0,0-.32.51,109.66,109.66,0,0,1-8.22,8.61,95.33,95.33,0,0,1-9.12,7.57,103.59,103.59,0,0,1-10.36,6.8q-5.31,3-10.74,5.5Z"/><path d="M269.51,172.44h7.42v2.1h-4.85v2.31h4.36V179h-4.36v4.43h-2.57Z"/><path d="M309.19,172.44h7.57v2.1h-5v2.31h4.61V179h-4.61v2.33h5v2.1h-7.59Z"/><path d="M349.34,172.44h4.48c2.46,0,4,1.4,4,3.63a3.19,3.19,0,0,1-1.9,3.13l2.29,4.18h-2.82l-2-3.76h-1.44v3.76h-2.57Zm3.93,5.12c1.22,0,1.86-.46,1.86-1.49s-.64-1.54-1.86-1.54h-1.36v3Z"/><path d="M393.36,172.44l2.83,6.89h.12l2.82-6.89h3.19v10.94h-2.51v-6.8h-.09l-2.66,6.74h-1.63l-2.66-6.77h-.09v6.83h-2.5V172.44Z"/><path d="M444.13,172.44v7.06c0,2.44-1.86,4-4.6,4s-4.61-1.59-4.61-4v-7.06h2.57v6.85a2,2,0,0,0,4.06,0v-6.85ZM439.74,169H442l-1.61,2.42h-1.76Z"/><path d="M479.92,172.44l2.82,6.89h.12l2.83-6.89h3.19v10.94h-2.51v-6.8h-.09l-2.66,6.74H482l-2.66-6.77h-.09v6.83h-2.51V172.44Z"/><path d="M521,183.38l3.72-10.94h3.41l3.7,10.94H529l-.74-2.34h-3.81l-.74,2.34Zm6.71-4.31-1.24-3.92h-.09l-1.24,3.92Z"/><path d="M563.89,172.44h2.57v4.67h.15l3.67-4.67h3.05l-3.91,4.88,4,6.06h-3.08L567.55,179l-1.09,1.35v3h-2.57Z"/><path d="M604.78,183.38l3.72-10.94h3.41l3.7,10.94h-2.76l-.74-2.34H608.3l-.74,2.34Zm6.71-4.31-1.24-3.92h-.09l-1.24,3.92Z"/><path d="M651.59,174.42c-1,0-1.58.45-1.59,1.07s.65,1,1.63,1.23l1,.22c2.11.47,3.34,1.51,3.34,3.27,0,2.07-1.61,3.31-4.33,3.32s-4.49-1.23-4.53-3.75h2.47c.06,1.06.86,1.61,2,1.61s1.73-.48,1.75-1.18-.57-1-1.78-1.24l-1.15-.27c-1.88-.44-3-1.38-3-3,0-2,1.79-3.39,4.26-3.39s4.15,1.38,4.17,3.4h-2.48C653.23,174.9,652.64,174.42,651.59,174.42Z"/><path d="M722.58,183.38V172.44h4c3.34,0,5.39,2.05,5.39,5.47s-2.05,5.47-5.39,5.47Zm3.92-2.21c1.87,0,2.9-.89,2.9-3.26s-1-3.27-2.93-3.28h-1.32v6.54Z"/><path d="M767,183.38h-2.57V172.44H767Z"/><path d="M799.61,172.44h7.57v2.1h-5v2.31h4.6V179h-4.6v2.33h5v2.1h-7.58Z"/><path d="M878.35,174.42c-1,0-1.57.45-1.58,1.07s.65,1,1.63,1.23l1,.22c2.11.47,3.33,1.51,3.34,3.27,0,2.07-1.62,3.31-4.34,3.32s-4.48-1.23-4.53-3.75h2.48c.06,1.06.85,1.61,2,1.61s1.74-.48,1.76-1.18-.58-1-1.79-1.24l-1.14-.27c-1.88-.44-3-1.38-3-3,0-2,1.78-3.39,4.26-3.39s4.15,1.38,4.17,3.4h-2.48C880,174.9,879.4,174.42,878.35,174.42Z"/><path d="M915,172.44h7.56v2.1h-5v2.31h4.61V179h-4.61v2.33h5v2.1H915Z"/><path d="M959.31,174.42c-1,0-1.58.45-1.59,1.07s.65,1,1.63,1.23l.95.22c2.11.47,3.33,1.51,3.34,3.27,0,2.07-1.62,3.31-4.33,3.32s-4.49-1.23-4.54-3.75h2.48c.06,1.06.85,1.61,2,1.61s1.73-.48,1.75-1.18-.58-1-1.78-1.24l-1.15-.27c-1.88-.44-3-1.38-3-3,0-2,1.78-3.39,4.26-3.39s4.15,1.38,4.17,3.4H961C960.94,174.9,960.36,174.42,959.31,174.42Z"/><path d="M995.91,172.44h2.57v8.84h4.59v2.1h-7.16Z"/><path d="M1035,183.38l3.72-10.94h3.41l3.7,10.94h-2.76l-.74-2.34h-3.81l-.74,2.34Zm6.71-4.31-1.24-3.92h-.09l-1.24,3.92Z"/><path d="M1080.5,183.38h-2.57V172.44h2.57Z"/><path d="M1122.37,183.38h-2.19l-4.44-6.42h-.07v6.42h-2.57V172.44h2.22l4.39,6.42h.1v-6.42h2.56Z"/><path d="M1155,183.38V172.44h4c3.34,0,5.4,2.05,5.4,5.47s-2.06,5.47-5.4,5.47Zm3.91-2.21c1.88,0,2.9-.89,2.9-3.26s-1-3.27-2.93-3.28h-1.31v6.54Z"/></g></g></svg>