<svg xmlns="http://www.w3.org/2000/svg" viewBox="0 0 364.6 62.38"><g id="레이어_2" data-name="레이어 2"><g id="레이어_1-2" data-name="레이어 1"><path d="M7.29,20.83c.25-1.18.47-2.45.66-3.8s.34-2.77.45-4.28S8.55,9.7,8.55,8s0-3.52-.05-5.48h8.61q0,3.93,0,7.19c0,2.17-.07,4.09-.18,5.77-.1,1-.22,1.94-.34,2.86s-.24,1.81-.34,2.65c.87,1.12,1.73,2.27,2.57,3.44S20.48,26.8,21.25,28s1.5,2.68,2.18,4.05,1.34,2.74,2,4.14l-6.35,4.51Q18,38.52,17,36.45t-2.15-4q-.32-.47-.66-1c-.22-.37-.44-.71-.65-1-.11.28-.22.55-.34.81s-.26.52-.4.76a8.16,8.16,0,0,1-.34.79c-.12.24-.23.49-.34.73a44.11,44.11,0,0,1-2.44,4.28,40.29,40.29,0,0,1-2.91,4L0,35.69q.63-.8,1.23-1.68c.4-.6.82-1.24,1.24-1.94s.7-1.27,1.07-1.92.71-1.32,1-2,.61-1.33.89-2,.56-1.31.84-1.94l.58-1.75A14.64,14.64,0,0,0,7.29,20.83Zm19.42,23V22.25a13.45,13.45,0,0,1-1.89.19l-1.89,0c-.63,0-1.17.05-1.62.05h-1V14.12h6.45V1.57h8.35v42.3Zm10.92,0V1.57h8.29v42.3Z"/><path d="M48.33,43.19v-8.4H91.74v8.4Zm.42-20.1a43.17,43.17,0,0,0,7.06-4.2,35.73,35.73,0,0,0,5.49-5,20.51,20.51,0,0,0,3.57-5.62A18.18,18.18,0,0,0,66.28,2H76.1a32.26,32.26,0,0,1-.48,4.26,24.14,24.14,0,0,1-1,3.93q2.36,1.37,4.56,2.76c1.47.92,2.85,1.88,4.15,2.86s2.57,2.18,3.93,3.41,2.77,2.57,4.2,4l-6.19,7c-1.23-1.36-2.49-2.66-3.78-3.88s-2.62-2.4-4-3.52q-1.89-1.3-3.7-2.52c-1.21-.8-2.42-1.55-3.65-2.25l-.63.78a38.25,38.25,0,0,1-3.25,3.49,35.94,35.94,0,0,1-3.67,3.07,43,43,0,0,1-4.18,2.76c-1.41.82-2.86,1.56-4.32,2.23Z"/><path d="M94.94,17.53h14.74v-7.4H95.2V2h23.41V25.4H103.86v8h16.22v8.13H94.94Zm45-1.94v9.08c-.21,0-.44,0-.69,0l-.78.08a7.89,7.89,0,0,0-.84.05,6.37,6.37,0,0,1-.9.06c-.59.1-1.16.2-1.7.31l-1.55.31V43.82H123.8V1.57h9.71v15c.49-.14,1-.27,1.55-.39s1.13-.24,1.76-.34a7,7,0,0,0,.92-.06,8,8,0,0,1,.81-.05l.76-.08Z"/><path d="M149.28,27.08A12.27,12.27,0,0,1,145,24.51a9.86,9.86,0,0,1-2.89-4.15,16.71,16.71,0,0,1-.94-5.88,18.26,18.26,0,0,1,.24-3,11.64,11.64,0,0,1,.76-2.71,12.54,12.54,0,0,1,1.15-2.25,10.3,10.3,0,0,1,1.63-1.94,11.53,11.53,0,0,1,2-1.5,15.1,15.1,0,0,1,2.36-1.13,15.7,15.7,0,0,1,2.58-.65,17.77,17.77,0,0,1,8.44.65,14.08,14.08,0,0,1,4.31,2.63,15.69,15.69,0,0,1,1.55,1.94,17.52,17.52,0,0,1,1.28,2.25,15.56,15.56,0,0,1,.74,2.71,17.21,17.21,0,0,1,.26,3,16.47,16.47,0,0,1-1,5.88,10.27,10.27,0,0,1-2.86,4.15,12.94,12.94,0,0,1-4.38,2.57,16.65,16.65,0,0,1-5.44.84A16.77,16.77,0,0,1,149.28,27.08Zm3.33,2.73v6h29.23v7.88H143.43V29.81Zm2.86-10.6a6,6,0,0,0,.87-.21,2.45,2.45,0,0,0,.76-.26,4.17,4.17,0,0,0,.76-.53,2.43,2.43,0,0,0,.6-.6,6.79,6.79,0,0,0,.55-.87,4.57,4.57,0,0,0,.35-1,6.11,6.11,0,0,0,.13-1.29,5.54,5.54,0,0,0-.13-1.18,6.11,6.11,0,0,0-.35-1,7.4,7.4,0,0,0-.55-.79,7.87,7.87,0,0,0-.6-.68l-.76-.42c-.26-.14-.52-.26-.76-.37l-.87-.18a3.86,3.86,0,0,0-.71-.08,4.78,4.78,0,0,0-.84.08,7.5,7.5,0,0,0-.78.18,4.7,4.7,0,0,0-.84.37c-.25.14-.47.28-.68.42a4.69,4.69,0,0,0-.66.68,3.28,3.28,0,0,0-.45.79,3.54,3.54,0,0,0-.36,1,6.31,6.31,0,0,0-.11,1.18,7,7,0,0,0,.11,1.29,2.87,2.87,0,0,0,.36,1,3.42,3.42,0,0,0,.45.87,2.08,2.08,0,0,0,.66.6,3.12,3.12,0,0,0,.68.53,2.18,2.18,0,0,0,.84.26,3.19,3.19,0,0,0,.78.21,7.89,7.89,0,0,0,.84.05A6.38,6.38,0,0,0,155.47,19.21Zm16.66,11.6V1.57h9.19V30.81Z"/><path d="M184,43.19v-8.4h43.4v8.4ZM215,21.1c1,0,1.93,0,2.84,0s1.78-.06,2.62-.13a17.94,17.94,0,0,0,2.23-.13c.72-.09,1.39-.19,2-.29v7.77a11.93,11.93,0,0,1-1.7.44,15.13,15.13,0,0,1-2.18.24c-.84.1-1.73.17-2.65.21s-1.88.05-2.86.05H186.62V2.41h37v8.14H195.8V21.1Z"/><path d="M249.6,2.52V7.08c-.07,1.68-.21,3.36-.42,5s-.49,3.29-.84,4.9c-.32,1.3-.68,2.58-1.08,3.83s-.83,2.47-1.28,3.63L247.21,26l1.23,1.55q1.26,1.89,2.47,3.86t2.31,4l-5.72,6c-.42-.74-.83-1.44-1.21-2.1s-.73-1.31-1-1.94a10.11,10.11,0,0,1-.58-.87c-.17-.3-.35-.59-.52-.87s-.35-.61-.53-.89-.35-.58-.52-.89l-.29-.31a3.33,3.33,0,0,1-.24-.32,2.3,2.3,0,0,1-.28-.34,3.14,3.14,0,0,1-.24-.39q-.21.32-.39.63c-.13.21-.26.42-.4.62a5.58,5.58,0,0,0-.39.56c-.12.19-.24.37-.34.55q-1.43,2-2.94,3.75a38.66,38.66,0,0,1-3.15,3.23l-6-6A55.8,55.8,0,0,0,233.17,30,55.31,55.31,0,0,0,237,23.88a38.42,38.42,0,0,0,2.52-6.38,34.92,34.92,0,0,0,1.26-6.58h-10.6V2.52ZM255,43.87V24.56c-.49.07-1,.12-1.42.16s-.89.05-1.31.05-.91.05-1.26.05h-.89V16H255V1.57h8.35v42.3Zm10.92,0V1.57h8.29v42.3Z"/><path d="M299.93,3.83v4a15.17,15.17,0,0,1-.63,2.47,13.93,13.93,0,0,1-1,2.2q1.26.73,2.73,1.68c1,.63,2,1.33,3,2.1L299,22c-.91-.74-1.82-1.41-2.73-2a28.2,28.2,0,0,0-2.78-1.65.42.42,0,0,1-.21-.06.48.48,0,0,1-.15-.1.46.46,0,0,1-.21-.05.55.55,0,0,1-.16-.11,19.63,19.63,0,0,1-2.65,1.39,30.42,30.42,0,0,1-2.92,1.08,26.43,26.43,0,0,1-3.77,1,36.84,36.84,0,0,1-4,.53l-3.2-6c.94-.14,1.82-.29,2.65-.45s1.6-.34,2.33-.55,1.37-.31,2-.5,1.24-.39,1.83-.6,1-.43,1.55-.66a12.25,12.25,0,0,0,1.44-.76c.42-.24.84-.52,1.26-.81a12.67,12.67,0,0,0,1.26-1H278.09V3.83h5.36V0h9.71V3.83ZM279.67,30.7h29.18V29.28H279.93V23.41h37.84V36.32H288.59v1.52h29.7v5.88H279.67ZM308.53,6.14V1.57h9.19V21.88h-9.19V13.43a10.12,10.12,0,0,1-1,.27,5.33,5.33,0,0,1-1.05.1,7.1,7.1,0,0,1-1.28.11h-2.92V6.35H305a4.51,4.51,0,0,0,.65.05,5.92,5.92,0,0,0,.71-.05h.6a4.3,4.3,0,0,0,.61,0,4.07,4.07,0,0,0,.5,0A1.39,1.39,0,0,0,308.53,6.14Z"/><path d="M320.71,43.19v-8.4h17.42V26.55h9.5v8.24h16.48v8.4Zm.42-20.1a44.69,44.69,0,0,0,7.08-4.2,39.39,39.39,0,0,0,5.62-5,20.32,20.32,0,0,0,3.64-5.62A18,18,0,0,0,338.92,2h9.81a28.46,28.46,0,0,1-.5,4.23,28.21,28.21,0,0,1-1.07,4l2.25,1.31c.77.46,1.53.89,2.26,1.31s1.34,1,2,1.47,1.37,1,2.07,1.53,1.28,1.07,1.95,1.65,1.33,1.16,2,1.76c.31.31.63.64.94,1s.65.65,1,1l1.05,1.05c.35.35.72.7,1.1,1.05l-6.19,7c-1.22-1.36-2.47-2.66-3.72-3.88S351.32,24,350,22.88c-1.22-.91-2.44-1.76-3.65-2.57s-2.42-1.56-3.64-2.26l-.19.21a1.68,1.68,0,0,1-.18.21,1.68,1.68,0,0,0-.18.21,1.28,1.28,0,0,0-.14.21,44,44,0,0,1-3.33,3.49,37.42,37.42,0,0,1-3.7,3.07,39.93,39.93,0,0,1-4.2,2.76q-2.14,1.23-4.35,2.23Z"/><path d="M1.76,57.88h3v.85h-2v.94H4.58v.85H2.8v1.8h-1Z"/><path d="M17.85,57.88h3.07v.85h-2v.94h1.87v.85H18.89v.95h2v.85H17.85Z"/><path d="M34.13,57.88H36a1.43,1.43,0,0,1,1.61,1.47,1.29,1.29,0,0,1-.77,1.27l.93,1.7H36.57l-.81-1.53h-.59v1.53h-1ZM35.73,60c.49,0,.75-.19.75-.61s-.26-.62-.75-.62h-.56V60Z"/><path d="M52,57.88l1.15,2.8h0l1.14-2.8h1.3v4.44h-1V59.56h0L53.48,62.3h-.66l-1.08-2.75h0v2.77h-1V57.88Z"/><path d="M72.57,57.88v2.87a1.89,1.89,0,0,1-3.74,0V57.88h1v2.78a.79.79,0,0,0,.83.81.78.78,0,0,0,.82-.81V57.88Zm-1.78-1.4h.92l-.66,1h-.71Z"/><path d="M87.08,57.88l1.14,2.8h0l1.15-2.8h1.29v4.44h-1V59.56h0L88.58,62.3h-.66l-1.08-2.75h0v2.77h-1V57.88Z"/><path d="M103.72,62.32l1.5-4.44h1.39l1.5,4.44H107l-.3-1h-1.55l-.3,1Zm2.72-1.75-.5-1.59h0l-.5,1.59Z"/><path d="M121.12,57.88h1v1.9h.06l1.49-1.9H125l-1.59,2L125,62.32h-1.25l-1.12-1.76-.44.55v1.21h-1Z"/><path d="M137.7,62.32l1.51-4.44h1.39l1.5,4.44H141l-.3-1h-1.55l-.3,1Zm2.73-1.75L139.92,59h0l-.51,1.59Z"/><path d="M156.68,58.68c-.42,0-.64.19-.64.44s.26.41.66.5l.39.09c.85.19,1.35.61,1.35,1.32s-.65,1.35-1.76,1.35-1.82-.5-1.84-1.52h1c0,.43.35.65.82.65s.71-.19.71-.48-.23-.39-.72-.5l-.47-.11c-.76-.18-1.23-.56-1.23-1.23s.72-1.37,1.73-1.37,1.68.56,1.69,1.38h-1C157.35,58.88,157.11,58.68,156.68,58.68Z"/><path d="M185.47,62.32V57.88h1.62a2.22,2.22,0,0,1,0,4.44Zm1.59-.89c.76,0,1.17-.37,1.17-1.33s-.41-1.33-1.19-1.33h-.53v2.66Z"/><path d="M203.48,62.32h-1V57.88h1Z"/><path d="M216.7,57.88h3.07v.85h-2v.94h1.87v.85h-1.87v.95h2v.85H216.7Z"/><path d="M248.63,58.68c-.42,0-.64.19-.64.44s.26.41.66.5l.39.09c.85.19,1.35.61,1.35,1.32s-.66,1.35-1.76,1.35-1.82-.5-1.84-1.52h1c0,.43.34.65.82.65s.7-.19.71-.48-.23-.39-.72-.5l-.47-.11c-.76-.18-1.23-.56-1.23-1.23s.72-1.37,1.73-1.37,1.68.56,1.69,1.38h-1C249.3,58.88,249.06,58.68,248.63,58.68Z"/><path d="M263.47,57.88h3.07v.85h-2v.94h1.87v.85h-1.87v.95h2v.85h-3.08Z"/><path d="M281.46,58.68c-.43,0-.65.19-.65.44s.26.41.66.5l.39.09c.85.19,1.35.61,1.35,1.32s-.65,1.35-1.75,1.35-1.83-.5-1.85-1.52h1c0,.43.35.65.82.65s.71-.19.71-.48-.23-.39-.72-.5l-.47-.11c-.76-.18-1.23-.56-1.23-1.23s.73-1.37,1.73-1.37,1.68.56,1.69,1.38h-1C282.12,58.88,281.88,58.68,281.46,58.68Z"/><path d="M296.29,57.88h1v3.59h1.87v.85h-2.91Z"/><path d="M312.14,62.32l1.51-4.44H315l1.5,4.44h-1.12l-.3-1h-1.55l-.3,1Zm2.73-1.75L314.36,59h0l-.51,1.59Z"/><path d="M330.59,62.32h-1V57.88h1Z"/><path d="M347.58,62.32h-.89l-1.81-2.61h0v2.61h-1V57.88h.9l1.79,2.61h0V57.88h1.05Z"/><path d="M360.79,62.32V57.88h1.62a2.22,2.22,0,0,1,0,4.44Zm1.59-.89c.76,0,1.17-.37,1.17-1.33s-.41-1.33-1.19-1.33h-.53v2.66Z"/></g></g></svg>