<svg xmlns="http://www.w3.org/2000/svg" width="1920" height="1080" viewBox="0 0 1920 1080">
  <rect width="1920" height="1080" fill="#5e95b4"/>
  <g>
    <path d="M1621.042,71.166c4.639-8.889,6.292-18.373,14.863-23.475,7.319,1.381,3.991,7.868,5.771,12.028,8.107,7.584,18.2.051,27.81,5.185,5.1,10.924,12.989,22.168,24.99,29.769l13.155-12.651L1690.4,68.585c-3.364-15.9,9.231-11.922,14.676-16.735.638-5.967,1.323-12.369,1.965-18.372,6.134-5.783,13.281-1.511,19.544-3.2,7.655-7.648,15.309-15.3,23.669-23.662l8.539,6.894,8.865-7.627,18.24,21.222c-4.023,5.739-12.583,11.811-1.255,21.408,5.139,4.355,3.89,8.889-.305,13.521-3.629,4.006-7.613,7.69-11.44,11.517-8.175,16.433,4.68,24.185,12.764,32.227,9.312,16.818-14.166,26.691-4.747,41.883L1767,159.627l-7.84-6.476-8.236,7.291c-2.783-2.539-5.689-5.191-8.6-7.842-7.69.544-14.918-.924-22.3,5.5-7.241,6.3-21.124-.144-27.782,10.792-20.611,6.224-20.611,6.224-31.334,16.611-15.263-4.317-28.615,4.529-43.256,10.436-.692,6.155-1.411,12.554-2.1,18.668-1.217,1.217-2.163,2.994-3.132,3.007-13.525.183-27.053.124-40.781.124-11.326-10.961-17.773-24.161-20.737-40.028-1.818-9.735-11.219-17.66-7.824-29.208.733-2.491-.714-7.4.231-7.782,13.664-5.556,4.134-19.964,11.106-28.209,3.945-4.664,5.127-11.635,8.986-16.41,5.011-6.2,10.737-14.42,17.461-15.923,7.167-1.6,10.824-7.681,16.782-8.689C1605.416,70.174,1613.566,71.166,1621.042,71.166Z" fill="#c1c0c0" stroke="#040000" stroke-miterlimit="10"/>
    <path d="M1592.121,238.905v31.858c12.869,8.56,6.754,21.524,7.837,32.78-15.493,6.863-15.493,6.863-16.592,25.364-9.668,4.645-19.747,3.258-31.2,1.243V304.084c-6.065-6.065-10.808-10.807-15.548-15.549,2.2-5.367,5.118-10.565,6.412-16.141,2.107-9.072,12.182-2.929,15.565-8.906-3.77-7.182-13.561-13.264-2.377-22.615,3.363-2.813,3.987-8.9,5.86-13.491C1573.36,223.119,1582.383,226.394,1592.121,238.905Z" fill="#c1c0c0" stroke="#040000" stroke-miterlimit="10"/>
    <path d="M2655.267,848.07,2624.892,868.1l-8.1-12.3V833.29l.447-12.3s1.833-15.84,2.729-17.061c.936-1.221-11.605-21.866-11.605-21.866l-.9-16.368-15.188-12.012-7.492-21.621a98.691,98.691,0,0,1-18.567,7.533c-3.665-3.38-6.6-6.108-9.691-8.959h-64.782c-11.809-14.292-27.444-5.578-40.311-8.225-8.673,8.714-16.166,16.572-24.187,23.861-1.547,1.426-5.375,1.385-7.655.57a8.794,8.794,0,0,1-4.845-5.374c-2.159-9.121,2.483-16.736,6.433-23.9-9.731-11.686-19.992-21.825-36.483-20.685-6.6-8.51-19.015-8.062-25.612-17.142-4.723-6.515-11.32-11.645-16.572-16.939-6.067-16.45,7.247-35.751-9.2-49.92,9.61-6.067,8.388-15.554,7.7-24.838-2.85-2.891-5.538-5.986-8.673-8.592-5.171-4.4-7.981-5.253-13.64-.692-4.439,3.624-8.266,6.555-14.129,5.456-5.905-1.1-10.506.9-13.886,5.782-1.913,2.769-3.827,2.443-6.352-2.117,1.3-5.293-2.524-12.053,1.874-17.916,9.568-6.271,21.824,3.3,30.09-5.416,2.28-6.759-2.769-14.251,3.3-19.626,8.8-7.818,7.167-16.165,1.955-25.856-5.09,0-10.384-.244-15.677.082-6.555.366-15.228-1.1-19.056,2.443-6.962,6.474-17.264,5.253-23.372,13.64-7,9.569-16.654,17.224-23.982,24.553-32.534-.2-32.534-.2-57.943-16.816-4.112,12.541-14.9,7.614-23.7,8.876-3.828,3.828-7.655,7.7-11.687,11.727,2.566,2.81,5.171,5.66,6.922,7.614-2.524,4.724-7.492,9.732-6.718,13.641,2.28,11.971-9.366,18.242-9.976,28.869-.245,4.112-7.7,4.316-13.519.367-2.2-1.507-3.949-3.624-5.741-5.294h-53.178c-12.133,11.035-22.4,19.83-31.882,29.4-2.239,2.24-1.751,7.126-2.565,10.872h-16.532c-8.754,4.6-11.848,15.554-22.109,16.735-8.633-2.89-15.147-9.12-25.408-8.672-25.612,1.18-51.346.406-74.433.406-5.212-3.175-10.628-6.84-10.831-6.514-7.166,9.284-16.084,7.451-25.815,4.519-6.841-11.685-21.133-13.884-30.824-22.435-8.062,2.28-11.2-5.864-17.061-7.981-7.817-2.85-10.709,7.166-16.938,7.737-7.941.773-14.945.325-21.866,7-5.782,5.578-11.849-1.344-16.288-6.393-7.085,13.152-6.758,13.844-22.72,21.459-8.306,3.95-17.061,6.474-22.558,14.984,0,5.09-2.28,12.7.448,15.473,6.311,6.433,6.678,13.356,8.184,21.377,2.2,12.012-10.831,18-8.917,29.358.529,3.257-1.3,7.9-3.624,10.464-5.5,6.027-6.148,11.239-.081,16.939,5.782,5.416,4.886,14.088,11.156,20.074,7.248,6.841,15.554,1.751,22.395,5.415a15,15,0,0,1,2.973,2.85v8.226q10.015,9.894,20.278,19.992c5.618-5.334,11.4-10.79,16.49-15.6h24.8c3.1,5.945,5.782,11.646,8.918,17.1,3.828,6.556,3.828,14.944,11.319,19.911,5.049,3.339,9.488,5.375,13.926,1.018,4.072-4.031,7.9-7.207,14.862-5.456,3.054,3.3,6.719,7.289,10.79,11.645.652,5.7,1.385,12.134,2.036,18.2,5.456,1.914,10.18,3.583,16.165,5.7-10.22,10.668-25.082-1.792-35.058,10.709,2.647,4.6,5.619,9.894,8.673,15.269-2.647,2.647-5.049,6.352-8.469,8.225-7.7,4.275-15.555,9.528-23.861,10.872-11.808,1.873-5.375-12.379-12.216-17.1-8.795-6.067-15.554-15.025-23.331-22.6-2.932-2.851-10.79.285-12.663,5.171a100.559,100.559,0,0,0-2.973,10.545h-25.733q-9.9-10.015-19.993-20.114c1.669-11.727-5.171-13.437-14.495-12.541-1.711.162-26.467-12.541-26.345-13.193,1.425-10.057-7.778-13.193-12.378-19.341H1648.92c-13.478-6.433-23.454-11.93-33.959-16.084-11.686-4.641-17.428,10.831-28.5,9.529-3.949,8.306-13.762,5.822-19.992,11.156-9.61,8.225-19.667,5.172-27.526-4.561-20.359,0-40.718-.081-61.077.123-2.321.04-4.6,1.873-7,2.931-.774,6.353-1.507,12.786-2.2,18.568-5.375,5.334-10.179,10.139-15.8,15.758,3.38,8.143-2.728,17.957,3.787,26.792,6.149.693,12.582,1.426,20.4,2.281v51.345c11.727,6.433,8.347,16.939,10.057,25.693,6.19,4.4,15.514,3.38,19.748,11.238,13.845-1.913,25.042,5.171,35.71,11.972,10.058,6.433,20.033,4.153,30.335,3.094,7.778-11.4,19.585-5.578,29.724-6.922,8.307,8.266,21.336,9.08,28.91,18.853,4.968,6.392,11.361,11.645,17.346,17.59v40.677c-5.456,9.04-15.187,12.745-24.553,17.468v15.84c-8.143,3.99-15.717,9-24.064,11.441-10.017,2.892-14.618,11.32-21.174,17.59-2.361,2.24-4.723,4.52-7.044,6.841,11.89,13.518,24.716,29.6,28.1,21.866,17.1,0,32.615,2.321,47.11-5.741,3.135-7.207,6.393-14.659,10.017-22.925,21.092-1.384,30.05-22.761,47.966-30.335,3.013-10.342,10.057-10.139,18.364-7.289.977.327,3.379-.61,3.624-1.425,4.927-15.839,14.129-3.908,23.82-4.071,7.7-.122,16.45-8.551,25.367-13.682-1.954-6.148-1.954-6.148,7.655-10.627,5.253-12.093,10.668-24.472,16.45-37.705,8.51-2.81,17.469-5.782,28.136-9.283,2.892,1.262,7.778,3.379,11.4,4.967,22.518-8.836,43.935-17.223,64.783-25.408,13.681,5.945,25.937,11.564,38.438,16.654,6.026,2.483,13.844,7.166,18.323,5.171,8.062-3.624,15.107,1.14,23.128-1.466,24.145-7.94,1.914-85.589,21.7-76.958,22.394,9.733,44.871,19.3,67.063,29.481,6.921,3.175,16.531,3.3,19.1,12.826,1.547,5.659,4.6,3.216,8.348,2.932,25.081-1.832,25.081-1.67,44.993,6.84,3.338,6.719,3.746,16.98,16.165,12.5a19.616,19.616,0,0,1,11.157-.326,59.1,59.1,0,0,1,14.943,6.393c13.966,8.429,29.276,9.65,45.645,8.876.571-.285,2.484-.488,2.891-1.425,4.52-9.813,8.8-19.789,13.03-29.521a76.8,76.8,0,0,1-3.013-7.858c-2.443-8.958,10.505-16.817,2.036-26.3,5.089-4.886,9.568-10.872,15.472-14.455,6.882-4.153,15.025-6.23,24.431-9.935,3.5,1.547,8.184,4.072,13.193,5.538,2.076.651,6.515-.285,6.963-1.589,2.891-7.9,6.922-10.22,15.188-6.677,2.85,1.221,7.492-1.751,11.36-2.851.936,2,2.606,4.194,3.054,6.6,1.343,7.329,2.2,14.74,3.216,22.151,10.139,2.32,10.058,11.889,12.746,18.934,2.931,7.776,10.138,7.9,16.653,11.97,3.339,10.425,7.044,21.866,10.627,33.145,6.556.326,10.506,1.344,14.048.529,5.253-1.221,10.057-4.967,15.229-5.5,8.714-.855,17.549,0,27.81.163-1.14,19.056,6.841,35.384,14.618,51.793,13.112,2.485,5.171,12.3,6.637,19.423,10.057,4.886,18.73,13.233,32.534,8.225,7.858-2.85,10.505,5.782,12.907,12.908,13.112,5.741,26.956,11.2,40.149,17.875,4.153,2.118,6.6,7.533,11.523,13.518,6.474,2.81,15.106,6.6,24.146,10.546,3.99-4.641,9.935-7.817,12.46-13.6q0-59,.04-118.083a17.073,17.073,0,0,1,.855-3.665c4.805-4.8,9.894-9.365,14.252-14.536,1.384-1.669,1.587-5.252.936-7.573-1.14-4.113-4.4-5.986-9-5.538-3.95.366-7.94.081-11.279.081-5.578,6.6-12.541,10.465-12.786,20.359-.121,4.8-7.98,5.457-14.7,1.548v-23.7c-3.869-5.5-8.022-10.872-7.737-11.075,8.958-7.737,7.411-23.088,20.848-27.852,2.036,0,4.886-.529,7.451.082,15.148,3.746,25.856-10.3,41.492-9.162,10.424.774,19.137,7.207,28.91,9.406l15.6-46.215,2.4-30.945Zm-920.676,167.271c-8.022-.082-13.4,1.587-12.175,10.993,1.466,11.279-9.65,17.875-10.342,28.258-11.4,5.294-20.115,1.548-27.933-7.492-3.3-3.787-8.225-6.148-12.379-9.161,7.248-7.248,12.012-12.053,18.039-18.039V996.406c2.2-2.483,4.723-5.5,7.41-8.347,4.561-4.723,9.569-8.469,9.365-16.694-.081-4.52,9.244-6.352,13.071-2.891,3.909,3.583,10.261,7.818,10.261,11.726a40.02,40.02,0,0,0,8.347,25.368C1739.477,1007.2,1735.893,1015.341,1734.591,1015.341Z" fill="#c1c0c0" stroke="#040000" stroke-miterlimit="10"/>
    <path d="M540.329,945.875l-.325.041a1.208,1.208,0,0,0,.162-.326A.514.514,0,0,1,540.329,945.875Z" fill="#c1c0c0" stroke="#040000" stroke-miterlimit="10"/>
    <path d="M1070.153,1010.7v51.509c-2.85,1.954-8.306,5.7-15.27,10.464-5.008-.325-13.884,2.932-19.178-6.637-1.832.937-3.99,1.507-5.537,2.85-3.094,2.647-5.66,5.823-8.714,8.511-6.515,5.741-14.536,5.171-15.147-1.995-.855-9.814-8.184-12.867-13.111-18.568-7.493,9.447-22.558,8.225-28.136,20.155v24.39c16.368,14.455,4.275,33.105,8.632,48.415-8.022,7.613-16.491,3.664-24.187,4.316-8.062.692-16.572-1.262-24.308.529-8.388,1.954-16.084,6.922-24.065,10.587-2.361,17.916-19.422,24.43-29.154,37.42H846.326c-4.316,5.5-9.284,11.848-14.292,18.2-3.339-3.34-5.212-5.294-7.167-7.167-.936-.9-2.4-2.524-3.013-2.28-14.373,5.66-23.494-12.012-37.42-8.307-12.5,3.339-20.033-13.152-33.429-8.55-2,.692-6.23-4.113-9-6.841-13.559-13.315-26.915-26.833-40.433-40.352-2.484-2.484-14.129-17.305-14.129-17.305s-10.953-12.134-13.967-12.745c-3.053-.611-8.509-5.782-8.509-6.678,0-.569-7.411-2.239-13.193-3.5-3.746-.774-6.841-1.385-6.841-1.385l-5.13-8.265-.326-.53-.448-.122-13.193-3.216-3.216-10.017V1060.7c-4.887-5.09-10.424-10.871-16.043-16.735v-24.146c-6.8-6.8-15.229-12.541-19.748-20.481-5.09-8.917-19.3-3.828-20.645-14.984-1.3-11.076-10.953-14.659-16.9-21.459-4.438-5.13-8.265-9.69-8.917-16.9a.15.15,0,0,0-.041-.122.514.514,0,0,0-.163-.285c5.294-9.2-9.812-21.987-3.257-31.027,7.085-9.854,7.818-24.146,12.745-34.61,9.569-6.963,11.442-9.447,21.54-13.6,8.469-8.469,14.169-7.289,23.657-16.125,2.972-2.768,9.732-24.267,14.9-27.036l66.981-24.879c8.184-2.769,15.921-1.914,23.7-11.483l7.207,7.207c-1.629,2.281-3.583,4.846-5.253,7.452-2.4,3.827-1.791,8.958.978,7.818,11.075-4.439,20.725-2.728,33.225-12.216,5.66-4.275,12.99-4.438,18.487-6.108,1.75,1.711,3.135,2.362,3.583,3.665,1.384,4.113,9.854-.733,9.854,1.67-.041,4.153-.815,8.225,2.2,10.424,2.769,2,4.886,4.723,7.289,7.126l12.052,12.052c7.94-1.385,17.346-4.8,23.983-6.271,1.955,1.955,2.973,2.281,2.851,2.932-1.914,7.411-3.991,14.943-6.434,23.779,2.362,2.321,5.293,5.009,7.94,7.981,3.1,3.339,8.673,4.968,4.561,13.478,2.687,3.054,5.374,6.067,7.98,9.121,10.628-6.026,11.076,4.072,19.138,3.216,10.546-1.1,18.975,2.525,31.231-1.588,8.672-2.891,8.55-2.28,14.74,2.85,7.98-1.913,16.287-4.112,24.308-5.7,2.4-.448,3.99,1.14,6.149,1.384,1.465.163,4.479-1.221,4.8-.407,2.564,6.6,10.179,3.95,17.752,1.669,0,0,6.067,12.827,6.963,12.5.9-.285,13.641-9.691,13.641-9.691l23.7,9.691,19.707-.9,15.8-5.456s9.691-4.56,13.966-.326c4.235,4.276,8.347,12.135,8.347,12.135-1.018,3.257-8.184,13.721-10.993,16.531-6.026,6.148.2,11.89,5.781,16.857-2.32,2.81-4.641,5.579-7.41,8.877v32.452C1053.214,980.079,1054.68,1000.356,1070.153,1010.7Z" fill="#c1c0c0" stroke="#040000" stroke-miterlimit="10"/>
    <path d="M-552.444-283.748l94.807,1719.055,958.47-89.947c0-6.8.04-13.559-.041-20.359-.081-8.1-11.727-11.36-8.795-20.766-12.215-10.953-9.65-23.372-3.339-35.914,1.466-2.972,2.81-6.026,4.194-8.957a52.657,52.657,0,0,1,4.4-7.574c4.194-5.741,10.22-9.65,21.295-8.632,10.546.977,19.219.122,26.182,7.9,2.687,3.013,6.311,8.633,8.51,8.184,15.229-3.053,9.65,13.275,16.817,17.143H581.74c23.779-9.569,24.553-33.471,40.555-44.709-4.153-4.519-7.777-8.469-13.681-14.9-4.561,7-8.836,13.518-12.745,19.5-13.8-9.243-22.965-20.237-29.969-34.57,8.673-17.876,26.223-23.657,45.36-32.656,3.909,5.945,8.348,12.7,15.229,23.209,5.456-7.777,8.591-11.93,11.36-16.287,3.013-4.764-.774-13.478,9.976-14.007,5.782-.285,11.157-5.66,17.1-7.492,4.764-1.507,10.668,1.425,14.7-3.868,6.23-8.1,14.414-3.95,21.947-3.258-2.484-2.484-14.129-17.305-14.129-17.305s-10.953-12.134-13.967-12.745c-3.053-.611-8.509-5.782-8.509-6.678,0-.569-7.411-2.239-13.193-3.5-3.746-.774-6.841-1.385-6.841-1.385l-5.13-8.265-.326-.53-.448-.122-13.193-3.216-3.216-10.017v1.791c-4.235,4.235-8.062,8.063-11.849,11.89H570.054c-6.352,6.6-11.239,12.7-13.234,23.169-2.239,11.6-7.41,24.593-18.445,32.9H512.4c-6.067-4.6,0-14.9-10.75-15.677-4.642-.366-9.039-4.316-13.885-6.841-2,1.833-4.886,4.521-7.532,6.964H447.7c-2.077-2.077-3.665-4.724-5.986-5.783-9.121-4.153-18.486-7.736-27.688-11.685-1.14-.489-2.647-1.874-2.688-2.851-.122-19.382-24.756-22.924-26.67-42.021-.692-6.8-12.948-9.406-14.088-18.363-1.833-14.333-6.474-4.561-11.279-1.792-7.533,4.356-12.134-1.344-16.613-6.311-4.031,2.891-7.981,5.741-11.32,8.1-3.7-1.426-6.474-1.833-8.266-3.34-4.112-3.5-7.777-7.573-13.111-12.907-18.323-1.833-38.4.488-57.982-.977-8.266-7.9,2.646-23.21-11.809-28.1,9.854-4.316,8.185-15.595,13.844-22.965,9.325-12.134,20.685-21.621,35.344-21.825,6.759-.081,13.518,0,19.789,0,3.176,2.81,5.985,5.293,8.591,7.574,3.339-2.85,6.312-5.375,10.18-8.673,14.455,7.451,29.073,14.7,43.446,22.435,9.04,4.887,17.387,6.23,24.879-2.361,4.479-5.09,18.282.285,14.984-13.437,5.375-5.864,10.79-11.768,16.165-17.672l30.661-10.261c1.914,1.914,3.827,3.868,6.108,6.108,5.008,0,10.383.122,15.758-.041,9.405-.285,18.2-.855,25.57,7.778,2.281,2.646,10.343.406,16.858.406.936-3.419,1.547-7.166,3.013-10.586.936-2.158,3.176-5.416,4.723-5.375,3.3.122,8.958,1.425,10.057,2.728,5.294-9.2-9.812-21.987-3.257-31.027,7.085-9.854,7.818-24.146,12.745-34.61,9.569-6.963,11.442-9.447,21.54-13.6,8.469-8.469,14.169-7.289,23.657-16.125,2.972-2.768,9.732-24.267,14.9-27.036l66.981-24.879c8.184-2.769,15.921-1.914,23.7-11.483L690.213,775.8s-43.162-24.227-46.786-23.006S637.971,717,639.8,711.42c1.832-5.537-29.887-39.455-29.887-39.455l-3.828-83.839S639.193,554.9,647.051,554c7.9-.936.693-46.907-3.624-46.418-4.316.448-5.171-34.57-4.4-37.054s10.464-37.013,5.008-40.432c-5.456-3.462,8.51-22.07,11.524-20.971,3.053,1.1,50.979-24.756,45.522-24.145-5.456.57,40.841-39.7,40.841-39.7,1.954-6.108,29.357-2.81,29.357-9.366v-.244c-.814-8.062-2.565-17.387.53-24.1,3.257-7.126,2.158-18.2,7.37-20.848,12.134-6.311,5.7-20.155,14.332-27.321,8.388-6.882,15.514-15.148,22.029-21.662,7.248-18.813-4.683-34.489-4.153-53.423l33.226-33.225c3.705-3.747,6.352-7.371,7.532-13.234,2.769-13.926,13.682-24.146,25.693-27.566,10.994-3.054,22.925-15.188,36.606-2.484,3.5,3.257,14.292,3.013,18.608-.081,7.289-5.131,10.791-4.235,16.939,1.058,1.71,1.507,10.424-6.189,13.111-4.682,13.8,7.7,28.381,4.56,44.22,5.375l33.47,33.429a34.134,34.134,0,0,0,4.724,1.059c.407-.9.773-1.873,1.221-2.891,7.248-17.224,7.655-17.061,7.7-41.166-4.235-2.769-10.709-7.045-16.654-10.953,3.95-5.049,5.985-7.737,9.325-12.012-5.945-.733-9.732-1.059-13.478-1.67-3.7-.57-7.411-1.384-11.808-2.239,8.021-9.365,13.437-19.26,5.334-28.5-6.474-7.37-4.112-14.862-5.212-21.458-5.782-6.637-12.827-11.931-15.6-18.934-2-5.049-5.863-8.917-7.126-13.315-2.117-7.452-1.506-15.8-1.588-23.779-.2-14.74-.04-29.44-.04-42.388,9.365-9.406,17.752-16.491,24.512-24.919,6.311-7.859,12.337-16.613,15.717-25.938,2.525-7.085,1.629-15.717-6.312-21.7-2.117-1.588-1.262-7.492-1.3-11.4M1184.9,1353.87c-4.52-2.117-10.3-2.809-13.559-6.067-3.3-3.3-3.3-9.649-6.271-13.477-3.95-5.09-8.1-11.32-17.672-8.51-2.769,3.094-6.392,7.126-10.831,11.971m194.714-22.436c-.041-2.117-2.606-4.235-3.99-6.393H1301.8c-4.56-11.319-14.659-7.858-23.82-7.532-8.307,8.184-15.717,17.508-28.136,19.422v17.834c-4.642,1.629-9.365,3.258-14.9,5.212m1371.344,13.641c5.742-9.773,19.26-7.574,25.653-17.142,4.031-6.026,3.217-12.338-4.113-15.107-3.379-1.262-6.759-2.483-9.365-3.46-1.629-7.778,2.606-15.066-3.828-20.441-9.08-.571-19.015,1.3-24.878-8.592-8.022,2.077-11.564-4.845-17.142-7.9-3.136-1.751-8.022-.773-12.013-.245-10.382,1.344-21.417-3.42-31.189,2.607-1.222,5.334.488,12.093-6.23,13.274-3.258.57-7.858-1.3-10.424-3.665-3.624-3.42-7.044-6.759-9.121-12.419-5.212-14.048-13.03-27.159-19.992-40.515-.286-.569-2.566-.081-3.909-.081.2,5.619-2.525,8.347-7.452,8.143-5.456,9.04-8.958,19.994-23.413,14.782.286-7.778,7.207-9.977,10.546-14.782h12.867c-.936-5.659,1.792-8.346,7.452-8.143-.571-8.144,11.6-11.157,8.225-20.481,4.56-1.833,9.568-2.973,13.518-5.66,4.316-2.931,7.655-7.289,11.36-11.075,9.284-9.447,18.527-18.934,27.322-27.933h12.867c-.244-5.659,2.484-8.347,8.144-8.144q2.931-13.253,16.206-16.287h.081c0-.081.041-.2.041-.285a14.734,14.734,0,0,1,3.787-7.818c-9.04-3.949-17.672-7.736-24.146-10.546-4.927-5.985-7.37-11.4-11.523-13.518-13.193-6.678-27.037-12.134-40.149-17.875-2.4-7.126-5.049-15.758-12.907-12.908-13.8,5.008-22.477-3.339-32.534-8.225-1.466-7.126,6.475-16.938-6.637-19.423-7.777-16.409-15.758-32.737-14.618-51.793-10.261-.163-19.1-1.018-27.81-.163-5.172.53-9.976,4.276-15.229,5.5-3.542.815-7.492-.2-14.048-.529-3.583-11.279-7.288-22.72-10.627-33.145-6.515-4.071-13.722-4.194-16.653-11.97-2.688-7.045-2.607-16.614-12.746-18.934-1.018-7.411-1.873-14.822-3.216-22.151-.448-2.4-2.118-4.6-3.054-6.6-3.868,1.1-8.51,4.072-11.36,2.851-8.266-3.543-12.3-1.222-15.188,6.677-.448,1.3-4.887,2.24-6.963,1.589-5.009-1.466-9.691-3.991-13.193-5.538-9.406,3.705-17.549,5.782-24.431,9.935-5.9,3.583-10.383,9.569-15.472,14.455,8.469,9.487-4.479,17.346-2.036,26.3a76.8,76.8,0,0,0,3.013,7.858c-4.235,9.732-8.51,19.708-13.03,29.521-.407.937-2.32,1.14-2.891,1.425-16.369.774-31.679-.447-45.645-8.876a59.1,59.1,0,0,0-14.943-6.393,19.616,19.616,0,0,0-11.157.326c-12.419,4.479-12.827-5.782-16.165-12.5-19.912-8.51-19.912-8.672-44.993-6.84-3.747.284-6.8,2.727-8.348-2.932-2.565-9.528-12.175-9.651-19.1-12.826-22.192-10.18-44.669-19.748-67.063-29.481-19.789-8.631,2.442,69.018-21.7,76.958-8.021,2.606-15.066-2.158-23.128,1.466-4.479,2-12.3-2.688-18.323-5.171-12.5-5.09-24.757-10.709-38.438-16.654-20.848,8.185-42.265,16.572-64.783,25.408-3.623-1.588-8.509-3.7-11.4-4.967-10.667,3.5-19.626,6.473-28.136,9.283-5.782,13.233-11.2,25.612-16.45,37.705-9.609,4.479-9.609,4.479-7.655,10.627-8.917,5.131-17.671,13.56-25.367,13.682-9.691.163-18.893-11.768-23.82,4.071-.245.815-2.647,1.752-3.624,1.425-8.307-2.85-15.351-3.053-18.364,7.289-17.916,7.574-26.874,28.951-47.966,30.335-3.624,8.266-6.882,15.718-10.017,22.925-14.495,8.062-30.009,5.741-47.11,5.741-3.38,7.736-16.206-8.348-28.1-21.866-15.188,14.7-29.968,29.887-44.912,44.831-.9,11.849.9,23.86-.9,35.1-4.478.855-7,1.506-9.527,1.75-2.688.2-5.5-.366-8.144.123-7.289,1.3-5.9,7.329-6.475,12.378-.122,1.059-1.791,1.954-3.868,3.99-12.785-2.443-28.258,5.986-40.27-8.062-2.85,2.606-5.7,5.171-8.428,7.7-2.769-2.525-5.62-5.09-8.674-7.818-3.338,6.026-11.848,7.777-11.645,15.962.244,8.225-7.451,10.545-11.523,15.554-4.113,5.089-9.2,9.447-13.6,13.844v26.507c-8.673,11.931-14.211,19.586-19.056,26.305h-23.413c-5.985,4.723-10.139,7.98-14.414,11.36m1133.021,7.166c1.018-8.469,5.7-16.531,9.162-24.593,1.71-3.991,13.722-3.258,13.355.447-1.262,13.641,11.686,11.2,17.468,17.02v12.623m-2127.112-76.1c0,4.276-5.375,8.551-8.51,13.152-7.492-9-16.084-12.745-14.048-22.721l-16.287-8.144c5.252-5.293,10.057-10.057,17.509-17.508-6.638-3.909-13.275-7.818-15.718-9.284-3.216-12.7.978-21.3-7-27.485-6.474-5.008-.774-12.989-3.176-18.934-1.873-4.56-8.673-6.27-8.022-12.989.448-4.763,2.973-6.107,7.167-7.655,12.419-4.6,12.378-5.659,1.751-19.707,6.433-10.424,11.767-19.1,17.305-28.055,8.143,3.99,15.391,7.614,24.186,11.972-6.392,2.239-11.116,3.908-15.88,5.618a117.96,117.96,0,0,0,12.949,25.694c4.6,6.881-1.181,18.852,9.161,24.553,1.3,9.528,1.751,18.73-7.655,24.919,4.764,4.805,9.569,9.569,14.374,14.373C410.968,1240.8,393.174,1255.862,393.093,1273.778Z" fill="#c1c0c0" stroke="#040000" stroke-miterlimit="10"/>
    <g>
      <g>
        <path d="M1412.121,409.905a101.045,101.045,0,0,1-7.953,7.849c-5.878,4.764-10.489,16.2-18.849,11.02-6.44-3.987-9.18-14.262-12.933-22.045-.868-1.8.02-6.169,1.5-7.082,6.526-4.02,4.79-11.91,8.666-16.589,1.737-2.1,8.692-3.049,10.279-1.481,4.47,4.413,10.988,7.193,12.232,14.957C1405.806,401.171,1409.586,405.321,1412.121,409.905Z" fill="#487be3" stroke="#040000" stroke-miterlimit="10"/>
        <path d="M1339.607,786.466c-19.418.9-19.418.9-31.613-9.8V751.212l10.872-12.312c12.473,6.026,12.1,20.315,20.314,28.951C1341.888,770.7,1339.607,778.294,1339.607,786.466Z" fill="#487be3" stroke="#040000" stroke-miterlimit="10"/>
        <path d="M1167.416,410.3l-2.9,2.9c-.9-1.81-2.12-3.551-2.546-5.467-.149-.67,1.641-1.772,2.546-2.677Z" fill="#487be3" stroke="#040000" stroke-miterlimit="10"/>
      </g>
      <path d="M1347.484,619.927c3.135,3.461,5.7,6.271,8.388,9.284v33.347c-4.4,1.508-9.121,3.1-15.717,5.376-.285,5.659-.652,12.093-.978,18.4-5.049,8.8-14.333,10.628-22.435,14.7-6.841,3.461-9.284,13.315-18.893,13.519-7.859.2-5.09,7.7-7.615,11.116-3.339,4.52-10.383,6.23-15.8,9.161V751.2l-40.312,40.311c5.131,9.162,14.863,1.384,21.3,5.741.9.977,2.606,1.955,2.647,2.932.163,10.831.122,21.662.122,32.167,2.728,3.1,5.253,5.905,7.777,8.714-4.112,4.112-7.94,7.94-11.808,11.849h-25.53c-.937-3.217-1.873-6.841-3.054-10.343-1.384-4.153-3.95-6.963-8.673-5.822-2.4.57-6.555,2.28-6.474,3.176,1.018,11.034-4.683,19.626-8.836,29.072-1.669,3.91-2.728,10.669,2.321,15.27,1.832-.977,3.786-1.914,5.578-3.013,10.831-6.719,16.125-5.212,15.6,5.212-.407,8.713,4.317,14.047,7.574,20.48-2.972,3.014-5.863,5.864-8.755,8.755-1.018.815-2.036,2.28-3.054,2.28-13.518.163-27.036.122-39.659.122-3.7-3.216-6.677-5.822-9.487-8.265-18.893,4.316-33.186,22.476-56.476,15.147-8.917-15.88-14.7-36.483-33.43-47.478-8.551-1.75-12.623,4.724-16.287,9.773-4.56,6.23-4.682,4.153-7.614,5.212-2.606.936-5.864,1.059-6.719,3.828,0,0-4.112-7.859-8.347-12.135-4.275-4.234-13.966.326-13.966.326l-15.8,5.456-19.707.9-23.7-9.691s-12.745,9.406-13.641,9.691c-.9.326-6.963-12.5-6.963-12.5-7.573,2.281-15.188,4.928-17.752-1.669-.326-.814-3.34.57-4.8.407-2.159-.244-3.747-1.832-6.149-1.384-8.021,1.588-16.328,3.787-24.308,5.7-6.19-5.13-6.068-5.741-14.74-2.85-12.256,4.113-20.685.489-31.231,1.588-8.062.856-8.51-9.242-19.138-3.216-2.606-3.054-5.293-6.067-7.98-9.121,4.112-8.51-1.466-10.139-4.561-13.478-2.647-2.972-5.578-5.66-7.94-7.981,2.443-8.836,4.52-16.368,6.434-23.779.122-.651-.9-.977-2.851-2.932-6.637,1.466-16.043,4.886-23.983,6.271L778,813.868c-2.4-2.4-4.52-5.131-7.289-7.126-3.013-2.2-2.239-6.271-2.2-10.424,0-2.4-8.47,2.443-9.854-1.67-.448-1.3-1.833-1.954-3.583-3.665-5.5,1.67-12.827,1.833-18.487,6.108-12.5,9.488-22.15,7.777-33.225,12.216-2.769,1.14-3.38-3.991-.978-7.818,1.67-2.606,3.624-5.171,5.253-7.452l-7.207-7.207L690.213,775.8s-43.162-24.227-46.786-23.006S637.971,717,639.8,711.42c1.832-5.537-29.887-39.455-29.887-39.455l-3.828-83.839S639.193,554.9,647.051,554c7.9-.936.693-46.907-3.624-46.418-4.316.448-5.171-34.57-4.4-37.054s10.464-37.013,5.008-40.432c-5.456-3.462,8.51-22.07,11.524-20.971,3.053,1.1,50.979-24.756,45.522-24.145-5.456.57,40.841-39.7,40.841-39.7,1.954-6.108,29.357-2.81,29.357-9.366v-.244c-.814-8.062-2.565-17.387.53-24.1,3.257-7.126,2.158-18.2,7.37-20.848,12.134-6.311,5.7-20.155,14.332-27.321,8.388-6.882,15.514-15.148,22.029-21.662,7.248-18.813-4.683-34.489-4.153-53.423l33.226-33.225c3.705-3.747,6.352-7.371,7.532-13.234,2.769-13.926,13.682-24.146,25.693-27.566,10.994-3.054,22.925-15.188,36.606-2.484,3.5,3.257,14.292,3.013,18.608-.081,7.289-5.131,10.791-4.235,16.939,1.058,1.71,1.507,10.424-6.189,13.111-4.682,13.8,7.7,28.381,4.56,44.22,5.375l33.47,33.429a34.134,34.134,0,0,0,4.724,1.059c-1.222,2.687-2.647,4.56-6.027,4.52-6.677-.041-7.369,3.908-9.813,9.242-5.9,12.705-11.157,26.427-23.942,35.018,0,8.144-.407,16.247.081,24.309.571,9.161-4.071,20.236,2.647,27.077,7.248,7.37,1.71,17.468,5.986,21.907,7.777,8.062,9.406,16.694,7.166,25.611-2.972,12.094,5.212,19.789,8.714,29.195,3.338,8.958,9.609,14.618,20.359,15.839,4.193.489,10.261,6.637,11.116,11.035,3.379,17.834,19.952,24.35,29.236,36.85,11.93-1.792,12.459,5.374,12.663,14.536.2,10.139,12.745,17.264,8.143,29.317-.366.978,2.932,3.991,5.009,5.09,3.338,1.71,10.179,3.3,10.179,3.706-2.2,9.4,9.08,12.744,9.121,21.01.041,2.28,1.833,4.6,3.054,7.451H1167.1c5.293-6.84,12.623-16.328,19.626-25.448,5.294,4.479,8.062,6.881,10.79,9.2,8.347-7.289,9.162-7.533,11.483.855,1.221,4.52,2.768,6.6,7,7.9,3.38,1.059,9.284,3.5,9.121,4.886-.936,10.22,8.1,13.274,12.664,19.423,10.79-4.723,14.129,13.111,25.2,8.306a10.123,10.123,0,0,1,7.777.449c8.877,4.926,16.858,12.3,26.3,15.106,8.714,2.605,18.893-.041,28.3.895,3.257.327,5.945,6.108,9.284,6.556,6.23.855,13.518,1.3,18.893-1.221,4.56-2.118,8.754-8.185,13.681-5.212,3.42,2.117,3.583,9,6.393,12.907,3.094,4.357,8.021,7.411,11.156,11.768,2.118,2.891,4.031,7.41,3.3,10.545-.855,3.421-4.845,6.108-7.492,9.121,2.565,2.769,5.211,5.7,7.9,8.633-4.153,13.762-5.5,12.541-19.341,28.5C1361.817,601.278,1358.233,613.29,1347.484,619.927Z" fill="#487be3" stroke="#040000" stroke-miterlimit="10"/>
    </g>
  </g>
  <g>
    <g>
      <line x1="580.884" y1="1143.733" x2="580.884" y2="-40.466" fill="none" stroke="#236b8b" stroke-miterlimit="10" opacity="0.5"/>
      <line x1="1883.862" y1="1143.733" x2="1883.862" y2="-40.466" fill="none" stroke="#236b8b" stroke-miterlimit="10" opacity="0.5"/>
    </g>
    <g>
      <line x1="-38.155" y1="310.918" x2="1949.224" y2="310.918" fill="none" stroke="#040000" stroke-miterlimit="10" opacity="0.5"/>
      <line x1="-38.155" y1="820.749" x2="1949.224" y2="820.749" fill="none" stroke="#236b8b" stroke-miterlimit="10" opacity="0.5"/>
    </g>
    <line x1="1491.667" y1="383.434" x2="1307.894" y2="199.661" fill="none" stroke="#000" stroke-miterlimit="10" stroke-dasharray="12"/>
    <g>
      <g>
        <g>
          <rect x="963.965" y="516.417" width="13.788" height="13.788" fill="#d62525" stroke="#040000" stroke-miterlimit="10"/>
          <rect x="967.54" y="519.992" width="6.638" height="6.638" fill="#d62525" stroke="#040000" stroke-miterlimit="10"/>
        </g>
        <g>
          <path d="M992.016,523.315a10.46,10.46,0,0,1,.5,1.177.718.718,0,0,1,.012.509.592.592,0,0,1-.681.2,1.132,1.132,0,0,1-.335-.335l-1.713-2.248a12.1,12.1,0,0,1-2.89,2.9q-.121.079-.2,0l-.281-.228c-.04-.053-.04-.107.014-.187a11.256,11.256,0,0,0,2.984-5.621,1.783,1.783,0,0,0-.709-.642l.213-.428c.027-.04.08-.067.2-.054a6.737,6.737,0,0,1,1.82.495.37.37,0,0,1,.227.322.976.976,0,0,1-.026.348,7.8,7.8,0,0,1-.816,2.221l1.109,1.325Zm.7-6.076c.027-.053.08-.093.215-.093a6.255,6.255,0,0,1,1.82.4.324.324,0,0,1,.174.335l-.041.682v6.691a11.737,11.737,0,0,1-.468,3.091h-.79a24.257,24.257,0,0,1-.16-2.663v-3.626c-.2.013-.389.026-.5.04a2.918,2.918,0,0,0-.79.187,4.045,4.045,0,0,1-.937-.749.164.164,0,0,1-.026-.174l.12-.174a9.058,9.058,0,0,0,1.058.054c.254,0,.681,0,1.07-.027v-2.851a1.958,1.958,0,0,0-.91-.669Zm2.383-.936c.026-.067.08-.108.214-.108a6.841,6.841,0,0,1,1.967.429.313.313,0,0,1,.187.348l-.054.736v8.109a12.666,12.666,0,0,1-.494,3.332h-.83a27.159,27.159,0,0,1-.174-2.877V517.48a2.113,2.113,0,0,0-.977-.723Z"/>
          <path d="M1009.576,525.59a7.714,7.714,0,0,1,1.7.254.328.328,0,0,1,.229.308.872.872,0,0,1-.4.723c-.348-.041-1.272-.067-1.7-.067-.923,0-6.463.053-7.253.107a10.073,10.073,0,0,0-1.525.28,4.8,4.8,0,0,1-1.5-.963.148.148,0,0,1-.04-.174l.12-.241a12.822,12.822,0,0,0,1.713.161c.883.013,7.133-.067,8.083-.134Zm-9.6-1.861c-.04-.053-.012-.106.04-.146a11.144,11.144,0,0,0,4.791-4.858,1.912,1.912,0,0,0-.75-.709l.242-.389c.04-.066.093-.093.214-.066a6.725,6.725,0,0,1,1.967.655.411.411,0,0,1,.242.335.779.779,0,0,1-.081.374,6.965,6.965,0,0,1-.8,1.325l2.4,1.218.91.107a6.819,6.819,0,0,1,1.071.857c.187.2.281.361.267.5a.586.586,0,0,1-.548.522.984.984,0,0,1-.5-.161l-4.228-2.3a12.615,12.615,0,0,1-4.858,3.038c-.081.027-.133.027-.174-.013Z"/>
          <path d="M1017.837,518.336a.375.375,0,0,1,.294,0,8.272,8.272,0,0,1,.844.442.163.163,0,0,1,.026.214l-.268.469c-.7,2.476-3.038,5.1-5.967,6.65a.217.217,0,0,1-.2.014l-.241-.228c-.053-.053-.067-.106,0-.187a13.634,13.634,0,0,0,4.63-6.249c-.709,0-1.779.013-2.074.04a4.622,4.622,0,0,0-1.11.214,5.067,5.067,0,0,1-1.191-.79c-.055-.067-.067-.107-.041-.174l.108-.187a9.3,9.3,0,0,0,1.337.107c.5,0,2.664-.04,3.332-.08Zm5.3,3.212a6.5,6.5,0,0,1,1.2.067.354.354,0,0,1,.281.308.974.974,0,0,1-.16.7.561.561,0,0,1-.389.147l-2.1.054v2.89a12.862,12.862,0,0,1-.509,3.439h-.869a28.89,28.89,0,0,1-.161-2.957v-8.645a2.366,2.366,0,0,0-1.1-.79l.16-.468c.027-.053.066-.094.2-.094a8,8,0,0,1,2.141.429.348.348,0,0,1,.2.361l-.067.816v4.069l.736-.041Z"/>
          <path d="M1035.438,525.7a7.017,7.017,0,0,1,1.7.254.328.328,0,0,1,.227.308.866.866,0,0,1-.4.722c-.348-.04-1.272-.066-1.7-.066-.924,0-6.464.053-7.254.106a10.169,10.169,0,0,0-1.526.268,4.789,4.789,0,0,1-1.5-.95.148.148,0,0,1-.041-.174l.121-.241a12.806,12.806,0,0,0,1.713.161c.883.013,7.133-.067,8.082-.134Zm-8-4.216a1.621,1.621,0,0,0-.778-.428l.08-.374c.014-.041.055-.081.149-.081.508,0,1.713.027,2.154.067.949.014,3.211-.04,3.854-.067l.308-.08a13.989,13.989,0,0,0,.013-1.646c-.95-.014-3.372.013-3.907.053a7.08,7.08,0,0,0-1.232.188,4.87,4.87,0,0,1-1.258-.9.13.13,0,0,1-.04-.174l.108-.214a9.394,9.394,0,0,0,1.445.134c.709,0,4.295-.027,5.071-.067l.576-.254a.344.344,0,0,1,.281,0c.214.08.656.281.83.375a.192.192,0,0,1,.039.24l-.227.536a9.54,9.54,0,0,1-.361,1.752l.294.148a.207.207,0,0,1,.106.174.965.965,0,0,1-.2.6l-5.727.094v1.485c0,.2.093.308.3.308,1.084.013,3.425-.027,4.336-.067l.374-.241a6.081,6.081,0,0,1,1.391.12.272.272,0,0,1,.241.268.976.976,0,0,1-.2.669.313.313,0,0,1-.255.081l-6.584.107h-.012c-.817-.014-1.164-.389-1.164-1.138Z"/>
          <path d="M1048.367,525.482a7.71,7.71,0,0,1,1.7.268.307.307,0,0,1,.228.308.87.87,0,0,1-.4.723c-.349-.04-1.272-.067-1.7-.067-.922,0-6.463.053-7.252.107a10.153,10.153,0,0,0-1.525.267,4.752,4.752,0,0,1-1.5-.95.161.161,0,0,1-.039-.187l.12-.227a12.8,12.8,0,0,0,1.713.16c.883.013,7.132-.067,8.083-.134Zm-8-6.262a2.446,2.446,0,0,0-.963-.535l.094-.429a.169.169,0,0,1,.16-.08,18.983,18.983,0,0,1,2.315.16c1.258-.013,3.4-.053,4.135-.093l.442-.241a7.828,7.828,0,0,1,1.432.107.253.253,0,0,1,.241.268,1.1,1.1,0,0,1-.174.682.3.3,0,0,1-.268.094l-5.821.094v3.037c0,.228.094.321.321.321.924.014,3.145-.026,4.014-.066l.4-.228a7.167,7.167,0,0,1,1.4.121.285.285,0,0,1,.242.28.919.919,0,0,1-.188.656.355.355,0,0,1-.255.094l-6.2.094c-.935,0-1.338-.429-1.338-1.245Z"/>
        </g>
      </g>
      <g>
        <g>
          <path d="M968.473,186.845c.026-.053.066-.08.173-.08a5.263,5.263,0,0,1,1.58.347.259.259,0,0,1,.16.268l-.04.616v7.066a11.862,11.862,0,0,1-.348,2.743h-.6c-.068-.535-.107-1.82-.107-2.382v-3.787c-.228.013-.455.026-.576.04a3.64,3.64,0,0,0-.749.134,5.009,5.009,0,0,1-.443-.268l-.012,1.03a6.008,6.008,0,0,1-.148,1.245l.295.08a.146.146,0,0,1,.108.134.653.653,0,0,1-.149.455c-.815,0-2.929.027-3.812.04a1.212,1.212,0,0,1-.269.589h-.575a3.088,3.088,0,0,1-.134-.843l-.054-5.045a2.028,2.028,0,0,0-.8-.362l.093-.347c.014-.04.053-.067.161-.067a6.725,6.725,0,0,1,1.512.16c.107.027.148.094.134.228l-.014.575v1.419l2.61-.054v-2.1a1.891,1.891,0,0,0-.763-.455l.134-.348c.014-.053.054-.067.16-.067a6.385,6.385,0,0,1,1.433.268.228.228,0,0,1,.147.227l-.027.562-.028,2.141a4.759,4.759,0,0,0,.617.041c.281,0,.749-.014,1.151-.041v-3.2a2.158,2.158,0,0,0-.937-.615Zm-4.618,4.683-.013,2.3,2.623-.04v-2.315Zm6.866-5.593c.026-.067.066-.081.174-.081a5.987,5.987,0,0,1,1.7.349.255.255,0,0,1,.174.294l-.039.669v8.711a12.244,12.244,0,0,1-.375,2.851h-.617c-.067-.509-.106-1.9-.106-2.489v-9.287a2.377,2.377,0,0,0-1.031-.669Z"/>
          <path d="M982.982,185.921c.014-.053.053-.067.161-.067a7.071,7.071,0,0,1,1.846.362.261.261,0,0,1,.161.294l-.041.736v8.511a12.443,12.443,0,0,1-.375,2.971h-.641c-.054-.535-.107-1.994-.107-2.6v-2.449a29.8,29.8,0,0,1-6.062,1.231,2.969,2.969,0,0,1-.469.027,1,1,0,0,1-.99-.75,2.347,2.347,0,0,1-.067-.629V189.2a2.957,2.957,0,0,0-.99-.442l.067-.347c.027-.067.066-.094.16-.094a10.774,10.774,0,0,1,1.713.134.247.247,0,0,1,.2.28l-.014.656v4.323c0,.174.068.254.241.254a28.986,28.986,0,0,0,6.21-.923v-6.036a2.451,2.451,0,0,0-1.125-.722Z"/>
          <path d="M998.094,195.543a6.793,6.793,0,0,1,1.552.228.231.231,0,0,1,.188.24.667.667,0,0,1-.321.562c-.349-.04-1.178-.067-1.579-.067-.938-.013-6.893.054-7.628.108a8.117,8.117,0,0,0-1.392.254,3.989,3.989,0,0,1-1.365-.776.123.123,0,0,1-.04-.134l.106-.2a12.451,12.451,0,0,0,1.539.147c.844.014,7.494-.067,8.432-.133Zm-9.649-1.512a.106.106,0,0,1,.054-.147,20.116,20.116,0,0,0,6.825-4.336c-1.125,0-3.224.04-3.72.08a4.775,4.775,0,0,0-1.151.228,4.4,4.4,0,0,1-1.231-.7.109.109,0,0,1-.04-.147l.093-.188a10.2,10.2,0,0,0,1.392.107c.683,0,4.31-.053,5.071-.093l.59-.255a.926.926,0,0,1,.268,0,4.636,4.636,0,0,1,.775.322.107.107,0,0,1,.014.174l-.389.428a11.614,11.614,0,0,1-2.448,2.128l2.034.642.789.013a7.8,7.8,0,0,1,1.164.589.593.593,0,0,1,.268.348.466.466,0,0,1-.348.455,1.354,1.354,0,0,1-.428-.067l-4.256-1.485a20.5,20.5,0,0,1-5.017,2.087c-.08.013-.135.013-.161-.027Zm2.9-7.427a22.8,22.8,0,0,0,3.759.241.2.2,0,0,1,.215.12.753.753,0,0,1-.041.616.2.2,0,0,1-.2.093c-.763,0-1.927.041-2.569.094a.444.444,0,0,1-.308-.053,3.444,3.444,0,0,1-.936-.843.1.1,0,0,1-.014-.134Z"/>
        </g>
        <circle cx="953.214" cy="192.855" r="3.575" fill="#fff" stroke="#000" stroke-miterlimit="10"/>
      </g>
      <g>
        <g>
          <path d="M896.8,268.574a.148.148,0,0,1,.107.147.643.643,0,0,1-.147.442c-.951,0-3.507.026-4.5.053a1.338,1.338,0,0,1-.281.589h-.6a3.3,3.3,0,0,1-.133-.883l-.094-5.126a2.2,2.2,0,0,0-.844-.454l.094-.348c.027-.04.067-.067.174-.067a7.571,7.571,0,0,1,1.606.174c.107.026.147.093.147.241l-.013.575v1.405l3.238-.053v-2.128a2.258,2.258,0,0,0-.883-.536l.134-.361c.013-.04.053-.067.16-.067a5.91,5.91,0,0,1,1.606.348.209.209,0,0,1,.148.228l-.027.6-.04,3.867a5.4,5.4,0,0,1-.161,1.272Zm-4.483-2.556-.013,2.489,3.251-.04v-2.5Zm8.886-.2a6.271,6.271,0,0,1,1.19.067.3.3,0,0,1,.228.254.79.79,0,0,1-.161.536.491.491,0,0,1-.307.094l-2.249.04v3.586a12.617,12.617,0,0,1-.387,2.971h-.643c-.054-.535-.094-1.994-.094-2.6v-9.127a2.575,2.575,0,0,0-1.137-.723l.12-.361c.027-.054.054-.067.174-.067a7.029,7.029,0,0,1,1.833.362.285.285,0,0,1,.175.294l-.041.736v4.242l.87-.04Z"/>
          <path d="M913.6,266.486a7.694,7.694,0,0,1,1.552.215.256.256,0,0,1,.187.254.668.668,0,0,1-.32.562c-.349-.04-1.178-.067-1.58-.067-.441,0-2.021,0-3.64.027v.348a5.178,5.178,0,0,1-.16,1.271c.669-.013,1.311-.027,1.726-.054l.482-.2a.225.225,0,0,1,.227,0,4.474,4.474,0,0,1,.616.307c.054.04.054.094.04.174l-.161.5a22.311,22.311,0,0,1-.294,2.275l.241.121a.157.157,0,0,1,.107.161.719.719,0,0,1-.187.508l-5.192.054a.769.769,0,0,1-.188.374h-.616a1.841,1.841,0,0,1-.16-.7l-.228-2.823a1.757,1.757,0,0,0-.7-.429l.081-.307c.013-.054.053-.067.134-.067a13.414,13.414,0,0,1,1.646.134c.374,0,.936,0,1.525-.014a9.44,9.44,0,0,1-.054-1.044v-.575c-1.364.027-2.569.04-2.877.067a8.124,8.124,0,0,0-1.391.254,4,4,0,0,1-1.365-.776.12.12,0,0,1-.04-.134l.107-.2a12.609,12.609,0,0,0,1.539.147c.843.013,7.494-.08,8.43-.134Zm-7.574-2.863c0-1.513,1.311-2.5,3.118-2.5s3.118.99,3.118,2.5c0,1.485-1.3,2.475-3.118,2.475S906.027,265.108,906.027,263.623Zm1.15,0a1.979,1.979,0,1,0,1.968-1.767A1.773,1.773,0,0,0,907.177,263.623Zm4.216,6.169c-1.3-.014-2.877.013-4.148.053l.04,2.382c1.084.014,2.9-.026,3.8-.067l.268-.08Z"/>
        </g>
        <circle cx="881.651" cy="267.491" r="3.575" fill="#fff" stroke="#000" stroke-miterlimit="10"/>
      </g>
      <g>
        <g>
          <path d="M1187.156,895.656a7.847,7.847,0,0,1,1.552.214.258.258,0,0,1,.188.255.667.667,0,0,1-.322.562c-.347-.041-1.178-.067-1.579-.067-.455,0-2.048,0-3.68.026v1.887a13.323,13.323,0,0,1-.388,2.877h-.642c-.054-.589-.094-1.913-.094-2.529V896.66c-1.351.027-2.516.04-2.824.067a8.258,8.258,0,0,0-1.391.254,4.012,4.012,0,0,1-1.366-.776.124.124,0,0,1-.04-.134l.108-.2a12.615,12.615,0,0,0,1.539.148c.843.013,7.494-.08,8.43-.134Zm-7.843-5.152a1.925,1.925,0,0,0-.856-.468l.081-.348c0-.027.04-.067.16-.067a8.665,8.665,0,0,1,1.619.174.212.212,0,0,1,.162.241l-.014.615-.014.669,4.6-.026v-1.272a2.333,2.333,0,0,0-.9-.548l.12-.348c.028-.04.068-.067.174-.067a7.285,7.285,0,0,1,1.607.321.209.209,0,0,1,.147.227l-.027.617-.027,2.26a5.39,5.39,0,0,1-.147,1.192l.267.094a.172.172,0,0,1,.108.16.681.681,0,0,1-.134.428c-1.245,0-4.55.014-5.875.04a.916.916,0,0,1-.241.442h-.629a2.218,2.218,0,0,1-.134-.789Zm1.138,1.525-.026,1.66,4.63-.027v-1.673Z"/>
          <path d="M1195.35,895.857a6.152,6.152,0,0,1,.467,1.017c.068.2.068.321.014.4a.434.434,0,0,1-.522.174,1.032,1.032,0,0,1-.281-.267l-1.954-2.57a12.416,12.416,0,0,1-2.957,3.186.124.124,0,0,1-.161.013l-.187-.174c-.04-.027-.04-.08.027-.134a12.131,12.131,0,0,0,3.2-5.835,2.065,2.065,0,0,0-.763-.629l.174-.334c.027-.054.067-.08.16-.067a5.892,5.892,0,0,1,1.567.482.314.314,0,0,1,.174.28.765.765,0,0,1-.028.309,8.177,8.177,0,0,1-.816,2.234l1.379,1.66Zm.9-6.236c.013-.054.066-.08.174-.08a5.257,5.257,0,0,1,1.579.348.249.249,0,0,1,.147.267l-.041.615v7.053a11.759,11.759,0,0,1-.347,2.743h-.6c-.067-.535-.094-1.82-.094-2.381v-3.949c-.281,0-.588.028-.75.041a3.518,3.518,0,0,0-.8.2,4.111,4.111,0,0,1-.91-.589c-.054-.054-.067-.094-.04-.148l.093-.146c.308.026.7.04,1.031.04s.91-.014,1.378-.028v-3.023a2.234,2.234,0,0,0-.937-.616Zm2.328-.95c.027-.067.068-.08.174-.08a5.973,5.973,0,0,1,1.7.347.257.257,0,0,1,.175.295l-.04.669v8.711a12.138,12.138,0,0,1-.375,2.851h-.616c-.067-.509-.107-1.9-.107-2.489v-9.287a2.382,2.382,0,0,0-1.03-.669Z"/>
        </g>
        <circle cx="1168.137" cy="895.591" r="3.575" fill="#fff" stroke="#000" stroke-miterlimit="10"/>
      </g>
      <g>
        <path d="M915.127,610.17a.889.889,0,0,1,.605.872,4.891,4.891,0,0,1-1.007,3.154c-4.9-.067-16.308.068-21.81.2a6.294,6.294,0,0,1-1.812,3.021h-4.094a15.832,15.832,0,0,1-.939-5.1l-.4-24.7a9.269,9.269,0,0,0-4.026-2.55l.6-2.08c.067-.268.335-.4,1.006-.4a45.879,45.879,0,0,1,9.395.939c.671.2.873.6.873,1.41l-.067,3.153v5.57l13.488-.134v-9.4a10.925,10.925,0,0,0-4.16-2.886l.738-2.08c.134-.336.4-.47,1.073-.4a39.407,39.407,0,0,1,9.4,1.945,1.231,1.231,0,0,1,.805,1.41l-.134,3.489-.2,17.247a28.469,28.469,0,0,1-.94,6.778Zm-21.743-11.812-.067,11.207,13.623-.133V598.157Zm43.084-1.61a32.2,32.2,0,0,1,6.039.336,1.637,1.637,0,0,1,1.41,1.477,5.086,5.086,0,0,1-.805,3.556,2.756,2.756,0,0,1-1.946.671l-10.537.269v14.9c0,4.43-.939,12.684-2.549,17.247h-4.363a145.648,145.648,0,0,1-.8-14.831V577.019a11.814,11.814,0,0,0-5.5-3.959l.805-2.35c.135-.269.336-.47,1.007-.47a40.142,40.142,0,0,1,10.737,2.148,1.748,1.748,0,0,1,1.007,1.812l-.336,4.094v20.064l3.692-.2Z"/>
        <path d="M1048.271,591.916a32.307,32.307,0,0,1,6.041.336,1.639,1.639,0,0,1,1.409,1.477,5.087,5.087,0,0,1-.806,3.556,2.75,2.75,0,0,1-1.946.671l-10.535.269v4.026c0,5.234-.941,12.281-2.551,16.173h-4.362a102.45,102.45,0,0,1-.805-12.482,140.116,140.116,0,0,1-27.783,5.5c-.872.067-1.812.067-2.55.067a5.977,5.977,0,0,1-6.04-4.429,11.991,11.991,0,0,1-.4-3.557V596.01a10.532,10.532,0,0,0-3.959-2.08l.4-1.879a.745.745,0,0,1,.738-.4c2.482,0,8.389.067,10.67.2,2.55,0,8.187-.2,9.865-.4l1.208-.267c.067-1.544.067-6.779,0-8.188-2.953-.067-9.328.068-10.872.134a36.282,36.282,0,0,0-5.435,1.007,23.451,23.451,0,0,1-5.571-4.094.623.623,0,0,1-.2-.805l.537-1.074a37.279,37.279,0,0,0,6.51.605c2.55,0,13.153-.135,15.972-.269l2.818-1.208a1.561,1.561,0,0,1,1.342,0,43.936,43.936,0,0,1,3.96,2.013.786.786,0,0,1,.134,1.007l-.872,2.617a45.9,45.9,0,0,1-1.477,8.321l1.208.671c.4.269.671.537.671.94a4.53,4.53,0,0,1-.872,2.684l-19.059.671v7.919c0,.806.4,1.275,1.342,1.275a133.311,133.311,0,0,0,27.716-3.489V576.951a11.344,11.344,0,0,0-5.3-3.825l.806-2.416c.134-.269.335-.47,1.007-.47a38.12,38.12,0,0,1,10.535,2.148,1.7,1.7,0,0,1,.939,1.812l-.267,3.959v15.368l3.69-.2Zm-9.328,34.829a32.623,32.623,0,0,1,7.181.605,1.365,1.365,0,0,1,1.208,1.341,5.68,5.68,0,0,1-1.073,3.692,1.82,1.82,0,0,1-1.276.4l-27.917.269H1017c-5.033-.068-6.979-2.014-6.979-6.04v-6.241a12.707,12.707,0,0,0-4.63-2.483l.4-2.014a.952.952,0,0,1,1.007-.6,64.176,64.176,0,0,1,10,.806,1.561,1.561,0,0,1,1.275,1.676l-.135,3.491v5.1c0,1.142.47,1.678,1.611,1.678,3.892.067,12.952-.067,16.777-.2Z"/>
      </g>
      <g>
        <path d="M1383.744,449.578a10.06,10.06,0,0,1,.51,1.76,1.175,1.175,0,0,1-.16.82,1.155,1.155,0,0,1-1.194.42,1.324,1.324,0,0,1-.457-.459l-2.379-3.96a28.077,28.077,0,0,1-6.486,5.019c-.14.08-.221.08-.306.021l-.307-.341c-.045-.059-.024-.139.109-.259a25.634,25.634,0,0,0,7.536-8.941,2.164,2.164,0,0,0-.881-1.12l.462-.6a.352.352,0,0,1,.327-.1,8.412,8.412,0,0,1,2.7.84.411.411,0,0,1,.216.461,2.479,2.479,0,0,1-.205.539,15.073,15.073,0,0,1-2.032,3.18l1.536,2.26Zm4.42-10.22a.362.362,0,0,1,.337-.14,10.062,10.062,0,0,1,3.03.64c.193.1.225.28.155.54l-.407,1.22-3.168,11.82a23.656,23.656,0,0,1-2.157,5.14h-1.3c.058-.739.693-3.479.945-4.42l3.462-12.92a2.438,2.438,0,0,0-1.3-1.18Z"/>
        <path d="M1403,442.418a.559.559,0,0,1,.44,0,8.807,8.807,0,0,1,1.084.66c.078.08.046.2-.047.32l-.586.7c-2.032,3.7-6.583,7.621-11.585,9.94a.331.331,0,0,1-.306.02l-.27-.34c-.058-.08-.056-.16.077-.28a30.015,30.015,0,0,0,9.422-9.34c-1.059,0-2.665.02-3.116.06a8.056,8.056,0,0,0-1.746.32,5.24,5.24,0,0,1-1.464-1.18.209.209,0,0,1,.01-.259l.234-.281a13.064,13.064,0,0,0,1.958.16c.741,0,4-.06,5.013-.12Zm6.636,4.8a9.183,9.183,0,0,1,1.774.1.382.382,0,0,1,.3.461,1.867,1.867,0,0,1-.519,1.039,1.067,1.067,0,0,1-.638.22l-3.162.08-1.159,4.32a23.6,23.6,0,0,1-2.136,5.14h-1.3c.059-.739.692-3.479.944-4.42l3.462-12.92a2.413,2.413,0,0,0-1.323-1.18l.427-.7a.361.361,0,0,1,.338-.14,10.205,10.205,0,0,1,3.029.64c.193.1.225.28.154.54l-.426,1.22-1.629,6.08,1.117-.06Z"/>
        <path d="M1427.471,449.259a9.194,9.194,0,0,1,2.439.38.363.363,0,0,1,.217.459,1.845,1.845,0,0,1-.889,1.08c-.505-.059-1.874-.1-2.514-.1-1.38,0-9.684.08-10.885.161a17.018,17.018,0,0,0-2.389.4,4.939,4.939,0,0,1-1.859-1.421.2.2,0,0,1,.01-.26l.276-.36a17.684,17.684,0,0,0,2.5.241c.62,0,2.986-.021,5.472-.041l.493-1.84c-2.254-.32-3.378-1.8-2.863-3.72.584-2.179,3-3.82,5.9-3.82,2.921,0,4.462,1.641,3.878,3.82a5.571,5.571,0,0,1-4.653,3.7l-.488,1.82c2.051-.04,3.822-.08,4.394-.119Zm-4.319,6.859a12.291,12.291,0,0,1,2.093.18.3.3,0,0,1,.233.4,2.251,2.251,0,0,1-.615,1.1.575.575,0,0,1-.413.121l-8.762.079c-1.4-.019-1.8-.62-1.473-1.819l.552-2.061a3.178,3.178,0,0,0-1.188-.72l.3-.6a.38.38,0,0,1,.344-.161,20.787,20.787,0,0,1,2.9.22c.2.08.275.241.2.521l-.317,1.039-.456,1.7c-.086.321.006.5.345.5,1.3.021,4.107-.02,5.337-.059Zm-1.423-9.54a3.229,3.229,0,0,0,3.207-2.34c.38-1.42-.428-2.36-1.949-2.36a3.245,3.245,0,0,0-3.192,2.36C1419.414,445.658,1420.229,446.578,1421.729,446.578Z"/>
      </g>
      <g>
        <path d="M1314.805,805.08a9.27,9.27,0,0,1,1.774.1.382.382,0,0,1,.3.46,1.978,1.978,0,0,1-.524,1.06,1.035,1.035,0,0,1-.633.2l-3.162.08-1.174,4.38a23.65,23.65,0,0,1-2.137,5.14h-1.3c.059-.739.692-3.479.944-4.42l.6-2.239a77.31,77.31,0,0,1-8.855,1.319,9.312,9.312,0,0,0-1.888.4,6.8,6.8,0,0,1-1.862-1.56.2.2,0,0,1,.01-.26l.252-.341a15.038,15.038,0,0,0,2.537.162l.5-.021.864-4.42a1.627,1.627,0,0,0-.77-.86l.4-.6c.066-.1.157-.139.332-.12a7.513,7.513,0,0,1,2.23.56c.158.08.187.2.133.4l-.286.921-.939,4.02c.8-.06,1.614-.121,2.455-.2l1.284-4.94a1.734,1.734,0,0,0-.819-.68l.322-.6c.041-.08.112-.121.332-.121a10.846,10.846,0,0,1,2.42.3c.19.041.207.2.133.4l-.323.98-1.355,4.46c1.258-.14,2.406-.32,3.229-.479l2.52-9.4a2.428,2.428,0,0,0-1.325-1.18l.427-.7a.364.364,0,0,1,.339-.139,10.186,10.186,0,0,1,3.028.639c.2.1.225.281.156.541l-.427,1.22-1.613,6.02,1.117-.06Zm-6.222-4.7a8.134,8.134,0,0,1,1.84.3.294.294,0,0,1,.142.359,2,2,0,0,1-.762,1.061,17.907,17.907,0,0,0-1.865-.061c-.655-.019-4.608.1-5.279.141a10.95,10.95,0,0,0-1.615.28,3.983,3.983,0,0,1-1.383-1.26.186.186,0,0,1,.024-.24l.215-.28a14.494,14.494,0,0,0,1.978.16c.775.02,5.123-.08,5.944-.16Z"/>
        <path d="M1334.124,805.08a9.254,9.254,0,0,1,1.774.1.382.382,0,0,1,.3.46,1.985,1.985,0,0,1-.523,1.06,1.036,1.036,0,0,1-.635.2l-3.162.08-1.173,4.38a23.655,23.655,0,0,1-2.138,5.14h-1.3c.058-.739.692-3.479.945-4.42l.6-2.239a77.327,77.327,0,0,1-8.856,1.319,9.355,9.355,0,0,0-1.888.4A6.816,6.816,0,0,1,1316.2,810a.206.206,0,0,1,.01-.26l.252-.341a15.038,15.038,0,0,0,2.537.162l.505-.021.864-4.42a1.625,1.625,0,0,0-.769-.86l.4-.6a.3.3,0,0,1,.332-.12,7.512,7.512,0,0,1,2.231.56c.159.08.187.2.133.4l-.286.921-.937,4.02c.8-.06,1.612-.121,2.453-.2l1.284-4.94a1.733,1.733,0,0,0-.817-.68l.32-.6c.041-.08.112-.121.332-.121a10.855,10.855,0,0,1,2.421.3c.189.041.206.2.133.4l-.324.98-1.355,4.46c1.259-.14,2.406-.32,3.229-.479l2.519-9.4a2.42,2.42,0,0,0-1.323-1.18l.426-.7a.365.365,0,0,1,.338-.139,10.192,10.192,0,0,1,3.03.639c.194.1.224.281.155.541l-.427,1.22-1.613,6.02,1.117-.06Zm-6.223-4.7a8.124,8.124,0,0,1,1.841.3.3.3,0,0,1,.144.359,2.012,2.012,0,0,1-.764,1.061,17.9,17.9,0,0,0-1.865-.061c-.654-.019-4.608.1-5.278.141a10.94,10.94,0,0,0-1.616.28,4,4,0,0,1-1.384-1.26.185.185,0,0,1,.025-.24l.216-.28a14.482,14.482,0,0,0,1.978.16c.775.02,5.121-.08,5.944-.16Z"/>
        <path d="M1351.941,807.181a9.2,9.2,0,0,1,2.439.38.362.362,0,0,1,.217.459,1.845,1.845,0,0,1-.889,1.08c-.505-.06-1.873-.1-2.514-.1-1.381,0-9.683.08-10.884.16a16.975,16.975,0,0,0-2.389.4,4.921,4.921,0,0,1-1.859-1.421.2.2,0,0,1,.009-.26l.276-.36a17.984,17.984,0,0,0,2.5.241c.621,0,2.986-.022,5.472-.041l.493-1.84c-2.254-.32-3.377-1.8-2.864-3.72.584-2.18,3-3.82,5.9-3.82,2.921,0,4.462,1.64,3.878,3.82a5.567,5.567,0,0,1-4.653,3.7l-.487,1.822c2.051-.041,3.822-.081,4.392-.12Zm-4.319,6.859a12.273,12.273,0,0,1,2.093.18.3.3,0,0,1,.233.4,2.248,2.248,0,0,1-.615,1.1.573.573,0,0,1-.412.121l-8.763.079c-1.395-.02-1.795-.62-1.473-1.819l.551-2.061a3.151,3.151,0,0,0-1.186-.72l.3-.6a.379.379,0,0,1,.343-.16,20.787,20.787,0,0,1,2.9.219c.2.08.275.241.2.521l-.318,1.039-.456,1.7c-.086.32.007.5.347.5,1.3.021,4.106-.019,5.337-.06ZM1346.2,804.5a3.228,3.228,0,0,0,3.207-2.339c.381-1.421-.426-2.36-1.947-2.36a3.245,3.245,0,0,0-3.193,2.36C1343.884,803.58,1344.7,804.5,1346.2,804.5Z"/>
      </g>
      <g>
        <path d="M731.4,972.968a6.178,6.178,0,0,1,1.443.214.218.218,0,0,1,.106.268,1.292,1.292,0,0,1-.57.731c-.313-.036-1.071-.071-1.463-.071-.589,0-4.006.088-4.587.124a8.532,8.532,0,0,0-1.3.25,4.408,4.408,0,0,1-1.092-.856.168.168,0,0,1,0-.2l.187-.232a7.207,7.207,0,0,0,1.479.142c.674.018,4.484-.071,5.2-.142Zm2.5-3.321c.039-.072.1-.106.261-.106a5.912,5.912,0,0,1,1.988.446c.123.071.148.178.1.374l-.269.8-2.549,9.513a19.052,19.052,0,0,1-1.44,3.641h-.8c.1-.714.525-2.426.726-3.176l1.043-3.892c-.165.019-.307.019-.4.036a7,7,0,0,0-1.034.2A4.141,4.141,0,0,1,731,977.2a2.436,2.436,0,0,1-.1.822,4.271,4.271,0,0,1-4.164,2.945c-1.91,0-3.112-1.178-2.638-2.945a4.324,4.324,0,0,1,4.216-2.946,2.61,2.61,0,0,1,2.5,1.285,8.657,8.657,0,0,0,1.19.089c.3,0,.755-.017,1.17-.035l1.472-5.5a1.988,1.988,0,0,0-1.051-.8Zm-4.4,8.372a1.424,1.424,0,0,0-1.428-2,2.629,2.629,0,0,0-2.5,2A1.4,1.4,0,0,0,727,980,2.6,2.6,0,0,0,729.494,978.019Zm-2.514-7.408a21.925,21.925,0,0,0,3.958.357c.161,0,.24.036.26.161a1.117,1.117,0,0,1-.277.767.373.373,0,0,1-.3.108c-.8,0-2.023.017-2.77.071-.165.018-.236.018-.324-.054a2.673,2.673,0,0,1-.762-1.017.2.2,0,0,1,.038-.214Zm10.174-2.124c.042-.089.118-.106.261-.106a6.874,6.874,0,0,1,2.143.464c.16.07.18.2.109.392l-.274.892-3.114,11.62a19.788,19.788,0,0,1-1.519,3.8h-.839c.111-.678.555-2.534.765-3.321l3.319-12.386a2.192,2.192,0,0,0-1.136-.893Z"/>
        <path d="M749.057,977.144a2.949,2.949,0,0,1-.487.75h-.8a4.99,4.99,0,0,1,.113-1.089l.956-4.837a1.461,1.461,0,0,0-.726-.554l.227-.446a.216.216,0,0,1,.2-.089,13.233,13.233,0,0,1,2.1.179c.924.017,2.754-.018,3.715-.072l.774-.357a.449.449,0,0,1,.3,0,4.273,4.273,0,0,1,.638.482c.075.054.056.124-.007.233l-.388.641c-.142.465-.307.947-.476,1.447.227.018.459.018.692.018.356,0,.968-.018,1.508-.036l.7-2.624a1.981,1.981,0,0,0-1.029-.821l.285-.464c.037-.071.118-.108.261-.108a5.9,5.9,0,0,1,1.982.464c.128.054.166.179.1.358l-.255.821-1.052,3.927a12.219,12.219,0,0,1-1.244,2.98h-.822a20.324,20.324,0,0,1,.54-2.552l.306-1.142c-.285,0-.576.018-.723.035a5.422,5.422,0,0,0-1.048.179,3.84,3.84,0,0,1-.466-.322c-.226.643-.47,1.286-.722,1.892l.314.161a.2.2,0,0,1,.081.232,1.216,1.216,0,0,1-.405.643Zm5.1-5.23c-1.16,0-2.593.018-3.785.071l-1.027,4.231c.959.017,2.558-.018,3.352-.053l.351-.108Zm4.071,11.923a6.746,6.746,0,0,1,1.574.126.221.221,0,0,1,.174.284,1.3,1.3,0,0,1-.378.679.4.4,0,0,1-.275.09l-8.316.053h-.017c-1.013-.018-1.261-.357-1.037-1.2l.416-1.553a1.507,1.507,0,0,0-.888-.481l.171-.376a.246.246,0,0,1,.225-.107c.536,0,1.812.037,2.293.107,1.089,0,4.709-.053,5.469-.089l.328-.089c.14-.392.4-1.3.484-1.678-1.191-.017-4.526.036-5.267.072a8.065,8.065,0,0,0-1.554.267,4.084,4.084,0,0,1-1.247-.875c-.057-.053-.042-.107-.006-.177l.165-.214a10.627,10.627,0,0,0,1.635.16c.946,0,5.477-.054,6.647-.09l.661-.267a.309.309,0,0,1,.3,0,3.667,3.667,0,0,1,.668.374c.074.054.051.143-.014.25l-.361.483a10.874,10.874,0,0,1-.839,1.73l.3.16a.169.169,0,0,1,.06.18,1.118,1.118,0,0,1-.323.535l-7.361.089-.411,1.535c-.062.233,0,.34.23.34,1.406.018,4.767,0,5.888-.054Zm3.268-13.993a2.192,2.192,0,0,0-1.136-.893l.286-.464c.059-.089.117-.106.26-.106a6.767,6.767,0,0,1,2.143.464c.16.07.2.2.127.392l-.292.892-1.316,4.909a12.9,12.9,0,0,1-1.23,2.927h-.875a24.613,24.613,0,0,1,.531-2.517Z"/>
        <path d="M778.126,979.161a.147.147,0,0,1,.091.2,1.159,1.159,0,0,1-.355.589c-1.267,0-4.686.036-6.017.072a2.545,2.545,0,0,1-.585.785h-.8a4.366,4.366,0,0,1,.138-1.179l1.707-6.836a2.091,2.091,0,0,0-.963-.606l.25-.464a.3.3,0,0,1,.255-.089,9.238,9.238,0,0,1,2.081.231c.133.036.162.125.11.322l-.223.768-.5,1.874,4.339-.072.761-2.838a2.106,2.106,0,0,0-.986-.714l.307-.482c.033-.053.095-.089.238-.089a6.594,6.594,0,0,1,2.017.465c.13.053.16.141.117.3l-.251.8-1.436,5.157a8.756,8.756,0,0,1-.669,1.7Zm-5.066-3.41-.908,3.32,4.353-.053.894-3.337Zm11.926-.267a8,8,0,0,1,1.565.089.288.288,0,0,1,.213.34,1.408,1.408,0,0,1-.407.714.8.8,0,0,1-.443.124l-3.015.054-1.281,4.784a20.437,20.437,0,0,1-1.58,3.962h-.856c.12-.714.588-2.66.8-3.463l3.262-12.173a2.386,2.386,0,0,0-1.26-.964l.289-.482c.056-.071.1-.088.257-.088a8.046,8.046,0,0,1,2.317.481c.141.072.179.2.127.393l-.318.982-1.515,5.658,1.175-.054Z"/>
        <path d="M806.209,981.267a8.214,8.214,0,0,1,2,.286.23.23,0,0,1,.163.321,1.269,1.269,0,0,1-.629.749c-.45-.053-1.547-.089-2.083-.089-1.245-.017-9.217.089-10.214.143a12.749,12.749,0,0,0-1.952.357A4.19,4.19,0,0,1,791.945,982a.182.182,0,0,1,0-.2l.214-.269a10.8,10.8,0,0,0,2,.2c1.119.019,10.021-.087,11.3-.177Zm-9.121-6.069a1.941,1.941,0,0,0-.906-.481l.176-.393a.269.269,0,0,1,.225-.107c.554,0,1.83.036,2.315.09,1.281.017,5.139-.054,5.987-.09l.4-.107a24.487,24.487,0,0,0,.756-2.625c-1.227-.017-4.883.036-5.665.09a10.993,10.993,0,0,0-1.643.269,4.039,4.039,0,0,1-1.3-.929.139.139,0,0,1,0-.2l.187-.232a11.627,11.627,0,0,0,1.729.143c.977.018,5.812-.035,7.04-.089l.723-.3a.493.493,0,0,1,.322,0,4.152,4.152,0,0,1,.707.428c.056.053.051.143-.036.268l-.385.571a25.078,25.078,0,0,1-1.142,2.659l.319.144c.08.035.079.106.055.195a1.281,1.281,0,0,1-.349.571l-7.974.108-.68,2.534c-.061.232.012.357.262.357,1.531.018,5.151-.036,6.367-.107l.594-.285a9.328,9.328,0,0,1,1.7.124.221.221,0,0,1,.173.286,1.328,1.328,0,0,1-.395.678.435.435,0,0,1-.292.089l-8.906.125c-1.012-.018-1.27-.392-1.026-1.3Z"/>
        <path d="M829.73,981.143a8.044,8.044,0,0,1,1.991.3c.151.034.207.16.164.321a1.279,1.279,0,0,1-.63.75c-.449-.054-1.547-.09-2.083-.09-1.245-.018-9.213.072-10.214.143a12.593,12.593,0,0,0-1.947.339,3.967,3.967,0,0,1-1.549-1.016.187.187,0,0,1,0-.2l.214-.267a15.607,15.607,0,0,0,2,.2c1.119.019,10.02-.09,11.295-.178Zm-8.251-9.247a2.344,2.344,0,0,0-1.109-.588l.213-.464a.273.273,0,0,1,.22-.09,18.5,18.5,0,0,1,2.5.179c1.392,0,4.893-.072,5.889-.125l.648-.287a10.494,10.494,0,0,1,1.726.09.222.222,0,0,1,.191.286,1.542,1.542,0,0,1-.383.7.429.429,0,0,1-.332.106l-8.018.144-.651,2.427c1.536,0,4.71-.054,5.671-.108l.624-.267a10.468,10.468,0,0,1,1.584.088.215.215,0,0,1,.191.287,1.43,1.43,0,0,1-.374.66.518.518,0,0,1-.314.107l-7.625.143-.565,2.106c-.086.32.006.446.308.446,1.246.018,4.634-.036,5.761-.107l.629-.286a9.582,9.582,0,0,1,1.716.125.212.212,0,0,1,.174.286,1.469,1.469,0,0,1-.361.679.492.492,0,0,1-.309.088l-8.21.126c-1.142,0-1.478-.483-1.206-1.5Z"/>
        <path d="M859.672,978.43a6.534,6.534,0,0,1,.234,1.391.792.792,0,0,1-.138.518.714.714,0,0,1-.745.179.679.679,0,0,1-.278-.358L857.27,977a29.028,29.028,0,0,1-5.513,4.052c-.1.053-.18.071-.224.036l-.161-.2a.132.132,0,0,1,.011-.179,29.485,29.485,0,0,0,7.767-8c-.821,0-2.29.017-2.662.07a5.952,5.952,0,0,0-1.317.25,3.832,3.832,0,0,1-1.109-.856c-.052-.072-.055-.124,0-.178l.164-.215a8.512,8.512,0,0,0,1.471.107c.589,0,3.147-.018,3.977-.052l.689-.3a.493.493,0,0,1,.322,0c.2.106.578.3.716.392.052.072.028.161-.032.25l-.488.553a19.662,19.662,0,0,1-2.811,3.5l1.024,1.839Zm3.369-8.711a.323.323,0,0,1,.262-.108,6.4,6.4,0,0,1,1.982.464.278.278,0,0,1,.119.358l-.274.821-2.535,9.46a19,19,0,0,1-1.439,3.641h-.8c.1-.714.508-2.428.709-3.177l1.253-4.677a7.72,7.72,0,0,0-.8.054,5.885,5.885,0,0,0-1.144.268,3.643,3.643,0,0,1-.984-.786.141.141,0,0,1,.011-.179l.183-.213c.382.036.9.053,1.324.053.41,0,1.076-.017,1.639-.053L863.787,971a1.878,1.878,0,0,0-1.035-.8Zm3.33-1.232c.06-.089.118-.106.26-.106a6.743,6.743,0,0,1,2.143.464c.161.07.2.2.128.392l-.293.892-3.113,11.62a19.788,19.788,0,0,1-1.519,3.8h-.822c.094-.678.537-2.534.747-3.321l3.32-12.386a2.192,2.192,0,0,0-1.136-.893Z"/>
        <path d="M890.125,975.021a8.224,8.224,0,0,1,2,.284.248.248,0,0,1,.159.34,1.318,1.318,0,0,1-.63.75c-.449-.054-1.546-.09-2.083-.09-.588,0-2.731,0-4.9.036l-.278,1.035a13.865,13.865,0,0,1-.875,2.267c1.2-.019,2.3-.053,2.786-.072l.62-.25a.405.405,0,0,1,.287,0,5.492,5.492,0,0,1,.66.465c.057.054.038.124-.026.232l-.377.606-.7,2.429a12.359,12.359,0,0,1-1.128,2.676H884.7a20.755,20.755,0,0,1,.479-2.32l.77-2.873c-1.46-.018-5.021.017-5.8.07a7.221,7.221,0,0,0-1.706.3,4.346,4.346,0,0,1-1.38-.91.135.135,0,0,1,0-.2l.2-.268a10.239,10.239,0,0,0,1.8.16c.428,0,1.825-.017,3.312-.036.109-.606.311-1.427.445-1.927l.368-1.375c-1.83.037-3.407.054-3.826.089a12.73,12.73,0,0,0-1.948.34,3.731,3.731,0,0,1-1.544-1.036c-.044-.034-.042-.106-.006-.178l.215-.268a15.245,15.245,0,0,0,2,.2c.817.018,5.762-.054,8.883-.107a34.513,34.513,0,0,0,1.748-4.659c-1.441-.018-5.026.035-5.825.089a8.41,8.41,0,0,0-1.707.3,4.4,4.4,0,0,1-1.371-.945.147.147,0,0,1-.014-.215l.192-.25a10.735,10.735,0,0,0,1.827.178c.893,0,6.041-.089,7.25-.142l.76-.3a.3.3,0,0,1,.3,0,5.063,5.063,0,0,1,.768.464c.052.072.051.143-.031.25l-.44.643a23.521,23.521,0,0,1-2.434,4.551c.662,0,1.148-.018,1.385-.036Z"/>
      </g>
      <g>
        <path d="M1548.774,761.27c0,.088-.055.142-.172.178a49.522,49.522,0,0,1-5.934,1.089,6.88,6.88,0,0,0-1.526.3,5.209,5.209,0,0,1-1.312-1.036.158.158,0,0,1,0-.2l.219-.285a7.891,7.891,0,0,0,1.734.125l.469-.017.485-2.946a1.421,1.421,0,0,0-.679-.66l.265-.392a.284.284,0,0,1,.256-.09,5.3,5.3,0,0,1,1.521.392c.128.054.143.126.1.286l-.2.732-.52,2.6c.711-.052,1.5-.124,2.25-.2l.843-3.283a1.258,1.258,0,0,0-.7-.518l.24-.428c.037-.072.1-.09.238-.09a6.437,6.437,0,0,1,1.644.2c.128.054.145.126.1.3l-.213.732-.072.268.131-.161a7.235,7.235,0,0,0,1.12.089c.41,0,1.11-.018,1.657-.053l.826-3.088a1.885,1.885,0,0,0-1.034-.8l.29-.481a.317.317,0,0,1,.26-.108,6.37,6.37,0,0,1,1.983.465c.124.07.166.178.1.357l-.256.821-1.115,4.158a11.515,11.515,0,0,1-1.24,2.963h-.821a20.375,20.375,0,0,1,.541-2.552l.239-.893c-.3,0-.7,0-.88.018a6.923,6.923,0,0,0-1.034.2,2.711,2.711,0,0,1-.826-.714l-.014-.018L1547,761.02c.631-.089,1.2-.161,1.655-.25.1-.018.161,0,.155.089Zm-.4-6.176a6.154,6.154,0,0,1,1.437.232.207.207,0,0,1,.107.268,1.233,1.233,0,0,1-.583.714c-.3-.036-1.039-.053-1.433-.053-.53-.019-3.294.035-3.821.07a8.306,8.306,0,0,0-1.316.25,4.054,4.054,0,0,1-1.105-.874.149.149,0,0,1-.006-.179l.187-.232a11.245,11.245,0,0,0,1.5.125c.621.018,3.8-.035,4.452-.089Zm3.285,13.19a6.862,6.862,0,0,1,1.574.125.222.222,0,0,1,.174.285,1.29,1.29,0,0,1-.379.679.391.391,0,0,1-.273.089l-8.192.054c-1.031-.018-1.279-.358-1.054-1.2l.4-1.482a1.642,1.642,0,0,0-.888-.482l.171-.375c.033-.053.1-.088.22-.088.537,0,1.813.035,2.3.088,1.178,0,4.6-.036,5.321-.071l.327-.089c.142-.392.389-1.25.462-1.589-1.173-.017-4.521.019-5.263.054a9.655,9.655,0,0,0-1.553.268,4.119,4.119,0,0,1-1.253-.857.161.161,0,0,1,0-.2l.182-.214a8.491,8.491,0,0,0,1.619.16c.963,0,5.524-.036,6.646-.089l.643-.267a.491.491,0,0,1,.321,0c.173.088.531.285.667.374.07.071.047.16-.017.267l-.357.465a11.61,11.61,0,0,1-.8,1.642l.274.179a.128.128,0,0,1,.063.16,1.24,1.24,0,0,1-.326.553l-7.214.072-.392,1.464c-.062.231,0,.338.212.338,1.317.019,4.66,0,5.782-.053Zm3.215-13.994a2.2,2.2,0,0,0-1.136-.892l.285-.464c.06-.088.118-.107.26-.107a6.782,6.782,0,0,1,2.144.465c.16.07.2.195.127.392l-.293.892-1.354,5.052a12.992,12.992,0,0,1-1.234,2.944h-.875a24.331,24.331,0,0,1,.531-2.516Z"/>
        <path d="M1578.36,759.966a7.916,7.916,0,0,1,1.565.09.273.273,0,0,1,.218.322,1.511,1.511,0,0,1-.412.73.922.922,0,0,1-.438.108l-3.02.072L1575,766.035a20.39,20.39,0,0,1-1.579,3.963h-.857c.121-.714.588-2.66.8-3.463l.66-2.464a45.962,45.962,0,0,1-8.382,1.5c-.218.018-.433.018-.611.018a.957.957,0,0,1-1.041-.982,3.3,3.3,0,0,1,.141-.856l.808-3.017a1.84,1.84,0,0,0-.92-.5l.182-.41c.032-.053.1-.09.22-.09.536,0,1.816.018,2.32.072.9-.018,2.959-.054,3.474-.107l.327-.09c.217-.606.736-2.48.863-3.087-.82,0-2.955.036-3.433.089a8.765,8.765,0,0,0-1.464.268,4.253,4.253,0,0,1-1.177-.874c-.057-.054-.042-.109-.006-.179l.192-.25a7.837,7.837,0,0,0,1.569.143c.691.017,3.871-.054,4.706-.107l.648-.286a.3.3,0,0,1,.3,0,6.19,6.19,0,0,1,.7.446c.058.054.051.143-.012.25l-.364.553a24.276,24.276,0,0,1-1.242,3.034l.305.2a.141.141,0,0,1,.078.178,1.338,1.338,0,0,1-.332.572l-5.4.16L1565.6,764c-.057.214,0,.32.253.32a42.844,42.844,0,0,0,8.387-1.052l2.387-8.907a2.379,2.379,0,0,0-1.259-.964l.289-.482c.056-.07.1-.089.256-.089a8.112,8.112,0,0,1,2.317.483c.142.07.179.2.127.392l-.317.982-1.521,5.675,1.176-.053Z"/>
        <path d="M1591.688,762.43c-2.355,0-3.65-1.5-3.066-3.677a5.126,5.126,0,0,1,5.033-3.659c2.338,0,3.638,1.481,3.055,3.659A5.144,5.144,0,0,1,1591.688,762.43Zm6.443,5.675a9.369,9.369,0,0,1,1.7.125.225.225,0,0,1,.192.287,1.382,1.382,0,0,1-.429.731.409.409,0,0,1-.292.089l-7.654.054c-1.214,0-1.524-.447-1.251-1.463l.65-2.428a2.468,2.468,0,0,0-1.1-.553l.21-.446a.261.261,0,0,1,.247-.126,11.438,11.438,0,0,1,2.179.2c.169.036.23.144.172.358l-.242.839-.608,2.266c-.082.3.006.446.309.446,1.121.018,4.16,0,5.21-.053Zm-6.141-6.8a3.35,3.35,0,0,0,3.238-2.553c.429-1.607-.4-2.57-1.865-2.57a3.347,3.347,0,0,0-3.223,2.57A1.811,1.811,0,0,0,1591.99,761.306Zm9.15-6.961a2.331,2.331,0,0,0-1.233-.929l.294-.5c.036-.07.1-.089.237-.089a7.73,7.73,0,0,1,2.3.483c.142.07.179.2.109.392l-.293.964-1.9,7.086a17.041,17.041,0,0,1-1.509,3.766h-.875c.1-.714.525-2.427.75-3.267Z"/>
        <path d="M1619.775,755.594a.3.3,0,0,1,.3,0,4.24,4.24,0,0,1,.716.465c.053.07.033.141-.027.231l-.469.553c-1.623,3.391-5.86,7.212-10.546,9.442a.237.237,0,0,1-.206.036l-.205-.232c-.04-.054-.044-.108.053-.2a29.426,29.426,0,0,0,6.809-5.7c-.953.161-2.1.286-2.881.358a5.968,5.968,0,0,0-1.336.321,4.2,4.2,0,0,1-1.19-.821.1.1,0,0,1-.011-.16l.175-.25a8.75,8.75,0,0,0,1.538.053c1.122-.053,3.2-.232,4.444-.393a16.913,16.913,0,0,0,1.633-2.5c-.9-.019-2.82,0-3.277.035a6.579,6.579,0,0,0-1.486.286,3.762,3.762,0,0,1-1.2-.857.122.122,0,0,1-.006-.179l.188-.232a11.771,11.771,0,0,0,1.573.125c.643,0,3.794-.035,4.648-.09Zm5.507,4.569a8.089,8.089,0,0,1,1.565.089.273.273,0,0,1,.217.322,1.521,1.521,0,0,1-.411.732.944.944,0,0,1-.438.106l-3.02.072-1.219,4.551A20.4,20.4,0,0,1,1620.4,770h-.856c.12-.714.588-2.66.8-3.463l3.261-12.173a2.377,2.377,0,0,0-1.258-.964l.289-.482c.055-.07.1-.089.256-.089a8.112,8.112,0,0,1,2.317.483c.142.07.179.2.127.392l-.317.982-1.574,5.872,1.176-.054Z"/>
        <path d="M1638.334,763.929c-2.41,0-3.77-1.588-3.162-3.855a5.407,5.407,0,0,1,5.233-3.874c2.375,0,3.716,1.589,3.1,3.874A5.369,5.369,0,0,1,1638.334,763.929Zm1.761-6.568a3.5,3.5,0,0,0-3.334,2.713c-.449,1.678.408,2.677,1.888,2.677a3.464,3.464,0,0,0,3.307-2.677C1642.411,758.378,1641.558,757.361,1640.1,757.361ZM1644.01,770c.1-.714.57-2.66.785-3.463l3.262-12.173a2.332,2.332,0,0,0-1.242-.964l.29-.482c.037-.07.078-.089.238-.089a7.989,7.989,0,0,1,2.317.483c.16.07.179.2.126.392l-.315.982-3.042,11.351a21.431,21.431,0,0,1-1.562,3.963Z"/>
        <path d="M1666.43,760.056a5.425,5.425,0,0,1-5.22,3.891c-2.429,0-3.778-1.625-3.171-3.891a5.45,5.45,0,0,1,5.257-3.891C1665.706,756.165,1667.037,757.789,1666.43,760.056Zm-1.553,0c.454-1.7-.394-2.731-1.893-2.731a3.544,3.544,0,0,0-3.374,2.731c-.454,1.7.416,2.713,1.916,2.713A3.5,3.5,0,0,0,1664.877,760.056Zm7.485-.285a7.867,7.867,0,0,1,1.566.088.264.264,0,0,1,.218.323,1.519,1.519,0,0,1-.412.73.934.934,0,0,1-.438.108l-3.02.072-1.325,4.943a20.327,20.327,0,0,1-1.579,3.963h-.856c.12-.714.588-2.66.8-3.463l3.262-12.173a2.379,2.379,0,0,0-1.259-.964l.289-.482c.055-.07.1-.089.256-.089a8.119,8.119,0,0,1,2.318.483c.141.07.178.2.126.392l-.317.982-1.469,5.479,1.176-.054Z"/>
      </g>
    </g>
    <g>
      <g>
        <g>
          <path d="M69.313,954.423a1.152,1.152,0,0,1,.092-.294,3.677,3.677,0,0,1,.334-.605,3.812,3.812,0,0,1,.6-.708,3.029,3.029,0,0,1,.994-.576A3.944,3.944,0,0,1,72.749,952a3.723,3.723,0,0,1,2.779,1.089,3.659,3.659,0,0,1,1.07,2.669,2.862,2.862,0,0,1-.139.885,4.751,4.751,0,0,1-.294.73,3.943,3.943,0,0,1-.581.762c-.284.309-.514.547-.692.711s-.5.451-.958.861-.811.729-1.05.956l-1.336,1.271H72.1l3.388-.033h.382a.65.65,0,0,1,.731.739v.3a.649.649,0,0,1-.731.738H70.2a1.192,1.192,0,0,1-.425-.064.387.387,0,0,1-.227-.212.841.841,0,0,1-.071-.214c-.006-.046-.014-.121-.024-.228v-.264a.6.6,0,0,1,.143-.39q.094-.111,2.219-2.386.079-.08.381-.4c.2-.212.337-.357.406-.433l.374-.417a5.03,5.03,0,0,0,.374-.456c.069-.1.172-.246.31-.429a2.155,2.155,0,0,0,.286-.476c.053-.135.118-.292.2-.473a2.254,2.254,0,0,0,.155-.527,3.585,3.585,0,0,0,.04-.536,2.429,2.429,0,0,0-.474-1.508,1.587,1.587,0,0,0-1.348-.627,1.629,1.629,0,0,0-1.037.326,1.715,1.715,0,0,0-.573.727c-.1.268-.2.51-.282.728s-.162.326-.231.326a.221.221,0,0,1-.135-.059,1.553,1.553,0,0,1-.131-.123,1.742,1.742,0,0,1-.14-.18,1.39,1.39,0,0,0-.111-.147c-.063-.074-.134-.161-.211-.258s-.131-.166-.162-.2a1.079,1.079,0,0,1-.1-.138.825.825,0,0,1-.067-.123A.234.234,0,0,1,69.313,954.423Z" fill="#040000"/>
          <path d="M78.205,958.392v-.549q0-3.651,1.227-4.892A3.41,3.41,0,0,1,81.99,952a3.647,3.647,0,0,1,1.761.4,3.088,3.088,0,0,1,1.111.949,4.4,4.4,0,0,1,.6,1.406,8.133,8.133,0,0,1,.259,1.473q.041.62.041,1.462v.1c0,.054,0,.152.008.3s.007.268.007.368q0,.917-.064,1.625a7.449,7.449,0,0,1-.3,1.49,3.786,3.786,0,0,1-.64,1.286,3.042,3.042,0,0,1-1.115.841,3.951,3.951,0,0,1-1.695.334,3.326,3.326,0,0,1-2.622-1.009Q78.2,961.763,78.205,958.392Zm2.226-.43a15.055,15.055,0,0,0,.287,3.852,1.943,1.943,0,0,0,.451.69,1.084,1.084,0,0,0,.813.333,1.044,1.044,0,0,0,.8-.325,2.076,2.076,0,0,0,.443-.682,14.109,14.109,0,0,0,.311-3.836v-.111q0-1.832-.068-2.636A3.788,3.788,0,0,0,83.19,954a1.3,1.3,0,0,0-1.212-.809,1.216,1.216,0,0,0-.965.436,2.143,2.143,0,0,0-.494,1.272Q80.431,955.735,80.431,957.962Z" fill="#040000"/>
          <path d="M87.16,958.392v-.549q0-3.651,1.227-4.892A3.41,3.41,0,0,1,90.945,952a3.647,3.647,0,0,1,1.761.4,3.088,3.088,0,0,1,1.111.949,4.428,4.428,0,0,1,.6,1.406,8.121,8.121,0,0,1,.258,1.473q.04.62.041,1.462v.1c0,.054,0,.152.008.3s.007.268.007.368q0,.917-.063,1.625a7.525,7.525,0,0,1-.3,1.49,3.786,3.786,0,0,1-.64,1.286,3.042,3.042,0,0,1-1.115.841,3.951,3.951,0,0,1-1.695.334A3.326,3.326,0,0,1,88.3,963.02Q87.16,961.763,87.16,958.392Zm2.226-.43a15.055,15.055,0,0,0,.287,3.852,1.943,1.943,0,0,0,.451.69,1.084,1.084,0,0,0,.813.333,1.044,1.044,0,0,0,.8-.325,2.076,2.076,0,0,0,.443-.682,14.109,14.109,0,0,0,.311-3.836v-.111q0-1.832-.068-2.636A3.788,3.788,0,0,0,92.145,954a1.3,1.3,0,0,0-1.212-.809,1.217,1.217,0,0,0-.965.436,2.143,2.143,0,0,0-.494,1.272Q89.387,955.735,89.386,957.962Z" fill="#040000"/>
          <path d="M102.524,962.908V952.626q0-.717.781-.716h.475a1.126,1.126,0,0,1,.462.083.444.444,0,0,1,.242.238,1.024,1.024,0,0,1,.067.236,2.2,2.2,0,0,1,.009.23v6.036l1.185-1.1a16.9,16.9,0,0,1,1.392-1.236,1.327,1.327,0,0,1,.747-.18h1.074c.238.011.374.109.406.295a.841.841,0,0,1-.3.472q-.287.274-2.45,2.263.017.017,2.815,3.7a.809.809,0,0,1,.167.374q0,.359-.493.358h-.859a1.222,1.222,0,0,1-.5-.079,1.381,1.381,0,0,1-.417-.39l-2.052-2.7-.748.684v1.773q0,.717-.781.716h-.416a1.3,1.3,0,0,1-.463-.071.424.424,0,0,1-.246-.211.96.96,0,0,1-.081-.239A1.5,1.5,0,0,1,102.524,962.908Z" fill="#040000"/>
          <path d="M110.994,962.94v-6.091a.64.64,0,0,1,.732-.716h.652a1.623,1.623,0,0,1,.25.015,1.344,1.344,0,0,1,.231.072.362.362,0,0,1,.2.211,1.077,1.077,0,0,1,.063.4v.326c.207-.2.37-.346.489-.449a4.107,4.107,0,0,1,2.168-.68,3.166,3.166,0,0,1,1.486.286,1.706,1.706,0,0,1,.773.923,3.357,3.357,0,0,1,2.71-1.209,3.545,3.545,0,0,1,1.182.171,2.081,2.081,0,0,1,.718.394,1.38,1.38,0,0,1,.363.636,3.135,3.135,0,0,1,.14.684q.017.272.016.756v4.27a.831.831,0,0,1-.156.545.766.766,0,0,1-.6.187h-.719a1.56,1.56,0,0,1-.235-.016.65.65,0,0,1-.18-.048.418.418,0,0,1-.12-.076.791.791,0,0,1-.092-.1c-.029-.038-.051-.07-.067-.1a.292.292,0,0,1-.032-.123.756.756,0,0,0-.016-.108.371.371,0,0,1-.008-.1v-4.525c0-.208,0-.365-.016-.473a1.313,1.313,0,0,0-.1-.374.579.579,0,0,0-.295-.311,1.3,1.3,0,0,0-.55-.1,1.552,1.552,0,0,0-1.109.413,2.207,2.207,0,0,0-.606.938,3.3,3.3,0,0,0-.08.843v3.464a1.078,1.078,0,0,1-.039.215,1,1,0,0,1-.107.265.711.711,0,0,1-.21.211.606.606,0,0,1-.357.1h-.745a.783.783,0,0,1-.61-.187.82.82,0,0,1-.158-.545v-4.533a1.621,1.621,0,0,0-.195-.911.858.858,0,0,0-.744-.273,1.716,1.716,0,0,0-1.256.544,2.066,2.066,0,0,0-.541,1.523v3.65a.647.647,0,0,1-.732.732h-.732Q110.995,963.672,110.994,962.94Z" fill="#040000"/>
        </g>
        <polyline points="242.166 963.673 242.166 971.371 58.137 971.371 58.137 963.673" fill="none" stroke="#040000" stroke-miterlimit="10"/>
      </g>
      <g>
        <path d="M86.382,1015.053a.7.7,0,0,1,.475.685,3.841,3.841,0,0,1-.792,2.482c-3.854-.053-12.829.052-17.158.159a4.941,4.941,0,0,1-1.426,2.375h-3.22a12.449,12.449,0,0,1-.739-4.012l-.317-19.429a7.29,7.29,0,0,0-3.168-2.006l.476-1.637c.052-.211.263-.316.792-.316a36.094,36.094,0,0,1,7.391.739c.528.158.686.474.686,1.108l-.053,2.482v4.381l10.612-.105v-7.392a8.586,8.586,0,0,0-3.273-2.269l.581-1.637c.105-.265.316-.37.844-.317a31,31,0,0,1,7.392,1.531.966.966,0,0,1,.633,1.108l-.1,2.746-.159,13.569a22.378,22.378,0,0,1-.739,5.332Zm-17.106-9.292-.052,8.816,10.717-.105v-8.87Zm33.9-1.268a25.377,25.377,0,0,1,4.752.264,1.288,1.288,0,0,1,1.108,1.162,4,4,0,0,1-.633,2.8,2.169,2.169,0,0,1-1.531.528l-8.289.211v11.721a50.875,50.875,0,0,1-2.006,13.568H93.14a114.554,114.554,0,0,1-.634-11.668V988.972a9.3,9.3,0,0,0-4.329-3.116l.634-1.847c.106-.211.264-.37.792-.37a31.517,31.517,0,0,1,8.447,1.689,1.376,1.376,0,0,1,.792,1.426l-.264,3.221v15.786l2.9-.159Z" fill="#040000"/>
        <path d="M154.167,1000.692a25.371,25.371,0,0,1,4.751.264,1.288,1.288,0,0,1,1.108,1.161,4,4,0,0,1-.633,2.8,2.168,2.168,0,0,1-1.531.527l-8.289.211v3.168c0,4.118-.739,9.662-2.006,12.724h-3.432a80.854,80.854,0,0,1-.634-9.819,110.375,110.375,0,0,1-21.856,4.329c-.687.052-1.426.052-2.007.052a4.7,4.7,0,0,1-4.751-3.484,9.428,9.428,0,0,1-.317-2.8v-5.913a8.339,8.339,0,0,0-3.115-1.637l.316-1.477a.587.587,0,0,1,.582-.318c1.953,0,6.6.053,8.394.159,2.006,0,6.441-.159,7.761-.317l.95-.211c.053-1.215.053-5.332,0-6.441-2.323-.053-7.338.053-8.553.105a28.617,28.617,0,0,0-4.276.792,18.429,18.429,0,0,1-4.382-3.219.491.491,0,0,1-.159-.634l.423-.845a29.321,29.321,0,0,0,5.121.475c2.006,0,10.348-.106,12.565-.211l2.218-.95a1.223,1.223,0,0,1,1.056,0,34.1,34.1,0,0,1,3.114,1.584.616.616,0,0,1,.106.792l-.686,2.058a36.053,36.053,0,0,1-1.162,6.547l.95.528c.317.211.528.422.528.739a3.562,3.562,0,0,1-.686,2.112l-14.994.528v6.23c0,.634.317,1,1.056,1a104.9,104.9,0,0,0,21.8-2.745v-19.64a8.911,8.911,0,0,0-4.17-3.01l.633-1.9c.106-.211.265-.37.792-.37a29.922,29.922,0,0,1,8.289,1.689,1.342,1.342,0,0,1,.739,1.426l-.211,3.115v12.09l2.9-.158Zm-7.339,27.4a25.61,25.61,0,0,1,5.649.475,1.075,1.075,0,0,1,.95,1.056,4.464,4.464,0,0,1-.844,2.9,1.433,1.433,0,0,1-1,.318l-21.963.211h-.053c-3.959-.053-5.49-1.584-5.49-4.752v-4.91a9.992,9.992,0,0,0-3.643-1.954l.317-1.584a.749.749,0,0,1,.792-.474,50.574,50.574,0,0,1,7.866.633,1.23,1.23,0,0,1,1,1.32l-.1,2.745v4.013c0,.9.369,1.32,1.267,1.32,3.062.053,10.189-.054,13.2-.159Z" fill="#040000"/>
        <path d="M182.062,1020.715v-2.475l18.4-23.094a2.4,2.4,0,0,1,.734-.71,3.167,3.167,0,0,1,1.07-.117q1.061,0,1.32.285a2.356,2.356,0,0,1,.259,1.392v22.244h5.1v2.475h-5.1v5.748h5.1v2.475q-1.854-.156-8.548-.155-7.05,0-9.058.155v-2.475h5.748v-5.748Zm2.707-2.475h13.043v-16.368Z" fill="#040000"/>
        <path d="M213.2,1021.591a4.084,4.084,0,0,1,1.076-3.029,3.9,3.9,0,0,1,2.872-1.07,4.116,4.116,0,0,1,2.958,1.107,4.091,4.091,0,0,1-1.99,6.838,12.261,12.261,0,0,0,6.711,1.774,5.425,5.425,0,0,0,2.7-.631,4.94,4.94,0,0,0,1.652-1.39,5.872,5.872,0,0,0,.832-2.02,10.863,10.863,0,0,0,.325-1.982q.025-.72.026-1.827,0-1.156-.026-1.865a10.4,10.4,0,0,0-.349-2,5.718,5.718,0,0,0-.879-2.032,4.93,4.93,0,0,0-1.719-1.352,5.991,5.991,0,0,0-2.792-.6h-2.329c-.4,0-.682-.009-.838-.027a.794.794,0,0,1-.46-.238.954.954,0,0,1-.223-.713q0-.872.651-.925.6-.105,2.552-.212a5.191,5.191,0,0,0,2.328-.6,4.154,4.154,0,0,0,1.565-1.439,13.737,13.737,0,0,0,.931-1.732,7.326,7.326,0,0,0,.531-1.849q.154-1,.181-1.451t.026-.808q0-5.111-4.553-5.11a9.2,9.2,0,0,0-5.874,1.892q3.132.741,3.132,3.68a3.517,3.517,0,0,1-1.027,2.557,4.019,4.019,0,0,1-5.4.017,3.543,3.543,0,0,1-1.079-2.681,6.523,6.523,0,0,1,2.919-5.4,12.447,12.447,0,0,1,7.634-2.178q5.37,0,8.4,2.109a6.245,6.245,0,0,1,3.032,5.268,7.522,7.522,0,0,1-2.2,5.428,12.322,12.322,0,0,1-5.248,3.224,16.919,16.919,0,0,1,4.615,1.679,8.362,8.362,0,0,1,2.86,2.428,9.929,9.929,0,0,1,1.316,2.53,7.9,7.9,0,0,1,.386,2.453,9.269,9.269,0,0,1-3.355,7.1q-3.355,3.018-9.961,3.019a15.324,15.324,0,0,1-8.547-2.2A6.62,6.62,0,0,1,213.2,1021.591Z" fill="#040000"/>
        <path d="M243.411,1014.734q-.025-1.056-.026-2.641t.026-2.644a30.826,30.826,0,0,1,.3-3.086,20.821,20.821,0,0,1,.721-3.459,18.323,18.323,0,0,1,1.392-3.175,9.48,9.48,0,0,1,2.242-2.828,10.972,10.972,0,0,1,3.377-1.82,14.078,14.078,0,0,1,4.717-.735,13.787,13.787,0,0,1,4.731.76,11.557,11.557,0,0,1,3.376,1.821,9.329,9.329,0,0,1,2.243,2.827,19.259,19.259,0,0,1,1.4,3.176,19.631,19.631,0,0,1,.709,3.433q.256,2.028.283,3.086t.026,2.644q0,1.584-.026,2.668t-.283,3.067a19.226,19.226,0,0,1-.709,3.376,17.162,17.162,0,0,1-1.4,3.081,9.4,9.4,0,0,1-2.269,2.745,11.278,11.278,0,0,1-3.4,1.779,14.248,14.248,0,0,1-4.666.721,13.942,13.942,0,0,1-4.717-.747,11.93,11.93,0,0,1-3.39-1.779,8.9,8.9,0,0,1-2.242-2.745,18.655,18.655,0,0,1-1.392-3.08,18.977,18.977,0,0,1-.721-3.377A30.282,30.282,0,0,1,243.411,1014.734Zm6.728-3.273a78.969,78.969,0,0,0,.489,11.136,5.7,5.7,0,0,0,5.542,5.026,6.258,6.258,0,0,0,2.062-.348,5.309,5.309,0,0,0,2.14-1.688,6.909,6.909,0,0,0,1.443-3.609,97.715,97.715,0,0,0,.361-10.517q0-9.924-.9-11.883a5.17,5.17,0,0,0-2.113-2.474,5.72,5.72,0,0,0-2.991-.851,7.249,7.249,0,0,0-1.933.27,5.2,5.2,0,0,0-2.191,1.56,5.844,5.844,0,0,0-1.469,3.4A74.414,74.414,0,0,0,250.139,1011.461Z" fill="#040000"/>
        <path d="M273.879,1020.411q0-5.9,6.754-8.859-5.079-2.873-5.052-8a8.589,8.589,0,0,1,2.874-6.65q2.874-2.613,8.158-2.613a14.073,14.073,0,0,1,7.81,1.964,6.538,6.538,0,0,1,3.016,5.867q0,4.533-5.336,7.263,1.417.851,2.269,1.4a16.7,16.7,0,0,1,2.139,1.764,7.906,7.906,0,0,1,1.946,2.846,10.278,10.278,0,0,1-2.668,11.185q-3.325,2.943-9.382,2.943a16.244,16.244,0,0,1-9.01-2.286A7.611,7.611,0,0,1,273.879,1020.411Zm4.537,0a6.174,6.174,0,0,0,2.165,4.958,9.025,9.025,0,0,0,6.032,1.842,16.86,16.86,0,0,0,3.454-.335,6.813,6.813,0,0,0,3.055-1.6,4.185,4.185,0,0,0,1.456-3.323,3.715,3.715,0,0,0-.658-2.163,5.764,5.764,0,0,0-1.366-1.455,25.3,25.3,0,0,0-2.255-1.352q-5.9-3.323-7.217-3.992Q278.416,1015.621,278.416,1020.411Zm1.108-19.934q0,1.854,2.346,3.168l7.913,4.429q3.687-2.419,3.686-5.9a5.19,5.19,0,0,0-1.868-4.224,7.926,7.926,0,0,0-5.194-1.546,13.747,13.747,0,0,0-2.011.142,15.856,15.856,0,0,0-2.165.5,4.008,4.008,0,0,0-1.959,1.235A3.255,3.255,0,0,0,279.524,1000.477Z" fill="#040000"/>
      </g>
    </g>
  </g>
</svg>
