<?xml version="1.0" encoding="utf-8"?>
<!-- Generator: Adobe Illustrator 26.5.0, SVG Export Plug-In . SVG Version: 6.00 Build 0)  -->
<svg version="1.1" id="레이어_1" xmlns="http://www.w3.org/2000/svg" xmlns:xlink="http://www.w3.org/1999/xlink" x="0px"
	 y="0px" viewBox="0 0 36 36" style="enable-background:new 0 0 36 36;" xml:space="preserve">
<style type="text/css">
	.st0{fill:#0C0C0C;}
	.st1{fill:#FFFFFF;}
</style>
<g>
	<path class="st0" d="M36,9v18c0,0.2,0,0.4,0,0.7c0,0.1,0,0.2-0.1,0.3c0,0.1,0,0.1,0,0.2c0,0.1-0.1,0.3-0.2,0.4
		c0,0.1-0.1,0.2-0.1,0.3c0,0.1-0.1,0.2-0.1,0.3c-0.2,0.3-0.4,0.5-0.6,0.7c-0.2,0.1-0.3,0.3-0.5,0.4c-0.2,0.1-0.3,0.2-0.5,0.3
		c0,0-0.1,0-0.1,0c-0.1,0.1-0.2,0.1-0.4,0.2c0,0-0.1,0-0.1,0c-0.2,0.1-0.4,0.1-0.5,0.1C32.5,31,32.2,31,32,31H4c-2.2,0-4-1.8-4-4V9
		c0-0.3,0-0.5,0.1-0.8c0-0.1,0.1-0.2,0.1-0.4c0,0,0,0,0,0c0.2-0.5,0.4-0.9,0.7-1.3C1,6.4,1,6.3,1.1,6.2C1.2,6.2,1.3,6.1,1.4,6
		C2.1,5.4,3,5,4,5h28c0.8,0,1.6,0.3,2.2,0.7C35.3,6.4,36,7.6,36,9z"/>
	<g>
		<polygon class="st1" points="7.3,31 10.4,31 10.4,25.8 		"/>
		<polygon class="st1" points="10.4,31 13.4,31 13.4,25.8 		"/>
		<polygon class="st1" points="13.4,20.6 16.4,20.6 16.4,15.4 		"/>
		<polygon class="st1" points="16.4,20.6 13.4,25.8 16.4,25.8 		"/>
		<polygon class="st1" points="13.4,31 16.4,31 16.4,25.8 		"/>
		<polygon class="st1" points="19.5,15.4 16.4,20.6 19.5,20.6 		"/>
		<polygon class="st1" points="16.4,25.8 19.5,25.8 19.5,20.6 		"/>
		<polygon class="st1" points="16.4,31 19.5,31 19.5,25.8 		"/>
		<polygon class="st1" points="19.5,10.2 22.5,10.2 22.5,5 		"/>
		<polygon class="st1" points="22.5,10.2 19.5,15.4 22.5,15.4 		"/>
		<polygon class="st1" points="19.5,20.6 22.5,20.6 22.5,15.4 		"/>
		<polygon class="st1" points="25.5,5 22.5,10.2 25.5,10.2 		"/>
		<polygon class="st1" points="25.5,15.4 25.5,10.2 22.5,15.4 		"/>
		<polygon class="st1" points="28.6,5 25.5,10.2 28.6,10.2 		"/>
		<path class="st1" d="M36,9v18c0,1.8-1.1,3.3-2.7,3.8c-0.2,0.1-0.4,0.1-0.5,0.1C32.5,31,32.2,31,32,31H19.5l3-5.2h-3l2.8-4.7
			l0.3-0.5l3-5.2v5.2l3-5.2h-3l3-5.2l3-5.2v5.2l2.6-4.5C35.3,6.4,36,7.6,36,9z"/>
	</g>
</g>
</svg>
