<?xml version="1.0" encoding="UTF-8"?>
<svg id="a" data-name="레이어 1" xmlns="http://www.w3.org/2000/svg" width="2400" height="1400" viewBox="0 0 2400 1400">
  <rect width="2400" height="1400" fill="#0c0c0c"/>
  <g>
    <polygon points="766.599 1400 929.939 1400 929.939 1120 766.599 1400" fill="#fff"/>
    <polygon points="929.939 1400 1093.279 1400 1093.279 1120 929.939 1400" fill="#fff"/>
    <polygon points="1093.279 840 1256.619 840 1256.619 560 1093.279 840" fill="#fff"/>
    <polygon points="1256.619 840 1093.279 1120 1256.619 1120 1256.619 840" fill="#fff"/>
    <polygon points="1093.279 1400 1256.619 1400 1256.619 1120 1093.279 1400" fill="#fff"/>
    <polygon points="1419.959 560 1256.619 840 1419.959 840 1419.959 560" fill="#fff"/>
    <polygon points="1256.619 1120 1419.959 1120 1419.959 840 1256.619 1120" fill="#fff"/>
    <polygon points="1256.619 1400 1419.959 1400 1419.959 1120 1256.619 1400" fill="#fff"/>
    <polygon points="1419.959 280 1583.3 280 1583.3 0 1419.959 280" fill="#fff"/>
    <polygon points="1583.3 280 1419.959 560 1583.3 560 1583.3 280" fill="#fff"/>
    <polygon points="1419.959 840 1583.3 840 1583.3 560 1419.959 840" fill="#fff"/>
    <polygon points="1746.64 0 1583.3 280 1746.64 280 1746.64 0" fill="#fff"/>
    <polygon points="1746.64 560 1746.64 280 1583.3 560 1746.64 560" fill="#fff"/>
    <polygon points="1909.98 0 1746.64 280 1909.98 280 1909.98 0" fill="#fff"/>
    <polygon points="2236.66 0 2073.32 280 2073.32 0 1909.98 280 1746.64 560 1909.98 560 1746.64 840 1746.64 560 1583.3 840 1419.959 1120 1583.3 1120 1419.959 1400 1583.3 1400 1746.64 1400 1909.98 1400 2073.32 1400 2236.66 1400 2400 1400 2400 1120 2400 840 2400 560 2400 280 2400 0 2236.66 0" fill="#fff"/>
  </g>
</svg>