<?xml version="1.0" encoding="utf-8"?>
<!-- Generator: Adobe Illustrator 26.0.3, SVG Export Plug-In . SVG Version: 6.00 Build 0)  -->
<svg version="1.1" id="레이어_1" xmlns="http://www.w3.org/2000/svg" xmlns:xlink="http://www.w3.org/1999/xlink" x="0px"
	 y="0px" viewBox="0 0 2160 2160" style="enable-background:new 0 0 2160 2160;" xml:space="preserve">
<style type="text/css">
	.st0{fill:#FFFFFF;}
	.st1{fill:#C3C3C3;}
	.st2{fill:none;}
</style>
<path d="M2160,600v960c0,132.6-107.5,240-240,240h-480l-199-397.9l-32.2-64.4c94.4-47.3,159.2-144.9,159.2-257.6
	c0-159.1-128.9-288-288-288c-46.3,0-90.1,10.9-128.8,30.4L919,757.9L720,360h1200C2052.5,360,2160,467.5,2160,600z"/>
<path class="st0" d="M1440,1800H240c-132.5,0-240-107.4-240-240V600c0-132.5,107.5-240,240-240h480l199,397.9l32.2,64.4
	C856.8,869.6,792,967.2,792,1080c0,159.1,128.9,288,288,288c46.3,0,90.1-10.9,128.8-30.4l32.2,64.4L1440,1800z"/>
<path class="st1" d="M1080,720c-57.9,0-112.6,13.7-161,37.9C801,817,720,939.1,720,1080c0,198.8,161.2,360,360,360
	c57.9,0,112.6-13.7,161-37.9c118-59.1,199-181.1,199-322.1C1440,881.2,1278.8,720,1080,720z M1208.8,1337.6
	c-38.8,19.4-82.5,30.4-128.8,30.4c-159.1,0-288-128.9-288-288c0-112.8,64.8-210.4,159.2-257.6c38.8-19.4,82.5-30.4,128.8-30.4
	c159.1,0,288,128.9,288,288C1368,1192.8,1303.2,1290.4,1208.8,1337.6z"/>
<path d="M1208.8,1337.6c-38.8,19.4-82.5,30.4-128.8,30.4c-159.1,0-288-128.9-288-288c0-112.8,64.8-210.4,159.2-257.6L1208.8,1337.6z
	"/>
<path class="st0" d="M1368,1080c0,112.8-64.8,210.4-159.2,257.6L951.2,822.4c38.8-19.4,82.5-30.4,128.8-30.4
	C1239.1,792,1368,920.9,1368,1080z"/>
<g>
	<path class="st2" d="M2160,600v960c0,132.6-107.5,240-240,240H240c-132.5,0-240-107.4-240-240V600c0-132.5,107.5-240,240-240h1680
		C2052.5,360,2160,467.5,2160,600z"/>
</g>
</svg>
