<svg xmlns="http://www.w3.org/2000/svg" width="2160" height="1440" viewBox="0 0 2160 1440">
  <path d="M2160,0V1440H1440l-198.97-397.94-32.21-64.42C1303.21,930.37,1368,832.75,1368,720c0-159.06-128.94-288-288-288a286.631,286.631,0,0,0-128.82,30.36l-32.21-64.42L720,0Z"/>
  <path d="M1440,1440H0V0H720L918.97,397.94l32.21,64.42C856.79,509.63,792,607.25,792,720c0,159.06,128.94,288,288,288a286.631,286.631,0,0,0,128.82-30.36l32.21,64.42Z" fill="#fff"/>
  <path d="M1080,360a358.425,358.425,0,0,0-161.03,37.94C800.99,457.04,720,579.06,720,720c0,198.82,161.18,360,360,360a358.425,358.425,0,0,0,161.03-37.94C1359.01,982.96,1440,860.94,1440,720,1440,521.18,1278.82,360,1080,360Zm128.82,617.64A286.631,286.631,0,0,1,1080,1008c-159.06,0-288-128.94-288-288,0-112.75,64.79-210.37,159.18-257.64A286.631,286.631,0,0,1,1080,432c159.06,0,288,128.94,288,288C1368,832.75,1303.21,930.37,1208.82,977.64Z" fill="#c3c3c3"/>
  <path d="M1208.82,977.64A286.631,286.631,0,0,1,1080,1008c-159.06,0-288-128.94-288-288,0-112.75,64.79-210.37,159.18-257.64Z"/>
  <path d="M1368,720c0,112.75-64.79,210.37-159.18,257.64L951.18,462.36A286.631,286.631,0,0,1,1080,432C1239.06,432,1368,560.94,1368,720Z" fill="#fff"/>
</svg>
