<?xml version="1.0" encoding="UTF-8"?><svg id="a" xmlns="http://www.w3.org/2000/svg" viewBox="0 0 3000 2000"><defs><style>.b{fill:#fff;}.c{fill:#cc2142;}</style></defs><rect class="b" width="3000" height="2000"/><rect class="c" x="0" y="0" width="1000" height="2000" transform="translate(1000 2000) rotate(180)"/><g><path class="c" d="M1499.81,946.17c-29.81,0-53.98,24.11-53.98,53.84s24.17,53.84,53.98,53.84,53.98-24.11,53.98-53.84-24.17-53.84-53.98-53.84Z"/><g><path class="c" d="M1493.36,874.83c0-3.55,2.89-6.43,6.45-6.43s6.45,2.88,6.45,6.43v61.14c9.12,.9,17.66,3.73,25.26,8.02,1.61-2.21,3.33-4.58,5.2-7.14l28.65-39.31c31.19-42.65,60.64-82.93,60.64-160.78s-45.19-129.98-85.75-129.98c-12.3,0-24.45,2.83-40.44,13.72-15.99-10.89-28.14-13.72-40.44-13.72-40.56,0-85.75,53.39-85.75,129.98s29.46,118.13,60.64,160.78l28.64,39.31c1.87,2.56,3.59,4.93,5.2,7.14,7.6-4.29,16.14-7.11,25.25-8.01v-61.14Z"/><path class="c" d="M1436.77,986.33l-58.32-18.9c-3.39-1.1-5.24-4.73-4.14-8.11,1.1-3.38,4.74-5.23,8.13-4.13l58.32,18.9c3.62-8.2,8.92-15.47,15.45-21.45-1.62-2.22-3.35-4.59-5.23-7.18l-28.63-39.32c-31.03-42.76-60.34-83.15-134.58-107.2-73.04-23.67-137.91,2.7-150.45,41.17-3.8,11.67-4.86,24.06,.58,42.6-15.33,11.81-21.77,22.45-25.58,34.12-12.53,38.48,24.41,97.83,97.45,121.51,74.23,24.06,121.75,8.56,172.05-7.84l46.34-15.03c3.02-.97,5.79-1.87,8.38-2.71-.83-4.13-1.28-8.4-1.28-12.77,0-4.69,.53-9.26,1.49-13.67Z"/><path class="c" d="M1431.25,1105.05c-2.09,2.88-6.13,3.51-9.01,1.42-2.88-2.08-3.52-6.11-1.43-8.98l36.07-49.52c-6.61-5.89-11.99-13.1-15.73-21.23-2.61,.85-5.4,1.75-8.43,2.73l-46.34,15.01c-50.37,16.22-97.93,31.55-143.81,94.52-45.14,61.97-40.05,131.65-7.24,155.43,9.96,7.21,21.45,12.04,40.8,12.61,6.53,18.19,14.68,27.59,24.64,34.8,32.81,23.77,100.83,7.08,145.98-54.89,45.88-62.98,45.79-112.83,45.69-165.63v-57.42c-9.09-1.03-17.59-3.97-25.12-8.36l-36.06,49.5Z"/><path class="c" d="M1542.73,1047.97l36.07,49.52c2.1,2.87,1.45,6.9-1.43,8.98-2.88,2.1-6.91,1.46-9-1.42l-36.07-49.51c-7.54,4.4-16.03,7.33-25.12,8.37,0,2.72,0,5.64,0,8.82v48.6c-.11,52.78-.2,102.64,45.68,165.62,45.15,61.97,113.17,78.67,145.98,54.9,9.95-7.22,18.12-16.62,24.63-34.81,19.35-.57,30.85-5.4,40.8-12.61,32.81-23.77,37.91-93.46-7.23-155.43-45.88-62.98-93.45-78.3-143.81-94.52l-46.34-15.01c-3.04-.99-5.83-1.89-8.43-2.73-3.74,8.14-9.12,15.35-15.73,21.24Z"/><path class="c" d="M1889.58,936.3c-1.49,24.23-17.58,52.16-45.98,74.1-12.3,9.52-26.92,17.89-43.66,24.36-3.29,1.27-6.65,2.47-10.1,3.59-74.23,24.06-121.75,8.56-172.05-7.83l-46.34-15.04c-3.01-.97-5.79-1.87-8.38-2.71,.83-4.13,1.27-8.4,1.27-12.77,0-4.7-.53-9.26-1.49-13.67l16.19-5.25,42.13-13.65c.57-.18,1.09-.43,1.56-.75,2.37-1.55,3.5-4.54,2.59-7.35-1.09-3.38-4.74-5.24-8.13-4.14l-58.32,18.9c-3.63-8.2-8.93-15.47-15.45-21.45,1.63-2.22,3.35-4.59,5.23-7.17l28.64-39.32c31.03-42.76,60.34-83.15,134.57-107.2,1.32-.43,2.65-.84,3.96-1.23,26.62-8.01,52.04-9.4,74.09-6.03,37.11,5.65,64.68,24.75,72.4,48.44,3.8,11.67,4.85,24.07-.59,42.6,8.3,6.39,14,12.45,18.07,18.51,3.47,5.14,5.76,10.27,7.5,15.62,1.97,6.04,2.71,12.6,2.3,19.45Z"/></g><path class="c" d="M1542.43,1294.51c-24.72-33.92-36.76-64.68-42.62-93.68-5.87,28.99-17.91,59.76-42.62,93.68-20.67,28.37-47.51,49.68-75.52,61.11,19.58,23.73,45.54,37.62,70.09,37.62,14.63,0,33.36-7.2,48.04-21.06v0c14.69,13.87,33.43,21.06,48.06,21.06,24.55,0,50.51-13.89,70.09-37.62-28.01-11.43-54.84-32.74-75.51-61.11Z"/><path class="c" d="M1892.77,1064.78c-.55,4.22-1.47,8.31-2.75,12.24-2.34,7.16-6.83,14.75-13.07,21.75-5.86,6.58-13.25,12.63-21.86,17.3h-.03l.02,.02c8.69,18.21,9.77,38.2,5.25,52.07-6.43,19.74-22.69,37.37-44.95,49.12-4,2.12-8.2,4.03-12.58,5.75-1.27-16.94-5.63-34.51-12.89-51.69-5.63-13.33-13.01-26.43-22.04-38.82-19.91-27.34-40.41-46.23-61.13-60.13-.17-.11-.33-.22-.5-.33-4.84-3.22-9.68-6.18-14.53-8.91,29.46,3.38,62.51,1.47,102.49-11.49,18.27-5.92,35.09-14.24,49.78-24.33,9.57-6.57,18.25-13.88,25.83-21.78,2.08-2.17,4.09-4.38,6-6.64,1.82,2.85,3.51,5.73,5.05,8.64,1.21,2.28,2.34,4.58,3.37,6.88,7.68,16.99,10.65,34.5,8.54,50.34Z"/><path class="c" d="M1804.96,781.56c-4.9-1.2-9.93-2.15-15.07-2.85-3.75-.52-7.56-.91-11.42-1.16-20.81-1.39-43.01,1.03-64.99,7.46-.14,.04-.28,.08-.41,.12-1.74,.51-3.48,1.05-5.21,1.61-2.14,.69-4.24,1.4-6.31,2.12-36.65,12.74-62.72,29.73-83.38,48.67,7.08-15.43,12.85-32.52,16.48-52.21,1.05-5.62,1.91-11.44,2.57-17.51,1.09-9.72,1.66-20.05,1.66-31.06,0-35.08-9.16-68.05-25.07-93.71,5.11-1.32,10.2-2.3,15.23-2.94,24.32-3.11,47.18,1.68,63.63,13.6,3.23,2.35,6.4,5.31,9.37,8.78,7.9,9.22,14.39,22.02,17.08,36.43l-.02,.03,.03-.02c20.05-2.61,39.44,2.55,51.28,11.12,.56,.4,1.11,.82,1.65,1.24,9.11,7.04,16.66,16.68,22.23,28.12,4.99,10.23,8.4,21.9,9.94,34.42,.31,2.47,.54,4.98,.7,7.51,0,.08,0,.15,.02,.23Z"/><path class="c" d="M1291.77,786.73c39.98,12.95,67.85,30.78,89.69,50.79-12.34-26.9-20.73-58.84-20.73-100.78,0-35.06,9.17-68.03,25.08-93.7-29.83-7.73-59.01-3.73-78.87,10.66-11.83,8.57-22.75,25.38-26.45,45.21l.02,.04-.03-.02c-20.05-2.62-39.45,2.54-51.28,11.11-19.86,14.39-32.68,40.85-34.54,71.52,29.39-7.16,63.66-5.67,97.11,5.18Z"/><path class="c" d="M1232.15,1131.43c24.7-33.92,50.32-54.85,76.15-69.38-29.46,3.39-62.52,1.48-102.5-11.48-33.44-10.84-62.04-29.72-81.6-52.75-16.58,25.91-21.79,54.82-14.21,78.11,4.52,13.87,17.18,29.42,34.93,39.06h0c-8.69,18.22-9.77,38.21-5.25,52.09,7.59,23.29,28.85,43.62,57.53,54.86,2.25-30.1,14.27-62.14,34.94-90.52Z"/></g><rect class="c" x="2000" y="-1.09" width="1000" height="2000" transform="translate(5000 1997.83) rotate(180)"/></svg>