<?xml version="1.0" encoding="utf-8"?>
<!-- Generator: Adobe Illustrator 26.0.1, SVG Export Plug-In . SVG Version: 6.00 Build 0)  -->
<svg version="1.1" id="레이어_1" xmlns="http://www.w3.org/2000/svg" xmlns:xlink="http://www.w3.org/1999/xlink" x="0px"
	 y="0px" viewBox="0 0 36 36" style="enable-background:new 0 0 36 36;" xml:space="preserve">
<style type="text/css">
	.st0{fill:#2C2C2C;}
	.st1{fill:#49AF80;}
	.st2{fill:#FDDE59;}
	.st3{fill:#F7F7F9;}
</style>
<g>
	<path class="st0" d="M34.6,30c-0.7,0.6-1.6,1-2.6,1H4c-1,0-1.9-0.4-2.6-1L18,18L34.6,30z"/>
	<path class="st1" d="M18,18L1.4,30C0.5,29.3,0,28.2,0,27V9c0-1.2,0.5-2.3,1.4-3L18,18z"/>
	<g>
		<path class="st2" d="M36,9v18c0,1.2-0.5,2.3-1.4,3L18,18L34.6,6C35.5,6.7,36,7.8,36,9z"/>
	</g>
	<g>
		<path class="st3" d="M34.6,6L18,18L1.4,6C2.1,5.4,3,5,4,5h28C33,5,33.9,5.4,34.6,6z"/>
	</g>
</g>
</svg>
