<?xml version="1.0" encoding="UTF-8"?>
<svg id="a" data-name="레이어 1" xmlns="http://www.w3.org/2000/svg" width="1440" height="1440" viewBox="0 0 1440 1440">
  <rect x="0" width="1440" height="1440" fill="#fff"/>
  <g>
    <g>
      <polygon points="77.6 829.406 77.6 644.474 133.328 644.474 133.328 414.557 245.772 414.557 245.772 829.406 77.6 829.406" fill="#00a0e9"/>
      <polygon points="459.885 829.406 459.885 926.969 321.152 926.969 321.152 1100.815 245.772 1100.815 245.772 829.406 459.885 829.406" fill="#e4007f"/>
      <rect x="459.885" y="926.893" width="120.861" height="108.801" fill="#231815"/>
      <polygon points="780.312 682.3 780.312 875.517 608.775 875.517 608.775 829.583 459.969 829.583 459.969 759.53 345.305 759.53 345.305 682.3 780.312 682.3" fill="#fff100"/>
    </g>
    <g>
      <g>
        <path d="M516.431,542.476c10.504,0,10.504,10.504,10.504,10.504v66.406c0,10.504-10.504,10.504-10.504,10.504h-26.361c-10.504,0-10.504-10.504-10.504-10.504" fill="none" stroke="#000" stroke-linecap="square" stroke-miterlimit="10" stroke-width="7"/>
        <path d="M398.493,542.476c10.504,0,10.504,10.504,10.504,10.504v66.406c0,10.504-10.504,10.504-10.504,10.504h-26.361c-10.504,0-10.504-10.504-10.504-10.504" fill="none" stroke="#000" stroke-linecap="square" stroke-miterlimit="10" stroke-width="7"/>
        <path d="M457.462,629.889c10.504,0,10.504-10.504,10.504-10.504v-66.406c0-10.504-10.504-10.504-10.504-10.504h-26.361c-10.504,0-10.504,10.504-10.504,10.504" fill="none" stroke="#000" stroke-linecap="square" stroke-miterlimit="10" stroke-width="7"/>
        <path d="M585.904,588.43h-36.865c-10.504,0-10.504-10.504-10.504-10.504v-24.947c0-10.504,10.504-10.504,10.504-10.504h26.361c10.504,0,10.504,10.504,10.504,10.504v66.406c0,10.504-10.504,10.504-10.504,10.504h-26.361c-10.504,0-10.504-10.504-10.504-10.504" fill="none" stroke="#000" stroke-linecap="square" stroke-miterlimit="10" stroke-width="7"/>
        <path d="M1057.656,588.43h-36.865c-10.504,0-10.504-10.504-10.504-10.504v-24.947c0-10.504,10.504-10.504,10.504-10.504h26.361c10.504,0,10.504,10.504,10.504,10.504v66.406c0,10.504-10.504,10.504-10.504,10.504h-26.361c-10.504,0-10.504-10.504-10.504-10.504" fill="none" stroke="#000" stroke-linecap="square" stroke-miterlimit="10" stroke-width="7"/>
        <path d="M644.873,588.43h-36.865c-10.504,0-10.504,10.504-10.504,10.504v20.451c0,10.504,10.504,10.504,10.504,10.504h26.361c10.504,0,10.504-10.504,10.504-10.504v-66.406c0-10.504-10.504-10.504-10.504-10.504h-26.361c-10.504,0-10.504,10.504-10.504,10.504" fill="none" stroke="#000" stroke-linecap="square" stroke-miterlimit="10" stroke-width="7"/>
        <path d="M656.474,552.98s0-10.504,10.504-10.504c10.504,0,26.361,0,26.361,0h0c10.504,0,10.504,10.505,10.504,10.505,0,0,0,55.902,0,66.406,0,10.504-10.504,10.504-10.504,10.504,0,0-15.857,0-26.361,0-10.504,0-10.504-10.504-10.504-10.504" fill="none" stroke="#000" stroke-linecap="square" stroke-miterlimit="10" stroke-width="7"/>
        <path d="M1305.133,552.98s0-10.504,10.504-10.504c10.504,0,26.361,0,26.361,0h0c10.504,0,10.504,10.505,10.504,10.505v66.406c0,10.504-10.504,10.504-10.504,10.504h-26.361c-10.504,0-10.504-10.504-10.504-10.504" fill="none" stroke="#000" stroke-linecap="square" stroke-miterlimit="10" stroke-width="7"/>
        <path d="M892.35,552.98s0-10.504,10.504-10.504c10.504,0,26.361,0,26.361,0h0c10.504,0,10.504,10.505,10.504,10.505,0,0,0,55.902,0,66.406,0,10.504-10.504,10.504-10.504,10.504,0,0-15.857,0-26.361,0-10.504,0-10.504-10.504-10.504-10.504" fill="none" stroke="#000" stroke-linecap="square" stroke-miterlimit="10" stroke-width="7"/>
        <path d="M350.028,619.386s0,10.504-10.504,10.504-26.361,0-26.361,0h0c-10.504,0-10.504-10.505-10.504-10.505,0,0,0-55.902,0-66.406s10.504-10.504,10.504-10.504c0,0,15.857,0,26.361,0s10.504,10.504,10.504,10.504" fill="none" stroke="#000" stroke-linecap="square" stroke-miterlimit="10" stroke-width="7"/>
        <g>
          <path d="M774.412,552.98c0-10.504,10.504-10.504,10.504-10.504h26.361c10.504,0,10.504,10.504,10.504,10.504" fill="none" stroke="#000" stroke-linecap="square" stroke-miterlimit="10" stroke-width="7"/>
          <path d="M821.78,619.386s0,10.504-10.504,10.504c-10.504,0-26.361,0-26.361,0h0c-10.504,0-10.504-10.505-10.504-10.505" fill="none" stroke="#000" stroke-linecap="square" stroke-miterlimit="10" stroke-width="7"/>
        </g>
        <g>
          <path d="M1187.195,552.98c0-10.504,10.504-10.504,10.504-10.504h26.361c10.504,0,10.504,10.504,10.504,10.504" fill="none" stroke="#000" stroke-linecap="square" stroke-miterlimit="10" stroke-width="7"/>
          <path d="M1234.563,619.386s0,10.504-10.504,10.504c-10.504,0-26.361,0-26.361,0h0c-10.504,0-10.504-10.505-10.504-10.505" fill="none" stroke="#000" stroke-linecap="square" stroke-miterlimit="10" stroke-width="7"/>
        </g>
        <g>
          <path d="M725.947,629.889c-10.504,0-10.504-10.504-10.504-10.504v-66.406c0-10.504,10.504-10.504,10.504-10.504h26.361c10.504,0,10.504,10.504,10.504,10.504" fill="none" stroke="#000" stroke-linecap="square" stroke-miterlimit="10" stroke-width="7"/>
          <path d="M752.307,629.889c10.504,0,10.504-10.504,10.504-10.504v-21.318" fill="none" stroke="#000" stroke-linecap="square" stroke-miterlimit="10" stroke-width="7"/>
          <path d="M741.803,629.889c10.504,0,10.504-10.504,10.504-10.504v-21.318" fill="none" stroke="#000" stroke-linecap="square" stroke-miterlimit="10" stroke-width="7"/>
        </g>
        <g>
          <path d="M1138.73,542.475c-10.504,0-10.504,10.504-10.504,10.504v66.407c0,10.504,10.504,10.504,10.504,10.504h26.361c10.504,0,10.504-10.504,10.504-10.504" fill="none" stroke="#000" stroke-linecap="square" stroke-miterlimit="10" stroke-width="7"/>
          <path d="M1165.09,542.475c10.504,0,10.504,10.504,10.504,10.504v45.955" fill="none" stroke="#000" stroke-linecap="square" stroke-miterlimit="10" stroke-width="7"/>
          <path d="M1154.586,542.475c10.504,0,10.504,10.504,10.504,10.504v45.955" fill="none" stroke="#000" stroke-linecap="square" stroke-miterlimit="10" stroke-width="7"/>
        </g>
        <g>
          <path d="M843.885,542.476c-10.504,0-10.504,10.504-10.504,10.504v66.406c0,10.504,10.504,10.504,10.504,10.504h26.361c10.504,0,10.504-10.504,10.504-10.504" fill="none" stroke="#000" stroke-linecap="square" stroke-miterlimit="10" stroke-width="7"/>
          <path d="M880.749,552.98c0-10.504-10.504-10.504-10.504-10.504h-13.18" fill="none" stroke="#000" stroke-linecap="square" stroke-miterlimit="10" stroke-width="7"/>
        </g>
        <g>
          <path d="M1256.668,542.476c-10.504,0-10.504,10.504-10.504,10.504v66.406c0,10.504,10.504,10.504,10.504,10.504h26.361c10.504,0,10.504-10.504,10.504-10.504" fill="none" stroke="#000" stroke-linecap="square" stroke-miterlimit="10" stroke-width="7"/>
          <path d="M1293.532,552.98c0-10.504-10.504-10.504-10.504-10.504h-13.18" fill="none" stroke="#000" stroke-linecap="square" stroke-miterlimit="10" stroke-width="7"/>
        </g>
        <g>
          <path d="M1079.761,629.89c-10.504,0-10.504-10.504-10.504-10.504v-66.407c0-10.504,10.504-10.504,10.504-10.504h26.361c10.504,0,10.504,10.504,10.504,10.504" fill="none" stroke="#000" stroke-linecap="square" stroke-miterlimit="10" stroke-width="7"/>
          <path d="M1116.625,619.386c0,10.504-10.504,10.504-10.504,10.504h-13.18" fill="none" stroke="#000" stroke-linecap="square" stroke-miterlimit="10" stroke-width="7"/>
        </g>
        <path d="M961.823,542.476c-10.504,0-10.504,10.504-10.504,10.504v66.406s0,10.504,10.504,10.504h26.361s10.504,0,10.504-10.504v-66.406s0-10.504-10.504-10.504" fill="none" stroke="#000" stroke-linecap="square" stroke-miterlimit="10" stroke-width="7"/>
      </g>
      <g>
        <path d="M379.122,375.587v72.33c0,22.423-16.837,38.883-41.677,38.807-24.839,.076-41.676-16.459-41.676-38.807v-72.33h10.721v71.575c0,17.063,12.231,29.521,30.955,29.596,18.8-.075,30.88-12.533,30.956-29.596v-71.575h10.721Z"/>
        <path d="M406.81,375.587l39.109,93.922h1.057l38.958-93.922h12.684v109.325h-10.268v-87.127h-.906l-36.24,87.127h-9.664l-36.24-87.127h-.906v87.127h-10.117v-109.325h12.533Z"/>
        <path d="M556.208,384.194c-20.989,0-36.769,16.912-36.693,46.056-.076,29.067,15.628,46.055,37.448,46.055,19.479,0,33.296-13.439,33.522-35.183h-31.257v-9.513h41.676v9.362c.075,27.936-18.347,45.451-43.941,45.451-28.841,0-48.019-21.895-48.019-56.172s19.404-56.173,47.264-56.173c23.707,0,40.393,16.082,44.092,35.637h-11.174c-4.001-14.27-15.402-25.52-32.918-25.52Z"/>
        <path d="M736.911,379.211c-.076,10.344-.076,23.254-3.7,41.072h20.159v8.003h-122.009v-8.003h92.262c3.851-17.969,3.851-30.88,3.774-41.072v-1.208h-80.333v-8.003h89.846v9.211Zm-92.564,70.367h93.621v47.565h-9.513v-39.713h-84.108v-7.852Z"/>
        <path d="M837.535,459.997l-5.436,7.55c-15.402-7.172-29.974-23.027-36.165-41.978-6.267,19.932-20.763,37.599-35.712,45.3l-5.737-7.55c18.12-8.909,36.467-34.277,36.542-57.38v-20.385h-32.466v-8.154h74.896v8.154h-32.918v20.385c0,22.877,18.271,45.829,36.995,54.059Zm16.46-96.49h9.513v133.183h-9.513v-133.183Z"/>
        <path d="M986.782,462.413h-9.514v-37.6h-35.787c-6.04,8.305-16.081,13.288-27.935,13.288-19.857,0-34.354-13.514-34.277-32.918-.076-19.404,14.42-32.918,34.277-33.069,11.702,.076,21.668,4.983,27.708,13.137h36.014v-21.744h9.514v98.906Zm-73.235-32.768c14.193,0,24.915-10.419,24.915-24.462,0-13.968-10.722-24.387-24.915-24.462-14.647,.075-25.142,10.494-25.218,24.462,.076,14.043,10.57,24.462,25.218,24.462Zm-11.325,22.197h9.513v33.673h78.974v8.003h-88.486v-41.676Zm45.451-46.659c0,4.152-.68,8.079-1.963,11.627h31.559v-23.556h-31.635c1.284,3.624,2.039,7.625,2.039,11.929Z"/>
        <path d="M1104.62,384.043c-.075,12.608-.075,26.5-4.001,45.753h20.611v8.154h-56.173v58.891h-9.361v-58.891h-55.871v-8.154h91.054c4.229-19.177,4.229-33.371,4.229-45.753v-3.624h-79.578v-8.003h89.091v11.627Z"/>
        <path d="M1244.655,479.627h-122.009v-8.305h55.72v-32.768h-44.395v-7.852h21.744v-45.753h-21.895v-8.003h98.604v8.003h-21.896v45.753h21.744v7.852h-44.545v32.768h56.927v8.305Zm-43.488-48.924v-45.753h-35.938v45.753h35.938Z"/>
        <path d="M1251.056,370.302h58.89v35.788h-49.226v21.593h.452c22.122,.076,39.261-.679,60.4-4.077l.906,8.154c-21.518,3.322-38.808,4.001-61.307,3.926h-9.814v-37.146h49.377v-20.083h-49.679v-8.154Zm104.19,124.425h-86.826v-44.998h86.826v44.998Zm-9.362-7.852v-29.596h-68.102v29.596h68.102Zm-26.878-92.714h26.727v-30.653h9.514v78.218h-9.514v-39.411h-26.727v-8.154Z"/>
      </g>
    </g>
  </g>
</svg>