<?xml version="1.0" encoding="UTF-8"?>
<svg id="a" data-name="레이어 1" xmlns="http://www.w3.org/2000/svg" width="600" height="350" xmlns:xlink="http://www.w3.org/1999/xlink" viewBox="0 0 600 350">
  <defs>
    <clipPath id="b">
      <rect width="600" height="175" fill="none"/>
    </clipPath>
  </defs>
  <rect width="600" height="350" fill="#fff"/>
  <g>
    <path d="m171.297,112.587c4.872,1.453,9.745,2.907,14.618,4.36,2.828.843,5.663,1.689,8.57,2.2,11.241,1.977,24.273-.701,32.99,6.668,1.89,1.598,3.428,3.583,5.346,5.149,7.173,5.859,18.103,4.808,25.592,10.258,4.816,3.505,7.603,9.618,7.092,15.553-.671,7.789-7.078,10.446-9.995,16.747-.315.681-.531,1.33-.699,1.964-.262.671-.458,1.363-.515,2.096-.379,4.498,3.764,7.751,7.782,10.079.063.037.126.072.19.108.313.179.628.365.936.533,2.589,1.398,5.438,2.848,8.338,2.279.666-.132,1.273-.385,1.857-.683,2.857-1.446,4.913-4.53,7.722-6.296,2.901-1.825,6.537-2.104,9.924-1.459.328.063.656.124.979.204,5.748,1.424,8.933,3.599,11.497,7.975,2.589,4.454,5.205,8.674,9.167,12.248,1.632,1.476,3.495,2.952,4.014,5.075.362,1.476,0,3.159.803,4.454.984,1.631,3.21,1.864,5.127,1.916,4.194.104,8.416.207,12.61.311,12.248.311,23.123,7.224,35.216,8.908,6.059.828,12.403.777,17.867,3.47,5.49,2.667,9.684,9.425,6.991,14.889,7.276.078,12.351,7.017,16.21,13.206,1.994,3.185,4.35,6.189,6.473,9.244,6.681-14.993,10.927-30.814,13.62-47.075-4.143-3.237-7.535-7.457-11.963-10.254-4.92-3.081-11.29-2.797-16.521-5.334-1.657-.803-3.237-1.968-3.936-3.651-1.165-2.926.699-6.163.596-9.296-.155-3.806-3.133-6.862-4.298-10.487-1.787-5.541.803-11.782-.958-17.323-1.372-4.246-5.127-7.613-5.645-12.041-.156-1.372,0-2.771-.544-4.014-.466-1.088-1.398-1.89-2.33-2.589-6.241-4.687-14.035-6.629-21.337-9.348-7.318-2.715-14.763-6.8-18.11-13.851-.003-.006-.001-.012-.004-.018-.059-.126-.132-.249-.193-.375-.403-.841-.835-1.675-1.286-2.502-.116-.212-.228-.424-.348-.635-.539-.957-1.113-1.896-1.718-2.816-.069-.104-.14-.207-.209-.311-4.103-6.127-9.692-11.186-16.934-12.855-.085-.02-.161-.058-.245-.077-3.48-.788-8.082-2.699-11.602-2.456-1.988.137-3.971,2.092-5.898,2.706-3.203,1.02-6.506.921-9.823.742-.631-.034-1.271-.07-1.87-.273-.593-.201-1.118-.557-1.658-.874-3.017-1.773-5.805-1.744-9.145-1.787-3.468-.045-7.139-1.499-10.547-2.421-7.534-2.038-15.067-4.076-22.601-6.114-5.229-1.415-10.545-2.841-15.961-2.747-17.894.31-32.667,16.839-50.558,16.395-3.61-.09-7.257-.884-10.798-.175-3.541.709-7.056,3.616-6.773,7.216.069.885.394,1.79,1.073,2.361.515.433,1.18.635,1.824.827Z" fill="#fdde59"/>
    <polygon points="194.117 194.945 200.192 213.642 219.851 213.642 203.947 225.198 210.022 243.894 194.117 232.339 178.213 243.894 184.288 225.198 168.383 213.642 188.042 213.642 194.117 194.945" fill="#fdde59"/>
  </g>
  <rect width="600" height="175" fill="#fdde59"/>
  <g clip-path="url(#b)">
    <g>
      <path d="m171.297,112.587c4.872,1.453,9.745,2.907,14.618,4.36,2.828.843,5.663,1.689,8.57,2.2,11.241,1.977,24.273-.701,32.99,6.668,1.89,1.598,3.428,3.583,5.346,5.149,7.173,5.859,18.103,4.808,25.592,10.258,4.816,3.505,7.603,9.618,7.092,15.553-.671,7.789-7.078,10.446-9.995,16.747-.315.681-.531,1.33-.699,1.964-.262.671-.458,1.363-.515,2.096-.379,4.498,3.764,7.751,7.782,10.079.063.037.126.072.19.108.313.179.628.365.936.533,2.589,1.398,5.438,2.848,8.338,2.279.666-.132,1.273-.385,1.857-.683,2.857-1.446,4.913-4.53,7.722-6.296,2.901-1.825,6.537-2.104,9.924-1.459.328.063.656.124.979.204,5.748,1.424,8.933,3.599,11.497,7.975,2.589,4.454,5.205,8.674,9.167,12.248,1.632,1.476,3.495,2.952,4.014,5.075.362,1.476,0,3.159.803,4.454.984,1.631,3.21,1.864,5.127,1.916,4.194.104,8.416.207,12.61.311,12.248.311,23.123,7.224,35.216,8.908,6.059.828,12.403.777,17.867,3.47,5.49,2.667,9.684,9.425,6.991,14.889,7.276.078,12.351,7.017,16.21,13.206,1.994,3.185,4.35,6.189,6.473,9.244,6.681-14.993,10.927-30.814,13.62-47.075-4.143-3.237-7.535-7.457-11.963-10.254-4.92-3.081-11.29-2.797-16.521-5.334-1.657-.803-3.237-1.968-3.936-3.651-1.165-2.926.699-6.163.596-9.296-.155-3.806-3.133-6.862-4.298-10.487-1.787-5.541.803-11.782-.958-17.323-1.372-4.246-5.127-7.613-5.645-12.041-.156-1.372,0-2.771-.544-4.014-.466-1.088-1.398-1.89-2.33-2.589-6.241-4.687-14.035-6.629-21.337-9.348-7.318-2.715-14.763-6.8-18.11-13.851-.003-.006-.001-.012-.004-.018-.059-.126-.132-.249-.193-.375-.403-.841-.835-1.675-1.286-2.502-.116-.212-.228-.424-.348-.635-.539-.957-1.113-1.896-1.718-2.816-.069-.104-.14-.207-.209-.311-4.103-6.127-9.692-11.186-16.934-12.855-.085-.02-.161-.058-.245-.077-3.48-.788-8.082-2.699-11.602-2.456-1.988.137-3.971,2.092-5.898,2.706-3.203,1.02-6.506.921-9.823.742-.631-.034-1.271-.07-1.87-.273-.593-.201-1.118-.557-1.658-.874-3.017-1.773-5.805-1.744-9.145-1.787-3.468-.045-7.139-1.499-10.547-2.421-7.534-2.038-15.067-4.076-22.601-6.114-5.229-1.415-10.545-2.841-15.961-2.747-17.894.31-32.667,16.839-50.558,16.395-3.61-.09-7.257-.884-10.798-.175-3.541.709-7.056,3.616-6.773,7.216.069.885.394,1.79,1.073,2.361.515.433,1.18.635,1.824.827Z" fill="#fff"/>
      <polygon points="194.117 194.945 200.192 213.642 219.851 213.642 203.947 225.198 210.022 243.894 194.117 232.339 178.213 243.894 184.288 225.198 168.383 213.642 188.042 213.642 194.117 194.945" fill="#fff"/>
    </g>
  </g>
</svg>