<?xml version="1.0" encoding="UTF-8"?>
<svg id="a" data-name="레이어 1" xmlns="http://www.w3.org/2000/svg" width="15" height="15" viewBox="0 0 15 15">
  <path d="M8.058,12h-4.002v-1h4.002c.967,0,1.666,0,1.832-.166.166-.166.166-.864.166-1.832l-.024-1.002h-3.587c-.734,0-1.429-.321-1.905-.881s-.681-1.301-.562-2.035c.194-1.188,1.3-2.084,2.573-2.084h4.504v6.002c0,2.773-.224,2.998-2.998,2.998ZM6.551,4c-.789,0-1.471.535-1.586,1.245-.073.45.046.886.336,1.227.286.336.703.529,1.143.529h3.611v-3h-3.504Z" fill="#000" stroke-width="0"/>
</svg>