<?xml version="1.0" encoding="UTF-8"?>
<svg id="a" data-name="레이어 1" xmlns="http://www.w3.org/2000/svg" width="15" height="15" viewBox="0 0 15 15">
  <rect x="3.519" y="3" width="8.37" height="1" fill="#000" stroke-width="0"/>
  <path d="M10.853,12.157l-.198-.459c-.03-.067-.621-1.365-2.083-1.909-.21,1.421-.983,2.312-3.184,2.312-1.98,0-2.276-.976-2.276-1.558,0-1.786,2.337-1.992,4.096-1.992.145,0,.286.006.423.017-.093-1.156-1.063-2.068-2.243-2.068h-1.207l3.483-3.483.707.707-1.946,1.946c1.285.434,2.212,1.65,2.212,3.08v.004c2.076.618,2.895,2.454,2.935,2.548l.198.459-.918.396ZM7.207,9.552c-2.054,0-3.096.334-3.096.992,0,.37.429.558,1.276.558,1.572,0,2.081-.417,2.211-1.532-.125-.012-.256-.018-.391-.018Z" fill="#000" stroke-width="0"/>
</svg>