<?xml version="1.0" encoding="UTF-8"?>
<svg id="a" data-name="레이어 1" xmlns="http://www.w3.org/2000/svg" width="15" height="15" viewBox="0 0 15 15">
  <path d="M7.334,12.044c-1.664,0-2.854-1.175-2.961-2.923l-.029-.47,5.222-.639c-.205-1.07-.916-1.556-2.231-1.556-.918,0-1.537.237-1.894.725l-.295.404-.807-.59.295-.404c.55-.753,1.458-1.135,2.7-1.135,2.155,0,3.294,1.139,3.294,3.293,0,2.186-1.108,3.294-3.294,3.294ZM5.439,9.525c.188.798.757,1.519,1.895,1.519,1.539,0,2.217-.593,2.288-2.031l-4.183.513Z" fill="#000" stroke-width="0"/>
</svg>