<?xml version="1.0" encoding="UTF-8"?>
<svg id="a" data-name="레이어 1" xmlns="http://www.w3.org/2000/svg" width="15" height="15" viewBox="0 0 15 15">
  <rect x="3.702" y="3" width="8.13" height="1" fill="#000" stroke-width="0"/>
  <path d="M5.443,12.102c-1.98,0-2.276-.976-2.276-1.558,0-1.277,1.554-2.701,3.784-2.701.185,0,.37.002.554.007-.348-.794-1.142-1.35-2.062-1.35h-1.207l3.483-3.483.707.707-1.946,1.946c1.019.344,1.813,1.18,2.098,2.225,1.412.084,2.547.243,2.612.252l.495.069-.14.99-.495-.069c-.015-.002-1.052-.146-2.359-.232-.029,1.926-.622,3.197-3.249,3.197ZM6.952,8.843c-1.801,0-2.784,1.124-2.784,1.701,0,.37.429.558,1.276.558,1.871,0,2.235-.591,2.25-2.246-.246-.008-.494-.013-.741-.013Z" fill="#000" stroke-width="0"/>
  <path d="M11.769,12h-.5c-.817,0-2.362-.386-2.362-1.848,0-1.445,1.344-1.887,2.055-1.918l.5-.021.044.999-.498.021c-.116.007-1.101.086-1.101.919,0,.838,1.349.848,1.362.848h.5v1Z" fill="#000" stroke-width="0"/>
</svg>