<?xml version="1.0" encoding="UTF-8"?>
<svg id="a" data-name="레이어 1" xmlns="http://www.w3.org/2000/svg" width="15" height="15" viewBox="0 0 15 15">
  <rect x="3.013" y="3" width="9.235" height="1" fill="#000" stroke-width="0"/>
  <path d="M4.753,12.102c-1.98,0-2.276-.976-2.276-1.558,0-.897.496-2.402,3.817-2.402.224,0,.437.016.638.047-.25-.97-1.132-1.688-2.179-1.688h-1.207l3.483-3.483.707.707-1.946,1.946c1.228.415,2.129,1.544,2.207,2.891.216.131.409.291.578.481.889,1.004.723,2.457.715,2.519l-.06.494-.989-.118.057-.495c0-.01.101-.943-.368-1.605-.22,1.394-1,2.266-3.177,2.266ZM6.295,9.142c-1.87,0-2.817.472-2.817,1.402,0,.37.429.558,1.276.558,1.726,0,2.17-.503,2.239-1.881-.208-.053-.441-.079-.698-.079Z" fill="#000" stroke-width="0"/>
  <path d="M11.616,12.077l-.086-.491c-.057-.325-.393-1.538-.989-1.538-.744,0-1.137,1.219-1.141,1.231l-.146.477-.955-.286.143-.479c.023-.079.598-1.943,2.098-1.943,1.236,0,1.823,1.488,1.974,2.367l.085.492-.984.17Z" fill="#000" stroke-width="0"/>
  <rect x="9.438" y="3" width="1" height="5.032" fill="#000" stroke-width="0"/>
</svg>