<?xml version="1.0" encoding="UTF-8"?>
<svg id="a" data-name="레이어 1" xmlns="http://www.w3.org/2000/svg" width="15" height="15" viewBox="0 0 15 15">
  <path d="M11.436,5.587h-.455c-.093-1.712-.585-2.687-2.278-2.687-1.846,0-2.264,1.026-2.291,2.687h-1.344c.073-1.312.18-1.996.182-2.006l.08-.493-.986-.162-.081.493c-.007.043-.121.774-.197,2.168h-.503v1h.462c-.015.475-.025.986-.025,1.57,0,1.57,0,3.942,3.5,3.942s3.5-1.779,3.5-3.5v-2.012h.436v-1ZM8.704,3.9c.751,0,1.184.088,1.277,1.687h-2.568c.026-1.606.402-1.687,1.291-1.687ZM7.5,11.1c-2.5,0-2.5-1.234-2.5-2.942,0-.584.011-1.096.026-1.57h1.395c.034.719.162,1.331.642,1.758.545.482,1.439.626,2.907.45l.031-.003c-.003,1.628-.093,2.307-2.5,2.307ZM10,7.786l-.148.018c-1.108.131-1.825.062-2.125-.205-.207-.184-.275-.548-.301-1.011h2.573v1.198Z" fill="#000" stroke-width="0"/>
</svg>