<?xml version="1.0" encoding="UTF-8"?>
<svg id="a" data-name="레이어 1" xmlns="http://www.w3.org/2000/svg" width="15" height="15" viewBox="0 0 15 15">
  <path d="M7.666,12.044c-2.155,0-3.294-1.139-3.294-3.294,0-2.186,1.108-3.293,3.294-3.293,1.664,0,2.854,1.174,2.961,2.922l.029.47-5.222.639c.205,1.07.916,1.557,2.231,1.557.918,0,1.537-.237,1.893-.726l.295-.403.808.589-.294.404c-.551.754-1.459,1.136-2.701,1.136ZM7.666,6.457c-1.539,0-2.217.593-2.288,2.031l4.183-.512c-.188-.798-.756-1.519-1.895-1.519Z" fill="#000" stroke-width="0"/>
</svg>