<svg xmlns="http://www.w3.org/2000/svg" width="2.5in" height="3.5in" viewBox="0 0 180 252">
  <rect width="1818" height="1116" fill="#fff"/>
  <g>
    <g>
      <rect x="13.5" y="13.5" width="153" height="225" fill="none" stroke="#811b2b" stroke-miterlimit="10" stroke-width="5"/>
      <rect x="18" y="18" width="144" height="216" fill="none" stroke="#811b2b" stroke-miterlimit="10"/>
    </g>
    <g>
      <path d="M81.629,33.132v-.971h1.3v.971h-1.3Z" fill="#231815"/>
      <path d="M89.345,35.67V29.625h1.3V35.67h-1.3Z" fill="#231815"/>
      <path d="M97.061,33.132v-.971h1.3v.971h-1.3Z" fill="#231815"/>
    </g>
    <g>
      <g>
        <g>
          <path d="M40.622,190.734a.507.507,0,0,1,.147.357v10.331a.5.5,0,0,1-.5.5H38.831a.5.5,0,0,1-.5-.5v-8.513a.5.5,0,0,0-.5-.5h-5.4a.5.5,0,0,1-.5-.5v-.816a.5.5,0,0,1,.5-.5h7.837A.507.507,0,0,1,40.622,190.734Z" fill="#231815"/>
          <path d="M43.542,192.41v-1.823h8.847v1.823H43.542Zm0,9.521v-1.825h8.847v1.825H43.542Z" fill="#231815"/>
          <path d="M63.523,192.408h-5.4a.5.5,0,0,0-.5.5v8.52a.5.5,0,0,1-.5.5h-1.44a.5.5,0,0,1-.5-.5V191.087a.5.5,0,0,1,.5-.5h7.844a.5.5,0,0,1,.5.5v.822A.5.5,0,0,1,63.523,192.408ZM59.6,201.931v-1.825h4.426v1.825H59.6Z" fill="#231815"/>
          <path d="M75.783,200.608v.821a.5.5,0,0,1-.5.5H67.444a.5.5,0,0,1-.5-.5V191.088a.5.5,0,0,1,.5-.5h1.433a.5.5,0,0,1,.5.5V199.6a.5.5,0,0,0,.5.5h5.4A.5.5,0,0,1,75.783,200.608Zm-5.427-3.377v-6.646h2.437v6.646H70.356Zm2.843,0v-6.646h2.437v6.646H73.2Z" fill="#231815"/>
          <path d="M85.355,190.733a.5.5,0,0,1,.148.356v10.339a.5.5,0,0,1-.5.5H83.564a.5.5,0,0,1-.5-.5V197.67a.5.5,0,0,0-.5-.5h-5.4a.5.5,0,0,1-.5-.5v-.818a.5.5,0,0,1,.5-.5h5.4a.5.5,0,0,0,.5-.5v-3.753a.5.5,0,0,1,.5-.5H85A.5.5,0,0,1,85.355,190.733Z" fill="#231815"/>
          <path d="M98.023,200.253a.5.5,0,0,1,.148.357v.817a.5.5,0,0,1-.5.5H89.835a.5.5,0,0,1-.5-.5V191.091a.5.5,0,0,1,.5-.5h1.429a.5.5,0,0,1,.5.5V199.6a.5.5,0,0,0,.5.5h5.4A.5.5,0,0,1,98.023,200.253Zm-4.275-7.843v-1.823h4.426v1.823H93.748Z" fill="#231815"/>
          <path d="M108.806,200.609v.819a.5.5,0,0,1-.5.5h-7.842a.5.5,0,0,1-.5-.5v-.819a.5.5,0,0,1,.5-.5h2.2a.5.5,0,0,0,.5-.5v-8.515a.5.5,0,0,1,.5-.5H105.1a.5.5,0,0,1,.5.5V199.6a.5.5,0,0,0,.5.5h2.2A.5.5,0,0,1,108.806,200.609Z" fill="#231815"/>
          <path d="M118.034,190.733a.5.5,0,0,1,.148.356v10.339a.5.5,0,0,1-.5.5h-1.437a.5.5,0,0,1-.5-.5V197.67a.5.5,0,0,0-.5-.5h-5.4a.5.5,0,0,1-.5-.5v-.818a.5.5,0,0,1,.5-.5h5.4a.5.5,0,0,0,.5-.5v-3.753a.5.5,0,0,1,.5-.5h1.434A.5.5,0,0,1,118.034,190.733Z" fill="#231815"/>
          <path d="M130.862,200.608v.821a.5.5,0,0,1-.5.5h-7.837a.5.5,0,0,1-.5-.5V191.088a.5.5,0,0,1,.5-.5h1.434a.5.5,0,0,1,.5.5V199.6a.5.5,0,0,0,.5.5h5.4A.5.5,0,0,1,130.862,200.608Zm-5.426-3.377v-6.646h2.436v6.646h-2.436Zm2.843,0v-6.646h2.437v6.646h-2.437Z" fill="#231815"/>
          <path d="M133.923,201.931V190.585h2.441v11.346h-2.441Z" fill="#231815"/>
          <path d="M148.868,200.253a.506.506,0,0,1,.148.357v.817a.5.5,0,0,1-.5.5H140.68a.5.5,0,0,1-.5-.5V191.091a.5.5,0,0,1,.5-.5h1.428a.5.5,0,0,1,.5.5V199.6a.5.5,0,0,0,.5.5h5.4A.5.5,0,0,1,148.868,200.253Z" fill="#231815"/>
        </g>
        <g>
          <path d="M72.833,211.767c-.6,0-1.039.469-1.036,1.31s.428,1.32,1.052,1.32a.853.853,0,0,0,.934-.872h-.867v-.531h1.517v.449A1.484,1.484,0,0,1,72.849,215a1.93,1.93,0,0,1-.02-3.837,1.508,1.508,0,0,1,1.572,1.242h-.685A.864.864,0,0,0,72.833,211.767Z" fill="#231815"/>
          <path d="M75.03,211.215h2.429v.562H75.7V212.8h1.63v.561H75.7v1.022H77.47v.567H75.03Z" fill="#231815"/>
          <path d="M79.421,211.736c-.425,0-.678.2-.681.485,0,.314.33.443.64.515l.35.093c.558.129,1.094.423,1.094,1.073s-.518,1.1-1.413,1.1c-.869,0-1.421-.418-1.45-1.155h.661c.03.389.358.58.784.583s.745-.217.747-.537c0-.293-.27-.418-.675-.521l-.423-.108c-.614-.16-1-.469-1-1.006,0-.66.585-1.1,1.371-1.1s1.331.445,1.341,1.077h-.645C80.094,211.919,79.823,211.733,79.421,211.736Z" fill="#231815"/>
          <path d="M81.372,211.215h.67V212.8H83.78v-1.584h.676v3.734H83.78V213.36H82.042v1.589h-.67Z" fill="#231815"/>
          <path d="M84.971,211.215h2.976v.562H86.8v3.172h-.671v-3.172H84.971Z" fill="#231815"/>
          <path d="M87.771,214.949l1.315-3.734h.826l1.32,3.734h-.717l-.312-.923H88.8l-.309.923Zm2.251-1.465-.508-1.5h-.031l-.505,1.5Z" fill="#231815"/>
          <path d="M91.666,211.215h.67v3.167h1.65v.567h-2.32Z" fill="#231815"/>
          <path d="M97.547,211.215v2.439a1.526,1.526,0,0,1-3.032,0v-2.439h.67V213.6a.844.844,0,0,0,1.686,0v-2.383Z" fill="#231815"/>
          <path d="M97.985,214.949l1.315-3.734h.825l1.32,3.734h-.716l-.312-.923H99.012l-.31.923Zm2.251-1.465-.507-1.5H99.7l-.506,1.5Z" fill="#231815"/>
          <path d="M101.265,211.215h2.975v.562h-1.15v3.172h-.67v-3.172h-1.155Z" fill="#231815"/>
          <path d="M105.427,214.949h-.67v-3.734h.67Z" fill="#231815"/>
          <path d="M109.188,214.949h-.6l-1.77-2.553h-.031v2.553h-.67v-3.734h.609l1.758,2.554h.036v-2.554h.665Z" fill="#231815"/>
        </g>
        <line x1="31.215" y1="205.031" x2="149.178" y2="205.031" fill="none" stroke="#231815" stroke-miterlimit="10"/>
      </g>
      <g>
        <path d="M86.456,223.228a.328.328,0,0,1-.236.228.694.694,0,0,1-.23.038.541.541,0,0,1-.349-.111c-.238-.2.086-.722.1-.743a.01.01,0,0,1,.014,0l.005.007,0,.007s-.328.525-.1.716a.6.6,0,0,0,.558.071.309.309,0,0,0,.222-.213.682.682,0,0,0-.076-.521.154.154,0,0,0-.136-.048.242.242,0,0,0-.193.137c-.042.087-.08.286.136.638v.01l-.01.006-.009,0c-.221-.361-.18-.567-.136-.658a.256.256,0,0,1,.208-.148.174.174,0,0,1,.155.054A.705.705,0,0,1,86.456,223.228Z" fill="#231815"/>
        <path d="M86.644,223.479a.012.012,0,0,1-.011.008h0a.008.008,0,0,1-.007-.011,4.4,4.4,0,0,0,.013-.824l0-.007.007,0h0a.009.009,0,0,1,.01.009A4.2,4.2,0,0,1,86.644,223.479Z" fill="#231815"/>
        <path d="M87.736,223.228a.327.327,0,0,1-.235.228.694.694,0,0,1-.23.038.54.54,0,0,1-.349-.111c-.238-.2.086-.722.1-.743a.01.01,0,0,1,.014,0l0,.007v.007s-.329.525-.1.716a.6.6,0,0,0,.558.071.307.307,0,0,0,.222-.213.682.682,0,0,0-.076-.521.155.155,0,0,0-.136-.048.242.242,0,0,0-.193.137c-.042.087-.08.286.136.638v.01l-.009.006-.009,0c-.221-.361-.18-.567-.137-.658a.259.259,0,0,1,.209-.148.171.171,0,0,1,.154.054A.7.7,0,0,1,87.736,223.228Z" fill="#231815"/>
        <path d="M88.462,223.362a.469.469,0,0,1-.32.09,2.058,2.058,0,0,1-.35-.037l-.008-.007,0-.01.01,0c.344.06.545.045.653-.048a.351.351,0,0,0,.095-.294.468.468,0,0,0-.279-.419.232.232,0,0,0-.246.015.156.156,0,0,0-.063.122.163.163,0,0,0,.062.11l0,.007,0,.008a.014.014,0,0,1-.015,0,.183.183,0,0,1-.07-.125.178.178,0,0,1,.069-.138.251.251,0,0,1,.268-.02.49.49,0,0,1,.292.438A.363.363,0,0,1,88.462,223.362Z" fill="#231815"/>
        <path d="M90.267,224.05a.793.793,0,0,1-.6.244.769.769,0,0,1-.462-.141.009.009,0,0,1,0-.014.009.009,0,0,1,.014,0,.831.831,0,0,0,1.037-.1c.128-.162.07-.375,0-.62-.029-.1-.054-.208-.073-.313-.1.269-.285.384-.427.373a.279.279,0,0,1-.238-.224.623.623,0,0,1-.444.23.286.286,0,0,1-.338-.229.6.6,0,0,1,.2-.617.009.009,0,0,1,.014,0,.009.009,0,0,1,0,.013.583.583,0,0,0-.2.6.268.268,0,0,0,.317.213.607.607,0,0,0,.437-.237.622.622,0,0,1-.014-.095c-.021-.264-.012-.442.023-.463a.017.017,0,0,1,.019,0,.776.776,0,0,1,.043.419.3.3,0,0,1-.048.143.265.265,0,0,0,.224.226c.141.011.325-.11.419-.4,0-.026-.006-.052-.008-.079a.6.6,0,0,1,.066-.405.018.018,0,0,1,.021,0c.032.025.02.171-.032.393-.008.032-.016.063-.026.092a2.757,2.757,0,0,0,.08.349C90.342,223.662,90.4,223.879,90.267,224.05Zm-.754-.92a.562.562,0,0,0,.01.07.285.285,0,0,0,.034-.114.816.816,0,0,0-.032-.4,1.076,1.076,0,0,0-.012.443Zm.675-.119.012-.046c.066-.285.049-.365.04-.371a.63.63,0,0,0-.055.386Z" fill="#231815"/>
        <path d="M91.074,223.362a.469.469,0,0,1-.32.09,2.046,2.046,0,0,1-.349-.037l-.008-.007v-.01l.011,0c.343.06.544.045.652-.048a.351.351,0,0,0,.095-.294.469.469,0,0,0-.28-.419.233.233,0,0,0-.246.015.158.158,0,0,0-.062.122.171.171,0,0,0,.062.11l0,.007,0,.008a.012.012,0,0,1-.014,0,.184.184,0,0,1-.071-.125.179.179,0,0,1,.07-.138.251.251,0,0,1,.268-.02.491.491,0,0,1,.292.438A.369.369,0,0,1,91.074,223.362Z" fill="#231815"/>
        <path d="M91.349,223.479a.011.011,0,0,1-.01.008h0a.011.011,0,0,1-.008-.011,4.251,4.251,0,0,0,.014-.824l0-.007.007,0h0a.01.01,0,0,1,.009.009A4.285,4.285,0,0,1,91.349,223.479Z" fill="#231815"/>
        <path d="M92.36,223.41l0,.007a.011.011,0,0,1-.009.012l-.042,0-.008,0-.011,0c-.109.011-.22.017-.331.018a.67.67,0,0,1-.373-.072.172.172,0,0,1-.064-.182c.033-.1.163-.161.359-.177a.391.391,0,0,1,.354.215c-.005-.036-.009-.074-.012-.113a.771.771,0,0,0-.138-.453c-.159-.152-.511.037-.514.039a.01.01,0,0,1-.014,0,.011.011,0,0,1,0-.015c.015-.007.369-.2.539-.035a.782.782,0,0,1,.143.466c.006.06.012.117.022.168a.515.515,0,0,1,.044.121l.04-.005Zm-.078.007-.006-.015a.625.625,0,0,1-.028-.1.584.584,0,0,0-.1-.142.323.323,0,0,0-.238-.11h-.024c-.185.014-.312.074-.341.162a.149.149,0,0,0,.058.159C91.713,223.463,92.118,223.433,92.282,223.417Z" fill="#231815"/>
        <path d="M93.346,223.149c-.079.762-.148,1.12-.149,1.122a.011.011,0,0,1-.009.009h0l-.007,0,0-.007s.061-.321.135-1h0a.5.5,0,0,0-.058.029c-.131.066-.437.221-.608.113a.36.36,0,0,1-.123-.335.517.517,0,0,1,.253-.475.378.378,0,0,1,.385.025A.538.538,0,0,1,93.346,223.149Zm-.2-.5a.356.356,0,0,0-.2-.062.377.377,0,0,0-.164.039.5.5,0,0,0-.241.457c0,.16.034.267.113.316.162.1.461-.049.588-.114.053-.027.066-.033.074-.03,0-.034.008-.069.011-.106A.515.515,0,0,0,93.145,222.647Z" fill="#231815"/>
        <path d="M94.907,222.772l0,.01h-.01a3.464,3.464,0,0,0-.653-.155.481.481,0,0,1,.085.62.449.449,0,0,1-.387.215h-.022a.443.443,0,0,1-.355-.179.6.6,0,0,1,.062-.531.448.448,0,0,1,.471-.169,3.81,3.81,0,0,1,.806.181Zm-.689-.136,0-.012-.124-.019a.859.859,0,0,0-.1-.007.4.4,0,0,0-.349.167.574.574,0,0,0-.061.509.42.42,0,0,0,.338.167.428.428,0,0,0,.391-.205A.458.458,0,0,0,94.218,222.636Z" fill="#231815"/>
      </g>
    </g>
    <g>
      <circle cx="55.957" cy="76.298" r="16.05" fill="none" stroke="#861b2c" stroke-linecap="round" stroke-linejoin="round" stroke-width="5"/>
      <circle cx="124.043" cy="144.383" r="16.05" fill="none" stroke="#861b2c" stroke-linecap="round" stroke-linejoin="round" stroke-width="5"/>
      <line x1="102.981" y1="116.054" x2="95.714" y2="123.322" fill="none" stroke="#861b2c" stroke-linecap="round" stroke-linejoin="round" stroke-width="5"/>
      <line x1="100.014" y1="100.327" x2="79.986" y2="120.355" fill="none" stroke="#861b2c" stroke-linecap="round" stroke-linejoin="round" stroke-width="5"/>
      <line x1="84.286" y1="97.36" x2="77.019" y2="104.627" fill="none" stroke="#861b2c" stroke-linecap="round" stroke-linejoin="round" stroke-width="5"/>
    </g>
  </g>
</svg>
