<svg xmlns="http://www.w3.org/2000/svg" width="2.5in" height="3.5in" viewBox="0 0 180 252">
  <rect x="-1400" width="1818" height="1116" fill="#fff"/>
  <g>
    <g>
      <rect x="13.5" y="13.5" width="153" height="225" fill="none" stroke="#811b2b" stroke-miterlimit="10" stroke-width="5"/>
      <rect x="18" y="18" width="144" height="216" fill="none" stroke="#811b2b" stroke-miterlimit="10"/>
    </g>
    <g>
      <path d="M70.944,35.67V29.625h1.3V35.67h-1.3Z" fill="#231815"/>
      <path d="M73.429,35.67V29.625h1.3V35.67h-1.3Z" fill="#231815"/>
      <path d="M75.912,35.67V29.625h1.3V35.67h-1.3Z" fill="#231815"/>
      <path d="M78.4,35.67V29.625h1.3V35.67H78.4Z" fill="#231815"/>
      <path d="M90.879,29.7a.266.266,0,0,1,.079.19V35.4a.268.268,0,0,1-.268.268h-.765a.267.267,0,0,1-.268-.268v-2a.268.268,0,0,0-.267-.268H86.512a.267.267,0,0,1-.268-.267v-.437a.267.267,0,0,1,.268-.267H89.39a.268.268,0,0,0,.267-.268v-2a.267.267,0,0,1,.268-.268h.763A.272.272,0,0,1,90.879,29.7Z" fill="#231815"/>
      <path d="M92.147,35.67V29.625h1.3V35.67h-1.3Z" fill="#231815"/>
      <path d="M100.3,35.67V29.625h1.3V35.67h-1.3Z" fill="#231815"/>
      <path d="M102.779,35.67V29.625h1.3V35.67h-1.3Z" fill="#231815"/>
      <path d="M105.263,35.67V29.625h1.3V35.67h-1.3Z" fill="#231815"/>
      <path d="M107.747,35.67V29.625h1.3V35.67h-1.3Z" fill="#231815"/>
    </g>
    <g>
      <g>
        <g>
          <path d="M40.828,190.736a.5.5,0,0,1,.146.358v.815a.5.5,0,0,1-.5.5h-5.4a.5.5,0,0,0-.5.5v8.511a.5.5,0,0,1-.5.5H32.636a.5.5,0,0,1-.5-.5V191.089a.5.5,0,0,1,.5-.5h7.837A.5.5,0,0,1,40.828,190.736Z" fill="#231815"/>
          <path d="M70.246,201.931V190.585h2.442v11.346H70.246Z" fill="#231815"/>
          <path d="M101.521,196.259v-5.672h2.437v5.672h-2.437Zm8.844-5.168v10.331a.5.5,0,0,1-.5.5h-7.837a.5.5,0,0,1-.5-.5v-.816a.5.5,0,0,1,.5-.5h5.4a.5.5,0,0,0,.5-.5v-8.513a.5.5,0,0,1,.5-.5h1.433A.5.5,0,0,1,110.365,191.091Z" fill="#231815"/>
          <path d="M148.438,195.849v.819a.5.5,0,0,1-.5.5h-5.4a.5.5,0,0,0-.5.5v3.755a.5.5,0,0,1-.5.5h-1.437a.5.5,0,0,1-.5-.5V191.089a.5.5,0,0,1,.5-.5h1.437a.5.5,0,0,1,.5.5v3.756a.5.5,0,0,0,.5.5h5.4A.5.5,0,0,1,148.438,195.849Z" fill="#231815"/>
        </g>
        <g>
          <path d="M85.669,211.737c-.426,0-.679.2-.681.485,0,.314.33.443.64.515l.351.093c.556.129,1.092.423,1.092,1.073s-.517,1.1-1.413,1.1c-.869,0-1.421-.418-1.449-1.155h.66c.031.389.359.58.784.583.442,0,.745-.217.748-.537,0-.294-.27-.418-.675-.521l-.423-.108c-.615-.16-.995-.469-.995-1.006,0-.66.585-1.1,1.371-1.1s1.331.445,1.342,1.077h-.646C86.342,211.92,86.071,211.734,85.669,211.737Z" fill="#231815"/>
          <path d="M88.29,214.95h-.671v-3.734h.671Z" fill="#231815"/>
          <path d="M90.447,214.161h.041l.975-2.945H92.2l-1.32,3.734h-.825l-1.316-3.734h.738Z" fill="#231815"/>
          <path d="M95.666,211.216v2.439a1.526,1.526,0,0,1-3.032,0v-2.439h.671V213.6a.843.843,0,0,0,1.685,0v-2.383Zm-1.361-1.2h.644l-.562.83H93.9Z" fill="#231815"/>
        </g>
        <line x1="31.019" y1="205.031" x2="148.981" y2="205.031" fill="none" stroke="#231815" stroke-miterlimit="10"/>
      </g>
      <g>
        <path d="M86.26,223.228a.332.332,0,0,1-.237.228.689.689,0,0,1-.23.038.541.541,0,0,1-.348-.111c-.238-.2.086-.722.1-.743a.01.01,0,0,1,.014,0l0,.007v.007s-.328.525-.1.716a.606.606,0,0,0,.559.071.3.3,0,0,0,.22-.213.678.678,0,0,0-.075-.521.155.155,0,0,0-.137-.048.24.24,0,0,0-.192.137c-.042.087-.08.286.136.638v.01l-.01.006-.01,0c-.221-.361-.18-.567-.136-.658a.26.26,0,0,1,.208-.148.173.173,0,0,1,.155.054A.705.705,0,0,1,86.26,223.228Z" fill="#231815"/>
        <path d="M86.447,223.479l-.009.008h0s-.009-.007-.007-.011a4.378,4.378,0,0,0,.012-.824l0-.007.007,0h0a.009.009,0,0,1,.01.009A4.144,4.144,0,0,1,86.447,223.479Z" fill="#231815"/>
        <path d="M87.54,223.228a.329.329,0,0,1-.235.228.7.7,0,0,1-.231.038.539.539,0,0,1-.348-.111c-.238-.2.086-.722.1-.743a.01.01,0,0,1,.014,0l0,.007v.007s-.329.525-.1.716a.606.606,0,0,0,.559.071.309.309,0,0,0,.222-.213.678.678,0,0,0-.077-.521.153.153,0,0,0-.135-.048.241.241,0,0,0-.193.137c-.043.087-.08.286.135.638v.01l-.009.006-.01,0c-.22-.361-.179-.567-.136-.658a.259.259,0,0,1,.209-.148.172.172,0,0,1,.154.054A.705.705,0,0,1,87.54,223.228Z" fill="#231815"/>
        <path d="M88.266,223.362a.473.473,0,0,1-.321.09,2.046,2.046,0,0,1-.349-.037l-.008-.007,0-.01.01,0c.343.06.545.045.652-.048a.345.345,0,0,0,.1-.294.469.469,0,0,0-.28-.419.232.232,0,0,0-.246.015.155.155,0,0,0-.062.122.165.165,0,0,0,.061.11l0,.007,0,.008a.014.014,0,0,1-.015,0,.188.188,0,0,1-.071-.125.18.18,0,0,1,.071-.138.25.25,0,0,1,.267-.02.491.491,0,0,1,.292.438A.369.369,0,0,1,88.266,223.362Z" fill="#231815"/>
        <path d="M90.07,224.05a.791.791,0,0,1-.6.244.77.77,0,0,1-.461-.141.009.009,0,0,1,0-.014.009.009,0,0,1,.014,0,.831.831,0,0,0,1.037-.1c.129-.162.07-.375,0-.62a2.892,2.892,0,0,1-.073-.313c-.1.269-.285.384-.427.373a.279.279,0,0,1-.239-.224.619.619,0,0,1-.443.23.286.286,0,0,1-.338-.229.6.6,0,0,1,.2-.617.01.01,0,0,1,.015,0,.009.009,0,0,1,0,.013.583.583,0,0,0-.2.6.267.267,0,0,0,.316.213.606.606,0,0,0,.438-.237.622.622,0,0,1-.014-.095c-.022-.264-.012-.442.023-.463a.017.017,0,0,1,.019,0,.776.776,0,0,1,.043.419.312.312,0,0,1-.048.143.264.264,0,0,0,.225.226c.14.011.324-.11.418-.4,0-.026-.006-.052-.008-.079a.591.591,0,0,1,.066-.405.02.02,0,0,1,.022,0c.031.025.019.171-.034.393a.823.823,0,0,1-.025.092,2.757,2.757,0,0,0,.08.349C90.146,223.662,90.205,223.879,90.07,224.05Zm-.754-.92c0,.023.006.047.01.07a.286.286,0,0,0,.035-.114.807.807,0,0,0-.033-.4,1.1,1.1,0,0,0-.012.443Zm.676-.119.012-.046c.066-.285.049-.365.039-.371a.647.647,0,0,0-.055.386C89.99,222.99,89.99,223,89.992,223.011Z" fill="#231815"/>
        <path d="M90.879,223.362a.471.471,0,0,1-.32.09,2.047,2.047,0,0,1-.35-.037l-.008-.007v-.01l.012,0c.344.06.543.045.652-.048a.355.355,0,0,0,.1-.294.47.47,0,0,0-.281-.419.233.233,0,0,0-.246.015.162.162,0,0,0-.063.122.172.172,0,0,0,.063.11l0,.007,0,.008h-.014a.176.176,0,0,1-.07-.125.174.174,0,0,1,.068-.138.253.253,0,0,1,.269-.02.487.487,0,0,1,.291.438A.366.366,0,0,1,90.879,223.362Z" fill="#231815"/>
        <path d="M91.152,223.479a.009.009,0,0,1-.009.008h0c-.006,0-.01-.007-.008-.011a4.4,4.4,0,0,0,.013-.824l0-.007.008,0a.009.009,0,0,1,.01.009A4.144,4.144,0,0,1,91.152,223.479Z" fill="#231815"/>
        <path d="M92.164,223.41l0,.007c0,.006,0,.011-.008.012l-.043,0-.008,0-.011,0c-.11.011-.219.017-.33.018a.664.664,0,0,1-.373-.072.174.174,0,0,1-.065-.182c.033-.1.164-.161.359-.177a.39.39,0,0,1,.354.215l-.012-.113a.758.758,0,0,0-.138-.453c-.159-.152-.51.037-.514.039a.01.01,0,0,1-.014,0,.01.01,0,0,1,0-.015c.016-.007.369-.2.539-.035a.776.776,0,0,1,.143.466c.006.06.011.117.021.168a.518.518,0,0,1,.045.121l.039-.005Zm-.078.007-.006-.015a.622.622,0,0,1-.027-.1.617.617,0,0,0-.1-.142.323.323,0,0,0-.238-.11h-.024c-.185.014-.312.074-.341.162a.148.148,0,0,0,.058.159C91.518,223.463,91.922,223.433,92.086,223.417Z" fill="#231815"/>
        <path d="M93.15,223.149c-.08.762-.148,1.12-.148,1.122s-.006.009-.01.009h0l-.008,0,0-.007s.063-.321.135-1h0c-.009,0-.033.016-.058.029-.131.066-.436.221-.608.113a.36.36,0,0,1-.123-.335.522.522,0,0,1,.252-.475.381.381,0,0,1,.387.025A.538.538,0,0,1,93.15,223.149Zm-.2-.5a.358.358,0,0,0-.2-.062.373.373,0,0,0-.164.039.5.5,0,0,0-.242.457.341.341,0,0,0,.113.316c.162.1.461-.049.588-.114.053-.027.066-.033.074-.03l.012-.106A.517.517,0,0,0,92.949,222.647Z" fill="#231815"/>
        <path d="M94.711,222.772l0,.01H94.7a3.463,3.463,0,0,0-.652-.155.481.481,0,0,1,.084.62.449.449,0,0,1-.387.215h-.021a.445.445,0,0,1-.356-.179.6.6,0,0,1,.063-.531.446.446,0,0,1,.47-.169,3.835,3.835,0,0,1,.807.181Zm-.69-.136v-.012l-.125-.019a.859.859,0,0,0-.1-.007.4.4,0,0,0-.35.167.577.577,0,0,0-.06.509.42.42,0,0,0,.338.167.426.426,0,0,0,.39-.205A.453.453,0,0,0,94.021,222.636Z" fill="#231815"/>
      </g>
    </g>
    <g>
      <path d="M126.96,81.81,53.805,104.792l44.884,14.387a7.314,7.314,0,0,0,8.563-3.3Z" fill="none" stroke="#861b2c" stroke-linecap="round" stroke-linejoin="round" stroke-width="5"/>
      <path d="M53.805,129.959l44.884,14.386a7.314,7.314,0,0,0,8.563-3.3l19.708-34.067" fill="none" stroke="#861b2c" stroke-linecap="round" stroke-linejoin="round" stroke-width="5"/>
    </g>
  </g>
</svg>
