<svg xmlns="http://www.w3.org/2000/svg" width="2.5in" height="3.5in" viewBox="0 0 180 252">
  <rect x="-1200" y="-288" width="1818" height="1116" fill="#fff"/>
  <g>
    <g>
      <rect x="13.5" y="13.5" width="153" height="225" fill="none" stroke="#d2c128" stroke-miterlimit="10" stroke-width="5"/>
      <rect x="18" y="18" width="144" height="216" fill="none" stroke="#d2c128" stroke-miterlimit="10"/>
    </g>
    <g>
      <path d="M64.776,35.67V29.625h1.3V35.67h-1.3Z" fill="#231815"/>
      <path d="M67.261,35.67V29.625h1.3V35.67h-1.3Z" fill="#231815"/>
      <path d="M69.744,35.67V29.625h1.3V35.67h-1.3Z" fill="#231815"/>
      <path d="M82.523,34.776a.266.266,0,0,1,.079.191V35.4a.269.269,0,0,1-.268.268H78.16a.269.269,0,0,1-.268-.268V29.9a.268.268,0,0,1,.268-.269h.761a.267.267,0,0,1,.267.269v4.536a.268.268,0,0,0,.268.267h2.877A.269.269,0,0,1,82.523,34.776ZM81.3,32.648V29.625h1.3v3.023H81.3Z" fill="#231815"/>
      <path d="M88.236,29.7a.271.271,0,0,1,.078.19v.437a.267.267,0,0,1-.267.268H86.876a.268.268,0,0,0-.269.267V35.4a.267.267,0,0,1-.267.268h-.766a.267.267,0,0,1-.267-.268V30.865a.267.267,0,0,0-.268-.267H83.867a.268.268,0,0,1-.267-.268v-.437a.268.268,0,0,1,.267-.268h4.18A.267.267,0,0,1,88.236,29.7Z" fill="#231815"/>
      <path d="M93.914,29.705a.263.263,0,0,1,.077.191v.434a.267.267,0,0,1-.267.268H90.848a.268.268,0,0,0-.268.267V35.4a.267.267,0,0,1-.268.268h-.763a.267.267,0,0,1-.268-.268V29.893a.267.267,0,0,1,.268-.268h4.176A.265.265,0,0,1,93.914,29.705Z" fill="#231815"/>
      <path d="M95.208,35.67V29.625h1.3V35.67h-1.3Z" fill="#231815"/>
      <path d="M102.323,34.776a.27.27,0,0,1,.079.191V35.4a.268.268,0,0,1-.267.268H97.96a.269.269,0,0,1-.268-.268V29.9a.268.268,0,0,1,.268-.269h.762a.268.268,0,0,1,.267.269v4.536a.267.267,0,0,0,.268.267h2.876A.269.269,0,0,1,102.323,34.776ZM100.045,30.6v-.973H102.4V30.6h-2.359Z" fill="#231815"/>
      <path d="M108.947,35.67V29.625h1.3V35.67h-1.3Z" fill="#231815"/>
      <path d="M111.431,35.67V29.625h1.3V35.67h-1.3Z" fill="#231815"/>
      <path d="M113.915,35.67V29.625h1.3V35.67h-1.3Z" fill="#231815"/>
    </g>
    <g>
      <g>
        <g>
          <path d="M39.743,200.253a.5.5,0,0,1,.148.357v.817a.5.5,0,0,1-.5.5H31.555a.5.5,0,0,1-.5-.5V191.091a.5.5,0,0,1,.5-.5h1.428a.5.5,0,0,1,.5.5V199.6a.5.5,0,0,0,.5.5h5.4A.5.5,0,0,1,39.743,200.253Z" fill="#231815"/>
          <path d="M52.6,190.733a.5.5,0,0,1,.147.356v10.339a.5.5,0,0,1-.5.5H50.808a.5.5,0,0,1-.5-.5V197.67a.5.5,0,0,0-.5-.5H44.4a.5.5,0,0,1-.5-.5v-.818a.5.5,0,0,1,.5-.5h5.4a.5.5,0,0,0,.5-.5v-3.753a.5.5,0,0,1,.5-.5h1.433A.5.5,0,0,1,52.6,190.733Z" fill="#231815"/>
          <path d="M62.752,199.284a.5.5,0,0,0,.385.822h4.834a.5.5,0,0,1,.5.5v.821a.5.5,0,0,1-.5.5H60.133a.5.5,0,0,1-.5-.5v-1.141a.5.5,0,0,1,.116-.321l5.609-6.735a.5.5,0,0,0-.385-.822H60.132a.5.5,0,0,1-.5-.5v-.821a.5.5,0,0,1,.5-.5h7.844a.5.5,0,0,1,.5.5v1.141a.5.5,0,0,1-.117.321Z" fill="#231815"/>
          <path d="M75.069,201.931V190.585h2.442v11.346H75.069Z" fill="#231815"/>
          <path d="M93.723,190.736a.507.507,0,0,1,.144.358v.815a.5.5,0,0,1-.5.5h-5.4a.5.5,0,0,0-.5.5v8.511a.5.5,0,0,1-.5.5H85.529a.5.5,0,0,1-.5-.5V191.089a.5.5,0,0,1,.5-.5h7.837A.505.505,0,0,1,93.723,190.736Z" fill="#231815"/>
          <path d="M105.335,191.089v10.339a.5.5,0,0,1-.5.5H103.4a.5.5,0,0,1-.5-.5V197.67a.5.5,0,0,0-.5-.5h-5.4a.5.5,0,0,1-.5-.5v-.818a.5.5,0,0,1,.5-.5h5.4a.5.5,0,0,0,.5-.5v-3.753a.5.5,0,0,1,.5-.5h1.437A.5.5,0,0,1,105.335,191.089Zm-5.644-2.162V187.1h2.442v1.824H99.691Z" fill="#231815"/>
          <path d="M121.584,190.736a.508.508,0,0,1,.145.358v.815a.5.5,0,0,1-.5.5h-5.4a.5.5,0,0,0-.5.5v8.511a.5.5,0,0,1-.5.5h-1.433a.5.5,0,0,1-.5-.5V191.089a.5.5,0,0,1,.5-.5h7.837A.5.5,0,0,1,121.584,190.736Z" fill="#231815"/>
          <path d="M133.731,200.609v.819a.5.5,0,0,1-.5.5h-7.841a.5.5,0,0,1-.5-.5v-.819a.5.5,0,0,1,.5-.5h2.2a.5.5,0,0,0,.5-.5v-8.515a.5.5,0,0,1,.5-.5h1.436a.5.5,0,0,1,.5.5V199.6a.5.5,0,0,0,.5.5h2.2A.5.5,0,0,1,133.731,200.609Z" fill="#231815"/>
          <path d="M148.8,190.732a.5.5,0,0,1,.148.356v10.344a.5.5,0,0,1-.5.5h-1.438a.5.5,0,0,1-.5-.5v-8.517a.5.5,0,0,0-.5-.5h-5.4a.5.5,0,0,1-.5-.5v-.821a.5.5,0,0,1,.5-.5h7.843A.505.505,0,0,1,148.8,190.732Zm-8.552,11.2v-6.647h2.437v6.647h-2.437Zm2.843,0v-6.647h2.436v6.647h-2.436Z" fill="#231815"/>
        </g>
        <g>
          <path d="M75.136,214.949h-.6L72.769,212.4h-.032v2.553h-.67v-3.734h.609l1.759,2.554h.036v-2.554h.665Z" fill="#231815"/>
          <path d="M75.573,214.949l1.316-3.734h.825l1.32,3.734h-.717l-.312-.923H76.6l-.31.923Zm2.252-1.465-.509-1.5h-.03l-.506,1.5Z" fill="#231815"/>
          <path d="M79.468,211.215h1.4a1.157,1.157,0,0,1,1.315,1.191,1.069,1.069,0,0,1-.673,1.063l.807,1.48h-.748l-.732-1.367h-.7v1.367h-.671Zm1.3,1.806c.5,0,.732-.214.732-.615s-.227-.629-.732-.629h-.629v1.244Z" fill="#231815"/>
          <path d="M83.425,214.949h-.671v-3.734h.671Z" fill="#231815"/>
          <path d="M85.442,211.736c-.425,0-.678.2-.68.485,0,.314.33.443.639.515l.351.093c.557.129,1.093.423,1.093,1.073s-.518,1.1-1.413,1.1c-.87,0-1.421-.418-1.45-1.155h.661c.031.389.358.58.784.583s.745-.217.748-.537c0-.293-.271-.418-.676-.521l-.423-.108c-.614-.16-.995-.469-.995-1.006,0-.66.585-1.1,1.371-1.1s1.331.445,1.342,1.077h-.646C86.115,211.919,85.845,211.733,85.442,211.736Z" fill="#231815"/>
          <path d="M87.094,214.949l1.315-3.734h.825l1.321,3.734h-.717l-.313-.923H88.12l-.309.923Zm1.573-4.935.407.83h-.489l-.563-.83Zm.679,3.47-.509-1.5h-.03l-.506,1.5Z" fill="#231815"/>
          <path d="M92.257,211.736c-.426,0-.679.2-.681.485,0,.314.33.443.64.515l.35.093c.557.129,1.093.423,1.093,1.073s-.517,1.1-1.413,1.1c-.869,0-1.421-.418-1.449-1.155h.66c.031.389.358.58.784.583.442,0,.745-.217.748-.537,0-.293-.27-.418-.676-.521l-.422-.108c-.615-.16-1-.469-1-1.006,0-.66.584-1.1,1.371-1.1s1.331.445,1.341,1.077h-.645C92.93,211.919,92.659,211.733,92.257,211.736Z" fill="#231815"/>
          <path d="M97.24,211.215v2.439a1.526,1.526,0,0,1-3.032,0v-2.439h.67V213.6a.844.844,0,0,0,1.686,0v-2.383Z" fill="#231815"/>
          <path d="M99.54,211.164a1.719,1.719,0,0,1,1.713,1.918,1.942,1.942,0,0,1-.607,1.526l.519.666h-.655l-.312-.394a1.778,1.778,0,0,1-.658.121,1.931,1.931,0,0,1,0-3.837Zm.382,2.532.317.417a1.433,1.433,0,0,0,.338-1.031c0-.853-.426-1.315-1.037-1.315s-1.039.462-1.036,1.315.428,1.315,1.036,1.315a1.038,1.038,0,0,0,.278-.036l-.509-.665Z" fill="#231815"/>
          <path d="M104.877,211.215v2.439a1.526,1.526,0,0,1-3.032,0v-2.439h.67V213.6a.844.844,0,0,0,1.686,0v-2.383Z" fill="#231815"/>
          <path d="M105.558,211.215h2.428v.562h-1.758V212.8h1.629v.561h-1.629v1.022H108v.567h-2.439Z" fill="#231815"/>
        </g>
        <line x1="31.019" y1="205.031" x2="148.981" y2="205.031" fill="none" stroke="#231815" stroke-miterlimit="10"/>
      </g>
      <g>
        <path d="M86.26,223.228a.332.332,0,0,1-.237.228.684.684,0,0,1-.229.038.541.541,0,0,1-.349-.111c-.238-.2.086-.722.1-.743a.011.011,0,0,1,.015,0l0,.007v.007s-.328.525-.1.716a.606.606,0,0,0,.559.071.308.308,0,0,0,.221-.213.682.682,0,0,0-.076-.521.155.155,0,0,0-.137-.048.242.242,0,0,0-.192.137c-.042.087-.08.286.136.638v.01l-.01.006-.009,0c-.221-.361-.181-.567-.137-.658a.26.26,0,0,1,.209-.148.174.174,0,0,1,.155.054A.71.71,0,0,1,86.26,223.228Z" fill="#231815"/>
        <path d="M86.447,223.479a.011.011,0,0,1-.009.008h0s-.009-.007-.007-.011a4.378,4.378,0,0,0,.012-.824l0-.007.007,0h0a.009.009,0,0,1,.01.009A4.144,4.144,0,0,1,86.447,223.479Z" fill="#231815"/>
        <path d="M87.54,223.228a.327.327,0,0,1-.235.228.7.7,0,0,1-.23.038.54.54,0,0,1-.349-.111c-.238-.2.086-.722.1-.743a.01.01,0,0,1,.014,0l0,.007v.007s-.329.525-.1.716a.607.607,0,0,0,.559.071.311.311,0,0,0,.223-.213.686.686,0,0,0-.077-.521.155.155,0,0,0-.136-.048.241.241,0,0,0-.193.137c-.042.087-.08.286.136.638v.01l-.009.006-.009,0c-.221-.361-.18-.567-.136-.658a.256.256,0,0,1,.208-.148.172.172,0,0,1,.154.054A.705.705,0,0,1,87.54,223.228Z" fill="#231815"/>
        <path d="M88.267,223.362a.475.475,0,0,1-.321.09,2.036,2.036,0,0,1-.349-.037l-.009-.007,0-.01.01,0c.343.06.545.045.653-.048a.348.348,0,0,0,.095-.294.467.467,0,0,0-.28-.419.233.233,0,0,0-.246.015.158.158,0,0,0-.062.122.165.165,0,0,0,.061.11l0,.007,0,.008H87.81a.185.185,0,0,1-.072-.125.18.18,0,0,1,.071-.138.25.25,0,0,1,.267-.02.49.49,0,0,1,.292.438A.366.366,0,0,1,88.267,223.362Z" fill="#231815"/>
        <path d="M90.071,224.05a.793.793,0,0,1-.6.244.771.771,0,0,1-.462-.141.01.01,0,0,1,.012-.016.832.832,0,0,0,1.038-.1c.128-.162.069-.375,0-.62a3.155,3.155,0,0,1-.074-.313c-.1.269-.285.384-.426.373a.281.281,0,0,1-.24-.224.619.619,0,0,1-.443.23.286.286,0,0,1-.338-.229.6.6,0,0,1,.2-.617.01.01,0,0,1,.015,0,.009.009,0,0,1,0,.013.583.583,0,0,0-.2.6.268.268,0,0,0,.317.213.61.61,0,0,0,.438-.237.521.521,0,0,1-.015-.095c-.021-.264-.012-.442.023-.463a.017.017,0,0,1,.019,0,.776.776,0,0,1,.043.419.312.312,0,0,1-.048.143.265.265,0,0,0,.225.226c.14.011.324-.11.419-.4,0-.026-.007-.052-.009-.079a.6.6,0,0,1,.066-.405.02.02,0,0,1,.022,0c.031.025.019.171-.033.393a.823.823,0,0,1-.026.092,2.942,2.942,0,0,0,.08.349C90.146,223.662,90.206,223.879,90.071,224.05Zm-.754-.92a.562.562,0,0,0,.01.07.27.27,0,0,0,.034-.114.816.816,0,0,0-.032-.4,1.053,1.053,0,0,0-.012.443Zm.675-.119.012-.046c.066-.285.049-.365.04-.371a.63.63,0,0,0-.055.386Z" fill="#231815"/>
        <path d="M90.879,223.362a.471.471,0,0,1-.32.09,2.047,2.047,0,0,1-.35-.037l-.008-.007v-.01l.011,0c.344.06.544.045.652-.048a.348.348,0,0,0,.1-.294.469.469,0,0,0-.28-.419.232.232,0,0,0-.246.015.156.156,0,0,0-.063.122.168.168,0,0,0,.063.11l0,.007v.008a.014.014,0,0,1-.015,0,.159.159,0,0,1,0-.263.251.251,0,0,1,.268-.02.49.49,0,0,1,.292.438A.369.369,0,0,1,90.879,223.362Z" fill="#231815"/>
        <path d="M91.153,223.479a.011.011,0,0,1-.009.008h0a.011.011,0,0,1-.008-.011,4.231,4.231,0,0,0,.013-.824l0-.007.007,0h0a.01.01,0,0,1,.01.009A4.222,4.222,0,0,1,91.153,223.479Z" fill="#231815"/>
        <path d="M92.165,223.41l0,.007a.011.011,0,0,1-.009.012l-.042,0-.009,0-.01,0c-.11.011-.22.017-.331.018a.668.668,0,0,1-.373-.072.172.172,0,0,1-.064-.182c.032-.1.163-.161.358-.177a.393.393,0,0,1,.355.215c0-.036-.009-.074-.013-.113a.764.764,0,0,0-.137-.453c-.16-.152-.511.037-.514.039a.011.011,0,0,1-.015,0,.011.011,0,0,1,.005-.015c.015-.007.368-.2.538-.035a.776.776,0,0,1,.144.466c.006.06.011.117.021.168a.518.518,0,0,1,.045.121l.039-.005Zm-.078.007-.006-.015a.542.542,0,0,1-.028-.1.613.613,0,0,0-.1-.142.323.323,0,0,0-.238-.11h-.025c-.184.014-.311.074-.34.162a.149.149,0,0,0,.057.159C91.518,223.463,91.923,223.433,92.087,223.417Z" fill="#231815"/>
        <path d="M93.15,223.149c-.079.762-.147,1.12-.148,1.122a.011.011,0,0,1-.01.009h0l-.007,0,0-.007s.062-.321.135-1h0a.618.618,0,0,0-.057.029c-.131.066-.437.221-.609.113a.36.36,0,0,1-.123-.335.521.521,0,0,1,.253-.475.379.379,0,0,1,.386.025A.538.538,0,0,1,93.15,223.149Zm-.2-.5a.353.353,0,0,0-.2-.062.373.373,0,0,0-.164.039.5.5,0,0,0-.241.457c0,.16.034.267.113.316.162.1.461-.049.588-.114.053-.027.065-.033.074-.03,0-.034.008-.069.011-.106A.515.515,0,0,0,92.949,222.647Z" fill="#231815"/>
        <path d="M94.712,222.772l0,.01H94.7a3.433,3.433,0,0,0-.652-.155.481.481,0,0,1,.085.62.45.45,0,0,1-.387.215h-.022a.445.445,0,0,1-.356-.179.6.6,0,0,1,.063-.531.447.447,0,0,1,.47-.169,3.811,3.811,0,0,1,.807.181Zm-.69-.136,0-.012-.124-.019a.874.874,0,0,0-.1-.007.4.4,0,0,0-.35.167.574.574,0,0,0-.06.509.418.418,0,0,0,.338.167.426.426,0,0,0,.39-.205A.455.455,0,0,0,94.022,222.636Z" fill="#231815"/>
      </g>
    </g>
    <g>
      <circle cx="88.681" cy="104.107" r="16.05" fill="none" stroke="#dbc81b" stroke-linecap="round" stroke-linejoin="round" stroke-width="5"/>
      <circle cx="120.543" cy="64.407" r="8.139" fill="none" stroke="#dbc81b" stroke-linecap="round" stroke-linejoin="round" stroke-width="5"/>
      <circle cx="110.646" cy="130.538" r="8.139" fill="none" stroke="#dbc81b" stroke-linecap="round" stroke-linejoin="round" stroke-width="5"/>
      <circle cx="140.087" cy="133.734" r="8.139" fill="none" stroke="#dbc81b" stroke-linecap="round" stroke-linejoin="round" stroke-width="5"/>
      <circle cx="101.417" cy="155.794" r="8.139" fill="none" stroke="#dbc81b" stroke-linecap="round" stroke-linejoin="round" stroke-width="5"/>
      <circle cx="54.349" cy="114.261" r="8.139" fill="none" stroke="#dbc81b" stroke-linecap="round" stroke-linejoin="round" stroke-width="5"/>
      <circle cx="126.295" cy="97.711" r="8.139" fill="none" stroke="#dbc81b" stroke-linecap="round" stroke-linejoin="round" stroke-width="5"/>
      <circle cx="39.913" cy="89.572" r="8.139" fill="none" stroke="#dbc81b" stroke-linecap="round" stroke-linejoin="round" stroke-width="5"/>
      <line x1="105.444" y1="124.279" x2="98.939" y2="116.451" fill="none" stroke="#dbc81b" stroke-linecap="round" stroke-linejoin="round" stroke-width="5"/>
      <line x1="104.211" y1="148.149" x2="107.852" y2="138.183" fill="none" stroke="#dbc81b" stroke-linecap="round" stroke-linejoin="round" stroke-width="5"/>
      <line x1="131.995" y1="132.856" x2="118.737" y2="131.417" fill="none" stroke="#dbc81b" stroke-linecap="round" stroke-linejoin="round" stroke-width="5"/>
      <line x1="124.889" y1="89.572" x2="121.949" y2="72.546" fill="none" stroke="#dbc81b" stroke-linecap="round" stroke-linejoin="round" stroke-width="5"/>
      <line x1="137.176" y1="126.132" x2="129.204" y2="105.31" fill="none" stroke="#dbc81b" stroke-linecap="round" stroke-linejoin="round" stroke-width="5"/>
      <line x1="73.288" y1="108.659" x2="62.154" y2="111.952" fill="none" stroke="#dbc81b" stroke-linecap="round" stroke-linejoin="round" stroke-width="5"/>
      <line x1="44.392" y1="97.232" x2="50.241" y2="107.236" fill="none" stroke="#dbc81b" stroke-linecap="round" stroke-linejoin="round" stroke-width="5"/>
    </g>
  </g>
</svg>
