<svg xmlns="http://www.w3.org/2000/svg" width="2.5in" height="3.5in" viewBox="0 0 180 252">
  <rect x="-400" y="-576" width="1818" height="1116" fill="#fff"/>
  <g>
    <g>
      <rect x="13.5" y="13.5" width="153" height="225" fill="none" stroke="#209554" stroke-miterlimit="10" stroke-width="5"/>
      <rect x="18" y="18" width="144" height="216" fill="none" stroke="#209554" stroke-miterlimit="10"/>
    </g>
    <g>
      <path d="M65.526,33.133V32.16h1.3v.973h-1.3Z" fill="#231815"/>
      <path d="M67.146,33.133V32.16h1.3v.973h-1.3Z" fill="#231815"/>
      <path d="M68.766,33.133V32.16h1.3v.973h-1.3Z" fill="#231815"/>
      <path d="M81.113,34.776a.265.265,0,0,1,.078.191V35.4a.268.268,0,0,1-.267.268H76.75a.27.27,0,0,1-.269-.268V29.9a.269.269,0,0,1,.269-.269h.761a.267.267,0,0,1,.267.269v4.536a.268.268,0,0,0,.268.267h2.877A.271.271,0,0,1,81.113,34.776Zm-1.22-2.128V29.625h1.3v3.023h-1.3Z" fill="#231815"/>
      <path d="M86.826,29.7a.271.271,0,0,1,.078.19v.437a.267.267,0,0,1-.267.268H85.466a.267.267,0,0,0-.269.267V35.4a.267.267,0,0,1-.267.268h-.766A.268.268,0,0,1,83.9,35.4V30.865a.267.267,0,0,0-.267-.267H82.457a.269.269,0,0,1-.268-.268v-.437a.269.269,0,0,1,.268-.268h4.18A.269.269,0,0,1,86.826,29.7Z" fill="#231815"/>
      <path d="M92.5,29.705a.263.263,0,0,1,.077.191v.434a.267.267,0,0,1-.268.268H89.438a.268.268,0,0,0-.268.267V35.4a.267.267,0,0,1-.268.268h-.763a.267.267,0,0,1-.268-.268V29.893a.267.267,0,0,1,.268-.268h4.175A.265.265,0,0,1,92.5,29.705Z" fill="#231815"/>
      <path d="M98.272,29.893V35.4a.268.268,0,0,1-.267.269h-4.18a.268.268,0,0,1-.267-.269V29.893a.267.267,0,0,1,.267-.268h.764a.267.267,0,0,1,.267.268v4.539a.268.268,0,0,0,.268.267H96.7a.267.267,0,0,0,.268-.267V29.893a.268.268,0,0,1,.267-.268h.767A.268.268,0,0,1,98.272,29.893Z" fill="#231815"/>
      <path d="M99.21,30.6v-.973h4.714V30.6H99.21Zm0,5.072V34.7h4.714v.972H99.21Z" fill="#231815"/>
      <path d="M109.925,33.133V32.16h1.3v.973h-1.3Z" fill="#231815"/>
      <path d="M111.545,33.133V32.16h1.3v.973h-1.3Z" fill="#231815"/>
      <path d="M113.165,33.133V32.16h1.3v.973h-1.3Z" fill="#231815"/>
    </g>
    <g>
      <g>
        <g>
          <path d="M40.017,190.732a.5.5,0,0,1,.147.356v10.344a.5.5,0,0,1-.5.5H38.224a.5.5,0,0,1-.5-.5v-8.517a.5.5,0,0,0-.5-.5h-5.4a.5.5,0,0,1-.5-.5v-.821a.5.5,0,0,1,.5-.5h7.843A.508.508,0,0,1,40.017,190.732Zm-8.553,11.2v-6.647H33.9v6.647H31.464Zm2.844,0v-6.647h2.436v6.647H34.308Z" fill="#231815"/>
          <path d="M49.435,199.284a.5.5,0,0,0,.384.822h4.834a.5.5,0,0,1,.5.5v.821a.5.5,0,0,1-.5.5H46.815a.5.5,0,0,1-.5-.5v-1.141a.5.5,0,0,1,.117-.321l5.609-6.735a.5.5,0,0,0-.386-.822H46.814a.5.5,0,0,1-.5-.5v-.821a.5.5,0,0,1,.5-.5h7.844a.5.5,0,0,1,.5.5v1.141a.5.5,0,0,1-.116.321Z" fill="#231815"/>
          <path d="M61.01,201.931V190.585h2.441v11.346H61.01Z" fill="#231815"/>
          <path d="M78.666,191.088v10.344a.5.5,0,0,1-.5.5H70.319a.5.5,0,0,1-.5-.5v-.821a.5.5,0,0,1,.5-.5h5.4a.5.5,0,0,0,.5-.5v-8.517a.5.5,0,0,1,.5-.5h1.438A.5.5,0,0,1,78.666,191.088Zm-8.7,6.143v-6.646h2.436v6.646H69.969Zm2.843,0v-6.646h2.436v6.646H72.812Z" fill="#231815"/>
          <path d="M87.938,199.284a.5.5,0,0,0,.385.822h4.833a.5.5,0,0,1,.5.5v.821a.5.5,0,0,1-.5.5H85.319a.5.5,0,0,1-.5-.5v-1.141a.5.5,0,0,1,.116-.321l5.61-6.735a.5.5,0,0,0-.386-.822H85.318a.5.5,0,0,1-.5-.5v-.821a.5.5,0,0,1,.5-.5h7.843a.5.5,0,0,1,.5.5v1.141a.5.5,0,0,1-.115.321Z" fill="#231815"/>
          <path d="M98.4,192.41v-1.823h8.847v1.823H98.4Zm0,9.521v-1.825h8.847v1.825H98.4Z" fill="#231815"/>
          <path d="M121.328,191.088v10.344a.5.5,0,0,1-.5.5h-7.844a.5.5,0,0,1-.5-.5v-.821a.5.5,0,0,1,.5-.5h5.4a.5.5,0,0,0,.5-.5v-8.517a.5.5,0,0,1,.5-.5h1.438A.5.5,0,0,1,121.328,191.088Zm-8.7,6.143v-6.646h2.436v6.646h-2.436Zm2.843,0v-6.646h2.436v6.646h-2.436Z" fill="#231815"/>
          <path d="M134.783,190.733a.507.507,0,0,1,.147.356v.819a.5.5,0,0,1-.5.5h-2.2a.5.5,0,0,0-.5.5v8.515a.5.5,0,0,1-.5.5h-1.438a.5.5,0,0,1-.5-.5v-8.515a.5.5,0,0,0-.5-.5h-2.2a.5.5,0,0,1-.5-.5v-.819a.5.5,0,0,1,.5-.5h7.843A.508.508,0,0,1,134.783,190.733Z" fill="#231815"/>
          <path d="M148.363,190.736a.5.5,0,0,1,.145.358v.815a.5.5,0,0,1-.5.5h-5.4a.5.5,0,0,0-.5.5v8.511a.5.5,0,0,1-.5.5H140.17a.5.5,0,0,1-.5-.5V191.089a.5.5,0,0,1,.5-.5h7.837A.5.5,0,0,1,148.363,190.736Z" fill="#231815"/>
        </g>
        <g>
          <path d="M76.287,211.215h.671v1.718h.051l1.46-1.718h.82l-1.444,1.677,1.46,2.057h-.811l-1.119-1.6-.417.489v1.114h-.671Z" fill="#231815"/>
          <path d="M79.707,211.215h1.4a1.157,1.157,0,0,1,1.315,1.191,1.069,1.069,0,0,1-.673,1.063l.808,1.48h-.748l-.733-1.367h-.7v1.367h-.671Zm1.3,1.806c.506,0,.732-.214.732-.615s-.226-.629-.732-.629h-.629v1.244Z" fill="#231815"/>
          <path d="M83.664,214.949h-.67v-3.734h.67Z" fill="#231815"/>
          <path d="M84.356,211.215h1.4a1.238,1.238,0,1,1-.011,2.471h-.722v1.263h-.671Zm1.3,1.919a.645.645,0,0,0,.733-.681.638.638,0,0,0-.733-.676h-.629v1.357Z" fill="#231815"/>
          <path d="M87.607,211.215h1.4a1.158,1.158,0,0,1,1.315,1.191,1.069,1.069,0,0,1-.673,1.063l.807,1.48h-.748l-.732-1.367h-.7v1.367h-.67Zm1.3,1.806c.506,0,.733-.214.733-.615s-.227-.629-.733-.629h-.629v1.244Z" fill="#231815"/>
          <path d="M90.894,211.215h2.428v.562H91.563V212.8h1.63v.561h-1.63v1.022h1.77v.567H90.894Z" fill="#231815"/>
          <path d="M93.959,211.215h1.4a1.238,1.238,0,1,1-.009,2.471h-.723v1.263h-.67Zm1.3,1.919a.644.644,0,0,0,.732-.681.638.638,0,0,0-.732-.676h-.63v1.357Z" fill="#231815"/>
          <path d="M98.828,215a1.931,1.931,0,1,1,1.713-1.919A1.718,1.718,0,0,1,98.828,215Zm0-.6c.611,0,1.039-.461,1.037-1.315s-.426-1.315-1.037-1.315-1.039.462-1.036,1.315S98.22,214.4,98.828,214.4Z" fill="#231815"/>
          <path d="M102.453,211.736c-.426,0-.678.2-.681.485,0,.314.331.443.64.515l.351.093c.556.129,1.093.423,1.093,1.073s-.518,1.1-1.413,1.1c-.869,0-1.421-.418-1.449-1.155h.66c.031.389.359.58.784.583.441,0,.745-.217.748-.537,0-.293-.271-.418-.676-.521l-.423-.108c-.613-.16-1-.469-1-1.006,0-.66.585-1.1,1.372-1.1s1.33.445,1.341,1.077h-.645C103.126,211.919,102.855,211.733,102.453,211.736Z" fill="#231815"/>
        </g>
        <line x1="31.019" y1="205.031" x2="148.982" y2="205.031" fill="none" stroke="#231815" stroke-miterlimit="10"/>
      </g>
      <g>
        <path d="M86.26,223.228a.332.332,0,0,1-.237.228.684.684,0,0,1-.229.038.541.541,0,0,1-.349-.111c-.238-.2.086-.722.1-.743a.011.011,0,0,1,.015,0l0,.007v.007s-.328.525-.1.716a.606.606,0,0,0,.559.071.308.308,0,0,0,.221-.213.682.682,0,0,0-.076-.521.155.155,0,0,0-.137-.048.242.242,0,0,0-.192.137c-.042.087-.08.286.136.638v.01l-.01.006-.009,0c-.221-.361-.181-.567-.137-.658a.26.26,0,0,1,.209-.148.174.174,0,0,1,.155.054A.71.71,0,0,1,86.26,223.228Z" fill="#231815"/>
        <path d="M86.447,223.479a.011.011,0,0,1-.009.008h0s-.009-.007-.007-.011a4.378,4.378,0,0,0,.012-.824l0-.007.007,0h0a.009.009,0,0,1,.01.009A4.144,4.144,0,0,1,86.447,223.479Z" fill="#231815"/>
        <path d="M87.54,223.228a.327.327,0,0,1-.235.228.7.7,0,0,1-.23.038.54.54,0,0,1-.349-.111c-.238-.2.086-.722.1-.743a.01.01,0,0,1,.014,0l0,.007v.007s-.329.525-.1.716a.607.607,0,0,0,.559.071.311.311,0,0,0,.223-.213.686.686,0,0,0-.077-.521.155.155,0,0,0-.136-.048.241.241,0,0,0-.193.137c-.042.087-.08.286.136.638v.01l-.009.006-.009,0c-.221-.361-.18-.567-.136-.658a.256.256,0,0,1,.208-.148.172.172,0,0,1,.154.054A.705.705,0,0,1,87.54,223.228Z" fill="#231815"/>
        <path d="M88.267,223.362a.475.475,0,0,1-.321.09,2.036,2.036,0,0,1-.349-.037l-.009-.007,0-.01.01,0c.343.06.545.045.653-.048a.348.348,0,0,0,.095-.294.467.467,0,0,0-.28-.419.233.233,0,0,0-.246.015.158.158,0,0,0-.062.122.165.165,0,0,0,.061.11l0,.007,0,.008H87.81a.185.185,0,0,1-.072-.125.18.18,0,0,1,.071-.138.25.25,0,0,1,.267-.02.49.49,0,0,1,.292.438A.366.366,0,0,1,88.267,223.362Z" fill="#231815"/>
        <path d="M90.071,224.05a.793.793,0,0,1-.6.244.771.771,0,0,1-.462-.141.01.01,0,0,1,.012-.016.832.832,0,0,0,1.038-.1c.128-.162.069-.375,0-.62a3.155,3.155,0,0,1-.074-.313c-.1.269-.285.384-.426.373a.281.281,0,0,1-.24-.224.619.619,0,0,1-.443.23.286.286,0,0,1-.338-.229.6.6,0,0,1,.2-.617.01.01,0,0,1,.015,0,.009.009,0,0,1,0,.013.583.583,0,0,0-.2.6.268.268,0,0,0,.317.213.61.61,0,0,0,.438-.237.521.521,0,0,1-.015-.095c-.021-.264-.012-.442.023-.463a.017.017,0,0,1,.019,0,.776.776,0,0,1,.043.419.312.312,0,0,1-.048.143.265.265,0,0,0,.225.226c.14.011.324-.11.419-.4,0-.026-.007-.052-.009-.079a.6.6,0,0,1,.066-.405.02.02,0,0,1,.022,0c.031.025.019.171-.033.393a.823.823,0,0,1-.026.092,2.942,2.942,0,0,0,.08.349C90.146,223.662,90.206,223.879,90.071,224.05Zm-.754-.92a.562.562,0,0,0,.01.07.27.27,0,0,0,.034-.114.816.816,0,0,0-.032-.4,1.053,1.053,0,0,0-.012.443Zm.675-.119.012-.046c.066-.285.049-.365.04-.371a.63.63,0,0,0-.055.386Z" fill="#231815"/>
        <path d="M90.879,223.362a.471.471,0,0,1-.32.09,2.047,2.047,0,0,1-.35-.037l-.008-.007v-.01l.011,0c.344.06.544.045.652-.048a.348.348,0,0,0,.1-.294.469.469,0,0,0-.28-.419.232.232,0,0,0-.246.015.156.156,0,0,0-.063.122.168.168,0,0,0,.063.11l0,.007v.008a.014.014,0,0,1-.015,0,.159.159,0,0,1,0-.263.251.251,0,0,1,.268-.02.49.49,0,0,1,.292.438A.369.369,0,0,1,90.879,223.362Z" fill="#231815"/>
        <path d="M91.153,223.479a.011.011,0,0,1-.009.008h0a.011.011,0,0,1-.008-.011,4.231,4.231,0,0,0,.013-.824l0-.007.007,0h0a.01.01,0,0,1,.01.009A4.222,4.222,0,0,1,91.153,223.479Z" fill="#231815"/>
        <path d="M92.165,223.41l0,.007a.011.011,0,0,1-.009.012l-.042,0-.009,0-.01,0c-.11.011-.22.017-.331.018a.668.668,0,0,1-.373-.072.172.172,0,0,1-.064-.182c.032-.1.163-.161.358-.177a.393.393,0,0,1,.355.215c0-.036-.009-.074-.013-.113a.764.764,0,0,0-.137-.453c-.16-.152-.511.037-.514.039a.011.011,0,0,1-.015,0,.011.011,0,0,1,.005-.015c.015-.007.368-.2.538-.035a.776.776,0,0,1,.144.466c.006.06.011.117.021.168a.518.518,0,0,1,.045.121l.039-.005Zm-.078.007-.006-.015a.542.542,0,0,1-.028-.1.613.613,0,0,0-.1-.142.323.323,0,0,0-.238-.11h-.025c-.184.014-.311.074-.34.162a.149.149,0,0,0,.057.159C91.518,223.463,91.923,223.433,92.087,223.417Z" fill="#231815"/>
        <path d="M93.15,223.149c-.079.762-.147,1.12-.148,1.122a.011.011,0,0,1-.01.009h0l-.007,0,0-.007s.062-.321.135-1h0a.618.618,0,0,0-.057.029c-.131.066-.437.221-.609.113a.36.36,0,0,1-.123-.335.521.521,0,0,1,.253-.475.379.379,0,0,1,.386.025A.538.538,0,0,1,93.15,223.149Zm-.2-.5a.353.353,0,0,0-.2-.062.373.373,0,0,0-.164.039.5.5,0,0,0-.241.457c0,.16.034.267.113.316.162.1.461-.049.588-.114.053-.027.065-.033.074-.03,0-.034.008-.069.011-.106A.515.515,0,0,0,92.949,222.647Z" fill="#231815"/>
        <path d="M94.712,222.772l0,.01H94.7a3.433,3.433,0,0,0-.652-.155.481.481,0,0,1,.085.62.45.45,0,0,1-.387.215h-.022a.445.445,0,0,1-.356-.179.6.6,0,0,1,.063-.531.447.447,0,0,1,.47-.169,3.811,3.811,0,0,1,.807.181Zm-.69-.136,0-.012-.124-.019a.874.874,0,0,0-.1-.007.4.4,0,0,0-.35.167.574.574,0,0,0-.06.509.418.418,0,0,0,.338.167.426.426,0,0,0,.39-.205A.455.455,0,0,0,94.022,222.636Z" fill="#231815"/>
      </g>
    </g>
    <g>
      <rect x="63.991" y="126.37" width="26.009" height="26.009" fill="none" stroke="#1b9c56" stroke-linecap="round" stroke-linejoin="round" stroke-width="5"/>
      <rect x="90" y="126.37" width="26.009" height="26.009" fill="none" stroke="#1b9c56" stroke-linecap="round" stroke-linejoin="round" stroke-width="5"/>
      <rect x="116.009" y="126.37" width="26.009" height="26.009" fill="none" stroke="#1b9c56" stroke-linecap="round" stroke-linejoin="round" stroke-width="5"/>
      <rect x="76.995" y="100.361" width="26.009" height="26.009" fill="none" stroke="#1b9c56" stroke-linecap="round" stroke-linejoin="round" stroke-width="5"/>
      <rect x="103.005" y="100.361" width="26.009" height="26.009" fill="none" stroke="#1b9c56" stroke-linecap="round" stroke-linejoin="round" stroke-width="5"/>
      <rect x="90" y="74.351" width="26.009" height="26.009" fill="none" stroke="#1b9c56" stroke-linecap="round" stroke-linejoin="round" stroke-width="5"/>
      <rect x="37.981" y="126.37" width="26.009" height="26.009" fill="none" stroke="#1b9c56" stroke-linecap="round" stroke-linejoin="round" stroke-width="5"/>
      <rect x="50.986" y="100.361" width="26.009" height="26.009" fill="none" stroke="#1b9c56" stroke-linecap="round" stroke-linejoin="round" stroke-width="5"/>
      <rect x="63.991" y="74.351" width="26.009" height="26.009" fill="none" stroke="#1b9c56" stroke-linecap="round" stroke-linejoin="round" stroke-width="5"/>
    </g>
  </g>
</svg>
