<svg xmlns="http://www.w3.org/2000/svg" width="2.5in" height="3.5in" viewBox="0 0 180 252">
  <rect x="-200" y="-864" width="1818" height="1116" fill="#fff"/>
  <g>
    <g>
      <rect x="13.5" y="13.5" width="153" height="225" fill="none" stroke="#1b2e88" stroke-miterlimit="10" stroke-width="5"/>
      <rect x="18" y="18" width="144" height="216" fill="none" stroke="#1b2e88" stroke-miterlimit="10"/>
    </g>
    <g>
      <path d="M63.108,33.133V32.16h1.3v.973h-1.3Z" fill="#231815"/>
      <path d="M64.729,33.133V32.16h1.3v.973h-1.3Z" fill="#231815"/>
      <path d="M77.076,34.776a.27.27,0,0,1,.079.191V35.4a.268.268,0,0,1-.267.268H72.713a.269.269,0,0,1-.268-.268V29.9a.268.268,0,0,1,.268-.269h.762a.268.268,0,0,1,.267.269v4.536a.267.267,0,0,0,.268.267h2.876A.269.269,0,0,1,77.076,34.776ZM74.8,30.6v-.973h2.359V30.6H74.8Z" fill="#231815"/>
      <path d="M78.036,35.67V29.625h1.3V35.67h-1.3Z" fill="#231815"/>
      <path d="M85.151,34.776a.27.27,0,0,1,.079.191V35.4a.268.268,0,0,1-.267.268H80.788a.268.268,0,0,1-.267-.268V29.9a.268.268,0,0,1,.267-.269h.762a.268.268,0,0,1,.267.269v4.536a.268.268,0,0,0,.268.267h2.876A.268.268,0,0,1,85.151,34.776Zm-1.22-2.128V29.625h1.3v3.023h-1.3Z" fill="#231815"/>
      <path d="M90.864,29.7a.268.268,0,0,1,.079.19v.437a.268.268,0,0,1-.267.268H89.5a.267.267,0,0,0-.268.267V35.4a.267.267,0,0,1-.267.268H88.2a.267.267,0,0,1-.267-.268V30.865a.267.267,0,0,0-.268-.267H86.5a.268.268,0,0,1-.268-.268v-.437a.268.268,0,0,1,.268-.268h4.179A.267.267,0,0,1,90.864,29.7Z" fill="#231815"/>
      <path d="M96.543,29.705a.267.267,0,0,1,.077.191v.434a.267.267,0,0,1-.267.268H93.477a.268.268,0,0,0-.269.267V35.4a.267.267,0,0,1-.268.268h-.763a.267.267,0,0,1-.268-.268V29.893a.268.268,0,0,1,.268-.268h4.177A.267.267,0,0,1,96.543,29.705Z" fill="#231815"/>
      <path d="M102.312,29.892v.437a.268.268,0,0,1-.267.268H99.166a.268.268,0,0,0-.268.267V35.4a.268.268,0,0,1-.267.268h-.768A.268.268,0,0,1,97.6,35.4V29.893a.268.268,0,0,1,.267-.268h4.181A.268.268,0,0,1,102.312,29.892ZM99.417,35.67V32.129h1.3V35.67h-1.3Zm1.516,0V32.129h1.3V35.67h-1.3Z" fill="#231815"/>
      <path d="M103.248,30.6v-.973h4.714V30.6h-4.714Zm0,5.072V34.7h4.714v.972h-4.714Z" fill="#231815"/>
      <path d="M113.964,33.133V32.16h1.3v.973h-1.3Z" fill="#231815"/>
      <path d="M115.583,33.133V32.16h1.3v.973h-1.3Z" fill="#231815"/>
    </g>
    <g>
      <g>
        <g>
          <path d="M39.666,190.736a.5.5,0,0,1,.145.358v.815a.5.5,0,0,1-.5.5h-5.4a.5.5,0,0,0-.5.5v8.511a.5.5,0,0,1-.5.5H31.474a.5.5,0,0,1-.5-.5V191.089a.5.5,0,0,1,.5-.5h7.837A.5.5,0,0,1,39.666,190.736Zm-2.288,11.2v-5.672h2.436v5.672H37.378Z" fill="#231815"/>
          <path d="M93.159,190.733a.5.5,0,0,1,.148.356v10.339a.5.5,0,0,1-.5.5H91.368a.5.5,0,0,1-.5-.5V197.67a.5.5,0,0,0-.5-.5h-5.4a.5.5,0,0,1-.5-.5v-.818a.5.5,0,0,1,.5-.5h5.4a.5.5,0,0,0,.5-.5v-3.753a.5.5,0,0,1,.5-.5H92.8A.5.5,0,0,1,93.159,190.733Z" fill="#231815"/>
          <path d="M148.083,191.088v10.344a.5.5,0,0,1-.5.5h-7.844a.5.5,0,0,1-.5-.5v-.821a.5.5,0,0,1,.5-.5h5.4a.5.5,0,0,0,.5-.5v-8.517a.5.5,0,0,1,.5-.5h1.438A.5.5,0,0,1,148.083,191.088Zm-8.7,6.143v-6.646h2.436v6.646h-2.436Zm2.843,0v-6.646h2.436v6.646h-2.436Z" fill="#231815"/>
        </g>
        <g>
          <path d="M84.723,214.526l1.918-2.749H84.712v-.562h2.765v.418l-1.919,2.749h1.928v.567H84.723Z" fill="#231815"/>
          <path d="M87.844,214.949l1.315-3.734h.825l1.321,3.734h-.718l-.312-.923H88.87l-.309.923Zm2.251-1.465-.508-1.5h-.031l-.5,1.5Z" fill="#231815"/>
          <path d="M91.737,211.215h1.4a1.238,1.238,0,1,1-.011,2.471h-.722v1.263h-.671Zm1.3,1.919a.645.645,0,0,0,.733-.681.638.638,0,0,0-.733-.676h-.629v1.357Z" fill="#231815"/>
        </g>
        <line x1="30.565" y1="205.031" x2="148.527" y2="205.031" fill="none" stroke="#231815" stroke-miterlimit="10"/>
      </g>
      <g>
        <path d="M85.806,223.228a.332.332,0,0,1-.237.228.684.684,0,0,1-.229.038.541.541,0,0,1-.349-.111c-.238-.2.086-.722.1-.743a.01.01,0,0,1,.014,0l0,.007v.007s-.328.525-.1.716a.6.6,0,0,0,.558.071.307.307,0,0,0,.222-.213.682.682,0,0,0-.076-.521.155.155,0,0,0-.137-.048.242.242,0,0,0-.192.137c-.042.087-.08.286.136.638v.01l-.01.006-.009,0c-.221-.361-.181-.567-.137-.658a.259.259,0,0,1,.209-.148.174.174,0,0,1,.155.054A.71.71,0,0,1,85.806,223.228Z" fill="#231815"/>
        <path d="M85.993,223.479a.011.011,0,0,1-.01.008h0a.009.009,0,0,1-.006-.011,4.378,4.378,0,0,0,.012-.824l0-.007.007,0h0a.009.009,0,0,1,.01.009A4.144,4.144,0,0,1,85.993,223.479Z" fill="#231815"/>
        <path d="M87.086,223.228a.329.329,0,0,1-.235.228.7.7,0,0,1-.23.038.544.544,0,0,1-.35-.111c-.237-.2.086-.722.1-.743a.01.01,0,0,1,.014,0l.005.007v.007s-.329.525-.105.716a.607.607,0,0,0,.559.071.307.307,0,0,0,.222-.213.682.682,0,0,0-.076-.521.155.155,0,0,0-.136-.048.241.241,0,0,0-.193.137c-.042.087-.08.286.136.638v.01l-.009.006-.009,0c-.221-.361-.18-.567-.136-.658a.256.256,0,0,1,.208-.148.172.172,0,0,1,.154.054A.705.705,0,0,1,87.086,223.228Z" fill="#231815"/>
        <path d="M87.812,223.362a.471.471,0,0,1-.32.09,2.036,2.036,0,0,1-.349-.037l-.009-.007,0-.01.01,0c.343.06.544.045.653-.048a.351.351,0,0,0,.095-.294.467.467,0,0,0-.28-.419.233.233,0,0,0-.246.015.158.158,0,0,0-.062.122.165.165,0,0,0,.061.11l0,.007,0,.008h-.015a.184.184,0,0,1-.071-.125.182.182,0,0,1,.07-.138.252.252,0,0,1,.268-.02.49.49,0,0,1,.292.438A.363.363,0,0,1,87.812,223.362Z" fill="#231815"/>
        <path d="M89.617,224.05a.793.793,0,0,1-.6.244.771.771,0,0,1-.462-.141.009.009,0,0,1,0-.014.008.008,0,0,1,.013,0,.833.833,0,0,0,1.039-.1c.127-.162.069-.375,0-.62a3.155,3.155,0,0,1-.074-.313c-.1.269-.285.384-.426.373a.281.281,0,0,1-.24-.224.619.619,0,0,1-.443.23.286.286,0,0,1-.338-.229.6.6,0,0,1,.2-.617.01.01,0,0,1,.015,0,.009.009,0,0,1,0,.013.581.581,0,0,0-.2.6.268.268,0,0,0,.317.213.606.606,0,0,0,.437-.237.622.622,0,0,1-.014-.095c-.021-.264-.012-.442.023-.463a.017.017,0,0,1,.019,0,.786.786,0,0,1,.043.419.312.312,0,0,1-.048.143.265.265,0,0,0,.224.226c.141.011.325-.11.419-.4,0-.026-.006-.052-.008-.079a.6.6,0,0,1,.066-.405.02.02,0,0,1,.022,0c.031.025.019.171-.033.393-.008.032-.016.063-.026.092a2.757,2.757,0,0,0,.08.349C89.692,223.662,89.752,223.879,89.617,224.05Zm-.754-.92a.562.562,0,0,0,.01.07.27.27,0,0,0,.034-.114.816.816,0,0,0-.032-.4,1.053,1.053,0,0,0-.012.443Zm.675-.119.012-.046c.066-.285.049-.365.04-.371a.63.63,0,0,0-.055.386Z" fill="#231815"/>
        <path d="M90.425,223.362a.473.473,0,0,1-.321.09,2.046,2.046,0,0,1-.349-.037l-.008-.007v-.01l.011,0c.344.06.544.045.652-.048a.351.351,0,0,0,.1-.294.469.469,0,0,0-.28-.419.234.234,0,0,0-.247.015.158.158,0,0,0-.062.122.171.171,0,0,0,.062.11l0,.007,0,.008a.012.012,0,0,1-.014,0,.184.184,0,0,1-.071-.125.179.179,0,0,1,.07-.138.251.251,0,0,1,.268-.02.491.491,0,0,1,.292.438A.369.369,0,0,1,90.425,223.362Z" fill="#231815"/>
        <path d="M90.7,223.479a.011.011,0,0,1-.01.008h0a.011.011,0,0,1-.008-.011,4.314,4.314,0,0,0,.013-.824l0-.007.007,0h0a.01.01,0,0,1,.01.009A4.222,4.222,0,0,1,90.7,223.479Z" fill="#231815"/>
        <path d="M91.711,223.41l0,.007a.011.011,0,0,1-.009.012l-.042,0-.009,0-.01,0c-.11.011-.22.017-.332.018a.672.672,0,0,1-.373-.072.171.171,0,0,1-.063-.182c.032-.1.163-.161.358-.177a.394.394,0,0,1,.355.215c-.005-.036-.009-.074-.013-.113a.758.758,0,0,0-.138-.453c-.159-.152-.51.037-.513.039a.011.011,0,0,1-.015,0,.011.011,0,0,1,0-.015c.015-.007.368-.2.538-.035a.776.776,0,0,1,.144.466c.006.06.011.117.021.168a.518.518,0,0,1,.045.121l.039-.005Zm-.078.007-.006-.015a.479.479,0,0,1-.028-.1.613.613,0,0,0-.1-.142.324.324,0,0,0-.238-.11h-.025c-.184.014-.311.074-.341.162a.151.151,0,0,0,.058.159C91.063,223.463,91.469,223.433,91.633,223.417Z" fill="#231815"/>
        <path d="M92.7,223.149c-.079.762-.147,1.12-.148,1.122a.011.011,0,0,1-.01.009h0l-.007,0,0-.007s.062-.321.135-1h-.005a.511.511,0,0,0-.057.029c-.131.066-.437.221-.609.113a.36.36,0,0,1-.123-.335.521.521,0,0,1,.253-.475.379.379,0,0,1,.386.025A.538.538,0,0,1,92.7,223.149Zm-.2-.5a.353.353,0,0,0-.2-.062.373.373,0,0,0-.164.039.5.5,0,0,0-.241.457c0,.16.034.267.113.316.162.1.461-.049.588-.114.053-.027.065-.033.074-.03,0-.034.008-.069.011-.106A.515.515,0,0,0,92.5,222.647Z" fill="#231815"/>
        <path d="M94.258,222.772l0,.01h-.011a3.433,3.433,0,0,0-.652-.155.481.481,0,0,1,.085.62.45.45,0,0,1-.387.215h-.022a.445.445,0,0,1-.356-.179.6.6,0,0,1,.063-.531.447.447,0,0,1,.47-.169,3.811,3.811,0,0,1,.807.181Zm-.69-.136,0-.012-.124-.019a.842.842,0,0,0-.1-.007.4.4,0,0,0-.35.167.574.574,0,0,0-.06.509.418.418,0,0,0,.338.167.426.426,0,0,0,.39-.205A.455.455,0,0,0,93.568,222.636Z" fill="#231815"/>
      </g>
    </g>
    <g>
      <circle cx="90" cy="111.716" r="16.05" fill="none" stroke="#172e7d" stroke-linecap="round" stroke-linejoin="round" stroke-width="5"/>
      <rect x="63.837" y="85.553" width="52.326" height="52.326" fill="none" stroke="#172e7d" stroke-linecap="round" stroke-linejoin="round" stroke-width="5"/>
      <rect x="52.58" y="74.296" width="74.839" height="74.839" transform="translate(-52.635 96.36) rotate(-45)" fill="none" stroke="#172e7d" stroke-linecap="round" stroke-linejoin="round" stroke-width="5"/>
    </g>
  </g>
</svg>
