<svg xmlns="http://www.w3.org/2000/svg" width="2.5in" height="3.5in" viewBox="0 0 180 252">
  <rect x="-400" y="-864" width="1818" height="1116" fill="#fff"/>
  <g>
    <g>
      <rect x="13.5" y="13.5" width="153" height="225" fill="none" stroke="#1b2e88" stroke-miterlimit="10" stroke-width="5"/>
      <rect x="18" y="18" width="144" height="216" fill="none" stroke="#1b2e88" stroke-miterlimit="10"/>
    </g>
    <g>
      <path d="M61.71,33.133V32.16h1.3v.973h-1.3Z" fill="#231815"/>
      <path d="M63.33,33.133V32.16h1.3v.973h-1.3Z" fill="#231815"/>
      <path d="M64.95,33.133V32.16h1.3v.973h-1.3Z" fill="#231815"/>
      <path d="M77.3,34.776a.265.265,0,0,1,.078.191V35.4a.268.268,0,0,1-.268.268H72.934a.269.269,0,0,1-.268-.268V29.9a.268.268,0,0,1,.268-.269h.761a.268.268,0,0,1,.268.269v4.536a.268.268,0,0,0,.267.267h2.877A.272.272,0,0,1,77.3,34.776ZM75.02,30.6v-.973h2.358V30.6H75.02Z" fill="#231815"/>
      <path d="M78.258,35.67V29.625h1.3V35.67h-1.3Z" fill="#231815"/>
      <path d="M85.373,34.776a.265.265,0,0,1,.078.191V35.4a.268.268,0,0,1-.267.268H81.01a.269.269,0,0,1-.269-.268V29.9a.268.268,0,0,1,.269-.269h.761a.267.267,0,0,1,.267.269v4.536a.268.268,0,0,0,.268.267h2.877A.271.271,0,0,1,85.373,34.776Zm-1.221-2.128V29.625h1.3v3.023h-1.3Z" fill="#231815"/>
      <path d="M91.086,29.7a.271.271,0,0,1,.078.19v.437a.267.267,0,0,1-.268.268h-1.17a.267.267,0,0,0-.269.267V35.4a.267.267,0,0,1-.268.268h-.765a.267.267,0,0,1-.268-.268V30.865a.267.267,0,0,0-.267-.267H86.717a.268.268,0,0,1-.268-.268v-.437a.268.268,0,0,1,.268-.268H90.9A.269.269,0,0,1,91.086,29.7Z" fill="#231815"/>
      <path d="M96.764,29.705a.267.267,0,0,1,.077.191v.434a.267.267,0,0,1-.268.268H93.7a.268.268,0,0,0-.267.267V35.4a.267.267,0,0,1-.268.268H92.4a.267.267,0,0,1-.267-.268V29.893a.267.267,0,0,1,.267-.268h4.176A.265.265,0,0,1,96.764,29.705Z" fill="#231815"/>
      <path d="M102.269,30.6h-2.88a.268.268,0,0,0-.268.267V35.4a.269.269,0,0,1-.267.269h-.768a.269.269,0,0,1-.268-.269v-5.51a.267.267,0,0,1,.268-.268h4.18a.267.267,0,0,1,.267.268v.437A.267.267,0,0,1,102.269,30.6Zm-2.093,5.074V34.7h2.358v.972h-2.358Z" fill="#231815"/>
      <path d="M103.025,30.6v-.973h4.715V30.6h-4.715Zm0,5.072V34.7h4.715v.972h-4.715Z" fill="#231815"/>
      <path d="M113.741,33.133V32.16h1.3v.973h-1.3Z" fill="#231815"/>
      <path d="M115.361,33.133V32.16h1.3v.973h-1.3Z" fill="#231815"/>
      <path d="M116.98,33.133V32.16h1.3v.973h-1.3Z" fill="#231815"/>
    </g>
    <g>
      <g>
        <g>
          <path d="M39.084,195.849v.819a.5.5,0,0,1-.5.5h-5.4a.5.5,0,0,0-.5.5v3.755a.5.5,0,0,1-.5.5H30.738a.5.5,0,0,1-.5-.5V191.089a.5.5,0,0,1,.5-.5h1.438a.5.5,0,0,1,.5.5v3.756a.5.5,0,0,0,.5.5h5.4A.5.5,0,0,1,39.084,195.849Z" fill="#231815"/>
          <path d="M60.867,199.284a.5.5,0,0,0,.385.822h4.834a.5.5,0,0,1,.5.5v.821a.5.5,0,0,1-.5.5H58.248a.5.5,0,0,1-.5-.5v-1.141a.5.5,0,0,1,.116-.321l5.61-6.735a.5.5,0,0,0-.386-.822H58.247a.5.5,0,0,1-.5-.5v-.821a.5.5,0,0,1,.5-.5h7.844a.5.5,0,0,1,.5.5v1.141a.5.5,0,0,1-.116.321Z" fill="#231815"/>
          <path d="M87.247,201.931V190.585h2.441v11.346H87.247Z" fill="#231815"/>
          <path d="M119.1,191.091v10.331a.5.5,0,0,1-.5.5H110.76a.5.5,0,0,1-.5-.5v-.816a.5.5,0,0,1,.5-.5h5.4a.5.5,0,0,0,.5-.5v-8.513a.5.5,0,0,1,.5-.5H118.6A.5.5,0,0,1,119.1,191.091Z" fill="#231815"/>
          <path d="M147.782,190.733a.5.5,0,0,1,.148.356v10.339a.5.5,0,0,1-.5.5h-1.437a.5.5,0,0,1-.5-.5V197.67a.5.5,0,0,0-.5-.5h-5.4a.5.5,0,0,1-.5-.5v-.818a.5.5,0,0,1,.5-.5h5.4a.5.5,0,0,0,.5-.5v-3.753a.5.5,0,0,1,.5-.5h1.434A.5.5,0,0,1,147.782,190.733Z" fill="#231815"/>
        </g>
        <g>
          <path d="M84.166,211.215v2.439a1.526,1.526,0,0,1-3.032,0v-2.439h.671V213.6a.844.844,0,0,0,1.686,0v-2.383Zm-1.361-1.2h.644l-.561.83H82.4Z" fill="#231815"/>
          <path d="M84.848,211.215h1.4a1.158,1.158,0,0,1,1.315,1.191,1.07,1.07,0,0,1-.672,1.063l.806,1.48h-.748l-.732-1.367h-.7v1.367h-.67Zm1.3,1.806c.506,0,.733-.214.733-.615s-.227-.629-.733-.629h-.628v1.244Z" fill="#231815"/>
          <path d="M88.8,214.949h-.67v-3.734h.67Z" fill="#231815"/>
          <path d="M90.321,211.215l1.11,2.713h.046l1.109-2.713h.824v3.734h-.644v-2.568h-.037l-1.036,2.557h-.479l-1.037-2.568h-.031v2.579H89.5v-3.734Z" fill="#231815"/>
          <path d="M93.847,214.949l1.314-3.734h.825l1.321,3.734H96.59l-.312-.923H94.873l-.31.923Zm2.251-1.465-.508-1.5h-.031l-.506,1.5Z" fill="#231815"/>
        </g>
        <line x1="30.11" y1="205.031" x2="148.073" y2="205.031" fill="none" stroke="#231815" stroke-miterlimit="10"/>
      </g>
      <g>
        <path d="M85.352,223.228a.332.332,0,0,1-.237.228.684.684,0,0,1-.229.038.541.541,0,0,1-.349-.111c-.238-.2.086-.722.1-.743a.01.01,0,0,1,.014,0l0,.007v.007s-.328.525-.1.716a.6.6,0,0,0,.558.071.311.311,0,0,0,.222-.213.682.682,0,0,0-.076-.521.155.155,0,0,0-.137-.048.242.242,0,0,0-.192.137c-.042.087-.08.286.136.638v.01l-.009.006-.009,0c-.221-.361-.181-.567-.137-.658a.259.259,0,0,1,.209-.148.174.174,0,0,1,.155.054A.71.71,0,0,1,85.352,223.228Z" fill="#231815"/>
        <path d="M85.539,223.479a.011.011,0,0,1-.01.008h0a.008.008,0,0,1-.006-.011,4.378,4.378,0,0,0,.012-.824l0-.007.007,0h0a.009.009,0,0,1,.01.009A4.144,4.144,0,0,1,85.539,223.479Z" fill="#231815"/>
        <path d="M86.632,223.228a.328.328,0,0,1-.236.228.688.688,0,0,1-.229.038.544.544,0,0,1-.35-.111c-.237-.2.086-.722.1-.743a.01.01,0,0,1,.014,0l0,.007v.007s-.33.525-.105.716a.607.607,0,0,0,.559.071.307.307,0,0,0,.222-.213.682.682,0,0,0-.076-.521.156.156,0,0,0-.137-.048.239.239,0,0,0-.192.137c-.042.087-.08.286.136.638v.01l-.009.006-.009,0c-.221-.361-.18-.567-.137-.658a.259.259,0,0,1,.208-.148.173.173,0,0,1,.155.054A.705.705,0,0,1,86.632,223.228Z" fill="#231815"/>
        <path d="M87.358,223.362a.471.471,0,0,1-.32.09,2.058,2.058,0,0,1-.35-.037l-.008-.007,0-.01.009,0c.344.06.545.045.654-.048a.348.348,0,0,0,.094-.294.465.465,0,0,0-.279-.419.232.232,0,0,0-.246.015.158.158,0,0,0-.062.122.162.162,0,0,0,.061.11l.005.007,0,.008H86.9a.184.184,0,0,1-.071-.125.179.179,0,0,1,.07-.138.251.251,0,0,1,.268-.02.49.49,0,0,1,.292.438A.363.363,0,0,1,87.358,223.362Z" fill="#231815"/>
        <path d="M89.163,224.05a.793.793,0,0,1-.6.244.769.769,0,0,1-.462-.141.009.009,0,0,1,0-.014.008.008,0,0,1,.013,0,.832.832,0,0,0,1.038-.1c.128-.162.07-.375,0-.62-.029-.1-.054-.208-.073-.313-.1.269-.285.384-.427.373a.281.281,0,0,1-.239-.224.619.619,0,0,1-.443.23.286.286,0,0,1-.338-.229.6.6,0,0,1,.2-.617.01.01,0,0,1,.015,0,.009.009,0,0,1,0,.013.582.582,0,0,0-.2.6.27.27,0,0,0,.318.213.607.607,0,0,0,.437-.237.622.622,0,0,1-.014-.095c-.021-.264-.012-.442.023-.463a.017.017,0,0,1,.019,0,.786.786,0,0,1,.043.419.312.312,0,0,1-.048.143.265.265,0,0,0,.224.226c.141.011.325-.11.419-.4a.682.682,0,0,1-.008-.079.6.6,0,0,1,.066-.405.018.018,0,0,1,.021,0c.032.025.02.171-.032.393-.008.032-.016.063-.026.092a2.757,2.757,0,0,0,.08.349C89.238,223.662,89.3,223.879,89.163,224.05Zm-.754-.92a.562.562,0,0,0,.01.07.285.285,0,0,0,.034-.114.816.816,0,0,0-.032-.4,1.053,1.053,0,0,0-.012.443Zm.675-.119.012-.046c.066-.285.049-.365.04-.371a.621.621,0,0,0-.055.386Z" fill="#231815"/>
        <path d="M89.971,223.362a.473.473,0,0,1-.321.09,2.046,2.046,0,0,1-.349-.037l-.008-.007v-.01l.011,0c.343.06.544.045.652-.048a.351.351,0,0,0,.1-.294.47.47,0,0,0-.281-.419.233.233,0,0,0-.246.015.158.158,0,0,0-.062.122.171.171,0,0,0,.062.11l0,.007,0,.008a.012.012,0,0,1-.014,0,.184.184,0,0,1-.071-.125.179.179,0,0,1,.07-.138.251.251,0,0,1,.268-.02.491.491,0,0,1,.292.438A.369.369,0,0,1,89.971,223.362Z" fill="#231815"/>
        <path d="M90.245,223.479a.011.011,0,0,1-.01.008h0a.011.011,0,0,1-.007-.011,4.314,4.314,0,0,0,.013-.824l0-.007.007,0h0a.01.01,0,0,1,.01.009A4.222,4.222,0,0,1,90.245,223.479Z" fill="#231815"/>
        <path d="M91.257,223.41l0,.007a.011.011,0,0,1-.009.012l-.042,0-.009,0-.011,0c-.109.011-.219.017-.331.018a.672.672,0,0,1-.373-.072.171.171,0,0,1-.063-.182c.032-.1.163-.161.358-.177a.394.394,0,0,1,.355.215c0-.036-.009-.074-.013-.113a.764.764,0,0,0-.138-.453c-.159-.152-.51.037-.513.039a.011.011,0,0,1-.015,0,.011.011,0,0,1,.005-.015c.015-.007.368-.2.538-.035a.783.783,0,0,1,.144.466,1.571,1.571,0,0,0,.021.168.518.518,0,0,1,.045.121l.039-.005Zm-.078.007-.006-.015a.479.479,0,0,1-.028-.1.613.613,0,0,0-.1-.142.326.326,0,0,0-.238-.11h-.025c-.184.014-.311.074-.341.162a.151.151,0,0,0,.058.159C90.609,223.463,91.015,223.433,91.179,223.417Z" fill="#231815"/>
        <path d="M92.242,223.149c-.079.762-.147,1.12-.148,1.122a.011.011,0,0,1-.01.009h0l-.007,0,0-.007s.062-.321.135-1h0a.511.511,0,0,0-.057.029c-.131.066-.437.221-.609.113a.36.36,0,0,1-.123-.335.521.521,0,0,1,.253-.475.38.38,0,0,1,.386.025A.538.538,0,0,1,92.242,223.149Zm-.2-.5a.356.356,0,0,0-.2-.062.373.373,0,0,0-.164.039.5.5,0,0,0-.241.457c0,.16.034.267.113.316.162.1.461-.049.588-.114.052-.027.065-.033.074-.03,0-.034.008-.069.011-.106A.515.515,0,0,0,92.041,222.647Z" fill="#231815"/>
        <path d="M93.8,222.772l0,.01h-.011a3.433,3.433,0,0,0-.652-.155.481.481,0,0,1,.085.62.45.45,0,0,1-.387.215h-.023a.445.445,0,0,1-.355-.179.6.6,0,0,1,.063-.531.447.447,0,0,1,.47-.169,3.811,3.811,0,0,1,.807.181Zm-.69-.136,0-.012-.124-.019a.842.842,0,0,0-.1-.007.4.4,0,0,0-.35.167.574.574,0,0,0-.06.509.417.417,0,0,0,.337.167.427.427,0,0,0,.391-.205A.455.455,0,0,0,93.114,222.636Z" fill="#231815"/>
      </g>
    </g>
    <g>
      <line x1="41.657" y1="150.155" x2="138.343" y2="150.155" fill="none" stroke="#172e7d" stroke-linecap="round" stroke-linejoin="round" stroke-width="5"/>
      <line x1="41.657" y1="141.211" x2="138.343" y2="141.211" fill="none" stroke="#172e7d" stroke-linecap="round" stroke-linejoin="round" stroke-width="5"/>
      <line x1="41.657" y1="132.267" x2="138.343" y2="132.267" fill="none" stroke="#172e7d" stroke-linecap="round" stroke-linejoin="round" stroke-width="5"/>
      <line x1="41.657" y1="123.323" x2="138.343" y2="123.323" fill="none" stroke="#172e7d" stroke-linecap="round" stroke-linejoin="round" stroke-width="5"/>
      <line x1="41.657" y1="114.379" x2="138.343" y2="114.379" fill="none" stroke="#172e7d" stroke-linecap="round" stroke-linejoin="round" stroke-width="5"/>
      <line x1="41.657" y1="105.435" x2="138.343" y2="105.435" fill="none" stroke="#172e7d" stroke-linecap="round" stroke-linejoin="round" stroke-width="5"/>
      <line x1="41.657" y1="96.491" x2="138.343" y2="96.491" fill="none" stroke="#172e7d" stroke-linecap="round" stroke-linejoin="round" stroke-width="5"/>
      <line x1="41.657" y1="87.547" x2="138.343" y2="87.547" fill="none" stroke="#172e7d" stroke-linecap="round" stroke-linejoin="round" stroke-width="5"/>
      <line x1="41.657" y1="78.602" x2="138.343" y2="78.602" fill="none" stroke="#172e7d" stroke-linecap="round" stroke-linejoin="round" stroke-width="5"/>
      <line x1="41.657" y1="69.658" x2="138.343" y2="69.658" fill="none" stroke="#172e7d" stroke-linecap="round" stroke-linejoin="round" stroke-width="5"/>
    </g>
  </g>
</svg>
