<?xml version="1.0" encoding="utf-8"?>
<!-- Generator: Adobe Illustrator 27.5.0, SVG Export Plug-In . SVG Version: 6.00 Build 0)  -->
<svg version="1.1" id="레이어_1" xmlns="http://www.w3.org/2000/svg" xmlns:xlink="http://www.w3.org/1999/xlink" x="0px"
	 y="0px" viewBox="0 0 36 36" style="enable-background:new 0 0 36 36;" xml:space="preserve">
<style type="text/css">
	.st0{fill:#8E3A3A;}
	.st1{fill:#D18C8C;}
	.st2{fill:#AF5454;}
	.st3{fill:#FFAC33;}
	.st4{fill:#FFE8B6;}
	.st5{fill:#E1E8ED;}
	.st6{fill:#CCD6DD;}
</style>
<path class="st0" d="M35.6,16.3c-2.6-3.8-7.9,1.8-17.7,2.9c-3.6,0.4-6.9,3.4-11,3.1C5.2,22.2,2.8,17.3,1,18
	c-0.9,0.4-1.3,1.8-0.4,2.8l10.5,12.6c0,0,0.5,0.6,2.3,0.2c0.4,0.1,7.1-2.5,11-7.9c0.9-1.3,2-2.4,3.2-3.2c3.7-2.7,7.7-3.7,7.7-3.7
	c0.5-0.4,0.6-0.9,0.6-1.3C36,16.8,35.6,16.3,35.6,16.3z"/>
<path class="st1" d="M11.5,10.3C7.7,15.5,1.1,18,1.1,18c-1.2,1-0.2,2.3-0.2,2.3l10.4,12.4c0,0,0.5,0.6,2.3,0.2c0,0,6.6-2.5,10.4-7.7
	c3.9-5.4,10.9-7.1,10.9-7.1c1.2-1,0.2-2.3,0.2-2.3L24.7,3.3c0,0-0.5-0.6-2.3-0.2C22.4,3.2,15.4,4.9,11.5,10.3z"/>
<circle class="st2" cx="22" cy="14" r="5.5"/>
<path class="st0" d="M12.9,31.9c-0.9,0-1.2-0.3-1.2-0.4l-9.4-11c0,0-0.5-0.6-0.4-1.3c0-0.4,0.3-0.8,0.6-1.1l0.1,0
	c0.1,0,6.2-2.5,9.6-7.1l0.2,0.1l-0.2-0.1c3.6-4.8,9.9-6.9,9.9-6.9c1.7-0.4,2.3,0.2,2.4,0.2l9.3,11c0,0,0.5,0.6,0.4,1.3
	c0,0.4-0.3,0.8-0.6,1.1l-0.1,0c-0.1,0-6.1,1.5-9.6,6.2c-3.5,4.6-9.6,7.6-9.7,7.7C13.6,31.9,13.2,31.9,12.9,31.9z M12,31.2
	c0,0,0.5,0.4,1.9,0.1c0,0,6-3,9.4-7.5c3.4-4.6,9.2-6.2,9.9-6.4c0.3-0.2,0.4-0.5,0.4-0.7c0-0.5-0.3-0.9-0.3-0.9L24,4.8
	c0,0-0.5-0.4-1.9-0.1c0,0-6.1,2-9.7,6.7c-3.4,4.5-9.2,7-9.8,7.2c-0.3,0.2-0.4,0.5-0.4,0.7c0,0.5,0.3,0.9,0.3,0.9L12,31.2z"/>
<path class="st3" d="M21.3,22.2l0,5.9l0.5,0.6c1-0.9,1.9-1.9,2.7-3c0.8-1.2,1.8-2.1,2.8-3l-0.5-0.6L21.3,22.2z"/>
<path class="st4" d="M26.8,22.1L14.3,7.3c-1,0.8-2,1.8-2.8,3c-0.8,1.1-1.8,2.1-2.7,3l1.5,1.7l0,0l11.1,13.1c1-0.9,1.9-1.9,2.7-3
	C24.8,24,25.8,23,26.8,22.1L26.8,22.1L26.8,22.1z"/>
<path class="st5" d="M32.5,32.6C32.5,32.6,32.5,32.6,32.5,32.6c0.1-0.1,0.1-0.2,0.2-0.2c0-0.1,0.1-0.1,0.1-0.2c0,0,0.1-0.1,0.1-0.2
	c1.4-2.2,0.5-5.9-2.3-8.7c-2.8-2.8-6.5-3.7-8.7-2.3c-0.1,0-0.1,0.1-0.2,0.1c-0.1,0-0.1,0.1-0.2,0.1c-0.1,0.1-0.2,0.1-0.2,0.2
	c0,0,0,0,0,0c0,0,0,0,0,0l0,0c-1,1.1-1,2.7,0,3.7c1,1,2.6,1,3.7,0l0,0c0,0,0,0-0.1,0.1c-1.1,1.1-1.1,2.7-0.1,3.8c1,1,2.7,1,3.8-0.1
	c0,0,0,0,0.1-0.1l0,0c-1,1.1-1,2.7,0,3.7C29.7,33.6,31.4,33.6,32.5,32.6L32.5,32.6C32.4,32.6,32.4,32.6,32.5,32.6z"/>
<path class="st6" d="M21.3,25.2c0.9,0.9,2.3,1,3.4,0.3c0.4-0.8,0.6-1.5,0.6-1.7c-2.2,1.6-4.2,0-4.6-1C20.4,23.7,20.6,24.6,21.3,25.2
	z M28.6,29.1c0.3-0.4,0.5-0.8,0.6-1.1c-1.4,1.3-4.1,0.3-4.9-1.7c-0.4,1-0.2,2,0.6,2.8C25.9,30.1,27.5,30.1,28.6,29.1z M32.4,32.7
	L32.4,32.7C32.5,32.6,32.5,32.6,32.4,32.7c0.1-0.1,0.2-0.2,0.2-0.3c0-0.1,0.1-0.1,0.1-0.2c0,0,0.1-0.1,0.1-0.2
	C33,32,33,31.9,33,31.8c-2.5,1.1-4.4-0.8-4.9-1.7c-0.3,0.9-0.1,1.9,0.6,2.7C29.7,33.7,31.4,33.7,32.4,32.7
	C32.4,32.7,32.4,32.7,32.4,32.7z"/>
<path class="st5" d="M14,12.5L14,12.5c0.1-0.1,0.1-0.2,0.2-0.2c0-0.1,0.1-0.1,0.1-0.2c0-0.1,0.1-0.1,0.1-0.2
	c1.4-2.2,0.5-5.9-2.3-8.7C9.3,0.4,5.5-0.5,3.4,0.9C3.3,1,3.3,1,3.2,1c-0.1,0-0.1,0.1-0.2,0.1C3,1.2,2.9,1.3,2.8,1.3c0,0,0,0,0,0
	c0,0,0,0,0,0l0,0c-1,1.1-1,2.7,0,3.7s2.7,1,3.7,0l0,0c0,0,0,0-0.1,0.1C5.4,6.2,5.3,7.9,6.4,8.9s2.7,1,3.8-0.1c0,0,0,0,0.1-0.1l0,0
	c-1,1.1-1,2.7,0,3.7C11.2,13.5,12.9,13.5,14,12.5L14,12.5C13.9,12.5,13.9,12.5,14,12.5z"/>
<path class="st6" d="M2.8,5.1c0.9,0.9,2.3,1,3.4,0.3c0.4-0.8,0.6-1.5,0.6-1.7c-2.2,1.6-4.2,0-4.6-1C1.9,3.5,2.1,4.5,2.8,5.1z
	 M10.1,8.9c0.3-0.4,0.5-0.8,0.6-1.1C9.3,9.1,6.6,8.2,5.8,6.1c-0.4,0.9-0.2,2,0.6,2.8C7.4,9.9,9,9.9,10.1,8.9z M13.9,12.5
	C13.9,12.5,13.9,12.5,13.9,12.5L13.9,12.5c0.1-0.1,0.2-0.2,0.2-0.3c0-0.1,0.1-0.1,0.1-0.2c0-0.1,0.1-0.1,0.1-0.2
	c0.1-0.1,0.1-0.2,0.2-0.3c-2.5,1.1-4.4-0.8-4.9-1.7c-0.3,0.9-0.1,1.9,0.6,2.7C11.2,13.5,12.9,13.5,13.9,12.5
	C13.9,12.5,13.9,12.5,13.9,12.5z"/>
<path class="st0" d="M14.5,26.4l-2-2.6l1.2-1c0.3-0.3,0.4-0.7,0.1-1.1c-0.3-0.3-0.7-0.4-1.1-0.1l-1.2,1l-1.5-2l1.8-1.4
	c0.3-0.3,0.4-0.7,0.1-1.1c-0.3-0.3-0.7-0.4-1.1-0.1l-2.4,1.9c0,0,0,0,0,0s0,0,0,0l-2.4,1.9C5.8,22,5.7,22.5,6,22.8
	c0.1,0.2,0.4,0.3,0.6,0.3c0.2,0,0.3-0.1,0.5-0.2l1.8-1.4l1.5,2l-1.2,1c-0.3,0.3-0.4,0.7-0.1,1.1c0.1,0.2,0.4,0.3,0.6,0.3
	c0.2,0,0.3-0.1,0.5-0.2l1.2-1l2,2.6c0.1,0.2,0.4,0.3,0.6,0.3c0.2,0,0.3-0.1,0.5-0.2C14.7,27.2,14.8,26.8,14.5,26.4z"/>
</svg>
