<?xml version="1.0" encoding="UTF-8"?>
<svg id="a" data-name="레이어 1" xmlns="http://www.w3.org/2000/svg" width="512" height="512" viewBox="0 0 512 512">
  <g>
    <path d="M256,507c-67.044,0-130.076-26.108-177.484-73.517C31.108,386.076,5,323.045,5,256S31.108,125.924,78.516,78.516,188.956,5,256,5s130.076,26.108,177.483,73.516c47.408,47.408,73.517,110.439,73.517,177.484s-26.108,130.076-73.517,177.483c-47.407,47.408-110.438,73.517-177.483,73.517Z" fill="#dbdbdb" stroke-width="0"/>
    <path d="M256,10c33.214,0,65.43,6.503,95.751,19.328,29.292,12.39,55.602,30.128,78.197,52.724,22.595,22.595,40.334,48.905,52.724,78.197,12.825,30.322,19.328,62.537,19.328,95.751s-6.503,65.43-19.328,95.751c-12.39,29.292-30.128,55.602-52.724,78.197s-48.905,40.334-78.197,52.724c-30.322,12.825-62.537,19.328-95.751,19.328s-65.43-6.503-95.751-19.328c-29.292-12.39-55.602-30.128-78.197-52.724-22.595-22.595-40.334-48.905-52.724-78.197-12.825-30.322-19.328-62.537-19.328-95.751s6.503-65.43,19.328-95.751c12.39-29.292,30.128-55.602,52.724-78.197,22.595-22.595,48.905-40.334,78.197-52.724,30.322-12.825,62.537-19.328,95.751-19.328M256,0C114.615,0,0,114.615,0,256s114.615,256,256,256,256-114.615,256-256S397.385,0,256,0h0Z" fill="#7f7f7f" stroke-width="0"/>
  </g>
  <path d="M256,28c30.782,0,60.641,6.028,88.746,17.915,27.149,11.483,51.533,27.924,72.474,48.864,20.941,20.941,37.381,45.325,48.864,72.474,11.888,28.106,17.915,57.964,17.915,88.746s-6.028,60.641-17.915,88.746c-11.483,27.149-27.924,51.533-48.864,72.474-20.941,20.941-45.325,37.381-72.474,48.864-28.106,11.888-57.964,17.915-88.746,17.915s-60.641-6.028-88.746-17.915c-27.15-11.483-51.533-27.924-72.474-48.864-20.941-20.941-37.381-45.325-48.864-72.474-11.888-28.106-17.915-57.964-17.915-88.746s6.028-60.641,17.915-88.746c11.483-27.15,27.924-51.533,48.864-72.474,20.941-20.941,45.325-37.381,72.474-48.864,28.106-11.888,57.964-17.915,88.746-17.915M256,23C127.318,23,23,127.318,23,256s104.318,233,233,233,233-104.318,233-233S384.682,23,256,23h0Z" fill="#7f7f7f" stroke-width="0"/>
  <g>
    <path d="M261.486,160.75h-4.551v-41.412h-.271l-10.928,7.21v-4.641l11.041-7.3h4.708v46.144Z" fill="#7f7f7f" stroke-width="0"/>
    <g>
      <path d="M221.055,248.789c-8.105-4.686-17.176-7.03-27.21-7.03-6.286,0-12.24.951-17.864,2.853-5.624,1.902-10.642,4.646-15.052,8.229-4.412,3.585-7.913,7.83-10.504,12.737h-1.489c.054-11.137,1.433-20.745,4.135-28.823,2.701-8.077,6.671-14.279,11.91-18.609,5.238-4.328,11.633-6.492,19.188-6.492,4.52,0,8.587.759,12.199,2.274,3.611,1.517,6.617,3.736,9.015,6.658,2.398,2.923,4.065,6.341,5.003,10.255h34.654c-1.158-9.317-4.412-17.74-9.759-25.266-5.349-7.526-12.434-13.426-21.255-17.699-8.822-4.272-18.774-6.41-29.856-6.41-14.06,0-26.329,3.612-36.804,10.834-10.477,7.224-18.567,17.672-24.274,31.345-5.707,13.675-8.588,29.913-8.643,48.713,0,19.685,3.129,35.702,9.387,48.053,6.257,12.352,14.515,21.27,24.771,26.755,10.255,5.487,21.669,8.256,34.24,8.312,12.516.055,23.639-2.425,33.372-7.443,9.73-5.017,17.271-12.02,22.62-21.007,5.348-8.986,8.022-19.188,8.022-30.602,0-10.421-2.274-19.794-6.823-28.119-4.548-8.325-10.875-14.832-18.98-19.519ZM208.855,312.844c-2.62,4.604-6.231,8.244-10.834,10.918-4.604,2.675-9.718,4.011-15.342,4.011-5.68,0-10.808-1.364-15.383-4.094-4.577-2.729-8.188-6.396-10.834-11-2.646-4.604-3.97-9.635-3.97-15.094.054-5.459,1.419-10.504,4.094-15.135,2.674-4.632,6.327-8.298,10.958-11,4.631-2.701,9.759-4.053,15.383-4.053,5.678,0,10.793,1.311,15.342,3.929,4.549,2.619,8.105,6.244,10.669,10.876,2.564,4.631,3.817,9.704,3.763,15.218.054,5.679-1.228,10.821-3.846,15.424Z" fill="#7f7f7f" stroke-width="0"/>
      <path d="M398.465,294.938h-21.338v-111.156h-44.165l-71.705,111.652v27.706h82.292v30.022h33.578v-30.022h21.338v-28.202ZM296.737,293.615l45.736-71.292h1.571v72.616h-47.308v-1.323Z" fill="#7f7f7f" stroke-width="0"/>
    </g>
    <rect x="235.388" y="167.696" width="41.226" height="4" fill="#7f7f7f" stroke-width="0"/>
  </g>
  <g>
    <path d="M79.435,363.948l1.522-1.062,14.046,20.141-1.522,1.062-14.046-20.141Z" fill="#7f7f7f" stroke-width="0"/>
    <path d="M109.62,386.448l-5.233,4.744.232.256c.739.815,1.53,1.174,2.375,1.077.844-.098,1.812-.549,2.902-1.353l.327.36-6.731,6.102-.327-.36c.665-.74,1.12-1.444,1.367-2.111.247-.668.305-1.235.174-1.704-.131-.468-.475-1.009-1.03-1.622l-3.621,3.283c-.708.642-1.114,1.063-1.217,1.267-.104.204-.132.434-.083.689.047.256.238.567.57.934l.696.768c1.088,1.201,2.239,1.911,3.451,2.131,1.212.22,2.53-.028,3.954-.743l.318.351-4.61,3.125-10.072-11.11.351-.318.387.427c.338.373.676.613,1.016.721.237.084.503.072.799-.033.214-.068.644-.395,1.289-.979l8.456-7.666c.582-.527.924-.866,1.028-1.019.164-.264.229-.535.194-.814-.041-.401-.25-.81-.628-1.227l-.387-.427.351-.318,9.754,10.76-3.802,3.446-.326-.36c.763-1.025,1.196-1.887,1.3-2.586.104-.698-.025-1.437-.385-2.215-.207-.458-.752-1.173-1.634-2.146l-1.203-1.328Z" fill="#7f7f7f" stroke-width="0"/>
    <path d="M120.229,396.072l-10.454,10.573c-.594.601-.904,1.053-.929,1.357s.153.671.536,1.097l-.324.327-4.595-4.543.324-.327c.388.359.775.526,1.161.5.259-.02.686-.33,1.28-.931l8.708-8.808c.587-.595.894-1.044.919-1.349s-.15-.667-.526-1.088l.333-.336,3.567,3.526Z" fill="#7f7f7f" stroke-width="0"/>
    <path d="M120.769,403.979l-6.464,6.936c-.576.618-.872,1.08-.888,1.385-.017.306.173.666.568,1.08l-.314.337-4.727-4.405.314-.337c.398.349.791.504,1.175.466.259-.027.676-.35,1.251-.968l4.763-5.11c.576-.618.872-1.08.888-1.385.017-.306-.169-.663-.558-1.071l.323-.347,3.669,3.42ZM123.411,398.518c.405.378.616.84.632,1.386s-.162,1.018-.534,1.417c-.373.399-.832.607-1.377.624-.546.016-1.018-.162-1.417-.534s-.609-.83-.628-1.372c-.019-.543.158-1.014.53-1.413s.831-.61,1.376-.633c.545-.021,1.018.153,1.417.525Z" fill="#7f7f7f" stroke-width="0"/>
    <path d="M124.818,409.236l-5.458,6.259c-.527.604-.793,1.039-.799,1.306-.002.417.282.857.852,1.32l-.303.348-5.314-4.635.303-.347c.41.347.739.551.985.612.246.062.468.044.667-.054.199-.099.511-.392.938-.881l5.458-6.259-1.312-1.144.824-.945,1.312,1.145.58-.666.386-.461c.808-.926,1.819-1.402,3.036-1.428,1.216-.025,2.403.467,3.561,1.476.791.689,1.248,1.35,1.373,1.979.124.629.03,1.124-.284,1.484-.252.289-.59.436-1.013.44-.423.005-.831-.164-1.223-.506-.334-.292-.524-.609-.569-.954-.044-.345.026-.623.211-.835.05-.059.173-.16.369-.307.121-.087.224-.179.308-.274.118-.136.167-.269.145-.4-.019-.187-.102-.344-.25-.473-.187-.163-.41-.222-.67-.177-.26.045-.539.238-.835.579l-1.453,1.704-1,1.147,1.331,1.161-.824.944-1.331-1.16Z" fill="#7f7f7f" stroke-width="0"/>
    <path d="M126.059,421.812c-1.943.104-3.37-.204-4.279-.924-.535-.424-.841-.951-.917-1.583-.076-.632.095-1.212.513-1.74.566-.716,1.384-1.116,2.452-1.2,1.068-.085,3.011.217,5.83.903l.747-.943c.562-.708.876-1.186.945-1.43.068-.245.05-.521-.055-.827s-.292-.566-.559-.777c-.435-.345-.87-.531-1.304-.56-.27-.018-.468.055-.595.215-.111.141-.155.389-.132.744.026.488-.066.867-.278,1.134-.26.328-.603.511-1.03.548-.427.038-.837-.1-1.232-.412-.421-.334-.673-.74-.756-1.22-.083-.479.011-.889.281-1.23.381-.481.936-.79,1.664-.926.728-.137,1.526-.052,2.393.255.868.306,1.669.75,2.405,1.333.889.704,1.443,1.45,1.663,2.238.219.789.231,1.464.035,2.027-.129.355-.593,1.038-1.393,2.048l-2.884,3.641c-.339.429-.536.711-.589.848-.054.137-.069.258-.044.364.024.106.08.194.167.264.174.138.449.154.826.05l.11.479c-.727.23-1.357.315-1.893.257-.535-.06-1.03-.27-1.485-.63-.535-.424-.854-.88-.956-1.369-.102-.488.014-1.014.35-1.575ZM126.639,421.079l2.486-3.14c-1.186-.166-2.189-.134-3.013.095-.547.155-.966.416-1.257.784-.244.308-.348.666-.312,1.074.024.313.187.589.488.827.334.265.87.385,1.608.359Z" fill="#7f7f7f" stroke-width="0"/>
    <path d="M139.57,424.86l-.565,4.417c-.202,1.535-.237,2.573-.105,3.114.076.293.273.561.592.805l-.264.378-5.459-3.827.265-.377c.45.264.753.393.908.387s.279-.075.373-.208c.137-.195.241-.581.311-1.157l.268-2.188-1.465.552c-.666.252-1.052.408-1.157.47-.149.094-.26.192-.333.298-.113.16-.174.318-.184.473-.009.155.025.299.104.433.079.133.271.307.579.522l-.265.377-3.834-2.688.264-.378c.475.333,1.001.507,1.58.521.578.015,1.634-.269,3.167-.851l1.644-.629.502-4.305c.163-1.406.189-2.32.079-2.742-.111-.421-.324-.764-.64-1.026l.271-.388,5.427,3.805-.271.388-.291-.188-.677-.193c-.09.01-.174.07-.253.182-.073.105-.132.226-.175.361-.013.064-.048.321-.103.771l-.234,1.962.795-.287c1.097-.377,1.754-.719,1.969-1.026.103-.146.128-.313.078-.5-.051-.187-.222-.408-.512-.663l.272-.388,3.468,2.431-.271.388c-.436-.284-.926-.433-1.47-.444s-1.296.178-2.257.566l-2.128.853Z" fill="#7f7f7f" stroke-width="0"/>
    <path d="M146.313,435.877c-1.918.33-3.371.19-4.358-.419-.581-.358-.946-.847-1.095-1.466-.149-.618-.047-1.214.307-1.788.479-.776,1.245-1.269,2.295-1.478,1.051-.208,3.016-.136,5.896.218l.631-1.023c.475-.77.732-1.279.772-1.53.04-.252-.011-.523-.151-.815-.141-.292-.356-.528-.646-.707-.472-.291-.925-.426-1.36-.403-.27.014-.458.108-.565.282-.094.152-.109.404-.045.755.083.482.035.869-.144,1.159-.219.355-.539.577-.958.664-.419.086-.843-.002-1.271-.267-.458-.282-.755-.656-.894-1.123-.138-.466-.093-.884.135-1.255.323-.522.837-.894,1.545-1.113.707-.221,1.509-.229,2.407-.026.897.203,1.745.551,2.543,1.044.965.596,1.603,1.272,1.912,2.03.31.757.4,1.427.271,2.009-.086.367-.468,1.1-1.145,2.195l-2.439,3.953c-.287.464-.449.768-.486.91-.038.142-.039.265-.001.367.037.103.102.184.197.242.188.116.464.101.826-.047l.166.463c-.695.313-1.312.472-1.85.475-.539.004-1.055-.147-1.548-.451-.581-.359-.95-.775-1.109-1.249s-.104-1.009.164-1.605ZM146.804,435.082l2.104-3.408c-1.197-.026-2.19.122-2.982.445-.525.218-.911.526-1.157.925-.207.334-.268.702-.185,1.104.06.308.254.562.581.764.363.225.909.281,1.639.17Z" fill="#7f7f7f" stroke-width="0"/>
    <path d="M162.874,433.211l-1.794,3.672-.381-.209c.126-1.312.051-2.298-.226-2.955-.277-.657-.658-1.12-1.145-1.386-.307-.169-.625-.209-.955-.122-.33.086-.568.265-.716.533-.111.202-.143.438-.096.707.071.438.453,1.33,1.144,2.678.691,1.347,1.069,2.376,1.131,3.086.063.711-.082,1.388-.435,2.031-.32.583-.78,1.075-1.379,1.477s-1.247.605-1.941.613c-.695.008-1.365-.164-2.008-.517-.501-.275-1.084-.799-1.75-1.572-.179-.206-.31-.331-.392-.376-.247-.136-.555-.062-.925.223l-.37-.203,1.887-3.868.381.209c-.205,1.172-.149,2.166.168,2.981.316.815.736,1.367,1.26,1.654.359.196.713.247,1.062.151s.61-.3.782-.614c.197-.359.255-.73.174-1.116-.081-.385-.365-1.056-.852-2.014-.709-1.42-1.118-2.432-1.225-3.035-.157-.884-.033-1.696.373-2.437.443-.809,1.123-1.387,2.039-1.735.916-.35,1.901-.234,2.956.344.568.312,1.042.752,1.422,1.319.14.223.274.369.401.439.135.073.258.104.372.094.113-.011.331-.098.654-.262l.382.209Z" fill="#7f7f7f" stroke-width="0"/>
    <path d="M181.297,436.331l-5.616,12.57c-.379.849-.581,1.362-.603,1.538-.053.285-.019.529.101.732.119.202.39.417.812.643l-.172.386-5.017-1.162.772-1.729c-.852.423-1.548.658-2.088.706-.54.049-1.083-.049-1.628-.292-1.395-.623-2.218-1.738-2.471-3.347-.202-1.305.026-2.693.684-4.165.525-1.176,1.198-2.139,2.019-2.889s1.69-1.205,2.607-1.365,1.781-.06,2.591.303c.521.232.94.541,1.254.925.314.383.588.931.822,1.643l1.472-3.295c.373-.833.562-1.352.568-1.554.007-.268-.058-.498-.196-.69s-.464-.404-.979-.634l.219-.49,4.849,2.166ZM174.717,442.276c-.083-1.363-.54-2.231-1.374-2.604-.288-.129-.561-.157-.817-.085-.396.113-.822.432-1.276.958-.455.525-.962,1.415-1.522,2.669-.616,1.379-.971,2.444-1.063,3.197-.093.752-.031,1.354.188,1.808.113.228.325.411.637.551.686.306,1.572.058,2.66-.746l2.568-5.748Z" fill="#7f7f7f" stroke-width="0"/>
    <path d="M181.024,444.923l.203-.525c1.077-.041,1.946-.298,2.608-.77.662-.471,1.122-1.041,1.38-1.71.049-.127.06-.237.032-.33-.031-.085-.075-.139-.13-.16-.047-.019-.13-.019-.247,0-.283.046-.596.003-.938-.129-.47-.182-.807-.522-1.012-1.021-.205-.5-.212-.996-.021-1.49.203-.525.58-.909,1.131-1.154.551-.244,1.109-.257,1.675-.039.684.265,1.167.755,1.448,1.472.281.716.244,1.536-.113,2.459-.439,1.139-1.174,2.016-2.203,2.634-1.029.617-2.3.872-3.813.764Z" fill="#7f7f7f" stroke-width="0"/>
    <path d="M194.731,442.312l-2.15,6.728.329.105c1.048.335,1.913.249,2.595-.259.681-.508,1.292-1.383,1.833-2.625l.463.148-2.766,8.653-.463-.148c.204-.974.245-1.811.125-2.512-.121-.701-.355-1.222-.704-1.562s-.917-.636-1.705-.888l-1.488,4.656c-.291.91-.43,1.479-.417,1.707.012.228.103.44.273.638.169.197.49.372.961.522l.987.315c1.543.493,2.895.531,4.054.113,1.159-.418,2.175-1.293,3.049-2.626l.451.145-2.422,5.016-14.285-4.564.145-.451.548.175c.479.153.893.191,1.24.114.248-.046.472-.189.674-.43.152-.166.36-.664.625-1.492l3.474-10.872c.239-.748.365-1.214.379-1.397.01-.31-.07-.577-.241-.802-.236-.326-.622-.575-1.158-.746l-.549-.176.145-.451,13.833,4.421-1.562,4.888-.463-.148c.146-1.27.089-2.232-.171-2.889-.261-.656-.742-1.231-1.444-1.725-.409-.291-1.238-.637-2.49-1.037l-1.706-.545Z" fill="#7f7f7f" stroke-width="0"/>
    <path d="M207.616,450.577l-.653,2.633c1.067-1.009,1.94-1.639,2.617-1.889.677-.249,1.284-.308,1.823-.174.463.115.799.35,1.005.704s.245.792.116,1.313c-.138.556-.379.952-.724,1.192-.345.239-.708.312-1.089.218-.439-.109-.785-.345-1.038-.706-.253-.361-.405-.566-.455-.613-.07-.07-.16-.119-.267-.146-.24-.06-.49-.024-.75.104-.41.197-.766.535-1.069,1.014-.464.738-.816,1.591-1.057,2.56l-.662,2.67-.16.699c-.117.472-.163.781-.138.928.044.248.15.448.319.6.169.152.482.298.939.438l-.111.447-6.271-1.555.111-.447c.515.084.891.029,1.127-.162.237-.192.48-.793.73-1.803l1.592-6.421c.164-.663.236-1.093.215-1.292-.025-.252-.104-.451-.234-.599-.131-.146-.39-.289-.777-.43l.114-.459,4.745,1.176Z" fill="#7f7f7f" stroke-width="0"/>
    <path d="M217.362,463.117c-1.674.993-3.081,1.382-4.22,1.165-.67-.127-1.186-.453-1.546-.978s-.478-1.117-.352-1.779c.17-.896.709-1.63,1.616-2.2s2.769-1.204,5.584-1.902l.225-1.182c.169-.889.227-1.457.174-1.706-.053-.248-.197-.484-.432-.707-.236-.223-.521-.366-.856-.43-.545-.104-1.016-.067-1.414.109-.247.109-.389.265-.427.466-.033.176.042.416.228.721.25.421.343.799.279,1.134-.078.411-.297.731-.658.963-.361.23-.789.299-1.283.205-.528-.101-.939-.343-1.235-.729-.296-.386-.403-.793-.322-1.221.115-.603.463-1.134,1.045-1.592s1.328-.753,2.239-.884,1.827-.108,2.749.066c1.115.212,1.952.616,2.511,1.213s.883,1.19.971,1.78c.05.374-.045,1.194-.285,2.459l-.867,4.563c-.102.536-.146.878-.129,1.023.016.146.059.262.13.344.071.084.161.135.27.156.218.041.469-.071.754-.339l.32.373c-.537.541-1.056.909-1.558,1.104-.502.195-1.038.239-1.607.131-.67-.127-1.164-.384-1.481-.77-.318-.386-.458-.905-.42-1.559ZM217.537,462.2l.748-3.936c-1.127.403-2.002.896-2.626,1.481-.413.391-.663.816-.75,1.277-.073.385,0,.751.221,1.097.167.266.438.435.815.507.419.079.95-.062,1.592-.427Z" fill="#7f7f7f" stroke-width="0"/>
    <path d="M230.745,459.55l1.549,4.175c.534,1.454.984,2.391,1.352,2.808.203.225.502.37.898.439l-.059.456-6.611-.857.06-.457c.521.025.849,0,.984-.078.134-.077.212-.196.233-.357.031-.236-.056-.626-.261-1.169l-.778-2.062-1.042,1.168c-.473.532-.742.851-.807.954-.089.151-.141.291-.158.418-.025.194-.006.362.057.504s.161.253.292.335c.131.081.383.146.755.194l-.059.457-4.645-.603.06-.457c.575.075,1.122-.016,1.642-.271.519-.255,1.323-.996,2.411-2.223l1.165-1.319-1.552-4.047c-.508-1.321-.909-2.144-1.203-2.466-.294-.321-.642-.526-1.043-.612l.061-.47,6.573.853-.061.47-.344-.032-.689.144c-.076.05-.122.144-.139.278-.017.127-.013.261.012.401.018.062.106.307.267.731l.702,1.846.571-.622c.797-.843,1.22-1.45,1.269-1.823.023-.177-.032-.337-.164-.479-.132-.142-.386-.259-.761-.351l.061-.47,4.2.545-.061.47c-.518-.05-1.021.046-1.508.288s-1.066.759-1.736,1.549l-1.49,1.742Z" fill="#7f7f7f" stroke-width="0"/>
    <path d="M245.657,461.816l-6.546-.487c-.042,1.588.287,2.869.983,3.845.535.75,1.214,1.156,2.04,1.218.51.037.984-.07,1.423-.324.438-.254.922-.733,1.454-1.438l.413.312c-.745,1.271-1.529,2.151-2.353,2.642s-1.75.697-2.779.62c-1.77-.132-3.059-.912-3.867-2.341-.65-1.152-.914-2.54-.793-4.165.148-1.99.804-3.535,1.968-4.633,1.164-1.099,2.469-1.594,3.915-1.485,1.208.09,2.219.663,3.035,1.721.815,1.058,1.184,2.562,1.107,4.516ZM242.582,460.728c.102-1.369.097-2.315-.013-2.837-.111-.521-.314-.926-.609-1.213-.167-.166-.4-.261-.698-.283-.442-.032-.82.157-1.133.57-.559.72-.887,1.739-.985,3.058l-.034.446,3.471.259Z" fill="#7f7f7f" stroke-width="0"/>
    <path d="M251.102,456.398l-.025,1.549c.625-.655,1.221-1.13,1.79-1.423.568-.294,1.176-.436,1.824-.425.776.013,1.417.239,1.921.678.504.439.836.98.997,1.623.129.488.182,1.424.159,2.806l-.077,4.656c-.016.921.059,1.496.221,1.726.163.229.508.377,1.036.445l-.008.461-6.052-.101.008-.46c.453-.053.78-.234.981-.547.14-.211.217-.739.231-1.583l.088-5.322c.017-.981-.012-1.601-.084-1.857-.072-.257-.199-.458-.38-.602s-.382-.217-.604-.221c-.734-.013-1.425.501-2.073,1.54l-.106,6.409c-.015.896.059,1.465.222,1.706.162.241.469.396.92.463l-.007.461-6.052-.101.008-.46c.504-.043.865-.199,1.083-.469.148-.186.23-.738.245-1.66l.112-6.755c.015-.903-.059-1.468-.222-1.692s-.508-.375-1.036-.452l.008-.474,4.875.08Z" fill="#7f7f7f" stroke-width="0"/>
    <path d="M264.1,456.301l.287,9.478c.025.844.14,1.381.343,1.609s.591.351,1.164.368l.014.46-6.459.195-.014-.46c.528-.033.915-.198,1.162-.496.165-.201.234-.724.209-1.568l-.212-6.983c-.025-.844-.14-1.38-.343-1.608s-.587-.352-1.15-.368l-.015-.474,5.014-.152ZM262.134,450.562c.554-.017,1.029.163,1.425.54.395.376.601.837.617,1.383s-.163,1.016-.539,1.411c-.377.396-.838.602-1.384.618-.545.017-1.016-.161-1.411-.533s-.602-.831-.618-1.377c-.016-.545.161-1.018.533-1.418.372-.399.831-.607,1.377-.624Z" fill="#7f7f7f" stroke-width="0"/>
    <path d="M269.728,450.601l.885,14.842c.051.844.181,1.376.391,1.599s.601.334,1.173.334l.028.46-6.451.384-.027-.459c.527-.049.91-.226,1.148-.53.158-.206.213-.73.162-1.573l-.737-12.364c-.05-.835-.18-1.363-.389-1.586-.21-.222-.597-.334-1.161-.334l-.028-.473,5.007-.299Z" fill="#7f7f7f" stroke-width="0"/>
    <path d="M282.813,454.742l1.001,9.313c.098.907.243,1.464.438,1.671.193.206.553.312,1.076.315l.05.458-4.848.521-.171-1.591c-.495.74-1.011,1.295-1.546,1.666-.534.37-1.154.594-1.858.669-.67.072-1.287-.069-1.854-.425-.565-.355-.968-.799-1.205-1.331s-.43-1.485-.577-2.859l-.508-4.72c-.097-.898-.239-1.449-.429-1.652s-.55-.31-1.083-.321l-.051-.471,4.847-.521.875,8.13c.091.848.189,1.391.297,1.628s.254.41.441.519.396.15.625.126c.306-.033.572-.143.801-.33.315-.258.675-.746,1.078-1.468l-.684-6.361c-.097-.898-.24-1.449-.429-1.652-.189-.202-.551-.31-1.084-.321l-.051-.471,4.848-.521Z" fill="#7f7f7f" stroke-width="0"/>
    <path d="M289.072,453.747l1.462,9.368c.131.835.311,1.353.541,1.554.229.202.63.275,1.2.221l.07.455-6.384.997-.071-.455c.52-.099.884-.311,1.092-.637.139-.22.143-.747.013-1.582l-1.078-6.902c-.13-.835-.311-1.353-.54-1.554-.23-.202-.626-.276-1.188-.223l-.073-.468,4.956-.774ZM286.408,448.297c.548-.086,1.041.034,1.48.358.438.324.7.756.785,1.295.084.54-.036,1.029-.36,1.468-.324.439-.757.701-1.296.785s-1.028-.033-1.467-.354-.699-.75-.784-1.289c-.084-.539.034-1.03.354-1.474.319-.442.748-.706,1.288-.79Z" fill="#7f7f7f" stroke-width="0"/>
    <path d="M295.116,452.646l.312,1.517c.468-.775.946-1.368,1.437-1.778.491-.41,1.054-.681,1.688-.812.761-.156,1.435-.074,2.022.244.589.319,1.03.774,1.326,1.367.231.448.487,1.35.766,2.703l.938,4.562c.186.902.383,1.447.592,1.635.208.188.577.259,1.107.21l.093.451-5.929,1.22-.093-.451c.432-.149.711-.399.84-.748.09-.236.051-.768-.119-1.595l-1.072-5.214c-.197-.961-.36-1.56-.486-1.795-.127-.234-.295-.402-.503-.504-.208-.101-.42-.129-.638-.084-.719.147-1.281.799-1.688,1.954l1.292,6.279c.181.877.376,1.416.587,1.616s.544.284.999.252l.093.451-5.929,1.219-.093-.451c.483-.151.802-.382.955-.692.104-.213.063-.771-.122-1.673l-1.36-6.618c-.183-.886-.377-1.42-.585-1.604-.208-.185-.577-.256-1.109-.217l-.095-.464,4.774-.981Z" fill="#7f7f7f" stroke-width="0"/>
    <path d="M310.491,448.643l1.229,3.897-.421.111c-.812-1.038-1.546-1.7-2.199-1.986s-1.248-.358-1.784-.217c-.338.089-.597.278-.776.568-.179.29-.229.584-.151.881.06.223.198.415.418.578.353.269,1.244.652,2.674,1.153,1.429.5,2.411.986,2.945,1.458.535.472.896,1.062,1.084,1.771.17.644.176,1.317.018,2.021s-.487,1.298-.985,1.782c-.499.484-1.103.82-1.812,1.008-.553.146-1.337.168-2.352.065-.271-.025-.453-.026-.543-.002-.272.071-.445.338-.518.798l-.408.108-1.296-4.104.421-.111c.658.99,1.384,1.673,2.175,2.046s1.476.483,2.053.331c.396-.104.688-.312.875-.621.187-.31.235-.638.144-.984-.104-.396-.318-.705-.643-.929-.323-.224-.992-.515-2.004-.874-1.493-.54-2.486-.993-2.979-1.356-.723-.532-1.192-1.207-1.407-2.023-.235-.891-.142-1.778.282-2.662s1.218-1.479,2.38-1.787c.627-.165,1.273-.173,1.939-.022.256.064.453.079.594.042.148-.039.26-.102.334-.188s.173-.3.294-.641l.421-.111Z" fill="#7f7f7f" stroke-width="0"/>
    <path d="M325.997,438.21l4.592,12.98c.311.876.518,1.387.623,1.53.158.242.351.396.577.461s.57.033,1.032-.094l.141.398-4.437,2.614-.631-1.785c-.327.894-.669,1.544-1.027,1.951-.357.407-.818.71-1.381.909-1.44.509-2.806.269-4.097-.723-1.046-.807-1.837-1.97-2.375-3.489-.43-1.215-.605-2.376-.527-3.485.078-1.108.395-2.037.949-2.785s1.249-1.27,2.086-1.566c.539-.19,1.055-.255,1.547-.193.491.061,1.067.269,1.727.624l-1.203-3.402c-.305-.86-.524-1.366-.659-1.518-.179-.199-.385-.32-.617-.365-.233-.044-.615.027-1.146.216l-.18-.507,5.006-1.771ZM325.325,447.053c-.999-.931-1.929-1.244-2.789-.94-.298.105-.515.272-.65.502-.21.354-.298.879-.265,1.573.032.693.278,1.688.736,2.983.503,1.423.98,2.439,1.432,3.049.45.61.911,1.004,1.381,1.181.239.088.52.074.842-.039.707-.25,1.179-1.041,1.413-2.373l-2.1-5.936Z" fill="#7f7f7f" stroke-width="0"/>
    <path d="M340.761,443.89l-6.049,2.551c.688,1.432,1.563,2.424,2.629,2.974.817.424,1.607.476,2.37.154.472-.199.845-.512,1.118-.938.274-.426.487-1.073.64-1.942l.51.09c-.084,1.471-.38,2.611-.89,3.424-.51.812-1.239,1.418-2.19,1.819-1.635.689-3.139.582-4.51-.321-1.104-.729-1.972-1.844-2.604-3.345-.775-1.84-.896-3.513-.36-5.021.535-1.508,1.471-2.543,2.808-3.106,1.116-.471,2.278-.421,3.485.148s2.222,1.741,3.044,3.514ZM335.114,433.759l-2.178,5.737-1.014.427-.357-4.668,3.549-1.496ZM337.527,444.323c-.533-1.266-.969-2.105-1.305-2.519-.337-.414-.702-.682-1.096-.803-.225-.071-.475-.05-.749.066-.409.173-.658.514-.749,1.023-.169.896.004,1.952.518,3.171l.174.412,3.207-1.352Z" fill="#7f7f7f" stroke-width="0"/>
    <path d="M354.261,424.705l-1.267,19.252,2.911-1.557c1.376-.736,2.293-1.338,2.749-1.805.751-.75,1.255-1.66,1.514-2.732.259-1.071.187-2.283-.218-3.635l.44-.235,2.337,5.86-14.014,7.496,1.267-19.28-2.268,1.213c-.881.471-1.445.807-1.695,1.008-.475.38-.865.838-1.173,1.375s-.485,1.128-.532,1.772c-.048.645.04,1.381.261,2.211l-.417.224-1.979-4.703,12.083-6.464Z" fill="#7f7f7f" stroke-width="0"/>
    <path d="M368.669,434.021c-.55,1.867-1.316,3.108-2.299,3.726-.578.363-1.177.475-1.798.336s-1.111-.493-1.47-1.064c-.485-.772-.59-1.677-.312-2.712.276-1.034,1.209-2.766,2.797-5.193l-.641-1.019c-.48-.766-.825-1.222-1.032-1.368-.208-.146-.475-.222-.799-.225s-.631.087-.919.268c-.47.295-.791.643-.963,1.043-.105.248-.104.458.005.632.095.151.314.276.657.373.47.138.795.352.977.641.222.354.279.738.173,1.153-.107.415-.374.756-.801,1.023-.455.286-.922.389-1.401.307s-.835-.307-1.066-.676c-.326-.52-.433-1.146-.317-1.878.114-.731.461-1.455,1.038-2.171.578-.715,1.265-1.322,2.06-1.821.96-.604,1.849-.877,2.665-.82s1.457.271,1.923.644c.292.239.78.905,1.465,1.995l2.471,3.934c.29.463.491.742.602.839.111.096.221.15.33.163.108.013.209-.011.303-.07.188-.117.296-.371.323-.762l.488.057c-.025.762-.155,1.385-.39,1.869-.235.484-.598.881-1.089,1.189-.578.363-1.114.512-1.609.444-.496-.066-.952-.352-1.369-.855ZM368.173,433.229l-2.131-3.392c-.552,1.062-.856,2.02-.916,2.872-.036.567.07,1.05.319,1.446.209.333.512.551.909.653.303.082.617.021.942-.184.361-.227.653-.692.876-1.396Z" fill="#7f7f7f" stroke-width="0"/>
    <path d="M373.578,417.988l2.503,3.23-.356.25c-1.122-.692-2.039-1.06-2.751-1.103-.712-.041-1.295.097-1.749.415-.286.201-.463.469-.531.803-.067.334-.013.627.163.878.133.188.33.321.592.397.425.13,1.394.182,2.908.156,1.514-.026,2.604.09,3.269.347.665.258,1.209.687,1.63,1.287.383.544.621,1.174.717,1.889.095.715-.007,1.386-.307,2.014-.3.627-.75,1.151-1.351,1.572-.468.329-1.195.621-2.183.877-.264.07-.434.132-.511.186-.23.162-.3.472-.208.929l-.346.242-2.638-3.401.355-.25c.962.701,1.878,1.09,2.749,1.166.872.076,1.552-.058,2.041-.4.335-.235.536-.531.605-.887.068-.355,0-.68-.207-.973-.235-.335-.543-.552-.924-.648-.381-.098-1.108-.139-2.183-.125-1.588.01-2.676-.07-3.265-.241-.863-.249-1.537-.719-2.022-1.41-.529-.754-.748-1.619-.656-2.596.091-.976.629-1.81,1.613-2.5.53-.373,1.134-.604,1.812-.693.262-.027.452-.083.571-.166.125-.089.208-.186.248-.292s.059-.341.055-.702l.355-.25Z" fill="#7f7f7f" stroke-width="0"/>
    <path d="M379.065,413.785c.82-.641,1.748-1.025,2.785-1.153,1.036-.128,2.043.055,3.019.549.976.493,1.825,1.204,2.55,2.131,1.046,1.338,1.581,2.723,1.605,4.153.03,1.73-.677,3.159-2.122,4.289-1.418,1.107-2.898,1.464-4.442,1.067-1.544-.396-2.827-1.249-3.852-2.56-1.056-1.352-1.585-2.835-1.587-4.452-.002-1.616.68-2.958,2.044-4.024ZM379.665,414.47c-.343.268-.536.627-.579,1.077-.043.451.195,1.088.714,1.911s1.309,1.914,2.369,3.271c.562.72,1.135,1.354,1.717,1.906.447.42.889.659,1.325.719s.809-.031,1.118-.273c.303-.236.489-.517.56-.843.083-.433.009-.889-.225-1.367-.364-.743-1.306-2.087-2.823-4.029-.893-1.143-1.57-1.878-2.031-2.205-.461-.326-.893-.49-1.293-.491-.285-.005-.569.104-.852.324Z" fill="#7f7f7f" stroke-width="0"/>
    <path d="M397.211,413.009c-.027.754-.137,1.363-.327,1.829-.244.626-.608,1.154-1.093,1.584-1.124.996-2.455,1.281-3.995.855-1.224-.34-2.328-1.064-3.312-2.176-.82-.926-1.396-1.97-1.724-3.132-.329-1.161-.341-2.262-.037-3.301.305-1.039.84-1.898,1.606-2.577.511-.453,1.042-.77,1.594-.951.552-.181,1.127-.224,1.725-.127l.579-2.376.325-.289,10.277,11.598c.521.587.896.909,1.129.965.375.09.818-.086,1.328-.526l.314.354-5.172,4.582-.313-.354c.396-.351.643-.649.742-.897s.118-.475.056-.682c-.063-.206-.296-.535-.697-.989l-3.005-3.39ZM396.439,412.138l-3.268-3.688c-.911-1.027-1.569-1.658-1.976-1.891-.405-.233-.866-.338-1.381-.314-.261.014-.51.126-.746.335-.484.431-.672.979-.561,1.644.161,1.031,1.034,2.44,2.618,4.228,1.216,1.373,2.252,2.176,3.108,2.408.583.156,1.072.059,1.468-.292.229-.203.419-.514.568-.931s.205-.917.168-1.499Z" fill="#7f7f7f" stroke-width="0"/>
    <path d="M402.105,393.335l6.657,6.589c.648.642,1.113.981,1.395,1.02.28.038.625-.107,1.033-.436l.327.324-3.429,3.465-1.137-1.125c.083.887.034,1.643-.146,2.268s-.521,1.189-1.019,1.692c-.474.479-1.043.76-1.705.842-.663.082-1.255-.009-1.775-.271-.52-.263-1.271-.88-2.254-1.853l-3.374-3.339c-.643-.636-1.101-.973-1.376-1.011-.274-.037-.622.107-1.043.436l-.336-.333,3.429-3.465,5.812,5.751c.606.6,1.026.958,1.259,1.074.233.117.457.158.671.123.214-.034.401-.133.563-.297.216-.218.354-.472.412-.762.083-.398.053-1.005-.091-1.818l-4.547-4.5c-.643-.636-1.102-.973-1.376-1.011-.275-.038-.623.107-1.043.435l-.337-.333,3.43-3.465Z" fill="#7f7f7f" stroke-width="0"/>
    <path d="M414.092,388.189l-4.339,4.927c1.242.99,2.462,1.503,3.661,1.535.92.026,1.653-.271,2.2-.892.339-.385.539-.828.601-1.33.062-.503-.028-1.179-.27-2.027l.499-.141c.563,1.36.793,2.517.687,3.47-.105.952-.499,1.816-1.182,2.591-1.173,1.331-2.572,1.889-4.2,1.671-1.311-.176-2.577-.803-3.8-1.88-1.498-1.319-2.334-2.774-2.508-4.365-.173-1.59.22-2.93,1.178-4.019.801-.908,1.868-1.369,3.203-1.382,1.335-.012,2.759.603,4.27,1.842ZM411.368,389.985c-1.031-.907-1.788-1.475-2.271-1.701-.482-.226-.928-.308-1.335-.246-.233.033-.449.161-.646.386-.293.333-.369.749-.229,1.247.237.88.852,1.757,1.844,2.63l.336.297,2.301-2.612Z" fill="#7f7f7f" stroke-width="0"/>
    <path d="M418.526,384.079l-1.521-1.062,14.046-20.141,1.521,1.062-14.046,20.141Z" fill="#7f7f7f" stroke-width="0"/>
  </g>
  <g>
    <path d="M148.323,103.514l.21.592-7.345,5.355-.171-.622c.724-.555,1.167-.971,1.327-1.25.277-.431.412-.845.405-1.243-.011-.624-.25-1.578-.717-2.864l-4.744-13.033c-.39-1.087-.75-1.859-1.083-2.315-.166-.228-.364-.379-.593-.454-.229-.075-.491-.069-.784.017-.293.086-.778.375-1.454.868l-.197-.603,6.898-5.029.21.593c-.568.401-.94.766-1.116,1.096-.267.464-.385.933-.355,1.408.031.475.29,1.388.777,2.739l4.757,13.023c.442,1.197.762,1.931.961,2.203.16.22.351.366.572.44s.483.064.786-.029c.302-.092.854-.391,1.656-.895Z" fill="#7f7f7f" stroke-width="0"/>
    <path d="M144.928,78.613l6.07,19.236c.308.956.522,1.524.642,1.705.09.136.208.221.354.254.146.034.282.008.409-.076.172-.114.307-.314.404-.6.225-.683.337-1.585.336-2.706l.687.151c-.056,1.783-.287,3.154-.692,4.114-.306.698-.699,1.206-1.179,1.524-.344.228-.709.301-1.096.219-.387-.083-.682-.277-.886-.585-.216-.326-.516-1.091-.898-2.297l-4.766-15.175c-.391-1.239-.638-1.936-.74-2.089-.144-.217-.349-.339-.613-.365-.265-.026-.579.081-.941.321-.208.138-.504.38-.887.725l-.333-.502,4.13-3.853Z" fill="#7f7f7f" stroke-width="0"/>
    <path d="M156.588,81.896l.308,1.071-2.033,1.235,2.165,7.015c.952,3.094,1.53,5.583,1.734,7.467.283,2.662.102,4.729-.542,6.2-.487,1.122-1.158,1.942-2.012,2.461-.557.338-1.132.458-1.725.361-.429-.057-.756-.271-.981-.643-.181-.297-.219-.627-.114-.989.104-.362.328-.647.671-.855.25-.152.51-.202.777-.148.268.053.463.182.587.387.124.204.142.454.054.749-.069.22-.084.362-.045.428.051.083.123.128.216.136.123.014.273-.033.449-.14.399-.242.743-.623,1.032-1.141.289-.519.454-1.131.496-1.836.042-.705-.069-1.62-.333-2.743-.107-.469-.54-1.966-1.298-4.491l-3.304-10.898-2.423,1.472-.363-1.038c.771-.468,1.276-.848,1.518-1.141.242-.292.398-.667.47-1.124.072-.457.061-1.222-.032-2.297-.129-1.446-.129-2.628,0-3.545.185-1.243.53-2.301,1.036-3.174.505-.873,1.092-1.512,1.761-1.918.705-.429,1.38-.594,2.024-.496.644.098,1.093.356,1.347.774.197.325.257.664.179,1.016-.078.353-.284.63-.619.833-.288.175-.573.233-.855.176-.283-.057-.495-.202-.635-.434-.09-.148-.142-.368-.153-.66-.012-.291-.04-.474-.085-.548-.079-.13-.18-.202-.303-.216-.177-.019-.382.042-.614.182-.585.355-.997.86-1.235,1.513-.323.87-.412,1.979-.267,3.326.083.7.449,2.339,1.1,4.917l2.047-1.243Z" fill="#7f7f7f" stroke-width="0"/>
    <path d="M168.659,75.02l2.36,11.248.376,1.478c.038.14.079.253.125.339.082.154.2.263.357.327.123.046.241.038.356-.023.125-.066.248-.229.368-.489.227-.477.421-1.316.583-2.521l.672.086c-.134,1.349-.413,2.47-.836,3.364-.424.894-.934,1.499-1.528,1.813-.413.219-.777.279-1.093.182-.316-.097-.578-.342-.786-.736-.249-.47-.471-1.146-.666-2.025l-.27-1.24c-.389,2.307-.938,4.066-1.648,5.278-.509.872-1.129,1.501-1.858,1.887-.701.371-1.459.4-2.275.089-.816-.311-1.494-.976-2.032-1.993-.808-1.526-1.202-3.379-1.182-5.559.02-2.179.466-4.151,1.339-5.916.677-1.391,1.505-2.345,2.484-2.863.585-.31,1.154-.415,1.706-.313s1.116.454,1.693,1.058l-.351-1.916,2.106-1.557ZM163.929,78.482c-.614.325-1.115.958-1.501,1.9-.547,1.334-.778,3.005-.692,5.012s.471,3.658,1.157,4.954c.346.653.782,1.083,1.309,1.289.527.207,1.001.198,1.424-.026,1.046-.554,1.775-1.928,2.186-4.124.554-2.923.259-5.464-.884-7.625-.432-.815-.903-1.322-1.413-1.52-.51-.197-1.038-.15-1.585.139Z" fill="#7f7f7f" stroke-width="0"/>
    <path d="M173.991,72.677c.714.304,1.309.66,1.784,1.068.336.279,1.041,1.091,2.116,2.434l.45-2.545c.139-.63.362-1.271.67-1.921.308-.65.616-1.138.924-1.463.195-.204.437-.369.726-.496.428-.188.819-.222,1.172-.105.354.118.603.341.747.669.166.378.204.669.116.874-.17.371-.434.635-.792.792-.209.092-.453.145-.73.16-.537.046-.886.104-1.044.173-.239.104-.461.368-.667.791-.39.788-.688,2.11-.894,3.967l3.473,4.597c.533.703.898,1.103,1.096,1.201.197.098.36.118.489.061.208-.091.402-.312.581-.664.347-.697.553-1.499.618-2.405l.64.04c-.112,1.448-.481,2.772-1.105,3.971-.355.677-.722,1.099-1.1,1.265-.557.244-1.137.125-1.74-.358-.379-.296-1.544-1.778-3.496-4.445-.37,3.376-.853,5.657-1.448,6.842-.389.763-.867,1.27-1.434,1.518-.397.174-.824.189-1.279.044-.334-.114-.583-.355-.744-.723-.144-.329-.154-.65-.032-.965.123-.314.344-.542.662-.681.318-.14.726-.128,1.224.033.359.116.608.143.748.082.119-.052.238-.199.358-.441.302-.583.581-1.678.837-3.284s.387-2.743.391-3.409c-1.676-2.147-2.569-3.279-2.68-3.396-.512-.546-1.011-.873-1.497-.98s-1.086-.004-1.803.31c-.229.1-.488.226-.778.376l-.235-.537,3.677-2.447Z" fill="#7f7f7f" stroke-width="0"/>
    <path d="M187.939,76.193c.112.537.228.974.349,1.312.326.91.926,1.569,1.799,1.977s1.77.448,2.69.118c.736-.264,1.39-.668,1.962-1.213.572-.545,1.342-1.574,2.312-3.086l.481.329c-1.562,3.271-3.443,5.3-5.641,6.088-1.493.535-2.786.468-3.879-.202-1.094-.669-1.844-1.572-2.25-2.707-.545-1.523-.634-3.251-.265-5.183.369-1.932,1.105-3.595,2.21-4.988,1.104-1.394,2.408-2.36,3.911-2.898,1.084-.388,1.965-.456,2.645-.203.679.253,1.126.681,1.342,1.284.304.849.258,1.782-.138,2.801-.527,1.331-1.543,2.618-3.047,3.861-.995.83-2.488,1.734-4.479,2.712ZM187.777,75.403c1.451-.716,2.577-1.454,3.377-2.214,1.056-1.013,1.759-2.023,2.107-3.03.349-1.008.396-1.864.144-2.569-.154-.43-.414-.729-.78-.897-.366-.168-.8-.163-1.301.016-1.043.374-1.951,1.325-2.724,2.854-.773,1.529-1.047,3.476-.823,5.841Z" fill="#7f7f7f" stroke-width="0"/>
    <path d="M203.738,62.428l.026,1.114-2.279.679.315,7.334c.136,3.235.064,5.789-.216,7.663-.402,2.646-1.101,4.6-2.096,5.86-.756.961-1.613,1.585-2.57,1.871-.625.186-1.211.157-1.76-.088-.4-.164-.662-.454-.786-.871-.099-.333-.053-.662.14-.985.192-.324.481-.543.866-.658.281-.084.544-.066.79.054.246.12.402.294.47.523s.022.475-.137.738c-.123.195-.174.329-.152.402.028.094.086.155.174.186.115.045.272.038.47-.021.448-.133.877-.414,1.287-.842.411-.429.726-.979.945-1.65.219-.672.344-1.584.374-2.738.016-.481-.024-2.039-.117-4.674l-.432-11.379-2.717.81-.088-1.096c.864-.257,1.45-.497,1.758-.719.308-.222.554-.544.74-.968.186-.423.369-1.167.551-2.229.242-1.432.542-2.575.899-3.43.494-1.156,1.097-2.091,1.807-2.808.71-.716,1.44-1.186,2.189-1.409.791-.235,1.486-.224,2.084.034.598.258.967.622,1.106,1.09.109.364.08.707-.084,1.028-.165.321-.435.537-.81.649-.323.096-.613.081-.872-.046-.259-.126-.427-.32-.505-.581-.049-.166-.043-.392.02-.677.062-.285.081-.469.057-.552-.043-.146-.123-.241-.238-.286-.167-.064-.38-.057-.64.021-.656.195-1.182.579-1.578,1.15-.533.76-.9,1.81-1.102,3.15-.098.698-.159,2.376-.183,5.035l2.295-.684Z" fill="#7f7f7f" stroke-width="0"/>
    <path d="M217.185,58.838l-.575,11.479-.011,1.525c0,.145.012.265.034.36.04.169.127.305.263.407.106.076.224.098.351.068.137-.032.297-.159.48-.38.34-.403.742-1.167,1.204-2.29l.628.254c-.472,1.271-1.027,2.285-1.664,3.042-.637.757-1.284,1.212-1.939,1.366-.455.106-.822.073-1.103-.102-.281-.174-.472-.478-.573-.912-.121-.518-.165-1.227-.13-2.128l.055-1.268c-.962,2.133-1.94,3.695-2.936,4.686-.714.714-1.473,1.165-2.276,1.353-.772.181-1.513.017-2.224-.492-.71-.508-1.196-1.323-1.459-2.444-.394-1.681-.304-3.573.269-5.676.573-2.103,1.505-3.896,2.797-5.382,1.008-1.173,2.051-1.886,3.13-2.138.645-.151,1.222-.107,1.729.131.508.238.964.722,1.369,1.453l.148-1.942,2.433-.971ZM211.731,60.985c-.677.159-1.322.644-1.935,1.457-.868,1.151-1.516,2.708-1.943,4.671s-.474,3.658-.14,5.085c.168.719.481,1.246.938,1.579.458.333.918.446,1.384.336,1.152-.27,2.206-1.414,3.161-3.434,1.278-2.687,1.639-5.219,1.082-7.599-.21-.899-.537-1.508-.98-1.829-.443-.32-.966-.41-1.569-.269Z" fill="#7f7f7f" stroke-width="0"/>
    <path d="M231.687,49.282l8.284-.97-.641,3.914-7.686.9-.74,2.088c1.583.066,2.917.331,4.005.794,1.088.463,2.009,1.211,2.764,2.243.755,1.033,1.208,2.196,1.36,3.49.182,1.553-.06,3.107-.726,4.661s-1.692,2.847-3.08,3.879c-1.388,1.032-2.913,1.646-4.574,1.84-1.197.14-2.105.02-2.724-.362-.619-.381-.961-.857-1.029-1.429-.055-.475.067-.902.367-1.282.3-.379.682-.596,1.146-.651.388-.045.741-.021,1.058.073.193.065.792.416,1.796,1.052.638.407,1.265.574,1.879.502.82-.096,1.468-.533,1.946-1.311.646-1.016.885-2.242.717-3.676-.151-1.294-.605-2.458-1.36-3.49-.755-1.032-1.706-1.771-2.851-2.217-.883-.345-1.984-.457-3.304-.334l3.39-9.714Z" fill="#7f7f7f" stroke-width="0"/>
    <path d="M247.941,65.473l-7.211.28.692-2.766,12.631-15.652,2.132-.083-3.84,15.311,2.556-.099-.756,2.769-2.491.097-1.299,5.169-3.695.144,1.283-5.169ZM248.666,62.707l2.344-9.759-7.993,9.978,5.648-.219Z" fill="#7f7f7f" stroke-width="0"/>
    <path d="M272.795,47.728l-.025.635c-1.666.393-3.164,1.162-4.49,2.306-1.641,1.415-3.08,3.376-4.316,5.883,1.021-.297,1.902-.433,2.639-.404,1.227.047,2.232.545,3.018,1.493.783.949,1.143,2.264,1.078,3.946-.082,2.17-.766,4.133-2.051,5.888-1.582,2.135-3.609,3.155-6.084,3.06-1.693-.065-3.039-.698-4.035-1.899-.998-1.201-1.455-2.865-1.374-4.993.088-2.3.681-4.5,1.776-6.6,1.098-2.099,2.455-3.854,4.074-5.265s3.338-2.461,5.158-3.153c1.424-.543,2.967-.843,4.633-.898ZM263.377,57.768c-.811,1.904-1.494,3.855-2.049,5.856-.379,1.355-.584,2.483-.619,3.383-.031.825.121,1.445.459,1.86.336.415.771.633,1.303.653.424.016.809-.121,1.158-.412.572-.478,1.125-1.457,1.66-2.937.84-2.337,1.289-4.292,1.35-5.866.031-.803-.166-1.484-.59-2.044-.332-.437-.736-.664-1.213-.683-.381-.014-.865.049-1.459.189Z" fill="#7f7f7f" stroke-width="0"/>
    <path d="M277.769,66.536l-7.168-.835,1.109-2.626,14.893-13.518,2.12.247-6.155,14.536,2.541.296-1.175,2.619-2.476-.289-2.081,4.908-3.673-.428,2.064-4.909ZM278.911,63.913l3.82-9.281-9.436,8.626,5.615.654Z" fill="#7f7f7f" stroke-width="0"/>
    <path d="M298.604,74.228l-.304.551-8.881-1.939.352-.541c.896.173,1.501.228,1.815.163.506-.079.905-.252,1.197-.522.459-.422,1.015-1.235,1.666-2.438l6.599-12.199c.555-1.013.893-1.795,1.013-2.347.061-.275.042-.524-.054-.745-.097-.221-.274-.413-.533-.575-.26-.162-.798-.333-1.614-.511l.319-.547,8.34,1.821-.304.551c-.677-.159-1.196-.195-1.561-.107-.523.108-.953.332-1.288.669-.335.338-.846,1.138-1.533,2.4l-6.582,12.203c-.602,1.125-.938,1.852-1.01,2.181-.058.265-.041.505.051.72.093.215.273.404.543.569s.859.379,1.769.645Z" fill="#7f7f7f" stroke-width="0"/>
    <path d="M314.979,55.165l-10.364,17.305c-.511.864-.794,1.401-.85,1.611-.042.158-.027.302.045.434.071.131.181.216.328.256.199.053.438.021.717-.096.659-.285,1.409-.8,2.247-1.543l.343.614c-1.371,1.142-2.551,1.878-3.538,2.211-.726.234-1.366.278-1.922.13-.399-.106-.696-.331-.892-.675-.194-.344-.245-.694-.15-1.051.101-.378.475-1.11,1.124-2.196l8.191-13.634c.668-1.115,1.025-1.762,1.072-1.94.067-.252.022-.485-.134-.701s-.444-.379-.864-.491c-.241-.064-.618-.125-1.131-.183l.154-.583,5.623.534Z" fill="#7f7f7f" stroke-width="0"/>
    <path d="M320.236,66.062l-.598.941-2.272-.702-3.813,6.273c-1.685,2.765-3.163,4.849-4.438,6.251-1.805,1.978-3.471,3.213-4.999,3.708-1.163.379-2.222.422-3.177.127-.622-.192-1.094-.542-1.414-1.051-.241-.359-.298-.746-.17-1.161.103-.333.324-.58.664-.741.34-.162.701-.184,1.085-.065.28.086.489.248.627.483s.171.468.101.696c-.07.229-.245.408-.524.538-.211.094-.327.177-.35.25-.029.093-.015.177.041.251.071.101.206.183.402.244.446.138.959.143,1.539.015.579-.128,1.146-.41,1.702-.847s1.166-1.126,1.832-2.068c.28-.391,1.113-1.708,2.5-3.951l5.963-9.701-2.708-.837.535-.96c.861.266,1.481.393,1.86.379.38-.013.764-.145,1.153-.394s.955-.765,1.697-1.547c.997-1.056,1.882-1.84,2.653-2.352,1.053-.687,2.074-1.13,3.062-1.331.988-.2,1.856-.186,2.604.045.788.244,1.359.639,1.714,1.186.354.547.458,1.054.314,1.521-.112.364-.326.633-.642.808-.316.175-.66.205-1.034.09-.321-.1-.555-.274-.699-.523-.145-.25-.177-.504-.097-.763.051-.166.182-.35.392-.552s.328-.345.354-.428c.045-.146.031-.269-.039-.37-.104-.146-.284-.258-.544-.338-.653-.202-1.304-.175-1.951.079-.865.335-1.754,1.004-2.666,2.007-.469.526-1.452,1.887-2.949,4.084l2.288.707Z" fill="#7f7f7f" stroke-width="0"/>
    <path d="M333.395,70.54l-6.855,9.225-.856,1.262c-.08.121-.138.227-.172.318-.061.163-.063.324-.008.484.047.122.132.206.254.251.132.05.336.033.61-.049.507-.146,1.265-.558,2.273-1.235l.381.561c-1.099.794-2.123,1.329-3.073,1.604-.95.276-1.741.295-2.371.059-.438-.164-.725-.396-.86-.697-.137-.3-.127-.659.029-1.076.188-.498.545-1.112,1.074-1.842l.75-1.023c-1.985,1.239-3.666,1.994-5.044,2.266-.99.196-1.872.15-2.645-.14-.743-.279-1.268-.827-1.576-1.644-.308-.817-.26-1.765.146-2.843.606-1.617,1.732-3.14,3.377-4.57s3.417-2.404,5.315-2.92c1.49-.416,2.754-.428,3.791-.039.62.233,1.075.589,1.365,1.069.289.48.399,1.137.331,1.969l1.201-1.533,2.562.544ZM327.667,69.295c-.65-.245-1.456-.199-2.417.136-1.362.475-2.766,1.41-4.211,2.805-1.446,1.395-2.427,2.778-2.941,4.151-.26.692-.292,1.303-.098,1.834.195.531.517.881.964,1.049,1.108.416,2.62.05,4.536-1.099,2.556-1.523,4.263-3.429,5.122-5.717.324-.864.391-1.553.2-2.065s-.575-.877-1.155-1.095Z" fill="#7f7f7f" stroke-width="0"/>
    <path d="M338.688,72.982c.246.736.374,1.417.384,2.044.014.437-.127,1.503-.42,3.198l2.204-1.351c.563-.313,1.191-.571,1.883-.772.69-.201,1.26-.294,1.708-.278.281.011.565.082.852.214.424.196.709.466.855.809s.146.677-.005,1.002c-.174.375-.366.597-.578.667-.39.119-.762.096-1.117-.068-.207-.096-.408-.243-.604-.441-.391-.372-.665-.594-.822-.667-.236-.109-.582-.101-1.034.024-.849.23-2.036.883-3.562,1.96l-1.14,5.647c-.173.865-.23,1.404-.173,1.616.058.212.15.348.279.407.207.096.501.094.882-.005.751-.203,1.488-.58,2.21-1.132l.395.505c-1.159.876-2.395,1.478-3.706,1.805-.742.183-1.301.188-1.676.015-.552-.255-.848-.769-.886-1.54-.029-.48.308-2.334,1.011-5.563-2.773,1.961-4.801,3.111-6.083,3.452-.829.215-1.524.192-2.086-.067-.395-.182-.688-.492-.882-.928-.137-.326-.12-.672.049-1.037.15-.325.384-.546.701-.663.317-.116.634-.102.949.044.315.146.577.458.786.938.151.345.296.55.435.614.118.055.308.046.567-.025.637-.161,1.642-.677,3.015-1.55,1.372-.873,2.31-1.528,2.812-1.967.496-2.678.751-4.097.766-4.258.069-.746-.017-1.336-.258-1.771-.242-.435-.718-.816-1.428-1.145-.227-.104-.492-.215-.798-.333l.246-.532,4.27,1.13Z" fill="#7f7f7f" stroke-width="0"/>
    <path d="M345.303,85.756c-.328.44-.578.816-.751,1.131-.465.848-.561,1.733-.287,2.657.273.924.839,1.622,1.695,2.092.686.376,1.422.597,2.21.664.787.066,2.067-.039,3.843-.316l.073.579c-3.484,1-6.25.938-8.298-.186-1.39-.763-2.197-1.775-2.421-3.038-.225-1.263-.046-2.422.534-3.479.778-1.418,2.013-2.63,3.703-3.635,1.691-1.005,3.425-1.556,5.2-1.653s3.362.238,4.763,1.005c1.009.554,1.645,1.169,1.905,1.845s.237,1.295-.071,1.856c-.434.791-1.163,1.375-2.188,1.754-1.346.488-2.982.581-4.91.279-1.28-.194-2.947-.712-5-1.554ZM345.786,85.111c1.498.611,2.797.965,3.896,1.06,1.459.119,2.681-.025,3.666-.432s1.658-.939,2.019-1.596c.22-.4.271-.793.154-1.179-.116-.386-.408-.707-.875-.963-.971-.533-2.285-.582-3.942-.147-1.657.435-3.296,1.521-4.918,3.257Z" fill="#7f7f7f" stroke-width="0"/>
    <path d="M366.087,88.453l-.817.758-2.02-1.255-5.28,5.101c-2.33,2.248-4.289,3.888-5.877,4.921-2.247,1.455-4.172,2.228-5.775,2.318-1.222.072-2.256-.155-3.105-.683-.553-.344-.92-.802-1.102-1.375-.143-.408-.099-.797.13-1.166.184-.295.46-.478.83-.549.37-.07.726,0,1.067.212.249.155.41.363.483.626.073.263.047.496-.08.699-.126.203-.34.332-.643.387-.228.038-.362.088-.402.153-.052.083-.059.168-.023.254.043.116.152.229.327.338.397.247.892.381,1.484.404.594.023,1.214-.106,1.861-.387.648-.281,1.414-.793,2.298-1.536.369-.307,1.51-1.37,3.419-3.188l8.229-7.872-2.407-1.496.761-.793c.766.476,1.334.755,1.704.838s.775.053,1.216-.089c.439-.142,1.117-.498,2.034-1.066,1.231-.769,2.286-1.303,3.162-1.602,1.193-.397,2.293-.567,3.3-.51,1.007.057,1.843.291,2.507.704.701.436,1.153.963,1.357,1.582.203.619.176,1.136-.082,1.551-.2.323-.476.529-.825.619s-.69.031-1.022-.175c-.286-.178-.468-.405-.545-.683-.076-.278-.043-.532.101-.763.092-.147.265-.292.52-.435.254-.142.404-.25.45-.324.08-.129.1-.252.057-.368-.063-.167-.21-.322-.44-.465-.581-.361-1.217-.5-1.907-.418-.922.105-1.951.527-3.088,1.266-.587.39-1.884,1.457-3.889,3.203l2.034,1.264Z" fill="#7f7f7f" stroke-width="0"/>
    <path d="M377.688,96.122l-8.967,7.189-1.148,1.004c-.107.097-.189.185-.246.265-.101.142-.144.297-.13.466.014.13.074.233.182.308.114.081.315.117.603.106.527-.013,1.364-.219,2.512-.619l.227.639c-1.264.49-2.391.749-3.379.774-.989.026-1.759-.155-2.309-.543-.382-.27-.601-.567-.656-.893-.057-.325.044-.67.301-1.034.308-.435.809-.938,1.506-1.51l.984-.8c-2.234.696-4.052,1.001-5.453.915-1.008-.061-1.85-.329-2.523-.805-.647-.458-1.017-1.121-1.108-1.99-.091-.869.196-1.773.86-2.713.996-1.411,2.471-2.6,4.424-3.567s3.914-1.46,5.882-1.479c1.547-.025,2.772.283,3.677.922.541.382.892.842,1.05,1.379.159.538.1,1.201-.178,1.989l1.551-1.179,2.341,1.175ZM372.462,93.468c-.567-.401-1.358-.561-2.373-.48-1.438.115-3.032.664-4.784,1.647s-3.05,2.074-3.896,3.271c-.426.603-.611,1.187-.558,1.75s.276.983.667,1.259c.967.683,2.522.711,4.667.085,2.857-.827,4.991-2.238,6.401-4.234.532-.754.771-1.403.717-1.947s-.335-.994-.841-1.352Z" fill="#7f7f7f" stroke-width="0"/>
  </g>
</svg>