<?xml version="1.0" encoding="UTF-8"?>
<svg id="a" data-name="레이어 1" xmlns="http://www.w3.org/2000/svg" width="512" height="512" viewBox="0 0 512 512">
  <g>
    <path d="M256,507c-67.044,0-130.076-26.108-177.484-73.517C31.108,386.076,5,323.045,5,256S31.108,125.924,78.516,78.516,188.956,5,256,5s130.076,26.108,177.483,73.516c47.408,47.408,73.517,110.439,73.517,177.484s-26.108,130.076-73.517,177.483c-47.407,47.408-110.438,73.517-177.483,73.517Z" fill="#dbdbdb" stroke-width="0"/>
    <path d="M256,10c33.214,0,65.43,6.503,95.751,19.328,29.292,12.39,55.602,30.128,78.197,52.724,22.595,22.595,40.334,48.905,52.724,78.197,12.825,30.322,19.328,62.537,19.328,95.751s-6.503,65.43-19.328,95.751c-12.39,29.292-30.128,55.602-52.724,78.197-22.595,22.595-48.905,40.334-78.197,52.724-30.322,12.825-62.537,19.328-95.751,19.328s-65.43-6.503-95.751-19.328c-29.292-12.39-55.602-30.128-78.197-52.724-22.595-22.595-40.334-48.905-52.724-78.197-12.825-30.322-19.328-62.537-19.328-95.751s6.503-65.43,19.328-95.751c12.39-29.292,30.128-55.602,52.724-78.197,22.595-22.595,48.905-40.334,78.197-52.724,30.322-12.825,62.537-19.328,95.751-19.328M256,0C114.615,0,0,114.615,0,256s114.615,256,256,256,256-114.615,256-256S397.385,0,256,0h0Z" fill="#7f7f7f" stroke-width="0"/>
  </g>
  <path d="M256,28c30.782,0,60.641,6.028,88.746,17.915,27.149,11.483,51.533,27.924,72.474,48.864,20.941,20.941,37.381,45.325,48.864,72.474,11.888,28.106,17.915,57.964,17.915,88.746s-6.028,60.641-17.915,88.746c-11.483,27.149-27.924,51.533-48.864,72.474-20.941,20.941-45.325,37.381-72.474,48.864-28.106,11.888-57.964,17.915-88.746,17.915s-60.641-6.028-88.746-17.915c-27.15-11.483-51.533-27.924-72.474-48.864-20.941-20.941-37.381-45.325-48.864-72.474-11.888-28.106-17.915-57.964-17.915-88.746s6.028-60.641,17.915-88.746c11.483-27.15,27.924-51.533,48.864-72.474,20.941-20.941,45.325-37.381,72.474-48.864,28.106-11.888,57.964-17.915,88.746-17.915M256,23C127.318,23,23,127.318,23,256s104.318,233,233,233,233-104.318,233-233S384.682,23,256,23h0Z" fill="#7f7f7f" stroke-width="0"/>
  <g>
    <path d="M88.631,255.977l-2.879-3.091c-3.808-4.089-7.486-8.507-11.244-13.507-3.494-4.663-6.803-9.605-10.118-15.114l7.186-4.325c3.168,5.264,6.321,9.975,9.64,14.404,2.647,3.522,5.248,6.736,7.883,9.738,3.081-2.743,6.37-5.442,9.818-8.057,4.231-3.203,8.812-6.281,13.618-9.152l4.302,7.2c-4.544,2.715-8.869,5.621-12.855,8.638-4.413,3.347-8.546,6.834-12.281,10.364l-3.07,2.901Z" fill="#7f7f7f" stroke-width="0"/>
    <path d="M91.801,223.313l-2.215-3.597c-2.962-4.811-5.704-9.864-8.382-15.447-2.549-5.371-4.885-11.025-6.951-16.821l7.901-2.816c1.972,5.531,4.199,10.923,6.62,16.025,1.888,3.936,3.81,7.596,5.823,11.086,3.583-2.101,7.336-4.104,11.199-5.978,4.932-2.369,10.028-4.484,15.16-6.295l2.791,7.91c-4.847,1.711-9.66,3.709-14.305,5.939-4.92,2.387-9.655,4.998-14.061,7.755l-3.581,2.24Z" fill="#7f7f7f" stroke-width="0"/>
    <path d="M101.322,191.907l-1.465-3.962c-1.958-5.293-3.653-10.785-5.184-16.79-1.427-5.654-2.612-11.654-3.523-17.842l8.298-1.222c.87,5.91,1.999,11.63,3.355,17.002,1.08,4.237,2.245,8.204,3.533,12.018,3.925-1.356,7.999-2.583,12.159-3.663,5.21-1.341,10.623-2.419,16.098-3.208l1.196,8.302c-5.175.746-10.287,1.764-15.195,3.027-5.306,1.377-10.463,3.008-15.321,4.845l-3.951,1.494Z" fill="#7f7f7f" stroke-width="0"/>
    <path d="M116.817,162.976l-.659-4.172c-1.819-11.52-2.425-23.516-1.8-35.655l8.376.431c-.521,10.114-.146,20.115,1.114,29.791,9.767-1.345,19.525-1.764,29.066-1.244l-.456,8.375c-10.31-.562-20.9.039-31.475,1.785l-4.167.688Z" fill="#7f7f7f" stroke-width="0"/>
    <path d="M173.088,142.111c-1.442-.372-2.61-.653-3.677-.886-1.136-.252-2.463-.543-3.813-.811-3.067-.585-5.445-.984-7.68-1.287l-.043-.006c-2.697-.394-5.391-.665-7.903-.898-2.244-.177-5.183-.389-8.074-.466l-4.223-.113.144-4.222c.105-3.09.343-6.13.562-8.695l.005-.058c.261-2.625.589-5.718,1.049-8.765.458-3.257,1.05-6.449,1.515-8.866.314-1.57.643-3.075.953-4.471.287-1.317.62-2.71,1.075-4.5l8.128,2.068c-.431,1.693-.743,2.999-1.012,4.233-.303,1.367-.621,2.821-.914,4.285-.441,2.295-1.01,5.36-1.442,8.439l-.006.043c-.432,2.858-.746,5.815-.996,8.335-.108,1.268-.221,2.653-.318,4.095,1.549.093,3.001.201,4.243.299l.058.005c2.627.244,5.457.528,8.348.95,2.383.324,4.893.744,8.135,1.363,1.463.29,2.849.594,4.015.853,1.156.252,2.421.557,3.966.955l-2.094,8.122Z" fill="#7f7f7f" stroke-width="0"/>
    <path d="M196.868,128.098c-2.027-.984-4.189-1.949-7.012-3.13-1.136-.47-2.307-.923-3.608-1.424l-1.825-.687-1.862-.657c-4.837-1.701-10.031-3.202-15.434-4.457l-4.113-.956.985-4.107c1.387-5.784,3.067-11.455,4.995-16.857l.768-2.147.778-2.046c.513-1.321,1.083-2.788,1.682-4.231,1.399-3.33,2.585-5.991,3.74-8.389l7.557,3.639c-1.091,2.266-2.222,4.803-3.558,7.983-.556,1.337-1.106,2.755-1.592,4.007l-.753,1.98-.724,2.025c-1.376,3.855-2.62,7.86-3.713,11.949,4.219,1.095,8.297,2.333,12.169,3.695l1.989.703,1.894.713c1.384.532,2.607,1.006,3.848,1.52,2.945,1.232,5.308,2.288,7.45,3.328l-3.662,7.546Z" fill="#7f7f7f" stroke-width="0"/>
    <path d="M222.945,119.054l-.474-.354c-.856-.64-1.741-1.301-2.591-1.892-1.067-.751-2.146-1.494-3.224-2.223-1.01-.68-2.035-1.331-3.121-2.019l-1.791-1.12-1.696-1.01c-4.397-2.615-9.062-5.037-14.261-7.401l-3.844-1.748,1.774-3.832c2.536-5.477,5.298-10.709,8.207-15.549l1.175-1.953,1.319-2.093c.75-1.174,1.525-2.388,2.333-3.584.842-1.244,1.708-2.498,2.576-3.734.728-1.048,1.488-2.071,2.224-3.061l.489-.658,6.74,4.993-.497.669c-.728.979-1.415,1.904-2.079,2.86-.854,1.216-1.693,2.431-2.505,3.631-.744,1.102-1.49,2.269-2.211,3.399l-1.267,2.01-1.108,1.843c-2.083,3.465-4.088,7.148-5.984,10.988,3.972,1.923,7.667,3.906,11.208,6.013l1.811,1.08,1.879,1.175c1.086.689,2.208,1.401,3.319,2.148,1.128.762,2.25,1.536,3.341,2.304.949.66,1.893,1.365,2.805,2.047l.467.349-5.015,6.724Z" fill="#7f7f7f" stroke-width="0"/>
    <path d="M250.307,115.261l-.165-.184c-.364-.406-.732-.817-1.102-1.217l-1.336-1.418c-.939-.983-1.804-1.885-2.682-2.759-1.635-1.612-3.601-3.522-5.671-5.354l-.034-.03c-1.697-1.535-3.572-3.126-6.08-5.16-.953-.771-1.922-1.512-2.949-2.298l-1.882-1.422c-.415-.308-.856-.624-1.301-.942l-3.748-2.687,2.713-3.726c.352-.484.707-.972,1.066-1.449l1.491-1.946c.819-1.056,1.666-2.148,2.544-3.219,2.255-2.745,4.031-4.813,5.76-6.706,2.092-2.341,4.213-4.516,6.194-6.519,1.093-1.095,2.201-2.153,3.272-3.177l1.686-1.591c.47-.436.943-.862,1.419-1.291l.288-.26,5.618,6.228-.292.263c-.44.397-.878.791-1.313,1.194l-1.623,1.532c-1.071,1.023-2.094,2.002-3.104,3.013-1.894,1.915-3.932,4.005-5.904,6.213l-.03.034c-1.631,1.786-3.322,3.756-5.485,6.388-.803.98-1.616,2.027-2.401,3.039l-.131.168.261.199c1.026.785,2.086,1.596,3.131,2.441,2.625,2.129,4.603,3.807,6.411,5.442,2.226,1.971,4.375,4.06,5.999,5.662.962.958,1.865,1.9,2.863,2.945l1.393,1.479c.405.438.807.886,1.205,1.33l.163.182-6.244,5.6Z" fill="#7f7f7f" stroke-width="0"/>
    <path d="M277.925,116.837c-2.714-4.543-5.62-8.868-8.638-12.855-3.347-4.414-6.835-8.547-10.364-12.281l-2.901-3.07,3.091-2.879c4.088-3.808,8.506-7.485,13.507-11.244,4.663-3.495,9.605-6.803,15.114-10.119l4.325,7.187c-5.264,3.167-9.975,6.321-14.404,9.64-3.522,2.647-6.737,5.248-9.738,7.883,2.742,3.08,5.442,6.369,8.057,9.818,3.203,4.233,6.282,8.814,9.152,13.618l-7.2,4.302Z" fill="#7f7f7f" stroke-width="0"/>
    <path d="M304.62,123.748c-1.71-4.845-3.708-9.658-5.939-14.305-2.386-4.918-4.998-9.654-7.755-14.061l-2.24-3.581,3.597-2.214c4.811-2.962,9.864-5.704,15.447-8.382,5.373-2.55,11.027-4.886,16.821-6.951l2.816,7.901c-5.53,1.971-10.922,4.198-16.025,6.62-3.935,1.888-7.595,3.81-11.086,5.823,2.101,3.584,4.104,7.336,5.978,11.199,2.37,4.934,4.485,10.03,6.295,15.16l-7.91,2.791Z" fill="#7f7f7f" stroke-width="0"/>
    <path d="M329.457,135.789c-.745-5.174-1.764-10.286-3.027-15.195-1.377-5.306-3.008-10.463-4.845-15.321l-1.494-3.951,3.962-1.465c5.293-1.958,10.785-3.653,16.79-5.184,5.654-1.427,11.654-2.612,17.842-3.523l1.221,8.298c-5.909.87-11.63,1.999-17.002,3.355-4.237,1.08-8.204,2.245-12.018,3.533,1.356,3.925,2.583,7.999,3.663,12.159,1.341,5.211,2.42,10.625,3.208,16.098l-8.302,1.196Z" fill="#7f7f7f" stroke-width="0"/>
    <path d="M359.871,152.915l-8.375-.456c.562-10.31-.039-20.9-1.785-31.475l-.688-4.167,4.172-.659c11.52-1.819,23.516-2.425,35.655-1.8l-.431,8.376c-10.115-.52-20.115-.146-29.791,1.114,1.345,9.767,1.764,19.525,1.244,29.066Z" fill="#7f7f7f" stroke-width="0"/>
    <path d="M378.01,175.18l-8.123-2.091c.373-1.449.655-2.618.887-3.678.252-1.136.543-2.463.811-3.813.586-3.073.985-5.451,1.287-7.68l.006-.044c.395-2.701.665-5.393.898-7.902.177-2.244.389-5.184.467-8.075l.113-4.223,4.222.144c3.091.105,6.13.343,8.695.562l.058.005c2.625.261,5.718.589,8.766,1.049,3.258.458,6.449,1.05,8.866,1.515,1.571.314,3.075.643,4.471.953,1.315.286,2.708.619,4.5,1.075l-2.068,8.129c-1.696-.432-3.001-.744-4.233-1.012-1.367-.303-2.82-.621-4.286-.914-2.294-.441-5.359-1.01-8.439-1.442l-.043-.006c-2.858-.432-5.815-.746-8.335-.996-1.268-.108-2.653-.221-4.095-.318-.093,1.549-.201,3.001-.3,4.243l-.005.058c-.243,2.625-.527,5.452-.95,8.348-.322,2.377-.743,4.887-1.363,8.135-.29,1.464-.594,2.849-.853,4.016-.251,1.148-.555,2.413-.955,3.965Z" fill="#7f7f7f" stroke-width="0"/>
    <path d="M391.448,200.529l-7.546-3.662c.97-2,1.965-4.228,3.13-7.012.47-1.132.905-2.257,1.424-3.608l.687-1.825.657-1.861c1.702-4.839,3.202-10.033,4.458-15.435l.956-4.113,4.107.985c5.784,1.387,11.456,3.067,16.857,4.995l2.147.769,2.045.778c1.32.512,2.786,1.081,4.231,1.682,3.328,1.398,5.989,2.584,8.389,3.74l-3.639,7.557c-2.269-1.092-4.806-2.223-7.984-3.558-1.339-.557-2.756-1.107-4.006-1.592l-1.98-.753-2.025-.724c-3.855-1.376-7.859-2.62-11.949-3.713-1.095,4.218-2.333,8.296-3.695,12.169l-.703,1.989-.713,1.894c-.534,1.388-1.008,2.613-1.52,3.849-1.232,2.944-2.287,5.307-3.327,7.449Z" fill="#7f7f7f" stroke-width="0"/>
    <path d="M399.669,227.96l-6.723-5.015.347-.464c.642-.859,1.306-1.747,1.899-2.6.752-1.069,1.495-2.147,2.223-3.224.678-1.006,1.326-2.028,2.013-3.11l1.126-1.802,1.01-1.696c2.615-4.395,5.036-9.061,7.4-14.26l1.748-3.844,3.832,1.774c5.478,2.537,10.71,5.298,15.549,8.207l1.952,1.175,2.093,1.319c1.174.75,2.389,1.525,3.584,2.333,1.245.844,2.5,1.709,3.734,2.576,1.047.727,2.071,1.488,3.06,2.223l.659.489-4.992,6.74-.67-.497c-.979-.728-1.904-1.415-2.86-2.079-1.215-.853-2.43-1.692-3.631-2.505-1.102-.744-2.27-1.49-3.399-2.211l-2.01-1.267-1.844-1.109c-3.464-2.082-7.147-4.088-10.987-5.984-1.924,3.972-3.906,7.668-6.013,11.208l-1.08,1.811-1.182,1.891c-.687,1.082-1.396,2.201-2.141,3.307-.76,1.126-1.534,2.248-2.303,3.341-.663.953-1.37,1.9-2.055,2.815l-.342.457Z" fill="#7f7f7f" stroke-width="0"/>
    <path d="M402.338,256.551l-5.601-6.244.203-.182c.4-.359.804-.721,1.199-1.086l1.418-1.336c.978-.934,1.876-1.795,2.759-2.682,1.613-1.636,3.523-3.602,5.354-5.671l.03-.034c1.533-1.695,3.124-3.57,5.16-6.081.771-.953,1.512-1.922,2.297-2.949l1.421-1.882c.304-.41.616-.845.93-1.284l2.7-3.765,3.721,2.709c.485.353.974.708,1.452,1.068l1.962,1.503c1.051.815,2.137,1.658,3.203,2.532,2.746,2.256,4.814,4.032,6.707,5.76,2.339,2.091,4.515,4.212,6.519,6.194,1.095,1.093,2.154,2.201,3.177,3.272l1.591,1.685c.446.48.882.964,1.32,1.45l.232.258-6.23,5.616-.235-.261c-.406-.45-.808-.898-1.22-1.342l-1.533-1.624c-1.024-1.071-2.002-2.094-3.013-3.104-1.916-1.895-4.006-3.933-6.213-5.905l-.034-.03c-1.786-1.631-3.755-3.322-6.388-5.485-.975-.799-2.017-1.608-3.024-2.389l-.183-.142-.199.261c-.784,1.026-1.596,2.086-2.441,3.131-2.131,2.628-3.81,4.605-5.443,6.412-1.969,2.224-4.059,4.373-5.661,5.998-.966.97-1.944,1.907-2.945,2.864l-1.479,1.393c-.431.399-.873.796-1.312,1.189l-.2.18Z" fill="#7f7f7f" stroke-width="0"/>
    <path d="M440.422,292.058c-3.167-5.263-6.32-9.974-9.64-14.404-2.647-3.522-5.248-6.736-7.883-9.738-3.08,2.742-6.369,5.441-9.818,8.057-4.232,3.203-8.813,6.282-13.618,9.152l-4.302-7.2c4.544-2.715,8.869-5.621,12.855-8.638,4.413-3.347,8.547-6.835,12.281-10.364l3.07-2.901,2.879,3.091c3.807,4.088,7.485,8.506,11.243,13.507,3.495,4.664,6.804,9.606,10.118,15.114l-7.186,4.325Z" fill="#7f7f7f" stroke-width="0"/>
    <path d="M429.844,327.367c-1.971-5.529-4.198-10.921-6.62-16.026-1.889-3.936-3.81-7.596-5.823-11.085-3.584,2.101-7.337,4.104-11.199,5.978-4.934,2.37-10.03,4.485-15.16,6.295l-2.791-7.91c4.845-1.709,9.658-3.708,14.305-5.939,4.918-2.386,9.654-4.998,14.061-7.754l3.581-2.24,2.215,3.597c2.961,4.81,5.703,9.862,8.382,15.447,2.55,5.374,4.886,11.028,6.951,16.821l-7.901,2.816Z" fill="#7f7f7f" stroke-width="0"/>
    <path d="M412.551,359.908c-.87-5.908-1.998-11.629-3.355-17.002-1.08-4.237-2.245-8.203-3.533-12.018-3.924,1.355-7.998,2.583-12.159,3.663-5.211,1.341-10.625,2.42-16.098,3.208l-1.196-8.302c5.173-.745,10.286-1.764,15.195-3.027,5.306-1.377,10.463-3.008,15.32-4.845l3.951-1.494,1.466,3.962c1.958,5.294,3.654,10.786,5.184,16.79,1.427,5.655,2.612,11.655,3.522,17.842l-8.298,1.221Z" fill="#7f7f7f" stroke-width="0"/>
    <path d="M397.641,388.85l-8.376-.431c.521-10.114.146-20.115-1.114-29.791-9.767,1.345-19.525,1.763-29.066,1.244l.456-8.375c10.312.562,20.9-.039,31.475-1.785l4.167-.688.659,4.172c1.819,11.521,2.425,23.517,1.8,35.655Z" fill="#7f7f7f" stroke-width="0"/>
    <path d="M369.022,413.935l-8.128-2.069c.43-1.69.742-2.995,1.011-4.232.304-1.372.623-2.829.914-4.285.441-2.293,1.009-5.354,1.443-8.44l.006-.043c.431-2.85.745-5.81.996-8.334.108-1.268.221-2.653.318-4.096-1.55-.093-3.001-.201-4.244-.3l-.058-.005c-2.625-.243-5.453-.527-8.347-.95-2.378-.323-4.888-.743-8.136-1.363-1.464-.29-2.849-.594-4.016-.853-1.149-.251-2.414-.556-3.965-.955l2.092-8.123c1.449.373,2.617.655,3.678.887,1.135.252,2.463.543,3.813.811,3.073.586,5.451.985,7.68,1.287l.044.006c2.7.394,5.393.665,7.902.898,2.244.177,5.184.389,8.074.466l4.223.113-.144,4.222c-.106,3.096-.343,6.133-.562,8.695l-.006.058c-.261,2.629-.59,5.726-1.048,8.766-.459,3.264-1.051,6.452-1.515,8.865-.312,1.562-.642,3.069-.952,4.471-.288,1.32-.621,2.713-1.076,4.501Z" fill="#7f7f7f" stroke-width="0"/>
    <path d="M336.037,432.99l-7.557-3.639c1.092-2.267,2.222-4.804,3.557-7.983.555-1.334,1.106-2.754,1.593-4.007l.753-1.98.724-2.025c1.375-3.854,2.62-7.859,3.713-11.95-4.218-1.095-8.297-2.333-12.169-3.695l-1.989-.703-1.894-.713c-1.386-.533-2.611-1.007-3.849-1.52-2.944-1.232-5.307-2.287-7.45-3.327l3.662-7.546c2,.97,4.228,1.965,7.012,3.13,1.133.469,2.305.923,3.608,1.424l1.825.687,1.861.657c4.839,1.702,10.033,3.202,15.435,4.458l4.114.956-.985,4.107c-1.388,5.786-3.068,11.458-4.996,16.857l-.768,2.147-.778,2.045c-.513,1.322-1.084,2.792-1.682,4.231-1.398,3.328-2.584,5.989-3.74,8.389Z" fill="#7f7f7f" stroke-width="0"/>
    <path d="M299.958,445.177l-6.74-4.993.488-.657c.731-.984,1.421-1.912,2.088-2.872.847-1.206,1.685-2.421,2.505-3.631.741-1.097,1.485-2.262,2.204-3.388l1.273-2.021,1.109-1.843c2.082-3.464,4.087-7.146,5.984-10.987-3.972-1.923-7.667-3.906-11.208-6.013l-1.811-1.08-1.876-1.173c-1.086-.69-2.21-1.403-3.321-2.151-1.123-.758-2.245-1.532-3.341-2.303-.956-.664-1.904-1.374-2.822-2.06l-.451-.337,5.016-6.723.458.342c.861.644,1.751,1.309,2.607,1.905,1.071.753,2.149,1.497,3.223,2.222,1.011.681,2.038,1.333,3.125,2.022l1.788,1.118,1.696,1.01c4.397,2.615,9.062,5.036,14.26,7.4l3.844,1.748-1.775,3.832c-2.538,5.48-5.3,10.712-8.208,15.549l-1.175,1.952-1.326,2.104c-.747,1.171-1.52,2.381-2.326,3.574-.85,1.255-1.716,2.509-2.577,3.734-.731,1.052-1.494,2.079-2.232,3.073l-.48.646Z" fill="#7f7f7f" stroke-width="0"/>
    <path d="M262.209,450.093l-5.616-6.23.262-.236c.45-.405.897-.808,1.341-1.22l1.622-1.532c1.018-.972,2.088-1.996,3.105-3.014,1.892-1.913,3.929-4.002,5.904-6.213l.03-.033c1.631-1.787,3.323-3.756,5.484-6.387.802-.979,1.613-2.024,2.397-3.035l.134-.173-.262-.2c-1.025-.784-2.085-1.595-3.13-2.44-2.626-2.13-4.604-3.808-6.412-5.442-2.226-1.971-4.374-4.061-5.998-5.662-.976-.971-1.911-1.947-2.864-2.945l-1.392-1.478c-.397-.429-.792-.869-1.182-1.305l-.186-.207,6.244-5.601.188.21c.357.398.716.799,1.079,1.191l1.336,1.418c.896.938,1.79,1.872,2.682,2.759,1.635,1.612,3.601,3.522,5.67,5.354l.033.03c1.697,1.534,3.572,3.126,6.081,5.16.953.771,1.922,1.512,2.948,2.297l1.883,1.422c.416.309.857.624,1.302.943l3.746,2.686-2.697,3.705c-.356.491-.716.985-1.08,1.469l-1.496,1.952c-.818,1.054-1.663,2.144-2.54,3.214-2.255,2.744-4.031,4.812-5.76,6.706-2.095,2.344-4.215,4.519-6.194,6.519-1.1,1.102-2.207,2.16-3.278,3.183l-1.679,1.585c-.48.446-.962.88-1.448,1.318l-.259.234Z" fill="#7f7f7f" stroke-width="0"/>
    <path d="M224.266,447.609l-4.325-7.186c5.263-3.167,9.975-6.32,14.404-9.64,3.522-2.647,6.736-5.248,9.738-7.883-2.743-3.081-5.442-6.37-8.057-9.818-3.202-4.231-6.281-8.812-9.152-13.618l7.2-4.302c2.716,4.545,5.622,8.87,8.638,12.855,3.347,4.413,6.834,8.546,10.364,12.282l2.901,3.07-3.091,2.879c-4.088,3.808-8.507,7.486-13.507,11.243-4.663,3.495-9.606,6.804-15.114,10.118Z" fill="#7f7f7f" stroke-width="0"/>
    <path d="M187.449,437.745l-2.816-7.901c5.531-1.971,10.922-4.199,16.025-6.62,3.936-1.889,7.596-3.81,11.086-5.823-2.101-3.583-4.104-7.336-5.979-11.199-2.369-4.932-4.484-10.028-6.295-15.159l7.91-2.792c1.71,4.847,3.709,9.66,5.939,14.305,2.387,4.92,4.998,9.656,7.755,14.061l2.241,3.581-3.597,2.215c-4.809,2.961-9.862,5.703-15.447,8.382-5.372,2.549-11.026,4.885-16.821,6.951Z" fill="#7f7f7f" stroke-width="0"/>
    <path d="M153.313,420.849l-1.222-8.298c5.909-.87,11.629-1.998,17.002-3.355,4.237-1.08,8.203-2.245,12.018-3.533-1.355-3.924-2.583-7.998-3.663-12.159-1.341-5.21-2.419-10.623-3.208-16.098l8.302-1.196c.746,5.175,1.764,10.287,3.027,15.195,1.377,5.306,3.008,10.463,4.844,15.32l1.494,3.951-3.962,1.466c-5.294,1.958-10.786,3.654-16.79,5.184-5.655,1.427-11.655,2.612-17.842,3.522Z" fill="#7f7f7f" stroke-width="0"/>
    <path d="M132.381,397.879c-3.065,0-6.143-.079-9.232-.239l.432-8.376c10.113.521,20.114.146,29.791-1.114-1.345-9.767-1.764-19.525-1.244-29.066l8.375.456c-.562,10.311.039,20.9,1.785,31.475l.688,4.167-4.172.659c-8.589,1.356-17.444,2.038-26.424,2.038Z" fill="#7f7f7f" stroke-width="0"/>
    <path d="M137.643,374.325l-4.222-.144c-3.096-.106-6.133-.343-8.695-.562l-.058-.006c-2.629-.261-5.725-.59-8.765-1.048-3.264-.459-6.452-1.051-8.867-1.515-1.56-.312-3.069-.642-4.471-.952-1.323-.288-2.716-.621-4.501-1.076l2.069-8.128c1.688.43,2.993.741,4.232,1.011,1.372.304,2.829.623,4.285.914,2.293.441,5.355,1.009,8.44,1.443l.043.006c2.85.431,5.811.745,8.335.996,1.267.108,2.653.221,4.096.318.093-1.55.201-3.001.299-4.244l.005-.058c.244-2.628.528-5.458.95-8.349.42-3.09.979-6.121,1.363-8.134.29-1.464.594-2.849.853-4.015.253-1.157.557-2.422.955-3.966l8.122,2.094c-.372,1.441-.653,2.61-.886,3.677-.252,1.135-.543,2.463-.811,3.813-.585,3.067-.984,5.445-1.287,7.68l-.006.043c-.394,2.696-.664,5.39-.898,7.902-.177,2.244-.389,5.184-.466,8.075l-.113,4.223Z" fill="#7f7f7f" stroke-width="0"/>
    <path d="M116.786,348.987l-4.107-.985c-5.786-1.388-11.457-3.068-16.857-4.996l-2.147-.768-2.046-.778c-1.324-.514-2.794-1.085-4.231-1.683-3.33-1.398-5.991-2.585-8.389-3.739l3.64-7.557c2.265,1.091,4.802,2.221,7.983,3.557,1.332.554,2.753,1.106,4.007,1.593l1.98.753,2.024.724c3.854,1.376,7.859,2.62,11.95,3.713,1.095-4.219,2.333-8.297,3.695-12.169l.703-1.989.713-1.894c.532-1.383,1.005-2.605,1.52-3.848,1.232-2.945,2.288-5.308,3.328-7.451l7.546,3.662c-.984,2.027-1.949,4.19-3.13,7.012-.471,1.138-.924,2.308-1.424,3.608l-.687,1.825-.657,1.862c-1.701,4.838-3.202,10.032-4.457,15.435l-.956,4.114Z" fill="#7f7f7f" stroke-width="0"/>
    <path d="M101.287,320.055l-3.832-1.775c-5.479-2.538-10.71-5.299-15.549-8.207l-1.952-1.175-2.104-1.326c-1.171-.747-2.381-1.52-3.574-2.326-1.253-.849-2.507-1.715-3.734-2.577-1.053-.731-2.08-1.494-3.073-2.233l-.646-.479,4.993-6.74.656.487c.984.731,1.913,1.422,2.873,2.089,1.207.848,2.423,1.686,3.631,2.505,1.098.741,2.262,1.485,3.388,2.204l2.02,1.273,1.844,1.109c3.464,2.082,7.147,4.088,10.988,5.984,1.923-3.972,3.906-7.666,6.013-11.208l1.08-1.811,1.166-1.864c.692-1.091,1.407-2.218,2.158-3.333.76-1.125,1.534-2.247,2.303-3.341.662-.952,1.369-1.897,2.052-2.812l.344-.46,6.723,5.015-.349.468c-.641.858-1.304,1.745-1.897,2.597-.752,1.069-1.496,2.148-2.223,3.224-.683,1.014-1.337,2.045-2.029,3.136l-1.111,1.777-1.01,1.696c-2.616,4.398-5.037,9.063-7.401,14.261l-1.748,3.844Z" fill="#7f7f7f" stroke-width="0"/>
    <path d="M91.791,288.641l-3.71-2.7c-.489-.355-.982-.714-1.465-1.077l-1.936-1.484c-1.059-.822-2.155-1.671-3.229-2.552-2.744-2.254-4.812-4.03-6.706-5.759-2.345-2.097-4.519-4.216-6.519-6.194-1.102-1.101-2.16-2.207-3.183-3.278l-1.586-1.68c-.435-.469-.861-.941-1.289-1.416l-.261-.29,6.228-5.618.265.294c.396.44.79.877,1.192,1.311l1.532,1.622c.972,1.017,1.996,2.088,3.014,3.105,1.912,1.891,4,3.927,6.213,5.904l.033.03c1.787,1.632,3.757,3.323,6.388,5.484.984.806,2.034,1.621,3.049,2.408l.158.123.2-.262c.784-1.025,1.595-2.085,2.44-3.13,2.128-2.625,3.807-4.602,5.443-6.413,1.972-2.227,4.06-4.374,5.661-5.997.964-.969,1.904-1.869,2.946-2.864l1.478-1.393c.435-.403.881-.803,1.323-1.199l.19-.17,5.6,6.244-.192.172c-.404.362-.811.727-1.209,1.095l-1.418,1.336c-.98.936-1.879,1.797-2.76,2.682-1.612,1.635-3.521,3.599-5.354,5.67l-.03.033c-1.536,1.699-3.128,3.574-5.16,6.081-.771.953-1.512,1.922-2.297,2.948l-1.422,1.883c-.313.422-.633.869-.956,1.32l-2.673,3.728Z" fill="#7f7f7f" stroke-width="0"/>
  </g>
  <g>
    <g>
      <path d="M236.305,167.562l-5.909,20.572c-.343,1.211-.514,2.086-.514,2.624,0,.453.156.798.468,1.037.312.238,1.043.4,2.193.486l-.184.679h-9.451l.257-.679c1.003-.024,1.664-.104,1.982-.239.514-.22.899-.514,1.156-.881.404-.562.813-1.571,1.229-3.027l4.258-14.773c.257-.893.397-1.406.422-1.541.037-.245.055-.483.055-.716,0-.429-.117-.765-.349-1.01-.233-.244-.551-.367-.955-.367-.318,0-.813.074-1.486.221l-.239-.661,6.185-1.725h.881Z" fill="#7f7f7f" stroke-width="0"/>
      <path d="M253.358,176.352l-1.267,4.221c1.333-1.565,2.523-2.66,3.569-3.284,1.046-.624,2.114-.937,3.202-.937s2.02.432,2.791,1.294c.77.862,1.156,1.985,1.156,3.367,0,2.692-1.096,5.43-3.285,8.213-2.191,2.783-4.742,4.175-7.653,4.175-.612,0-1.153-.067-1.624-.202-.471-.135-1-.373-1.587-.716l-1.34,4.735c-.269.93-.403,1.535-.403,1.816,0,.27.07.498.211.688.141.189.37.336.688.44.318.104.948.156,1.89.156l-.165.679h-8.644l.184-.679c1.138-.05,1.906-.245,2.303-.588s.816-1.291,1.257-2.845l4.643-16.075c.281-1.016.422-1.646.422-1.891,0-.33-.095-.587-.284-.771-.19-.184-.48-.275-.872-.275-.355,0-.851.043-1.487.129v-.716l6.295-.937ZM249.082,191.033c.759.905,1.78,1.357,3.065,1.357.636,0,1.285-.177,1.945-.532.661-.354,1.306-.881,1.936-1.578.63-.697,1.196-1.501,1.698-2.413.502-.911.951-1.984,1.348-3.221.398-1.235.598-2.459.598-3.67,0-.979-.225-1.729-.67-2.248-.447-.521-.971-.78-1.568-.78-1.322,0-2.628.759-3.919,2.275-1.291,1.518-2.236,3.292-2.835,5.322l-1.597,5.487Z" fill="#7f7f7f" stroke-width="0"/>
      <path d="M267.958,176.352c.416.71.703,1.374.862,1.991.159.618.318,1.832.478,3.643l.808,9.029c.733-.881,1.798-2.275,3.192-4.185.673-.929,1.505-2.195,2.496-3.798.6-.979.967-1.664,1.102-2.056.073-.195.109-.397.109-.605,0-.135-.043-.245-.128-.331-.086-.085-.31-.186-.67-.303-.361-.116-.661-.33-.899-.642-.238-.312-.357-.67-.357-1.074,0-.501.146-.905.44-1.211.293-.306.66-.459,1.101-.459.538,0,.997.224,1.377.67.379.447.568,1.062.568,1.845,0,.967-.33,2.07-.991,3.312-.66,1.241-1.933,3.147-3.816,5.716-1.885,2.569-4.166,5.371-6.846,8.405-1.848,2.092-3.218,3.41-4.11,3.955-.893.544-1.658.816-2.294.816-.379,0-.713-.144-1-.432-.287-.287-.432-.621-.432-1,0-.477.199-.911.597-1.303s.829-.587,1.294-.587c.244,0,.446.055.605.165.098.061.205.235.321.522.116.288.223.48.321.578.061.062.134.092.22.092.073,0,.202-.062.386-.184.673-.416,1.455-1.076,2.349-1.981,1.175-1.199,2.043-2.178,2.606-2.937l-1.028-11.635c-.171-1.921-.429-3.089-.771-3.505-.343-.416-.918-.624-1.726-.624-.257,0-.715.036-1.376.11l-.165-.68,5.377-1.321Z" fill="#7f7f7f" stroke-width="0"/>
      <path d="M278.724,177.38l6.331-1.028-2.643,8.919c2.141-3.658,4.086-6.215,5.836-7.671.991-.832,1.798-1.248,2.422-1.248.404,0,.722.119.954.358.232.238.35.584.35,1.036,0,.808-.209,1.579-.624,2.312-.294.551-.716.826-1.267.826-.281,0-.523-.092-.725-.275-.202-.184-.328-.465-.377-.844-.024-.232-.079-.386-.165-.459-.098-.098-.214-.147-.349-.147-.208,0-.403.05-.587.147-.318.171-.802.648-1.45,1.432-1.016,1.198-2.116,2.752-3.303,4.661-.514.808-.954,1.719-1.321,2.734-.514,1.395-.808,2.232-.881,2.514l-.588,2.312h-2.808l3.396-11.396c.392-1.321.587-2.263.587-2.826,0-.22-.092-.403-.275-.551-.245-.195-.568-.293-.973-.293-.257,0-.728.055-1.413.165l-.128-.679Z" fill="#7f7f7f" stroke-width="0"/>
    </g>
    <g>
      <path d="M233.031,257.985c-5.077-2.877-10.608-4.315-16.593-4.315-3.604,0-7.019.529-10.243,1.588-3.225,1.059-6.185,2.596-8.879,4.612-2.696,2.018-5.019,4.448-6.969,7.292h-1.29c0-8.102,1.074-15.071,3.225-20.908,2.149-5.836,5.216-10.275,9.202-13.318,3.984-3.043,8.738-4.564,14.261-4.564,3.638,0,6.862.662,9.673,1.984,2.811,1.323,5.109,3.175,6.896,5.556,1.786,2.381,3.075,5.094,3.869,8.136h12.5c-.86-5.291-2.762-9.971-5.705-14.038-2.944-4.068-6.755-7.226-11.434-9.475-4.68-2.249-9.946-3.373-15.799-3.373-7.937,0-14.799,2.183-20.586,6.548-5.788,4.365-10.236,10.748-13.344,19.147-3.109,8.4-4.663,18.52-4.663,30.357s1.769,21.331,5.308,28.474c3.538,7.144,8.077,12.22,13.616,15.229,5.539,3.01,11.566,4.547,18.081,4.613,6.978.066,13.153-1.405,18.527-4.415,5.374-3.009,9.532-7.134,12.476-12.376,2.943-5.241,4.415-11.054,4.415-17.437s-1.488-12.145-4.464-17.287c-2.976-5.142-7.003-9.152-12.079-12.029ZM234.271,298.984c-2.034,3.521-4.82,6.308-8.358,8.358-3.539,2.051-7.458,3.075-11.756,3.075-4.398,0-8.375-1.058-11.93-3.175-3.556-2.116-6.342-4.927-8.358-8.433-2.018-3.505-3.026-7.242-3.026-11.211.033-3.968,1.099-7.705,3.2-11.211,2.1-3.505,4.96-6.315,8.582-8.433,3.621-2.116,7.598-3.175,11.93-3.175,4.298,0,8.185,1.01,11.657,3.026,3.472,2.018,6.192,4.762,8.16,8.234,1.967,3.473,2.968,7.259,3.001,11.359-.033,4.2-1.066,8.061-3.101,11.583Z" fill="#7f7f7f" stroke-width="0"/>
      <path d="M335.644,288.294h-14.285v-69.744h-15.479l-45.734,70.438v10.417h49.207v20.735h12.006v-20.735h14.285v-11.111ZM273.737,287.501l34.426-52.979h1.189v53.771h-35.615v-.793Z" fill="#7f7f7f" stroke-width="0"/>
    </g>
  </g>
  <g>
    <path d="M181.33,60.688l-3.404,1.294-.072-.915,3.404-1.294-.466-5.855-.824.312c-1.145.436-1.914.996-2.309,1.682-.395.687-.525,1.537-.393,2.551l-.371.142-.42-3.978,10.344-3.931.259,4.039-.382.145c-.063-.55-.175-1.036-.335-1.458-.206-.542-.485-.861-.836-.958s-.988.03-1.912.382l-1.074.408.486,5.849,3.395-1.29.072.915-3.385,1.286.325,3.91c.097,1.143.195,1.845.295,2.106.221.582.851.676,1.889.282l.361-.138.021.417-5.925,2.252-.031-.414.262-.099c.729-.277,1.161-.629,1.294-1.056.133-.426.148-1.297.047-2.614l-.314-3.973Z" fill="#7f7f7f" stroke-width="0"/>
    <path d="M190.093,60.843c.062.355.131.646.204.871.197.606.579,1.053,1.146,1.338.568.286,1.158.33,1.771.13.49-.159.929-.413,1.316-.761.388-.349.916-1.012,1.584-1.99l.312.227c-1.094,2.126-2.373,3.427-3.837,3.903-.995.323-1.846.254-2.554-.209s-1.185-1.072-1.431-1.828c-.33-1.015-.354-2.155-.073-3.422.28-1.266.799-2.348,1.554-3.244.755-.897,1.633-1.509,2.635-1.835.722-.234,1.304-.262,1.746-.082.443.18.729.471.86.872.184.565.136,1.181-.146,1.844-.374.867-1.068,1.696-2.084,2.485-.672.527-1.674,1.095-3.005,1.701ZM190.001,60.318c.971-.443,1.727-.908,2.27-1.394.716-.646,1.198-1.299,1.447-1.956.25-.657.298-1.221.146-1.69-.094-.286-.259-.488-.497-.607-.238-.118-.524-.123-.857-.015-.695.227-1.312.836-1.852,1.828-.539.993-.758,2.271-.656,3.834Z" fill="#7f7f7f" stroke-width="0"/>
    <path d="M195.583,53.767l3.403-1.586-.071,5.445c.625-2.401,1.314-4.151,2.069-5.25.426-.626.814-.988,1.166-1.088.228-.064.426-.048.595.05s.289.274.361.529c.128.455.134.922.016,1.401-.078.357-.271.579-.582.667-.158.045-.31.031-.452-.04s-.259-.21-.346-.416c-.051-.127-.106-.204-.166-.232-.071-.039-.145-.048-.22-.027-.117.033-.22.092-.308.177-.152.146-.349.492-.59,1.037-.381.837-.755,1.887-1.12,3.15-.161.537-.265,1.121-.31,1.751-.067.867-.1,1.387-.097,1.557l.037,1.396-1.582.446.101-6.961c.011-.807-.028-1.368-.118-1.686-.035-.124-.115-.213-.242-.267-.169-.071-.367-.075-.595-.011-.145.041-.401.146-.77.317l-.181-.361Z" fill="#7f7f7f" stroke-width="0"/>
    <path d="M211.598,52.463c.252,1.045.225,2.146-.082,3.303-.308,1.156-.883,2.153-1.728,2.99-.845.838-1.733,1.368-2.666,1.593-.954.23-1.806.113-2.555-.352-.749-.464-1.24-1.18-1.474-2.147-.246-1.023-.199-2.121.141-3.294.34-1.172.931-2.176,1.771-3.013.841-.836,1.721-1.364,2.64-1.586.92-.222,1.75-.102,2.491.361.741.462,1.229,1.178,1.461,2.145ZM209.69,52.16c-.155-.647-.434-1.105-.833-1.373-.4-.269-.851-.343-1.353-.222-1.023.246-1.788,1.206-2.295,2.879s-.586,3.233-.237,4.682c.16.662.45,1.132.87,1.409.421.278.886.356,1.394.233.981-.236,1.727-1.188,2.235-2.854s.581-3.251.219-4.755Z" fill="#7f7f7f" stroke-width="0"/>
    <path d="M216.471,48.686l3.548-1.229-.628,5.409c.867-2.325,1.732-3.995,2.595-5.011.488-.579.912-.9,1.272-.963.232-.04.428-.004.586.11s.26.302.306.563c.081.466.038.931-.128,1.396-.114.348-.33.549-.647.604-.162.028-.311,0-.445-.086-.135-.085-.236-.234-.302-.448-.038-.132-.085-.215-.142-.248-.066-.047-.139-.063-.216-.05-.12.021-.229.068-.324.144-.166.131-.396.454-.692.971-.465.794-.944,1.801-1.437,3.021-.215.518-.378,1.087-.487,1.71-.156.855-.241,1.368-.256,1.538l-.106,1.393-1.619.282.813-6.914c.093-.801.111-1.364.055-1.688-.022-.127-.094-.224-.214-.29-.161-.088-.357-.112-.591-.071-.148.025-.414.104-.798.237l-.143-.379Z" fill="#7f7f7f" stroke-width="0"/>
    <path d="M232.532,49.027c.145,1.064.004,2.157-.419,3.276-.424,1.119-1.099,2.053-2.023,2.799-.926.746-1.864,1.184-2.815,1.312-.973.132-1.808-.072-2.505-.61-.698-.538-1.113-1.301-1.246-2.287-.142-1.043.018-2.131.476-3.262.458-1.132,1.147-2.07,2.07-2.816.922-.745,1.851-1.182,2.788-1.309.937-.126,1.75.078,2.44.614.69.535,1.102,1.297,1.234,2.283ZM230.666,48.531c-.089-.66-.318-1.144-.688-1.452-.371-.308-.812-.427-1.322-.357-1.044.141-1.902,1.017-2.578,2.629-.675,1.612-.912,3.157-.713,4.633.091.675.331,1.172.721,1.491.391.319.845.444,1.362.374,1.001-.135,1.839-1.005,2.516-2.61.676-1.604.91-3.174.703-4.707Z" fill="#7f7f7f" stroke-width="0"/>
    <path d="M235.602,45.376c.279.393.482.765.606,1.116.125.352.281,1.052.468,2.1l.94,5.223c.383-.553.931-1.421,1.645-2.606.344-.577.764-1.358,1.258-2.345.299-.602.477-1.021.535-1.256.032-.117.043-.237.032-.358-.007-.079-.037-.141-.092-.187-.055-.045-.189-.092-.406-.142-.217-.049-.402-.158-.558-.327-.155-.17-.243-.372-.265-.607-.026-.293.038-.536.194-.729.155-.193.361-.302.618-.325.313-.027.593.079.837.319.244.241.387.59.428,1.046.05.563-.085,1.225-.405,1.983-.321.758-.964,1.936-1.929,3.531s-2.149,3.349-3.554,5.257c-.969,1.316-1.699,2.156-2.191,2.52-.492.364-.924.562-1.295.596-.222.02-.423-.047-.605-.199s-.284-.34-.304-.561c-.025-.278.068-.542.28-.791.211-.249.452-.386.724-.41.143-.013.263.01.361.065.061.03.132.126.215.288.083.161.155.269.217.32.039.032.083.047.134.042.042-.004.114-.046.215-.127.37-.277.793-.703,1.267-1.277.622-.761,1.078-1.377,1.366-1.848l-1.204-6.731c-.2-1.11-.41-1.778-.632-2.003s-.567-.316-1.038-.274c-.149.014-.415.059-.797.136l-.132-.388,3.066-1.05Z" fill="#7f7f7f" stroke-width="0"/>
    <path d="M254.576,39.238l-3.18,12.12c-.185.713-.272,1.228-.266,1.543.007.265.103.465.288.601.186.135.616.22,1.29.255l-.098.399-5.531.128.141-.4c.587-.028.973-.084,1.157-.167.298-.136.52-.312.664-.531.229-.334.455-.931.679-1.788l2.292-8.704c.138-.525.213-.828.226-.907.019-.145.026-.284.022-.42-.006-.251-.078-.446-.218-.586-.139-.141-.327-.208-.563-.202-.186.004-.475.054-.866.149l-.149-.384,3.597-1.094.516-.012Z" fill="#7f7f7f" stroke-width="0"/>
    <path d="M265.104,44.601l-.853,2.435c.821-.88,1.547-1.489,2.175-1.826s1.261-.491,1.897-.462c.637.028,1.169.306,1.597.83.428.525.624,1.191.587,2-.071,1.574-.784,3.146-2.139,4.716s-2.883,2.315-4.586,2.238c-.357-.017-.673-.07-.944-.161s-.575-.244-.909-.461l-.909,2.733c-.182.537-.276.888-.284,1.052-.007.157.028.294.105.408.077.115.207.207.391.276.183.068.55.116,1.102.141l-.115.393-5.055-.229.125-.393c.667.002,1.121-.093,1.363-.282.241-.189.512-.733.811-1.63l3.141-9.278c.191-.586.291-.951.298-1.094.008-.193-.04-.347-.146-.459s-.273-.174-.502-.184c-.208-.01-.499.002-.873.035l.019-.418,3.706-.381ZM262.215,53.073c.42.55,1.005.841,1.756.875.372.017.756-.069,1.152-.26.396-.189.787-.48,1.174-.871.387-.392.739-.847,1.057-1.366s.608-1.136.874-1.848.414-1.423.446-2.131c.026-.572-.085-1.017-.332-1.332-.247-.316-.547-.482-.896-.498-.773-.035-1.557.374-2.353,1.227-.795.854-1.395,1.865-1.799,3.037l-1.079,3.167Z" fill="#7f7f7f" stroke-width="0"/>
    <path d="M273.899,45.151c.205.436.338.838.398,1.206.06.369.089,1.085.086,2.149l-.005,5.307c.475-.475,1.169-1.232,2.082-2.271.441-.507.993-1.201,1.655-2.083.401-.539.651-.919.75-1.141.054-.11.086-.226.097-.348.007-.078-.013-.145-.058-.199-.046-.054-.171-.125-.375-.212-.204-.086-.367-.228-.49-.422-.122-.194-.173-.409-.152-.645.026-.292.134-.52.321-.683.187-.163.409-.233.666-.21.313.028.569.183.767.463.198.28.276.649.235,1.105-.052.563-.302,1.19-.753,1.879-.45.689-1.293,1.733-2.526,3.132-1.233,1.399-2.711,2.912-4.434,4.54-1.187,1.123-2.056,1.819-2.604,2.09-.549.27-1.01.389-1.381.355-.221-.021-.407-.122-.56-.305s-.219-.385-.199-.605c.025-.278.164-.521.416-.729.253-.207.515-.299.785-.274.144.013.258.056.345.128.054.041.107.148.16.322s.104.292.156.354c.032.039.074.062.124.065.043.004.121-.025.234-.087.414-.207.905-.551,1.474-1.031.748-.638,1.306-1.162,1.674-1.575l.014-6.837c0-1.129-.087-1.824-.265-2.085-.179-.26-.503-.412-.974-.454-.149-.014-.419-.017-.808-.009l-.061-.404,3.204-.487Z" fill="#7f7f7f" stroke-width="0"/>
    <path d="M280.333,46.377l3.753-.119-2.206,4.979c1.519-1.963,2.841-3.3,3.966-4.014.639-.408,1.139-.589,1.501-.542.234.031.41.124.526.28.117.156.158.365.125.628-.062.469-.24.9-.537,1.296-.212.297-.478.425-.797.384-.164-.021-.297-.093-.4-.215s-.155-.295-.155-.519c.004-.137-.017-.229-.061-.278-.05-.064-.113-.102-.191-.112-.121-.016-.238-.002-.353.041-.197.076-.514.316-.949.722-.68.62-1.437,1.438-2.27,2.457-.358.431-.684.926-.973,1.488-.403.771-.638,1.235-.701,1.393l-.516,1.298-1.63-.211,2.83-6.36c.327-.737.512-1.27.555-1.597.017-.127-.023-.241-.118-.34-.128-.132-.309-.214-.543-.244-.149-.02-.427-.022-.833-.011l-.023-.403Z" fill="#7f7f7f" stroke-width="0"/>
    <path d="M303.747,44.456l-.081.411c-1.257.047-2.539.411-3.848,1.093-1.308.682-2.525,1.646-3.652,2.893.822-.175,1.473-.216,1.951-.122.893.175,1.59.646,2.093,1.416s.646,1.703.433,2.8c-.328,1.68-1.15,3.008-2.465,3.984-1.314.976-2.598,1.342-3.849,1.098-1.139-.223-1.919-.812-2.342-1.767-.423-.954-.526-1.983-.311-3.087.281-1.44.894-2.798,1.835-4.069s2.082-2.298,3.421-3.08,2.67-1.292,3.993-1.529c.786-.138,1.727-.151,2.821-.04ZM295.487,49.64c-1.425,1.947-2.278,3.648-2.562,5.104-.147.752-.073,1.382.222,1.888.295.507.688.808,1.181.904.809.158,1.677-.283,2.606-1.324.93-1.04,1.546-2.338,1.85-3.891.162-.83.084-1.509-.236-2.039-.319-.529-.768-.851-1.344-.963-.246-.048-.488-.054-.725-.016-.237.037-.568.149-.991.337Z" fill="#7f7f7f" stroke-width="0"/>
    <path d="M312.986,47.083l-4.993,8.639,1.689.417-.694,1.2-1.71-.421-2.031,3.527-1.533-.378,2.041-3.524-5.111-1.259.798-1.353,10.752-7.044.793.195ZM310.008,49.204l-7.71,5.115,4.183,1.03,3.527-6.146Z" fill="#7f7f7f" stroke-width="0"/>
    <path d="M323.499,49.525l-7.283,11.13c-.359.557-.561.903-.603,1.04-.032.103-.025.198.019.287.043.088.113.147.209.177.13.04.288.025.475-.045.442-.17.95-.489,1.521-.958l.21.414c-.934.716-1.729,1.171-2.39,1.364-.483.135-.907.146-1.27.035-.261-.081-.45-.236-.569-.469-.12-.231-.144-.464-.071-.696.076-.246.342-.719.798-1.418l5.756-8.769c.469-.717.721-1.134.757-1.25.051-.164.027-.319-.069-.466-.098-.146-.283-.262-.557-.347-.158-.048-.404-.099-.741-.149l.117-.38,3.691.499Z" fill="#7f7f7f" stroke-width="0"/>
    <path d="M321.25,60.623c-.164.322-.285.595-.362.818-.209.602-.173,1.188.106,1.759.28.571.725.962,1.334,1.172.487.169.99.231,1.51.188s1.34-.254,2.464-.631l.111.368c-2.155,1.035-3.96,1.302-5.415.798-.988-.343-1.625-.911-1.91-1.707s-.298-1.57-.037-2.321c.349-1.008,1.018-1.933,2.005-2.773.988-.84,2.055-1.39,3.197-1.649,1.144-.26,2.213-.218,3.208.127.717.248,1.198.577,1.442.988.245.41.298.815.159,1.215-.194.562-.604,1.022-1.229,1.382-.82.466-1.874.708-3.161.725-.854.016-1.995-.137-3.423-.457ZM321.493,60.15c1.042.231,1.925.317,2.65.258.962-.084,1.74-.312,2.336-.687.595-.374.974-.794,1.135-1.261.099-.284.089-.546-.029-.784-.119-.237-.344-.414-.676-.529-.69-.238-1.55-.125-2.579.341-1.029.467-1.975,1.354-2.837,2.662Z" fill="#7f7f7f" stroke-width="0"/>
    <path d="M336.471,60.215l-1.812,2.833-.37-.145c.315-.907.38-1.632.192-2.174-.188-.543-.538-.914-1.052-1.115-.414-.162-.787-.177-1.119-.045s-.561.357-.686.678c-.086.22-.12.449-.102.687.019.238.121.601.307,1.089.497,1.286.778,2.219.844,2.799.065.579.016,1.082-.151,1.509-.271.694-.801,1.196-1.588,1.508-.786.312-1.62.295-2.501-.049-.48-.188-.989-.519-1.527-.99-.189-.166-.344-.272-.464-.319-.3-.117-.587-.053-.86.194l-.37-.145,1.878-3.003.37.145c-.356,1.029-.427,1.828-.211,2.397.216.568.654.982,1.314,1.24.507.198.965.214,1.372.047.407-.168.692-.458.854-.872.104-.267.147-.534.129-.803-.03-.474-.206-1.18-.526-2.121-.32-.939-.496-1.62-.528-2.04s.021-.807.159-1.16c.253-.647.702-1.103,1.348-1.365.645-.264,1.337-.25,2.078.039.213.084.399.176.561.277.085.057.274.217.567.481.292.265.495.419.608.463.287.112.589.05.904-.188l.381.148Z" fill="#7f7f7f" stroke-width="0"/>
  </g>
  <g>
    <path d="M181.33,60.688l-3.404,1.294-.072-.915,3.404-1.294-.466-5.855-.824.312c-1.145.436-1.914.996-2.309,1.682-.395.687-.525,1.537-.393,2.551l-.371.142-.42-3.978,10.344-3.931.259,4.039-.382.145c-.063-.55-.175-1.036-.335-1.458-.206-.542-.485-.861-.836-.958s-.988.03-1.912.382l-1.074.408.486,5.849,3.395-1.29.072.915-3.385,1.286.325,3.91c.097,1.143.195,1.845.295,2.106.221.582.851.676,1.889.282l.361-.138.021.417-5.925,2.252-.031-.414.262-.099c.729-.277,1.161-.629,1.294-1.056.133-.426.148-1.297.047-2.614l-.314-3.973Z" fill="#7f7f7f" stroke-width="0"/>
    <path d="M190.093,60.843c.062.355.131.646.204.871.197.606.579,1.053,1.146,1.338.568.286,1.158.33,1.771.13.49-.159.929-.413,1.316-.761.388-.349.916-1.012,1.584-1.99l.312.227c-1.094,2.126-2.373,3.427-3.837,3.903-.995.323-1.846.254-2.554-.209s-1.185-1.072-1.431-1.828c-.33-1.015-.354-2.155-.073-3.422.28-1.266.799-2.348,1.554-3.244.755-.897,1.633-1.509,2.635-1.835.722-.234,1.304-.262,1.746-.082.443.18.729.471.86.872.184.565.136,1.181-.146,1.844-.374.867-1.068,1.696-2.084,2.485-.672.527-1.674,1.095-3.005,1.701ZM190.001,60.318c.971-.443,1.727-.908,2.27-1.394.716-.646,1.198-1.299,1.447-1.956.25-.657.298-1.221.146-1.69-.094-.286-.259-.488-.497-.607-.238-.118-.524-.123-.857-.015-.695.227-1.312.836-1.852,1.828-.539.993-.758,2.271-.656,3.834Z" fill="#7f7f7f" stroke-width="0"/>
    <path d="M195.583,53.767l3.403-1.586-.071,5.445c.625-2.401,1.314-4.151,2.069-5.25.426-.626.814-.988,1.166-1.088.228-.064.426-.048.595.05s.289.274.361.529c.128.455.134.922.016,1.401-.078.357-.271.579-.582.667-.158.045-.31.031-.452-.04s-.259-.21-.346-.416c-.051-.127-.106-.204-.166-.232-.071-.039-.145-.048-.22-.027-.117.033-.22.092-.308.177-.152.146-.349.492-.59,1.037-.381.837-.755,1.887-1.12,3.15-.161.537-.265,1.121-.31,1.751-.067.867-.1,1.387-.097,1.557l.037,1.396-1.582.446.101-6.961c.011-.807-.028-1.368-.118-1.686-.035-.124-.115-.213-.242-.267-.169-.071-.367-.075-.595-.011-.145.041-.401.146-.77.317l-.181-.361Z" fill="#7f7f7f" stroke-width="0"/>
    <path d="M211.598,52.463c.252,1.045.225,2.146-.082,3.303-.308,1.156-.883,2.153-1.728,2.99-.845.838-1.733,1.368-2.666,1.593-.954.23-1.806.113-2.555-.352-.749-.464-1.24-1.18-1.474-2.147-.246-1.023-.199-2.121.141-3.294.34-1.172.931-2.176,1.771-3.013.841-.836,1.721-1.364,2.64-1.586.92-.222,1.75-.102,2.491.361.741.462,1.229,1.178,1.461,2.145ZM209.69,52.16c-.155-.647-.434-1.105-.833-1.373-.4-.269-.851-.343-1.353-.222-1.023.246-1.788,1.206-2.295,2.879s-.586,3.233-.237,4.682c.16.662.45,1.132.87,1.409.421.278.886.356,1.394.233.981-.236,1.727-1.188,2.235-2.854s.581-3.251.219-4.755Z" fill="#7f7f7f" stroke-width="0"/>
    <path d="M216.471,48.686l3.548-1.229-.628,5.409c.867-2.325,1.732-3.995,2.595-5.011.488-.579.912-.9,1.272-.963.232-.04.428-.004.586.11s.26.302.306.563c.081.466.038.931-.128,1.396-.114.348-.33.549-.647.604-.162.028-.311,0-.445-.086-.135-.085-.236-.234-.302-.448-.038-.132-.085-.215-.142-.248-.066-.047-.139-.063-.216-.05-.12.021-.229.068-.324.144-.166.131-.396.454-.692.971-.465.794-.944,1.801-1.437,3.021-.215.518-.378,1.087-.487,1.71-.156.855-.241,1.368-.256,1.538l-.106,1.393-1.619.282.813-6.914c.093-.801.111-1.364.055-1.688-.022-.127-.094-.224-.214-.29-.161-.088-.357-.112-.591-.071-.148.025-.414.104-.798.237l-.143-.379Z" fill="#7f7f7f" stroke-width="0"/>
    <path d="M232.532,49.027c.145,1.064.004,2.157-.419,3.276-.424,1.119-1.099,2.053-2.023,2.799-.926.746-1.864,1.184-2.815,1.312-.973.132-1.808-.072-2.505-.61-.698-.538-1.113-1.301-1.246-2.287-.142-1.043.018-2.131.476-3.262.458-1.132,1.147-2.07,2.07-2.816.922-.745,1.851-1.182,2.788-1.309.937-.126,1.75.078,2.44.614.69.535,1.102,1.297,1.234,2.283ZM230.666,48.531c-.089-.66-.318-1.144-.688-1.452-.371-.308-.812-.427-1.322-.357-1.044.141-1.902,1.017-2.578,2.629-.675,1.612-.912,3.157-.713,4.633.091.675.331,1.172.721,1.491.391.319.845.444,1.362.374,1.001-.135,1.839-1.005,2.516-2.61.676-1.604.91-3.174.703-4.707Z" fill="#7f7f7f" stroke-width="0"/>
    <path d="M235.602,45.376c.279.393.482.765.606,1.116.125.352.281,1.052.468,2.1l.94,5.223c.383-.553.931-1.421,1.645-2.606.344-.577.764-1.358,1.258-2.345.299-.602.477-1.021.535-1.256.032-.117.043-.237.032-.358-.007-.079-.037-.141-.092-.187-.055-.045-.189-.092-.406-.142-.217-.049-.402-.158-.558-.327-.155-.17-.243-.372-.265-.607-.026-.293.038-.536.194-.729.155-.193.361-.302.618-.325.313-.027.593.079.837.319.244.241.387.59.428,1.046.05.563-.085,1.225-.405,1.983-.321.758-.964,1.936-1.929,3.531s-2.149,3.349-3.554,5.257c-.969,1.316-1.699,2.156-2.191,2.52-.492.364-.924.562-1.295.596-.222.02-.423-.047-.605-.199s-.284-.34-.304-.561c-.025-.278.068-.542.28-.791.211-.249.452-.386.724-.41.143-.013.263.01.361.065.061.03.132.126.215.288.083.161.155.269.217.32.039.032.083.047.134.042.042-.004.114-.046.215-.127.37-.277.793-.703,1.267-1.277.622-.761,1.078-1.377,1.366-1.848l-1.204-6.731c-.2-1.11-.41-1.778-.632-2.003s-.567-.316-1.038-.274c-.149.014-.415.059-.797.136l-.132-.388,3.066-1.05Z" fill="#7f7f7f" stroke-width="0"/>
    <path d="M254.576,39.238l-3.18,12.12c-.185.713-.272,1.228-.266,1.543.007.265.103.465.288.601.186.135.616.22,1.29.255l-.098.399-5.531.128.141-.4c.587-.028.973-.084,1.157-.167.298-.136.52-.312.664-.531.229-.334.455-.931.679-1.788l2.292-8.704c.138-.525.213-.828.226-.907.019-.145.026-.284.022-.42-.006-.251-.078-.446-.218-.586-.139-.141-.327-.208-.563-.202-.186.004-.475.054-.866.149l-.149-.384,3.597-1.094.516-.012Z" fill="#7f7f7f" stroke-width="0"/>
    <path d="M265.104,44.601l-.853,2.435c.821-.88,1.547-1.489,2.175-1.826s1.261-.491,1.897-.462c.637.028,1.169.306,1.597.83.428.525.624,1.191.587,2-.071,1.574-.784,3.146-2.139,4.716s-2.883,2.315-4.586,2.238c-.357-.017-.673-.07-.944-.161s-.575-.244-.909-.461l-.909,2.733c-.182.537-.276.888-.284,1.052-.007.157.028.294.105.408.077.115.207.207.391.276.183.068.55.116,1.102.141l-.115.393-5.055-.229.125-.393c.667.002,1.121-.093,1.363-.282.241-.189.512-.733.811-1.63l3.141-9.278c.191-.586.291-.951.298-1.094.008-.193-.04-.347-.146-.459s-.273-.174-.502-.184c-.208-.01-.499.002-.873.035l.019-.418,3.706-.381ZM262.215,53.073c.42.55,1.005.841,1.756.875.372.017.756-.069,1.152-.26.396-.189.787-.48,1.174-.871.387-.392.739-.847,1.057-1.366s.608-1.136.874-1.848.414-1.423.446-2.131c.026-.572-.085-1.017-.332-1.332-.247-.316-.547-.482-.896-.498-.773-.035-1.557.374-2.353,1.227-.795.854-1.395,1.865-1.799,3.037l-1.079,3.167Z" fill="#7f7f7f" stroke-width="0"/>
    <path d="M273.899,45.151c.205.436.338.838.398,1.206.06.369.089,1.085.086,2.149l-.005,5.307c.475-.475,1.169-1.232,2.082-2.271.441-.507.993-1.201,1.655-2.083.401-.539.651-.919.75-1.141.054-.11.086-.226.097-.348.007-.078-.013-.145-.058-.199-.046-.054-.171-.125-.375-.212-.204-.086-.367-.228-.49-.422-.122-.194-.173-.409-.152-.645.026-.292.134-.52.321-.683.187-.163.409-.233.666-.21.313.028.569.183.767.463.198.28.276.649.235,1.105-.052.563-.302,1.19-.753,1.879-.45.689-1.293,1.733-2.526,3.132-1.233,1.399-2.711,2.912-4.434,4.54-1.187,1.123-2.056,1.819-2.604,2.09-.549.27-1.01.389-1.381.355-.221-.021-.407-.122-.56-.305s-.219-.385-.199-.605c.025-.278.164-.521.416-.729.253-.207.515-.299.785-.274.144.013.258.056.345.128.054.041.107.148.16.322s.104.292.156.354c.032.039.074.062.124.065.043.004.121-.025.234-.087.414-.207.905-.551,1.474-1.031.748-.638,1.306-1.162,1.674-1.575l.014-6.837c0-1.129-.087-1.824-.265-2.085-.179-.26-.503-.412-.974-.454-.149-.014-.419-.017-.808-.009l-.061-.404,3.204-.487Z" fill="#7f7f7f" stroke-width="0"/>
    <path d="M280.332,46.377l3.753-.119-2.206,4.979c1.519-1.963,2.841-3.3,3.966-4.014.639-.408,1.139-.589,1.501-.542.234.031.41.124.526.28.117.156.158.365.125.628-.062.469-.24.9-.537,1.296-.212.297-.478.425-.797.384-.164-.021-.297-.093-.4-.215s-.155-.295-.155-.519c.004-.137-.017-.229-.061-.278-.05-.064-.113-.102-.191-.112-.121-.016-.238-.002-.353.041-.197.076-.514.316-.949.722-.68.62-1.437,1.438-2.27,2.457-.358.431-.684.926-.973,1.488-.403.771-.638,1.235-.701,1.393l-.516,1.298-1.63-.211,2.83-6.36c.327-.737.512-1.27.555-1.597.017-.127-.023-.241-.118-.34-.128-.132-.309-.214-.543-.244-.149-.02-.427-.022-.833-.011l-.023-.403Z" fill="#7f7f7f" stroke-width="0"/>
    <path d="M303.747,44.456l-.081.411c-1.257.047-2.539.411-3.848,1.093-1.308.682-2.525,1.646-3.652,2.893.822-.175,1.473-.216,1.951-.122.893.175,1.59.646,2.093,1.416s.646,1.703.433,2.8c-.328,1.68-1.15,3.008-2.465,3.984-1.314.976-2.598,1.342-3.849,1.098-1.139-.223-1.919-.812-2.342-1.767-.423-.954-.526-1.983-.311-3.087.281-1.44.894-2.798,1.835-4.069s2.082-2.298,3.421-3.08,2.67-1.292,3.993-1.529c.786-.138,1.727-.151,2.821-.04ZM295.487,49.64c-1.425,1.947-2.278,3.648-2.562,5.104-.147.752-.073,1.382.222,1.888.295.507.688.808,1.181.904.809.158,1.677-.283,2.606-1.324.93-1.04,1.546-2.338,1.85-3.891.162-.83.084-1.509-.236-2.039-.319-.529-.768-.851-1.344-.963-.246-.048-.488-.054-.725-.016-.237.037-.568.149-.991.337Z" fill="#7f7f7f" stroke-width="0"/>
    <path d="M312.986,47.083l-4.993,8.639,1.689.417-.694,1.2-1.71-.421-2.031,3.527-1.533-.378,2.041-3.524-5.111-1.259.798-1.353,10.752-7.044.793.195ZM310.008,49.204l-7.71,5.115,4.183,1.03,3.527-6.146Z" fill="#7f7f7f" stroke-width="0"/>
    <path d="M323.499,49.525l-7.283,11.13c-.359.557-.561.903-.603,1.04-.032.103-.025.198.019.287.043.088.113.147.209.177.13.04.288.025.475-.045.442-.17.95-.489,1.521-.958l.21.414c-.934.716-1.729,1.171-2.39,1.364-.483.135-.907.146-1.27.035-.261-.081-.45-.236-.569-.469-.12-.231-.144-.464-.071-.696.076-.246.342-.719.798-1.418l5.756-8.769c.469-.717.721-1.134.757-1.25.051-.164.027-.319-.069-.466-.098-.146-.283-.262-.557-.347-.158-.048-.404-.099-.741-.149l.117-.38,3.691.499Z" fill="#7f7f7f" stroke-width="0"/>
    <path d="M321.25,60.623c-.164.322-.285.595-.362.818-.209.602-.173,1.188.106,1.759.28.571.725.962,1.334,1.172.487.169.99.231,1.51.188s1.34-.254,2.464-.631l.111.368c-2.155,1.035-3.96,1.302-5.415.798-.988-.343-1.625-.911-1.91-1.707s-.298-1.57-.037-2.321c.349-1.008,1.018-1.933,2.005-2.773.988-.84,2.055-1.39,3.197-1.649,1.144-.26,2.213-.218,3.208.127.717.248,1.198.577,1.442.988.245.41.298.815.159,1.215-.194.562-.604,1.022-1.229,1.382-.82.466-1.874.708-3.161.725-.854.016-1.995-.137-3.423-.457ZM321.493,60.15c1.042.231,1.925.317,2.65.258.962-.084,1.74-.312,2.336-.687.595-.374.974-.794,1.135-1.261.099-.284.089-.546-.029-.784-.119-.237-.344-.414-.676-.529-.69-.238-1.55-.125-2.579.341-1.029.467-1.975,1.354-2.837,2.662Z" fill="#7f7f7f" stroke-width="0"/>
    <path d="M336.47,60.215l-1.812,2.833-.37-.145c.315-.907.38-1.632.192-2.174-.188-.543-.538-.914-1.052-1.115-.414-.162-.787-.177-1.119-.045s-.561.357-.686.678c-.086.22-.12.449-.102.687.019.238.121.601.307,1.089.497,1.286.778,2.219.844,2.799.065.579.016,1.082-.151,1.509-.271.694-.801,1.196-1.588,1.508-.786.312-1.62.295-2.501-.049-.48-.188-.989-.519-1.527-.99-.189-.166-.344-.272-.464-.319-.3-.117-.587-.053-.86.194l-.37-.145,1.878-3.003.37.145c-.356,1.029-.427,1.828-.211,2.397.216.568.654.982,1.314,1.24.507.198.965.214,1.372.047.407-.168.692-.458.854-.872.104-.267.147-.534.129-.803-.03-.474-.206-1.18-.526-2.121-.32-.939-.496-1.62-.528-2.04s.021-.807.159-1.16c.253-.647.702-1.103,1.348-1.365.645-.264,1.337-.25,2.078.039.213.084.399.176.561.277.085.057.274.217.567.481.292.265.495.419.608.463.287.112.589.05.904-.188l.381.148Z" fill="#7f7f7f" stroke-width="0"/>
  </g>
</svg>