<?xml version="1.0" encoding="utf-8"?>
<!-- Generator: Adobe Illustrator 25.3.1, SVG Export Plug-In . SVG Version: 6.00 Build 0)  -->
<svg version="1.1" xmlns="http://www.w3.org/2000/svg" xmlns:xlink="http://www.w3.org/1999/xlink" x="0px" y="0px"
	 viewBox="0 0 36 36" style="enable-background:new 0 0 36 36;" xml:space="preserve">
<style type="text/css">
	.st0{fill:#2C2C2C;}
	.st1{fill:#FDDE59;}
</style>
<g id="레이어_1">
	<path class="st0" d="M32,5H4C3,5,2.1,5.4,1.4,6l33.2,24c0.8-0.7,1.4-1.8,1.4-3V9C36,6.8,34.2,5,32,5z"/>
	<path class="st1" d="M34.6,30c-0.7,0.6-1.6,1-2.6,1H4c-2.2,0-4-1.8-4-4V9c0-1.2,0.5-2.3,1.4-3L34.6,30z"/>
	<path class="st0" d="M25.5,23.4c0.1,0.6,0.1,1.1,0.1,1.7l-0.4,0c0-0.5,0-1.1-0.1-1.6c-0.5,0.1-1,0.1-1.6,0.1l0-0.4
		c0.5,0,1,0,1.4-0.1L11,12.9c-0.1,0-0.2,0-0.2,0l-0.2,0l0-0.2c0-0.1,0-0.1,0-0.2L1.4,6C0.5,6.7,0,7.8,0,9v18c0,2.2,1.8,4,4,4h28
		c1,0,1.9-0.4,2.6-1L25.5,23.4z M9.6,12.4c0,0.3,0.1,0.6,0.2,0.9c0.1,0.2,0.1,0.4,0.2,0.6c0.2-0.1,0.4-0.1,0.7-0.2
		c0.3-0.1,0.6-0.1,0.9-0.2l0.1,0.4c-0.3,0-0.6,0.1-0.8,0.2c-0.3,0.1-0.6,0.2-0.8,0.3l-0.2,0.1l-0.1-0.2c-0.1-0.3-0.2-0.6-0.3-0.9
		c-0.1-0.3-0.1-0.6-0.2-1L9.6,12.4z M8.7,14.2C8.8,14.5,8.9,14.8,9,15c0.1,0.2,0.2,0.4,0.3,0.6c0.2-0.1,0.4-0.2,0.6-0.3
		c0.3-0.1,0.5-0.2,0.8-0.3l0.1,0.4c-0.3,0.1-0.5,0.2-0.8,0.3c-0.3,0.1-0.5,0.3-0.8,0.4l-0.2,0.1l-0.1-0.2c-0.2-0.3-0.3-0.5-0.4-0.8
		c-0.1-0.3-0.3-0.6-0.4-0.9L8.7,14.2z M8.1,16.1c0.2,0.3,0.3,0.5,0.5,0.8C8.8,17,8.9,17.2,9,17.4c0.2-0.1,0.3-0.3,0.5-0.4
		c0.2-0.2,0.5-0.3,0.7-0.5l0.2,0.4c-0.2,0.1-0.5,0.3-0.7,0.5c-0.2,0.2-0.5,0.4-0.7,0.6L9,18l-0.2-0.2c-0.2-0.2-0.4-0.5-0.6-0.7
		c-0.2-0.3-0.4-0.5-0.5-0.8L8.1,16.1z M7.7,18.4C7.6,18.4,7.6,18.4,7.7,18.4L7.7,18.4L7.9,18l0,0c0,0,0,0,0.1,0.1l0.1,0.1
		c0.1,0.1,0.1,0.1,0.2,0.2c0.1,0.1,0.2,0.2,0.3,0.3l0,0c0.1,0.1,0.2,0.2,0.3,0.3C9,19,9,19.1,9.1,19.1l0,0l0,0
		c0-0.1,0.1-0.1,0.1-0.2c0.1-0.1,0.2-0.2,0.3-0.3c0.1-0.1,0.2-0.2,0.3-0.3c0.1-0.1,0.1-0.1,0.2-0.2l0.1-0.1c0,0,0,0,0.1-0.1l0,0
		l0.3,0.3l0,0c0,0,0,0-0.1,0.1l-0.1,0.1c-0.1,0.1-0.1,0.1-0.1,0.1c-0.1,0.1-0.2,0.2-0.3,0.3l0,0c-0.1,0.1-0.2,0.2-0.3,0.3
		c0,0.1-0.1,0.1-0.1,0.2l-0.1,0.1c0,0,0,0-0.1,0.1l-0.1,0.2L9,19.6c0,0-0.1,0-0.1-0.1l-0.1-0.1c-0.1,0-0.1-0.1-0.2-0.1
		c-0.1-0.1-0.3-0.2-0.4-0.3c-0.1-0.1-0.2-0.2-0.3-0.3C7.9,18.6,7.8,18.6,7.7,18.4L7.7,18.4z M8.3,20.6c-0.1,0-0.1-0.1-0.2-0.1
		c-0.1,0-0.1-0.1-0.2-0.1l0,0L8.1,20l0,0c0.1,0,0.1,0.1,0.2,0.1c0.1,0,0.1,0.1,0.2,0.1c0.1,0,0.1,0.1,0.2,0.1l0.1,0.1l0.1,0.1
		c0.2,0.1,0.4,0.2,0.6,0.3c0.1-0.2,0.2-0.4,0.3-0.6l0.1-0.1L9.9,20c0-0.1,0.1-0.1,0.1-0.2c0-0.1,0.1-0.1,0.1-0.2
		c0-0.1,0.1-0.1,0.1-0.2l0,0l0.4,0.3l0,0c0,0-0.1,0.1-0.1,0.1c0,0.1-0.1,0.1-0.1,0.2c0,0.1-0.1,0.1-0.1,0.2l-0.1,0.1l-0.1,0.1
		c-0.1,0.2-0.3,0.5-0.4,0.8l-0.1,0.2l-0.2-0.1c-0.3-0.1-0.6-0.3-0.8-0.4l-0.1-0.1l-0.1-0.1C8.4,20.7,8.3,20.7,8.3,20.6z M9.3,22.6
		l-0.1,0c-0.1,0-0.1-0.1-0.2-0.1c-0.2-0.1-0.3-0.1-0.5-0.2l0.2-0.4C8.8,21.9,9,22,9.1,22.1c0.1,0,0.1,0.1,0.2,0.1l0.1,0l0.1,0
		c0.2,0.1,0.4,0.1,0.6,0.2c0.1-0.2,0.1-0.4,0.2-0.7l0-0.1l0-0.1c0-0.1,0.1-0.1,0.1-0.2c0.1-0.2,0.1-0.3,0.2-0.4l0.4,0.2
		c-0.1,0.1-0.1,0.2-0.2,0.4c0,0.1,0,0.1-0.1,0.2l0,0.1l0,0.1c-0.1,0.3-0.2,0.5-0.2,0.8L10.5,23l-0.2-0.1c-0.3-0.1-0.6-0.2-0.9-0.3
		L9.3,22.6z M10,24.2c-0.1,0-0.2,0-0.2-0.1c-0.1,0-0.1,0-0.2-0.1l0.1-0.4c0.1,0,0.2,0,0.2,0.1c0.1,0,0.2,0,0.2,0
		c0.1,0,0.3,0.1,0.5,0.1l0,0c0.2,0,0.3,0,0.4,0.1c0.1,0,0.1,0,0.2,0c0-0.1,0-0.2,0-0.2l0,0c0-0.1,0-0.3,0.1-0.4
		c0-0.2,0.1-0.3,0.1-0.4c0-0.1,0-0.2,0-0.2c0-0.1,0-0.1,0.1-0.2l0.4,0.1c0,0.1,0,0.1,0,0.2c0,0.1,0,0.1,0,0.2c0,0.2-0.1,0.3-0.1,0.4
		l0,0c0,0.1,0,0.3,0,0.4c0,0.1,0,0.3,0,0.4l0,0.2l-0.2,0c-0.2,0-0.3,0-0.5,0l0,0c-0.1,0-0.3,0-0.5-0.1C10.3,24.2,10.1,24.2,10,24.2z
		 M10.9,25.6l0-0.4c0.5,0,1.1,0,1.6-0.1c-0.1-0.5-0.1-1-0.1-1.6l0.4,0c0,0.6,0,1.1,0.1,1.7l0,0.2l-0.2,0c-0.5,0.1-0.9,0.1-1.4,0.1
		C11.2,25.6,11,25.6,10.9,25.6z M12.5,26.8l-0.1-0.4c0.3,0,0.6-0.1,0.9-0.2c0.2-0.1,0.4-0.1,0.6-0.2c-0.1-0.2-0.1-0.4-0.2-0.7
		c-0.1-0.3-0.1-0.6-0.2-0.9l0.4-0.1c0,0.3,0.1,0.6,0.2,0.8c0.1,0.3,0.2,0.6,0.3,0.8l0.1,0.2l-0.2,0.1c-0.3,0.1-0.6,0.2-0.9,0.3
		C13.1,26.7,12.8,26.8,12.5,26.8z M15.2,27.4c-0.3,0.1-0.6,0.3-0.9,0.4l-0.2-0.4c0.3-0.1,0.6-0.2,0.9-0.4c0.2-0.1,0.4-0.2,0.6-0.3
		c-0.1-0.2-0.2-0.4-0.3-0.6c-0.1-0.3-0.2-0.5-0.3-0.8l0.4-0.1c0.1,0.3,0.2,0.5,0.3,0.8c0.1,0.3,0.3,0.5,0.4,0.8l0.1,0.2l-0.2,0.1
		C15.8,27.1,15.5,27.2,15.2,27.4z M17.8,27.1c-0.2,0.2-0.5,0.4-0.7,0.6c-0.3,0.2-0.5,0.4-0.8,0.5l-0.2-0.4c0.3-0.2,0.5-0.3,0.8-0.5
		c0.2-0.1,0.4-0.3,0.5-0.4c-0.1-0.2-0.3-0.3-0.4-0.5c-0.2-0.2-0.3-0.5-0.5-0.7l0.4-0.2c0.1,0.2,0.3,0.5,0.5,0.7
		c0.2,0.2,0.4,0.5,0.6,0.7L18,27L17.8,27.1z M19.6,27C19.6,27,19.6,27.1,19.6,27l-0.1,0.2c0,0.1-0.1,0.1-0.1,0.2
		c-0.1,0.1-0.2,0.3-0.3,0.4c-0.1,0.1-0.2,0.2-0.3,0.3c-0.1,0.1-0.1,0.1-0.2,0.2l-0.1,0.1c0,0-0.1,0-0.1,0.1l0,0L18,28.1l0,0
		c0,0,0,0,0.1-0.1l0.1-0.1c0.1-0.1,0.1-0.1,0.2-0.2c0.1-0.1,0.2-0.2,0.3-0.3l0,0c0.1-0.1,0.2-0.2,0.3-0.3c0-0.1,0.1-0.1,0.1-0.2l0,0
		l0,0c-0.1,0-0.1-0.1-0.2-0.1c-0.1-0.1-0.2-0.2-0.3-0.3c-0.1-0.1-0.2-0.2-0.3-0.3c-0.1-0.1-0.1-0.1-0.2-0.2L18,25.9c0,0,0,0-0.1-0.1
		l0,0l0.3-0.3l0,0c0,0,0,0,0.1,0.1l0.1,0.1c0,0.1,0.1,0.1,0.1,0.1c0.1,0.1,0.2,0.2,0.3,0.3l0,0c0.1,0.1,0.2,0.2,0.3,0.3
		c0.1,0,0.1,0.1,0.2,0.1l0.1,0.1c0,0,0,0,0.1,0.1l0.2,0.1L19.6,27z M21.3,26.5c-0.1,0.3-0.3,0.6-0.4,0.8l-0.1,0.1l-0.1,0.1
		c0,0.1-0.1,0.1-0.1,0.2c0,0.1-0.1,0.1-0.1,0.2c0,0.1-0.1,0.1-0.1,0.2l0,0L20,27.9l0,0c0-0.1,0.1-0.1,0.1-0.2c0-0.1,0.1-0.1,0.1-0.2
		c0-0.1,0.1-0.1,0.1-0.2l0.1-0.1l0.1-0.1c0.1-0.2,0.2-0.4,0.3-0.6c-0.2-0.1-0.4-0.2-0.6-0.3l-0.1-0.1L20,26.1C20,26,19.9,26,19.9,26
		c-0.1,0-0.1-0.1-0.2-0.1c-0.1,0-0.1-0.1-0.2-0.1l0,0l0.3-0.4l0,0c0,0,0.1,0.1,0.1,0.1c0.1,0,0.1,0.1,0.2,0.1c0.1,0,0.1,0.1,0.2,0.1
		l0.1,0.1l0.1,0.1c0.2,0.1,0.5,0.3,0.8,0.4l0.2,0.1L21.3,26.5z M22.9,25.7c-0.1,0.3-0.2,0.6-0.3,0.9l0,0.1l0,0.1
		c0,0.1-0.1,0.1-0.1,0.2c-0.1,0.2-0.1,0.3-0.2,0.5l-0.4-0.2c0.1-0.1,0.1-0.3,0.2-0.4c0-0.1,0.1-0.1,0.1-0.2l0-0.1l0-0.1
		c0.1-0.2,0.1-0.4,0.2-0.6c-0.2-0.1-0.4-0.1-0.7-0.2l-0.1,0l-0.1,0c-0.1,0-0.1-0.1-0.2-0.1c-0.2-0.1-0.3-0.1-0.4-0.2l0.2-0.4
		c0.1,0.1,0.2,0.1,0.4,0.2c0.1,0,0.1,0,0.2,0.1l0.1,0l0.1,0c0.3,0.1,0.5,0.2,0.8,0.2l0.2,0.1L22.9,25.7z M24.3,24.6
		c0,0.2,0,0.3,0,0.5l0,0c0,0.1,0,0.3-0.1,0.5c0,0.2-0.1,0.3-0.1,0.5c0,0.1,0,0.2-0.1,0.2c0,0.1,0,0.1-0.1,0.2l-0.4-0.1
		c0-0.1,0-0.2,0.1-0.2c0-0.1,0-0.2,0-0.2c0-0.1,0.1-0.3,0.1-0.5l0,0c0-0.2,0-0.3,0.1-0.4c0-0.1,0-0.1,0-0.2c-0.1,0-0.2,0-0.2,0l0,0
		c-0.1,0-0.3,0-0.4-0.1c-0.1,0-0.3,0-0.4-0.1c-0.1,0-0.2,0-0.2,0c-0.1,0-0.1,0-0.2-0.1l0.1-0.4c0.1,0,0.1,0,0.2,0c0.1,0,0.1,0,0.2,0
		c0.2,0,0.3,0.1,0.4,0.1l0,0c0.1,0,0.3,0,0.4,0c0.1,0,0.3,0,0.4,0l0.2,0L24.3,24.6z"/>
	<path class="st1" d="M32,5H4C3,5,2.1,5.4,1.4,6l9.1,6.6c-0.1-0.6-0.1-1.1-0.1-1.7l0.4,0c0,0.5,0,1.1,0.1,1.6c0.5-0.1,1-0.1,1.6-0.1
		l0,0.4c-0.5,0-1,0-1.4,0.1l14,10.1c0.1,0,0.2,0,0.2,0l0.2,0l0,0.2c0,0.1,0,0.1,0,0.2l9.1,6.6c0.8-0.7,1.4-1.8,1.4-3V9
		C36,6.8,34.2,5,32,5z M27.8,15.4c0.1,0,0.1,0.1,0.2,0.1c0.1,0,0.1,0.1,0.2,0.1l0,0L27.9,16l0,0c-0.1,0-0.1-0.1-0.2-0.1
		c-0.1,0-0.1-0.1-0.2-0.1c-0.1,0-0.1-0.1-0.2-0.1l-0.1-0.1l-0.1-0.1c-0.2-0.1-0.4-0.2-0.6-0.3c-0.1,0.2-0.2,0.4-0.3,0.6l-0.1,0.1
		L26.1,16c0,0.1-0.1,0.1-0.1,0.2c0,0.1-0.1,0.1-0.1,0.2c0,0.1-0.1,0.1-0.1,0.2l0,0l-0.4-0.3l0,0c0,0,0.1-0.1,0.1-0.1
		c0-0.1,0.1-0.1,0.1-0.2c0-0.1,0.1-0.1,0.1-0.2l0.1-0.1l0.1-0.1c0.1-0.2,0.3-0.5,0.4-0.8l0.1-0.2l0.2,0.1c0.3,0.1,0.6,0.3,0.8,0.4
		l0.1,0.1l0.1,0.1C27.6,15.3,27.7,15.3,27.8,15.4z M26.7,13.4l0.1,0c0.1,0,0.1,0.1,0.2,0.1c0.2,0.1,0.3,0.1,0.5,0.2l-0.2,0.4
		c-0.1-0.1-0.3-0.1-0.4-0.2c-0.1,0-0.1-0.1-0.2-0.1l-0.1,0l-0.1,0c-0.2-0.1-0.4-0.1-0.6-0.2c-0.1,0.2-0.1,0.4-0.2,0.7l0,0.1l0,0.1
		c0,0.1-0.1,0.1-0.1,0.2c-0.1,0.2-0.1,0.3-0.2,0.4l-0.4-0.2c0.1-0.1,0.1-0.2,0.2-0.4c0-0.1,0-0.1,0.1-0.2l0-0.1l0-0.1
		c0.1-0.3,0.2-0.5,0.2-0.8l0.1-0.2l0.2,0.1c0.3,0.1,0.6,0.2,0.9,0.3L26.7,13.4z M13.6,11.9c-0.1,0-0.1,0-0.2,0c-0.1,0-0.1,0-0.2,0
		c-0.2,0-0.3-0.1-0.4-0.1l0,0c-0.1,0-0.3,0-0.4,0c-0.1,0-0.3,0-0.4,0l-0.2,0l0-0.2c0-0.2,0-0.3,0-0.5l0,0c0-0.1,0-0.3,0.1-0.5
		c0-0.2,0.1-0.3,0.1-0.5c0-0.1,0-0.2,0.1-0.2c0-0.1,0-0.1,0.1-0.2l0.4,0.1c0,0.1,0,0.2-0.1,0.2c0,0.1,0,0.2,0,0.2
		c0,0.1-0.1,0.3-0.1,0.5l0,0c0,0.2,0,0.3-0.1,0.4c0,0.1,0,0.1,0,0.2c0.1,0,0.2,0,0.2,0l0,0c0.1,0,0.3,0,0.4,0.1c0.1,0,0.3,0,0.4,0.1
		c0.1,0,0.2,0,0.2,0c0.1,0,0.1,0,0.2,0.1L13.6,11.9z M14.8,11.1c-0.1-0.1-0.2-0.1-0.4-0.2c-0.1,0-0.1,0-0.2-0.1l-0.1,0l-0.1,0
		c-0.3-0.1-0.5-0.2-0.8-0.2L13,10.5l0.1-0.2c0.1-0.3,0.2-0.6,0.3-0.9l0-0.1l0-0.1c0-0.1,0.1-0.1,0.1-0.2c0.1-0.2,0.1-0.3,0.2-0.5
		l0.4,0.2C14.1,8.8,14,9,13.9,9.1c0,0.1-0.1,0.1-0.1,0.2l0,0.1l0,0.1c-0.1,0.2-0.1,0.4-0.2,0.6c0.2,0.1,0.4,0.1,0.7,0.2l0.1,0l0.1,0
		c0.1,0,0.1,0.1,0.2,0.1c0.2,0.1,0.3,0.1,0.4,0.2L14.8,11.1z M16.2,10.7L16.2,10.7c-0.1-0.1-0.1-0.1-0.2-0.1c-0.1,0-0.1-0.1-0.2-0.1
		c-0.1,0-0.1-0.1-0.2-0.1l-0.1-0.1l-0.1-0.1c-0.2-0.1-0.5-0.3-0.8-0.4l-0.2-0.1l0.1-0.2c0.1-0.3,0.3-0.6,0.4-0.8l0.1-0.1l0.1-0.1
		c0-0.1,0.1-0.1,0.1-0.2c0-0.1,0.1-0.1,0.1-0.2c0-0.1,0.1-0.1,0.1-0.2l0,0L16,8.1l0,0c0,0.1-0.1,0.1-0.1,0.2c0,0.1-0.1,0.1-0.1,0.2
		c0,0.1-0.1,0.1-0.1,0.2l-0.1,0.1l-0.1,0.1c-0.1,0.2-0.2,0.4-0.3,0.6c0.2,0.1,0.4,0.2,0.6,0.3l0.1,0.1L16,9.9c0.1,0,0.1,0.1,0.2,0.1
		c0.1,0,0.1,0.1,0.2,0.1c0.1,0,0.1,0.1,0.2,0.1l0,0L16.2,10.7z M17.7,10.4L17.7,10.4C17.7,10.4,17.6,10.4,17.7,10.4l-0.1-0.2
		c-0.1-0.1-0.1-0.1-0.1-0.1c-0.1-0.1-0.2-0.2-0.3-0.3l0,0c-0.1-0.1-0.2-0.2-0.3-0.3c-0.1,0-0.1-0.1-0.2-0.1l-0.1-0.1
		c0,0,0,0-0.1-0.1l-0.2-0.1L16.4,9c0,0,0-0.1,0.1-0.1l0.1-0.1c0-0.1,0.1-0.1,0.1-0.2c0.1-0.1,0.2-0.3,0.3-0.4
		c0.1-0.1,0.2-0.2,0.3-0.3c0.1-0.1,0.1-0.1,0.2-0.2l0.1-0.1c0,0,0.1,0,0.1-0.1l0,0L18,7.9l0,0c0,0,0,0-0.1,0.1l-0.1,0.1
		c-0.1,0.1-0.1,0.1-0.2,0.2c-0.1,0.1-0.2,0.2-0.3,0.3l0,0c-0.1,0.1-0.2,0.2-0.3,0.3C17,9,16.9,9,16.9,9.1l0,0l0,0
		c0.1,0,0.1,0.1,0.2,0.1c0.1,0.1,0.2,0.2,0.3,0.3c0.1,0.1,0.2,0.2,0.3,0.3c0.1,0.1,0.1,0.1,0.2,0.2l0.1,0.1c0,0,0,0,0.1,0.1l0,0
		L17.7,10.4z M19.2,10.5c-0.1-0.2-0.3-0.5-0.5-0.7c-0.2-0.2-0.4-0.5-0.6-0.7L18,9l0.2-0.2c0.2-0.2,0.5-0.4,0.7-0.6
		c0.3-0.2,0.5-0.4,0.8-0.5l0.2,0.4c-0.3,0.2-0.5,0.3-0.8,0.5C19,8.8,18.8,8.9,18.6,9c0.1,0.2,0.3,0.3,0.4,0.5
		c0.2,0.2,0.3,0.5,0.5,0.7L19.2,10.5z M20.6,10.9c-0.1-0.3-0.2-0.5-0.3-0.8c-0.1-0.3-0.3-0.5-0.4-0.8l-0.1-0.2l0.2-0.1
		c0.3-0.2,0.5-0.3,0.8-0.4c0.3-0.1,0.6-0.3,0.9-0.4l0.2,0.4C21.5,8.8,21.2,8.9,21,9c-0.2,0.1-0.4,0.2-0.6,0.3
		c0.1,0.2,0.2,0.4,0.3,0.6c0.1,0.3,0.2,0.5,0.3,0.8L20.6,10.9z M22.2,10.6c0.1,0.3,0.1,0.6,0.2,0.9l-0.4,0.1c0-0.3-0.1-0.6-0.2-0.8
		c-0.1-0.3-0.2-0.6-0.3-0.8l-0.1-0.2l0.2-0.1c0.3-0.1,0.6-0.2,0.9-0.3c0.3-0.1,0.6-0.1,1-0.2l0.1,0.4c-0.3,0-0.6,0.1-0.9,0.2
		C22.4,9.8,22.2,9.9,22,10C22.1,10.2,22.2,10.4,22.2,10.6z M23.6,12.5l-0.4,0c0-0.6,0-1.1-0.1-1.7l0-0.2l0.2,0
		c0.6-0.1,1.3-0.1,1.9-0.1l0,0.4c-0.5,0-1.1,0-1.6,0.1C23.6,11.4,23.6,12,23.6,12.5z M24.2,13.4c0-0.1,0-0.1,0-0.2
		c0-0.2,0.1-0.3,0.1-0.4l0,0c0-0.1,0-0.3,0-0.4c0-0.1,0-0.3,0-0.4l0-0.2l0.2,0c0.2,0,0.3,0,0.5,0l0,0c0.1,0,0.3,0,0.5,0.1
		c0.2,0,0.3,0.1,0.5,0.1c0.1,0,0.2,0,0.2,0.1c0.1,0,0.1,0,0.2,0.1l-0.1,0.4c-0.1,0-0.2,0-0.2-0.1c-0.1,0-0.2,0-0.2,0
		c-0.1,0-0.3-0.1-0.5-0.1l0,0c-0.2,0-0.3,0-0.4-0.1c-0.1,0-0.1,0-0.2,0c0,0.1,0,0.2,0,0.2l0,0c0,0.1,0,0.3-0.1,0.4
		c0,0.1,0,0.3-0.1,0.4c0,0.1,0,0.2,0,0.2c0,0.1,0,0.1-0.1,0.2l-0.4-0.1C24.1,13.5,24.1,13.4,24.2,13.4z M26.4,23.6
		c0-0.3-0.1-0.6-0.2-0.9c-0.1-0.2-0.1-0.4-0.2-0.6c-0.2,0.1-0.4,0.1-0.7,0.2c-0.3,0.1-0.6,0.1-0.9,0.2l-0.1-0.4
		c0.3,0,0.6-0.1,0.8-0.2c0.3-0.1,0.6-0.2,0.8-0.3l0.2-0.1l0.1,0.2c0.1,0.3,0.2,0.6,0.3,0.9c0.1,0.3,0.1,0.6,0.2,1L26.4,23.6z
		 M27.3,21.8c-0.1-0.3-0.2-0.6-0.4-0.9c-0.1-0.2-0.2-0.4-0.3-0.6c-0.2,0.1-0.4,0.2-0.6,0.3c-0.3,0.1-0.5,0.2-0.8,0.3l-0.1-0.4
		c0.3-0.1,0.5-0.2,0.8-0.3c0.3-0.1,0.5-0.3,0.8-0.4l0.2-0.1l0.1,0.2c0.2,0.3,0.3,0.5,0.4,0.8c0.1,0.3,0.3,0.6,0.4,0.9L27.3,21.8z
		 M27.9,19.9c-0.2-0.3-0.3-0.5-0.5-0.8c-0.1-0.2-0.3-0.4-0.4-0.5c-0.2,0.1-0.3,0.3-0.5,0.4c-0.2,0.2-0.5,0.3-0.7,0.5l-0.2-0.4
		c0.2-0.1,0.5-0.3,0.7-0.5c0.2-0.2,0.5-0.4,0.7-0.6L27,18l0.2,0.2c0.2,0.2,0.4,0.5,0.6,0.7c0.2,0.3,0.4,0.5,0.5,0.8L27.9,19.9z
		 M28.1,18L28.1,18C28,17.9,28,17.9,28.1,18l-0.2-0.2c-0.1-0.1-0.1-0.1-0.2-0.2c-0.1-0.1-0.2-0.2-0.3-0.3l0,0
		c-0.1-0.1-0.2-0.2-0.3-0.3c-0.1,0-0.1-0.1-0.2-0.1l0,0l0,0c0,0.1-0.1,0.1-0.1,0.2c-0.1,0.1-0.2,0.2-0.3,0.3
		c-0.1,0.1-0.2,0.2-0.3,0.3c-0.1,0.1-0.1,0.1-0.2,0.2L25.9,18c0,0,0,0-0.1,0.1l0,0l-0.3-0.3l0,0c0,0,0,0,0.1-0.1l0.1-0.1
		c0.1-0.1,0.1-0.1,0.1-0.1c0.1-0.1,0.2-0.2,0.3-0.3l0,0c0.1-0.1,0.2-0.2,0.3-0.3c0-0.1,0.1-0.1,0.1-0.2l0.1-0.1c0,0,0,0,0-0.1
		l0.1-0.2l0.2,0.1c0,0,0.1,0,0.1,0.1l0.1,0.1c0.1,0,0.1,0.1,0.2,0.1c0.1,0.1,0.3,0.2,0.4,0.3c0.1,0.1,0.2,0.2,0.3,0.3
		c0.1,0.1,0.1,0.1,0.2,0.2l0.1,0.1c0,0,0,0.1,0.1,0.1l0,0L28.1,18z"/>
</g>
<g id="레이어_2">
</g>
</svg>
