<?xml version="1.0" encoding="UTF-8"?>
<svg id="a" data-name="레이어 1" xmlns="http://www.w3.org/2000/svg" width="500" height="500" viewBox="0 0 500 500">
  <g>
    <polygon points="491.254 238.205 493.541 210.61 478.396 187.429 471.599 160.587 449.748 143.579 434.603 120.399 408.414 111.408 386.563 94.401 358.873 94.401 332.684 85.41 306.495 94.401 278.805 94.401 256.955 111.408 250 113.795 243.046 111.408 221.195 94.401 193.506 94.401 167.317 85.41 141.128 94.401 113.438 94.401 91.587 111.408 65.398 120.399 50.253 143.579 28.402 160.587 21.605 187.429 6.46 210.61 8.747 238.205 1.949 265.047 13.072 290.404 15.359 317.999 34.112 338.371 45.235 363.728 69.587 376.907 88.341 397.279 115.653 401.836 140.005 415.015 167.317 410.458 194.629 415.015 218.981 401.836 246.293 397.279 250 393.251 253.708 397.279 281.02 401.836 305.372 415.015 332.684 410.458 359.996 415.015 384.348 401.836 411.66 397.279 430.414 376.907 454.766 363.728 465.889 338.371 484.642 317.999 486.929 290.404 498.052 265.047 491.254 238.205" fill="#2c2c2c"/>
    <path d="m360.317,416.944l-27.633-4.61-27.634,4.61-24.639-13.332-27.633-4.614-2.778-3.017-2.777,3.017-27.634,4.614-24.639,13.332-27.633-4.61-27.634,4.61-24.639-13.332-27.633-4.614-18.976-20.609-24.639-13.336-11.253-25.656-18.974-20.612-2.314-27.922-11.255-25.653,6.877-27.163-2.314-27.918,15.323-23.452,6.879-27.159,22.108-17.209,15.323-23.452,26.498-9.101,22.106-17.205h28.017l26.498-9.094,26.498,9.094h28.016l22.108,17.209,6.061,2.081,6.063-2.085,22.106-17.205h28.017l26.498-9.094,26.498,9.094h28.016l22.108,17.205,26.498,9.101,15.323,23.452,22.108,17.209,6.877,27.156,15.325,23.456-2.314,27.918,6.876,27.163-11.255,25.653-2.312,27.922-18.974,20.612-11.253,25.656-24.639,13.336-18.976,20.609-27.634,4.614-24.639,13.332Zm-105.678-21.386l27.261,4.654,23.794,12.873,26.991-4.502,26.99,4.502,24.368-13.072,26.688-4.455,18.804-20.276,23.792-12.881,11.202-25.284,18.322-19.901,2.383-27.557,10.868-24.775-6.717-26.527,2.26-27.268-15.043-23.207-6.639-26.227-21.763-17.064-14.797-22.65-26.124-9.076-21.351-16.616-27.653-.101-25.589-8.783-26.189,8.885h-27.055l-21.884,16.905-7.557,2.594-8.09-2.883-21.351-16.616-27.653-.101-25.589-8.783-26.189,8.885h-27.055l-21.884,16.905-25.589,8.787-15.209,23.098-21.351,16.616-6.886,26.784-14.795,22.65,2.26,27.268-6.718,26.527,11.016,25.367,2.235,26.964,18.658,20.41,10.868,24.775,24.273,13.253,18.324,19.904,27.261,4.654,23.794,12.873,26.991-4.502,26.99,4.502,24.368-13.072,26.688-4.455,4.637-5.04,4.639,5.04Z" fill="#fdde59"/>
  </g>
  <path d="m192.218,400.465l-24.901-4.159-24.903,4.159-22.204-12.017-24.901-4.155-17.101-18.575-22.204-12.017-10.142-23.12-17.099-18.578-2.085-25.158-10.142-23.12,6.196-24.475-2.085-25.161,13.809-21.136,6.2-24.475,19.922-15.507,13.809-21.133,23.879-8.202,19.922-15.504h25.248l23.879-8.198,23.879,8.198h25.248l19.922,15.504,23.879,8.202,13.809,21.133,19.922,15.507,6.2,24.475,13.809,21.136-2.087,25.161,6.198,24.475-10.144,23.12-2.085,25.158-17.099,18.578-10.14,23.12-22.204,12.017-17.101,18.575-24.901,4.155-22.206,12.017Zm-24.901-7.909l24.258,4.05,21.935-11.757,23.955-3.996,16.929-18.242,21.357-11.562,10.089-22.748,16.448-17.867,2.153-24.793,9.757-22.242-6.039-23.839,2.032-24.511-13.527-20.887-5.962-23.546-19.577-15.363-13.283-20.331-23.505-8.176-19.165-14.915-24.887-.101-22.968-7.887-23.57,7.988h-24.285l-19.7,15.204-22.97,7.887-13.695,20.779-19.165,14.915-6.207,24.103-13.282,20.331,2.031,24.511-6.037,23.839,9.905,22.835,2.003,24.2,16.783,18.376,9.757,22.238,21.837,11.934,16.448,17.87,24.529,4.195,21.359,11.558,24.26-4.05Z" fill="#fdde59"/>
  <path d="m357.586,400.465l-24.901-4.159-24.903,4.159-22.204-12.017-24.903-4.155-17.101-18.575-22.204-12.017-10.14-23.12-17.099-18.578-2.085-25.158-10.142-23.12,6.196-24.475-2.085-25.161,13.809-21.133,6.198-24.478,19.922-15.507,13.809-21.133,23.88-8.202,19.922-15.504h25.246l23.88-8.198,23.879,8.198h25.248l19.922,15.504,23.879,8.202,13.809,21.133,19.922,15.507,6.198,24.478,13.809,21.133-2.085,25.161,6.198,24.475-10.144,23.12-2.085,25.158-17.099,18.578-10.14,23.12-22.204,12.017-17.101,18.575-24.903,4.155-22.204,12.017Zm-24.901-7.909l24.258,4.05,21.935-11.757,23.955-3.996,16.929-18.242,21.357-11.562,10.089-22.748,16.448-17.867,2.153-24.793,9.757-22.242-6.039-23.839,2.031-24.511-13.527-20.887-5.96-23.546-19.577-15.363-13.283-20.331-23.505-8.176-19.165-14.915-24.887-.101-22.968-7.887-23.572,7.988h-24.283l-19.7,15.204-22.972,7.887-13.695,20.779-19.165,14.915-6.205,24.103-13.282,20.331,2.031,24.511-6.037,23.839,9.905,22.835,2.003,24.2,16.783,18.376,9.755,22.238,21.837,11.934,16.448,17.87,24.531,4.195,21.359,11.558,24.26-4.05Z" fill="#fdde59"/>
</svg>