<?xml version="1.0" encoding="UTF-8"?>
<svg id="a" data-name="레이어 1" xmlns="http://www.w3.org/2000/svg" width="600" height="400" viewBox="0 0 600 400">
  <rect width="600" height="400" fill="#337ab7" stroke-width="0"/>
  <g>
    <path d="M179.078,266.118c-36.458,0-66.119-29.66-66.119-66.118s29.661-66.119,66.119-66.119,66.119,29.661,66.119,66.119-29.661,66.118-66.119,66.118ZM179.078,153.882c-25.43,0-46.119,20.689-46.119,46.119s20.689,46.118,46.119,46.118,46.119-20.688,46.119-46.118-20.689-46.119-46.119-46.119Z" fill="#f7f7f9" stroke-width="0"/>
    <path d="M259.693,266.118c-36.458,0-66.119-29.66-66.119-66.118s29.661-66.119,66.119-66.119,66.118,29.661,66.118,66.119-29.66,66.118-66.118,66.118ZM259.693,153.882c-25.43,0-46.119,20.689-46.119,46.119s20.689,46.118,46.119,46.118,46.118-20.688,46.118-46.118-20.688-46.119-46.118-46.119Z" fill="#f7f7f9" stroke-width="0"/>
    <path d="M340.307,266.118c-36.458,0-66.118-29.66-66.118-66.118s29.66-66.119,66.118-66.119,66.119,29.661,66.119,66.119-29.661,66.118-66.119,66.118ZM340.307,153.882c-25.43,0-46.118,20.689-46.118,46.119s20.688,46.118,46.118,46.118,46.119-20.688,46.119-46.118-20.689-46.119-46.119-46.119Z" fill="#f7f7f9" stroke-width="0"/>
    <path d="M420.921,266.118c-36.458,0-66.118-29.66-66.118-66.118s29.66-66.119,66.118-66.119,66.119,29.661,66.119,66.119-29.661,66.118-66.119,66.118ZM420.921,153.882c-25.43,0-46.118,20.689-46.118,46.119s20.688,46.118,46.118,46.118,46.119-20.688,46.119-46.118-20.688-46.119-46.119-46.119Z" fill="#f7f7f9" stroke-width="0"/>
  </g>
</svg>