<?xml version="1.0" encoding="UTF-8"?>
<svg id="a" data-name="레이어 1" xmlns="http://www.w3.org/2000/svg" width="600" height="400" viewBox="0 0 600 400">
  <rect width="600" height="400" fill="#2c2c2c" stroke-width="0"/>
  <g>
    <path d="M401.873,266.693c-1.286.218-2.117-3.188-3.876-.565-1.058,1.578-3.614.326-4.614,2.356-.616,1.25-1.613,2.313-2.437,3.456-1.201-1.201-1.652-2.062-2.264-2.198-4.329-.961-4.691-.837-11.301,1.29-.584.188-1.598-.959-2.904-1.804-1.63,0-4.142-.661-5.947.185-1.83.858-3.604,2.014-5.752,2.808v13.54c-1.447,1.448-2.809,3.237-4.566,4.455-2.018,1.398-2.123,3.621-3.079,5.462-1.33,2.56-4.577,1.928-6.195,3.926-1.486,1.834-3.54.194-5.186.988-1.629.795-1.176,2.353-1.261,3.761-.086,1.436.253,3.749-.457,4.15-3.304,1.865-.366,5.836-3.011,7.833-.672.507-.371,2.312-1.043,2.808-1.905,1.407-4.155,3.526-6.137,3.394-3.628-.242-5.303,1.866-7.467,3.804-1.54,1.379-4.185.954-5.174,2.77-1.263-.634-2.46-1.595-3.754-1.751-.789-.095-1.943.88-2.558,1.668-1.949,2.496-3.052,5.498-5.435,7.837-1.688,1.656-4.367.838-5.507,3.026-.492.945-.818.635-1.613-.073-2.458-2.194-7.315-1.965-6.917-7.003-1.84-1.837-3.681-3.673-5.56-5.549h-4.431c-2.56,1.561-3.016,4.747-4.844,6.735-1.78,1.935-2.801,4.04-3.755,6.274-3.016-1.537-6.001-3.06-8.801-4.487-1.205,1.092-2,1.813-2.744,2.487-.842-.711-1.593-1.568-2.534-2.06-.584-.305-1.461-.108-2.199-.048-4.838.39-9.088-.956-12.807-4.108-.46-.39-1.364-.255-2.227-.389-.737.625-1.557,1.32-2.549,2.162h-9.637c-1.578-1.961-3.652-4.538-5.39-6.697h-5.538c-.207-1.047-.095-2.306-.666-3.016-1.613-2.005-3.506-3.786-5.257-5.62-2.526-.263-4.93.04-7.002-2.262-1.808-2.009-.252-4.3-1.451-6.121-2.832-1.283-5.649-2.559-8.541-3.868,0-1.549.284-3.087-.057-4.471-.786-3.186,1.344-5.386,2.217-8.029.755-2.287,2.814-3.919,2.486-6.874-.229-2.066,1.899-3.682,4.185-4.257,7.241-1.821,12.323-4.465,16.498-8.6,1.584-1.569,3.154-3.151,4.76-4.757h8.819c3.925-2.85,4.353-8.443,9.717-11.024h3.974c.998-1.617,2.175-3.524,2.835-4.594h10.323c3.369,2.834,3.449,2.824,6.168.567,1.346-1.117,2.226-2.617,4.366-3.003,1.495-.269,3.747-2.134,3.808-3.376.135-2.761,2.204-3.674,3.518-5.303,1.159-1.438,2.455-2.476,4.572-2.563.576-.023,1.058-2.348,1.595-3.644,2.054-1.068,4.282-.41,6.434-.533,1.851-.106,3.714-.022,5.571-.022l7.528-3.348c-.721-2.831,1.99-3.646,3.122-5.4,1.308-2.029,2.391-4.204,3.571-6.315-1.504-3.291,2.416-5.102,2.199-7.989-.157-2.085.825-4.34-1.249-6.181-2.677-2.377-.125-3.788,1.28-5.346-2.743-1.563-2.131-5.244-4.461-7.068.6-1.497,1.2-2.994,1.808-4.51-.499-.499-1.025-1.024-1.808-1.807,2.799-2.799,5.605-5.605,8.411-8.411.077-2.985,2.37-3.632,4.559-4.662,1.887-.887,2.581-3.412,5.158-3.777,1.227-.174,2.375-1.497,3.39-2.475,2.933-2.827,5.781-5.743,8.558-8.52h5.915c1.986.973,3.292,2.172,4.455,2.046,1.611-.174,3.08-1.811,4.675-1.929,1.117-.082,2.305,1.834,3.533,1.928,1.205.093,2.501-.988,3.927-1.63,1.699.962,3.928,1.925,5.801,3.355,2.642,2.018,2.501,2.731-.271,6.12,6.302,1.904,10.337,1.704,14.088-.701,2.243,1.23,4.251,2.638,3.644,5.67-.548,2.735,1.468,4.652,2.037,6.93.612,2.452,1.766,2.449,3.598,2.932,1.242.327,2.138,1.963,3.189,3.014.037.356.105.713.106,1.069.006,7.801.005,15.603.005,23.684,2.065,1.833,4.279,3.797,6.436,5.711v12.293c-2.111,2.11-4.212,4.212-6.436,6.435,0,3.576-.015,7.275.028,10.972.003.283.411.561.738.98,1.634.186,3.39.385,5.116.581.288.7.767,1.332.776,1.97.063,4.829.047,9.659,0,14.488-.003.258-.502.511-.828.822Z" fill="#fdde59" stroke-width="0"/>
    <path d="M364.891,67.241c1.048-1.048,2.096-2.095,3.203-3.202h6.938c.27.757,1.005,1.756.859,2.603-.546,3.17,1.507,4.858,3.633,6.144,1.055.638,3.196-.092,3.04,2.005-.095,1.28-1.098,2.492-1.77,3.892,1.93,2.4,2.661,6.152,5.767,8.126,2.177,5.027-.848,8.83-2.821,12.865h-13.311c-.817.766-1.616,1.514-2.758,2.584-2.325-1.132-4.765-2.32-7.25-3.529.202-3.212-1.304-6.748,2.156-9.111,0-4.074.411-8.203-.117-12.207-.51-3.871,3.918-6.269,2.431-10.169Z" fill="#fdde59" stroke-width="0"/>
    <path d="M367.706,155.828c1.847.3,2.513,2.023,3.776,2.987-1.025,1.266-2.403,1.578-3.65.691-1.405-1-1.084-2.391-.125-3.678Z" fill="#fdde59" stroke-width="0"/>
    <path d="M388.235,59.517c.248.496.581.973.697,1.498.041.184-.45.486-.698.734-.248-.496-.581-.973-.698-1.498-.041-.184.45-.486.698-.734Z" fill="#fdde59" stroke-width="0"/>
  </g>
</svg>