<?xml version="1.0" encoding="UTF-8"?>
<svg id="a" data-name="레이어 1" xmlns="http://www.w3.org/2000/svg" width="600" height="400" viewBox="0 0 600 400">
  <rect width="600" height="400" fill="#337ab7"/>
  <g>
    <path d="m600,353.624v16.58c-6.62,0-13.25-2.16-18.75-6.49s-12.13-6.5-18.75-6.5-13.25,2.17-18.75,6.5-12.13,6.49-18.75,6.49-13.25-2.16-18.75-6.49-12.13-6.5-18.75-6.5-13.25,2.17-18.75,6.5-12.13,6.49-18.75,6.49-13.25-2.16-18.75-6.49-12.13-6.5-18.75-6.5-13.25,2.17-18.75,6.5-12.13,6.49-18.75,6.49-13.25-2.16-18.75-6.49-12.13-6.5-18.75-6.5-13.25,2.17-18.75,6.5-12.13,6.49-18.75,6.49-13.25-2.16-18.75-6.49-12.13-6.5-18.75-6.5-13.25,2.17-18.75,6.5-12.13,6.49-18.75,6.49-13.25-2.16-18.75-6.49-12.13-6.5-18.75-6.5-13.25,2.17-18.75,6.5-12.13,6.49-18.75,6.49-13.25-2.16-18.75-6.49-12.13-6.5-18.75-6.5-13.25,2.17-18.75,6.5-12.13,6.49-18.75,6.49-13.25-2.16-18.75-6.49-12.13-6.5-18.75-6.5-13.25,2.17-18.75,6.5-12.13,6.49-18.75,6.49v-16.58c6.62,0,13.25-2.16,18.75-6.49,5.5-4.33,12.13-6.5,18.75-6.5s13.25,2.17,18.75,6.5c5.5,4.33,12.13,6.49,18.75,6.49s13.25-2.16,18.75-6.49c5.5-4.33,12.13-6.5,18.75-6.5s13.25,2.17,18.75,6.5c5.5,4.33,12.13,6.49,18.75,6.49s13.25-2.16,18.75-6.49c5.5-4.33,12.13-6.5,18.75-6.5s13.25,2.17,18.75,6.5c5.5,4.33,12.13,6.49,18.75,6.49s13.25-2.16,18.75-6.49c5.5-4.33,12.13-6.5,18.75-6.5s13.25,2.17,18.75,6.5c5.5,4.33,12.13,6.49,18.75,6.49s13.25-2.16,18.75-6.49c5.5-4.33,12.13-6.5,18.75-6.5s13.25,2.17,18.75,6.5c5.5,4.33,12.13,6.49,18.75,6.49s13.25-2.16,18.75-6.49c5.5-4.33,12.13-6.5,18.75-6.5s13.25,2.17,18.75,6.5c5.5,4.33,12.13,6.49,18.75,6.49s13.25-2.16,18.75-6.49c5.5-4.33,12.13-6.5,18.75-6.5s13.25,2.17,18.75,6.5c5.5,4.33,12.13,6.49,18.75,6.49s13.25-2.16,18.75-6.49c5.5-4.33,12.13-6.5,18.75-6.5s13.25,2.17,18.75,6.5c5.5,4.33,12.13,6.49,18.75,6.49Z" fill="#fff"/>
    <path d="m600,324.054v16.58c-6.62,0-13.25-2.16-18.75-6.49s-12.13-6.5-18.75-6.5-13.25,2.17-18.75,6.5-12.13,6.49-18.75,6.49-13.25-2.16-18.75-6.49-12.13-6.5-18.75-6.5-13.25,2.17-18.75,6.5-12.13,6.49-18.75,6.49-13.25-2.16-18.75-6.49-12.13-6.5-18.75-6.5-13.25,2.17-18.75,6.5-12.13,6.49-18.75,6.49-13.25-2.16-18.75-6.49-12.13-6.5-18.75-6.5-13.25,2.17-18.75,6.5-12.13,6.49-18.75,6.49-13.25-2.16-18.75-6.49-12.13-6.5-18.75-6.5-13.25,2.17-18.75,6.5-12.13,6.49-18.75,6.49-13.25-2.16-18.75-6.49-12.13-6.5-18.75-6.5-13.25,2.17-18.75,6.5-12.13,6.49-18.75,6.49-13.25-2.16-18.75-6.49-12.13-6.5-18.75-6.5-13.25,2.17-18.75,6.5-12.13,6.49-18.75,6.49-13.25-2.16-18.75-6.49-12.13-6.5-18.75-6.5-13.25,2.17-18.75,6.5-12.13,6.49-18.75,6.49v-16.58c6.62,0,13.25-2.16,18.75-6.49,5.5-4.33,12.13-6.5,18.75-6.5s13.25,2.17,18.75,6.5c5.5,4.33,12.13,6.49,18.75,6.49s13.25-2.16,18.75-6.49c5.5-4.33,12.13-6.5,18.75-6.5s13.25,2.17,18.75,6.5c5.5,4.33,12.13,6.49,18.75,6.49s13.25-2.16,18.75-6.49c5.5-4.33,12.13-6.5,18.75-6.5s13.25,2.17,18.75,6.5c5.5,4.33,12.13,6.49,18.75,6.49s13.25-2.16,18.75-6.49c5.5-4.33,12.13-6.5,18.75-6.5s13.25,2.17,18.75,6.5c5.5,4.33,12.13,6.49,18.75,6.49s13.25-2.16,18.75-6.49c5.5-4.33,12.13-6.5,18.75-6.5s13.25,2.17,18.75,6.5c5.5,4.33,12.13,6.49,18.75,6.49s13.25-2.16,18.75-6.49c5.5-4.33,12.13-6.5,18.75-6.5s13.25,2.17,18.75,6.5c5.5,4.33,12.13,6.49,18.75,6.49s13.25-2.16,18.75-6.49c5.5-4.33,12.13-6.5,18.75-6.5s13.25,2.17,18.75,6.5c5.5,4.33,12.13,6.49,18.75,6.49s13.25-2.16,18.75-6.49c5.5-4.33,12.13-6.5,18.75-6.5s13.25,2.17,18.75,6.5c5.5,4.33,12.13,6.49,18.75,6.49Z" fill="#fff"/>
    <path d="m600,294.484v16.58c-6.62,0-13.25-2.16-18.75-6.49s-12.13-6.5-18.75-6.5-13.25,2.17-18.75,6.5-12.13,6.49-18.75,6.49-13.25-2.16-18.75-6.49-12.13-6.5-18.75-6.5-13.25,2.17-18.75,6.5-12.13,6.49-18.75,6.49-13.25-2.16-18.75-6.49-12.13-6.5-18.75-6.5-13.25,2.17-18.75,6.5-12.13,6.49-18.75,6.49-13.25-2.16-18.75-6.49-12.13-6.5-18.75-6.5-13.25,2.17-18.75,6.5-12.13,6.49-18.75,6.49-13.25-2.16-18.75-6.49-12.13-6.5-18.75-6.5-13.25,2.17-18.75,6.5-12.13,6.49-18.75,6.49-13.25-2.16-18.75-6.49-12.13-6.5-18.75-6.5-13.25,2.17-18.75,6.5-12.13,6.49-18.75,6.49-13.25-2.16-18.75-6.49-12.13-6.5-18.75-6.5-13.25,2.17-18.75,6.5-12.13,6.49-18.75,6.49-13.25-2.16-18.75-6.49-12.13-6.5-18.75-6.5-13.25,2.17-18.75,6.5-12.13,6.49-18.75,6.49v-16.58c6.62,0,13.25-2.16,18.75-6.49,5.5-4.33,12.13-6.5,18.75-6.5s13.25,2.17,18.75,6.5c5.5,4.33,12.13,6.49,18.75,6.49s13.25-2.16,18.75-6.49c5.5-4.33,12.13-6.5,18.75-6.5s13.25,2.17,18.75,6.5c5.5,4.33,12.13,6.49,18.75,6.49s13.25-2.16,18.75-6.49c5.5-4.33,12.13-6.5,18.75-6.5s13.25,2.17,18.75,6.5c5.5,4.33,12.13,6.49,18.75,6.49s13.25-2.16,18.75-6.49c5.5-4.33,12.13-6.5,18.75-6.5s13.25,2.17,18.75,6.5c5.5,4.33,12.13,6.49,18.75,6.49s13.25-2.16,18.75-6.49c5.5-4.33,12.13-6.5,18.75-6.5s13.25,2.17,18.75,6.5c5.5,4.33,12.13,6.49,18.75,6.49s13.25-2.16,18.75-6.49c5.5-4.33,12.13-6.5,18.75-6.5s13.25,2.17,18.75,6.5c5.5,4.33,12.13,6.49,18.75,6.49s13.25-2.16,18.75-6.49c5.5-4.33,12.13-6.5,18.75-6.5s13.25,2.17,18.75,6.5c5.5,4.33,12.13,6.49,18.75,6.49s13.25-2.16,18.75-6.49c5.5-4.33,12.13-6.5,18.75-6.5s13.25,2.17,18.75,6.5c5.5,4.33,12.13,6.49,18.75,6.49Z" fill="#fff"/>
  </g>
  <path d="m200,50c-55.23,0-100,44.77-100,100s44.77,100,100,100,100-44.77,100-100-44.77-100-100-100Zm0,150c-27.62,0-50-22.39-50-50s22.38-50,50-50,50,22.39,50,50-22.39,50-50,50Z" fill="#fff"/>
</svg>