<?xml version="1.0" encoding="UTF-8"?>
<svg id="a" data-name="레이어 1" xmlns="http://www.w3.org/2000/svg" width="500" height="500" viewBox="0 0 500 500">
  <rect width="500" height="500" fill="#f7f7f9"/>
  <g>
    <g>
      <path d="m65.934,307.978v24.1c0,2.683-.638,5.044-1.911,7.085-1.275,2.042-3.072,3.628-5.392,4.757-2.319,1.13-5.001,1.694-8.045,1.694s-5.727-.564-8.046-1.694c-2.319-1.129-4.113-2.715-5.382-4.757-1.269-2.041-1.902-4.402-1.902-7.085v-24.1h7.701v23.447c0,1.426.317,2.697.951,3.814.635,1.118,1.528,1.993,2.682,2.628,1.154.634,2.485.951,3.996.951,1.521,0,2.859-.317,4.014-.951,1.153-.635,2.044-1.51,2.673-2.628.628-1.117.942-2.389.942-3.814v-23.447h7.719Z" fill="#2c2c2c"/>
      <path d="m82.975,333.246c-1.299.079-2.39.154-3.271.227-1.353.108-2.41.475-3.171,1.097s-1.142,1.458-1.142,2.51c0,.7.175,1.295.525,1.784s.84.858,1.468,1.105c.628.248,1.347.372,2.156.372,1.136,0,2.15-.229,3.045-.689.894-.459,1.588-1.084,2.083-1.875.496-.791.743-1.67.743-2.637l-.036-8.987c0-.785-.175-1.456-.525-2.012s-.854-.976-1.513-1.259c-.659-.284-1.453-.427-2.383-.427-.858,0-1.607.124-2.247.372-.641.248-1.169.601-1.586,1.06-.417.46-.691,1.009-.824,1.649h-7.193c.156-1.643.725-3.12,1.703-4.431s2.347-2.34,4.104-3.09c1.758-.748,3.833-1.123,6.225-1.123,2.15,0,4.11.329,5.88.987,1.77.659,3.198,1.701,4.286,3.126,1.087,1.426,1.631,3.201,1.631,5.327v18.755h-7.194v-3.859h-.217c-.472.894-1.078,1.664-1.821,2.311-.743.646-1.646,1.153-2.709,1.521-1.063.368-2.266.553-3.606.553-1.8,0-3.395-.314-4.783-.942-1.39-.628-2.482-1.567-3.28-2.817-.797-1.25-1.195-2.764-1.195-4.539,0-2.875.957-4.975,2.872-6.297,1.914-1.323,4.405-2.087,7.475-2.292.761-.049,1.712-.1,2.854-.154s2.178-.1,3.107-.136c.52-.036.948-.055,1.287-.055l.054,4.711c-.567.024-1.501.076-2.799.154Z" fill="#2c2c2c"/>
      <path d="m110.578,322.963h-16.671v-5.708h16.671v5.708Zm-5.255-12.376v25.966c0,.701.108,1.254.326,1.658.217.405.52.692.906.861.386.169.857.26,1.413.271.544.012,1.534-.03,2.972-.127v5.979c-1.16.182-2.495.272-4.005.272-1.872,0-3.494-.29-4.865-.87s-2.44-1.452-3.207-2.618c-.768-1.166-1.145-2.631-1.133-4.395v-26.999h7.593Z" fill="#2c2c2c"/>
      <path d="m126.584,333.246c-1.299.079-2.39.154-3.271.227-1.353.108-2.41.475-3.171,1.097s-1.142,1.458-1.142,2.51c0,.7.175,1.295.525,1.784s.84.858,1.468,1.105c.628.248,1.347.372,2.156.372,1.136,0,2.15-.229,3.045-.689.894-.459,1.588-1.084,2.083-1.875.496-.791.743-1.67.743-2.637l-.036-8.987c0-.785-.175-1.456-.525-2.012s-.854-.976-1.513-1.259c-.659-.284-1.453-.427-2.383-.427-.858,0-1.607.124-2.247.372-.641.248-1.169.601-1.586,1.06-.417.46-.691,1.009-.824,1.649h-7.193c.156-1.643.725-3.12,1.703-4.431s2.347-2.34,4.104-3.09c1.758-.748,3.833-1.123,6.225-1.123,2.15,0,4.11.329,5.88.987,1.77.659,3.198,1.701,4.286,3.126,1.087,1.426,1.631,3.201,1.631,5.327v18.755h-7.194v-3.859h-.217c-.472.894-1.078,1.664-1.821,2.311-.743.646-1.646,1.153-2.709,1.521-1.063.368-2.266.553-3.606.553-1.8,0-3.395-.314-4.783-.942-1.39-.628-2.482-1.567-3.28-2.817-.797-1.25-1.195-2.764-1.195-4.539,0-2.875.957-4.975,2.872-6.297,1.914-1.323,4.405-2.087,7.475-2.292.761-.049,1.712-.1,2.854-.154s2.178-.1,3.107-.136c.52-.036.948-.055,1.287-.055l.054,4.711c-.567.024-1.501.076-2.799.154Z" fill="#2c2c2c"/>
      <path d="m138.943,340.521l13.717-16.997v-.199h-13.246v-6.07h22.397v4.965l-12.902,16.599v.199h13.373v6.07h-23.339v-4.566Z" fill="#2c2c2c"/>
      <path d="m178.878,333.246c-1.299.079-2.39.154-3.271.227-1.353.108-2.41.475-3.171,1.097s-1.142,1.458-1.142,2.51c0,.7.175,1.295.525,1.784s.84.858,1.468,1.105c.628.248,1.347.372,2.156.372,1.136,0,2.15-.229,3.045-.689.894-.459,1.588-1.084,2.083-1.875.496-.791.743-1.67.743-2.637l-.036-8.987c0-.785-.175-1.456-.525-2.012s-.854-.976-1.513-1.259c-.659-.284-1.453-.427-2.383-.427-.858,0-1.607.124-2.247.372-.641.248-1.169.601-1.586,1.06-.417.46-.691,1.009-.824,1.649h-7.193c.156-1.643.725-3.12,1.703-4.431s2.347-2.34,4.104-3.09c1.758-.748,3.833-1.123,6.225-1.123,2.15,0,4.11.329,5.88.987,1.77.659,3.198,1.701,4.286,3.126,1.087,1.426,1.631,3.201,1.631,5.327v18.755h-7.194v-3.859h-.217c-.472.894-1.078,1.664-1.821,2.311-.743.646-1.646,1.153-2.709,1.521-1.063.368-2.266.553-3.606.553-1.8,0-3.395-.314-4.783-.942-1.39-.628-2.482-1.567-3.28-2.817-.797-1.25-1.195-2.764-1.195-4.539,0-2.875.957-4.975,2.872-6.297,1.914-1.323,4.405-2.087,7.475-2.292.761-.049,1.712-.1,2.854-.154s2.178-.1,3.107-.136c.52-.036.948-.055,1.287-.055l.054,4.711c-.567.024-1.501.076-2.799.154Z" fill="#2c2c2c"/>
      <path d="m206.472,323.171c-.81-.573-1.843-.86-3.099-.86-.821,0-1.559.118-2.211.354s-1.168.57-1.549,1.006c-.381.435-.565.924-.553,1.468-.013.652.266,1.214.833,1.685.568.472,1.48.846,2.736,1.124l5.02,1.015c2.693.556,4.699,1.449,6.016,2.682,1.317,1.232,1.981,2.852,1.994,4.856-.013,1.8-.529,3.389-1.55,4.766s-2.462,2.449-4.321,3.216c-1.86.768-4.011,1.151-6.451,1.151-2.477,0-4.621-.354-6.433-1.061-1.812-.706-3.234-1.715-4.268-3.026-1.033-1.311-1.652-2.878-1.857-4.702h7.61c.182,1.088.698,1.909,1.55,2.465s1.984.833,3.397.833c.918,0,1.725-.117,2.419-.353.694-.236,1.232-.568,1.613-.997.38-.429.57-.939.57-1.531,0-.725-.306-1.316-.915-1.775-.61-.459-1.567-.827-2.872-1.105l-4.603-.906c-2.658-.52-4.663-1.452-6.016-2.8-1.354-1.347-2.024-3.047-2.012-5.101-.013-1.764.465-3.301,1.432-4.611.966-1.311,2.331-2.316,4.095-3.018,1.764-.7,3.83-1.051,6.197-1.051,2.319,0,4.346.348,6.079,1.042s3.087,1.691,4.06,2.99c.972,1.298,1.524,2.835,1.658,4.611h-7.104c-.169-1.003-.658-1.791-1.468-2.365Z" fill="#2c2c2c"/>
      <path d="m223.167,343.838c-2.066-1.196-3.654-2.878-4.766-5.047-1.112-2.168-1.667-4.672-1.667-7.511,0-2.863.555-5.379,1.667-7.547,1.111-2.169,2.699-3.851,4.766-5.047,2.065-1.196,4.481-1.794,7.248-1.794s5.179.598,7.239,1.794c2.059,1.196,3.642,2.878,4.747,5.047,1.105,2.168,1.658,4.684,1.658,7.547,0,2.839-.553,5.343-1.658,7.511-1.105,2.169-2.688,3.851-4.747,5.047-2.061,1.195-4.474,1.794-7.239,1.794s-5.183-.599-7.248-1.794Zm10.5-5.191c.889-.731,1.559-1.74,2.012-3.026.453-1.287.68-2.751.68-4.395s-.227-3.107-.68-4.394c-.453-1.287-1.123-2.299-2.012-3.035-.888-.737-1.96-1.105-3.216-1.105-1.28,0-2.371.365-3.271,1.096-.9.731-1.58,1.743-2.039,3.035-.459,1.293-.688,2.761-.688,4.403,0,1.655.229,3.123.688,4.403s1.139,2.286,2.039,3.018c.899.73,1.99,1.096,3.271,1.096,1.256,0,2.328-.365,3.216-1.096Z" fill="#2c2c2c"/>
      <path d="m265.135,340.648h-.218c-.049.108-.097.205-.145.29-.472.869-1.03,1.637-1.677,2.301-.646.665-1.482,1.215-2.51,1.649-1.026.435-2.223.652-3.588.652-2.15,0-4.08-.556-5.789-1.667-1.71-1.111-3.06-2.748-4.05-4.911-.991-2.162-1.486-4.747-1.486-7.755,0-3.068.505-5.681,1.514-7.837,1.008-2.157,2.367-3.775,4.078-4.856,1.709-1.081,3.614-1.622,5.717-1.622,1.377,0,2.579.221,3.605.661,1.027.441,1.857.997,2.492,1.667.634.671,1.175,1.435,1.621,2.293.049.072.088.139.118.199s.063.133.1.217h.326v-4.675h7.466v38.271h-7.574v-14.877Zm-2.573-2.192c.894-.688,1.573-1.658,2.038-2.908.465-1.251.698-2.709.698-4.376,0-1.68-.229-3.138-.688-4.377-.46-1.237-1.136-2.186-2.03-2.845-.894-.658-1.963-.987-3.207-.987-1.269,0-2.344.342-3.226,1.023-.882.683-1.556,1.641-2.021,2.872-.465,1.232-.697,2.67-.697,4.313,0,1.654.232,3.104.697,4.349s1.142,2.217,2.03,2.917c.888.701,1.959,1.051,3.216,1.051,1.232,0,2.295-.344,3.189-1.032Z" fill="#2c2c2c"/>
      <path d="m294.289,317.255h7.575v27.833h-7.285v-5.037h-.29c-.423,1.087-1.029,2.035-1.82,2.845-.792.81-1.749,1.438-2.872,1.885-1.124.446-2.368.67-3.733.67-1.86,0-3.5-.423-4.92-1.269-1.419-.845-2.524-2.057-3.315-3.633s-1.187-3.434-1.187-5.572v-17.722h7.592v16.399c0,1.087.205,2.035.616,2.845.41.81.979,1.432,1.703,1.866s1.577.652,2.556.652c.954,0,1.842-.227,2.663-.68s1.479-1.111,1.976-1.975c.495-.864.742-1.906.742-3.126v-15.982Z" fill="#2c2c2c"/>
      <path d="m310.894,343.838c-2.066-1.196-3.654-2.878-4.766-5.047-1.112-2.168-1.667-4.672-1.667-7.511,0-2.863.555-5.379,1.667-7.547,1.111-2.169,2.699-3.851,4.766-5.047,2.065-1.196,4.481-1.794,7.248-1.794s5.179.598,7.239,1.794c2.059,1.196,3.642,2.878,4.747,5.047,1.105,2.168,1.658,4.684,1.658,7.547,0,2.839-.553,5.343-1.658,7.511-1.105,2.169-2.688,3.851-4.747,5.047-2.061,1.195-4.474,1.794-7.239,1.794s-5.183-.599-7.248-1.794Zm10.5-5.191c.889-.731,1.559-1.74,2.012-3.026.453-1.287.68-2.751.68-4.395s-.227-3.107-.68-4.394c-.453-1.287-1.123-2.299-2.012-3.035-.888-.737-1.96-1.105-3.216-1.105-1.28,0-2.371.365-3.271,1.096-.9.731-1.58,1.743-2.039,3.035-.459,1.293-.688,2.761-.688,4.403,0,1.655.229,3.123.688,4.403s1.139,2.286,2.039,3.018c.899.73,1.99,1.096,3.271,1.096,1.256,0,2.328-.365,3.216-1.096Z" fill="#2c2c2c"/>
      <path d="m342.063,345.088h-7.592v-37.11h7.592v37.11Z" fill="#2c2c2c"/>
      <path d="m347.614,313.097c-.634-.345-1.139-.812-1.513-1.404-.375-.592-.562-1.238-.562-1.939,0-.688.187-1.332.562-1.93.374-.598.879-1.069,1.513-1.413.635-.345,1.319-.517,2.057-.517.749,0,1.44.172,2.075.517.634.344,1.135.815,1.504,1.413.368.598.553,1.241.553,1.93,0,.701-.185,1.348-.553,1.939-.369.592-.87,1.06-1.504,1.404-.635.344-1.326.517-2.075.517-.737,0-1.422-.173-2.057-.517Zm-1.748,4.158h7.592v27.833h-7.592v-27.833Z" fill="#2c2c2c"/>
      <path d="m372.982,345.088h-8.535l-9.748-27.833h8.027l5.853,20.005h.29l5.835-20.005h8.027l-9.749,27.833Z" fill="#2c2c2c"/>
      <path d="m385.736,313.097c-.634-.345-1.139-.812-1.513-1.404-.375-.592-.562-1.238-.562-1.939,0-.688.187-1.332.562-1.93.374-.598.879-1.069,1.513-1.413.635-.345,1.319-.517,2.057-.517.749,0,1.44.172,2.075.517.634.344,1.135.815,1.504,1.413.368.598.553,1.241.553,1.93,0,.701-.185,1.348-.553,1.939-.369.592-.87,1.06-1.504,1.404-.635.344-1.326.517-2.075.517-.737,0-1.422-.173-2.057-.517Zm-1.748,4.158h7.592v27.833h-7.592v-27.833Z" fill="#2c2c2c"/>
      <path d="m394.126,340.521l13.717-16.997v-.199h-13.246v-6.07h22.397v4.965l-12.902,16.599v.199h13.373v6.07h-23.339v-4.566Z" fill="#2c2c2c"/>
      <path d="m434.062,333.246c-1.299.079-2.39.154-3.271.227-1.353.108-2.41.475-3.171,1.097s-1.142,1.458-1.142,2.51c0,.7.175,1.295.525,1.784s.84.858,1.468,1.105c.628.248,1.347.372,2.156.372,1.136,0,2.15-.229,3.045-.689.894-.459,1.588-1.084,2.083-1.875.496-.791.743-1.67.743-2.637l-.036-8.987c0-.785-.175-1.456-.525-2.012s-.854-.976-1.513-1.259c-.659-.284-1.453-.427-2.383-.427-.858,0-1.607.124-2.247.372-.641.248-1.169.601-1.586,1.06-.417.46-.691,1.009-.824,1.649h-7.193c.156-1.643.725-3.12,1.703-4.431s2.347-2.34,4.104-3.09c1.758-.748,3.833-1.123,6.225-1.123,2.15,0,4.11.329,5.88.987,1.77.659,3.198,1.701,4.286,3.126,1.087,1.426,1.631,3.201,1.631,5.327v18.755h-7.194v-3.859h-.217c-.472.894-1.078,1.664-1.821,2.311-.743.646-1.646,1.153-2.709,1.521-1.063.368-2.266.553-3.606.553-1.8,0-3.395-.314-4.783-.942-1.39-.628-2.482-1.567-3.28-2.817-.797-1.25-1.195-2.764-1.195-4.539,0-2.875.957-4.975,2.872-6.297,1.914-1.323,4.405-2.087,7.475-2.292.761-.049,1.712-.1,2.854-.154s2.178-.1,3.107-.136c.52-.036.948-.055,1.287-.055l.054,4.711c-.567.024-1.501.076-2.799.154Z" fill="#2c2c2c"/>
      <path d="m458.593,327.04l5.291-9.785h7.828l-8.118,13.917,8.317,13.916h-7.774l-5.544-9.677-5.437,9.677h-7.864l8.299-13.916-8.009-13.917h7.864l5.146,9.785Z" fill="#2c2c2c"/>
    </g>
    <g>
      <path d="m33.401,277.398h13.113v3.359h-9.058v4.734h8.381v3.35h-8.381v4.744h9.097v3.359h-13.152v-19.547Z" fill="#2c2c2c"/>
      <path d="m54.697,287.439l2.787-5.154h4.123l-4.275,7.33,4.381,7.33h-4.095l-2.921-5.097-2.863,5.097h-4.142l4.371-7.33-4.219-7.33h4.143l2.71,5.154Z" fill="#2c2c2c"/>
      <path d="m71.042,285.292h-8.78v-3.007h8.78v3.007Zm-2.768-6.52v13.678c0,.369.058.66.172.873s.273.364.478.453c.203.09.451.137.744.144.286.006.808-.016,1.565-.067v3.15c-.611.095-1.314.143-2.109.143-.986,0-1.841-.152-2.562-.458-.723-.306-1.286-.765-1.689-1.379-.404-.614-.604-1.386-.597-2.314v-14.222h3.999Z" fill="#2c2c2c"/>
      <path d="m74.833,296.311c-1.092-.614-1.93-1.487-2.516-2.62-.585-1.132-.878-2.469-.878-4.009,0-1.495.295-2.816.883-3.965.589-1.148,1.418-2.04,2.486-2.673,1.069-.633,2.311-.949,3.723-.949,1.317,0,2.494.276,3.531.83s1.854,1.389,2.453,2.505c.598,1.117.897,2.483.897,4.1v1.117h-12.341v-2.501h8.57c-.006-.592-.139-1.12-.396-1.584-.258-.465-.616-.827-1.074-1.089-.458-.261-.979-.391-1.565-.391-.617,0-1.169.143-1.656.429-.486.287-.866.675-1.14,1.165-.274.49-.414,1.027-.42,1.613v2.357c0,.731.138,1.366.415,1.903.276.538.668.953,1.174,1.246s1.099.438,1.78.438c.451,0,.86-.06,1.226-.181.366-.121.678-.291.936-.511s.453-.476.587-.769h3.799c-.19.897-.579,1.682-1.164,2.353-.586.672-1.343,1.19-2.271,1.556-.93.366-1.989.549-3.179.549-1.482,0-2.77-.307-3.86-.921Z" fill="#2c2c2c"/>
      <path d="m91.041,296.945h-3.999v-19.547h3.999v19.547Z" fill="#2c2c2c"/>
      <path d="m96.041,296.287c-1.088-.63-1.925-1.517-2.511-2.658-.585-1.143-.878-2.461-.878-3.956,0-1.509.293-2.833.878-3.976.586-1.142,1.423-2.028,2.511-2.658s2.36-.944,3.817-.944,2.729.314,3.813.944,1.918,1.517,2.5,2.658c.583,1.143.874,2.467.874,3.976,0,1.495-.291,2.813-.874,3.956-.582,1.142-1.415,2.028-2.5,2.658s-2.356.944-3.813.944-2.729-.314-3.817-.944Zm5.531-2.734c.467-.386.82-.917,1.059-1.595.239-.678.358-1.448.358-2.314s-.119-1.637-.358-2.314c-.238-.678-.592-1.21-1.059-1.599-.468-.388-1.033-.582-1.694-.582-.675,0-1.249.192-1.723.577-.475.386-.832.918-1.074,1.599-.242.682-.362,1.454-.362,2.319,0,.872.12,1.646.362,2.319.242.675.6,1.204,1.074,1.59.474.385,1.048.577,1.723.577.661,0,1.227-.192,1.694-.577Z" fill="#2c2c2c"/>
      <path d="m116.081,285.292h-9v-3.007h9v3.007Zm-6.337-6.682c.388-.706.941-1.237,1.66-1.594s1.568-.534,2.549-.534c.445,0,.865.021,1.26.062.395.042.773.101,1.136.177v3.045c-.465-.058-.875-.086-1.231-.086-.655,0-1.146.137-1.47.41s-.486.706-.486,1.298v15.558h-3.999v-15.758c0-1.012.193-1.87.582-2.577Z" fill="#2c2c2c"/>
      <path d="m124.29,290.708c-.685.042-1.259.081-1.723.119-.713.058-1.27.25-1.671.578-.4.327-.601.768-.601,1.321,0,.369.092.683.276.94s.442.452.773.582c.33.131.709.195,1.136.195.598,0,1.132-.12,1.604-.362.471-.242.836-.571,1.097-.988.262-.416.392-.879.392-1.389l-.019-4.733c0-.414-.093-.767-.277-1.06s-.45-.514-.797-.663-.765-.225-1.255-.225c-.452,0-.847.065-1.184.195-.337.131-.615.317-.835.559-.22.242-.364.531-.435.869h-3.789c.083-.866.382-1.644.897-2.334s1.235-1.232,2.162-1.627c.926-.395,2.019-.592,3.278-.592,1.132,0,2.165.173,3.097.52.933.347,1.685.896,2.258,1.646.572.751.858,1.687.858,2.807v9.878h-3.789v-2.033h-.114c-.248.472-.568.877-.959,1.217-.392.341-.867.608-1.428.802-.56.194-1.192.291-1.898.291-.948,0-1.788-.165-2.521-.496-.731-.33-1.308-.825-1.728-1.484-.42-.658-.63-1.455-.63-2.391,0-1.514.505-2.62,1.513-3.316,1.009-.696,2.321-1.1,3.938-1.207.4-.025.902-.053,1.503-.081.602-.029,1.147-.053,1.637-.072.274-.019.5-.028.678-.028l.029,2.481c-.3.013-.791.04-1.475.081Z" fill="#2c2c2c"/>
      <path d="m137.431,287.439l2.787-5.154h4.123l-4.275,7.33,4.381,7.33h-4.095l-2.921-5.097-2.863,5.097h-4.142l4.371-7.33-4.219-7.33h4.143l2.71,5.154Z" fill="#2c2c2c"/>
      <path d="m152.163,290.708c-.685.042-1.259.081-1.723.119-.713.058-1.27.25-1.671.578-.4.327-.601.768-.601,1.321,0,.369.092.683.276.94s.442.452.773.582c.33.131.709.195,1.136.195.598,0,1.132-.12,1.604-.362.471-.242.836-.571,1.097-.988.262-.416.392-.879.392-1.389l-.019-4.733c0-.414-.093-.767-.277-1.06s-.45-.514-.797-.663-.765-.225-1.255-.225c-.452,0-.847.065-1.184.195-.337.131-.615.317-.835.559-.22.242-.364.531-.435.869h-3.789c.083-.866.382-1.644.897-2.334s1.235-1.232,2.162-1.627c.926-.395,2.019-.592,3.278-.592,1.132,0,2.165.173,3.097.52.933.347,1.685.896,2.258,1.646.572.751.858,1.687.858,2.807v9.878h-3.789v-2.033h-.114c-.248.472-.568.877-.959,1.217-.392.341-.867.608-1.428.802-.56.194-1.192.291-1.898.291-.948,0-1.788-.165-2.521-.496-.731-.33-1.308-.825-1.728-1.484-.42-.658-.63-1.455-.63-2.391,0-1.514.505-2.62,1.513-3.316,1.009-.696,2.321-1.1,3.938-1.207.4-.025.902-.053,1.503-.081.602-.029,1.147-.053,1.637-.072.274-.019.5-.028.678-.028l.029,2.481c-.3.013-.791.04-1.475.081Z" fill="#2c2c2c"/>
      <path d="m166.915,285.401c-.426-.302-.97-.453-1.632-.453-.433,0-.82.062-1.164.186s-.616.301-.816.53c-.2.229-.297.486-.291.772-.006.344.14.64.439.888.299.249.779.446,1.44.592l2.645.535c1.419.292,2.475.764,3.168,1.412.694.649,1.044,1.502,1.051,2.558-.007.948-.279,1.785-.816,2.511-.538.726-1.297,1.29-2.276,1.694-.979.403-2.112.605-3.397.605-1.305,0-2.435-.186-3.389-.559-.954-.372-1.703-.903-2.248-1.594-.544-.69-.87-1.516-.978-2.477h4.009c.095.573.367,1.006.815,1.298.448.293,1.045.439,1.79.439.483,0,.908-.062,1.273-.187.366-.124.649-.299.85-.524s.301-.495.301-.807c0-.382-.161-.693-.481-.936-.322-.241-.826-.436-1.514-.582l-2.424-.478c-1.399-.273-2.456-.765-3.169-1.475-.713-.709-1.065-1.604-1.06-2.687-.006-.929.245-1.738.755-2.429.509-.69,1.228-1.221,2.156-1.59.93-.368,2.018-.553,3.265-.553,1.222,0,2.289.183,3.202.549.913.365,1.625.891,2.138,1.574.512.685.803,1.494.873,2.43h-3.741c-.089-.528-.347-.943-.773-1.246Z" fill="#2c2c2c"/>
      <path d="m181.287,296.306c-.9-.585-1.611-1.447-2.133-2.586-.522-1.14-.783-2.501-.783-4.085,0-1.616.266-2.992.797-4.128s1.247-1.988,2.147-2.559c.9-.569,1.904-.854,3.012-.854.726,0,1.358.116,1.899.348.54.232.978.525,1.312.878.334.354.618.756.854,1.208.025.038.046.073.062.104.016.032.033.07.053.115h.114v-7.35h3.989v19.547h-3.933v-2.338h-.171c-.026.057-.052.107-.077.152-.248.458-.542.862-.883,1.212-.34.351-.781.64-1.321.868-.541.229-1.171.344-1.89.344-1.133,0-2.149-.292-3.05-.878Zm5.979-2.854c.471-.362.829-.873,1.074-1.532.244-.658.367-1.427.367-2.305,0-.885-.121-1.652-.363-2.305-.241-.652-.598-1.151-1.068-1.499-.471-.347-1.034-.52-1.689-.52-.668,0-1.234.18-1.699.539-.464.359-.819.863-1.064,1.513-.244.649-.367,1.406-.367,2.271,0,.872.123,1.636.367,2.291.245.655.602,1.167,1.069,1.536s1.032.554,1.694.554c.648,0,1.209-.182,1.68-.544Z" fill="#2c2c2c"/>
      <path d="m197.523,296.311c-1.092-.614-1.93-1.487-2.516-2.62-.585-1.132-.878-2.469-.878-4.009,0-1.495.295-2.816.883-3.965.589-1.148,1.418-2.04,2.486-2.673,1.069-.633,2.311-.949,3.723-.949,1.317,0,2.494.276,3.531.83s1.854,1.389,2.453,2.505c.598,1.117.897,2.483.897,4.1v1.117h-12.341v-2.501h8.57c-.006-.592-.139-1.12-.396-1.584-.258-.465-.616-.827-1.074-1.089-.458-.261-.979-.391-1.565-.391-.617,0-1.169.143-1.656.429-.486.287-.866.675-1.14,1.165-.274.49-.414,1.027-.42,1.613v2.357c0,.731.138,1.366.415,1.903.276.538.668.953,1.174,1.246s1.099.438,1.78.438c.451,0,.86-.06,1.226-.181.366-.121.678-.291.936-.511s.453-.476.587-.769h3.799c-.19.897-.579,1.682-1.164,2.353-.586.672-1.343,1.19-2.271,1.556-.93.366-1.989.549-3.179.549-1.482,0-2.77-.307-3.86-.921Zm4.204-20.268h3.713l-2.911,4.343h-2.835l2.033-4.343Z" fill="#2c2c2c"/>
    </g>
  </g>
  <g>
    <polygon points="190.52 190.324 128.99 251.854 71.47 251.854 132.99 190.324 104.11 161.444 161.64 161.444 190.52 190.324" fill="#fdde59"/>
    <polygon points="132.99 190.324 71.47 251.854 31.94 251.854 31.94 233.854 75.47 190.324 46.59 161.444 104.11 161.444 132.99 190.324" fill="#2c2c2c"/>
    <polygon points="305.57 190.324 244.04 251.854 186.52 251.854 248.04 190.324 219.16 161.444 276.69 161.444 305.57 190.324" fill="#fdde59"/>
    <polygon points="248.04 190.324 186.52 251.854 128.99 251.854 190.52 190.324 161.64 161.444 219.16 161.444 248.04 190.324" fill="#2c2c2c"/>
    <polygon points="75.47 190.324 31.94 233.854 31.94 161.444 46.59 161.444 75.47 190.324" fill="#fdde59"/>
  </g>
</svg>