<?xml version="1.0" encoding="UTF-8"?>
<svg id="b" data-name="레이어 2" xmlns="http://www.w3.org/2000/svg" width="273.63" height="90.41" viewBox="0 0 273.63 90.41">
  <g id="c" data-name="레이어 1">
    <g>
      <polygon points="158.58 28.88 97.05 90.41 39.53 90.41 101.05 28.88 72.17 0 129.7 0 158.58 28.88" fill="#fdde59"/>
      <polygon points="101.05 28.88 39.53 90.41 0 90.41 0 72.41 43.53 28.88 14.65 0 72.17 0 101.05 28.88" fill="#2c2c2c"/>
      <polygon points="273.63 28.88 212.1 90.41 154.58 90.41 216.1 28.88 187.22 0 244.75 0 273.63 28.88" fill="#fdde59"/>
      <polygon points="216.1 28.88 154.58 90.41 97.05 90.41 158.58 28.88 129.7 0 187.22 0 216.1 28.88" fill="#2c2c2c"/>
      <polygon points="43.53 28.88 0 72.41 0 0 14.65 0 43.53 28.88" fill="#fdde59"/>
    </g>
  </g>
</svg>