<?xml version="1.0" encoding="UTF-8"?>
<svg xmlns="http://www.w3.org/2000/svg" width="44.868" height="12.791" viewBox="0 0 44.868 12.791">
  <g id="a" data-name="레이어 1"/>
  <g id="b" data-name="레이어 2">
    <g id="c" data-name="레이어 1">
      <g>
        <polygon points="18.424 12.791 12.029 6.395 18.424 0 20.049 1.624 15.277 6.395 20.049 11.166 18.424 12.791"/>
        <polygon points="14.415 12.791 8.019 6.395 14.415 0 16.039 1.624 11.268 6.395 16.039 11.166 14.415 12.791"/>
        <polygon points="10.405 12.791 4.01 6.395 10.405 0 12.029 1.624 7.258 6.395 12.029 11.166 10.405 12.791"/>
        <polygon points="6.395 12.791 0 6.395 6.395 0 8.019 1.624 3.248 6.395 8.019 11.166 6.395 12.791"/>
        <polygon points="38.473 0 44.868 6.395 38.473 12.791 36.849 11.166 41.62 6.395 36.849 1.624 38.473 0"/>
        <polygon points="18.424 12.791 16.8 11.166 21.571 6.395 16.8 1.624 18.424 0 24.82 6.395 18.424 12.791"/>
        <polygon points="22.434 12.791 20.81 11.166 25.581 6.395 20.81 1.624 22.434 0 28.83 6.395 22.434 12.791"/>
        <polygon points="26.444 12.791 24.82 11.166 29.591 6.395 24.82 1.624 26.444 0 32.839 6.395 26.444 12.791"/>
        <polygon points="30.454 12.791 28.83 11.166 33.601 6.395 28.83 1.624 30.454 0 36.849 6.395 30.454 12.791"/>
        <polygon points="34.463 12.791 32.839 11.166 37.61 6.395 32.839 1.624 34.463 0 40.859 6.395 34.463 12.791"/>
      </g>
    </g>
  </g>
</svg>