<?xml version="1.0" encoding="UTF-8"?>
<svg xmlns="http://www.w3.org/2000/svg" width="494.845" height="91.827" viewBox="0 0 494.845 91.827">
  <g id="a" data-name="레이어 1"/>
  <g id="b" data-name="레이어 2">
    <g id="c" data-name="레이어 1">
      <g>
        <polygon points="45.914 91.827 0 45.914 45.914 0 57.574 11.66 23.32 45.914 57.574 80.167 45.914 91.827"/>
        <polygon points="247.422 0 293.336 45.914 247.422 91.827 235.762 80.167 270.016 45.914 235.762 11.66 247.422 0"/>
        <polygon points="276.209 0 322.123 45.914 276.209 91.827 264.549 80.167 298.803 45.914 264.549 11.66 276.209 0"/>
        <polygon points="304.997 0 350.911 45.914 304.997 91.827 293.336 80.167 327.59 45.914 293.336 11.66 304.997 0"/>
        <polygon points="333.784 0 379.698 45.914 333.784 91.827 322.123 80.167 356.377 45.914 322.123 11.66 333.784 0"/>
        <polygon points="362.57 0 408.484 45.914 362.57 91.827 350.909 80.167 385.163 45.914 350.909 11.66 362.57 0"/>
        <polygon points="391.358 0 437.272 45.914 391.358 91.827 379.698 80.167 413.952 45.914 379.698 11.66 391.358 0"/>
        <polygon points="420.145 0 466.059 45.914 420.145 91.827 408.485 80.167 442.739 45.914 408.485 11.66 420.145 0"/>
        <polygon points="448.931 0 494.845 45.914 448.931 91.827 437.271 80.167 471.525 45.914 437.271 11.66 448.931 0"/>
        <polygon points="45.914 91.827 34.254 80.167 68.507 45.914 34.254 11.66 45.914 0 91.828 45.914 45.914 91.827"/>
        <polygon points="74.702 91.827 63.041 80.167 97.295 45.914 63.041 11.66 74.702 0 120.615 45.914 74.702 91.827"/>
        <polygon points="103.489 91.827 91.828 80.167 126.082 45.914 91.828 11.66 103.489 0 149.402 45.914 103.489 91.827"/>
        <polygon points="132.276 91.827 120.615 80.167 154.869 45.914 120.615 11.66 132.276 0 178.188 45.914 132.276 91.827"/>
        <polygon points="161.062 91.827 149.402 80.167 183.656 45.914 149.402 11.66 161.062 0 206.975 45.914 161.062 91.827"/>
        <polygon points="189.849 91.827 178.188 80.167 212.442 45.914 178.188 11.66 189.849 0 235.762 45.914 189.849 91.827"/>
        <polygon points="218.636 91.827 206.975 80.167 241.229 45.914 206.975 11.66 218.636 0 264.549 45.914 218.636 91.827"/>
      </g>
    </g>
  </g>
</svg>