<svg xmlns="http://www.w3.org/2000/svg" width="1440" height="960" viewBox="0 0 1440 960">
  <rect width="1440" height="960" fill="#fdde59"/>
  <g>
    <path d="M962.166,641.444c-.659.1-1.313.216-1.973.311l-.259-1.8L480.064,320.043l2.107,14.625a283.205,283.205,0,0,0-30.062,5.988,297.192,297.192,0,0,0-30.311,9.585L413.98,353.2l-2.9-7.838a329.444,329.444,0,0,1-10.256-33.218,357.9,357.9,0,0,1-6.969-35.3l16.417-2.417a341.178,341.178,0,0,0,6.637,33.637c2.137,8.383,4.443,16.231,6.99,23.777,7.765-2.682,15.825-5.11,24.056-7.247a299.171,299.171,0,0,1,29.875-6.036L0,0V960H1440ZM376.059,338.8a342.5,342.5,0,0,0,13.1,31.7c3.735,7.786,7.537,15.027,11.521,21.932,7.089-4.155,14.513-8.119,22.156-11.828a300.758,300.758,0,0,1,29.993-12.454l5.522,15.648a284.138,284.138,0,0,0-28.3,11.751A297.558,297.558,0,0,0,402.229,410.9l-7.085,4.433-4.381-7.117a330,330,0,0,1-16.583-30.561,359.071,359.071,0,0,1-13.752-33.279ZM355.13,408.659a335.693,335.693,0,0,0,19.073,28.5c5.237,6.967,10.383,13.326,15.6,19.266,6.1-5.426,12.6-10.767,19.424-15.94a298.307,298.307,0,0,1,26.942-18.107l8.511,14.245a281.829,281.829,0,0,0-25.432,17.089,295.425,295.425,0,0,0-24.3,20.5l-6.074,5.74-5.7-6.115a327.477,327.477,0,0,1-22.245-26.722,351.994,351.994,0,0,1-20.018-29.9Zm-16.063,87c-.862-.929-1.7-1.862-2.55-2.8l-.517-.574,12.322-11.115.525.582c.783.87,1.562,1.735,2.359,2.594l3.03,3.209c1.924,2.013,3.949,4.131,5.963,6.143,3.784,3.743,7.914,7.771,12.291,11.681l.067.061c3.535,3.228,7.432,6.574,12.637,10.85,1.946,1.595,4.024,3.207,6.033,4.765l.314.243.4-.518c1.551-2.028,3.155-4.125,4.827-6.192,4.211-5.193,7.532-9.105,10.77-12.687,3.9-4.405,8.033-8.654,11.2-11.866,1.908-1.916,3.767-3.7,5.828-5.665l2.923-2.756c.862-.8,1.744-1.587,2.619-2.371l.375-.337,11.079,12.354-.38.341c-.8.715-1.605,1.437-2.392,2.165l-2.805,2.644c-1.939,1.851-3.718,3.556-5.46,5.306-3.188,3.233-6.966,7.121-10.592,11.218l-.059.066c-3.04,3.361-6.188,7.072-10.209,12.031-1.525,1.885-2.992,3.8-4.545,5.832l-2.813,3.726c-.619.834-1.253,1.719-1.891,2.611l-5.288,7.376-7.34-5.342c-.968-.7-1.944-1.413-2.9-2.132l-3.83-2.935c-2.1-1.626-4.263-3.306-6.389-5.049-5.428-4.459-9.52-7.974-13.267-11.394-4.64-4.148-8.941-8.341-12.9-12.255-2.18-2.178-4.273-4.367-6.3-6.485Zm21.4,81.768c-2.479-1.68-4.961-3.393-7.388-5.1-2.083-1.447-4.115-2.957-6.08-4.418l-1.278-.948,9.879-13.334,1.3.963c1.946,1.447,3.784,2.813,5.684,4.132,2.388,1.677,4.793,3.337,7.184,4.957,2.172,1.467,4.475,2.937,6.7,4.36l4,2.519,3.648,2.194c6.854,4.119,14.139,8.087,21.738,11.84,3.805-7.858,7.728-15.168,11.9-22.175l2.136-3.584,2.306-3.688c1.368-2.158,2.784-4.388,4.269-6.594,1.5-2.226,3.034-4.446,4.557-6.61,1.309-1.883,2.707-3.754,4.06-5.563l.68-.911,13.3,9.922-.691.925c-1.269,1.7-2.581,3.451-3.753,5.138-1.489,2.116-2.96,4.249-4.4,6.378-1.351,2.007-2.644,4.045-4.013,6.2l-2.2,3.516-2,3.355a287.345,287.345,0,0,0-14.642,28.213l-3.458,7.605-7.581-3.51a325.5,325.5,0,0,1-30.763-16.238l-3.863-2.325-4.162-2.624C365.226,580.554,362.83,579.024,360.471,577.431Zm38.381,73.185-4.048-1.54c-2.619-1.016-5.528-2.146-8.371-3.329-6.589-2.766-11.854-5.114-16.6-7.4l7.2-14.951c4.481,2.159,9.5,4.395,15.794,7.038,2.635,1.1,5.447,2.188,7.927,3.151l3.918,1.49,4,1.432c7.625,2.722,15.548,5.183,23.641,7.347,2.167-8.347,4.616-16.415,7.311-24.076l1.39-3.936,1.412-3.748c1.052-2.735,1.988-5.153,3.006-7.613,2.439-5.827,4.527-10.5,6.584-14.74l14.929,7.244c-1.946,4.01-3.856,8.289-6.193,13.873-.932,2.252-1.828,4.566-2.818,7.139l-1.359,3.611-1.3,3.684a290.939,290.939,0,0,0-8.818,30.536l-1.892,8.138-8.125-1.948a325.347,325.347,0,0,1-33.35-9.884Zm26.433,57c-3.087-.617-6.071-1.27-8.845-1.885-2.617-.57-5.373-1.228-8.9-2.128l4.094-16.081c3.339.85,5.922,1.467,8.373,2,2.715.6,5.6,1.233,8.477,1.808,4.537.873,10.6,2,16.7,2.855l.084.012c5.638.852,11.5,1.474,16.489,1.971,2.508.214,5.248.437,8.1.629.184-3.066.4-5.936.593-8.4l.01-.114c.483-5.2,1.044-10.8,1.879-16.517.83-6.114,1.936-12.11,2.7-16.093.575-2.9,1.175-5.636,1.688-7.944.5-2.288,1.1-4.791,1.89-7.846l16.069,4.142c-.735,2.851-1.292,5.163-1.754,7.276-.5,2.246-1.074,4.872-1.605,7.544-1.158,6.067-1.946,10.772-2.546,15.195l-.012.084c-.78,5.333-1.315,10.665-1.776,15.635-.351,4.44-.77,10.256-.923,15.975l-.224,8.355-8.352-.284c-6.126-.209-12.134-.679-17.2-1.112l-.114-.011c-5.2-.516-11.328-1.167-17.341-2.073C436.371,709.709,430.062,708.538,425.285,707.62Zm31.879,52.606.854-16.572a326.921,326.921,0,0,0,58.939-2.205,301.764,301.764,0,0,1-2.461-57.5l16.569.9a287.07,287.07,0,0,0,3.533,62.271l1.361,8.245-8.253,1.3a335.632,335.632,0,0,1-52.278,4.032Q466.334,760.7,457.164,760.226Zm59.676,45.916-2.417-16.417a341.2,341.2,0,0,0,33.638-6.637c8.382-2.136,16.229-4.442,23.776-6.99-2.681-7.764-5.11-15.824-7.247-24.055a299.584,299.584,0,0,1-6.347-31.85l16.425-2.366a283.274,283.274,0,0,0,5.988,30.063,297.514,297.514,0,0,0,9.585,30.31l2.955,7.817-7.838,2.9a328.99,328.99,0,0,1-33.218,10.257A357.779,357.779,0,0,1,516.84,806.142Zm100.814,19.676a358.956,358.956,0,0,1-33.278,13.752L578.8,823.939a342.311,342.311,0,0,0,31.705-13.1c7.788-3.736,15.029-7.538,21.932-11.521-4.155-7.089-8.119-14.513-11.828-22.157a300.643,300.643,0,0,1-12.454-29.992l15.648-5.523a283.819,283.819,0,0,0,11.751,28.3A297.413,297.413,0,0,0,650.9,797.768l4.433,7.085-7.117,4.382A330.049,330.049,0,0,1,617.654,825.818Zm96.186-9a327.677,327.677,0,0,1-26.722,22.244,351.759,351.759,0,0,1-29.9,20.018l-8.557-14.218a335.3,335.3,0,0,0,28.5-19.072c6.967-5.237,13.326-10.383,19.266-15.6-5.426-6.095-10.767-12.6-15.94-19.423a298.461,298.461,0,0,1-18.107-26.943l14.245-8.511a281.824,281.824,0,0,0,17.089,25.432,295.425,295.425,0,0,0,20.5,24.3l5.74,6.075Zm65.4-4.618c-.7.971-1.417,1.949-2.137,2.906l-2.96,3.862c-1.618,2.085-3.291,4.242-5.025,6.358-4.46,5.428-7.974,9.521-11.395,13.267-4.145,4.638-8.339,8.94-12.254,12.9-2.177,2.18-4.367,4.273-6.485,6.3l-3.323,3.137c-.949.882-1.9,1.742-2.865,2.608l-.513.462-11.111-12.326.519-.468c.89-.8,1.775-1.6,2.654-2.413l3.21-3.031c2.014-1.924,4.132-3.949,6.143-5.963,3.743-3.785,7.772-7.917,11.681-12.292l.061-.066c3.227-3.535,6.573-7.432,10.85-12.637,1.588-1.937,3.191-4,4.742-6l.266-.342-.518-.4c-2.028-1.551-4.125-3.155-6.192-4.827-5.2-4.214-9.108-7.534-12.685-10.768-4.4-3.9-8.654-8.034-11.868-11.2-1.93-1.922-3.78-3.853-5.666-5.828l-2.755-2.923c-.785-.85-1.566-1.719-2.339-2.582l-.368-.411,12.352-11.081.373.416c.706.787,1.417,1.581,2.134,2.357l2.644,2.805c1.772,1.857,3.542,3.7,5.306,5.459,3.235,3.19,7.123,6.969,11.218,10.594l.066.059c3.357,3.035,7.068,6.184,12.031,10.209,1.885,1.525,3.8,2.991,5.832,4.544l3.726,2.813c.822.61,1.695,1.235,2.575,1.865l7.412,5.315Zm63.977-18.537a325.146,325.146,0,0,1-16.239,30.764l-2.324,3.862-2.624,4.162c-1.478,2.317-3.008,4.712-4.6,7.071-1.682,2.482-3.4,4.964-5.1,7.388-1.446,2.081-2.956,4.114-4.417,6.079l-.949,1.279L793.634,844.4l.964-1.3c1.447-1.946,2.812-3.784,4.131-5.683,1.675-2.386,3.335-4.791,4.957-7.184,1.467-2.171,2.937-4.475,4.36-6.7l2.519-4,2.194-3.647c4.119-6.852,8.086-14.138,11.84-21.738-7.859-3.805-15.169-7.728-22.175-11.895l-3.583-2.136-3.712-2.321c-2.15-1.364-4.373-2.775-6.571-4.255-2.222-1.5-4.442-3.031-6.61-4.556-1.89-1.315-3.767-2.718-5.583-4.075l-.892-.667,9.923-13.3.906.676c1.7,1.274,3.465,2.59,5.158,3.768,2.118,1.49,4.252,2.961,6.377,4.4,2,1.347,4.031,2.637,6.182,4l3.537,2.211,3.355,2a287.544,287.544,0,0,0,28.213,14.641l7.605,3.459Zm58.8-30.119a325.2,325.2,0,0,1-9.884,33.35l-1.52,4.248-1.54,4.047c-1.016,2.616-2.144,5.524-3.329,8.371-2.765,6.584-5.112,11.85-7.4,16.6l-14.951-7.2c2.16-4.485,4.4-9.5,7.038-15.794,1.1-2.639,2.188-5.449,3.151-7.927l1.49-3.917,1.432-4.006c2.721-7.625,5.183-15.548,7.347-23.641-8.345-2.167-16.414-4.616-24.076-7.311l-3.936-1.39-3.748-1.412c-2.742-1.054-5.166-1.993-7.615-3.007-5.824-2.438-10.5-4.525-14.738-6.582l7.244-14.93c3.957,1.92,8.365,3.887,13.873,6.192,2.241.929,4.56,1.826,7.139,2.818l3.611,1.36,3.683,1.3a290.824,290.824,0,0,0,30.537,8.819l8.138,1.892Zm51.794-41.037c-.209,6.125-.679,12.133-1.112,17.2l-.011.116c-.516,5.2-1.167,11.328-2.074,17.343-.909,6.458-2.079,12.764-3,17.54-.618,3.089-1.27,6.072-1.885,8.845-.569,2.612-1.227,5.367-2.128,8.9l-16.081-4.094c.851-3.344,1.468-5.926,2-8.373.6-2.714,1.233-5.6,1.808-8.477.873-4.536,2-10.593,2.856-16.7l.011-.084c.852-5.638,1.474-11.5,1.971-16.489.214-2.508.437-5.248.629-8.1-3.066-.184-5.936-.4-8.395-.593l-.115-.01c-5.192-.482-10.787-1.043-16.513-1.878-4.7-.639-9.671-1.471-16.1-2.7-2.9-.574-5.637-1.175-7.945-1.688-2.274-.5-4.775-1.1-7.844-1.889l4.138-16.071c2.866.739,5.178,1.3,7.278,1.755,2.246.5,4.872,1.074,7.544,1.605,6.079,1.159,10.784,1.948,15.193,2.546l.087.012c5.341.78,10.67,1.315,15.634,1.777,4.441.349,10.257.769,15.975.922l8.355.224Zm29.84,19.469a326.837,326.837,0,0,0-2.205-58.94,301.847,301.847,0,0,1-57.5,2.462l.9-16.57a287.061,287.061,0,0,0,62.271-3.532l8.245-1.362,1.3,8.254a340.846,340.846,0,0,1,3.56,70.541Z" fill="#2c2c2c"/>
    <path d="M479.805,318.243c-.66.1-1.315.212-1.974.311l2.233,1.489Z" fill="#2c2c2c"/>
    <path d="M444.636,295.959l8.244-1.361a287.143,287.143,0,0,1,62.271-3.533l.9-16.569a301.767,301.767,0,0,0-57.5,2.461,327.01,327.01,0,0,1-2.2-58.94l-16.572-.853a340.848,340.848,0,0,0,3.56,70.542Z" fill="#2c2c2c"/>
    <path d="M510.229,246.986c4.969.461,10.3,1,15.636,1.776l.085.012c4.422.6,9.126,1.388,15.194,2.546,2.672.531,5.3,1.106,7.545,1.605,2.111.462,4.422,1.019,7.275,1.754l4.142-16.069c-3.057-.788-5.559-1.391-7.846-1.89-2.308-.513-5.049-1.113-7.944-1.688-6.413-1.224-11.379-2.056-16.094-2.7-5.72-.835-11.318-1.4-16.516-1.879l-.115-.01c-2.458-.194-5.329-.409-8.395-.593.193-2.852.415-5.593.629-8.1.5-4.985,1.117-10.836,1.971-16.491l.012-.085c.855-6.092,1.981-12.156,2.854-16.7.58-2.9,1.209-5.774,1.808-8.479.532-2.441,1.15-5.024,2-8.374l-16.081-4.092c-.9,3.542-1.56,6.3-2.128,8.9-.612,2.763-1.263,5.739-1.885,8.846-.92,4.783-2.091,11.1-3,17.541-.909,6.029-1.559,12.149-2.075,17.342l-.01.115c-.433,5.075-.9,11.089-1.111,17.2l-.284,8.352,8.354.224C499.974,246.216,505.789,246.635,510.229,246.986Z" fill="#2c2c2c"/>
    <path d="M574.7,215.284l3.684,1.3L582,217.943c2.575.991,4.892,1.888,7.139,2.818,5.584,2.337,9.863,4.247,13.872,6.193l7.246-14.929c-4.239-2.057-8.914-4.145-14.74-6.584-2.456-1.016-4.876-1.953-7.614-3.006l-3.748-1.412-3.936-1.39c-7.661-2.7-15.729-5.144-24.076-7.311,2.163-8.09,4.624-16.013,7.346-23.64l1.433-4.006,1.49-3.918c.961-2.475,2.051-5.281,3.151-7.926,2.642-6.293,4.879-11.312,7.038-15.795l-14.951-7.2c-2.285,4.744-4.632,10.009-7.4,16.6-1.187,2.855-2.313,5.757-3.328,8.371l-1.54,4.047-1.52,4.247a324.836,324.836,0,0,0-9.883,33.35l-1.948,8.125,8.138,1.892A290.919,290.919,0,0,1,574.7,215.284Z" fill="#2c2c2c"/>
    <path d="M629.088,192.011l3.354,2,3.544,2.216c2.148,1.363,4.177,2.65,6.175,4,2.134,1.442,4.267,2.912,6.379,4.4,1.682,1.17,3.433,2.478,5.126,3.744l.937.7,9.921-13.3-.923-.69c-1.806-1.349-3.673-2.745-5.55-4.05-2.159-1.519-4.379-3.05-6.611-4.557-2.2-1.479-4.417-2.888-6.565-4.251l-3.717-2.324-3.583-2.136c-7.007-4.168-14.316-8.091-22.175-11.9,3.751-7.6,7.719-14.882,11.84-21.738l2.192-3.647,2.507-3.977c1.427-2.235,2.9-4.545,4.374-6.725,1.608-2.373,3.267-4.778,4.956-7.183,1.313-1.892,2.673-3.721,4.113-5.659l.983-1.323-13.335-9.877-.966,1.3c-1.455,1.958-2.96,3.982-4.4,6.056-1.717,2.445-3.43,4.927-5.1,7.388-1.6,2.366-3.132,4.768-4.615,7.091l-2.61,4.141-2.325,3.863A325.236,325.236,0,0,0,596.78,166.33l-3.511,7.581,7.605,3.458A287.668,287.668,0,0,1,629.088,192.011Z" fill="#2c2c2c"/>
    <path d="M665.407,162.3l3.724,2.813c2.031,1.554,3.948,3.02,5.834,4.546,4.962,4.023,8.672,7.172,12.03,10.208l.067.06c4.094,3.624,7.984,7.4,11.219,10.592,1.737,1.73,3.448,3.515,5.305,5.46l2.643,2.805c.733.792,1.46,1.6,2.181,2.408l.326.364,12.354-11.079-.323-.36c-.788-.879-1.583-1.767-2.384-2.632l-2.757-2.926c-1.974-2.068-3.761-3.931-5.665-5.827-3.214-3.169-7.465-7.3-11.868-11.2-3.578-3.235-7.49-6.555-12.684-10.767-2.068-1.673-4.167-3.278-6.195-4.83l-.517-.4.259-.332c1.553-2,3.16-4.074,4.75-6.014,4.278-5.207,7.624-9.1,10.851-12.637l.06-.067c3.9-4.368,7.934-8.5,11.681-12.291,2-2,4.023-3.937,6.142-5.962l3.21-3.031c.861-.8,1.726-1.578,2.6-2.363l.578-.521L707.711,96l-.57.514c-.941.848-1.877,1.691-2.806,2.554L701,102.216c-2.119,2.025-4.31,4.119-6.473,6.285-3.918,3.963-8.115,8.268-12.254,12.9-3.42,3.745-6.934,7.837-11.395,13.268-1.737,2.119-3.413,4.279-5.034,6.368l-2.949,3.849c-.711.943-1.412,1.908-2.109,2.866l-5.367,7.371,7.414,5.317C663.713,161.069,664.586,161.693,665.407,162.3Z" fill="#2c2c2c"/>
    <path d="M746.288,179.244a281.554,281.554,0,0,1,17.089,25.432l14.245-8.51a298.394,298.394,0,0,0-18.106-26.943C754.341,162.4,749,155.893,743.575,149.8c5.939-5.212,12.3-10.359,19.267-15.6a335.43,335.43,0,0,1,28.5-19.072l-8.556-14.219a352.018,352.018,0,0,0-29.9,20.019,327.748,327.748,0,0,0-26.722,22.245l-6.115,5.7,5.74,6.074A295.35,295.35,0,0,1,746.288,179.244Z" fill="#2c2c2c"/>
    <path d="M789.1,162.229a297.4,297.4,0,0,1,15.342,27.819,283.536,283.536,0,0,1,11.75,28.3l15.649-5.522a300.834,300.834,0,0,0-12.454-29.993c-3.708-7.642-7.672-15.065-11.828-22.156,6.9-3.984,14.146-7.786,21.932-11.521a342.633,342.633,0,0,1,31.7-13.1l-5.571-15.631a359.2,359.2,0,0,0-33.279,13.752,329.984,329.984,0,0,0-30.56,16.583l-7.117,4.381Z" fill="#2c2c2c"/>
    <path d="M846.8,173.98l2.955,7.818a297.252,297.252,0,0,1,9.585,30.31,283.275,283.275,0,0,1,5.989,30.063l16.424-2.366a299.815,299.815,0,0,0-6.347-31.849c-2.137-8.231-4.565-16.291-7.247-24.056,7.546-2.547,15.393-4.853,23.777-6.99a341.215,341.215,0,0,1,33.636-6.637l-2.416-16.417a357.9,357.9,0,0,0-35.3,6.969,329.444,329.444,0,0,0-33.218,10.256Z" fill="#2c2c2c"/>
    <path d="M904.039,204.635l1.362,8.245a287.138,287.138,0,0,1,3.532,62.271l16.57.9a301.772,301.772,0,0,0-2.462-57.5,327.1,327.1,0,0,1,58.94-2.205l.853-16.572a340.838,340.838,0,0,0-70.541,3.56Z" fill="#2c2c2c"/>
    <path d="M979.714,247.3c-5.075-.433-11.088-.9-17.2-1.111l-8.352-.284-.224,8.354c-.153,5.719-.573,11.535-.923,15.975-.461,4.964-.995,10.291-1.776,15.634l-.012.087c-.6,4.408-1.386,9.113-2.546,15.193-.531,2.672-1.106,5.3-1.605,7.545-.459,2.1-1.016,4.41-1.755,7.277l16.071,4.138c.79-3.07,1.392-5.572,1.889-7.844.513-2.308,1.114-5.049,1.688-7.945,1.226-6.425,2.058-11.392,2.7-16.094.836-5.728,1.4-11.323,1.879-16.516l.01-.114c.194-2.458.409-5.329.593-8.395,2.853.193,5.593.416,8.1.629,4.985.5,10.836,1.117,16.49,1.971l.085.012c6.094.856,12.157,1.981,16.7,2.854,2.9.58,5.774,1.209,8.479,1.808,2.437.531,5.019,1.149,8.374,2l4.091-16.082c-3.546-.9-6.3-1.56-8.9-2.127-2.762-.612-5.737-1.263-8.846-1.885-4.782-.919-11.094-2.091-17.541-3-6.03-.909-12.149-1.559-17.342-2.075Z" fill="#2c2c2c"/>
    <path d="M995.424,296.031l-1.892,8.138a290.8,290.8,0,0,1-8.819,30.536l-1.3,3.683L982.054,342c-1.028,2.673-1.889,4.9-2.818,7.139-2.3,5.508-4.272,9.916-6.192,13.873l14.93,7.244c2.057-4.239,4.144-8.914,6.582-14.738,1.013-2.445,1.952-4.87,3.007-7.615l1.412-3.748,1.39-3.936c2.695-7.662,5.144-15.73,7.311-24.076,8.091,2.163,16.014,4.625,23.64,7.346l4.007,1.433,3.917,1.49c2.473.961,5.276,2.049,7.926,3.151,6.289,2.641,11.308,4.877,15.8,7.038l7.2-14.951c-4.749-2.287-10.014-4.634-16.6-7.4-2.86-1.189-5.76-2.315-8.371-3.328l-4.047-1.54-4.247-1.52a324.632,324.632,0,0,0-33.351-9.883Z" fill="#2c2c2c"/>
    <path d="M1064.432,373.018a324.965,324.965,0,0,0-30.764-16.238l-7.58-3.511-3.459,7.605a287.412,287.412,0,0,1-14.641,28.213l-2,3.355-2.228,3.565c-1.359,2.141-2.641,4.163-3.982,6.154-1.439,2.13-2.91,4.263-4.4,6.378-1.175,1.689-2.488,3.446-3.758,5.145l-.687.918,13.3,9.923.676-.9c1.354-1.812,2.754-3.684,4.065-5.57,1.521-2.162,3.052-4.383,4.556-6.61,1.474-2.188,2.878-4.4,4.237-6.542l2.339-3.741,2.136-3.583c4.166-7,8.089-14.315,11.895-22.174,7.6,3.752,14.884,7.719,21.738,11.84l3.647,2.193,3.977,2.506c2.235,1.426,4.546,2.9,6.725,4.374,2.376,1.609,4.78,3.269,7.183,4.956,1.891,1.313,3.721,2.673,5.658,4.112l1.325.984,9.876-13.335-1.3-.968c-1.957-1.454-3.982-2.959-6.054-4.4-2.443-1.715-4.925-3.428-7.388-5.1-2.366-1.6-4.768-3.132-7.091-4.615l-4.142-2.611Z" fill="#2c2c2c"/>
    <path d="M1078.6,442.273c-3.745-3.419-7.837-6.933-13.269-11.4-2.109-1.728-4.258-3.4-6.337-5.009l-3.881-2.974c-.946-.712-1.913-1.415-2.873-2.113l-7.362-5.361-5.343,7.448c-.621.868-1.237,1.729-1.839,2.539l-2.812,3.724c-1.553,2.031-3.02,3.948-4.545,5.834-4.027,4.966-7.176,8.677-10.209,12.03l-.059.067c-3.623,4.092-7.4,7.982-10.594,11.219-1.747,1.754-3.523,3.458-5.459,5.305l-2.805,2.643c-.78.722-1.579,1.438-2.372,2.148l-.4.36,11.081,12.352.4-.355c.867-.777,1.741-1.562,2.594-2.351l2.926-2.756c1.981-1.892,3.916-3.747,5.827-5.666,3.169-3.214,7.3-7.466,11.2-11.867,3.231-3.574,6.552-7.486,10.769-12.685,1.673-2.068,3.278-4.167,4.829-6.195l.395-.517.362.281c1.992,1.547,4.054,3.146,5.984,4.728,5.207,4.278,9.1,7.625,12.637,10.851l.067.06c4.366,3.9,8.5,7.933,12.292,11.682,2,2,3.936,4.022,5.961,6.141l3.034,3.213c.815.879,1.612,1.764,2.414,2.655l.465.516L1104,467.713l-.46-.509c-.866-.963-1.728-1.92-2.611-2.87L1097.782,461c-2.025-2.119-4.119-4.31-6.286-6.473C1087.532,450.607,1083.227,446.41,1078.6,442.273Z" fill="#2c2c2c"/>
    <path d="M1099.085,542.783a351.781,351.781,0,0,0-20.018-29.9,327.948,327.948,0,0,0-22.244-26.722l-5.7-6.115-6.075,5.74a295.5,295.5,0,0,1-24.3,20.5,281.85,281.85,0,0,1-25.433,17.089l8.511,14.245a298.119,298.119,0,0,0,26.943-18.107c6.823-5.175,13.329-10.515,19.423-15.94,5.213,5.939,10.359,12.3,15.6,19.266a335.455,335.455,0,0,1,19.072,28.5Z" fill="#2c2c2c"/>
    <path d="M1044.854,544.667l-7.086,4.433a297.48,297.48,0,0,1-27.818,15.341,283.536,283.536,0,0,1-28.3,11.75l5.522,15.649a300.719,300.719,0,0,0,29.992-12.454c7.642-3.708,15.066-7.672,22.157-11.828,3.983,6.9,7.785,14.144,11.521,21.931a342.578,342.578,0,0,1,13.1,31.706l15.631-5.572a359.242,359.242,0,0,0-13.752-33.28,330.05,330.05,0,0,0-16.583-30.56Z" fill="#2c2c2c"/>
    <path d="M992.043,635.408c8.231-2.137,16.291-4.566,24.055-7.247,2.548,7.547,4.854,15.4,6.99,23.777a341.154,341.154,0,0,1,6.637,33.636l16.417-2.416a357.836,357.836,0,0,0-6.969-35.3,329.349,329.349,0,0,0-10.256-33.219l-2.9-7.837-7.817,2.955a297.264,297.264,0,0,1-30.31,9.585,283.325,283.325,0,0,1-30.063,5.989l2.107,14.625,2.232,1.488A298.988,298.988,0,0,0,992.043,635.408Z" fill="#2c2c2c"/>
  </g>
</svg>
