<svg xmlns="http://www.w3.org/2000/svg" width="1440" height="1440" viewBox="0 0 1440 1440">
  <g>
    <path d="M99.137,719.918,88.458,708.451a613.857,613.857,0,0,1-41.709-50.1A659.936,659.936,0,0,1,9.214,602.281l26.659-16.043a629.387,629.387,0,0,0,35.761,53.433c9.818,13.063,19.467,24.987,29.242,36.124,11.428-10.173,23.629-20.187,36.42-29.888a559.619,559.619,0,0,1,50.517-33.951l15.958,26.71a528.252,528.252,0,0,0-47.686,32.042,553.606,553.606,0,0,0-45.558,38.447Z"/>
    <path d="M110.9,598.749l-8.215-13.344A618.984,618.984,0,0,1,71.59,528.1a673.483,673.483,0,0,1-25.784-62.4l29.308-10.447A641.747,641.747,0,0,0,99.672,514.7c7,14.6,14.132,28.177,21.6,41.124,13.293-7.792,27.212-15.224,41.544-22.178A563.918,563.918,0,0,1,219.053,510.3l10.354,29.341a532.2,532.2,0,0,0-53.064,22.032,557.582,557.582,0,0,0-52.16,28.767Z"/>
    <path d="M146.216,482.245l-5.436-14.7a617.621,617.621,0,0,1-19.23-62.284,670.864,670.864,0,0,1-13.067-66.187l30.782-4.532a639.45,639.45,0,0,0,12.445,63.07c4.006,15.717,8.329,30.432,13.1,44.581,14.56-5.029,29.671-9.583,45.1-13.589a561.705,561.705,0,0,1,59.717-11.9l4.436,30.8a530.35,530.35,0,0,0-56.367,11.229A556.916,556.916,0,0,0,160.873,476.7Z"/>
    <path d="M203.694,374.926,201.25,359.45a639.172,639.172,0,0,1-6.676-132.264l31.074,1.6A613.106,613.106,0,0,0,229.781,339.3,565.884,565.884,0,0,1,337.6,334.681L335.91,365.75a538.346,538.346,0,0,0-116.758,6.623Z"/>
    <path d="M412.434,297.526c-5.348-1.379-9.683-2.424-13.641-3.288-4.212-.937-9.136-2.016-14.145-3.01-11.378-2.171-20.2-3.65-28.49-4.774l-.16-.023c-10-1.462-20-2.465-29.317-3.331-8.324-.656-19.228-1.442-29.951-1.729l-15.664-.42.533-15.661c.389-11.463,1.272-22.739,2.083-32.255l.02-.216c.967-9.737,2.185-21.211,3.89-32.516,1.7-12.083,3.9-23.921,5.62-32.89,1.165-5.825,2.385-11.4,3.534-16.585,1.064-4.887,2.3-10.053,3.989-16.695l30.153,7.673c-1.6,6.281-2.756,11.123-3.754,15.7-1.124,5.072-2.3,10.464-3.391,15.9-1.636,8.514-3.747,19.883-5.35,31.305l-.024.16c-1.6,10.6-2.766,21.573-3.694,30.92-.4,4.7-.819,9.842-1.179,15.191,5.747.344,11.13.747,15.74,1.11l.215.019c9.746.905,20.242,1.958,30.967,3.523,8.842,1.2,18.153,2.76,30.176,5.056,5.428,1.077,10.569,2.2,14.9,3.165,4.287.936,8.979,2.066,14.711,3.543Z"/>
    <path d="M500.647,245.541c-7.518-3.649-15.541-7.23-26.012-11.611-4.212-1.745-8.556-3.426-13.384-5.283l-6.772-2.549-6.907-2.438a545.92,545.92,0,0,0-57.254-16.535l-15.258-3.546,3.652-15.234a609.385,609.385,0,0,1,18.53-62.531l2.851-7.963,2.887-7.589c1.9-4.9,4.016-10.343,6.241-15.7,5.188-12.352,9.589-22.223,13.873-31.12l28.033,13.5c-4.048,8.406-8.242,17.817-13.2,29.615-2.062,4.961-4.1,10.221-5.907,14.863l-2.794,7.345-2.686,7.512c-5.1,14.3-9.719,29.156-13.774,44.325,15.65,4.062,30.778,8.654,45.142,13.707l7.38,2.607,7.027,2.646c5.134,1.975,9.672,3.732,14.275,5.638,10.926,4.572,19.691,8.487,27.638,12.344Z"/>
    <path d="M597.382,211.992l-1.757-1.313c-3.175-2.373-6.457-4.826-9.611-7.019-3.96-2.786-7.96-5.543-11.961-8.247-3.745-2.522-7.55-4.936-11.578-7.491l-6.644-4.154-6.29-3.745a538.89,538.89,0,0,0-52.9-27.453l-14.259-6.485,6.582-14.214A609.658,609.658,0,0,1,519.41,74.19l4.359-7.243,4.894-7.765c2.781-4.356,5.657-8.86,8.653-13.3,3.125-4.613,6.336-9.268,9.557-13.852,2.7-3.888,5.52-7.684,8.248-11.355l1.812-2.441,25,18.521-1.842,2.48c-2.7,3.633-5.25,7.064-7.711,10.61-3.168,4.51-6.279,9.019-9.293,13.469-2.76,4.086-5.527,8.419-8.2,12.609l-4.7,7.456-4.112,6.839c-7.727,12.854-15.166,26.514-22.2,40.759,14.735,7.135,28.441,14.491,41.577,22.3l6.719,4,6.969,4.359c4.028,2.554,8.192,5.2,12.31,7.969,4.184,2.827,8.347,5.7,12.395,8.546,3.521,2.447,7.021,5.063,10.406,7.593l1.731,1.294Z"/>
    <path d="M698.881,197.924l-.612-.683c-1.35-1.508-2.714-3.03-4.088-4.515l-4.955-5.26c-3.483-3.647-6.69-6.992-9.948-10.236-6.066-5.981-13.358-13.066-21.035-19.86l-.126-.113c-6.295-5.693-13.252-11.6-22.556-19.14-3.535-2.86-7.131-5.611-10.938-8.523l-6.983-5.274c-1.54-1.143-3.177-2.314-4.826-3.494l-13.9-9.969,10.063-13.821c1.3-1.8,2.621-3.605,3.954-5.374l5.53-7.217c3.038-3.917,6.181-7.967,9.437-11.94,8.366-10.182,14.955-17.854,21.366-24.878,7.76-8.682,15.63-16.753,22.977-24.184,4.056-4.062,8.164-7.987,12.136-11.785l6.253-5.9c1.743-1.618,3.5-3.2,5.262-4.789L696.96,0l20.84,23.1-1.084.977c-1.634,1.472-3.257,2.933-4.87,4.429l-6.02,5.684c-3.972,3.8-7.769,7.426-11.515,11.178-7.026,7.1-14.585,14.857-21.9,23.047l-.113.124c-6.049,6.625-12.324,13.933-20.345,23.7-2.98,3.637-5.993,7.52-8.907,11.275l-.484.624.968.74c3.8,2.91,7.739,5.919,11.616,9.056,9.739,7.9,17.074,14.123,23.782,20.188,8.256,7.31,16.228,15.062,22.254,21,3.569,3.554,6.919,7.048,10.622,10.925l5.168,5.486c1.5,1.623,2.994,3.287,4.471,4.935l.6.675Z"/>
    <path d="M801.333,203.77a528.312,528.312,0,0,0-32.041-47.685,553.653,553.653,0,0,0-38.447-45.558L720.082,99.138l11.466-10.68a613.991,613.991,0,0,1,50.1-41.709A659.882,659.882,0,0,1,837.719,9.213l16.043,26.66a628.91,628.91,0,0,0-53.433,35.761c-13.065,9.819-24.99,19.469-36.125,29.242,10.172,11.425,20.187,23.627,29.889,36.42a559.629,559.629,0,0,1,33.95,50.517Z"/>
    <path d="M900.359,229.407a531.579,531.579,0,0,0-22.031-53.064,558.073,558.073,0,0,0-28.766-52.161l-8.31-13.284,13.344-8.215A618.835,618.835,0,0,1,911.9,71.59a673.56,673.56,0,0,1,62.4-25.784L984.74,75.114A641.9,641.9,0,0,0,925.3,99.672c-14.6,7-28.176,14.132-41.123,21.6,7.793,13.3,15.225,27.215,22.177,41.544A563.464,563.464,0,0,1,929.7,219.054Z"/>
    <path d="M992.5,274.073a530.619,530.619,0,0,0-11.23-56.368,557.224,557.224,0,0,0-17.97-56.832l-5.541-14.657,14.7-5.436a617.621,617.621,0,0,1,62.284-19.23,670.806,670.806,0,0,1,66.187-13.067l4.531,30.782a639.487,639.487,0,0,0-63.069,12.445c-15.719,4.006-30.432,8.329-44.582,13.1,5.029,14.56,9.582,29.671,13.588,45.1a561.957,561.957,0,0,1,11.9,59.717Z"/>
    <path d="M1105.318,337.6l-31.068-1.693a538.4,538.4,0,0,0-6.623-116.758l-2.552-15.458,15.475-2.444a639.242,639.242,0,0,1,132.264-6.676l-1.6,31.074a613.377,613.377,0,0,0-110.512,4.133A565.808,565.808,0,0,1,1105.318,337.6Z"/>
    <path d="M1172.605,420.2l-30.132-7.758c1.384-5.377,2.429-9.713,3.289-13.646.936-4.212,2.015-9.136,3.009-14.145,2.176-11.4,3.655-20.223,4.774-28.488l.023-.162c1.465-10.019,2.466-20.007,3.33-29.315.657-8.324,1.443-19.229,1.731-29.953l.419-15.664,15.661.533c11.465.389,22.739,1.272,32.256,2.083l.215.02c9.736.967,21.21,2.185,32.517,3.89,12.087,1.7,23.922,3.9,32.888,5.62,5.829,1.165,11.408,2.386,16.586,3.534,4.878,1.062,10.044,2.3,16.695,3.988l-7.672,30.154c-6.29-1.6-11.132-2.758-15.7-3.754-5.07-1.123-10.461-2.3-15.9-3.391-8.512-1.636-19.879-3.746-31.305-5.35l-.16-.024c-10.6-1.6-21.572-2.766-30.918-3.694-4.7-.4-9.843-.819-15.192-1.179-.345,5.747-.747,11.13-1.112,15.74l-.018.214c-.9,9.736-1.956,20.226-3.523,30.967-1.2,8.816-2.756,18.128-5.055,30.176-1.077,5.429-2.2,10.57-3.165,14.9C1175.216,409.75,1174.087,414.441,1172.605,420.2Z"/>
    <path d="M1222.451,514.231l-27.993-13.584c3.6-7.418,7.289-15.683,11.611-26.012,1.741-4.2,3.356-8.373,5.283-13.384l2.55-6.772,2.436-6.9a545.382,545.382,0,0,0,16.535-57.256l3.547-15.258,15.234,3.652a609.831,609.831,0,0,1,62.532,18.53l7.964,2.852,7.587,2.887c4.9,1.9,10.334,4.011,15.7,6.24,12.344,5.184,22.215,9.586,31.119,13.873l-13.5,28.033c-8.415-4.052-17.826-8.245-29.617-13.2-4.969-2.066-10.225-4.106-14.862-5.906l-7.345-2.8-7.512-2.686c-14.3-5.1-29.155-9.719-44.326-13.774-4.062,15.648-8.653,30.775-13.707,45.142l-2.607,7.38-2.646,7.027c-1.98,5.147-3.74,9.695-5.64,14.279C1230.223,497.517,1226.308,506.282,1222.451,514.231Z"/>
    <path d="M1252.948,615.985l-24.94-18.6,1.287-1.722c2.381-3.186,4.844-6.48,7.046-9.647,2.789-3.964,5.547-7.964,8.245-11.959,2.514-3.732,4.919-7.524,7.466-11.538l4.178-6.684,3.748-6.292a538.812,538.812,0,0,0,27.451-52.9l6.486-14.259,14.214,6.582a609.8,609.8,0,0,1,57.68,30.446l7.243,4.358,7.765,4.895c4.356,2.781,8.86,5.657,13.3,8.653,4.618,3.129,9.272,6.34,13.852,9.557,3.885,2.7,7.681,5.518,11.35,8.245l2.444,1.815-18.517,25-2.485-1.844c-3.633-2.7-7.062-5.249-10.608-7.71-4.505-3.165-9.014-6.276-13.469-9.294-4.086-2.759-8.419-5.526-12.608-8.2l-7.457-4.7-6.839-4.112c-12.852-7.725-26.512-15.164-40.759-22.2-7.135,14.736-14.491,28.443-22.3,41.577l-4,6.717-4.385,7.014c-2.548,4.014-5.18,8.164-7.944,12.267-2.821,4.176-5.691,8.339-8.543,12.393-2.459,3.536-5.083,7.047-7.622,10.444Z"/>
    <path d="M1262.851,722.044l-20.778-23.161.753-.674c1.485-1.332,2.984-2.675,4.447-4.028l5.259-4.955c3.63-3.464,6.961-6.658,10.237-9.948,5.983-6.068,13.07-13.363,19.862-21.036l.112-.125c5.686-6.288,11.59-13.245,19.141-22.556,2.859-3.535,5.61-7.131,8.522-10.938l5.273-6.982c1.128-1.519,2.284-3.135,3.448-4.762l10.017-13.965,13.805,10.051c1.8,1.309,3.612,2.628,5.386,3.964l7.277,5.575c3.9,3.025,7.928,6.152,11.882,9.392,10.185,8.368,17.857,14.958,24.879,21.368,8.677,7.756,16.75,15.626,24.182,22.976,4.063,4.056,7.989,8.164,11.786,12.137l5.9,6.251c1.654,1.781,3.27,3.575,4.895,5.381l.862.955L1416.888,717.8l-.87-.967c-1.505-1.67-3-3.329-4.528-4.978l-5.688-6.025c-3.8-3.972-7.426-7.769-11.177-11.515-7.107-7.028-14.862-14.589-23.047-21.9l-.126-.113c-6.624-6.048-13.931-12.323-23.695-20.345-3.618-2.966-7.483-5.964-11.219-8.864l-.68-.527-.739.968c-2.91,3.8-5.919,7.739-9.056,11.616-7.906,9.749-14.133,17.084-20.191,23.785-7.306,8.251-15.059,16.223-21,22.251-3.583,3.6-7.211,7.075-10.927,10.623l-5.485,5.167c-1.6,1.48-3.239,2.951-4.865,4.409Z"/>
    <path d="M1404.126,853.762a629.177,629.177,0,0,0-35.761-53.434c-9.819-13.064-19.468-24.989-29.241-36.124-11.426,10.172-23.626,20.185-36.42,29.888a559.207,559.207,0,0,1-50.517,33.951l-15.958-26.71a528.464,528.464,0,0,0,47.686-32.041,554.172,554.172,0,0,0,45.559-38.447l11.389-10.763,10.68,11.466a614.6,614.6,0,0,1,41.708,50.1,659.8,659.8,0,0,1,37.534,56.067Z"/>
    <path d="M1364.886,984.741a641.8,641.8,0,0,0-24.559-59.447c-7.005-14.6-14.134-28.178-21.6-41.122-13.3,7.793-27.216,15.225-41.545,22.177a563.545,563.545,0,0,1-56.236,23.353l-10.352-29.343a531.424,531.424,0,0,0,53.063-22.031,558.152,558.152,0,0,0,52.16-28.765l13.284-8.311,8.215,13.343a618.6,618.6,0,0,1,31.094,57.3,673.489,673.489,0,0,1,25.785,62.4Z"/>
    <path d="M1300.734,1105.453a639.312,639.312,0,0,0-12.444-63.069c-4-15.716-8.328-30.431-13.106-44.582-14.558,5.028-29.669,9.582-45.1,13.588a561.807,561.807,0,0,1-59.717,11.9l-4.437-30.8a530.619,530.619,0,0,0,56.368-11.23,557.328,557.328,0,0,0,56.832-17.97l14.656-5.541,5.437,14.7a617.506,617.506,0,0,1,19.231,62.285,671.267,671.267,0,0,1,13.067,66.187Z"/>
    <path d="M1245.425,1212.814l-31.073-1.6a613.031,613.031,0,0,0-4.134-110.512,566.047,566.047,0,0,1-107.821,4.615l1.692-31.068a538.244,538.244,0,0,0,116.758-6.623l15.459-2.552,2.443,15.475A639.052,639.052,0,0,1,1245.425,1212.814Z"/>
    <path d="M1139.264,1305.868l-30.152-7.676c1.6-6.27,2.753-11.112,3.752-15.7,1.129-5.089,2.311-10.492,3.39-15.894,1.636-8.5,3.745-19.862,5.354-31.31l.022-.158c1.6-10.571,2.764-21.554,3.695-30.916.4-4.7.819-9.841,1.18-15.194-5.749-.345-11.131-.747-15.742-1.112l-.214-.018c-9.737-.9-20.227-1.956-30.962-3.522-8.821-1.2-18.133-2.757-30.181-5.056-5.431-1.077-10.569-2.2-14.9-3.165-4.264-.931-8.954-2.062-14.708-3.542l7.759-30.132c5.374,1.384,9.709,2.428,13.646,3.289,4.211.936,9.135,2.015,14.144,3.009,11.4,2.174,20.221,3.654,28.488,4.774l.163.023c10.015,1.464,20.006,2.466,29.314,3.332,8.326.655,19.231,1.441,29.953,1.729l15.665.419-.532,15.662c-.391,11.486-1.274,22.75-2.085,32.255l-.02.216c-.969,9.754-2.189,21.242-3.889,32.519-1.7,12.109-3.9,23.933-5.621,32.887-1.158,5.792-2.381,11.386-3.533,16.584C1142.187,1294.069,1140.952,1299.236,1139.264,1305.868Z"/>
    <path d="M1016.905,1376.553l-28.033-13.5c4.05-8.411,8.245-17.822,13.2-29.615,2.059-4.948,4.1-10.216,5.908-14.863l2.794-7.343,2.685-7.512c5.1-14.3,9.719-29.152,13.776-44.328-15.647-4.062-30.777-8.655-45.143-13.707l-7.379-2.607-7.027-2.646c-5.142-1.978-9.687-3.737-14.279-5.64-10.92-4.569-19.686-8.484-27.634-12.341l13.583-27.993c7.419,3.6,15.684,7.289,26.012,11.611,4.2,1.74,8.549,3.424,13.385,5.283l6.771,2.55,6.9,2.436a545.4,545.4,0,0,0,57.257,16.535l15.259,3.547-3.654,15.235a609.4,609.4,0,0,1-18.531,62.531l-2.85,7.965-2.888,7.588c-1.9,4.9-4.02,10.357-6.241,15.7C1025.592,1357.78,1021.191,1367.653,1016.905,1376.553Z"/>
    <path d="M883.066,1421.762l-25-18.521,1.808-2.437c2.712-3.648,5.271-7.094,7.746-10.655,3.141-4.473,6.252-8.982,9.294-13.47,2.749-4.071,5.507-8.39,8.175-12.568l4.723-7.5,4.113-6.838c7.723-12.848,15.161-26.508,22.2-40.759-14.734-7.134-28.441-14.49-41.576-22.3l-6.719-4-6.961-4.351c-4.03-2.559-8.2-5.2-12.32-7.978-4.165-2.814-8.328-5.684-12.392-8.543-3.546-2.465-7.064-5.1-10.469-7.64l-1.672-1.251,18.605-24.938,1.7,1.268c3.194,2.388,6.5,4.857,9.671,7.065,3.972,2.794,7.973,5.552,11.957,8.243,3.751,2.526,7.559,4.943,11.592,7.5l6.632,4.146,6.291,3.747a538.982,538.982,0,0,0,52.9,27.451l14.259,6.486-6.582,14.214a609.59,609.59,0,0,1-30.447,57.68l-4.359,7.242-4.919,7.805c-2.772,4.343-5.639,8.834-8.626,13.258-3.154,4.653-6.366,9.306-9.558,13.852-2.711,3.9-5.543,7.713-8.281,11.4Z"/>
    <path d="M743.035,1440,722.2,1416.888l.974-.876c1.668-1.5,3.327-3,4.976-4.525l6.018-5.684c3.775-3.607,7.747-7.4,11.517-11.179,7.019-7.1,14.574-14.845,21.9-23.048l.113-.124c6.052-6.627,12.326-13.934,20.345-23.694,2.976-3.631,5.983-7.509,8.892-11.257l.5-.643-.971-.742c-3.8-2.909-7.735-5.917-11.611-9.053-9.742-7.9-17.077-14.125-23.784-20.189-8.257-7.311-16.227-15.064-22.252-21-3.619-3.6-7.088-7.224-10.623-10.927l-5.166-5.481c-1.473-1.593-2.936-3.224-4.386-4.841l-.691-.77,23.161-20.778.7.78c1.323,1.477,2.657,2.966,4,4.419l4.958,5.26c3.323,3.481,6.641,6.944,9.948,10.237,6.066,5.981,13.357,13.066,21.035,19.862l.124.11c6.294,5.692,13.251,11.6,22.558,19.143,3.534,2.859,7.129,5.609,10.935,8.52l6.985,5.274c1.542,1.144,3.179,2.316,4.828,3.5l13.9,9.966-10,13.743c-1.322,1.821-2.657,3.655-4.007,5.449l-5.549,7.241c-3.034,3.91-6.171,7.954-9.422,11.921-8.363,10.179-14.952,17.852-21.366,24.877-7.772,8.695-15.636,16.762-22.977,24.184-4.081,4.087-8.188,8.012-12.159,11.807l-6.23,5.881c-1.779,1.653-3.57,3.266-5.372,4.889Z"/>
    <path d="M602.281,1430.785l-16.043-26.659a628.835,628.835,0,0,0,53.433-35.761c13.064-9.818,24.987-19.467,36.124-29.241-10.173-11.429-20.187-23.629-29.888-36.42a559.542,559.542,0,0,1-33.951-50.517l26.71-15.958a528.3,528.3,0,0,0,32.042,47.685,553.81,553.81,0,0,0,38.447,45.56l10.763,11.389-11.467,10.68a614.614,614.614,0,0,1-50.1,41.708A660.121,660.121,0,0,1,602.281,1430.785Z"/>
    <path d="M465.706,1394.194l-10.447-29.308a642.018,642.018,0,0,0,59.446-24.559c14.6-7.005,28.179-14.134,41.123-21.6-7.792-13.293-15.224-27.212-22.178-41.545a563.745,563.745,0,0,1-23.352-56.234l29.341-10.356a531.983,531.983,0,0,0,22.032,53.065,557.577,557.577,0,0,0,28.766,52.16l8.312,13.284-13.344,8.215a618.968,618.968,0,0,1-57.3,31.094A673.459,673.459,0,0,1,465.706,1394.194Z"/>
    <path d="M339.078,1331.517l-4.532-30.783a639.333,639.333,0,0,0,63.07-12.444c15.716-4,30.43-8.328,44.581-13.106-5.028-14.558-9.582-29.669-13.589-45.1a561.8,561.8,0,0,1-11.9-59.717l30.8-4.437a530.368,530.368,0,0,0,11.229,56.368,557.328,557.328,0,0,0,17.97,56.832l5.542,14.656-14.7,5.437a617.485,617.485,0,0,1-62.284,19.231A671.325,671.325,0,0,1,339.078,1331.517Z"/>
    <path d="M261.43,1246.31q-17.053,0-34.245-.885l1.6-31.073a613.122,613.122,0,0,0,110.511-4.134,565.8,565.8,0,0,1-4.616-107.821l31.069,1.692a538.262,538.262,0,0,0,6.623,116.758l2.553,15.459-15.476,2.443A629.252,629.252,0,0,1,261.43,1246.31Z"/>
    <path d="M280.951,1158.934l-15.661-.532c-11.485-.391-22.751-1.274-32.256-2.085l-.216-.02c-9.753-.969-21.238-2.189-32.513-3.888-12.108-1.7-23.936-3.9-32.893-5.622-5.788-1.157-11.383-2.381-16.584-3.533-4.908-1.069-10.074-2.3-16.7-3.99l7.677-30.152c6.26,1.594,11.1,2.751,15.7,3.752,5.091,1.129,10.5,2.311,15.894,3.39,8.506,1.636,19.865,3.745,31.31,5.353l.158.023c10.572,1.6,21.555,2.764,30.917,3.695,4.7.4,9.84.819,15.194,1.18.344-5.749.747-11.131,1.11-15.742l.019-.214c.905-9.75,1.958-20.247,3.523-30.97,1.557-11.463,3.631-22.707,5.056-30.175,1.077-5.429,2.2-10.567,3.165-14.894.937-4.291,2.067-8.983,3.543-14.712l30.13,7.767c-1.378,5.345-2.423,9.681-3.288,13.642-.936,4.211-2.015,9.135-3.01,14.144-2.171,11.377-3.65,20.2-4.774,28.491l-.023.159c-1.461,10-2.465,20-3.331,29.314-.656,8.326-1.442,19.23-1.729,29.954Z"/>
    <path d="M203.579,1064.941l-15.235-3.654a609.7,609.7,0,0,1-62.531-18.531l-7.963-2.85-7.589-2.888c-4.911-1.9-10.366-4.024-15.7-6.242-12.353-5.186-22.225-9.588-31.118-13.871l13.5-28.033c8.4,4.048,17.812,8.241,29.614,13.2,4.94,2.055,10.211,4.1,14.863,5.908l7.344,2.794,7.51,2.685c14.3,5.1,29.154,9.719,44.328,13.776,4.062-15.65,8.654-30.778,13.707-45.143l2.607-7.379,2.646-7.027c1.973-5.129,3.729-9.664,5.638-14.275,4.572-10.926,8.487-19.692,12.344-27.638l27.992,13.583c-3.649,7.519-7.23,15.541-11.611,26.012-1.748,4.221-3.428,8.561-5.283,13.385L226.1,985.52l-2.438,6.906a545.857,545.857,0,0,0-16.535,57.256Z"/>
    <path d="M146.085,957.618l-14.214-6.582A610.381,610.381,0,0,1,74.19,920.59l-7.243-4.36-7.8-4.919c-4.342-2.772-8.833-5.639-13.257-8.626-4.647-3.151-9.3-6.362-13.852-9.558-3.9-2.712-7.716-5.544-11.4-8.283l-2.4-1.778,18.523-25,2.433,1.806c3.649,2.713,7.095,5.273,10.657,7.748,4.478,3.144,8.987,6.256,13.47,9.294,4.072,2.749,8.391,5.507,12.568,8.175l7.494,4.722,6.84,4.114c12.851,7.724,26.511,15.163,40.76,22.2,7.133-14.733,14.488-28.439,22.3-41.577l4-6.719,4.324-6.916c2.566-4.046,5.22-8.228,8-12.364,2.818-4.173,5.689-8.337,8.544-12.394,2.454-3.53,5.077-7.038,7.612-10.43l1.276-1.708,24.94,18.6-1.3,1.734c-2.378,3.182-4.838,6.472-7.037,9.635-2.791,3.967-5.549,7.967-8.245,11.958-2.534,3.763-4.959,7.586-7.525,11.632l-4.121,6.592-3.745,6.29a538.709,538.709,0,0,0-27.453,52.9Z"/>
    <path d="M110.861,841.085,97.1,831.068c-1.816-1.319-3.644-2.649-5.434-4l-7.181-5.5c-3.93-3.049-7.993-6.2-11.979-9.468-10.178-8.361-17.85-14.95-24.877-21.364-8.7-7.777-16.764-15.639-24.184-22.978-4.087-4.083-8.011-8.188-11.806-12.159l-5.884-6.231c-1.615-1.741-3.193-3.491-4.781-5.253L0,743.039l23.1-20.839.983,1.091c1.47,1.631,2.93,3.252,4.423,4.863l5.683,6.017c3.607,3.774,7.4,7.746,11.18,11.519,7.094,7.016,14.839,14.569,23.046,21.9l.124.113c6.628,6.053,13.937,12.327,23.7,20.345,3.649,2.991,7.544,6.012,11.312,8.934l.587.456.743-.971c2.909-3.8,5.917-7.735,9.052-11.611,7.895-9.736,14.121-17.071,20.192-23.788,7.314-8.26,15.063-16.227,21-22.248,3.576-3.592,7.062-6.933,10.927-10.622l5.482-5.167c1.614-1.494,3.269-2.977,4.909-4.447l.7-.631,20.774,23.163-.713.64c-1.5,1.341-3.009,2.7-4.484,4.06l-5.26,4.957c-3.635,3.471-6.971,6.667-10.237,9.948-5.978,6.063-13.062,13.352-19.86,21.035l-.111.124c-5.7,6.3-11.6,13.259-19.142,22.558-2.859,3.534-5.61,7.129-8.521,10.935l-5.275,6.985c-1.161,1.564-2.349,3.224-3.546,4.9Z"/>
  </g>
</svg>
