<svg xmlns="http://www.w3.org/2000/svg" width="1440" height="1440" viewBox="0 0 1440 1440">
  <g>
    <path d="M99.136,719.916l-10.68-11.467a614.21,614.21,0,0,1-41.709-50.1A660.1,660.1,0,0,1,9.212,602.28l26.659-16.044a629.069,629.069,0,0,0,35.762,53.433c9.818,13.064,19.467,24.988,29.242,36.125,11.427-10.174,23.629-20.188,36.42-29.889a559.526,559.526,0,0,1,50.516-33.95l15.958,26.71a528.369,528.369,0,0,0-47.685,32.041,553.8,553.8,0,0,0-45.559,38.448Z" fill="#fdde59"/>
    <path d="M110.9,598.747,102.682,585.4a618.618,618.618,0,0,1-31.093-57.3,673.369,673.369,0,0,1-25.784-62.4l29.308-10.446A641.613,641.613,0,0,0,99.671,514.7c7,14.6,14.132,28.177,21.6,41.124,13.292-7.792,27.212-15.224,41.544-22.177A563.728,563.728,0,0,1,219.052,510.3l10.354,29.341a532.457,532.457,0,0,0-53.065,22.032,558.169,558.169,0,0,0-52.16,28.767Z" fill="#fdde59"/>
    <path d="M146.215,482.244l-5.436-14.7a617.423,617.423,0,0,1-19.23-62.283,670.976,670.976,0,0,1-13.068-66.187l30.783-4.533a639.4,639.4,0,0,0,12.444,63.07c4.006,15.718,8.329,30.433,13.106,44.582,14.56-5.03,29.671-9.583,45.1-13.589a561.956,561.956,0,0,1,59.717-11.9l4.436,30.8a530.832,530.832,0,0,0-56.366,11.229A557.336,557.336,0,0,0,160.872,476.7Z" fill="#fdde59"/>
    <path d="M203.693,374.924l-2.444-15.475a639.182,639.182,0,0,1-6.676-132.265l31.073,1.6A613.006,613.006,0,0,0,229.78,339.3,565.883,565.883,0,0,1,337.6,334.68l-1.693,31.068a538.355,538.355,0,0,0-116.759,6.623Z" fill="#fdde59"/>
    <path d="M412.433,297.524c-5.348-1.378-9.683-2.423-13.641-3.288-4.213-.936-9.136-2.015-14.146-3.009-11.378-2.172-20.2-3.651-28.489-4.775l-.16-.022c-10-1.463-20-2.466-29.317-3.331-8.325-.657-19.229-1.443-29.951-1.73l-15.664-.419.532-15.661c.39-11.464,1.272-22.739,2.084-32.256l.019-.215c.968-9.737,2.186-21.211,3.89-32.516,1.7-12.084,3.9-23.922,5.62-32.89,1.165-5.825,2.386-11.406,3.534-16.586,1.065-4.887,2.3-10.053,3.989-16.694l30.153,7.672c-1.6,6.282-2.756,11.124-3.753,15.7-1.124,5.072-2.3,10.464-3.391,15.9-1.637,8.513-3.747,19.883-5.351,31.305l-.023.16c-1.6,10.6-2.766,21.572-3.695,30.919-.4,4.7-.818,9.843-1.179,15.191,5.748.345,11.131.748,15.74,1.111l.215.019c9.747.905,20.242,1.958,30.968,3.523,8.841,1.2,18.152,2.76,30.176,5.055,5.428,1.078,10.568,2.2,14.895,3.165,4.287.937,8.98,2.066,14.711,3.544Z" fill="#fdde59"/>
    <path d="M500.645,245.539c-7.518-3.648-15.54-7.229-26.011-11.611-4.213-1.744-8.557-3.425-13.385-5.283l-6.771-2.549-6.907-2.437a545.679,545.679,0,0,0-57.254-16.535l-15.259-3.547,3.653-15.234a609.534,609.534,0,0,1,18.53-62.531l2.851-7.963,2.887-7.589c1.9-4.9,4.016-10.343,6.24-15.7,5.188-12.352,9.59-22.224,13.874-31.12l28.033,13.5c-4.049,8.406-8.242,17.816-13.2,29.615-2.061,4.96-4.1,10.221-5.906,14.862l-2.8,7.346-2.686,7.511c-5.1,14.3-9.719,29.156-13.774,44.326,15.65,4.061,30.778,8.654,45.143,13.706l7.379,2.608,7.028,2.646c5.133,1.974,9.672,3.731,14.275,5.638,10.925,4.571,19.691,8.487,27.638,12.343Z" fill="#fdde59"/>
    <path d="M597.381,211.99l-1.758-1.312c-3.174-2.373-6.456-4.827-9.611-7.019-3.96-2.787-7.959-5.544-11.96-8.247-3.745-2.522-7.55-4.936-11.579-7.491l-6.643-4.154-6.29-3.745a538.91,538.91,0,0,0-52.9-27.454l-14.258-6.484,6.582-14.214a609.446,609.446,0,0,1,30.446-57.682l4.359-7.243,4.893-7.764c2.781-4.356,5.658-8.86,8.653-13.3,3.125-4.614,6.336-9.268,9.557-13.853,2.7-3.888,5.521-7.684,8.249-11.354l1.812-2.441,25,18.52-1.842,2.481c-2.7,3.633-5.25,7.064-7.712,10.61-3.168,4.51-6.279,9.019-9.293,13.469-2.759,4.086-5.526,8.418-8.2,12.608l-4.7,7.457-4.112,6.838c-7.726,12.855-15.165,26.515-22.2,40.759,14.735,7.135,28.441,14.491,41.578,22.3l6.718,4,6.97,4.358c4.028,2.555,8.192,5.2,12.31,7.97,4.183,2.827,8.347,5.7,12.394,8.545,3.521,2.447,7.021,5.064,10.406,7.594l1.732,1.293Z" fill="#fdde59"/>
    <path d="M698.88,197.923l-.612-.683c-1.351-1.508-2.715-3.03-4.088-4.515l-4.955-5.26c-3.484-3.647-6.69-6.992-9.948-10.236-6.066-5.981-13.359-13.067-21.036-19.86l-.126-.113c-6.295-5.694-13.251-11.6-22.555-19.141-3.536-2.86-7.132-5.61-10.939-8.523l-6.982-5.274c-1.54-1.142-3.177-2.313-4.826-3.493l-13.9-9.97,10.064-13.821c1.3-1.8,2.621-3.6,3.953-5.373l5.53-7.218c3.039-3.917,6.181-7.967,9.437-11.94,8.366-10.182,14.955-17.854,21.366-24.877,7.761-8.682,15.63-16.754,22.978-24.184,4.055-4.062,8.163-7.988,12.136-11.785l6.253-5.9c1.743-1.618,3.5-3.2,5.262-4.788L696.959,0l20.839,23.1-1.084.977c-1.633,1.472-3.257,2.934-4.869,4.43l-6.02,5.684c-3.972,3.8-7.77,7.426-11.516,11.178-7.026,7.1-14.584,14.856-21.9,23.046l-.113.125c-6.049,6.625-12.325,13.933-20.346,23.7-2.98,3.636-5.993,7.52-8.906,11.275l-.484.624.968.739c3.8,2.911,7.738,5.92,11.616,9.056,9.739,7.9,17.073,14.123,23.782,20.188,8.256,7.31,16.227,15.063,22.253,21,3.569,3.555,6.92,7.049,10.622,10.926l5.169,5.486c1.5,1.623,2.993,3.286,4.47,4.935l.606.675Z" fill="#fdde59"/>
    <path d="M801.332,203.769a528.319,528.319,0,0,0-32.042-47.685,553.641,553.641,0,0,0-38.447-45.559L720.08,99.136l11.467-10.68a614.229,614.229,0,0,1,50.1-41.709A660.1,660.1,0,0,1,837.717,9.212l16.044,26.66a628.75,628.75,0,0,0-53.433,35.761c-13.066,9.819-24.99,19.468-36.126,29.242,10.172,11.425,20.187,23.626,29.89,36.419a559.289,559.289,0,0,1,33.949,50.518Z" fill="#fdde59"/>
    <path d="M900.358,229.405a531.586,531.586,0,0,0-22.032-53.064A557.867,557.867,0,0,0,849.56,124.18L841.251,110.9l13.343-8.214a618.489,618.489,0,0,1,57.3-31.093,672.99,672.99,0,0,1,62.4-25.784l10.446,29.308a641.529,641.529,0,0,0-59.446,24.558c-14.6,7-28.175,14.132-41.123,21.6,7.793,13.3,15.225,27.215,22.178,41.544A563.775,563.775,0,0,1,929.7,219.052Z" fill="#fdde59"/>
    <path d="M992.494,274.071A530.649,530.649,0,0,0,981.265,217.7a556.9,556.9,0,0,0-17.971-56.832l-5.541-14.657,14.7-5.436a617.344,617.344,0,0,1,62.283-19.23,670.918,670.918,0,0,1,66.187-13.068l4.531,30.783a639.469,639.469,0,0,0-63.068,12.444c-15.719,4.006-30.433,8.329-44.582,13.106,5.029,14.56,9.582,29.671,13.588,45.1a562.056,562.056,0,0,1,11.9,59.717Z" fill="#fdde59"/>
    <path d="M1105.316,337.6l-31.068-1.693a538.406,538.406,0,0,0-6.622-116.759l-2.553-15.458,15.476-2.443a639.1,639.1,0,0,1,132.264-6.676l-1.6,31.073A613.369,613.369,0,0,0,1100.7,229.78,565.8,565.8,0,0,1,1105.316,337.6Z" fill="#fdde59"/>
    <path d="M1172.6,420.2l-30.133-7.758c1.385-5.376,2.43-9.712,3.289-13.645.936-4.213,2.015-9.136,3.01-14.146,2.175-11.4,3.654-20.222,4.774-28.487l.023-.163c1.464-10.018,2.466-20.006,3.33-29.314.656-8.324,1.443-19.23,1.731-29.953l.419-15.664,15.66.532c11.465.39,22.739,1.272,32.256,2.084l.215.019c9.737.967,21.21,2.185,32.517,3.89,12.087,1.7,23.923,3.9,32.889,5.62,5.829,1.166,11.408,2.386,16.585,3.534,4.879,1.062,10.044,2.3,16.695,3.988l-7.671,30.155c-6.29-1.6-11.132-2.759-15.7-3.754-5.071-1.124-10.461-2.3-15.9-3.391-8.511-1.637-19.879-3.747-31.305-5.351l-.159-.023c-10.6-1.6-21.572-2.766-30.919-3.695-4.7-.4-9.842-.818-15.191-1.179-.345,5.748-.748,11.131-1.112,15.74l-.018.214c-.9,9.737-1.956,20.226-3.524,30.967-1.2,8.817-2.755,18.129-5.055,30.177-1.077,5.429-2.2,10.569-3.165,14.9C1175.214,409.748,1174.085,414.44,1172.6,420.2Z" fill="#fdde59"/>
    <path d="M1222.45,514.229l-27.993-13.583c3.6-7.418,7.288-15.684,11.61-26.012,1.742-4.2,3.356-8.373,5.284-13.385l2.55-6.772,2.435-6.9a545.6,545.6,0,0,0,16.536-57.255l3.546-15.259,15.234,3.653a609.525,609.525,0,0,1,62.533,18.53l7.963,2.851,7.588,2.888c4.9,1.9,10.333,4.01,15.7,6.239,12.343,5.185,22.215,9.586,31.119,13.874l-13.5,28.033c-8.416-4.052-17.827-8.245-29.617-13.2-4.969-2.065-10.226-4.106-14.862-5.906l-7.345-2.794-7.512-2.687c-14.3-5.1-29.156-9.719-44.326-13.774-4.062,15.649-8.654,30.776-13.708,45.143l-2.607,7.379-2.646,7.028c-1.979,5.147-3.739,9.694-5.639,14.278C1230.221,497.515,1226.306,506.28,1222.45,514.229Z" fill="#fdde59"/>
    <path d="M1252.947,615.984l-24.94-18.6,1.287-1.722c2.381-3.186,4.843-6.48,7.045-9.647,2.79-3.965,5.547-7.965,8.246-11.959,2.513-3.733,4.918-7.524,7.466-11.539l4.177-6.683,3.749-6.292a539.267,539.267,0,0,0,27.451-52.9l6.485-14.258,14.214,6.582a609.591,609.591,0,0,1,57.681,30.446l7.242,4.358,7.766,4.894c4.356,2.781,8.86,5.658,13.3,8.653,4.619,3.13,9.272,6.341,13.852,9.557,3.886,2.7,7.681,5.519,11.351,8.245l2.444,1.815-18.518,25-2.484-1.843c-3.633-2.7-7.063-5.249-10.608-7.711-4.506-3.164-9.015-6.275-13.469-9.293-4.087-2.759-8.419-5.526-12.609-8.2l-7.456-4.7-6.84-4.113c-12.851-7.725-26.511-15.163-40.758-22.2-7.136,14.736-14.491,28.444-22.3,41.577l-4,6.717-4.385,7.015c-2.547,4.013-5.18,8.163-7.944,12.267-2.821,4.176-5.69,8.339-8.543,12.393-2.459,3.535-5.083,7.047-7.622,10.443Z" fill="#fdde59"/>
    <path d="M1262.85,722.042l-20.779-23.16.754-.675c1.485-1.331,2.984-2.674,4.447-4.027l5.259-4.955c3.629-3.465,6.961-6.659,10.236-9.948,5.984-6.069,13.071-13.363,19.862-21.037l.112-.125c5.687-6.287,11.59-13.244,19.141-22.556,2.859-3.535,5.611-7.131,8.523-10.938l5.272-6.982c1.128-1.519,2.284-3.134,3.448-4.761l10.018-13.965,13.8,10.051c1.8,1.309,3.613,2.627,5.387,3.963l7.277,5.576c3.9,3.024,7.928,6.152,11.881,9.392,10.185,8.368,17.857,14.957,24.88,21.367,8.676,7.757,16.749,15.627,24.181,22.977,4.063,4.055,7.989,8.163,11.786,12.136l5.9,6.252c1.654,1.781,3.271,3.574,4.9,5.38l.862.956L1416.886,717.8l-.87-.967c-1.5-1.671-3-3.33-4.527-4.978l-5.688-6.025c-3.8-3.973-7.426-7.77-11.177-11.515-7.108-7.029-14.862-14.589-23.048-21.9l-.125-.113c-6.624-6.049-13.931-12.323-23.7-20.346-3.618-2.965-7.483-5.964-11.219-8.864l-.679-.526-.739.968c-2.91,3.8-5.919,7.738-9.056,11.616-7.906,9.749-14.133,17.084-20.192,23.785-7.306,8.251-15.059,16.223-21,22.25-3.583,3.6-7.211,7.076-10.926,10.623l-5.485,5.168c-1.6,1.48-3.239,2.951-4.866,4.408Z" fill="#fdde59"/>
    <path d="M1404.125,853.761a629.017,629.017,0,0,0-35.761-53.434c-9.819-13.065-19.468-24.989-29.242-36.125-11.426,10.172-23.626,20.186-36.419,29.888a559.349,559.349,0,0,1-50.517,33.951l-15.958-26.709a528.4,528.4,0,0,0,47.686-32.042,553.956,553.956,0,0,0,45.558-38.447l11.39-10.763,10.679,11.467a614.429,614.429,0,0,1,41.708,50.1,659.783,659.783,0,0,1,37.534,56.066Z" fill="#fdde59"/>
    <path d="M1364.884,984.74a642.205,642.205,0,0,0-24.558-59.448c-7.006-14.6-14.134-28.178-21.6-41.122-13.295,7.793-27.215,15.225-41.545,22.178a563.856,563.856,0,0,1-56.235,23.352l-10.353-29.342a531.333,531.333,0,0,0,53.063-22.032,557.711,557.711,0,0,0,52.161-28.765l13.284-8.31,8.215,13.342a618.839,618.839,0,0,1,31.094,57.3,673.6,673.6,0,0,1,25.784,62.4Z" fill="#fdde59"/>
    <path d="M1300.733,1105.451a639,639,0,0,0-12.445-63.068c-4.005-15.717-8.328-30.431-13.106-44.582-14.558,5.028-29.669,9.582-45.1,13.588a561.524,561.524,0,0,1-59.718,11.9l-4.436-30.8a530.718,530.718,0,0,0,56.368-11.229,557.559,557.559,0,0,0,56.831-17.971l14.657-5.541,5.436,14.695a617.329,617.329,0,0,1,19.231,62.285,671.034,671.034,0,0,1,13.067,66.187Z" fill="#fdde59"/>
    <path d="M1245.423,1212.813l-31.073-1.6a613.017,613.017,0,0,0-4.133-110.511,565.963,565.963,0,0,1-107.821,4.614l1.692-31.068a538.174,538.174,0,0,0,116.757-6.622l15.459-2.553,2.443,15.476A639.048,639.048,0,0,1,1245.423,1212.813Z" fill="#fdde59"/>
    <path d="M1139.263,1305.867l-30.152-7.677c1.6-6.269,2.753-11.111,3.752-15.7,1.129-5.089,2.31-10.493,3.39-15.894,1.636-8.5,3.744-19.862,5.353-31.31l.022-.158c1.6-10.572,2.764-21.554,3.7-30.916.4-4.7.819-9.841,1.18-15.194-5.749-.345-11.13-.748-15.742-1.112l-.213-.018c-9.737-.9-20.227-1.956-30.963-3.523-8.82-1.2-18.132-2.756-30.181-5.056-5.43-1.077-10.569-2.2-14.9-3.165-4.263-.931-8.954-2.061-14.707-3.541l7.759-30.133c5.373,1.385,9.708,2.429,13.645,3.289,4.211.936,9.135,2.015,14.145,3.01,11.4,2.174,20.221,3.653,28.488,4.774l.163.023c10.015,1.463,20.005,2.466,29.314,3.331,8.326.655,19.23,1.442,29.952,1.73l15.666.419-.533,15.662c-.391,11.485-1.273,22.75-2.084,32.254l-.021.216c-.968,9.754-2.189,21.242-3.889,32.52-1.7,12.109-3.9,23.932-5.62,32.886-1.158,5.793-2.381,11.386-3.533,16.584C1142.186,1294.067,1140.951,1299.234,1139.263,1305.867Z" fill="#fdde59"/>
    <path d="M1016.9,1376.552l-28.032-13.5c4.05-8.41,8.244-17.821,13.2-29.614,2.059-4.948,4.1-10.217,5.908-14.863l2.794-7.344,2.685-7.511c5.1-14.3,9.718-29.153,13.775-44.328-15.647-4.062-30.776-8.655-45.142-13.708l-7.379-2.607-7.028-2.646c-5.142-1.977-9.686-3.737-14.278-5.639-10.921-4.57-19.686-8.485-27.635-12.341l13.584-27.993c7.418,3.6,15.683,7.288,26.012,11.61,4.2,1.741,8.549,3.424,13.385,5.284l6.771,2.55,6.9,2.435a545.692,545.692,0,0,0,57.256,16.536l15.26,3.546-3.654,15.235a609.422,609.422,0,0,1-18.531,62.532l-2.85,7.964-2.888,7.588c-1.9,4.9-4.021,10.358-6.241,15.7C1025.591,1357.779,1021.19,1367.652,1016.9,1376.552Z" fill="#fdde59"/>
    <path d="M883.064,1421.76l-25-18.52,1.809-2.437c2.711-3.649,5.271-7.094,7.745-10.655,3.141-4.473,6.253-8.982,9.3-13.471,2.749-4.07,5.507-8.39,8.174-12.567l4.724-7.5,4.112-6.838c7.723-12.848,15.161-26.507,22.2-40.758-14.735-7.135-28.442-14.49-41.577-22.3l-6.718-4-6.961-4.351c-4.03-2.558-8.2-5.2-12.321-7.978-4.165-2.813-8.328-5.683-12.392-8.543-3.545-2.465-7.064-5.1-10.468-7.64l-1.673-1.251,18.606-24.937,1.7,1.267c3.194,2.389,6.5,4.857,9.671,7.066,3.972,2.794,7.973,5.552,11.957,8.242,3.751,2.526,7.558,4.944,11.591,7.5l6.633,4.145,6.291,3.748a538.756,538.756,0,0,0,52.9,27.451l14.259,6.485-6.583,14.214a609.378,609.378,0,0,1-30.447,57.681l-4.358,7.241-4.919,7.806c-2.772,4.342-5.639,8.833-8.627,13.257-3.154,4.654-6.365,9.307-9.558,13.852-2.71,3.9-5.542,7.713-8.28,11.4Z" fill="#fdde59"/>
    <path d="M743.034,1440,722.2,1416.886l.973-.876c1.669-1.5,3.328-3,4.976-4.525l6.019-5.683c3.775-3.607,7.747-7.4,11.517-11.179,7.019-7.1,14.574-14.845,21.9-23.048l.113-.124c6.051-6.628,12.325-13.935,20.344-23.694,2.977-3.632,5.984-7.509,8.892-11.257l.5-.643-.971-.743c-3.8-2.908-7.735-5.917-11.611-9.052-9.743-7.9-17.078-14.126-23.784-20.189-8.258-7.311-16.227-15.064-22.252-21.005-3.62-3.6-7.088-7.223-10.624-10.926l-5.165-5.482c-1.473-1.592-2.937-3.223-4.387-4.841l-.69-.769,23.161-20.779.7.781c1.324,1.476,2.657,2.965,4,4.419l4.957,5.26c3.323,3.481,6.641,6.944,9.948,10.236,6.066,5.981,13.358,13.067,21.035,19.862l.124.111c6.295,5.692,13.252,11.6,22.558,19.142,3.535,2.859,7.13,5.61,10.935,8.52l6.985,5.274c1.542,1.145,3.18,2.317,4.829,3.5l13.9,9.965-10,13.744c-1.323,1.821-2.657,3.655-4.007,5.449l-5.55,7.241c-3.034,3.91-6.171,7.954-9.422,11.921-8.363,10.179-14.952,17.851-21.365,24.877-7.773,8.695-15.636,16.761-22.978,24.184-4.081,4.087-8.188,8.012-12.158,11.806l-6.231,5.881c-1.779,1.653-3.569,3.266-5.372,4.89Z" fill="#fdde59"/>
    <path d="M602.28,1430.783l-16.044-26.658a628.835,628.835,0,0,0,53.433-35.761c13.064-9.818,24.988-19.467,36.125-29.242-10.174-11.428-20.188-23.628-29.888-36.419a559.474,559.474,0,0,1-33.951-50.517l26.71-15.958a528.082,528.082,0,0,0,32.041,47.685,553.8,553.8,0,0,0,38.448,45.559l10.762,11.39-11.467,10.679a613.865,613.865,0,0,1-50.1,41.708A659.861,659.861,0,0,1,602.28,1430.783Z" fill="#fdde59"/>
    <path d="M465.705,1394.192l-10.448-29.308a641.9,641.9,0,0,0,59.446-24.558c14.6-7.006,28.179-14.134,41.123-21.6-7.792-13.293-15.224-27.211-22.178-41.545a563.548,563.548,0,0,1-23.352-56.234l29.341-10.355a532.1,532.1,0,0,0,22.032,53.064,557.831,557.831,0,0,0,28.767,52.161l8.311,13.284-13.344,8.215a619.076,619.076,0,0,1-57.3,31.094A673.568,673.568,0,0,1,465.705,1394.192Z" fill="#fdde59"/>
    <path d="M339.077,1331.515l-4.533-30.782a638.982,638.982,0,0,0,63.07-12.445c15.717-4.005,30.43-8.328,44.582-13.106-5.028-14.558-9.582-29.669-13.589-45.1a562.075,562.075,0,0,1-11.9-59.718l30.8-4.436a530.969,530.969,0,0,0,11.229,56.368,557.559,557.559,0,0,0,17.971,56.831l5.542,14.657-14.7,5.436a617.07,617.07,0,0,1-62.284,19.231A670.956,670.956,0,0,1,339.077,1331.515Z" fill="#fdde59"/>
    <path d="M261.429,1246.308q-17.053,0-34.245-.885l1.6-31.073a613.119,613.119,0,0,0,110.511-4.133A565.879,565.879,0,0,1,334.68,1102.4l31.068,1.692a538.319,538.319,0,0,0,6.623,116.757l2.553,15.459-15.475,2.443A629.13,629.13,0,0,1,261.429,1246.308Z" fill="#fdde59"/>
    <path d="M280.95,1158.933l-15.662-.533c-11.485-.391-22.75-1.273-32.256-2.084l-.215-.021c-9.753-.968-21.239-2.189-32.514-3.888-12.107-1.7-23.936-3.9-32.892-5.621-5.789-1.157-11.384-2.381-16.585-3.533-4.907-1.07-10.073-2.3-16.7-3.99l7.676-30.152c6.261,1.593,11.1,2.75,15.7,3.752,5.09,1.129,10.5,2.31,15.893,3.39,8.506,1.636,19.865,3.744,31.31,5.352l.159.023c10.571,1.6,21.554,2.764,30.917,3.7,4.7.4,9.84.819,15.193,1.18.345-5.749.748-11.13,1.111-15.742l.019-.213c.905-9.75,1.958-20.248,3.523-30.97,1.557-11.464,3.63-22.708,5.055-30.175,1.078-5.429,2.2-10.568,3.165-14.895.937-4.29,2.067-8.983,3.544-14.711l30.129,7.766c-1.378,5.346-2.422,9.681-3.288,13.642-.936,4.211-2.014,9.135-3.009,14.145-2.172,11.376-3.651,20.2-4.775,28.49l-.022.159c-1.462,10-2.465,20-3.331,29.315-.657,8.325-1.443,19.23-1.73,29.953Z" fill="#fdde59"/>
    <path d="M203.577,1064.94l-15.234-3.654a609.627,609.627,0,0,1-62.531-18.531l-7.964-2.85-7.589-2.888c-4.911-1.906-10.366-4.024-15.7-6.242-12.352-5.187-22.225-9.589-31.118-13.872l13.5-28.032c8.4,4.047,17.813,8.24,29.614,13.2,4.94,2.055,10.212,4.1,14.863,5.908l7.345,2.794,7.51,2.685c14.3,5.1,29.153,9.718,44.328,13.775,4.061-15.649,8.654-30.778,13.706-45.142l2.608-7.379,2.646-7.028c1.973-5.129,3.728-9.663,5.638-14.274,4.571-10.927,8.487-19.692,12.343-27.639l27.992,13.584c-3.648,7.518-7.229,15.541-11.611,26.012-1.747,4.221-3.427,8.561-5.283,13.385l-2.549,6.771-2.437,6.906a545.527,545.527,0,0,0-16.535,57.255Z" fill="#fdde59"/>
    <path d="M146.084,957.617l-14.215-6.583a610.04,610.04,0,0,1-57.681-30.446l-7.242-4.359-7.8-4.919c-4.343-2.772-8.834-5.639-13.257-8.627-4.648-3.15-9.3-6.361-13.853-9.558-3.9-2.711-7.716-5.543-11.4-8.283l-2.395-1.778,18.522-25,2.434,1.806c3.648,2.713,7.094,5.274,10.656,7.748,4.478,3.145,8.988,6.256,13.471,9.3,4.071,2.749,8.39,5.507,12.567,8.174l7.5,4.722,6.84,4.114c12.85,7.724,26.51,15.164,40.759,22.2,7.133-14.733,14.489-28.439,22.3-41.578l4-6.719,4.323-6.915c2.567-4.046,5.22-8.229,8-12.365,2.819-4.172,5.689-8.336,8.544-12.393,2.455-3.531,5.077-7.039,7.613-10.431l1.276-1.707,24.94,18.6-1.3,1.734c-2.379,3.182-4.839,6.472-7.037,9.635-2.792,3.967-5.549,7.966-8.246,11.958-2.534,3.763-4.959,7.585-7.525,11.631l-4.12,6.593-3.745,6.289a538.625,538.625,0,0,0-27.453,52.9Z" fill="#fdde59"/>
    <path d="M110.859,841.084,97.1,831.067c-1.815-1.319-3.644-2.65-5.433-4l-7.181-5.5c-3.93-3.048-7.993-6.2-11.98-9.468-10.177-8.361-17.849-14.949-24.876-21.363-8.7-7.777-16.764-15.64-24.184-22.979-4.088-4.082-8.012-8.188-11.806-12.158l-5.884-6.232c-1.616-1.74-3.193-3.49-4.781-5.253L0,743.037l23.1-20.839.984,1.091c1.469,1.632,2.929,3.253,4.423,4.863l5.682,6.018c3.607,3.774,7.4,7.746,11.18,11.518,7.095,7.017,14.84,14.569,23.047,21.9l.124.113c6.628,6.052,13.936,12.326,23.695,20.344,3.65,2.992,7.545,6.013,11.312,8.935l.588.456.742-.971c2.909-3.8,5.917-7.735,9.053-11.611,7.894-9.737,14.121-17.072,20.192-23.788,7.313-8.26,15.062-16.227,21-22.248,3.577-3.593,7.063-6.934,10.927-10.623l5.482-5.166c1.615-1.494,3.269-2.978,4.909-4.448l.7-.631,20.774,23.164-.713.639c-1.5,1.342-3.009,2.7-4.484,4.061l-5.26,4.956c-3.636,3.471-6.972,6.668-10.237,9.948-5.979,6.064-13.062,13.353-19.861,21.035l-.111.124c-5.7,6.3-11.6,13.259-19.142,22.558-2.859,3.535-5.609,7.13-8.52,10.935l-5.276,6.985c-1.161,1.564-2.348,3.225-3.545,4.9Z" fill="#fdde59"/>
  </g>
</svg>
