<?xml version="1.0" encoding="UTF-8"?>
<svg xmlns="http://www.w3.org/2000/svg" width="437.271" height="91.827" viewBox="0 0 437.271 91.827">
  <g id="a" data-name="레이어 1"/>
  <g id="b" data-name="레이어 2">
    <g id="c" data-name="레이어 1">
      <g>
        <polygon points="74.701 91.827 28.787 45.914 74.701 0 86.361 11.66 52.108 45.914 86.361 80.167 74.701 91.827"/>
        <polygon points="45.914 91.827 0 45.914 45.914 0 57.574 11.66 23.32 45.914 57.574 80.167 45.914 91.827"/>
        <polygon points="276.209 0 322.123 45.914 276.209 91.827 264.549 80.167 298.803 45.914 264.549 11.66 276.209 0"/>
        <polygon points="304.997 0 350.911 45.914 304.997 91.827 293.336 80.167 327.59 45.914 293.336 11.66 304.997 0"/>
        <polygon points="333.784 0 379.698 45.914 333.784 91.827 322.123 80.167 356.377 45.914 322.123 11.66 333.784 0"/>
        <polygon points="362.571 0 408.485 45.914 362.571 91.827 350.911 80.167 385.165 45.914 350.911 11.66 362.571 0"/>
        <polygon points="391.357 0 437.271 45.914 391.357 91.827 379.697 80.167 413.951 45.914 379.697 11.66 391.357 0"/>
        <polygon points="74.701 91.827 63.041 80.167 97.294 45.914 63.041 11.66 74.701 0 120.615 45.914 74.701 91.827"/>
        <polygon points="103.489 91.827 91.829 80.167 126.083 45.914 91.829 11.66 103.489 0 149.402 45.914 103.489 91.827"/>
        <polygon points="132.276 91.827 120.615 80.167 154.869 45.914 120.615 11.66 132.276 0 178.189 45.914 132.276 91.827"/>
        <polygon points="161.063 91.827 149.402 80.167 183.656 45.914 149.402 11.66 161.063 0 206.976 45.914 161.063 91.827"/>
        <polygon points="189.85 91.827 178.189 80.167 212.443 45.914 178.189 11.66 189.85 0 235.762 45.914 189.85 91.827"/>
        <polygon points="218.636 91.827 206.976 80.167 241.23 45.914 206.976 11.66 218.636 0 264.549 45.914 218.636 91.827"/>
        <polygon points="247.423 91.827 235.762 80.167 270.016 45.914 235.762 11.66 247.423 0 293.336 45.914 247.423 91.827"/>
      </g>
    </g>
  </g>
</svg>