<?xml version="1.0" encoding="UTF-8"?>
<svg xmlns="http://www.w3.org/2000/svg" width="206.976" height="91.827" viewBox="0 0 206.976 91.827">
  <g id="a" data-name="레이어 1"/>
  <g id="b" data-name="레이어 2">
    <g id="c" data-name="레이어 1">
      <g>
        <polygon points="103.488 91.827 57.574 45.914 103.488 0 115.149 11.66 80.895 45.914 115.149 80.167 103.488 91.827"/>
        <polygon points="74.701 91.827 28.787 45.914 74.701 0 86.361 11.66 52.108 45.914 86.361 80.167 74.701 91.827"/>
        <polygon points="45.914 91.827 0 45.914 45.914 0 57.574 11.66 23.32 45.914 57.574 80.167 45.914 91.827"/>
        <polygon points="103.488 91.827 91.828 80.167 126.081 45.914 91.828 11.66 103.488 0 149.403 45.914 103.488 91.827"/>
        <polygon points="132.276 91.827 120.616 80.167 154.87 45.914 120.616 11.66 132.276 0 178.189 45.914 132.276 91.827"/>
        <polygon points="161.063 91.827 149.403 80.167 183.656 45.914 149.403 11.66 161.063 0 206.976 45.914 161.063 91.827"/>
      </g>
    </g>
  </g>
</svg>