<?xml version="1.0" encoding="utf-8"?>
<!-- Generator: Adobe Illustrator 26.5.0, SVG Export Plug-In . SVG Version: 6.00 Build 0)  -->
<svg version="1.1" id="레이어_1" xmlns="http://www.w3.org/2000/svg" xmlns:xlink="http://www.w3.org/1999/xlink" x="0px"
	 y="0px" viewBox="0 0 36 36" style="enable-background:new 0 0 36 36;" xml:space="preserve">
<style type="text/css">
	.st0{fill:#D6FBFE;}
	.st1{fill:#FEFD99;}
	.st2{fill:#FEFEFE;}
	.st3{fill:#807178;}
	.st4{fill:#FCCAF1;}
	.st5{fill:#FBDB80;}
	.st6{fill:#FEFDFD;}
	.st7{fill:#FEA8D6;}
	.st8{fill:#FEFCFD;}
	.st9{fill:#FEAAD6;}
	.st10{fill:#FECBF0;}
	.st11{fill:#FEABD7;}
	.st12{fill:#E2FD8E;}
	.st13{fill:#B5FE5A;}
	.st14{fill:#FEA7D5;}
	.st15{fill:#FECAEE;}
</style>
<g>
	<g>
		<path class="st0" d="M17.5,27.3c0,1.2,0,2.5,0,3.7H4c-2.2,0-4-1.8-4-4V9c0-2.2,1.8-4,4-4h13.5c0,1.2,0,2.5,0,3.7
			c-0.1,0.1-0.3,0-0.4,0c-0.6,0.1-1.1,0.2-1.7,0.3c-0.9,0.3-1.8,0.7-2.5,1.2c-0.6,0.4-1.2,0.9-1.7,1.5c-0.5,0.6-0.9,1.2-1.3,1.8
			c-0.5,0.8-0.8,1.7-0.9,2.6c-0.1,0.8-0.2,1.5-0.2,2.3c0,0.7,0.1,1.3,0.3,1.9c0.2,0.6,0.4,1.2,0.7,1.7c0.3,0.7,0.7,1.3,1.2,1.8
			c0.4,0.5,0.8,0.9,1.3,1.3c0.6,0.5,1.3,0.9,2,1.2c0.5,0.2,1,0.4,1.6,0.5C16.4,27.2,17,27.2,17.5,27.3z"/>
		<path class="st1" d="M36,9v18c0,2.2-1.8,4-4,4H18.6v-1.5c0-0.8,0-1.5,0-2.2c0.4,0,0.8,0,1.1-0.1c0.7-0.1,1.3-0.3,2-0.6
			c0.6-0.2,1.1-0.5,1.6-0.9c0.7-0.5,1.2-1,1.8-1.6c0.4-0.5,0.8-1,1.1-1.6c0.4-0.7,0.7-1.5,0.9-2.2c0.1-0.5,0.2-1,0.2-1.6
			c0-0.6,0-1.2,0-1.8c-0.1-0.7-0.3-1.4-0.5-2.1c-0.2-0.6-0.5-1.2-0.8-1.7c-0.4-0.6-0.8-1.1-1.3-1.6c-0.3-0.3-0.6-0.6-0.9-0.8
			c-0.4-0.3-0.9-0.6-1.3-0.9c-0.5-0.2-0.9-0.4-1.4-0.6C20.6,9.1,20.3,9,20,8.9c-0.5-0.1-1-0.1-1.4-0.2c0-1.2,0-2.5,0-3.7H32
			C34.2,5,36,6.8,36,9z"/>
		<path class="st2" d="M18.5,31c-0.3,0-0.7,0-1,0c0-8.7,0-17.3,0-26c0.3,0,0.7,0,1,0c0,1.7,0,3.5,0,5.2C18.5,17.2,18.5,24.1,18.5,31
			z"/>
		<path class="st3" d="M17.5,5c0,8.7,0,17.3,0,26c0,0,0,0,0,0c0-1.2,0-2.5,0-3.7c0-0.2,0-0.5,0-0.7c0-0.1,0-0.3,0-0.4
			c0-0.1,0-0.2,0-0.3c0-0.3,0-0.7,0-1c0-0.3,0-0.6,0-0.9c0-0.1,0-0.2,0-0.2c0-0.3,0-0.7,0-1c0-0.7,0-1.4,0-2c0-0.6,0-1.3,0-1.9
			c0-0.1,0-0.2,0-0.2c0,0,0,0,0-0.1c0-0.2,0-0.4,0-0.6c0-0.1,0-0.1-0.1-0.1c0.1-0.2,0-0.3,0.1-0.5c0-0.1,0-0.2,0-0.3
			c0-1.1,0-2.1,0-3.2c0-0.1,0-0.2,0-0.3c0-0.4,0-0.7,0-1.1c0-0.7,0-1.4,0-2.1c0-0.1,0-0.2,0-0.3c0-0.1,0-0.3,0-0.4
			c0-0.2,0-0.5,0-0.7C17.5,7.5,17.5,6.2,17.5,5C17.5,5,17.5,5,17.5,5z"/>
		<path class="st3" d="M18.5,31c0-6.9,0-13.8,0-20.8c0-1.7,0-3.5,0-5.2c0,0,0,0,0,0c0,1.2,0,2.5,0,3.7c0,0,0,0,0,0.1
			c0,0.2,0,0.4,0,0.6c0,0.1,0,0.3,0,0.4c0,0.1,0,0.2,0,0.3c0,0.6,0,1.2,0,1.8c0,1.1,0,2.3,0,3.4c0,0.6,0,1.3,0,1.9
			c0,0.1,0,0.2,0,0.2c0,0,0,0,0,0.1c0,0.2,0,0.4,0,0.6c0,0.2,0,0.4,0,0.6c0,0.1,0,0.2,0,0.3c0,1.1,0,2.1,0,3.2c0,0.1,0,0.2,0,0.3
			c0,0.3,0,0.7,0,1c0,0.1,0,0.2,0,0.2c0,0.3,0,0.6,0,0.9c0,0.3,0,0.6,0,1c0,0.1,0,0.2,0,0.4c0,0.1,0,0.3,0,0.4c0,0.2,0,0.4,0,0.6
			c0,0,0,0,0,0c0,0.7,0,1.5,0,2.2C18.6,30,18.6,30.5,18.5,31C18.6,31,18.6,31,18.5,31z"/>
		<path class="st4" d="M17.5,26.6c0,0.2,0,0.5,0,0.7c-0.5-0.1-1.1-0.1-1.6-0.3c-0.5-0.1-1.1-0.3-1.6-0.5c-0.7-0.3-1.4-0.7-2-1.2
			c-0.5-0.4-0.9-0.8-1.3-1.3c-0.5-0.6-0.9-1.2-1.2-1.8c-0.3-0.5-0.5-1.1-0.7-1.7c-0.2-0.6-0.3-1.3-0.3-1.9c-0.1-0.8,0-1.6,0.2-2.3
			c0.2-0.9,0.5-1.8,0.9-2.6c0.4-0.7,0.8-1.3,1.3-1.8c0.5-0.6,1.1-1.1,1.7-1.5c0.8-0.5,1.6-0.9,2.5-1.2c0.5-0.2,1.1-0.3,1.6-0.3
			c0.1,0,0.3,0,0.4,0c0,0.2,0,0.5,0,0.7c-0.3,0-0.5,0-0.8,0.1c-0.8,0.1-1.6,0.4-2.3,0.7c-1,0.5-2,1.2-2.7,2
			c-0.5,0.6-0.9,1.2-1.3,1.9c-0.4,0.8-0.7,1.6-0.8,2.5c-0.1,0.4-0.1,0.8-0.1,1.3c0,0.6,0,1.3,0.2,1.9c0.2,0.7,0.4,1.4,0.7,2
			c0.4,0.9,1,1.7,1.7,2.4c0.8,0.8,1.7,1.4,2.8,1.8C15.7,26.3,16.6,26.5,17.5,26.6z"/>
		<path class="st5" d="M18.6,8.8C18.6,8.8,18.6,8.7,18.6,8.8c0.5,0,1,0,1.4,0.1c0.3,0.1,0.6,0.2,0.9,0.3c0.5,0.2,0.9,0.4,1.4,0.6
			c0.5,0.2,0.9,0.5,1.3,0.9c0.3,0.3,0.7,0.5,0.9,0.8c0.5,0.5,0.9,1,1.3,1.6c0.3,0.5,0.6,1.1,0.8,1.7c0.3,0.7,0.4,1.4,0.5,2.1
			c0.1,0.6,0.1,1.2,0.1,1.8c0,0.5-0.1,1.1-0.2,1.6c-0.2,0.8-0.5,1.5-0.9,2.2c-0.3,0.6-0.7,1.1-1.1,1.6c-0.5,0.6-1.1,1.1-1.8,1.6
			c-0.5,0.3-1,0.6-1.6,0.9c-0.6,0.3-1.3,0.5-2,0.6c-0.4,0.1-0.8,0.1-1.1,0.1c0,0,0,0,0,0c0.1,0,0.3-0.1,0.4-0.1c0.7,0,1.4-0.2,2-0.4
			c0.5-0.2,1-0.4,1.5-0.7c0.6-0.3,1.1-0.7,1.6-1.2c0.5-0.5,1-1,1.4-1.6c0.6-0.9,1.1-1.8,1.3-2.8c0.1-0.5,0.2-1,0.3-1.5
			c0.1-0.8,0.1-1.5,0-2.3c-0.1-0.6-0.2-1.2-0.5-1.8c-0.3-0.9-0.7-1.6-1.2-2.4c-0.4-0.5-0.8-1-1.3-1.4c-0.3-0.3-0.6-0.5-1-0.8
			c-0.4-0.3-0.9-0.5-1.3-0.7c-0.2-0.1-0.5-0.2-0.8-0.3C20.8,9.2,20.4,9.1,20,9C19.6,8.9,19.1,8.8,18.6,8.8z"/>
		<path class="st6" d="M17.5,24.8c0,0.3,0,0.7,0,1c0,0-0.1,0-0.1,0c-0.6,0-1.2-0.2-1.7-0.4c-0.8-0.3-1.6-0.7-2.3-1.2
			c-0.4-0.3-0.8-0.7-1.2-1.1c-0.5-0.6-0.9-1.3-1.3-2c-0.3-0.8-0.5-1.6-0.6-2.5c0-0.6,0-1.3,0.1-1.9c0.3-1.5,1-2.8,2-4
			c0.5-0.5,1-0.9,1.5-1.2c0.8-0.5,1.6-0.8,2.5-1c0.4-0.1,0.7-0.1,1.1-0.2c0,0.7,0,1.4,0,2.1c-0.3,0.1-0.5,0.2-0.7,0.4
			c0,0,0,0.1,0,0.1c0.2,0.2,0.5,0.4,0.7,0.5c0,0.1,0,0.2,0,0.3c0,0,0,0,0,0c-0.6-0.6-1.2-1-2-1.3c-0.3-0.1-0.6-0.2-0.8,0
			c-0.3,0.2-0.5,0.4-0.7,0.6c-0.4,0.4-0.6,0.9-0.8,1.5c-0.2,0.6-0.5,1.3-0.3,2c0,0.1,0,0.2,0.2,0.1c0.3-0.2,0.7-0.3,1.1-0.4
			c0.5-0.1,0.9-0.1,1.4,0c0.3,0.1,0.7,0.1,1,0.3c0.4,0.1,0.7,0.3,1,0.6c0,0.1,0,0.2,0,0.3c-0.1-0.1-0.1-0.1-0.2-0.2
			c0,0-0.1-0.1-0.1,0c-0.1,0-0.1,0.1,0,0.1c0,0.1,0.1,0.1,0.1,0.2c0,0.1,0.1,0.2,0,0.3c-0.1-0.1-0.2-0.2-0.3-0.2
			c-0.2-0.2-0.4-0.5-0.6-0.7c0-0.1-0.1-0.1-0.2-0.2c-0.3-0.1-0.6-0.2-1-0.2c-0.2,0-0.5,0-0.7,0c-0.1,0-0.3,0-0.4,0.1
			c-0.6,0.1-1.1,0.4-1.6,0.7c-0.2,0.1-0.5,0.3-0.7,0.4c-0.2,0.2-0.4,0.4-0.4,0.7c0,0.4,0.1,0.8,0.3,1.1c0.4,0.7,0.9,1.4,1.5,1.9
			c0.3,0.2,0.5,0.4,0.9,0.5c0.1,0,0.1,0,0.1-0.1c0-0.4,0.1-0.9,0.3-1.3c0.1-0.2,0.2-0.4,0.3-0.7c0-0.1,0.1-0.1,0.1-0.2c0,0,0,0,0,0
			c0,0,0.1-0.1,0.1-0.1c0.2-0.3,0.4-0.5,0.7-0.7c0.4-0.4,0.9-0.7,1.4-0.7c0,0.2,0,0.3-0.2,0.3c0,0,0,0,0,0c-0.1,0-0.1,0-0.1,0.1
			c0,0.1,0.1,0.1,0.1,0.1c0.1,0,0.2,0,0.2,0c0.1,0,0.2,0,0.2,0.2c-0.4,0.1-0.9,0.2-1.3,0.2c-0.1,0-0.1,0-0.2,0.1
			c-0.3,0.3-0.7,0.7-0.9,1.1c-0.4,0.7-0.5,1.6-0.5,2.4c0,0-0.1,0-0.1,0.1c-0.2,0.1-0.3,0.2-0.4,0.4c-0.1,0.2-0.1,0.5,0.1,0.6
			c0.2,0.2,0.4,0.3,0.6,0.5c0.1,0,0.1,0.1,0.2,0.1c0,0,0,0.1,0.1,0.1c0.2,0.1,0.3,0.2,0.5,0.3c0.4,0.3,0.9,0.5,1.4,0.5
			C17,24.9,17.2,24.8,17.5,24.8z M16.5,18.5C16.6,18.5,16.6,18.5,16.5,18.5c0.1-0.1,0.1-0.2,0-0.2C16.5,18.3,16.5,18.4,16.5,18.5
			C16.5,18.5,16.5,18.5,16.5,18.5z M16.9,16.9C16.9,16.9,16.9,16.9,16.9,16.9c-0.1,0.1,0,0.2,0,0.2C17,17,17,17,16.9,16.9
			C17,16.9,17,16.9,16.9,16.9z"/>
		<path class="st7" d="M17.5,16.9c-0.3-0.2-0.6-0.4-1-0.6c-0.3-0.1-0.7-0.2-1-0.3c-0.5-0.1-1-0.1-1.4,0c-0.4,0.1-0.7,0.2-1.1,0.4
			c-0.1,0.1-0.1,0-0.2-0.1c-0.1-0.7,0.1-1.4,0.3-2c0.2-0.5,0.5-1,0.8-1.5c0.2-0.2,0.4-0.4,0.7-0.6c0.3-0.2,0.6-0.1,0.8,0
			c0.7,0.3,1.4,0.7,2,1.3c0,0,0,0,0,0C17.5,14.7,17.5,15.8,17.5,16.9z"/>
		<path class="st8" d="M17.5,26.6c-0.9,0-1.8-0.3-2.7-0.6c-1-0.4-2-1-2.8-1.8c-0.7-0.7-1.3-1.5-1.7-2.4c-0.3-0.6-0.5-1.3-0.7-2
			c-0.1-0.6-0.2-1.3-0.2-1.9c0-0.4,0.1-0.8,0.1-1.3c0.1-0.9,0.4-1.7,0.8-2.5c0.3-0.7,0.8-1.3,1.3-1.9c0.8-0.9,1.7-1.5,2.7-2
			c0.7-0.3,1.5-0.6,2.3-0.7c0.3,0,0.5-0.1,0.8-0.1c0,0.1,0,0.3,0,0.4c-0.1,0-0.3,0-0.4,0c-0.6,0.1-1.1,0.2-1.7,0.4
			c-0.9,0.3-1.7,0.8-2.5,1.4c-0.9,0.7-1.6,1.6-2.1,2.6c-0.6,1.1-0.8,2.2-0.9,3.4c0,0.6,0,1.3,0.1,1.9c0.2,0.9,0.5,1.8,1,2.6
			c0.6,1,1.4,1.9,2.4,2.6c0.7,0.5,1.5,0.9,2.4,1.1c0.6,0.2,1.1,0.3,1.7,0.3C17.5,26.3,17.5,26.4,17.5,26.6z"/>
		<path class="st9" d="M14.4,22.3c0-0.8,0.1-1.6,0.5-2.4c0.2-0.4,0.6-0.8,0.9-1.1c0.1-0.1,0.1-0.1,0.2-0.1c0.4,0,0.9-0.1,1.3-0.2
			c0.1,0,0.1,0,0.2,0c0,0.1,0,0.2,0,0.2c0,0-0.1,0.1-0.1,0.1c-0.2,0.6-0.1,1.2,0.1,1.8c0,0.7,0,1.4,0,2c-0.1-0.1-0.1-0.1-0.2-0.2
			c-0.4-0.5-1-0.6-1.6-0.5C15.2,22.1,14.8,22.2,14.4,22.3z"/>
		<path class="st10" d="M17.5,26.1c-0.6,0-1.2-0.1-1.7-0.3c-0.9-0.2-1.7-0.6-2.4-1.1c-1-0.7-1.8-1.5-2.4-2.6c-0.5-0.8-0.8-1.7-1-2.6
			c-0.1-0.6-0.2-1.2-0.1-1.9c0.1-1.2,0.4-2.3,0.9-3.4c0.5-1,1.2-1.9,2.1-2.6c0.8-0.6,1.6-1.1,2.5-1.4c0.5-0.2,1.1-0.3,1.7-0.4
			c0.1,0,0.3,0,0.4,0c0,0.1,0,0.2,0,0.3c-0.4,0.1-0.7,0.1-1.1,0.2c-0.9,0.2-1.7,0.5-2.5,1c-0.6,0.3-1.1,0.8-1.5,1.2
			c-1.1,1.1-1.7,2.4-2,4c-0.1,0.6-0.2,1.3-0.1,1.9c0.1,0.9,0.3,1.7,0.6,2.5c0.3,0.7,0.7,1.4,1.3,2c0.4,0.4,0.8,0.8,1.2,1.1
			c0.7,0.5,1.5,1,2.3,1.2c0.6,0.2,1.1,0.3,1.7,0.4c0,0,0.1,0,0.1,0C17.5,25.9,17.5,26,17.5,26.1z"/>
		<path class="st11" d="M14.9,19.5c0,0.1-0.1,0.1-0.1,0.2c-0.2,0-0.2-0.2-0.3-0.3c-0.1-0.4-0.2-0.8-0.2-1.2c0-0.4,0.1-0.9,0.2-1.3
			c0-0.1,0.1-0.3,0.2-0.4c0,0,0.1-0.1,0.1-0.1c0-0.1-0.1,0-0.2,0c0.2-0.1,0.5,0,0.7,0c0.3,0,0.7,0.1,1,0.2c0.1,0,0.2,0.1,0.2,0.2
			c0.2,0.3,0.4,0.5,0.6,0.7c0.1,0.1,0.2,0.1,0.3,0.2c0,0.1,0.1,0.1,0.2,0.1c0,0,0.1,0.1,0.1,0.1c-0.1,0-0.1,0-0.2,0
			c-0.1-0.1-0.1,0-0.2,0c-0.6,0.1-1,0.4-1.4,0.7c-0.2,0.2-0.5,0.4-0.7,0.7C15,19.4,14.9,19.4,14.9,19.5
			C14.9,19.5,14.8,19.4,14.9,19.5C14.8,19.5,14.8,19.5,14.9,19.5z"/>
		<path class="st12" d="M14.4,22.3c0.4-0.1,0.9-0.3,1.3-0.3c0.6-0.1,1.2-0.1,1.6,0.5c0.1,0.1,0.1,0.1,0.2,0.2c0,0.3,0,0.7,0,1
			c0,0,0,0-0.1,0c-0.2-0.1-0.4-0.1-0.7-0.1c-0.4,0-0.8,0-1.2,0c-0.3,0-0.6,0.1-0.9,0.2c-0.1,0-0.1,0.1-0.1,0.1
			c-0.2-0.2-0.4-0.3-0.6-0.5c-0.1-0.1-0.2-0.4-0.1-0.6c0.1-0.2,0.2-0.3,0.4-0.4C14.3,22.4,14.3,22.4,14.4,22.3z"/>
		<path class="st12" d="M17.5,24.8c-0.3,0-0.5,0.1-0.8,0.1c-0.5,0-1-0.2-1.4-0.5c-0.2-0.1-0.3-0.2-0.5-0.3c0,0-0.1,0-0.1-0.1
			c0.3-0.1,0.5-0.1,0.8-0.2c0.3,0,0.6,0,1,0c0.4,0,0.7,0,1.1,0.1C17.5,24.2,17.5,24.5,17.5,24.8z"/>
		<path class="st13" d="M17.5,23.9c-0.3-0.1-0.7-0.1-1.1-0.1c-0.3,0-0.6,0-1,0c-0.3,0-0.6,0.1-0.8,0.2c-0.1,0-0.1-0.1-0.2-0.1
			c0-0.1,0-0.1,0.1-0.1c0.3-0.1,0.6-0.2,0.9-0.2c0.4,0,0.8,0,1.2,0c0.2,0,0.5,0,0.7,0.1c0,0,0.1,0,0.1,0
			C17.5,23.7,17.5,23.8,17.5,23.9z"/>
		<path class="st14" d="M17.5,13.4c-0.2-0.2-0.5-0.4-0.7-0.5c-0.1,0,0-0.1,0-0.1c0.2-0.2,0.4-0.3,0.7-0.4
			C17.5,12.7,17.5,13,17.5,13.4z"/>
		<path class="st8" d="M17.5,20.6c-0.2-0.6-0.2-1.2-0.1-1.8c0-0.1,0-0.1,0.1-0.1C17.5,19.4,17.5,20,17.5,20.6z"/>
		<path class="st5" d="M17.1,17.9c0-0.1,0.1-0.1,0.2,0c0.1,0.2,0,0.4,0.2,0.6c0,0,0,0,0,0.1c-0.1,0-0.1,0.1-0.2,0
			c0-0.1-0.1-0.2-0.2-0.2c-0.1,0-0.2,0-0.2,0c-0.1,0-0.1,0-0.1-0.1c0-0.1,0-0.1,0.1-0.1c0,0,0,0,0,0C17.1,18.1,17.1,18.1,17.1,17.9z
			"/>
		<path class="st5" d="M17.4,17.7c-0.1,0-0.2,0-0.2-0.1c0.1-0.1,0.1-0.2,0-0.3c0-0.1-0.1-0.1-0.1-0.2c0,0,0-0.1,0-0.1
			c0,0,0.1,0,0.1,0c0.1,0.1,0.1,0.1,0.2,0.2C17.5,17.4,17.6,17.6,17.4,17.7z"/>
		<path class="st8" d="M17.5,18.4c-0.2-0.1-0.1-0.4-0.2-0.6c0.1,0,0.1,0,0.2,0C17.5,18,17.5,18.2,17.5,18.4z"/>
		<path class="st6" d="M18.6,12c0-0.6,0-1.2,0-1.8c0.3,0.1,0.6,0.1,0.9,0.1c0.7,0.1,1.4,0.4,2,0.7c0.5,0.3,1,0.6,1.5,1
			c0.5,0.4,0.9,0.9,1.3,1.4c0.4,0.6,0.8,1.2,1,1.9c0.3,0.8,0.4,1.6,0.5,2.4c0,0.3,0,0.6,0,1c0,0.4-0.1,0.8-0.2,1.2
			c-0.2,0.7-0.5,1.4-0.8,2.1c-0.4,0.8-1,1.4-1.7,2c-0.6,0.5-1.3,0.9-2,1.2c-0.8,0.3-1.6,0.6-2.5,0.6c0-0.3,0-0.6,0-1
			c0,0,0.1,0,0.1,0c0.3,0.1,0.7,0.1,1,0.1c0.4-0.1,0.8-0.3,1.2-0.5c0.2-0.1,0.4-0.2,0.5-0.4c0.1,0,0.2-0.1,0.2-0.1
			c0.2-0.1,0.3-0.2,0.5-0.3c0.3-0.2,0.3-0.4,0.2-0.7c-0.1-0.2-0.2-0.3-0.4-0.4c0-0.1-0.1-0.2,0-0.2c0.1-0.1,0.2,0,0.2,0
			c0.1,0.1,0.2,0.2,0.3,0.3c0.2-0.3,0.3-0.6,0.4-0.9c0.2-0.6,0.5-1.3,0.3-2c0-0.2,0-0.2-0.2-0.1c-0.3,0.2-0.7,0.3-1.1,0.4
			c-0.5,0.1-0.9,0.1-1.4,0c-0.3,0-0.6-0.1-1-0.2c-0.4-0.1-0.7-0.3-1-0.6c0-0.1,0-0.2,0-0.3c0.1,0.1,0.1,0.1,0.2,0.2
			c0,0,0.1,0.1,0.2,0c0.1,0,0-0.1,0-0.2c0-0.1-0.1-0.1-0.1-0.2c-0.1-0.1-0.1-0.2,0-0.3c0.1,0.1,0.2,0.2,0.3,0.2
			c0.2,0.2,0.4,0.5,0.6,0.7c0,0.1,0.1,0.1,0.2,0.2c0.3,0.1,0.6,0.2,1,0.2c0.2,0,0.5,0,0.7,0c0.1,0,0.3,0,0.4-0.1
			c0.6-0.1,1.1-0.4,1.6-0.7c0.2-0.1,0.5-0.3,0.7-0.4c0.2-0.2,0.4-0.3,0.4-0.6c0-0.4-0.1-0.8-0.3-1.2c-0.4-0.7-0.9-1.4-1.5-1.9
			c-0.2-0.2-0.5-0.4-0.9-0.5c-0.1,0-0.2,0-0.2,0.1c0,0.2,0,0.5-0.1,0.7c-0.1,0.5-0.3,0.9-0.5,1.3c0,0-0.1,0.1-0.1,0.1
			c0,0-0.1,0.1-0.1,0.1c0,0-0.1,0-0.1,0.1c-0.2,0.3-0.4,0.5-0.7,0.7C20,17.7,19.5,18,19,18.1c0-0.2,0-0.3,0.2-0.3c0,0,0,0,0,0
			c0.1,0,0.1,0,0.1-0.1c0-0.1-0.1-0.1-0.1-0.1c-0.1,0-0.2,0-0.2,0c-0.1,0-0.2,0-0.2-0.2c0.4-0.1,0.9-0.2,1.3-0.2
			c0.1,0,0.2,0,0.2-0.1c0.1-0.1,0.3-0.3,0.4-0.4c0.3-0.4,0.6-0.8,0.7-1.2c0.3-0.9,0.3-1.8,0.2-2.7c0-0.3-0.2-0.6-0.5-0.7
			c-0.4-0.2-0.9-0.3-1.3-0.3C19.4,11.9,19,11.9,18.6,12z M19.2,19.1C19.2,19,19.2,19,19.2,19.1c-0.1-0.1-0.2-0.1-0.2,0
			C19.1,19.1,19.1,19.1,19.2,19.1C19.2,19.2,19.2,19.1,19.2,19.1z M19.6,17.6C19.6,17.5,19.6,17.5,19.6,17.6c-0.1-0.1-0.2,0-0.2,0
			C19.5,17.6,19.5,17.7,19.6,17.6C19.6,17.7,19.6,17.6,19.6,17.6z"/>
		<path class="st15" d="M18.6,8.8c0.5,0,1,0.1,1.5,0.2c0.4,0.1,0.7,0.2,1.1,0.3c0.3,0.1,0.5,0.2,0.8,0.3c0.5,0.2,0.9,0.5,1.3,0.7
			c0.3,0.2,0.7,0.5,1,0.8c0.5,0.4,0.9,0.9,1.3,1.4c0.5,0.7,0.9,1.5,1.2,2.4c0.2,0.6,0.4,1.2,0.5,1.8c0.1,0.7,0.1,1.5,0,2.3
			c-0.1,0.5-0.2,1-0.3,1.5c-0.3,1-0.7,2-1.3,2.8c-0.4,0.6-0.9,1.1-1.4,1.6c-0.5,0.4-1,0.8-1.6,1.2c-0.5,0.3-1,0.5-1.5,0.7
			c-0.7,0.2-1.3,0.4-2,0.4c-0.1,0-0.3,0.1-0.4,0.1c0-0.2,0-0.4,0-0.6c0.1,0,0.2,0,0.4,0c0.6,0,1.1-0.2,1.6-0.3
			c0.9-0.3,1.8-0.7,2.6-1.3c0.4-0.3,0.8-0.6,1.1-1c0.4-0.5,0.8-1,1.2-1.5c0.5-0.8,0.8-1.6,1-2.4c0.2-0.8,0.3-1.7,0.2-2.5
			c0-0.5-0.1-1-0.2-1.5c-0.3-1.1-0.7-2.1-1.4-3c-0.6-0.8-1.3-1.5-2.1-2c-0.8-0.5-1.6-0.9-2.4-1.1c-0.6-0.2-1.2-0.3-1.8-0.3
			C18.6,9.2,18.6,9,18.6,8.8z"/>
		<path class="st7" d="M18.6,12c0.4,0,0.8-0.1,1.2-0.1c0.4,0,0.9,0.1,1.3,0.3c0.3,0.1,0.5,0.4,0.5,0.7c0.1,0.9,0.1,1.8-0.2,2.7
			c-0.2,0.5-0.4,0.9-0.7,1.2c-0.1,0.1-0.3,0.3-0.4,0.4c-0.1,0.1-0.1,0.1-0.2,0.1c-0.5,0-0.9,0.1-1.3,0.2c-0.1,0-0.2,0-0.2,0
			c0-0.1,0-0.2,0-0.2c0,0,0.1-0.1,0.1-0.1c0.2-0.6,0.1-1.2-0.1-1.8C18.6,14.2,18.6,13.1,18.6,12z"/>
		<path class="st8" d="M18.6,9.4c0.6,0,1.2,0.1,1.8,0.3c0.9,0.3,1.7,0.6,2.4,1.1c0.8,0.6,1.5,1.2,2.1,2c0.7,0.9,1.1,1.9,1.4,3
			c0.1,0.5,0.2,1,0.2,1.5c0.1,0.9,0,1.7-0.2,2.5c-0.2,0.9-0.5,1.7-1,2.4c-0.3,0.5-0.7,1.1-1.2,1.5c-0.3,0.3-0.7,0.7-1.1,1
			c-0.8,0.6-1.6,1-2.6,1.3c-0.5,0.2-1.1,0.3-1.6,0.3c-0.1,0-0.2,0-0.4,0c0-0.1,0-0.3,0-0.4c0.3,0,0.7-0.1,1-0.1
			c1.2-0.2,2.4-0.7,3.4-1.5c0.6-0.5,1.1-1,1.6-1.6c0.4-0.5,0.7-1.1,1-1.6c0.4-1,0.7-2,0.7-3.1c0-0.2,0-0.5,0-0.7
			c0-0.4-0.1-0.8-0.2-1.2c-0.2-1.1-0.7-2.1-1.4-3.1c-0.5-0.7-1.1-1.3-1.8-1.8c-0.8-0.6-1.6-1-2.5-1.2c-0.6-0.2-1.2-0.3-1.8-0.3
			C18.6,9.7,18.6,9.6,18.6,9.4z"/>
		<path class="st7" d="M18.6,19.1c0.3,0.2,0.7,0.4,1,0.6c0.3,0.1,0.6,0.2,1,0.2c0.5,0.1,0.9,0.1,1.4,0c0.4-0.1,0.7-0.2,1.1-0.4
			c0.2-0.1,0.2-0.1,0.2,0.1c0.1,0.7-0.1,1.3-0.3,2c-0.1,0.3-0.2,0.6-0.4,0.9c-0.1-0.1-0.2-0.2-0.3-0.3c-0.1-0.1-0.1-0.1-0.2,0
			c-0.1,0.1-0.1,0.1,0,0.2c-0.1,0-0.1,0-0.2-0.1c-0.4-0.2-0.9-0.3-1.3-0.3c-0.3-0.1-0.6-0.1-1,0c-0.3,0.1-0.5,0.3-0.7,0.4
			c-0.1,0-0.1-0.1-0.2-0.1C18.6,21.3,18.6,20.2,18.6,19.1z"/>
		<path class="st10" d="M18.6,9.9c0.6,0,1.2,0.1,1.8,0.3c0.9,0.3,1.7,0.7,2.5,1.2c0.7,0.5,1.3,1.1,1.8,1.8c0.7,0.9,1.1,1.9,1.4,3.1
			c0.1,0.4,0.1,0.8,0.2,1.2c0,0.2,0,0.5,0,0.7c0,1.1-0.3,2.1-0.7,3.1c-0.3,0.6-0.6,1.1-1,1.6c-0.5,0.6-1,1.1-1.6,1.6
			c-1,0.8-2.1,1.2-3.4,1.5c-0.3,0.1-0.7,0.1-1,0.1c0-0.1,0-0.2,0-0.4c0.9,0,1.7-0.3,2.5-0.6c0.7-0.3,1.4-0.7,2-1.2
			c0.7-0.6,1.2-1.2,1.7-2c0.4-0.6,0.7-1.3,0.8-2.1c0.1-0.4,0.2-0.8,0.2-1.2c0-0.3,0-0.6,0-1c0-0.8-0.2-1.6-0.5-2.4
			c-0.3-0.7-0.6-1.3-1-1.9c-0.4-0.5-0.8-1-1.3-1.4c-0.5-0.4-1-0.7-1.5-1c-0.6-0.3-1.3-0.5-2-0.7c-0.3-0.1-0.6-0.1-0.9-0.1
			C18.6,10.1,18.6,10,18.6,9.9z"/>
		<path class="st12" d="M18.8,22.5c0.2-0.2,0.4-0.3,0.7-0.4c0.3-0.1,0.6-0.1,1,0c0.5,0.1,0.9,0.2,1.3,0.3c0.1,0,0.1,0,0.2,0.1
			c0.1,0.1,0.3,0.2,0.4,0.4c0.1,0.3,0.1,0.5-0.2,0.7c-0.2,0.1-0.3,0.3-0.5,0.3c0,0,0-0.1,0-0.1c-0.2-0.1-0.4-0.2-0.6-0.2
			c-0.6-0.1-1.3-0.1-1.9,0c-0.2,0-0.4,0-0.5,0.1c0-0.3,0-0.7,0-1C18.7,22.6,18.7,22.6,18.8,22.5z"/>
		<path class="st12" d="M21.4,24c-0.1,0.2-0.4,0.2-0.5,0.4c-0.3,0.3-0.7,0.5-1.2,0.5c-0.3,0.1-0.7,0-1-0.1c0,0-0.1,0-0.1,0
			c0-0.3,0-0.6,0-0.9c0.1,0,0.1,0,0.2,0c0.4-0.1,0.9-0.1,1.3-0.1c0.3,0,0.6,0,0.8,0.1c0.1,0,0.3,0,0.4,0.1
			C21.3,23.9,21.4,24,21.4,24z"/>
		<path class="st13" d="M21.4,24c-0.1,0-0.1,0-0.2,0c-0.1-0.1-0.3-0.1-0.4-0.1c-0.3,0-0.6-0.1-0.8-0.1c-0.4,0-0.9,0-1.3,0.1
			c0,0-0.1,0-0.2,0c0-0.1,0-0.2,0-0.2c0.2-0.1,0.4-0.1,0.5-0.1c0.6-0.1,1.3-0.1,1.9,0c0.2,0,0.4,0.1,0.6,0.2c0,0,0,0.1,0,0.1
			C21.6,23.9,21.5,23.9,21.4,24z"/>
		<path class="st5" d="M18.6,17.5c0.1,0,0.1,0,0.2,0c0,0.1,0.1,0.2,0.2,0.2c0.1,0,0.2,0,0.2,0c0.1,0,0.1,0,0.1,0.1
			c0,0.1,0,0.1-0.1,0.1c0,0,0,0,0,0c-0.2,0-0.2,0-0.2,0.3c0,0.1-0.1,0.1-0.2,0C18.7,18,18.8,17.7,18.6,17.5
			C18.6,17.6,18.6,17.6,18.6,17.5z"/>
		<path class="st8" d="M18.6,15.4c0.2,0.6,0.2,1.2,0.1,1.8c0,0.1,0,0.1-0.1,0.1C18.6,16.6,18.6,16,18.6,15.4z"/>
		<path class="st5" d="M18.8,18.4c-0.1,0.1-0.1,0.2,0,0.3c0,0.1,0.1,0.1,0.1,0.2c0,0.1,0.1,0.1,0,0.2c-0.1,0.1-0.1,0-0.2,0
			c-0.1-0.1-0.1-0.1-0.2-0.2c0-0.2,0-0.4,0-0.6c0,0,0,0,0,0C18.7,18.3,18.9,18.2,18.8,18.4z"/>
		<path class="st8" d="M18.6,18.2C18.6,18.2,18.6,18.2,18.6,18.2c0-0.2,0-0.4,0-0.6c0.2,0.1,0.1,0.4,0.2,0.6
			C18.7,18.2,18.7,18.2,18.6,18.2z"/>
		<path class="st8" d="M18.8,22.5c0,0.1,0,0.2-0.2,0.2c0-0.1,0-0.2,0-0.3C18.6,22.4,18.7,22.4,18.8,22.5z"/>
		<path class="st14" d="M14.5,16.2c0.1,0,0.1,0,0.2,0c0,0.1,0,0.1-0.1,0.1c-0.1,0.1-0.1,0.2-0.2,0.4c-0.1,0.4-0.2,0.8-0.2,1.3
			c0,0.4,0.1,0.8,0.2,1.2c0,0.2,0.1,0.3,0.3,0.3c-0.1,0.2-0.2,0.4-0.3,0.7c-0.1,0.4-0.2,0.8-0.3,1.3c0,0.1,0,0.1-0.1,0.1
			c-0.3-0.1-0.6-0.3-0.9-0.5c-0.6-0.6-1.1-1.2-1.5-1.9c-0.2-0.4-0.3-0.7-0.3-1.1c0-0.3,0.2-0.5,0.4-0.7c0.2-0.2,0.4-0.3,0.7-0.4
			c0.5-0.3,1-0.6,1.6-0.7C14.2,16.3,14.3,16.2,14.5,16.2z"/>
		<path class="st5" d="M16.5,18.5C16.5,18.5,16.5,18.5,16.5,18.5c-0.1-0.1,0-0.2,0-0.2C16.6,18.3,16.6,18.4,16.5,18.5
			C16.6,18.5,16.6,18.5,16.5,18.5z"/>
		<path class="st5" d="M16.9,16.9C17,16.9,17,16.9,16.9,16.9C17,17,17,17,16.9,17C16.9,17,16.9,17,16.9,16.9
			C16.9,16.9,16.9,16.9,16.9,16.9z"/>
		<path class="st14" d="M14.9,19.5C14.8,19.5,14.8,19.5,14.9,19.5C14.8,19.4,14.9,19.5,14.9,19.5C14.9,19.5,14.9,19.5,14.9,19.5z"/>
		<path class="st14" d="M21.3,16.4c0.2-0.4,0.4-0.8,0.5-1.3c0-0.2,0.1-0.5,0.1-0.7c0-0.2,0-0.2,0.2-0.1c0.3,0.1,0.6,0.3,0.9,0.5
			c0.6,0.6,1.1,1.2,1.5,1.9c0.2,0.4,0.3,0.8,0.3,1.2c0,0.3-0.2,0.4-0.4,0.6c-0.2,0.2-0.4,0.3-0.7,0.4c-0.5,0.3-1,0.6-1.6,0.7
			c-0.1,0-0.3,0.1-0.4,0.1c0,0,0,0-0.1,0c0,0-0.1,0-0.1,0c0-0.1,0-0.1,0.1-0.1c0.1,0,0.1-0.1,0.1-0.1c0-0.2,0.1-0.3,0.1-0.5
			c0.2-0.6,0.2-1.2,0.1-1.8c0-0.1-0.1-0.2-0.1-0.4C21.6,16.6,21.6,16.4,21.3,16.4z"/>
		<path class="st11" d="M21.3,16.4c0.3,0,0.3,0.3,0.4,0.4c0,0.1,0.1,0.2,0.1,0.4c0.1,0.6,0.2,1.2-0.1,1.8c-0.1,0.2-0.1,0.3-0.1,0.5
			c0,0.1,0,0.1-0.1,0.1c0,0-0.1,0.1-0.1,0.1c0,0,0.1,0,0.1,0c0,0,0,0,0.1,0c-0.2,0.1-0.5,0-0.7,0c-0.3,0-0.7-0.1-1-0.2
			c-0.1,0-0.2-0.1-0.2-0.2c-0.2-0.3-0.4-0.5-0.6-0.7c-0.1-0.1-0.2-0.1-0.3-0.2c0-0.2-0.2-0.1-0.2-0.2c0.1,0,0.1,0,0.2,0
			c0.1,0.1,0.1,0.1,0.2,0c0.6-0.1,1-0.4,1.4-0.8c0.2-0.2,0.5-0.5,0.7-0.7c0,0,0.1-0.1,0.1-0.1c0,0,0.1,0,0.1,0
			C21.3,16.5,21.2,16.5,21.3,16.4C21.2,16.4,21.2,16.4,21.3,16.4z"/>
		<path class="st5" d="M19.2,19.1C19.2,19.1,19.2,19.2,19.2,19.1c-0.1,0.1-0.2,0-0.2,0C19.1,19,19.1,19,19.2,19.1
			C19.2,19,19.2,19,19.2,19.1z"/>
		<path class="st5" d="M19.6,17.6C19.6,17.6,19.6,17.7,19.6,17.6c-0.1,0.1-0.2,0.1-0.2,0C19.5,17.5,19.5,17.5,19.6,17.6
			C19.6,17.5,19.6,17.5,19.6,17.6z"/>
		<path class="st14" d="M21.2,16.5c0,0,0.1,0.1,0,0.1c0,0-0.1,0-0.1,0C21.2,16.5,21.2,16.5,21.2,16.5z"/>
	</g>
</g>
</svg>
