<svg xmlns="http://www.w3.org/2000/svg" width="3840" height="2160" viewBox="0 0 3840 2160">
  <rect width="3840" height="2160" fill="#5e95b4"/>
  <g>
    <path d="M3551.9,2368.536c-52.926-1.714-67.87-56.449-109.755-80.912H3408.16c-14.562-14.565-28.269-27.892-41.5-41.6-20.656-21.418-30.27-43.121-43.408-86.718-5.805-19.515-13.516-39.315-24.843-55.974-5.332-7.805-21.135-8.375-31.7-11.993V1965.974c-16.277-14.565-37.218-33.222-59.208-52.831,14.469-58.542-18.278-102.33-39.124-141.357H1917.857L1697.966,1551.8h-174.58l-17.7-17.7-25.224,7.425-42.931-35.126-110.327,1.428-187.335,2.191-91.479-37.6-50.07,3.522-60.635-17.421-87.956,3.523-33.031-35.03-97.192.665V1389.4l-40.456-28.747-28.652-144.786-13.9-74.438,44.742-67.776V843.771L1036.01,489H1194.5l64.444-64.349c-7.425-6.855-14.755-13.8-22.085-20.657-31.318,4.378-22.749-18.754-27.318-35.982-5.9-22.846-26.749-41.6-18.088-68.443-18.276-20.37-46.166-35.315-38.172-69.964-17.894-18.753-15.04-45.026-24.178-66.063-5.615-12.755-9.615-28.843-19.038-39.314-7.14-7.9-21.132-9.328-31.7-14.278-13.325-6.188-26.27-13.137-39.217-19.61V46.74c35.887-6,29.889-47.691,53.212-68.537,4.188-3.808,4-20.466-.285-24.274-13.329-11.994-14.946-25.606-15.327-41.883-.572-25.512-21.513-71.964-37.886-88.813-15.515-15.9-31.318-31.508-48.26-48.357-7.711,1.428-16.375,3.046-24.179,4.474-6.284,49.594-6.57,49.213-44.265,72.82-12.849,8.092-23.321,19.8-35.887,28.462-11.8,8-34.076,12.376-35.7,21.323-3.521,19.324-8.471,28.652-28.557,26.083C807.552-50.544,776.9-55.495,763-36.266c-9.71-6.663-19.419-13.422-32.364-22.275C695.134-23.13,662.008,10,629.07,42.932c-15.61-3.9-30.175,2.475-45.88-7.71-27.131-17.8-29.8-17.515-57.115-1.9-11.9,6.759-22.275,8.472-34.46,9.044-12.28.666-29.984-2.475-35.7,4.283C435.073,71.3,408.9,57.973,379.194,62.256c-8.566,10.852-20.083,25.7-28.936,37.03-28.366-14.945-51.88-27.32-73.3-38.647-27.7,6-32.459,43.12-64.537,38.647-6.189-5.521-13.138-11.709-20.372-18.182-44.549-.286-44.74-.477-86.244,18.466-10.374,4.76-20.751,17.326-29.412,15.8-10-1.714-17.23-13.8-30.654-17.325-13.516-3.617-24.462-17.8-35.6-28.367C-4.8,55.5-16.893,59.591-29.268,73.013-50.876,96.145-61.251,71.3-79.91,58.639c-10.565,14.279-21.8,29.509-30.937,41.884-20.655-3.237-37.028,4.378-49.689-10.566-14.85-17.419-33.6-9.425-51.021-5.9-11.518,11.518-22.752,22.75-33.984,33.983-17.99-.952-35.6,4-52.545-11.518-9.424-8.663-28.748-6.473-53.4-10.947-5.71-7.9-16.751-23.226-23.607-32.65-33.412-1.9-58.351-3.237-83.292-4.569-14.943-24.179-39.122-14.564-59.968-15.9-15.8-.951-32.081,1.714-47.5-.951-7.994-1.333-14.657-10.471-23.7-17.516H-745.482C-752.907,15.137-761.19.382-773.658-8.28c-14.279-9.805-31.414-18.086-46.929-23.8-19.514-7.33-44.646,1.9-65.778-2.857-19.7-4.473-35.029-23.321-59.017-18.371-11.709,2.379-24.465,2.379-34.079-9.329-14.658-17.7-17.8,5.521-32.65,9.71h-69.68c-20.561-28.462-50.926-16.183-77.77-19.515-4.951-.666-8.378-9.709-13.707-12.564-10.282-5.426-22.847-7.426-31.985-14.184-12.28-9.043-22.181-21.323-28.843-27.986-25.225-2.094-47.786,2.475-61.4-6.473-25.034-16.468-59.113-21.608-71.488-52.545h-40.361c-29.319-25.131-29.319-25.131-52.641-4.379-32.84,29.033-31.7,26.273-79.008,7.71-21.892-8.662-43.12-19.038-64.064-29.033-59.113-28.176-58.255-30.366-101.281-31.127-15.992-.286-28.558-3.142-42.455-13.708-9.614-7.424-33.888-8.948-42.836-2-37.507,29.223-77.3,12.374-116.322,11.8-13.043-20.751-21.228-6.187-34.365,1.618-9.234,5.617-21.8,5.426-32.269,14.088-15.327,12.566-36.173,13.518-50.356-.761-13.614-13.612-28.176-11.328-43.312-11.138-18.372.191-17.04,13.994-16.659,37.6,15.42,11.994,37.314,28.843,61.207,47.215-38.267,17.134-8.471,60.255-39.979,74.819-.286.1.667,4.76,2.189,6.378,4.092,4.76,8.852,9.043,13.137,13.422-3.428,11.518-15.8,15.612-18.945,29.6-5.233,23.227-26.27,41.884-50.735,63.4-2.38,2.095,6.663,17.04,10.47,26.178-16.942,5.9-34.363,10.755-46.833,24.845-36.173-8.091-19.7,31.888-38.172,41.693-20.179,10.757,5.522,37.6-13.707,50.927-8.661,2.284-21.8,1.809-24.939,7.235-10.376,17.514-19.514,36.648-24.085,56.258-1.713,7.614,9.995,18.275,15.422,27.224-12.471,12.469-23.7,23.607-35.03,35.031-2.951,33.7,3.047,68.251-3.428,100.71-14.088,4.759-25.129,8.473-35.6,12.089,0,15.232,5.141,34.651-.951,39.315-28.652,22.084-12.375,52.735-18.468,75.581-29.984,23.321-69.2,26.558-94.524,59.018,0,10.09-.476,22.561.191,35.03,1.236,24.559,26.939,58.543,50.451,73.012a238.606,238.606,0,0,0,31.223,16.563c19.133,8.28,38.171,22.845,32.459,50.166-3.047,14.658,9.043,21.608,15.517,31.793,3.9,6.092.665,16.753.665,28.651h-71.012c-9.614,13.994-20.274,29.606-27.6,40.267-11.425,0-15.327,1.238-17.611-.191-7.711-4.759-14.946-10.47-27.605-19.7-21.7,1.523-49.31,3.521-76.914,5.521-25.8,29.509-60.352,6.378-88.909,15.326-13.326,4.188-24.367,14.85-39.218,20.275-21.227,7.8-34.65,30.271-59.113,40.742-23.7,10.09-49.5,20.181-71.2,34.364-19.324,12.66-37.7,24.274-59.211,17.23-26.651-8.758-33.6,30.937-58.827,20.084-6.186,12.375-12.375,24.655-21.608,43.217-10.375-43.978-56.734-7.425-70.536-40.551-.286-.571-4.95-.286-6.377.952-4.855,4.093-9.138,8.852-15.422,15.04-16.944,0-36.363,3.046-54.353-.761-22.655-4.76-30.937,19.323-49.4,19.513-5.522,0-12.566-2.284-16.277-6.092-12.185-12.471-21.8-16.658-39.982-6.186-27.89,16.086-54.449,39.884-91.477,31.7-14.564-3.237-21.418,12.564-31.6,15.039-20.179,5.046-42.073,3.427-59.208,4.283l-38.172-38.171h-37.5c-13.328-12.754-26.368-25.32-39.6-37.981-16.468,21.418-44.93,20.847-61.112,41.409-16.849,21.418-48.736,22.94-66.347,47.023-14.565,20.087-35.506,35.506-53.308,52.736,7.139,8,12.947,14.565,18.943,21.323-21.037,19.324-36.173,40.932-48.927,66.157-15.136,29.8,1.808,61.683-12.947,91.1-13.04,4.95-30.27,3.427-38.741,19.229-28.271-2.189-26.559,25.987-40.077,38.267-19.608,17.99,7.237,22.94,5.426,34.553-5.519,2.284-10.85,6.093-16.467,6.378-24.179,1.619-50.926-6.569-68.156,19.324-18.088,1.428-34.365-.286-52.45,12.755-14.851,10.757-41.79,5.522-63.4,6.092-25.037.762-50.166.191-65.779.191-55.589,28.937-62.729,82.054-88.718,122.129-15.324,23.512-30.079,52.45-23.7,85.386,2.189,11.233,1.429,28.462-5.52,34.935-19.991,18.754-10.091,41.027-12.947,61.779-2.856,20.657-25.32,33.507-19.893,58.924,4.471,21.132.855,43.976.855,65.2,5.427,5.33,13.516,9.614,13.8,14.374,3.047,52.925,4.95,105.947,7.044,155.255-21.7,21.7-39.693,39.6-57.588,57.591-1.048,15.04-2.1,29.984-3.809,54.258-19.9-12.946-39.125,4.855-52.736-12.469-2.285-11.233-4-19.895-5.52-27.51-33.793-6.854-62.159-5.9-89.48,14.945-21.8,16.659-48.641,23.987-77.294,19.8-9.328-1.331-24.083-4.188-27.7.477-22.082,27.8-51.4,16.563-78.437,17.9-13.326-12.47-24.464-31.984-46.261-10.471-5.9,5.711-15.613,9.9-23.8,10.471" fill="#c1c0c0"/>
    <polygon points="1697.966 1551.799 1523.386 1551.799 1505.681 1534.094 1534.715 1525.622 1426.196 1464.89 1443.236 1409.585 1516.627 1422.34 1549.47 1403.302 1697.966 1551.799" fill="#22bf8b"/>
    <path d="M3323.156,1270.892v37.885c-11.708,11.709-22.845,22.942-34.172,34.27-3.047,26.653-3.047,55.02-33.6,68.346l-13.707-13.707c-22.751,4.474-28.178,29.984-49.5,37.6,6.475,58.067-53.972,96.048-40.265,155.732,5.9,25.7-19.893,42.17-25.415,65.491-.953,4-16.087,4.76-25.511,7.235-12.184,13.136-3.809,29.6-5.521,44.643-1.332,12.471-.286,25.323-.286,37.887,18.371,21.418,42.931.285,69.2,17.8q1.854,3.855,4,7.711H1917.857l-164.966-165.061-54.925-54.926-148.5-148.5,27.8-16.088-23.321-106.9,41.5-20.751,36.173-58.542,7.425-75.582s-24.465-75.581-25.511-78.723c-1.143-3.235,29.794-72.439,29.794-72.439l-59.59-27.605L1622,850.816V727.544h54.925c18.088-17.991,35.983-35.887,55.307-55.21h100.045c7.521,22.084,13.707,42.836,35.6,55.305,61.874,0,125.175-.19,188.571.19,21.99.1,41.123,0,60.066-17.8,10.472-9.9,34.651,3.616,51.214-14.088,8.185-8.758,28.652-6.189,44.548-8.853,13.993-21.609,48.358-30.367,46.169-65.11l64.728-27.606c32.175-2.856,70.823-18.563,97.761-39.695,27.892-21.7,63.4-36.648,89.671-36.268,15.324.286,35.125-3.14,45.025,4.855,23.512,19.038,60.73,18.277,69.489,55.306,19.8-19.705,35.506-35.41,51.212-51.212,0-9.329-2.189-19.514.572-28.176,4.378-13.9,10.472-27.8,18.847-39.6,14.279-19.99,30.747-38.267,44.644-55.211h98.237c11.613,11.614,21.228,25.511,34.365,33.412,16.561,10,7.709,29.319,19.608,40.17,4.664,4.284,47.405,49.12,52.926,52.45,15.041,9.33,35.792,8.569,46.357,25.893,21.8-7.616,28.748,21.7,49.215,19.418,15.42-1.713,31.128-.38,49.975-.38,2.856,19.133,5.427,36.744,8.09,54.544,20.753-5.806,28.653-23.607,42.455-34.364,28.273,17.135,41.027,55.4,79.58,58.257,10,14.754,8.378,36.077,26.273,46.263.857,27.319-6.282,56.447,19.038,77.77v72.25c-7.425,9.138-12.566,15.612-17.611,21.8,6,6,10.567,10.471,17.611,17.61,0,31.889.381,66.443-.1,101-.286,19.038.857,35.22,16.658,50.832,10.662,10.566-.191,37.029-20.56,62.921,20.56,17.706,41.883,35.982,60.635,52.164,4.95,34.935-35.411,37.6-37.7,66.158C3287.081,1246.142,3313.067,1253.091,3323.156,1270.892Z" fill="#a2c121"/>
    <path d="M1643.327,974.278l-59.59-27.605L1622,850.816V727.544H1515.2c-6.949,10.089-17.7,25.8-22.752,33.031-48.641,19.989-61.207-21.7-94.715-37.125-11.9,26.178-47.881,15.517-63.586,42.265h-95.191l-13.421-13.422c-4.474-4.474-13.519-10.186-12.756-13.326,6.377-24.845-25.606-33.222-23.226-58.353.953-10.089-25.606-22.369-15.518-38.646,7.33-11.8,16.754-28.273,35.032-28.178,11.232,0,16.847-4.569,20.465-14.088,4.855-12.66,9.9-25.32,14.946-37.981-4.569-4.473-9.045-8.947-18.943-18.847,22.178-16.849,44.453-33.6,60.064-45.406V449.777c-9.043-8.471-17.895-16.849-26.652-25.129L1194.5,489H1036.01L681.237,843.771v229.886L636.5,1141.433l13.9,74.438,28.652,144.786L719.5,1389.4v38.266l97.192-.665,33.031,35.03,87.956-3.523,60.635,17.421,50.07-3.522,91.479,37.6,187.335-2.191,110.327-1.428,42.931,35.126,54.258-15.9L1426.2,1464.89l17.04-55.305,73.391,12.755,60.638-35.126-23.321-106.9,41.5-20.751,36.173-58.542,7.425-75.582s-24.465-75.581-25.511-78.723C1612.39,1043.482,1643.327,974.278,1643.327,974.278Zm-863.951,339.64c-10.279-3.236-10.186-23.417-.667-30.556,1.43-1.048,5.713-1.237,6.189-.476,2.666,5.045,4.569,10.376,8,18.657C788.8,1305.446,782.423,1314.965,779.376,1313.918Zm581.807-51.4c-29.51,29.508-58.353,58.255-91.67,91.572-17.421-1.236-47.691,13.613-68.251-16.944h-56.924c-6.475,5.9-13.233,12.089-20.086,18.277-8.947-8.947-16.849-19.323-27.128-26.462-11.9-8.378-25.7-14.088-38.934-20.468-28.271-13.9-67.872-17.133-95.381,1.9-24.369,16.849-33.412,1.9-46.738-10.852-6.665,6-13.423,11.994-20.086,17.9-2.285-2.189-6.282-4.283-6.472-6.758-1.618-18.563-2.571-37.22-4.093-63.016-10.186-7.807-25.132-19.229-35.411-27.131-5.617-38.076,26.747-45.6,37.791-69.488v-34.364c16.372-11.327,43.312-10.472,40.075-40.075,20.179-12.756,42.55-3.618,63.777-6.378,8.947-8.948,17.895-17.991,28.938-28.938-11.517-9.424-22.275-19.514-34.174-27.8-10.47-7.235-42.169-49.023-42.359-59.874-.477-21.989-.191-43.883-.191-64.064,10.755-10.661,19.705-19.7,28.557-28.652h191.239c3.807,4.094,7.33,10.09,12.566,13.041,15.991,8.757,10.47,28.843,20.56,38.837,10.186,9.9,28.272,6.093,39.122,20.276,13.424,17.421,30.842,31.8,46.55,47.5,0,0-50.547,39.886-50.642,39.886v52.164c10.946-8.091,16.944-12.66,21.322-15.993,19.515,5.9,38.458,11.613,70.157,21.132,5.138,6.474,18.848,23.7,37.886,47.5Z" fill="#93d9e5"/>
  </g>
  <g>
    <g>
      <line x1="288.003" y1="5887.604" x2="288.003" y2="-572.05" fill="none" stroke="#236b8b" stroke-miterlimit="10" opacity="0.5"/>
      <line x1="3334.103" y1="5887.604" x2="3334.103" y2="-572.05" fill="none" stroke="#236b8b" stroke-miterlimit="10" opacity="0.5"/>
    </g>
    <line x1="-1306.108" y1="574.097" x2="4154.242" y2="574.097" fill="none" stroke="#e61f19" stroke-miterlimit="10" opacity="0.5"/>
    <g>
      <g>
        <path d="M1205.729,1580.062v-1.5q1.125.095,5.062.094,4.454,0,5.656-.094v1.5h-3l6.813,15.329,6.469-14.563a.273.273,0,0,1,.046-.109.481.481,0,0,0,.079-.266q0-.39-2.813-.391v-1.5q1.25.095,4.188.094c.26,0,.59,0,.992-.015s.869-.026,1.406-.047.94-.032,1.211-.032v1.5h-.594a10.681,10.681,0,0,0-1.7.1,1.577,1.577,0,0,0-.7.227,1.452,1.452,0,0,0-.25.375L1220.072,1600a1.135,1.135,0,0,1-.508.641,1.982,1.982,0,0,1-.773.125,1.463,1.463,0,0,1-.836-.172,1.7,1.7,0,0,1-.445-.656l-8.828-19.876Z" fill="#040000"/>
        <path d="M1231.873,1600.516v-1.05h2.417V1586.2h-2.417v-1.05q.853.066,4.1.066,3.543,0,4.517-.066v1.05h-3.019v13.268h2.308a5.047,5.047,0,0,0,1.515-.214,4.1,4.1,0,0,0,1.115-.514,3.27,3.27,0,0,0,.793-.809,6.262,6.262,0,0,0,.542-.886,4.929,4.929,0,0,0,.322-.984,8.408,8.408,0,0,0,.175-.9q.033-.29.114-.782h1.111l-.74,6.136Z" fill="#040000"/>
        <path d="M1247.4,1600.516v-1.05h2.549V1586.2H1247.4v-1.05q.919.066,4.141.066t4.139-.066v1.05h-2.548v13.268h2.548v1.05q-.918-.066-4.139-.066T1247.4,1600.516Z" fill="#040000"/>
        <path d="M1257.769,1600.516v-1.05h.646c.459,0,.915-.023,1.367-.066a2.317,2.317,0,0,0,.661-.115.9.9,0,0,0,.3-.267l4.528-5.94-4.977-6.88h-2.2v-1.05q.788.066,3.632.066,3.138,0,4.057-.066v1.05h-1.859l3.2,4.419,2.953-3.927a.915.915,0,0,0,.088-.12,1.1,1.1,0,0,1,.088-.12,6.912,6.912,0,0,0-2.056-.252v-1.05q.808.066,3.4.066,2.057,0,3.008-.066v1.05h-.656a10.8,10.8,0,0,0-1.291.066,3.212,3.212,0,0,0-.728.1.926.926,0,0,0-.333.3l-3.763,4.954,5.666,7.843h2.2v1.05q-.788-.066-3.632-.066-3.139,0-4.047.066v-1.05h1.86l-3.9-5.4-3.7,4.912a.948.948,0,0,0-.087.12,1.1,1.1,0,0,1-.088.12,6.912,6.912,0,0,0,2.056.252v1.05q-.809-.066-3.4-.066Q1258.71,1600.45,1257.769,1600.516Z" fill="#040000"/>
        <path d="M1277.861,1600.516v-1.05h2.417V1586.2h-2.417v-1.05q.853.066,4.009.066t4.008-.066v1.05h-2.417v5.808h7.186V1586.2h-2.418v-1.05q.853.066,4.009.066t4.009-.066v1.05h-2.417v13.268h2.417v1.05q-.853-.066-4.009-.066t-4.009.066v-1.05h2.418v-6.409h-7.186v6.409h2.417v1.05q-.853-.066-4.008-.066T1277.861,1600.516Z" fill="#040000"/>
        <path d="M1310.334,1590.792l.471-5.392h15.071l.471,5.392h-1.05c-.059-.627-.109-1.108-.153-1.443a5.782,5.782,0,0,0-.3-1.165,2.266,2.266,0,0,0-.6-.974,3.087,3.087,0,0,0-1.012-.536,4.907,4.907,0,0,0-1.591-.224h-1.7v13.016h3.424v1.05q-1.215-.066-5.02-.066t-5.021.066v-1.05h3.435V1586.45h-1.729a4.773,4.773,0,0,0-1.6.236,3.116,3.116,0,0,0-1.017.546,2.205,2.205,0,0,0-.58.962,7.029,7.029,0,0,0-.306,1.155q-.082.5-.148,1.443Z" fill="#040000"/>
        <path d="M1327.122,1600.516v-1.05h.47a5.615,5.615,0,0,0,1.476-.115.677.677,0,0,0,.427-.4l5.556-13.484a1.774,1.774,0,0,1,.153-.351.512.512,0,0,1,.235-.169,1.294,1.294,0,0,1,.487-.071,1.685,1.685,0,0,1,.361.027.768.768,0,0,1,.268.159.983.983,0,0,1,.268.4l5.731,14h2.177v1.05q-.788-.066-3.653-.066-3.1,0-3.949.066v-1.05h2.133l-1.345-3.281h-6l-1.116,2.721a.361.361,0,0,0-.087.263q0,.3,1.991.3v1.05q-.831-.066-2.953-.066Q1329.669,1600.45,1327.122,1600.516Zm5.238-5.381h5.108l-2.548-6.224Z" fill="#040000"/>
        <path d="M1359.957,1589.547a10.48,10.48,0,0,1,3.508-8.18,13.431,13.431,0,0,1,9.32-3.148,9.976,9.976,0,0,1,6.326,2.172l2.107-1.891a.924.924,0,0,1,.609-.281c.256,0,.414.057.476.172a1.8,1.8,0,0,1,.092.718v6.875a1.338,1.338,0,0,1-.131.774c-.087.089-.329.133-.729.133a1.266,1.266,0,0,1-.66-.1.991.991,0,0,1-.184-.57,7.858,7.858,0,0,0-2.545-4.735,6.878,6.878,0,0,0-4.658-1.765,10.154,10.154,0,0,0-4.023.765,7.018,7.018,0,0,0-2.789,2.016q-1.828,2.406-1.828,7,0,4.648,1.8,6.964a6.9,6.9,0,0,0,3.023,2.176,11.133,11.133,0,0,0,4.055.735,5.584,5.584,0,0,0,2.875-.674,2.454,2.454,0,0,0,1.25-2.271v-3.242h-4.61v-1.5q1.74.093,6.584.093,4.016,0,5.135-.093v1.5H1382.4v6.437q0,.891-.446.891a5.514,5.514,0,0,1-1.343-.563,8.758,8.758,0,0,1-1.794-1.141q-1.66,2.049-5.964,2.063-6.016,0-9.453-3.2A10.623,10.623,0,0,1,1359.957,1589.547Z" fill="#040000"/>
        <path d="M1387.544,1600.516v-1.05h2.417V1586.2h-2.417v-1.05h8.509a8.762,8.762,0,0,1,4.873,1.186,3.469,3.469,0,0,1,1.8,2.954,3.055,3.055,0,0,1-.939,2.167,5.767,5.767,0,0,1-2.8,1.443,3.565,3.565,0,0,1,2.533,2.62q0,.043.13.9c.087.572.138.9.151.988q.075.5.125.827a4.49,4.49,0,0,0,.211.79,1.412,1.412,0,0,0,.484.7,1.353,1.353,0,0,0,1.729-.169,1.88,1.88,0,0,0,.495-1.149,2.107,2.107,0,0,1,.044-.261.312.312,0,0,1,.136-.17.57.57,0,0,1,.334-.082q.535,0,.536.492a2.3,2.3,0,0,1-.044.393,2.47,2.47,0,0,1-.214.6,2.9,2.9,0,0,1-.439.661,2.072,2.072,0,0,1-.8.52,3.2,3.2,0,0,1-1.207.214,7.152,7.152,0,0,1-3.238-.594,3.264,3.264,0,0,1-.877-.61,1.855,1.855,0,0,1-.462-.83,18.768,18.768,0,0,1-.282-2.536s-.02-.275-.059-.827a2.149,2.149,0,0,0-.593-1.381,2.611,2.611,0,0,0-2.021-.759h-2.653v6.235h2.417v1.05q-.81-.066-3.943-.066T1387.544,1600.516Zm5.469-8.094h2.592a6.242,6.242,0,0,0,1.793-.224,3.773,3.773,0,0,0,1.111-.491,1.648,1.648,0,0,0,.557-.775,3.1,3.1,0,0,0,.214-.808c.014-.2.022-.472.022-.813,0-.358-.011-.645-.033-.864a3.138,3.138,0,0,0-.224-.807,1.69,1.69,0,0,0-.547-.748,3.494,3.494,0,0,0-1.088-.481,6.412,6.412,0,0,0-1.762-.213h-2.635Z" fill="#040000"/>
        <path d="M1407.63,1600.516v-1.05h2.417V1586.2h-2.417v-1.05q.853.066,4.009.066t4.008-.066v1.05h-2.417v5.808h7.187V1586.2H1418v-1.05q.853.066,4.009.066t4.008-.066v1.05H1423.6v13.268h2.417v1.05q-.852-.066-4.008-.066t-4.009.066v-1.05h2.418v-6.409h-7.187v6.409h2.417v1.05q-.852-.066-4.008-.066T1407.63,1600.516Z" fill="#040000"/>
        <path d="M1428.251,1600.516v-1.05a14.214,14.214,0,0,0,1.6-.061,1.336,1.336,0,0,0,.6-.17,1.062,1.062,0,0,0,.268-.448l5.425-13.224a2.478,2.478,0,0,1-1.75-2.565,2.667,2.667,0,0,1,.728-1.958,2.6,2.6,0,0,1,1.936-.737,2.835,2.835,0,0,1,2.007.743,2.54,2.54,0,0,1,.8,1.952,2.5,2.5,0,0,1-1.859,2.565l5.709,13.9h2.177v1.05q-2.133-.065-3.544-.065-2.035,0-4.08.065v-1.05h2.172l-1.346-3.249h-6.043q-1.137,2.8-1.138,2.929,0,.319,1.926.32v1.05q-1.477-.065-2.986-.065Q1429.815,1600.451,1428.251,1600.516Zm5.239-5.349h5.13l-2.548-6.237Zm1.948-12.234c0,.226,0,.407.01.543a2.216,2.216,0,0,0,.1.5,1.238,1.238,0,0,0,.246.472,1.285,1.285,0,0,0,.471.3,1.985,1.985,0,0,0,.765.132,1.528,1.528,0,0,0,1.285-.455,2.222,2.222,0,0,0,.345-1.354c0-.226,0-.407-.011-.543a2.325,2.325,0,0,0-.1-.5,1.163,1.163,0,0,0-.246-.471,1.407,1.407,0,0,0-.471-.307,1.873,1.873,0,0,0-.76-.138,1.535,1.535,0,0,0-1.3.461A2.279,2.279,0,0,0,1435.438,1582.933Z" fill="#040000"/>
        <path d="M1448.415,1600.133v-4.08a1.129,1.129,0,0,1,.077-.535c.051-.074.2-.11.459-.11a1.376,1.376,0,0,1,.279.022.271.271,0,0,1,.159.088.287.287,0,0,1,.065.148,2.227,2.227,0,0,1,.011.257,3.767,3.767,0,0,0,.64,1.985,3.262,3.262,0,0,0,1.46,1.184,8,8,0,0,0,1.646.494,9.035,9.035,0,0,0,1.548.131,2.621,2.621,0,0,0,2.012-4.579,1.81,1.81,0,0,0-.8-.45l-2.042-.516a22.854,22.854,0,0,1-2.789-.74,4.447,4.447,0,0,1-1.51-1.048,4.223,4.223,0,0,1-1.214-2.994,4.308,4.308,0,0,1,1.308-3.19,5.089,5.089,0,0,1,3.735-1.292,6.082,6.082,0,0,1,3.846,1.2l1.061-.966a.79.79,0,0,1,.462-.237h.011c.193,0,.312.04.358.12a1.178,1.178,0,0,1,.069.5v4.1a.993.993,0,0,1-.083.513c-.056.074-.223.11-.5.11a.814.814,0,0,1-.453-.076,1.122,1.122,0,0,1-.155-.506,4.806,4.806,0,0,0-1.006-2.342,3.749,3.749,0,0,0-1.613-1.192,5.606,5.606,0,0,0-1.832-.291,2.762,2.762,0,0,0-2.135.722,2.35,2.35,0,0,0-.654,1.615,2.071,2.071,0,0,0,.6,1.532,2.888,2.888,0,0,0,1.315.782l3.25.68a5.215,5.215,0,0,1,2.895,1.657,4.5,4.5,0,0,1,1.192,3.131,4.812,4.812,0,0,1-1.321,3.362,5.141,5.141,0,0,1-3.976,1.438,7,7,0,0,1-4.34-1.226l-1.124,1.02a.823.823,0,0,1-.467.206c-.2,0-.322-.042-.37-.126A1.178,1.178,0,0,1,1448.415,1600.133Z" fill="#040000"/>
        <path d="M1462.039,1600.516v-1.05h2.417V1586.2h-2.417v-1.05q.852.066,4.008.066t4.009-.066v1.05h-2.417v5.808h7.186V1586.2h-2.418v-1.05q.854.066,4.009.066t4.008-.066v1.05h-2.417v13.268h2.417v1.05q-.852-.066-4.008-.066t-4.009.066v-1.05h2.418v-6.409h-7.186v6.409h2.417v1.05q-.853-.066-4.009-.066T1462.039,1600.516Z" fill="#040000"/>
        <path d="M1482.67,1600.516v-1.05h.471a5.615,5.615,0,0,0,1.476-.115.673.673,0,0,0,.426-.4l5.557-13.484a1.715,1.715,0,0,1,.153-.351.512.512,0,0,1,.235-.169,1.294,1.294,0,0,1,.487-.071,1.685,1.685,0,0,1,.361.027.768.768,0,0,1,.268.159.993.993,0,0,1,.268.4l5.731,14h2.177v1.05q-.789-.066-3.654-.066-3.094,0-3.948.066v-1.05h2.133l-1.346-3.281h-6l-1.116,2.721a.361.361,0,0,0-.087.263q0,.3,1.991.3v1.05q-.833-.066-2.954-.066Q1485.219,1600.45,1482.67,1600.516Zm5.239-5.381h5.108l-2.548-6.224Z" fill="#040000"/>
        <path d="M1515.506,1607.906a6.7,6.7,0,0,1,.391-1.094l12.531-29.374a.525.525,0,0,1,.071-.157c.046-.083.08-.145.1-.187s.052-.1.094-.18a.746.746,0,0,1,.125-.18.6.6,0,0,1,.156-.109.527.527,0,0,1,.234-.047.5.5,0,0,1,.375.164.54.54,0,0,1,.157.383,4.1,4.1,0,0,1-.25.8l-12.641,29.672q-.391.891-.8.89a.507.507,0,0,1-.383-.179A.581.581,0,0,1,1515.506,1607.906Z" fill="#040000"/>
        <path d="M1545.444,1586.625l.672-7.7h21.531l.672,7.7h-1.5q-.126-1.344-.219-2.063a8.27,8.27,0,0,0-.43-1.664,3.231,3.231,0,0,0-.851-1.39,4.411,4.411,0,0,0-1.445-.766,7.056,7.056,0,0,0-2.274-.32h-2.422v18.594h4.891v1.5q-1.734-.095-7.172-.094t-7.172.094v-1.5h4.906v-18.594h-2.468a6.862,6.862,0,0,0-2.289.336,4.477,4.477,0,0,0-1.454.781,3.174,3.174,0,0,0-.828,1.375,10.153,10.153,0,0,0-.437,1.648q-.117.72-.211,2.063Z" fill="#040000"/>
        <path d="M1569.118,1600.516v-1.05h.47a5.624,5.624,0,0,0,1.477-.115.678.678,0,0,0,.426-.4l5.557-13.484a1.715,1.715,0,0,1,.153-.351.512.512,0,0,1,.235-.169,1.294,1.294,0,0,1,.487-.071,1.7,1.7,0,0,1,.361.027.776.776,0,0,1,.268.159.982.982,0,0,1,.267.4l5.732,14h2.177v1.05q-.789-.066-3.654-.066-3.095,0-3.948.066v-1.05h2.133l-1.346-3.281h-6l-1.116,2.721a.357.357,0,0,0-.087.263q0,.3,1.99.3v1.05q-.831-.066-2.953-.066Q1571.667,1600.45,1569.118,1600.516Zm5.239-5.381h5.108l-2.548-6.224Z" fill="#040000"/>
        <path d="M1587.491,1590.792l.471-5.392h15.072l.47,5.392h-1.05q-.087-.94-.153-1.443a5.782,5.782,0,0,0-.3-1.165,2.256,2.256,0,0,0-.6-.974,3.087,3.087,0,0,0-1.012-.536,4.907,4.907,0,0,0-1.591-.224h-1.7v13.016h3.424v1.05q-1.213-.066-5.02-.066t-5.021.066v-1.05h3.435V1586.45h-1.729a4.773,4.773,0,0,0-1.6.236,3.116,3.116,0,0,0-1.017.546,2.215,2.215,0,0,0-.58.962,7.236,7.236,0,0,0-.306,1.155q-.083.5-.147,1.443Z" fill="#040000"/>
        <path d="M1604.279,1600.516v-1.05h.47a5.63,5.63,0,0,0,1.477-.115.678.678,0,0,0,.426-.4l5.556-13.484a1.836,1.836,0,0,1,.153-.351.51.51,0,0,1,.236-.169,1.288,1.288,0,0,1,.486-.071,1.685,1.685,0,0,1,.361.027.768.768,0,0,1,.268.159.983.983,0,0,1,.268.4l5.731,14h2.177v1.05q-.787-.066-3.653-.066-3.1,0-3.948.066v-1.05h2.132l-1.345-3.281h-6.005l-1.115,2.721a.357.357,0,0,0-.088.263q0,.3,1.991.3v1.05q-.831-.066-2.953-.066Q1606.828,1600.45,1604.279,1600.516Zm5.239-5.381h5.107l-2.548-6.224Z" fill="#040000"/>
        <path d="M1624.136,1600.516v-1.05h2.417V1586.2h-2.417v-1.05q.853.066,4.009.066t4.008-.066v1.05h-2.417v7.175l8.29-6.923c-.058-.014-.089-.029-.1-.044s-.067-.058-.2-.088a7.552,7.552,0,0,0-1.3-.12v-1.05q.809.066,3.269.066,1.389,0,2.285-.066v1.05h-.382a3.619,3.619,0,0,0-2.1.406l-5.381,4.484,6.049,7.93a.974.974,0,0,0,.447.371,4.534,4.534,0,0,0,1.084.077h.645v1.05q-.833-.066-3.27-.066c-2.014,0-3.328.022-3.949.066v-1.05a4.64,4.64,0,0,0,1.641-.187.986.986,0,0,0-.174-.305l-4.617-6.071-2.242,1.86v4.7h2.417v1.05q-.852-.066-4.008-.066T1624.136,1600.516Z" fill="#040000"/>
        <path d="M1644.7,1600.516v-1.05h.47a5.624,5.624,0,0,0,1.477-.115.678.678,0,0,0,.426-.4l5.557-13.484a1.715,1.715,0,0,1,.153-.351.507.507,0,0,1,.235-.169,1.294,1.294,0,0,1,.487-.071,1.674,1.674,0,0,1,.36.027.77.77,0,0,1,.269.159.992.992,0,0,1,.267.4l5.732,14h2.177v1.05q-.789-.066-3.654-.066-3.095,0-3.948.066v-1.05h2.133l-1.346-3.281h-6l-1.115,2.721a.357.357,0,0,0-.088.263q0,.3,1.991.3v1.05q-.831-.066-2.953-.066Q1647.245,1600.45,1644.7,1600.516Zm5.24-5.381h5.107l-2.549-6.224Z" fill="#040000"/>
        <path d="M1665.779,1598.551a7.9,7.9,0,0,1,.005-11.427,9.408,9.408,0,0,1,6.566-2.216,6.866,6.866,0,0,1,4.427,1.521l1.461-1.325a.646.646,0,0,1,.422-.2c.183,0,.3.04.34.12a1.25,1.25,0,0,1,.065.5v4.813a.934.934,0,0,1-.092.541.87.87,0,0,1-.52.094.857.857,0,0,1-.453-.072.7.7,0,0,1-.127-.4,5.5,5.5,0,0,0-1.775-3.315,4.835,4.835,0,0,0-3.277-1.235,6.13,6.13,0,0,0-4.57,1.719q-1.479,1.542-1.49,5.166a7.718,7.718,0,0,0,1.326,4.969,5.946,5.946,0,0,0,4.81,1.905,5.69,5.69,0,0,0,3.459-1.146,4.049,4.049,0,0,0,1.66-3.228c.013-.183.057-.292.13-.328a.93.93,0,0,1,.383-.056.815.815,0,0,1,.427.077c.072.051.109.183.109.394a4.847,4.847,0,0,1-1.867,3.7,7.075,7.075,0,0,1-4.848,1.641A9.41,9.41,0,0,1,1665.779,1598.551Z" fill="#040000"/>
        <path d="M1681.557,1600.516v-1.05h2.417V1586.2h-2.417v-1.05q.852.066,4.008.066t4.009-.066v1.05h-2.418v5.808h7.187V1586.2h-2.417v-1.05q.852.066,4.008.066t4.008-.066v1.05h-2.417v13.268h2.417v1.05q-.852-.066-4.008-.066t-4.008.066v-1.05h2.417v-6.409h-7.187v6.409h2.418v1.05q-.853-.066-4.009-.066T1681.557,1600.516Z" fill="#040000"/>
        <path d="M1702.1,1600.516v-1.05h2.547V1586.2H1702.1v-1.05q.918.066,4.139.066t4.14-.066v1.05h-2.549v13.268h2.549v1.05q-.918-.066-4.14-.066T1702.1,1600.516Z" fill="#040000"/>
        <path d="M1313.182,1628.26v-.874h2.013v-10.941h-2.013v-.875h11.286l.574,4.5h-.874a11.256,11.256,0,0,0-.2-1.223,4.943,4.943,0,0,0-.356-.982,2.014,2.014,0,0,0-.624-.786,3.178,3.178,0,0,0-1.015-.456,5.6,5.6,0,0,0-1.508-.178h-2.614v5.029h.929q1.248,0,1.6-.506a3.014,3.014,0,0,0,.355-1.681h.884v5.238h-.884a2.986,2.986,0,0,0-.355-1.676q-.354-.5-1.6-.5h-.929v5.038h2.514v.874q-.82-.054-3.762-.055Q1313.892,1628.205,1313.182,1628.26Z" fill="#040000"/>
        <path d="M1326.852,1628.26v-.613h1.485v-7.734h-1.485v-.612q.534.038,2.413.038t2.414-.038v.612h-1.486v7.734h1.486v.613q-.536-.039-2.414-.038T1326.852,1628.26Z" fill="#040000"/>
        <path d="M1332.97,1619.913v-.612q.5.038,2.337.038t2.337-.038v.612h-1.409v5.437c0,.217.006.4.019.549a3.065,3.065,0,0,0,.143.616,1.731,1.731,0,0,0,.348.641,1.9,1.9,0,0,0,.686.444,2.871,2.871,0,0,0,1.112.194,3.872,3.872,0,0,0,1.052-.137,2.947,2.947,0,0,0,.9-.425,1.971,1.971,0,0,0,.653-.8,2.825,2.825,0,0,0,.243-1.206V1620.3c0-.15-.019-.238-.055-.269a.894.894,0,0,0-.339-.076,6.421,6.421,0,0,0-.686-.038h-.323v-.612q.534.038,1.757.038,1.253,0,1.75-.038v.612h-.331a5.886,5.886,0,0,0-.7.038.732.732,0,0,0-.326.073c-.037.033-.055.122-.055.272v4.977a3.009,3.009,0,0,1-.92,2.22,3.639,3.639,0,0,1-2.676.913,4.632,4.632,0,0,1-3.029-.895,2.822,2.822,0,0,1-1.084-2.268v-5.33Z" fill="#040000"/>
        <path d="M1344.832,1628.26v-.613h1.409v-7.658h-1.409v-.612h7.9l.4,3.15h-.613a7.817,7.817,0,0,0-.143-.856,3.483,3.483,0,0,0-.249-.688,1.4,1.4,0,0,0-.437-.549,2.221,2.221,0,0,0-.711-.32,3.928,3.928,0,0,0-1.055-.125h-1.83v3.52h.651c.582,0,.956-.117,1.122-.354a2.106,2.106,0,0,0,.249-1.176h.618v3.667h-.618a2.092,2.092,0,0,0-.249-1.174q-.249-.351-1.122-.351h-.651v3.526h1.76v.613q-.573-.039-2.633-.038Q1345.329,1628.222,1344.832,1628.26Z" fill="#040000"/>
        <path d="M1353,1628.26v-.613h.274a3.283,3.283,0,0,0,.861-.067.389.389,0,0,0,.248-.233l3.24-7.862a.953.953,0,0,1,.089-.2.291.291,0,0,1,.137-.1.755.755,0,0,1,.284-.041.958.958,0,0,1,.21.015.429.429,0,0,1,.157.093.583.583,0,0,1,.155.235l3.342,8.162h1.269v.613q-.459-.039-2.13-.038-1.8,0-2.3.038v-.613h1.244l-.785-1.913h-3.5l-.651,1.587a.209.209,0,0,0-.051.154q0,.173,1.161.172v.613c-.324-.026-.9-.038-1.722-.038Q1354.482,1628.222,1353,1628.26Zm3.054-3.138h2.978l-1.486-3.628Z" fill="#040000"/>
        <path d="M1364.784,1628.036v-2.378a.661.661,0,0,1,.044-.312c.03-.042.119-.064.268-.064a.792.792,0,0,1,.163.013.157.157,0,0,1,.092.051.163.163,0,0,1,.038.087,1.075,1.075,0,0,1,.007.149,2.18,2.18,0,0,0,.373,1.157,1.9,1.9,0,0,0,.851.691,4.75,4.75,0,0,0,.96.288,5.288,5.288,0,0,0,.9.076,1.528,1.528,0,0,0,1.173-2.669,1.04,1.04,0,0,0-.467-.263l-1.19-.3a13.3,13.3,0,0,1-1.627-.432,2.6,2.6,0,0,1-.88-.611,2.463,2.463,0,0,1-.707-1.746,2.511,2.511,0,0,1,.762-1.859,2.964,2.964,0,0,1,2.178-.754,3.55,3.55,0,0,1,2.242.7l.618-.564a.465.465,0,0,1,.27-.138h.006c.112,0,.182.024.209.07a.687.687,0,0,1,.04.293v2.392a.587.587,0,0,1-.048.3c-.033.043-.13.063-.292.063a.459.459,0,0,1-.265-.045.656.656,0,0,1-.09-.295,2.791,2.791,0,0,0-.586-1.364,2.186,2.186,0,0,0-.941-.7,3.284,3.284,0,0,0-1.068-.17,1.609,1.609,0,0,0-1.244.421,1.367,1.367,0,0,0-.382.941,1.209,1.209,0,0,0,.35.894,1.689,1.689,0,0,0,.766.456l1.895.4a3.037,3.037,0,0,1,1.688.966,2.624,2.624,0,0,1,.695,1.825,2.8,2.8,0,0,1-.77,1.96,3,3,0,0,1-2.318.838,4.081,4.081,0,0,1-2.531-.714l-.655.594a.468.468,0,0,1-.271.12c-.117,0-.189-.024-.217-.073A.688.688,0,0,1,1364.784,1628.036Z" fill="#040000"/>
        <path d="M1372.773,1628.26v-.613h1.41v-7.734h-1.41v-.612q.5.038,2.337.038t2.337-.038v.612h-1.409v3.386h4.19v-3.386h-1.41v-.612q.5.038,2.337.038t2.337-.038v.612h-1.409v7.734h1.409v.613q-.5-.039-2.337-.038t-2.337.038v-.613h1.41v-3.736h-4.19v3.736h1.409v.613q-.5-.039-2.337-.038T1372.773,1628.26Z" fill="#040000"/>
        <path d="M1384.843,1628.26v-.613h.275a3.283,3.283,0,0,0,.861-.067.389.389,0,0,0,.248-.233l3.239-7.862a1,1,0,0,1,.09-.2.287.287,0,0,1,.136-.1.76.76,0,0,1,.285-.041.964.964,0,0,1,.21.015.434.434,0,0,1,.156.093.574.574,0,0,1,.156.235l3.342,8.162h1.268v.613q-.459-.039-2.129-.038-1.8,0-2.3.038v-.613h1.243l-.784-1.913h-3.5l-.65,1.587a.209.209,0,0,0-.051.154q0,.173,1.16.172v.613q-.485-.039-1.721-.038Q1386.329,1628.222,1384.843,1628.26Zm3.054-3.138h2.978l-1.485-3.628Z" fill="#040000"/>
        <path d="M1396.63,1628.036v-2.378a.657.657,0,0,1,.045-.312c.03-.042.119-.064.268-.064a.775.775,0,0,1,.162.013.16.16,0,0,1,.093.051.163.163,0,0,1,.038.087,1.318,1.318,0,0,1,.006.149,2.2,2.2,0,0,0,.373,1.157,1.9,1.9,0,0,0,.852.691,4.761,4.761,0,0,0,.959.288,5.3,5.3,0,0,0,.9.076,1.527,1.527,0,0,0,1.172-2.669,1.036,1.036,0,0,0-.466-.263l-1.191-.3a13.217,13.217,0,0,1-1.626-.432,2.588,2.588,0,0,1-.88-.611,2.459,2.459,0,0,1-.708-1.746,2.508,2.508,0,0,1,.763-1.859,2.96,2.96,0,0,1,2.177-.754,3.548,3.548,0,0,1,2.242.7l.619-.564a.463.463,0,0,1,.269-.138h.007c.112,0,.182.024.209.07a.7.7,0,0,1,.04.293v2.392a.584.584,0,0,1-.049.3c-.032.043-.13.063-.292.063a.455.455,0,0,1-.264-.045.656.656,0,0,1-.09-.295,2.792,2.792,0,0,0-.587-1.364,2.186,2.186,0,0,0-.941-.7,3.283,3.283,0,0,0-1.067-.17,1.613,1.613,0,0,0-1.245.421,1.37,1.37,0,0,0-.381.941,1.206,1.206,0,0,0,.35.894,1.689,1.689,0,0,0,.766.456l1.895.4a3.04,3.04,0,0,1,1.688.966,2.624,2.624,0,0,1,.695,1.825,2.805,2.805,0,0,1-.77,1.96,3,3,0,0,1-2.318.838,4.079,4.079,0,0,1-2.531-.714l-.655.594a.468.468,0,0,1-.272.12c-.116,0-.188-.024-.216-.073A.684.684,0,0,1,1396.63,1628.036Z" fill="#040000"/>
        <path d="M1411.775,1628.26v-.613h1.409v-7.734h-1.409v-.612h5.618a4.518,4.518,0,0,1,3.261,1.227,4.4,4.4,0,0,1,1.279,3.332,4.173,4.173,0,0,1-1.272,3.227,4.616,4.616,0,0,1-3.256,1.173Zm3.188-.613h1.907a2.666,2.666,0,0,0,3.013-2.142,8.2,8.2,0,0,0,.13-1.657,5.1,5.1,0,0,0-.561-2.768,2.94,2.94,0,0,0-2.582-1.167h-1.907Z" fill="#040000"/>
        <path d="M1422.958,1628.26v-.613h1.485v-7.734h-1.485v-.612q.534.038,2.413.038t2.414-.038v.612H1426.3v7.734h1.486v.613q-.535-.039-2.414-.038T1422.958,1628.26Z" fill="#040000"/>
        <path d="M1429.076,1628.26v-.613h1.409v-7.658h-1.409v-.612h8.111l.4,3.15h-.612a7.224,7.224,0,0,0-.15-.885,2.923,2.923,0,0,0-.267-.687,1.56,1.56,0,0,0-.456-.537,2.144,2.144,0,0,0-.721-.314,4.273,4.273,0,0,0-1.059-.115h-1.983v3.361h.721c.582,0,.959-.119,1.128-.354a2.066,2.066,0,0,0,.256-1.177h.612v3.673h-.612a2.071,2.071,0,0,0-.256-1.177c-.169-.235-.546-.353-1.128-.353h-.721v3.685h1.983a5.638,5.638,0,0,0,1.039-.085,2.149,2.149,0,0,0,.765-.288,2.778,2.778,0,0,0,.529-.43,1.813,1.813,0,0,0,.361-.6,4.279,4.279,0,0,0,.209-.713q.066-.339.165-.845h.618l-.605,3.577Z" fill="#040000"/>
        <path d="M1446.048,1616.336v-.875q.655.054,2.952.055,2.6,0,3.3-.055v.875h-1.749l3.972,8.935,3.771-8.489a.165.165,0,0,1,.027-.064.287.287,0,0,0,.037-.082.3.3,0,0,0,.009-.073q0-.228-1.639-.227v-.875q.728.054,2.441.055c.151,0,.344,0,.578-.009s.507-.016.82-.028.548-.018.706-.018v.875h-.346a6.128,6.128,0,0,0-.993.059.93.93,0,0,0-.41.132.835.835,0,0,0-.146.218l-4.964,11.214a.666.666,0,0,1-.3.374,1.171,1.171,0,0,1-.451.072.86.86,0,0,1-.488-.1,1,1,0,0,1-.259-.383l-5.147-11.587Z" fill="#040000"/>
        <path d="M1459.824,1628.26v-.613h.274a3.283,3.283,0,0,0,.861-.067.393.393,0,0,0,.249-.233l3.239-7.862a.953.953,0,0,1,.089-.2.3.3,0,0,1,.137-.1.755.755,0,0,1,.284-.041.953.953,0,0,1,.21.015.429.429,0,0,1,.157.093.583.583,0,0,1,.155.235l3.342,8.162h1.269v.613q-.459-.039-2.13-.038-1.8,0-2.3.038v-.613h1.244l-.785-1.913h-3.5l-.651,1.587a.209.209,0,0,0-.051.154q0,.173,1.161.172v.613c-.324-.026-.9-.038-1.722-.038Q1461.309,1628.222,1459.824,1628.26Zm3.054-3.138h2.978l-1.486-3.628Z" fill="#040000"/>
        <path d="M1471.611,1627.922a.6.6,0,0,1,.1-.338l5.228-7.671h-1.7a2.971,2.971,0,0,0-2.05.615,2.7,2.7,0,0,0-.756,1.923h-.612l.153-3.15h6.714a1.657,1.657,0,0,1,.243.012.2.2,0,0,1,.124.086.392.392,0,0,1,.054.23.532.532,0,0,1-.108.309l-5.209,7.659h1.83a4.684,4.684,0,0,0,1-.1,3.338,3.338,0,0,0,.736-.242,1.607,1.607,0,0,0,.517-.4,2.724,2.724,0,0,0,.341-.485,2.428,2.428,0,0,0,.2-.58,6.054,6.054,0,0,0,.112-.6c.019-.163.037-.375.054-.638h.612l-.236,3.711h-6.931a1.56,1.56,0,0,1-.246-.013.193.193,0,0,1-.124-.083A.42.42,0,0,1,1471.611,1627.922Z" fill="#040000"/>
        <path d="M1480.568,1628.26v-.613h1.486v-7.734h-1.486v-.612q.535.038,2.413.038t2.414-.038v.612h-1.486v7.734h1.486v.613q-.535-.039-2.414-.038T1480.568,1628.26Z" fill="#040000"/>
        <path d="M1486.7,1628.26v-.613h.274a3.283,3.283,0,0,0,.861-.067.393.393,0,0,0,.249-.233l3.239-7.862a.953.953,0,0,1,.089-.2.3.3,0,0,1,.137-.1.755.755,0,0,1,.284-.041.953.953,0,0,1,.21.015.429.429,0,0,1,.157.093.583.583,0,0,1,.155.235l3.342,8.162h1.269v.613q-.459-.039-2.13-.038-1.8,0-2.3.038v-.613h1.244l-.785-1.913h-3.5l-.651,1.587a.209.209,0,0,0-.051.154q0,.173,1.161.172v.613c-.324-.026-.9-.038-1.722-.038Q1488.184,1628.222,1486.7,1628.26Zm3.054-3.138h2.978l-1.486-3.628Z" fill="#040000"/>
        <path d="M1497.466,1622.591l.275-3.144h8.786l.275,3.144h-.613q-.051-.547-.089-.842a3.37,3.37,0,0,0-.175-.679,1.315,1.315,0,0,0-.348-.567,1.792,1.792,0,0,0-.59-.313,2.9,2.9,0,0,0-.927-.13h-.989v7.587h2v.613q-.708-.039-2.927-.038t-2.927.038v-.613h2v-7.587h-1.008a2.816,2.816,0,0,0-.934.136,1.842,1.842,0,0,0-.593.32,1.284,1.284,0,0,0-.338.56,4.093,4.093,0,0,0-.178.673q-.048.294-.086.842Z" fill="#040000"/>
        <path d="M1507.31,1628.26v-.613h.274a3.283,3.283,0,0,0,.861-.067.389.389,0,0,0,.248-.233l3.24-7.862a.953.953,0,0,1,.089-.2.291.291,0,0,1,.137-.1.755.755,0,0,1,.284-.041.958.958,0,0,1,.21.015.429.429,0,0,1,.157.093.583.583,0,0,1,.155.235l3.342,8.162h1.269v.613q-.459-.039-2.13-.038-1.8,0-2.3.038v-.613h1.244l-.785-1.913h-3.5l-.651,1.587a.209.209,0,0,0-.051.154q0,.173,1.161.172v.613c-.324-.026-.9-.038-1.722-.038Q1508.8,1628.222,1507.31,1628.26Zm3.054-3.138h2.978l-1.486-3.628Z" fill="#040000"/>
        <path d="M1517.961,1625.017V1623.2h5.7v1.813Z" fill="#040000"/>
        <path d="M1526.5,1621.865a6.107,6.107,0,0,1,2.045-4.768,7.828,7.828,0,0,1,5.434-1.836,5.818,5.818,0,0,1,3.688,1.266l1.229-1.1a.535.535,0,0,1,.354-.164c.149,0,.242.033.277.1a1.038,1.038,0,0,1,.054.419v4.008a.778.778,0,0,1-.076.451c-.05.052-.193.077-.425.077a.739.739,0,0,1-.385-.059.579.579,0,0,1-.107-.332,4.586,4.586,0,0,0-1.484-2.761,4.012,4.012,0,0,0-2.715-1.029,5.9,5.9,0,0,0-2.346.447,4.088,4.088,0,0,0-1.626,1.175,6.662,6.662,0,0,0-1.066,4.081,6.553,6.553,0,0,0,1.048,4.059,4.021,4.021,0,0,0,1.763,1.269,6.479,6.479,0,0,0,2.363.429,3.257,3.257,0,0,0,1.677-.393,1.431,1.431,0,0,0,.728-1.324v-1.891h-2.687v-.874q1.014.054,3.839.055,2.34,0,2.993-.055v.874h-1.494v3.753q0,.52-.259.52a3.226,3.226,0,0,1-.783-.328,5.18,5.18,0,0,1-1.047-.665q-.967,1.192-3.477,1.2a7.767,7.767,0,0,1-5.511-1.868A6.194,6.194,0,0,1,1526.5,1621.865Z" fill="#040000"/>
        <path d="M1542.678,1628.26v-.613h1.409v-7.734h-1.409v-.612h4.961a5.117,5.117,0,0,1,2.841.69,2.024,2.024,0,0,1,1.049,1.723,1.783,1.783,0,0,1-.548,1.264,3.368,3.368,0,0,1-1.63.841,2.078,2.078,0,0,1,1.476,1.527c0,.016.026.192.076.526s.08.525.088.576c.029.194.053.354.073.483a2.646,2.646,0,0,0,.123.46.827.827,0,0,0,.282.406.751.751,0,0,0,.457.138.76.76,0,0,0,.551-.237,1.1,1.1,0,0,0,.289-.669,1.424,1.424,0,0,1,.025-.153.191.191,0,0,1,.08-.1.331.331,0,0,1,.194-.048q.313,0,.313.288a1.333,1.333,0,0,1-.025.229,1.554,1.554,0,0,1-.125.348,1.72,1.72,0,0,1-.256.385,1.21,1.21,0,0,1-.464.3,1.862,1.862,0,0,1-.7.124,4.174,4.174,0,0,1-1.887-.345,1.9,1.9,0,0,1-.511-.356,1.074,1.074,0,0,1-.27-.483,10.816,10.816,0,0,1-.164-1.479s-.012-.161-.035-.482a1.249,1.249,0,0,0-.345-.805,1.52,1.52,0,0,0-1.178-.443h-1.548v3.634h1.409v.613q-.471-.039-2.3-.038T1542.678,1628.26Zm3.188-4.719h1.511a3.659,3.659,0,0,0,1.046-.13,2.217,2.217,0,0,0,.648-.287.964.964,0,0,0,.325-.452,1.79,1.79,0,0,0,.124-.471c.009-.116.013-.274.013-.474s-.007-.375-.019-.5a1.8,1.8,0,0,0-.131-.472.984.984,0,0,0-.319-.436,2.025,2.025,0,0,0-.634-.28,3.706,3.706,0,0,0-1.027-.124h-1.537Z" fill="#040000"/>
        <path d="M1554.223,1623.838a4.563,4.563,0,0,1,1.3-3.386,5.388,5.388,0,0,1,6.986-.013,4.54,4.54,0,0,1,1.31,3.4,4.424,4.424,0,0,1-1.291,3.3,5.49,5.49,0,0,1-7.005.009A4.4,4.4,0,0,1,1554.223,1623.838Zm2-.2a6.2,6.2,0,0,0,.536,2.861,2.428,2.428,0,0,0,1,1.025,2.652,2.652,0,0,0,1.266.332,2.453,2.453,0,0,0,2.206-1.243,5.865,5.865,0,0,0,.6-2.975,5.43,5.43,0,0,0-.548-2.727,2.439,2.439,0,0,0-.985-.921,2.765,2.765,0,0,0-2.487-.025,2.4,2.4,0,0,0-.966.845A5.22,5.22,0,0,0,1556.218,1623.64Z" fill="#040000"/>
        <path d="M1565.553,1628.036v-2.378a.661.661,0,0,1,.044-.312c.03-.042.119-.064.268-.064a.792.792,0,0,1,.163.013.157.157,0,0,1,.092.051.163.163,0,0,1,.038.087,1.075,1.075,0,0,1,.007.149,2.18,2.18,0,0,0,.373,1.157,1.9,1.9,0,0,0,.851.691,4.75,4.75,0,0,0,.96.288,5.288,5.288,0,0,0,.9.076,1.528,1.528,0,0,0,1.173-2.669,1.04,1.04,0,0,0-.467-.263l-1.19-.3a13.3,13.3,0,0,1-1.627-.432,2.6,2.6,0,0,1-.88-.611,2.463,2.463,0,0,1-.707-1.746,2.511,2.511,0,0,1,.762-1.859,2.964,2.964,0,0,1,2.178-.754,3.55,3.55,0,0,1,2.242.7l.619-.564a.46.46,0,0,1,.269-.138h.006c.112,0,.182.024.209.07a.687.687,0,0,1,.04.293v2.392a.587.587,0,0,1-.048.3c-.033.043-.13.063-.292.063a.459.459,0,0,1-.265-.045.656.656,0,0,1-.09-.295,2.791,2.791,0,0,0-.586-1.364,2.186,2.186,0,0,0-.941-.7,3.284,3.284,0,0,0-1.068-.17,1.609,1.609,0,0,0-1.244.421,1.367,1.367,0,0,0-.382.941,1.209,1.209,0,0,0,.35.894,1.689,1.689,0,0,0,.766.456l1.895.4a3.037,3.037,0,0,1,1.688.966,2.62,2.62,0,0,1,.695,1.825,2.8,2.8,0,0,1-.77,1.96,3,3,0,0,1-2.318.838,4.081,4.081,0,0,1-2.531-.714l-.655.594a.468.468,0,0,1-.271.12c-.117,0-.189-.024-.217-.073A.688.688,0,0,1,1565.553,1628.036Z" fill="#040000"/>
        <path d="M1573.542,1628.26v-.613h1.41v-7.734h-1.41v-.612q.5.038,2.337.038t2.337-.038v.612h-1.409v3.386H1581v-3.386h-1.41v-.612q.5.038,2.337.038t2.337-.038v.612h-1.409v7.734h1.409v.613q-.5-.039-2.337-.038t-2.337.038v-.613H1581v-3.736h-4.19v3.736h1.409v.613q-.5-.039-2.337-.038T1573.542,1628.26Z" fill="#040000"/>
        <path d="M1585.612,1628.26v-.613h.275a3.283,3.283,0,0,0,.861-.067.389.389,0,0,0,.248-.233l3.239-7.862a1,1,0,0,1,.09-.2.292.292,0,0,1,.136-.1.76.76,0,0,1,.285-.041.964.964,0,0,1,.21.015.426.426,0,0,1,.156.093.574.574,0,0,1,.156.235l3.342,8.162h1.268v.613q-.459-.039-2.129-.038-1.8,0-2.3.038v-.613h1.243l-.784-1.913h-3.5l-.65,1.587a.209.209,0,0,0-.051.154q0,.173,1.16.172v.613q-.485-.039-1.721-.038Q1587.1,1628.222,1585.612,1628.26Zm3.055-3.138h2.978l-1.486-3.628Z" fill="#040000"/>
      </g>
      <g>
        <path d="M2165.438,1189.948q0-11.321,7.892-18.4t20.971-7.084a22.452,22.452,0,0,1,14.234,4.887l4.74-4.254a2.085,2.085,0,0,1,1.37-.633q.862,0,1.07.387a4.032,4.032,0,0,1,.207,1.617v15.469a3.023,3.023,0,0,1-.293,1.74,2.7,2.7,0,0,1-1.64.3,2.847,2.847,0,0,1-1.485-.229,2.228,2.228,0,0,1-.414-1.283,17.687,17.687,0,0,0-5.726-10.652,15.471,15.471,0,0,0-10.481-3.973,22.788,22.788,0,0,0-9.053,1.723,15.776,15.776,0,0,0-6.275,4.535q-4.115,5.413-4.114,15.75,0,10.457,4.043,15.669a15.514,15.514,0,0,0,6.8,4.894,25.019,25.019,0,0,0,9.123,1.656,12.552,12.552,0,0,0,6.469-1.516,5.523,5.523,0,0,0,2.812-5.11v-7.3H2195.32v-3.375q3.916.21,14.815.211,9.031,0,11.553-.211v3.375h-5.766v14.484q0,2-1,2a12.34,12.34,0,0,1-3.022-1.266,19.788,19.788,0,0,1-4.04-2.566q-3.732,4.6-13.418,4.641-13.534,0-21.269-7.208A23.9,23.9,0,0,1,2165.438,1189.948Z" fill="#040000"/>
        <path d="M2290.58,1214.628v-2.362h5.439v-29.852h-5.439v-2.362h19.147q6.913,0,10.962,2.667t4.049,6.647a6.868,6.868,0,0,1-2.114,4.874,12.974,12.974,0,0,1-6.293,3.25q4.882,1.824,5.7,5.892,0,.1.293,2.03t.338,2.225l.282,1.86a10.326,10.326,0,0,0,.475,1.778,3.167,3.167,0,0,0,1.088,1.567,3.045,3.045,0,0,0,3.891-.38,4.214,4.214,0,0,0,1.114-2.584,5.176,5.176,0,0,1,.1-.59.721.721,0,0,1,.308-.382,1.287,1.287,0,0,1,.751-.184q1.206,0,1.206,1.107a5.049,5.049,0,0,1-.1.886,5.566,5.566,0,0,1-.481,1.342,6.5,6.5,0,0,1-.987,1.488,4.657,4.657,0,0,1-1.79,1.169,7.182,7.182,0,0,1-2.715.48,16.078,16.078,0,0,1-7.285-1.335,7.3,7.3,0,0,1-1.973-1.372,4.187,4.187,0,0,1-1.041-1.867,42.271,42.271,0,0,1-.634-5.706s-.045-.619-.134-1.86a4.829,4.829,0,0,0-1.333-3.108,5.878,5.878,0,0,0-4.547-1.708h-5.97v14.028h5.438v2.362q-1.821-.149-8.871-.148T2290.58,1214.628Zm12.305-18.211h5.832a14.154,14.154,0,0,0,4.036-.5,8.535,8.535,0,0,0,2.5-1.105,3.716,3.716,0,0,0,1.255-1.745,6.973,6.973,0,0,0,.48-1.818q.05-.675.049-1.83,0-1.2-.074-1.941a7,7,0,0,0-.5-1.818,3.808,3.808,0,0,0-1.23-1.682,7.767,7.767,0,0,0-2.45-1.081,14.3,14.3,0,0,0-3.962-.48h-5.93Z" fill="#040000"/>
        <path d="M2379.274,1197.561q0-8.078,5.021-13.064t13.535-4.986q8.367,0,13.425,4.937t5.057,13.113a17.067,17.067,0,0,1-4.984,12.739q-4.983,4.893-13.547,4.894-8.466,0-13.486-4.857T2379.274,1197.561Zm7.7-.762q0,7.155,2.067,11.041a9.406,9.406,0,0,0,3.851,3.959,10.282,10.282,0,0,0,4.885,1.278,9.465,9.465,0,0,0,8.515-4.8q2.313-3.834,2.313-11.483,0-6.96-2.117-10.525a9.417,9.417,0,0,0-3.8-3.553,10.641,10.641,0,0,0-9.6-.1,9.261,9.261,0,0,0-3.729,3.258Q2386.976,1189.544,2386.978,1196.8Z" fill="#040000"/>
        <path d="M2467.161,1213.767v-9.18a2.548,2.548,0,0,1,.173-1.2q.171-.246,1.033-.246a3.167,3.167,0,0,1,.628.049.616.616,0,0,1,.357.2.652.652,0,0,1,.147.333,4.788,4.788,0,0,1,.024.58,8.48,8.48,0,0,0,1.441,4.466,7.333,7.333,0,0,0,3.285,2.664,17.972,17.972,0,0,0,3.7,1.11,20.333,20.333,0,0,0,3.483.3q3.518,0,5.033-1.811a6.025,6.025,0,0,0-.506-8.492,4.07,4.07,0,0,0-1.8-1.013l-4.6-1.161a50.791,50.791,0,0,1-6.275-1.666,9.958,9.958,0,0,1-3.4-2.356,9.5,9.5,0,0,1-2.732-6.737,9.692,9.692,0,0,1,2.942-7.177q2.941-2.908,8.406-2.907a13.674,13.674,0,0,1,8.652,2.708l2.389-2.176a1.783,1.783,0,0,1,1.038-.532h.025q.649,0,.805.27a2.659,2.659,0,0,1,.156,1.132v9.229a2.223,2.223,0,0,1-.188,1.156c-.125.165-.5.246-1.126.246a1.8,1.8,0,0,1-1.02-.173,2.512,2.512,0,0,1-.348-1.138,10.791,10.791,0,0,0-2.265-5.267,8.423,8.423,0,0,0-3.63-2.684,12.671,12.671,0,0,0-4.12-.655q-3.331,0-4.8,1.626a5.282,5.282,0,0,0-1.473,3.632,4.657,4.657,0,0,0,1.352,3.448,6.509,6.509,0,0,0,2.956,1.761l7.315,1.528a11.746,11.746,0,0,1,6.513,3.729,10.125,10.125,0,0,1,2.684,7.045,10.818,10.818,0,0,1-2.974,7.563q-2.973,3.236-8.946,3.235-6.147,0-9.766-2.757l-2.529,2.293a1.814,1.814,0,0,1-1.049.464q-.672,0-.834-.283A2.663,2.663,0,0,1,2467.161,1213.767Z" fill="#040000"/>
        <path d="M2542.137,1214.628v-2.362h5.438v-29.852h-5.438v-2.362q1.919.147,9.019.147t9.02-.147v2.362h-5.44v13.067h16.169v-13.067h-5.438v-2.362q1.919.147,9.018.147t9.02-.147v2.362h-5.439v29.852h5.439v2.362q-1.918-.149-9.02-.148t-9.018.148v-2.362h5.438v-14.421h-16.169v14.421h5.44v2.362q-1.92-.149-9.02-.148T2542.137,1214.628Z" fill="#040000"/>
        <path d="M2632.936,1214.628v-2.362h1.057a12.591,12.591,0,0,0,3.322-.26,1.517,1.517,0,0,0,.96-.9l12.5-30.338a3.809,3.809,0,0,1,.345-.788,1.136,1.136,0,0,1,.528-.381,2.938,2.938,0,0,1,1.1-.16,3.755,3.755,0,0,1,.812.061,1.684,1.684,0,0,1,.6.356,2.248,2.248,0,0,1,.6.912l12.895,31.5h4.9v2.362q-1.773-.149-8.22-.148-6.966,0-8.884.148v-2.362h4.8l-3.027-7.383h-13.511l-2.51,6.123a.806.806,0,0,0-.2.593q0,.666,4.479.667v2.362q-1.87-.149-6.644-.148Q2638.67,1214.48,2632.936,1214.628Zm11.788-12.107h11.492l-5.735-14Z" fill="#040000"/>
      </g>
      <g>
        <path d="M950.652,1151.885v-3h6.907v-37.906h-6.907v-3h27.532q9.717,0,15.984,6.015t6.266,16.328q0,10.063-6.235,15.813t-15.953,5.75Zm15.625-3h9.344q8.844,0,12.594-5.375a14.071,14.071,0,0,0,2.172-5.125,40.176,40.176,0,0,0,.64-8.125q0-9.531-2.75-13.563-3.969-5.687-12.656-5.718h-9.344Z" fill="#040000"/>
        <path d="M1005.989,1151.885v-2.1h4.834v-26.272h-4.834v-2.1h27.825l1.378,10.806h-2.1a25.818,25.818,0,0,0-.515-3.037,10.078,10.078,0,0,0-.919-2.358,5.34,5.34,0,0,0-1.563-1.842,7.346,7.346,0,0,0-2.472-1.075,14.739,14.739,0,0,0-3.632-.394h-6.8v11.528h2.472q3,0,3.872-1.214a7.091,7.091,0,0,0,.875-4.036h2.1v12.6h-2.1a7.091,7.091,0,0,0-.875-4.036q-.876-1.213-3.872-1.214h-2.472v12.644h6.8a19.135,19.135,0,0,0,3.566-.3,7.319,7.319,0,0,0,2.624-.984,9.623,9.623,0,0,0,1.815-1.477,6.221,6.221,0,0,0,1.235-2.067,14.534,14.534,0,0,0,.72-2.447q.226-1.167.565-2.9h2.121l-2.074,12.272Z" fill="#040000"/>
        <path d="M1064.352,1151.885v-2.1h1.115a20.413,20.413,0,0,0,2.429-.132,2.431,2.431,0,0,0,1.115-.251c.116-.109.175-.42.175-.929V1123.25h-4.834v-2.1h9.953a5.825,5.825,0,0,1,.852.044,1.274,1.274,0,0,1,.57.3,2.156,2.156,0,0,1,.546.777l10.741,23.713,10.762-23.713a1.825,1.825,0,0,1,.733-.941,3.206,3.206,0,0,1,1.236-.175h9.888v2.1h-4.7v26.535h4.7v2.1q-1.607-.132-7.591-.131-5.943,0-7.547.131v-2.1h4.7V1123.25h-.044l-12.49,27.562a1.576,1.576,0,0,1-1.444,1.073,1.543,1.543,0,0,1-1.422-1.115l-12.184-26.929h-.044v24.632c0,.509.058.82.175.929a2.56,2.56,0,0,0,1.159.251,21.853,21.853,0,0,0,2.385.132h1.115v2.1q-1.836-.132-6.059-.131Q1066.057,1151.754,1064.352,1151.885Z" fill="#040000"/>
        <path d="M1113.78,1151.885v-2.1h.941a11.291,11.291,0,0,0,2.953-.23,1.348,1.348,0,0,0,.852-.8l11.114-26.968a3.391,3.391,0,0,1,.3-.7,1.017,1.017,0,0,1,.471-.339,2.608,2.608,0,0,1,.974-.142,3.365,3.365,0,0,1,.721.054,1.481,1.481,0,0,1,.536.318,1.979,1.979,0,0,1,.536.809l11.463,28H1149v2.1q-1.576-.132-7.307-.131-6.19,0-7.9.131v-2.1h4.266l-2.692-6.562h-12.009l-2.231,5.442a.716.716,0,0,0-.175.527q0,.592,3.982.593v2.1q-1.663-.132-5.907-.131Q1118.877,1151.754,1113.78,1151.885Zm10.478-10.763h10.216l-5.1-12.446Z" fill="#040000"/>
        <path d="M1153.7,1151.119v-8.159a2.272,2.272,0,0,1,.154-1.072q.153-.219.918-.219a2.834,2.834,0,0,1,.558.044.538.538,0,0,1,.317.176.56.56,0,0,1,.131.3,4.172,4.172,0,0,1,.023.515,7.515,7.515,0,0,0,1.279,3.969,6.512,6.512,0,0,0,2.921,2.369,15.867,15.867,0,0,0,3.292.986,18.059,18.059,0,0,0,3.1.264q3.129,0,4.473-1.61a5.351,5.351,0,0,0-.449-7.548,3.606,3.606,0,0,0-1.6-.9l-4.084-1.032a45.415,45.415,0,0,1-5.579-1.48,8.869,8.869,0,0,1-3.018-2.1,8.439,8.439,0,0,1-2.429-5.988,8.616,8.616,0,0,1,2.615-6.379q2.616-2.584,7.472-2.585a12.162,12.162,0,0,1,7.692,2.408l2.122-1.934a1.585,1.585,0,0,1,.922-.474h.024q.577,0,.715.241a2.353,2.353,0,0,1,.138,1.006v8.2a1.968,1.968,0,0,1-.167,1.028q-.166.219-1,.219a1.6,1.6,0,0,1-.906-.154,2.229,2.229,0,0,1-.309-1.011,9.6,9.6,0,0,0-2.013-4.682,7.487,7.487,0,0,0-3.227-2.386,11.251,11.251,0,0,0-3.663-.582,5.514,5.514,0,0,0-4.269,1.445,4.694,4.694,0,0,0-1.31,3.229,4.14,4.14,0,0,0,1.2,3.064,5.772,5.772,0,0,0,2.629,1.565l6.5,1.359a10.437,10.437,0,0,1,5.79,3.313,9,9,0,0,1,2.385,6.263,9.622,9.622,0,0,1-2.643,6.724q-2.643,2.876-7.952,2.875-5.463,0-8.68-2.45l-2.248,2.038a1.626,1.626,0,0,1-.933.412c-.4,0-.646-.084-.741-.251A2.353,2.353,0,0,1,1153.7,1151.119Z" fill="#040000"/>
        <path d="M1180.562,1151.885v-2.1h4.834V1123.25h-4.834v-2.1q1.707.132,8.018.131t8.017-.131v2.1h-4.834v11.616h14.372V1123.25H1201.3v-2.1q1.707.132,8.017.131t8.017-.131v2.1H1212.5v26.535h4.834v2.1q-1.706-.132-8.017-.131t-8.017.131v-2.1h4.835v-12.819h-14.372v12.819h4.834v2.1q-1.707-.132-8.017-.131T1180.562,1151.885Z" fill="#040000"/>
        <path d="M1221.438,1151.885v-2.1h4.834v-26.272h-4.834v-2.1h27.1l1.378,10.806h-2.1a26.712,26.712,0,0,0-.492-2.939,12.039,12.039,0,0,0-.852-2.357,4.847,4.847,0,0,0-1.5-1.886,7.685,7.685,0,0,0-2.439-1.1,13.49,13.49,0,0,0-3.62-.427h-6.278v12.075h2.231q3,0,3.85-1.214a7.244,7.244,0,0,0,.853-4.036h2.121v12.578h-2.121a7.183,7.183,0,0,0-.853-4.025q-.853-1.2-3.85-1.2h-2.231v12.1h6.037v2.1q-1.969-.132-9.034-.131Q1223.145,1151.754,1221.438,1151.885Z" fill="#040000"/>
        <path d="M1253.652,1151.885v-2.1h4.834V1123.25h-4.834v-2.1q1.707.132,8.018.131t8.017-.131v2.1h-4.834v11.616h14.372V1123.25h-4.835v-2.1q1.705.132,8.017.131t8.017-.131v2.1h-4.834v26.535h4.834v2.1q-1.706-.132-8.017-.131t-8.017.131v-2.1h4.835v-12.819h-14.372v12.819h4.834v2.1q-1.707-.132-8.017-.131T1253.652,1151.885Z" fill="#040000"/>
        <path d="M1294.549,1151.885v-2.1a28.253,28.253,0,0,0,3.193-.121,2.713,2.713,0,0,0,1.193-.339,2.189,2.189,0,0,0,.536-.9l10.849-26.448a4.954,4.954,0,0,1-3.5-5.13,5.336,5.336,0,0,1,1.455-3.916,5.194,5.194,0,0,1,3.872-1.474,5.663,5.663,0,0,1,4.014,1.485,5.082,5.082,0,0,1,1.6,3.9,5,5,0,0,1-3.719,5.13l11.419,27.805h4.354v2.1q-4.266-.129-7.088-.129-4.069,0-8.16.129v-2.1h4.343l-2.69-6.5H1304.13q-2.276,5.6-2.276,5.858,0,.639,3.851.639v2.1q-2.953-.129-5.972-.129Q1297.677,1151.756,1294.549,1151.885Zm10.477-10.7h10.26l-5.1-12.476Zm3.895-24.469c0,.453.007.814.021,1.085a4.372,4.372,0,0,0,.208,1.008,2.466,2.466,0,0,0,.493.943,2.582,2.582,0,0,0,.94.6,3.984,3.984,0,0,0,1.531.263,3.057,3.057,0,0,0,2.571-.91,4.452,4.452,0,0,0,.689-2.708c0-.453-.008-.815-.022-1.085a4.729,4.729,0,0,0-.2-1.009,2.308,2.308,0,0,0-.492-.942,2.823,2.823,0,0,0-.941-.614,3.761,3.761,0,0,0-1.52-.275,3.062,3.062,0,0,0-2.6.922A4.547,4.547,0,0,0,1308.921,1116.719Z" fill="#040000"/>
        <path d="M940.6,1209.237l.941-10.784h30.144l.94,10.784h-2.1q-.176-1.881-.306-2.886a11.582,11.582,0,0,0-.6-2.33,4.525,4.525,0,0,0-1.192-1.948A6.174,6.174,0,0,0,966.4,1201a9.837,9.837,0,0,0-3.182-.448h-3.391v26.031h6.847v2.1q-2.427-.132-10.04-.131t-10.041.131v-2.1h6.869v-26.031h-3.457a9.629,9.629,0,0,0-3.2.469,6.268,6.268,0,0,0-2.034,1.094,4.422,4.422,0,0,0-1.161,1.925,14.329,14.329,0,0,0-.612,2.309q-.164,1-.3,2.886Z" fill="#040000"/>
        <path d="M973.716,1228.685v-2.1h.94a11.223,11.223,0,0,0,2.953-.231,1.348,1.348,0,0,0,.853-.8l11.113-26.968a3.38,3.38,0,0,1,.306-.7,1.017,1.017,0,0,1,.471-.339,2.6,2.6,0,0,1,.973-.143,3.366,3.366,0,0,1,.722.055,1.507,1.507,0,0,1,.536.317,1.979,1.979,0,0,1,.535.81l11.463,28h4.354v2.1q-1.576-.132-7.307-.131-6.191,0-7.9.131v-2.1H998l-2.691-6.563H983.3l-2.232,5.443a.716.716,0,0,0-.174.527q0,.592,3.981.593v2.1q-1.662-.132-5.906-.131Q978.812,1228.554,973.716,1228.685Zm10.477-10.763h10.216l-5.1-12.446Z" fill="#040000"/>
        <path d="M1036.95,1187.778v-3q2.25.188,10.125.188,8.907,0,11.313-.188v3h-6l13.625,30.657,12.937-29.125a.541.541,0,0,1,.094-.219,1.107,1.107,0,0,0,.125-.281,1.063,1.063,0,0,0,.031-.25q0-.782-5.625-.782v-3q2.5.188,8.375.188.781,0,1.985-.031t2.812-.094q1.608-.061,2.422-.063v3h-1.188a21.4,21.4,0,0,0-3.406.2,3.16,3.16,0,0,0-1.406.454,2.9,2.9,0,0,0-.5.75l-17.031,38.468a2.27,2.27,0,0,1-1.016,1.282,3.977,3.977,0,0,1-1.547.25,2.926,2.926,0,0,1-1.672-.344,3.4,3.4,0,0,1-.89-1.313l-17.657-39.75Z" fill="#040000"/>
        <path d="M1082.62,1228.685v-2.1h.941a11.234,11.234,0,0,0,2.953-.231,1.344,1.344,0,0,0,.852-.8l11.113-26.968a3.436,3.436,0,0,1,.306-.7,1.017,1.017,0,0,1,.471-.339,2.6,2.6,0,0,1,.973-.143,3.359,3.359,0,0,1,.722.055,1.5,1.5,0,0,1,.536.317,1.979,1.979,0,0,1,.535.81l11.463,28h4.354v2.1q-1.576-.132-7.307-.131-6.19,0-7.9.131v-2.1h4.265l-2.691-6.563H1092.2l-2.231,5.443a.716.716,0,0,0-.175.527q0,.592,3.981.593v2.1q-1.662-.132-5.906-.131Q1087.717,1228.554,1082.62,1228.685Zm10.478-10.763h10.215l-5.1-12.446Z" fill="#040000"/>
        <path d="M1121.994,1228.685v-2.1h4.834V1200.05h-4.834v-2.1q1.707.132,8.018.131t8.016-.131v2.1h-4.834v11.616h14.372V1200.05h-4.835v-2.1q1.707.132,8.018.131t8.017-.131v2.1h-4.834v26.535h4.834v2.1q-1.706-.132-8.017-.131t-8.018.131v-2.1h4.835v-12.819h-14.372v12.819h4.834v2.1q-1.705-.132-8.016-.131T1121.994,1228.685Z" fill="#040000"/>
        <path d="M1162.87,1228.685v-2.1h4.834V1200.05h-4.834v-2.1q1.707.132,8.2.131,7.087,0,9.034-.131v2.1h-6.037v26.535h4.616a10.158,10.158,0,0,0,3.03-.427,8.151,8.151,0,0,0,2.23-1.028,6.562,6.562,0,0,0,1.586-1.619,12.375,12.375,0,0,0,1.083-1.772,9.868,9.868,0,0,0,.646-1.968,17.278,17.278,0,0,0,.349-1.794q.066-.579.229-1.564h2.222l-1.482,12.272Z" fill="#040000"/>
        <path d="M1193.675,1228.685v-2.1h4.834V1200.05h-4.834v-2.1q1.705.132,8.017.131t8.017-.131v2.1h-4.834v11.616h14.372V1200.05h-4.835v-2.1q1.707.132,8.018.131t8.016-.131v2.1h-4.834v26.535h4.834v2.1q-1.7-.132-8.016-.131t-8.018.131v-2.1h4.835v-12.819h-14.372v12.819h4.834v2.1q-1.707-.132-8.017-.131T1193.675,1228.685Z" fill="#040000"/>
        <path d="M1234.572,1228.685v-2.1a28.274,28.274,0,0,0,3.194-.121,2.707,2.707,0,0,0,1.192-.339,2.178,2.178,0,0,0,.536-.9l10.85-26.448a4.955,4.955,0,0,1-3.5-5.131,5.334,5.334,0,0,1,1.455-3.916,5.2,5.2,0,0,1,3.872-1.473,5.667,5.667,0,0,1,4.014,1.485,5.082,5.082,0,0,1,1.6,3.9,5,5,0,0,1-3.719,5.131l11.419,27.805h4.354v2.1q-4.266-.129-7.088-.129-4.069,0-8.159.129v-2.1h4.343l-2.691-6.5h-12.087q-2.274,5.594-2.275,5.857,0,.641,3.851.64v2.1q-2.954-.129-5.972-.129Q1237.7,1228.556,1234.572,1228.685Zm10.478-10.7h10.26l-5.1-12.475Zm3.894-24.468c0,.453.007.814.022,1.085a4.319,4.319,0,0,0,.208,1.008,2.479,2.479,0,0,0,.492.943,2.6,2.6,0,0,0,.94.6,3.986,3.986,0,0,0,1.532.263,3.055,3.055,0,0,0,2.57-.91,4.452,4.452,0,0,0,.689-2.708q0-.68-.022-1.085a4.707,4.707,0,0,0-.2-1.009,2.32,2.32,0,0,0-.492-.942,2.845,2.845,0,0,0-.942-.615,3.777,3.777,0,0,0-1.519-.274,3.063,3.063,0,0,0-2.6.922A4.552,4.552,0,0,0,1248.944,1193.519Z" fill="#040000"/>
        <path d="M1270.905,1209.237l.942-10.784h30.143l.941,10.784h-2.1q-.176-1.881-.307-2.886a11.572,11.572,0,0,0-.6-2.33,4.526,4.526,0,0,0-1.193-1.948,6.158,6.158,0,0,0-2.023-1.071,9.844,9.844,0,0,0-3.183-.448h-3.39v26.031h6.846v2.1q-2.427-.132-10.04-.131t-10.041.131v-2.1h6.87v-26.031h-3.457a9.635,9.635,0,0,0-3.2.469,6.29,6.29,0,0,0-2.034,1.094,4.43,4.43,0,0,0-1.16,1.925,14.226,14.226,0,0,0-.612,2.309q-.165,1-.295,2.886Z" fill="#040000"/>
        <path d="M1304.023,1228.685v-2.1h.941a11.228,11.228,0,0,0,2.953-.231,1.348,1.348,0,0,0,.853-.8l11.113-26.968a3.447,3.447,0,0,1,.305-.7,1.022,1.022,0,0,1,.471-.339,2.6,2.6,0,0,1,.974-.143,3.348,3.348,0,0,1,.721.055,1.5,1.5,0,0,1,.537.317,1.989,1.989,0,0,1,.535.81l11.463,28h4.353v2.1q-1.576-.132-7.306-.131-6.19,0-7.9.131v-2.1h4.266l-2.692-6.563H1313.6l-2.231,5.443a.716.716,0,0,0-.175.527q0,.592,3.982.593v2.1q-1.664-.132-5.907-.131Q1309.12,1228.554,1304.023,1228.685Zm10.478-10.763h10.216l-5.1-12.446Z" fill="#040000"/>
        <path d="M1068.853,1260.324v-1.749q1.311.109,5.9.11,5.193,0,6.6-.11v1.749h-3.5l7.943,17.873,7.542-16.98a.307.307,0,0,1,.055-.127.629.629,0,0,0,.073-.164.608.608,0,0,0,.018-.146q0-.454-3.279-.456v-1.749q1.457.109,4.882.11c.3,0,.689-.006,1.157-.018s1.014-.03,1.64-.055,1.1-.037,1.412-.037v1.749h-.692a12.34,12.34,0,0,0-1.986.119,1.838,1.838,0,0,0-.82.264,1.7,1.7,0,0,0-.292.438l-9.929,22.426a1.311,1.311,0,0,1-.592.747,2.3,2.3,0,0,1-.9.146,1.706,1.706,0,0,1-.975-.2,2,2,0,0,1-.519-.765l-10.293-23.175Z" fill="#040000"/>
        <path d="M1096.019,1284.173v-1.225h.548a6.555,6.555,0,0,0,1.722-.134.787.787,0,0,0,.5-.467l6.479-15.722a1.913,1.913,0,0,1,.178-.408.588.588,0,0,1,.274-.2,1.53,1.53,0,0,1,.568-.083,1.9,1.9,0,0,1,.421.032.882.882,0,0,1,.313.184,1.166,1.166,0,0,1,.311.473l6.684,16.323h2.537v1.225q-.919-.076-4.259-.076-3.609,0-4.6.076v-1.225h2.487l-1.57-3.825h-7l-1.3,3.173a.414.414,0,0,0-.1.307q0,.345,2.321.345v1.225q-.969-.076-3.443-.076Q1098.991,1284.1,1096.019,1284.173Zm6.108-6.275h5.956l-2.972-7.256Z" fill="#040000"/>
        <path d="M1119.471,1283.5a1.184,1.184,0,0,1,.2-.676l10.457-15.342h-3.4a5.939,5.939,0,0,0-4.1,1.231,5.4,5.4,0,0,0-1.512,3.845h-1.223l.3-6.3h13.429a3.268,3.268,0,0,1,.485.025.4.4,0,0,1,.248.172.772.772,0,0,1,.109.459,1.059,1.059,0,0,1-.217.619l-10.419,15.317h3.66a9.192,9.192,0,0,0,2.009-.2,6.634,6.634,0,0,0,1.473-.484,3.2,3.2,0,0,0,1.033-.81,5.445,5.445,0,0,0,.682-.969,4.853,4.853,0,0,0,.4-1.16,11.7,11.7,0,0,0,.223-1.2c.039-.322.075-.748.109-1.274h1.223l-.471,7.422h-13.863a3.244,3.244,0,0,1-.491-.026.385.385,0,0,1-.249-.166A.852.852,0,0,1,1119.471,1283.5Z" fill="#040000"/>
        <path d="M1137.265,1284.173v-1.225h2.971v-15.469h-2.971v-1.224q1.071.076,4.827.076t4.827-.076v1.224h-2.972v15.469h2.972v1.225q-1.071-.076-4.827-.076T1137.265,1284.173Z" fill="#040000"/>
        <path d="M1149.411,1284.173v-1.225h.549a6.56,6.56,0,0,0,1.722-.134.787.787,0,0,0,.5-.467l6.478-15.722a1.9,1.9,0,0,1,.179-.408.59.59,0,0,1,.273-.2,1.536,1.536,0,0,1,.569-.083,1.9,1.9,0,0,1,.421.032.879.879,0,0,1,.312.184,1.167,1.167,0,0,1,.312.473l6.683,16.323h2.537v1.225q-.918-.076-4.258-.076-3.61,0-4.605.076v-1.225h2.487l-1.569-3.825h-7l-1.3,3.173a.418.418,0,0,0-.1.307q0,.345,2.321.345v1.225q-.969-.076-3.443-.076Q1152.382,1284.1,1149.411,1284.173Zm6.109-6.275h5.956l-2.972-7.256Z" fill="#040000"/>
        <path d="M1170.793,1272.835l.549-6.287h17.573l.549,6.287h-1.225q-.1-1.1-.178-1.683a6.75,6.75,0,0,0-.351-1.358,2.637,2.637,0,0,0-.695-1.136,3.593,3.593,0,0,0-1.18-.624,5.719,5.719,0,0,0-1.856-.262H1182v15.176h3.992v1.225q-1.416-.076-5.854-.076t-5.854.076v-1.225h4v-15.176h-2.015a5.608,5.608,0,0,0-1.869.275,3.612,3.612,0,0,0-1.185.638,2.566,2.566,0,0,0-.676,1.122,8.253,8.253,0,0,0-.358,1.345q-.095.586-.171,1.683Z" fill="#040000"/>
        <path d="M1190.319,1284.173v-1.225h.549a6.555,6.555,0,0,0,1.722-.134.787.787,0,0,0,.5-.467l6.478-15.722a1.9,1.9,0,0,1,.179-.408.588.588,0,0,1,.274-.2,1.527,1.527,0,0,1,.568-.083,1.9,1.9,0,0,1,.421.032.879.879,0,0,1,.312.184,1.167,1.167,0,0,1,.312.473l6.683,16.323h2.538v1.225q-.92-.076-4.259-.076-3.609,0-4.605.076v-1.225h2.488l-1.57-3.825h-7l-1.3,3.173a.418.418,0,0,0-.1.307q0,.345,2.321.345v1.225q-.969-.076-3.443-.076Q1193.29,1284.1,1190.319,1284.173Zm6.109-6.275h5.956l-2.972-7.256Z" fill="#040000"/>
      </g>
    </g>
    <g>
      <path d="M1753.232,1957.468l2.541-29.132H1837.2l2.541,29.132h-5.673q-.473-5.082-.827-7.8a31.29,31.29,0,0,0-1.625-6.294,12.212,12.212,0,0,0-3.221-5.259,16.612,16.612,0,0,0-5.465-2.895,26.616,26.616,0,0,0-8.6-1.211h-9.159v70.318h18.5V2010q-6.558-.354-27.123-.354t-27.123.354v-5.673h18.555v-70.318h-9.336a26.01,26.01,0,0,0-8.658,1.27,16.943,16.943,0,0,0-5.495,2.954,11.951,11.951,0,0,0-3.132,5.2,38.507,38.507,0,0,0-1.654,6.234q-.444,2.718-.8,7.8Z" fill="#040000"/>
      <path d="M1848.417,2010v-3.971h1.778a21.275,21.275,0,0,0,5.584-.435,2.553,2.553,0,0,0,1.614-1.516l21.013-50.995a6.373,6.373,0,0,1,.579-1.323,1.93,1.93,0,0,1,.889-.642,4.95,4.95,0,0,1,1.841-.268,6.367,6.367,0,0,1,1.365.1,2.832,2.832,0,0,1,1.014.6,3.759,3.759,0,0,1,1.012,1.53l21.675,52.946h8.232V2010q-2.979-.247-13.816-.248-11.7,0-14.932.248v-3.971h8.066l-5.088-12.409h-22.709l-4.219,10.292a1.356,1.356,0,0,0-.331,1q0,1.12,7.529,1.121V2010q-3.144-.247-11.168-.248Q1858.054,2009.752,1848.417,2010Zm19.813-20.352h19.317l-9.638-23.535Z" fill="#040000"/>
      <path d="M1923.947,2008.553v-15.43a4.3,4.3,0,0,1,.289-2.026q.29-.414,1.738-.414a5.246,5.246,0,0,1,1.054.084,1.028,1.028,0,0,1,.6.331,1.091,1.091,0,0,1,.249.559,8.588,8.588,0,0,1,.041.975,14.229,14.229,0,0,0,2.42,7.506,12.328,12.328,0,0,0,5.521,4.479,30.258,30.258,0,0,0,6.226,1.865,34.127,34.127,0,0,0,5.853.5q5.914,0,8.459-3.044a10.121,10.121,0,0,0-.85-14.274,6.837,6.837,0,0,0-3.03-1.7q-1.667-.418-7.722-1.949a85.771,85.771,0,0,1-10.548-2.8,16.757,16.757,0,0,1-5.709-3.962,15.962,15.962,0,0,1-4.591-11.324,16.29,16.29,0,0,1,4.945-12.063q4.944-4.885,14.128-4.886,8.685,0,14.543,4.552l4.014-3.658a3,3,0,0,1,1.745-.894h.043q1.092,0,1.354.455a4.452,4.452,0,0,1,.261,1.9v15.512a3.734,3.734,0,0,1-.316,1.944q-.317.412-1.893.413a3.019,3.019,0,0,1-1.713-.29,4.207,4.207,0,0,1-.586-1.913,18.139,18.139,0,0,0-3.806-8.854,14.157,14.157,0,0,0-6.1-4.51,21.244,21.244,0,0,0-6.925-1.1q-5.6,0-8.074,2.734a8.872,8.872,0,0,0-2.476,6.1,7.825,7.825,0,0,0,2.272,5.8,10.9,10.9,0,0,0,4.969,2.959l12.294,2.57a19.739,19.739,0,0,1,10.947,6.266,17.018,17.018,0,0,1,4.511,11.842,18.193,18.193,0,0,1-5,12.714q-5,5.436-15.037,5.436-10.329,0-16.414-4.634l-4.25,3.855a3.057,3.057,0,0,1-1.763.779q-1.131,0-1.4-.475A4.457,4.457,0,0,1,1923.947,2008.553Z" fill="#040000"/>
      <path d="M1975.859,2010v-3.971H1985v-50.175h-9.141v-3.97H2012.3q12.864,0,21.157,7.962t8.294,21.613q0,13.32-8.252,20.93T2012.384,2010Zm20.682-3.971h12.368q11.7,0,16.669-7.115a18.573,18.573,0,0,0,2.875-6.783,53.022,53.022,0,0,0,.848-10.755q0-12.615-3.64-17.952-5.253-7.528-16.752-7.57h-12.368Z" fill="#040000"/>
      <path d="M2049.983,2010v-3.971h9.638v-50.175h-9.638v-3.97q3.476.247,15.657.248t15.656-.248v3.97h-9.638v50.175h9.638V2010q-3.476-.247-15.656-.248T2049.983,2010Z" fill="#040000"/>
      <path d="M2087.542,2010v-3.971h1.778a21.275,21.275,0,0,0,5.584-.435,2.553,2.553,0,0,0,1.614-1.516l21.013-50.995a6.373,6.373,0,0,1,.579-1.323,1.93,1.93,0,0,1,.889-.642,4.95,4.95,0,0,1,1.841-.268,6.367,6.367,0,0,1,1.365.1,2.832,2.832,0,0,1,1.014.6,3.759,3.759,0,0,1,1.012,1.53l21.675,52.946h8.232V2010q-2.979-.247-13.816-.248-11.7,0-14.932.248v-3.971h8.066l-5.088-12.409h-22.709l-4.219,10.292a1.356,1.356,0,0,0-.331,1q0,1.12,7.529,1.121V2010q-3.144-.247-11.168-.248Q2097.179,2009.752,2087.542,2010Zm19.813-20.352h19.317l-9.638-23.535Z" fill="#040000"/>
      <path d="M2207.291,2010v-3.971h9.141v-50.175h-9.141v-3.97h36.441q12.866,0,21.158,7.962t8.294,21.613q0,13.32-8.252,20.93T2243.815,2010Zm20.682-3.971h12.368q11.7,0,16.669-7.115a18.607,18.607,0,0,0,2.875-6.783,53.108,53.108,0,0,0,.847-10.755q0-12.615-3.639-17.952-5.253-7.528-16.752-7.57h-12.368Z" fill="#040000"/>
      <path d="M2281.912,2010v-3.971h9.141v-49.678h-9.141v-3.971h52.614l2.607,20.433h-3.971a48.338,48.338,0,0,0-.973-5.743,19.108,19.108,0,0,0-1.737-4.457,10.075,10.075,0,0,0-2.957-3.483,13.823,13.823,0,0,0-4.675-2.032,27.727,27.727,0,0,0-6.866-.747H2303.09v21.8h4.674q5.667,0,7.322-2.295t1.654-7.631h3.971v23.825h-3.971q0-5.335-1.654-7.632t-7.322-2.295h-4.674v23.908h12.861a36.4,36.4,0,0,0,6.741-.558,13.883,13.883,0,0,0,4.962-1.862,18.294,18.294,0,0,0,3.433-2.793,11.778,11.778,0,0,0,2.337-3.909,27.6,27.6,0,0,0,1.359-4.627q.429-2.205,1.068-5.485h4.011l-3.922,23.2Zm24.735-65.852q12.038-7.609,12.782-7.941a5.054,5.054,0,0,1,1.613-.249h.083a4.288,4.288,0,0,1,3.351,1.635,5.527,5.527,0,0,1,1.406,3.7,6.91,6.91,0,0,1-.124,1.3,2.259,2.259,0,0,1-.476,1.054,7.6,7.6,0,0,0-.6.8,1.744,1.744,0,0,1-.889.628,5.207,5.207,0,0,0-.89.4,3.591,3.591,0,0,1-1.095.324c-.567.108-.905.174-1.014.2s-.483.094-1.117.2l-.91.081q-3.061.486-10.754,1.578Z" fill="#040000"/>
      <path d="M2392.01,1932.649v-5.672q4.254.354,19.145.354,16.842,0,21.392-.354v5.672H2421.2l25.764,57.969,24.464-55.073a1.033,1.033,0,0,1,.176-.414,1.8,1.8,0,0,0,.3-1q0-1.476-10.636-1.478v-5.672q4.727.354,15.837.354,1.476,0,3.752-.059t5.318-.177q3.042-.117,4.58-.118v5.672h-2.246a40.143,40.143,0,0,0-6.441.384,5.954,5.954,0,0,0-2.659.858,5.45,5.45,0,0,0-.945,1.418l-32.2,72.741a4.3,4.3,0,0,1-1.921,2.423,7.521,7.521,0,0,1-2.925.472,5.514,5.514,0,0,1-3.161-.649,6.473,6.473,0,0,1-1.685-2.483l-33.386-75.164Z" fill="#040000"/>
      <path d="M2497.477,2010v-3.971h1.778a21.275,21.275,0,0,0,5.584-.435,2.549,2.549,0,0,0,1.613-1.516l21.014-50.995a6.373,6.373,0,0,1,.579-1.323,1.93,1.93,0,0,1,.889-.642,4.944,4.944,0,0,1,1.84-.268,6.384,6.384,0,0,1,1.366.1,2.821,2.821,0,0,1,1.013.6,3.75,3.75,0,0,1,1.013,1.53l21.675,52.946h8.231V2010q-2.977-.247-13.815-.248-11.706,0-14.933.248v-3.971h8.067l-5.088-12.409h-22.709l-4.219,10.292a1.352,1.352,0,0,0-.331,1q0,1.12,7.528,1.121V2010q-3.143-.247-11.168-.248Q2507.114,2009.752,2497.477,2010Zm19.813-20.352h19.316l-9.637-23.535Z" fill="#040000"/>
      <path d="M2573.008,2007.808a3.871,3.871,0,0,1,.661-2.193l33.919-49.761h-11.044q-8.895,0-13.3,3.992t-4.9,12.471h-3.971l.992-20.433h43.557a9.99,9.99,0,0,1,1.571.083,1.3,1.3,0,0,1,.807.557,2.531,2.531,0,0,1,.351,1.49,3.446,3.446,0,0,1-.7,2.006l-33.794,49.678h11.871a30.086,30.086,0,0,0,6.515-.641,21.752,21.752,0,0,0,4.777-1.572,10.371,10.371,0,0,0,3.351-2.627,17.652,17.652,0,0,0,2.213-3.143,15.845,15.845,0,0,0,1.3-3.764,37.326,37.326,0,0,0,.723-3.889q.186-1.57.352-4.136h3.97L2620.7,2010h-44.963a10.4,10.4,0,0,1-1.591-.083,1.244,1.244,0,0,1-.807-.537A2.763,2.763,0,0,1,2573.008,2007.808Z" fill="#040000"/>
      <path d="M2629.841,2010v-3.971h9.638v-50.175h-9.638v-3.97q3.474.247,15.656.248t15.656-.248v3.97h-9.637v50.175h9.637V2010q-3.474-.247-15.656-.248T2629.841,2010Z" fill="#040000"/>
      <path d="M2667.4,2010v-3.971h1.779a21.275,21.275,0,0,0,5.584-.435,2.549,2.549,0,0,0,1.613-1.516l21.014-50.995a6.319,6.319,0,0,1,.579-1.323,1.932,1.932,0,0,1,.888-.642,4.95,4.95,0,0,1,1.841-.268,6.367,6.367,0,0,1,1.365.1,2.816,2.816,0,0,1,1.014.6,3.76,3.76,0,0,1,1.013,1.53l21.675,52.946H2734V2010q-2.977-.247-13.815-.248-11.706,0-14.933.248v-3.971h8.066l-5.087-12.409h-22.709l-4.219,10.292a1.352,1.352,0,0,0-.331,1q0,1.12,7.528,1.121V2010q-3.144-.247-11.168-.248Q2677.038,2009.752,2667.4,2010Zm19.814-20.352h19.316l-9.637-23.535Z" fill="#040000"/>
      <path d="M2732.921,1973.228l1.778-20.393h57l1.779,20.393h-3.971q-.333-3.558-.579-5.46a21.938,21.938,0,0,0-1.138-4.406,8.558,8.558,0,0,0-2.255-3.681,11.634,11.634,0,0,0-3.826-2.027,18.625,18.625,0,0,0-6.018-.848h-6.412v49.223h12.948V2010q-4.593-.247-18.987-.248t-18.986.248v-3.971h12.988v-49.223h-6.535a18.206,18.206,0,0,0-6.06.889,11.838,11.838,0,0,0-3.846,2.069,8.355,8.355,0,0,0-2.193,3.639,27.045,27.045,0,0,0-1.158,4.365q-.31,1.9-.558,5.46Z" fill="#040000"/>
      <path d="M2792.443,2010v-3.971h1.779a21.275,21.275,0,0,0,5.584-.435,2.552,2.552,0,0,0,1.613-1.516l21.014-50.995a6.319,6.319,0,0,1,.579-1.323,1.932,1.932,0,0,1,.888-.642,4.95,4.95,0,0,1,1.841-.268,6.367,6.367,0,0,1,1.365.1,2.816,2.816,0,0,1,1.014.6,3.76,3.76,0,0,1,1.013,1.53l21.675,52.946h8.231V2010q-2.978-.247-13.815-.248-11.706,0-14.933.248v-3.971h8.066l-5.087-12.409h-22.709l-4.219,10.292a1.352,1.352,0,0,0-.331,1q0,1.12,7.528,1.121V2010q-3.144-.247-11.168-.248Q2802.082,2009.752,2792.443,2010Zm19.814-20.352h19.316l-9.637-23.535Z" fill="#040000"/>
      <path d="M2864.032,1988.964V1977.2h36.991v11.76Z" fill="#040000"/>
      <path d="M2916.624,1968.518q0-19.026,13.266-30.935t35.248-11.906a37.738,37.738,0,0,1,23.925,8.214l7.967-7.151a3.5,3.5,0,0,1,2.3-1.063q1.451,0,1.8.649a6.809,6.809,0,0,1,.348,2.719v26q0,2.424-.493,2.925t-2.757.5a4.786,4.786,0,0,1-2.495-.385,3.749,3.749,0,0,1-.7-2.156q-1.971-11.228-9.624-17.906a26.01,26.01,0,0,0-17.617-6.676,38.317,38.317,0,0,0-15.216,2.895,26.542,26.542,0,0,0-10.548,7.622q-6.914,9.1-6.914,26.474,0,17.579,6.8,26.337a26.07,26.07,0,0,0,11.434,8.226,42.044,42.044,0,0,0,15.335,2.783,21.1,21.1,0,0,0,10.872-2.548,9.283,9.283,0,0,0,4.727-8.589v-12.264h-17.431v-5.673q6.581.355,24.9.355,15.18,0,19.418-.355v5.673h-9.691v24.346q0,3.367-1.683,3.368-.826,0-5.078-2.127a33.264,33.264,0,0,1-6.79-4.314q-6.276,7.743-22.554,7.8-22.751,0-35.75-12.114T2916.624,1968.518Z" fill="#040000"/>
      <path d="M3021.57,2010v-3.971h9.141v-50.175h-9.141v-3.97h32.181q11.623,0,18.428,4.482t6.8,11.174a11.541,11.541,0,0,1-3.553,8.192q-3.553,3.684-10.576,5.462,8.2,3.066,9.579,9.9,0,.165.493,3.414t.567,3.738q.287,1.881.475,3.127a17.006,17.006,0,0,0,.8,2.988A5.314,5.314,0,0,0,3078.6,2007a5.119,5.119,0,0,0,6.541-.638,7.092,7.092,0,0,0,1.871-4.343,8.839,8.839,0,0,1,.166-.993,1.206,1.206,0,0,1,.517-.641,2.152,2.152,0,0,1,1.262-.311q2.026,0,2.027,1.862a8.633,8.633,0,0,1-.167,1.489,9.4,9.4,0,0,1-.809,2.255,10.966,10.966,0,0,1-1.659,2.5,7.862,7.862,0,0,1-3.009,1.965,12.074,12.074,0,0,1-4.564.806q-7.934,0-12.246-2.244a12.265,12.265,0,0,1-3.315-2.306,7.021,7.021,0,0,1-1.749-3.137,71.035,71.035,0,0,1-1.065-9.592s-.076-1.04-.225-3.127a8.127,8.127,0,0,0-2.241-5.222q-2.646-2.871-7.643-2.872h-10.035v23.578h9.142V2010q-3.061-.247-14.913-.248T3021.57,2010Zm20.682-30.609h9.8a23.8,23.8,0,0,0,6.784-.846,14.328,14.328,0,0,0,4.2-1.858,6.231,6.231,0,0,0,2.109-2.932,11.714,11.714,0,0,0,.807-3.056q.084-1.136.083-3.076,0-2.025-.124-3.263a11.816,11.816,0,0,0-.848-3.055,6.4,6.4,0,0,0-2.068-2.828,13.091,13.091,0,0,0-4.116-1.817,24.078,24.078,0,0,0-6.659-.806h-9.969Z" fill="#040000"/>
      <path d="M3093.957,1981.313q0-13.575,8.439-21.958t22.75-8.381q14.063,0,22.563,8.3t8.5,22.041q0,13.186-8.377,21.413t-22.771,8.225q-14.229,0-22.666-8.163T3093.957,1981.313Zm12.946-1.281q0,12.029,3.475,18.559a15.813,15.813,0,0,0,6.474,6.654,17.273,17.273,0,0,0,8.21,2.15,15.911,15.911,0,0,0,14.312-8.06q3.888-6.448,3.889-19.3,0-11.7-3.558-17.69a15.832,15.832,0,0,0-6.391-5.972,17.889,17.889,0,0,0-16.131-.165,15.578,15.578,0,0,0-6.267,5.476Q3106.9,1967.84,3106.9,1980.032Z" fill="#040000"/>
      <path d="M3167.047,2008.553v-15.43a4.3,4.3,0,0,1,.289-2.026q.288-.414,1.737-.414a5.257,5.257,0,0,1,1.055.084,1.028,1.028,0,0,1,.6.331,1.108,1.108,0,0,1,.249.559,8.588,8.588,0,0,1,.041.975,14.221,14.221,0,0,0,2.42,7.506,12.328,12.328,0,0,0,5.521,4.479,30.24,30.24,0,0,0,6.226,1.865,34.127,34.127,0,0,0,5.853.5q5.913,0,8.459-3.044a10.12,10.12,0,0,0-.851-14.274,6.831,6.831,0,0,0-3.03-1.7q-1.665-.418-7.721-1.949a85.771,85.771,0,0,1-10.548-2.8,16.747,16.747,0,0,1-5.709-3.962,15.958,15.958,0,0,1-4.591-11.324,16.289,16.289,0,0,1,4.944-12.063q4.944-4.885,14.128-4.886,8.685,0,14.544,4.552l4.014-3.658a3,3,0,0,1,1.745-.894h.043q1.09,0,1.353.455a4.448,4.448,0,0,1,.262,1.9v15.512a3.734,3.734,0,0,1-.316,1.944q-.317.412-1.894.413a3.019,3.019,0,0,1-1.713-.29,4.22,4.22,0,0,1-.586-1.913,18.138,18.138,0,0,0-3.8-8.854,14.163,14.163,0,0,0-6.1-4.51,21.246,21.246,0,0,0-6.926-1.1q-5.6,0-8.073,2.734a8.874,8.874,0,0,0-2.477,6.1,7.821,7.821,0,0,0,2.273,5.8,10.9,10.9,0,0,0,4.969,2.959l12.294,2.57a19.739,19.739,0,0,1,10.947,6.266,17.018,17.018,0,0,1,4.511,11.842,18.193,18.193,0,0,1-5,12.714q-5,5.436-15.038,5.436-10.328,0-16.414-4.634l-4.25,3.855a3.052,3.052,0,0,1-1.762.779q-1.131,0-1.4-.475A4.478,4.478,0,0,1,3167.047,2008.553Z" fill="#040000"/>
      <path d="M3218.959,2010v-3.971h9.141v-50.175h-9.141v-3.97q3.225.247,15.159.248t15.16-.248v3.97h-9.141v21.964h27.176v-21.964h-9.141v-3.97q3.225.247,15.159.248t15.16-.248v3.97h-9.141v50.175h9.141V2010q-3.225-.247-15.16-.248t-15.159.248v-3.971h9.141V1981.79h-27.176v24.239h9.141V2010q-3.226-.247-15.16-.248T3218.959,2010Z" fill="#040000"/>
      <path d="M3295.358,2010v-3.971h1.779a21.275,21.275,0,0,0,5.584-.435,2.549,2.549,0,0,0,1.613-1.516l21.014-50.995a6.319,6.319,0,0,1,.579-1.323,1.932,1.932,0,0,1,.888-.642,4.95,4.95,0,0,1,1.841-.268,6.367,6.367,0,0,1,1.365.1,2.816,2.816,0,0,1,1.014.6,3.76,3.76,0,0,1,1.013,1.53l21.675,52.946h8.231V2010q-2.978-.247-13.815-.248-11.706,0-14.933.248v-3.971h8.066l-5.087-12.409h-22.709l-4.219,10.292a1.352,1.352,0,0,0-.331,1q0,1.12,7.528,1.121V2010q-3.144-.247-11.168-.248Q3305,2009.752,3295.358,2010Zm19.814-20.352h19.316l-9.637-23.535Z" fill="#040000"/>
      <path d="M3415.757,1991.149v-5.671l42.178-52.945a5.467,5.467,0,0,1,1.682-1.626,7.3,7.3,0,0,1,2.452-.266q2.432,0,3.027.65t.593,3.194v50.993h11.7v5.671h-11.7v13.178h11.7V2010q-4.25-.354-19.594-.354-16.164,0-20.766.354v-5.673h13.177v-13.178Zm6.2-5.671h29.9v-37.524Z" fill="#040000"/>
      <path d="M3488.263,2010v-2.187a7.935,7.935,0,0,1,.232-2.481,6.584,6.584,0,0,1,1.282-1.6l24.154-24.818q13.095-13.294,13.095-25.173a18.421,18.421,0,0,0-4.237-12.291q-4.236-5.022-11.761-5.022a18.739,18.739,0,0,0-12.389,4.195,12.337,12.337,0,0,1,2.623,1.034,8.739,8.739,0,0,1,2.739,2.747,8.4,8.4,0,0,1,1.457,4.964,7.873,7.873,0,0,1-2.711,6.471,9.151,9.151,0,0,1-5.916,2.216,9.522,9.522,0,0,1-5.771-2.1q-2.8-2.1-2.8-6.825,0-8.1,7.383-13.237t18.4-5.14q12.852,0,21.159,6.293a19.807,19.807,0,0,1,8.3,16.575,21.6,21.6,0,0,1-1.2,7.505,20.838,20.838,0,0,1-4.561,6.824,62.326,62.326,0,0,1-6.229,5.88q-2.865,2.3-9.355,7.091-5.689,4.137-17.468,13.946h17.687q10.929,0,12.28-.71,1.587-.826,3.173-11.05h5.673L3539.73,2010Z" fill="#040000"/>
      <path d="M3556.689,1990.454q0-13.521,15.482-20.31-11.642-6.585-11.581-18.329a19.693,19.693,0,0,1,6.588-15.243q6.588-5.991,18.7-5.991,10.991,0,17.9,4.5t6.914,13.45q0,10.392-12.232,16.65,3.249,1.947,5.2,3.217a38.051,38.051,0,0,1,4.9,4.045,18.129,18.129,0,0,1,4.462,6.525,23.554,23.554,0,0,1-6.116,25.639q-7.623,6.75-21.509,6.749-12.586,0-20.652-5.241T3556.689,1990.454Zm10.4,0a14.152,14.152,0,0,0,4.963,11.365q4.964,4.223,13.828,4.222a38.6,38.6,0,0,0,7.918-.768,15.564,15.564,0,0,0,7-3.661,9.586,9.586,0,0,0,3.339-7.616,8.526,8.526,0,0,0-1.507-4.959,13.27,13.27,0,0,0-3.132-3.336,58.711,58.711,0,0,0-5.17-3.1q-13.533-7.617-16.546-9.152Q3567.089,1979.472,3567.09,1990.454Zm2.541-45.7q0,4.251,5.377,7.262l18.14,10.155q8.451-5.549,8.451-13.521a11.889,11.889,0,0,0-4.285-9.682q-4.284-3.545-11.906-3.543a31.286,31.286,0,0,0-4.609.325,36.345,36.345,0,0,0-4.964,1.151,9.184,9.184,0,0,0-4.491,2.833A7.46,7.46,0,0,0,3569.631,1944.756Z" fill="#040000"/>
      <path d="M3625.944,1977.44q-.058-2.421-.058-6.056t.058-6.061q.059-2.426.68-7.072a47.877,47.877,0,0,1,1.655-7.932,42.331,42.331,0,0,1,3.191-7.28,21.737,21.737,0,0,1,5.14-6.48,25.136,25.136,0,0,1,7.742-4.173,32.246,32.246,0,0,1,10.813-1.687,31.531,31.531,0,0,1,10.844,1.746,26.4,26.4,0,0,1,7.741,4.173,21.368,21.368,0,0,1,5.141,6.481,43.957,43.957,0,0,1,3.22,7.28,44.65,44.65,0,0,1,1.625,7.872q.591,4.647.65,7.072t.059,6.061q0,3.635-.059,6.116t-.65,7.031a43.7,43.7,0,0,1-1.625,7.741,39.208,39.208,0,0,1-3.22,7.062,21.515,21.515,0,0,1-5.2,6.293,25.781,25.781,0,0,1-7.8,4.077,32.6,32.6,0,0,1-10.7,1.655,31.982,31.982,0,0,1-10.814-1.713,27.274,27.274,0,0,1-7.771-4.078,20.373,20.373,0,0,1-5.14-6.293,42.932,42.932,0,0,1-3.191-7.061,43.683,43.683,0,0,1-1.655-7.741A69.979,69.979,0,0,1,3625.944,1977.44Zm15.423-7.5q0,19.265,1.123,25.528,1.064,5.909,4.875,8.716a13.07,13.07,0,0,0,7.83,2.806,14.321,14.321,0,0,0,4.727-.8,12.161,12.161,0,0,0,4.905-3.87,15.83,15.83,0,0,0,3.309-8.273q.828-6.263.827-24.109,0-22.749-2.067-27.241a11.859,11.859,0,0,0-4.846-5.673,13.12,13.12,0,0,0-6.855-1.95,16.611,16.611,0,0,0-4.432.62,11.893,11.893,0,0,0-5.023,3.576,13.409,13.409,0,0,0-3.368,7.8Q3641.367,1953.333,3641.367,1969.936Z" fill="#040000"/>
    </g>
    <g>
      <g>
        <path d="M3530.479,1855.9a2.675,2.675,0,0,1,.214-.688,8.641,8.641,0,0,1,.781-1.412,8.811,8.811,0,0,1,1.4-1.655,7.066,7.066,0,0,1,2.323-1.348,9.23,9.23,0,0,1,3.31-.568,8.71,8.71,0,0,1,6.5,2.545,8.564,8.564,0,0,1,2.5,6.24,6.738,6.738,0,0,1-.326,2.069,11.134,11.134,0,0,1-.688,1.708,9.2,9.2,0,0,1-1.357,1.781q-.994,1.086-1.618,1.66t-2.24,2.014q-1.617,1.438-2.454,2.236l-3.124,2.969h1.283l7.92-.074h.893a1.519,1.519,0,0,1,1.711,1.726v.694a1.519,1.519,0,0,1-1.711,1.725h-13.256a2.787,2.787,0,0,1-1-.148.905.905,0,0,1-.529-.495,2.054,2.054,0,0,1-.168-.5c-.012-.106-.031-.283-.056-.532v-.616a1.409,1.409,0,0,1,.335-.914q.222-.26,5.187-5.577.185-.185.892-.927t.948-1.011l.874-.975a10.956,10.956,0,0,0,.874-1.066q.241-.361.725-1a4.988,4.988,0,0,0,.67-1.114c.123-.316.275-.683.455-1.1a5.081,5.081,0,0,0,.362-1.234,8.086,8.086,0,0,0,.094-1.252,5.688,5.688,0,0,0-1.107-3.527,3.715,3.715,0,0,0-3.151-1.465,3.821,3.821,0,0,0-2.427.762,4.028,4.028,0,0,0-1.338,1.7q-.363.939-.66,1.7t-.539.761a.5.5,0,0,1-.316-.139,3.541,3.541,0,0,1-.307-.288,3.747,3.747,0,0,1-.325-.418,2.961,2.961,0,0,0-.261-.344c-.148-.174-.312-.375-.492-.605s-.307-.386-.382-.473a2.764,2.764,0,0,1-.232-.326,2.017,2.017,0,0,1-.157-.289A.515.515,0,0,1,3530.479,1855.9Z" fill="#040000"/>
        <path d="M3551.265,1865.179V1863.9q0-8.533,2.869-11.434a7.961,7.961,0,0,1,5.98-2.232,8.528,8.528,0,0,1,4.117.929,7.256,7.256,0,0,1,2.6,2.219,10.345,10.345,0,0,1,1.4,3.287,19.181,19.181,0,0,1,.605,3.444q.095,1.449.095,3.417v.242q0,.186.018.694c.012.34.019.627.019.862q0,2.142-.151,3.8a17.454,17.454,0,0,1-.7,3.482,8.9,8.9,0,0,1-1.495,3.008,7.168,7.168,0,0,1-2.607,1.965,9.236,9.236,0,0,1-3.962.782,7.767,7.767,0,0,1-6.129-2.361Q3551.265,1873.062,3551.265,1865.179Zm5.206-1q0,7.171.671,9.006a4.534,4.534,0,0,0,1.052,1.612,2.54,2.54,0,0,0,1.9.778,2.45,2.45,0,0,0,1.864-.759,4.849,4.849,0,0,0,1.035-1.594q.726-1.926.727-8.969v-.26q0-4.28-.16-6.161a8.841,8.841,0,0,0-.642-2.918,3.032,3.032,0,0,0-2.833-1.89,2.837,2.837,0,0,0-2.256,1.019,5.007,5.007,0,0,0-1.155,2.974Q3556.471,1858.968,3556.471,1864.175Z" fill="#040000"/>
        <path d="M3572.2,1865.179V1863.9q0-8.533,2.869-11.434a7.965,7.965,0,0,1,5.981-2.232,8.534,8.534,0,0,1,4.117.929,7.256,7.256,0,0,1,2.6,2.219,10.368,10.368,0,0,1,1.4,3.287,19.193,19.193,0,0,1,.606,3.444q.093,1.449.094,3.417v.242q0,.186.019.694t.018.862q0,2.142-.15,3.8a17.525,17.525,0,0,1-.7,3.482,8.9,8.9,0,0,1-1.495,3.008,7.164,7.164,0,0,1-2.608,1.965,9.23,9.23,0,0,1-3.962.782,7.77,7.77,0,0,1-6.129-2.361Q3572.2,1873.062,3572.2,1865.179Zm5.206-1q0,7.171.671,9.006a4.537,4.537,0,0,0,1.053,1.612,2.539,2.539,0,0,0,1.9.778,2.451,2.451,0,0,0,1.865-.759,4.849,4.849,0,0,0,1.035-1.594q.726-1.926.726-8.969v-.26q0-4.28-.159-6.161a8.813,8.813,0,0,0-.643-2.918,3.031,3.031,0,0,0-2.833-1.89,2.836,2.836,0,0,0-2.255,1.019,5.014,5.014,0,0,0-1.156,2.974Q3577.406,1858.968,3577.405,1864.175Z" fill="#040000"/>
        <path d="M3608.118,1875.739V1851.7q0-1.673,1.825-1.673h1.111a2.592,2.592,0,0,1,1.081.2,1.014,1.014,0,0,1,.564.557,2.4,2.4,0,0,1,.159.549c.013.124.02.3.02.539v14.112l2.77-2.585a39.362,39.362,0,0,1,3.253-2.891,3.145,3.145,0,0,1,1.748-.419h2.51q.837.037.948.688a1.95,1.95,0,0,1-.706,1.107q-.669.642-5.726,5.289.036.038,6.581,8.645a1.885,1.885,0,0,1,.39.875q0,.835-1.152.835h-2.008a2.853,2.853,0,0,1-1.162-.185,3.189,3.189,0,0,1-.976-.911l-4.8-6.322-1.748,1.6v4.147q0,1.672-1.826,1.672h-.973a2.987,2.987,0,0,1-1.083-.167.982.982,0,0,1-.575-.493,2.327,2.327,0,0,1-.189-.557A3.485,3.485,0,0,1,3608.118,1875.739Z" fill="#040000"/>
        <path d="M3627.92,1875.813v-14.241a1.5,1.5,0,0,1,1.71-1.674h1.524a3.556,3.556,0,0,1,.586.038,2.825,2.825,0,0,1,.539.168.842.842,0,0,1,.475.492,2.505,2.505,0,0,1,.148.938v.763q.726-.687,1.144-1.051a9.566,9.566,0,0,1,5.066-1.589,7.388,7.388,0,0,1,3.475.669,3.97,3.97,0,0,1,1.807,2.156,7.844,7.844,0,0,1,6.336-2.825,8.269,8.269,0,0,1,2.762.4,4.868,4.868,0,0,1,1.679.92,3.259,3.259,0,0,1,.849,1.487,7.388,7.388,0,0,1,.327,1.6q.036.631.037,1.766v9.984a1.943,1.943,0,0,1-.364,1.274,1.786,1.786,0,0,1-1.409.436h-1.679a3.605,3.605,0,0,1-.55-.037,1.581,1.581,0,0,1-.42-.111,1.025,1.025,0,0,1-.28-.177,1.85,1.85,0,0,1-.215-.232,2.114,2.114,0,0,1-.158-.223.7.7,0,0,1-.076-.288,1.268,1.268,0,0,0-.037-.251,1.057,1.057,0,0,1-.018-.242v-10.579c0-.484-.012-.852-.037-1.106a3.143,3.143,0,0,0-.243-.874,1.359,1.359,0,0,0-.69-.725,2.993,2.993,0,0,0-1.286-.233,3.637,3.637,0,0,0-2.592.967,5.143,5.143,0,0,0-1.417,2.194,7.722,7.722,0,0,0-.186,1.971v8.1a2.511,2.511,0,0,1-.093.5,2.355,2.355,0,0,1-.25.623,1.683,1.683,0,0,1-.491.492,1.423,1.423,0,0,1-.833.232h-1.742a1.824,1.824,0,0,1-1.426-.436,1.921,1.921,0,0,1-.371-1.274v-10.6a3.781,3.781,0,0,0-.456-2.129,2,2,0,0,0-1.738-.642,4.014,4.014,0,0,0-2.937,1.274,4.833,4.833,0,0,0-1.265,3.56v8.534a1.511,1.511,0,0,1-1.71,1.71H3629.7Q3627.92,1877.523,3627.92,1875.813Z" fill="#040000"/>
      </g>
      <polyline points="3679.74 1877.524 3679.74 1895.522 3249.517 1895.522 3249.517 1877.524" fill="none" stroke="#040000" stroke-miterlimit="10"/>
    </g>
  </g>
</svg>
