<svg xmlns="http://www.w3.org/2000/svg" width="3840" height="2160" viewBox="0 0 3840 2160">
  <rect width="3840" height="2160" fill="#5e95b4"/>
  <g>
    <path d="M3407.559,2266.936h-29.228c-12.524-12.524-24.317-23.99-35.7-35.774-17.771-18.425-26.037-37.1-37.339-74.593-4.989-16.791-11.63-33.822-21.367-48.152-4.584-6.709-18.184-7.2-27.267-10.314V1990.265c-14-12.524-32.015-28.574-50.93-45.442,12.447-50.354-15.724-88.02-33.65-121.584H2096.434l-189.14-189.226H1757.127l-15.233-15.234-15.5,4.568-6.194,1.823-.008-.008-36.918-30.209h-.035l-94.867,1.23-161.142,1.884-78.679-32.342-.069.008-43.008,3.019-.043-.008-52.108-14.976h-.077l-75.583,3.037-.017-.026-28.394-30.114h-.12l-83.479.576v-.017h-.155l-115.3-45.778-83.048-45.124-48.806,15.8L712.119,1382.6H670.6v-25.633l-35.378-8.6-34.235-19.491v-29.314H586.329l-23.336-52.5,9.909-30.553s41.52-30.458,46.431-29.237c4.835,1.153,18.262,20.722,18.262,20.722l64.778-30.544,6.064-24.4,36.609-32.927,8.593-12.2h17.04c3.681,0,29.314-6.142,29.314-6.142l4.911-36.608,18.27-40.3-42.672-8.515s1.144-31.775,3.6-35.456c2.46-3.6-25.633-54.956-43.894-47.584-18.347,7.285-87.96-4.912-73.294-26.863s-8.525-30.544-8.525-30.544,24.326-34.148-9.823-31.7-38.982-25.383-32.927-26.7c6.151-1.385,14.666-34.39,19.578-37.994,4.834-3.69,6.055-41.52,6.055-41.52l24.411,2.452,46.432-53.717s-5.651-24.085-18.752-22.442c-13.022,1.635-8.111-24-3.277-52.091,4.912-28.007-14.579-42.664-7.285-62.241,7.285-19.491,2.451-26.854,4.911-42.741,2.374-15.81,20.721-75.677,20.721-75.677s-2.374-49.958-10.4-42.1c1.884-2.451,8.163-10.287,17.47-21.968-10.881-5.737-20.936-11.036-30.51-16.1-23.826,5.152-27.921,37.09-55.515,33.245-5.324-4.757-11.294-10.073-17.521-15.646-38.32-.241-38.484-.4-74.18,15.887-8.929,4.094-17.849,14.906-25.306,13.59-8.593-1.471-14.821-11.87-26.364-14.9-11.621-3.113-21.04-15.311-30.622-24.4-12.851-12.2-23.25-8.679-33.9,2.864-18.588,19.895-27.508-1.471-43.558-12.361-9.083,12.283-18.752,25.384-26.614,36.024-17.762-2.778-31.843,3.767-42.741-9.083-12.773-14.984-28.9-8.112-43.885-5.075-9.9,9.9-19.569,19.56-29.228,29.228-15.475-.817-30.622,3.441-45.2-9.909-8.1-7.449-24.721-5.565-45.932-9.419-4.912-6.8-14.408-19.973-20.309-28.084-28.738-1.634-50.19-2.778-71.643-3.931C39.629,328.608,18.83,336.883.9,335.739c-13.591-.817-27.594,1.471-40.858-.817-6.873-1.153-12.61-9.015-20.386-15.07H-194.464c-6.391-7.613-13.513-20.308-24.239-27.757a189.262,189.262,0,0,0-40.367-20.472c-16.782-6.305-38.4,1.643-56.573-2.452-16.954-3.853-30.132-20.059-50.767-15.809-10.072,2.047-21.048,2.047-29.314-8.017-12.61-15.234-15.311,4.748-28.084,8.352h-59.936c-17.685-24.489-43.808-13.926-66.895-16.79-4.258-.568-7.208-8.353-11.793-10.8-8.842-4.671-19.654-6.391-27.508-12.206-10.562-7.775-19.078-18.338-24.815-24.067-21.693-1.806-41.1,2.125-52.8-5.574-21.539-14.158-50.853-18.579-61.493-45.193h-34.716c-25.22-21.615-25.22-21.615-45.279-3.767-28.248,24.97-27.267,22.6-67.961,6.632-18.829-7.449-37.09-16.378-55.111-24.971-50.844-24.239-50.1-26.123-87.117-26.776-13.754-.25-24.557-2.7-36.514-11.793-8.274-6.383-29.15-7.7-36.849-1.72-32.256,25.142-66.481,10.648-100.054,10.158-11.216-17.848-18.261-5.324-29.563,1.393-7.94,4.826-18.743,4.662-27.749,12.112-13.186,10.812-31.121,11.629-43.318-.654-11.706-11.707-24.239-9.746-37.253-9.582-15.8.172-14.657,12.042-14.33,32.342,13.263,10.321,32.092,24.815,52.65,40.616-32.918,14.735-7.286,51.834-34.389,64.358-.25.077.567,4.094,1.883,5.487,3.519,4.095,7.613,7.776,11.294,11.544-2.941,9.909-13.59,13.427-16.291,25.46-4.507,19.982-22.6,36.033-43.645,54.535-2.047,1.8,5.738,14.657,9.006,22.519-14.571,5.074-29.555,9.246-40.281,21.366-31.112-6.959-16.945,27.43-32.832,35.869-17.358,9.246,4.748,32.342-11.793,43.8-7.449,1.97-18.752,1.557-21.452,6.227-8.92,15.062-16.782,31.525-20.713,48.393-1.48,6.546,8.593,15.715,13.264,23.414-10.727,10.726-20.386,20.308-30.132,30.131-2.537,28.987,2.624,58.706-2.95,86.627-12.12,4.094-21.616,7.285-30.622,10.4,0,13.1,4.421,29.8-.817,33.822-24.644,18.992-10.649,45.356-15.887,65.01-25.788,20.059-59.523,22.838-81.3,50.758,0,8.679-.413,19.406.163,30.132,1.058,21.125,23.173,50.362,43.395,62.809a206.4,206.4,0,0,0,26.854,14.244c16.464,7.122,32.832,19.646,27.921,43.146-2.623,12.61,7.776,18.588,13.35,27.353,3.354,5.238.567,14.407.567,24.643h-61.08c-8.266,12.034-17.435,25.461-23.74,34.639-9.832,0-13.186,1.058-15.147-.164-6.641-4.094-12.86-9.014-23.749-16.953-18.666,1.307-42.415,3.027-66.155,4.748-22.192,25.383-51.92,5.488-76.477,13.186-11.466,3.6-20.962,12.773-33.736,17.436-18.261,6.717-29.8,26.037-50.844,35.051-20.394,8.67-42.577,17.358-61.252,29.555-16.618,10.89-32.419,20.876-50.93,14.821-22.923-7.535-28.9,26.613-50.594,17.272-5.325,10.648-10.649,21.211-18.588,37.176-8.929-37.83-48.8-6.391-60.676-34.88-.241-.49-4.258-.249-5.479.817-4.181,3.519-7.862,7.613-13.273,12.937-14.571,0-31.275,2.624-46.749-.653-19.483-4.1-26.613,16.618-42.492,16.781-4.748,0-10.812-1.961-14-5.238-10.476-10.726-18.751-14.33-34.389-5.325-23.99,13.84-46.835,34.312-78.687,27.268-12.524-2.779-18.425,10.812-27.181,12.936-17.358,4.344-36.2,2.951-50.93,3.69l-32.833-32.84h-32.264c-11.466-10.968-22.683-21.78-34.062-32.669-14.167,18.424-38.648,17.934-52.565,35.619-14.493,18.425-41.924,19.732-57.071,40.453-12.524,17.272-30.536,30.536-45.847,45.356,6.133,6.882,11.131,12.533,16.291,18.339-18.1,16.627-31.12,35.215-42.087,56.908-13.023,25.633,1.557,53.055-11.139,78.361-11.217,4.258-26.037,2.95-33.323,16.541-24.316-1.884-22.846,22.347-34.467,32.909-16.867,15.475,6.22,19.732,4.663,29.727-4.748,1.962-9.333,5.239-14.167,5.488-20.79,1.385-43.8-5.651-58.62,16.619-15.56,1.23-29.564-.25-45.116,10.975-12.773,9.247-35.946,4.748-54.534,5.239-21.529.653-43.145.163-56.581.163-47.816,24.893-53.949,70.576-76.3,105.051-13.186,20.223-25.873,45.116-20.394,73.441,1.883,9.668,1.23,24.48-4.748,30.054-17.195,16.128-8.679,35.284-11.131,53.141-2.46,17.762-21.779,28.815-17.117,50.68,3.854,18.175.74,37.83.74,56.091,4.671,4.585,11.629,8.266,11.87,12.361,2.624,45.528,4.258,91.134,6.064,133.548-18.674,18.666-34.148,34.054-49.536,49.537-.9,12.936-1.807,25.787-3.278,46.663-17.117-11.13-33.658,4.181-45.365-10.726-1.961-9.659-3.44-17.108-4.748-23.663-29.065-5.892-53.467-5.075-76.967,12.86a86.868,86.868,0,0,1-66.481,17.031c-8.026-1.144-20.722-3.6-23.827.4-19,23.912-44.221,14.253-67.471,15.4-11.466-10.726-21.048-27.508-39.791-9.006a35.373,35.373,0,0,1-20.472,9.006L3501.97,2336.54C3456.442,2335.06,3443.591,2287.984,3407.559,2266.936Z" fill="#c1c0c0"/>
    <polygon points="1907.291 1634.012 1757.123 1634.012 1741.895 1618.783 1766.869 1611.495 1673.525 1559.256 1688.182 1511.685 1751.31 1522.657 1779.56 1506.281 1907.291 1634.012" fill="#22bf8b"/>
    <path d="M3305.214,1392.387v32.587c-10.071,10.071-19.651,19.734-29.394,29.478-2.62,22.925-2.62,47.326-28.9,58.788l-11.79-11.79c-19.571,3.848-24.238,25.791-42.579,32.342,5.569,49.947-46.425,82.617-34.635,133.954,5.078,22.108-17.111,36.273-21.861,56.333-.82,3.44-13.837,4.094-21.943,6.223-10.481,11.3-3.276,25.464-4.75,38.4-1.145,10.727-.246,21.781-.246,32.589,15.8,18.423,36.928.245,59.527,15.311q1.595,3.316,3.438,6.633H2096.432l-141.9-141.979-47.244-47.245L1779.56,1506.281l23.908-13.838-20.06-91.95,35.7-17.849,31.114-50.356,6.387-65.013s-21.044-65.012-21.943-67.714c-.984-2.783,25.627-62.309,25.627-62.309l-51.256-23.745,32.915-82.452V925.021H1889.2c15.558-15.476,30.95-30.869,47.572-47.49h86.055c6.469,19,11.79,36.846,30.623,47.572,53.221,0,107.67-.164,162.2.163,18.914.082,35.372,0,51.666-15.311,9.008-8.516,29.8,3.111,44.052-12.118,7.041-7.533,24.646-5.323,38.319-7.615,12.036-18.587,41.595-26.12,39.712-56l55.676-23.745c27.677-2.457,60.92-15.967,84.091-34.144,23.992-18.669,54.532-31.523,77.131-31.2,13.181.246,30.213-2.7,38.729,4.176,20.224,16.376,52.238,15.721,59.772,47.573,17.029-16.95,30.541-30.459,44.05-44.051,0-8.024-1.883-16.785.492-24.236,3.766-11.955,9.007-23.909,16.212-34.062,12.282-17.195,26.446-32.916,38.4-47.491h84.5c9.989,9.99,18.259,21.944,29.56,28.74,14.245,8.6,6.63,25.219,16.865,34.553,4.012,3.685,40.776,42.251,45.526,45.115,12.937,8.025,30.786,7.371,39.874,22.272,18.75-6.551,24.727,18.668,42.333,16.7,13.263-1.473,26.774-.327,42.986-.327,2.457,16.458,4.668,31.605,6.959,46.917,17.851-5,24.645-20.306,36.517-29.559,24.32,14.739,35.291,47.655,68.452,50.11,8.6,12.691,7.207,31.032,22.6,39.793.738,23.5-5.4,48.554,16.376,66.895V1030.4c-6.387,7.86-10.809,13.428-15.149,18.751,5.16,5.157,9.09,9.006,15.149,15.147,0,27.43.328,57.152-.082,86.874-.246,16.376.738,30.295,14.329,43.723,9.171,9.089-.164,31.851-17.685,54.122,17.685,15.231,36.026,30.951,52.156,44.87,4.257,30.05-30.459,32.343-32.424,56.906C3274.183,1371.1,3296.536,1377.075,3305.214,1392.387Z" fill="#a2c121"/>
    <path d="M1860.292,1137.156l-51.267-23.75,32.923-82.468V924.883h-91.887c-5.978,8.68-15.231,22.193-19.574,28.417-41.847,17.2-52.658-18.671-81.485-31.939-10.237,22.521-41.194,13.35-54.706,36.362H1512.4l-11.547-11.548c-3.848-3.848-11.63-8.763-10.974-11.464,5.486-21.376-22.03-28.582-19.982-50.2.82-8.68-22.03-19.245-13.35-33.249,6.306-10.155,14.413-24.324,30.139-24.242,9.663,0,14.493-3.93,17.606-12.12,4.177-10.892,8.518-21.783,12.858-32.676-3.93-3.849-7.781-7.7-16.3-16.215,19.081-14.5,38.245-28.909,51.675-39.064v-41.03c-7.78-7.288-15.4-14.5-22.929-21.62-6.388-5.9-12.694-11.875-19-17.771-26.943,3.767-19.572-16.134-23.5-30.957-5.079-19.655-23.013-35.788-15.562-58.883-15.723-17.525-39.718-30.383-32.84-60.192-15.395-16.134-12.94-38.737-20.8-56.836-4.83-10.973-8.271-24.814-16.379-33.823-6.142-6.8-18.18-8.025-27.271-12.284-11.465-5.323-22.6-11.3-33.74-16.871V339.168c30.874-5.16,25.714-41.03,45.78-58.965,3.6-3.276,3.439-17.607-.246-20.883-11.466-10.319-12.858-22.03-13.186-36.034-.492-21.948-18.508-61.913-32.594-76.408-13.348-13.677-26.944-27.108-41.52-41.6-6.634,1.228-14.087,2.62-20.8,3.849-5.407,42.667-5.653,42.34-38.083,62.65-11.055,6.961-20.064,17.034-30.875,24.486-10.154,6.88-29.317,10.647-30.71,18.345-3.029,16.625-7.288,24.65-24.569,22.439-12.448,18.427-38.818,14.168-50.775,30.711-8.353-5.733-16.706-11.547-27.843-19.164-30.547,30.466-59.046,58.965-87.384,87.3-13.43-3.358-25.96,2.129-39.472-6.633-23.341-15.315-25.634-15.069-49.137-1.638-10.237,5.814-19.164,7.288-29.647,7.78-10.565.573-25.8-2.13-30.711,3.685-17.934,21.21-40.456,9.746-66.008,13.431-7.37,9.336-17.279,22.111-24.894,31.857-11.631-6.142-22.278-11.712-32.269-16.952-9.335,11.711-15.641,19.572-17.524,22.029,8.025-7.861,10.4,42.095,10.4,42.095s-18.344,59.865-20.719,75.671c-2.458,15.888,2.375,23.258-4.915,42.749-7.288,19.573,12.2,34.233,7.29,62.24-4.833,28.091-9.747,53.724,3.275,52.086,13.1-1.638,18.754,22.44,18.754,22.44l-46.434,53.723L641.28,738s-1.228,37.835-6.058,41.521c-4.915,3.6-13.432,36.607-19.575,38-6.06,1.31-1.227,29.155,32.923,26.7S658.4,875.91,658.4,875.91s23.177,8.6,8.517,30.546,54.951,34.151,73.3,26.861c18.262-7.369,46.354,43.979,43.9,47.582-2.458,3.685-3.605,35.461-3.605,35.461l42.669,8.517-18.263,40.293-4.914,36.607s-25.634,6.142-29.319,6.142H753.642l-8.6,12.2-36.607,32.922-6.06,24.405-64.78,30.546s-13.43-19.572-18.263-20.719c-4.912-1.228-46.434,29.237-46.434,29.237l-9.909,30.547,23.339,52.5h14.66v29.318l34.234,19.491,35.377,8.6V1382.6H712.12l106.218,69.529,48.81-15.805,83.043,45.123,115.307,45.779,83.617-.573,28.417,30.138,75.671-3.031,52.166,14.988,43.077-3.03,78.7,32.349,161.169-1.885,94.917-1.228,36.935,30.22,46.68-13.677-93.362-52.25,14.66-47.58,63.141,10.974,52.168-30.22-20.064-91.969,35.7-17.852,31.121-50.366,6.388-65.025s-21.048-65.025-21.947-67.728C1833.676,1196.694,1860.292,1137.156,1860.292,1137.156Zm-743.282,292.2c-8.843-2.784-8.763-20.146-.574-26.288,1.23-.9,4.915-1.065,5.325-.41,2.293,4.34,3.931,8.927,6.88,16.051C1125.118,1422.069,1119.631,1430.258,1117.01,1429.358Zm500.545-44.223c-25.388,25.386-50.2,50.119-78.866,78.782-14.987-1.063-41.03,11.712-58.718-14.577H1431c-5.57,5.078-11.384,10.4-17.28,15.724-7.7-7.7-14.5-16.624-23.339-22.766-10.237-7.208-22.114-12.121-33.5-17.609-24.323-11.956-58.393-14.74-82.059,1.639-20.966,14.5-28.746,1.638-40.21-9.337-5.735,5.16-11.549,10.319-17.281,15.4-1.965-1.884-5.4-3.685-5.568-5.814-1.392-15.971-2.212-32.022-3.521-54.215-8.764-6.716-21.622-16.543-30.465-23.341-4.833-32.758,23.011-39.227,32.512-59.783v-29.564c14.086-9.745,37.263-9.009,34.478-34.478,17.36-10.974,36.607-3.113,54.869-5.487,7.7-7.7,15.395-15.478,24.9-24.9-9.909-8.107-19.165-16.787-29.4-23.913-9.007-6.224-36.279-42.176-36.443-51.512-.409-18.917-.163-37.753-.163-55.115,9.253-9.172,16.952-16.952,24.568-24.651h164.528c3.275,3.522,6.307,8.681,10.811,11.22,13.758,7.534,9.007,24.814,17.689,33.413,8.763,8.517,24.323,5.241,33.658,17.444,11.548,14.987,26.534,27.353,40.048,40.865,0,0-43.487,34.315-43.569,34.315v44.878c9.417-6.961,14.577-10.891,18.344-13.759,16.789,5.079,33.086,9.991,60.358,18.181,4.421,5.569,16.215,20.392,32.594,40.866Z" fill="#93d9e5"/>
  </g>
  <g>
    <g>
      <line x1="694.497" y1="5363.498" x2="694.497" y2="-643.62" fill="none" stroke="#236b8b" stroke-miterlimit="10" opacity="0.5"/>
      <line x1="3314.63" y1="5363.498" x2="3314.63" y2="-643.62" fill="none" stroke="#236b8b" stroke-miterlimit="10" opacity="0.5"/>
    </g>
    <line x1="-676.694" y1="793.031" x2="4020.081" y2="793.031" fill="none" stroke="#e61f19" stroke-miterlimit="10" opacity="0.5"/>
    <g>
      <g>
        <path d="M1428.437,1692.759v-1.5q1.125.093,5.062.094,4.454,0,5.656-.094v1.5h-3l6.813,15.328,6.469-14.563a.279.279,0,0,1,.046-.109.481.481,0,0,0,.079-.266q0-.388-2.813-.39v-1.5q1.25.093,4.188.094c.26,0,.59-.005.992-.016s.869-.025,1.406-.047.94-.031,1.211-.031v1.5h-.594a10.705,10.705,0,0,0-1.7.1,1.591,1.591,0,0,0-.7.227,1.452,1.452,0,0,0-.25.375l-8.516,19.234a1.135,1.135,0,0,1-.508.641,1.982,1.982,0,0,1-.773.125,1.463,1.463,0,0,1-.836-.172,1.693,1.693,0,0,1-.445-.656l-8.828-19.875Z" fill="#040000"/>
        <path d="M1454.581,1713.212v-1.05H1457V1698.9h-2.417v-1.05q.854.066,4.1.065,3.543,0,4.517-.065v1.05h-3.019v13.267h2.308a5.047,5.047,0,0,0,1.515-.214,4.068,4.068,0,0,0,1.115-.513,3.292,3.292,0,0,0,.793-.81,6.262,6.262,0,0,0,.542-.886,4.929,4.929,0,0,0,.322-.984,8.314,8.314,0,0,0,.175-.9q.033-.29.114-.782h1.111l-.74,6.136Z" fill="#040000"/>
        <path d="M1470.105,1713.212v-1.05h2.549V1698.9h-2.549v-1.05q.919.066,4.141.065t4.139-.065v1.05h-2.548v13.267h2.548v1.05q-.918-.066-4.139-.066T1470.105,1713.212Z" fill="#040000"/>
        <path d="M1480.477,1713.212v-1.05h.646q.689,0,1.367-.065a2.343,2.343,0,0,0,.661-.116.877.877,0,0,0,.3-.267l4.528-5.94L1483,1698.9h-2.2v-1.05q.787.066,3.632.065,3.138,0,4.057-.065v1.05h-1.859l3.2,4.418,2.953-3.926a1.1,1.1,0,0,0,.088-.12,1.044,1.044,0,0,1,.088-.121,6.949,6.949,0,0,0-2.056-.251v-1.05q.808.066,3.4.065,2.056,0,3.008-.065v1.05h-.656a10.829,10.829,0,0,0-1.291.065,3.212,3.212,0,0,0-.728.1.926.926,0,0,0-.333.3l-3.763,4.954,5.666,7.843h2.2v1.05q-.787-.066-3.632-.066-3.139,0-4.047.066v-1.05h1.86l-3.9-5.4-3.7,4.911a1.143,1.143,0,0,0-.087.12,1,1,0,0,1-.088.12,6.912,6.912,0,0,0,2.056.252v1.05q-.809-.066-3.4-.066Q1481.418,1713.146,1480.477,1713.212Z" fill="#040000"/>
        <path d="M1500.569,1713.212v-1.05h2.417V1698.9h-2.417v-1.05q.853.066,4.009.065t4.008-.065v1.05h-2.417v5.807h7.186V1698.9h-2.417v-1.05q.852.066,4.008.065t4.009-.065v1.05h-2.417v13.267h2.417v1.05q-.853-.066-4.009-.066t-4.008.066v-1.05h2.417v-6.409h-7.186v6.409h2.417v1.05q-.853-.066-4.008-.066T1500.569,1713.212Z" fill="#040000"/>
        <path d="M1533.042,1703.488l.471-5.391h15.071l.471,5.391h-1.05c-.059-.627-.109-1.108-.153-1.443a5.782,5.782,0,0,0-.3-1.165,2.266,2.266,0,0,0-.6-.974,3.106,3.106,0,0,0-1.012-.536,4.934,4.934,0,0,0-1.591-.224h-1.7v13.016h3.424v1.05q-1.213-.066-5.02-.066t-5.021.066v-1.05h3.435v-13.016h-1.729a4.8,4.8,0,0,0-1.6.236,3.116,3.116,0,0,0-1.017.547,2.2,2.2,0,0,0-.58.962,6.994,6.994,0,0,0-.306,1.154q-.083.5-.148,1.443Z" fill="#040000"/>
        <path d="M1549.83,1713.212v-1.05h.47a5.615,5.615,0,0,0,1.476-.115.675.675,0,0,0,.427-.4l5.556-13.484a1.731,1.731,0,0,1,.153-.35.5.5,0,0,1,.235-.169,1.291,1.291,0,0,1,.487-.072,1.606,1.606,0,0,1,.361.028.747.747,0,0,1,.268.158.99.99,0,0,1,.268.4l5.731,14h2.177v1.05q-.788-.066-3.653-.066-3.1,0-3.949.066v-1.05h2.133l-1.345-3.281h-6.005l-1.116,2.722a.357.357,0,0,0-.087.262q0,.3,1.991.3v1.05q-.831-.066-2.953-.066Q1552.377,1713.146,1549.83,1713.212Zm5.238-5.381h5.108l-2.548-6.224Z" fill="#040000"/>
        <path d="M1582.665,1702.243a10.481,10.481,0,0,1,3.508-8.18,13.431,13.431,0,0,1,9.32-3.148,9.981,9.981,0,0,1,6.326,2.172l2.107-1.891a.928.928,0,0,1,.609-.281c.256,0,.414.058.476.172a1.8,1.8,0,0,1,.092.719v6.875a1.336,1.336,0,0,1-.131.773c-.087.089-.329.133-.729.133a1.255,1.255,0,0,1-.66-.1.988.988,0,0,1-.184-.57,7.855,7.855,0,0,0-2.545-4.734,6.875,6.875,0,0,0-4.658-1.766,10.136,10.136,0,0,0-4.023.766,7.007,7.007,0,0,0-2.789,2.015q-1.829,2.408-1.828,7,0,4.649,1.8,6.964a6.894,6.894,0,0,0,3.023,2.176,11.133,11.133,0,0,0,4.055.735,5.574,5.574,0,0,0,2.875-.674,2.454,2.454,0,0,0,1.25-2.271v-3.242h-4.61v-1.5q1.74.093,6.584.094,4.016,0,5.135-.094v1.5H1605.1v6.437q0,.891-.446.891a5.514,5.514,0,0,1-1.343-.563,8.759,8.759,0,0,1-1.794-1.14q-1.66,2.048-5.964,2.062-6.016,0-9.453-3.2A10.623,10.623,0,0,1,1582.665,1702.243Z" fill="#040000"/>
        <path d="M1610.252,1713.212v-1.05h2.417V1698.9h-2.417v-1.05h8.509a8.762,8.762,0,0,1,4.873,1.185,3.47,3.47,0,0,1,1.8,2.954,3.055,3.055,0,0,1-.939,2.167,5.776,5.776,0,0,1-2.8,1.444,3.566,3.566,0,0,1,2.533,2.619q0,.043.13.9c.087.572.138.9.151.988.05.333.092.608.125.828a4.536,4.536,0,0,0,.211.79,1.409,1.409,0,0,0,.484.7,1.353,1.353,0,0,0,1.729-.169,1.877,1.877,0,0,0,.5-1.148,2.1,2.1,0,0,1,.044-.262.315.315,0,0,1,.136-.17.57.57,0,0,1,.334-.082q.535,0,.536.492a2.314,2.314,0,0,1-.044.394,2.48,2.48,0,0,1-.214.6,2.879,2.879,0,0,1-.439.661,2.061,2.061,0,0,1-.795.52,3.181,3.181,0,0,1-1.207.214,7.139,7.139,0,0,1-3.238-.594,3.241,3.241,0,0,1-.876-.609,1.853,1.853,0,0,1-.463-.83,18.791,18.791,0,0,1-.282-2.536s-.02-.276-.059-.828a2.148,2.148,0,0,0-.593-1.38,2.611,2.611,0,0,0-2.021-.759h-2.653v6.234h2.417v1.05q-.81-.066-3.943-.066T1610.252,1713.212Zm5.469-8.094h2.592a6.28,6.28,0,0,0,1.793-.223,3.8,3.8,0,0,0,1.111-.492,1.643,1.643,0,0,0,.557-.775,3.089,3.089,0,0,0,.214-.808c.014-.2.022-.471.022-.813,0-.358-.011-.645-.033-.863a3.143,3.143,0,0,0-.224-.808,1.7,1.7,0,0,0-.547-.748,3.494,3.494,0,0,0-1.088-.481,6.415,6.415,0,0,0-1.762-.212h-2.635Z" fill="#040000"/>
        <path d="M1630.338,1713.212v-1.05h2.417V1698.9h-2.417v-1.05q.853.066,4.009.065t4.008-.065v1.05h-2.417v5.807h7.187V1698.9h-2.418v-1.05q.853.066,4.009.065t4.008-.065v1.05h-2.417v13.267h2.417v1.05q-.852-.066-4.008-.066t-4.009.066v-1.05h2.418v-6.409h-7.187v6.409h2.417v1.05q-.852-.066-4.008-.066T1630.338,1713.212Z" fill="#040000"/>
        <path d="M1650.959,1713.212v-1.05a14.283,14.283,0,0,0,1.6-.06,1.35,1.35,0,0,0,.6-.17,1.074,1.074,0,0,0,.268-.449l5.425-13.223a2.479,2.479,0,0,1-1.75-2.566,2.669,2.669,0,0,1,.728-1.958,2.6,2.6,0,0,1,1.936-.737,2.835,2.835,0,0,1,2.007.743,2.542,2.542,0,0,1,.8,1.952,2.5,2.5,0,0,1-1.859,2.566l5.709,13.9h2.177v1.05q-2.133-.064-3.544-.065-2.035,0-4.08.065v-1.05h2.172l-1.346-3.249h-6.043q-1.137,2.8-1.138,2.93,0,.319,1.926.319v1.05q-1.477-.064-2.986-.065Q1652.523,1713.147,1650.959,1713.212Zm5.239-5.349h5.13l-2.548-6.237Zm1.948-12.234c0,.226,0,.407.01.543a2.213,2.213,0,0,0,.1.5,1.241,1.241,0,0,0,.246.471,1.272,1.272,0,0,0,.471.3,1.985,1.985,0,0,0,.765.132,1.525,1.525,0,0,0,1.285-.455,2.222,2.222,0,0,0,.345-1.354c0-.226,0-.407-.011-.542a2.314,2.314,0,0,0-.1-.5,1.161,1.161,0,0,0-.246-.472,1.422,1.422,0,0,0-.471-.307,1.874,1.874,0,0,0-.76-.137,1.532,1.532,0,0,0-1.3.461A2.274,2.274,0,0,0,1658.146,1695.629Z" fill="#040000"/>
        <path d="M1671.123,1712.829v-4.08a1.129,1.129,0,0,1,.077-.535c.051-.073.2-.11.459-.11a1.376,1.376,0,0,1,.279.022.276.276,0,0,1,.159.088.291.291,0,0,1,.065.148,2.227,2.227,0,0,1,.011.257,3.761,3.761,0,0,0,.64,1.985,3.262,3.262,0,0,0,1.46,1.184,8,8,0,0,0,1.646.494,9.035,9.035,0,0,0,1.548.131,2.621,2.621,0,0,0,2.012-4.579,1.81,1.81,0,0,0-.8-.45l-2.042-.516a22.854,22.854,0,0,1-2.789-.74,4.433,4.433,0,0,1-1.51-1.048,4.219,4.219,0,0,1-1.214-2.994,4.308,4.308,0,0,1,1.308-3.19,5.09,5.09,0,0,1,3.736-1.292,6.076,6.076,0,0,1,3.845,1.2l1.061-.967a.8.8,0,0,1,.462-.237h.011c.193,0,.312.041.358.121a1.178,1.178,0,0,1,.069.5v4.1a1,1,0,0,1-.083.514q-.084.109-.5.109a.805.805,0,0,1-.453-.076,1.122,1.122,0,0,1-.155-.506,4.806,4.806,0,0,0-1.006-2.342,3.757,3.757,0,0,0-1.613-1.192,5.633,5.633,0,0,0-1.832-.291,2.758,2.758,0,0,0-2.135.723,2.346,2.346,0,0,0-.654,1.614,2.069,2.069,0,0,0,.6,1.532,2.888,2.888,0,0,0,1.315.782l3.25.68a5.215,5.215,0,0,1,2.9,1.657,4.5,4.5,0,0,1,1.192,3.131,4.812,4.812,0,0,1-1.321,3.362,5.141,5.141,0,0,1-3.976,1.438,6.99,6.99,0,0,1-4.34-1.226l-1.124,1.02a.816.816,0,0,1-.467.206c-.2,0-.322-.042-.37-.126A1.178,1.178,0,0,1,1671.123,1712.829Z" fill="#040000"/>
        <path d="M1684.747,1713.212v-1.05h2.417V1698.9h-2.417v-1.05q.852.066,4.008.065t4.009-.065v1.05h-2.417v5.807h7.186V1698.9h-2.418v-1.05q.853.066,4.009.065t4.008-.065v1.05h-2.417v13.267h2.417v1.05q-.852-.066-4.008-.066t-4.009.066v-1.05h2.418v-6.409h-7.186v6.409h2.417v1.05q-.853-.066-4.009-.066T1684.747,1713.212Z" fill="#040000"/>
        <path d="M1705.378,1713.212v-1.05h.471a5.615,5.615,0,0,0,1.476-.115.671.671,0,0,0,.426-.4l5.557-13.484a1.675,1.675,0,0,1,.153-.35.5.5,0,0,1,.235-.169,1.291,1.291,0,0,1,.487-.072,1.606,1.606,0,0,1,.361.028.747.747,0,0,1,.268.158,1,1,0,0,1,.268.4l5.731,14h2.177v1.05q-.789-.066-3.654-.066-3.095,0-3.948.066v-1.05h2.133l-1.346-3.281h-6l-1.116,2.722a.357.357,0,0,0-.087.262q0,.3,1.991.3v1.05q-.833-.066-2.954-.066Q1707.927,1713.146,1705.378,1713.212Zm5.239-5.381h5.108l-2.548-6.224Z" fill="#040000"/>
        <path d="M1738.214,1720.6a6.663,6.663,0,0,1,.391-1.094l12.531-29.375a.525.525,0,0,1,.071-.156c.046-.083.08-.146.1-.188s.052-.1.094-.18a.738.738,0,0,1,.125-.179.626.626,0,0,1,.156-.11.527.527,0,0,1,.234-.047.5.5,0,0,1,.375.164.542.542,0,0,1,.157.383,4.1,4.1,0,0,1-.25.8l-12.641,29.672q-.391.891-.8.891a.508.508,0,0,1-.383-.18A.58.58,0,0,1,1738.214,1720.6Z" fill="#040000"/>
        <path d="M1768.152,1699.321l.672-7.7h21.531l.672,7.7h-1.5q-.126-1.342-.219-2.062a8.254,8.254,0,0,0-.43-1.664,3.229,3.229,0,0,0-.851-1.391,4.411,4.411,0,0,0-1.445-.766,7.083,7.083,0,0,0-2.274-.32h-2.422v18.594h4.891v1.5q-1.734-.095-7.172-.094t-7.172.094v-1.5h4.906v-18.594h-2.468a6.862,6.862,0,0,0-2.289.336,4.5,4.5,0,0,0-1.454.781,3.174,3.174,0,0,0-.828,1.375,10.135,10.135,0,0,0-.437,1.649q-.117.718-.211,2.062Z" fill="#040000"/>
        <path d="M1791.826,1713.212v-1.05h.47a5.624,5.624,0,0,0,1.477-.115.675.675,0,0,0,.426-.4l5.557-13.484a1.675,1.675,0,0,1,.153-.35.5.5,0,0,1,.235-.169,1.291,1.291,0,0,1,.487-.072,1.618,1.618,0,0,1,.361.028.755.755,0,0,1,.268.158.989.989,0,0,1,.267.4l5.732,14h2.177v1.05q-.789-.066-3.654-.066-3.094,0-3.948.066v-1.05h2.133l-1.346-3.281h-6l-1.116,2.722a.353.353,0,0,0-.087.262q0,.3,1.99.3v1.05q-.831-.066-2.953-.066Q1794.375,1713.146,1791.826,1713.212Zm5.239-5.381h5.108l-2.548-6.224Z" fill="#040000"/>
        <path d="M1810.2,1703.488l.471-5.391h15.072l.47,5.391h-1.05q-.087-.94-.153-1.443a5.782,5.782,0,0,0-.3-1.165,2.256,2.256,0,0,0-.6-.974,3.106,3.106,0,0,0-1.012-.536,4.93,4.93,0,0,0-1.591-.224h-1.7v13.016h3.424v1.05q-1.213-.066-5.02-.066t-5.021.066v-1.05h3.435v-13.016H1814.9a4.8,4.8,0,0,0-1.6.236,3.116,3.116,0,0,0-1.017.547,2.209,2.209,0,0,0-.58.962,7.2,7.2,0,0,0-.306,1.154q-.082.5-.147,1.443Z" fill="#040000"/>
        <path d="M1826.987,1713.212v-1.05h.47a5.63,5.63,0,0,0,1.477-.115.675.675,0,0,0,.426-.4l5.557-13.484a1.742,1.742,0,0,1,.152-.35.5.5,0,0,1,.236-.169,1.287,1.287,0,0,1,.487-.072,1.6,1.6,0,0,1,.36.028.747.747,0,0,1,.268.158.99.99,0,0,1,.268.4l5.731,14h2.177v1.05q-.788-.066-3.653-.066-3.1,0-3.948.066v-1.05h2.132l-1.345-3.281h-6l-1.115,2.722a.353.353,0,0,0-.088.262q0,.3,1.991.3v1.05q-.831-.066-2.953-.066Q1829.536,1713.146,1826.987,1713.212Zm5.239-5.381h5.107l-2.548-6.224Z" fill="#040000"/>
        <path d="M1846.844,1713.212v-1.05h2.417V1698.9h-2.417v-1.05q.853.066,4.009.065t4.008-.065v1.05h-2.417v7.174l8.29-6.923c-.058-.014-.089-.029-.1-.043,0-.03-.067-.059-.2-.088a7.357,7.357,0,0,0-1.3-.12v-1.05q.809.066,3.269.065,1.389,0,2.285-.065v1.05h-.382a3.621,3.621,0,0,0-2.1.4l-5.381,4.484,6.049,7.93a.974.974,0,0,0,.447.371,4.479,4.479,0,0,0,1.084.077h.645v1.05q-.833-.066-3.27-.066c-2.014,0-3.328.022-3.949.066v-1.05a4.647,4.647,0,0,0,1.641-.186,1,1,0,0,0-.174-.306l-4.617-6.07-2.242,1.859v4.7h2.417v1.05q-.852-.066-4.008-.066T1846.844,1713.212Z" fill="#040000"/>
        <path d="M1867.406,1713.212v-1.05h.47a5.624,5.624,0,0,0,1.477-.115.675.675,0,0,0,.426-.4l5.557-13.484a1.675,1.675,0,0,1,.153-.35.493.493,0,0,1,.235-.169,1.291,1.291,0,0,1,.487-.072,1.6,1.6,0,0,1,.36.028.749.749,0,0,1,.269.158,1,1,0,0,1,.267.4l5.732,14h2.177v1.05q-.789-.066-3.654-.066-3.095,0-3.948.066v-1.05h2.133l-1.346-3.281H1872.2l-1.115,2.722a.353.353,0,0,0-.088.262q0,.3,1.991.3v1.05q-.831-.066-2.953-.066Q1869.953,1713.146,1867.406,1713.212Zm5.24-5.381h5.107l-2.549-6.224Z" fill="#040000"/>
        <path d="M1888.487,1711.247a7.9,7.9,0,0,1,0-11.427,9.413,9.413,0,0,1,6.566-2.216,6.866,6.866,0,0,1,4.427,1.521l1.461-1.324a.643.643,0,0,1,.422-.2c.183,0,.3.041.34.121a1.25,1.25,0,0,1,.065.5v4.812a.932.932,0,0,1-.092.541,1.483,1.483,0,0,1-.973.023.7.7,0,0,1-.127-.4,5.494,5.494,0,0,0-1.775-3.314,4.829,4.829,0,0,0-3.277-1.236,6.134,6.134,0,0,0-4.57,1.719q-1.479,1.542-1.49,5.166a7.721,7.721,0,0,0,1.326,4.97,5.948,5.948,0,0,0,4.81,1.9,5.7,5.7,0,0,0,3.459-1.145,4.051,4.051,0,0,0,1.66-3.229c.013-.183.057-.292.13-.328a.93.93,0,0,1,.383-.056.826.826,0,0,1,.427.077c.072.051.109.183.109.394a4.847,4.847,0,0,1-1.867,3.7,7.075,7.075,0,0,1-4.848,1.641A9.4,9.4,0,0,1,1888.487,1711.247Z" fill="#040000"/>
        <path d="M1904.265,1713.212v-1.05h2.417V1698.9h-2.417v-1.05q.852.066,4.008.065t4.009-.065v1.05h-2.418v5.807h7.187V1698.9h-2.417v-1.05q.852.066,4.008.065t4.008-.065v1.05h-2.417v13.267h2.417v1.05q-.852-.066-4.008-.066t-4.008.066v-1.05h2.417v-6.409h-7.187v6.409h2.418v1.05q-.853-.066-4.009-.066T1904.265,1713.212Z" fill="#040000"/>
        <path d="M1924.812,1713.212v-1.05h2.547V1698.9h-2.547v-1.05q.918.066,4.139.065t4.14-.065v1.05h-2.549v13.267h2.549v1.05q-.918-.066-4.14-.066T1924.812,1713.212Z" fill="#040000"/>
        <path d="M1535.89,1740.956v-.874h2.013v-10.94h-2.013v-.875h11.286l.574,4.5h-.874a11.28,11.28,0,0,0-.2-1.224,4.935,4.935,0,0,0-.356-.981,2.017,2.017,0,0,0-.624-.787,3.2,3.2,0,0,0-1.015-.456,5.608,5.608,0,0,0-1.508-.177h-2.614v5.028h.929q1.248,0,1.6-.506a3.012,3.012,0,0,0,.355-1.681h.884v5.239h-.884a2.989,2.989,0,0,0-.355-1.677q-.354-.5-1.6-.5h-.929v5.038h2.514v.874q-.821-.054-3.762-.055Q1536.6,1740.9,1535.89,1740.956Z" fill="#040000"/>
        <path d="M1549.56,1740.956v-.612h1.485v-7.735h-1.485V1732q.535.037,2.413.038t2.414-.038v.612H1552.9v7.735h1.486v.612q-.535-.037-2.414-.038T1549.56,1740.956Z" fill="#040000"/>
        <path d="M1555.678,1732.609V1732q.5.037,2.337.038t2.337-.038v.612h-1.409v5.437c0,.218.006.4.019.55a3.074,3.074,0,0,0,.143.615,1.727,1.727,0,0,0,.348.642,1.9,1.9,0,0,0,.686.443,2.852,2.852,0,0,0,1.112.194,3.911,3.911,0,0,0,1.052-.136,2.97,2.97,0,0,0,.9-.425,1.974,1.974,0,0,0,.653-.8,2.81,2.81,0,0,0,.243-1.206v-4.927c0-.149-.019-.238-.055-.268a.867.867,0,0,0-.339-.077,6.421,6.421,0,0,0-.686-.038h-.323V1732q.534.037,1.757.038,1.254,0,1.75-.038v.612h-.331a5.886,5.886,0,0,0-.7.038.713.713,0,0,0-.326.074c-.037.032-.055.122-.055.271v4.978a3.008,3.008,0,0,1-.92,2.219,3.639,3.639,0,0,1-2.676.914,4.626,4.626,0,0,1-3.029-.9,2.82,2.82,0,0,1-1.084-2.268v-5.33Z" fill="#040000"/>
        <path d="M1567.54,1740.956v-.612h1.409v-7.658h-1.409v-.613h7.9l.4,3.151h-.613a7.8,7.8,0,0,0-.143-.857,3.475,3.475,0,0,0-.249-.687,1.4,1.4,0,0,0-.437-.55,2.221,2.221,0,0,0-.711-.319,3.928,3.928,0,0,0-1.055-.125h-1.83v3.519h.651q.873,0,1.122-.353a2.11,2.11,0,0,0,.249-1.177h.618v3.667h-.618a2.092,2.092,0,0,0-.249-1.174c-.166-.233-.54-.351-1.122-.351h-.651v3.527h1.76v.612q-.573-.037-2.633-.038Q1568.036,1740.918,1567.54,1740.956Z" fill="#040000"/>
        <path d="M1575.705,1740.956v-.612h.274a3.266,3.266,0,0,0,.861-.068.389.389,0,0,0,.248-.233l3.24-7.861a.929.929,0,0,1,.089-.2.285.285,0,0,1,.137-.1.775.775,0,0,1,.284-.041.943.943,0,0,1,.21.016.423.423,0,0,1,.157.092.58.58,0,0,1,.155.236l3.342,8.162h1.269v.612q-.459-.037-2.13-.038-1.8,0-2.3.038v-.612h1.244l-.785-1.913h-3.5l-.651,1.587a.208.208,0,0,0-.051.153q0,.172,1.161.173v.612c-.324-.025-.9-.038-1.722-.038Zm3.054-3.138h2.978l-1.486-3.628Z" fill="#040000"/>
        <path d="M1587.492,1740.732v-2.378a.661.661,0,0,1,.044-.312c.03-.042.119-.063.268-.063a.8.8,0,0,1,.163.012.163.163,0,0,1,.092.051.167.167,0,0,1,.038.087,1.075,1.075,0,0,1,.007.149,2.186,2.186,0,0,0,.373,1.158,1.905,1.905,0,0,0,.851.69,4.686,4.686,0,0,0,.96.288,5.288,5.288,0,0,0,.9.076,1.528,1.528,0,0,0,1.173-2.669,1.037,1.037,0,0,0-.467-.262l-1.19-.3a13.3,13.3,0,0,1-1.627-.432,2.583,2.583,0,0,1-.88-.611,2.46,2.46,0,0,1-.707-1.745,2.512,2.512,0,0,1,.762-1.86,2.964,2.964,0,0,1,2.178-.754,3.544,3.544,0,0,1,2.242.7l.618-.565a.465.465,0,0,1,.27-.138h.006c.112,0,.182.024.209.071a.684.684,0,0,1,.04.293v2.391a.585.585,0,0,1-.048.3c-.033.043-.13.064-.292.064a.468.468,0,0,1-.265-.045.662.662,0,0,1-.09-.3,2.783,2.783,0,0,0-.586-1.364,2.181,2.181,0,0,0-.941-.7,3.284,3.284,0,0,0-1.068-.17,1.609,1.609,0,0,0-1.244.421,1.367,1.367,0,0,0-.382.942,1.207,1.207,0,0,0,.35.893,1.68,1.68,0,0,0,.766.456l1.895.4a3.035,3.035,0,0,1,1.688.965,2.627,2.627,0,0,1,.7,1.826,2.8,2.8,0,0,1-.77,1.96,3,3,0,0,1-2.318.838,4.087,4.087,0,0,1-2.531-.714l-.655.593a.463.463,0,0,1-.271.121c-.117,0-.189-.025-.217-.074A.688.688,0,0,1,1587.492,1740.732Z" fill="#040000"/>
        <path d="M1595.481,1740.956v-.612h1.41v-7.735h-1.41V1732q.5.037,2.337.038t2.337-.038v.612h-1.409V1736h4.19v-3.386h-1.41V1732q.5.037,2.337.038t2.337-.038v.612h-1.409v7.735h1.409v.612q-.5-.037-2.337-.038t-2.337.038v-.612h1.41v-3.737h-4.19v3.737h1.409v.612q-.5-.037-2.337-.038T1595.481,1740.956Z" fill="#040000"/>
        <path d="M1607.551,1740.956v-.612h.275a3.266,3.266,0,0,0,.861-.068.389.389,0,0,0,.248-.233l3.239-7.861a.971.971,0,0,1,.09-.2.282.282,0,0,1,.136-.1.781.781,0,0,1,.285-.041.949.949,0,0,1,.21.016.421.421,0,0,1,.156.092.572.572,0,0,1,.156.236l3.342,8.162h1.268v.612q-.459-.037-2.129-.038-1.8,0-2.3.038v-.612h1.243l-.784-1.913h-3.5l-.65,1.587a.208.208,0,0,0-.051.153q0,.172,1.16.173v.612q-.485-.037-1.721-.038Zm3.054-3.138h2.978l-1.485-3.628Z" fill="#040000"/>
        <path d="M1619.338,1740.732v-2.378a.657.657,0,0,1,.045-.312c.03-.042.119-.063.268-.063a.786.786,0,0,1,.162.012.156.156,0,0,1,.131.138,1.318,1.318,0,0,1,.006.149,2.2,2.2,0,0,0,.373,1.158,1.908,1.908,0,0,0,.852.69,4.7,4.7,0,0,0,.959.288,5.3,5.3,0,0,0,.9.076,1.527,1.527,0,0,0,1.172-2.669,1.034,1.034,0,0,0-.466-.262l-1.191-.3a13.217,13.217,0,0,1-1.626-.432,2.574,2.574,0,0,1-.88-.611,2.457,2.457,0,0,1-.708-1.745,2.509,2.509,0,0,1,.763-1.86,2.96,2.96,0,0,1,2.177-.754,3.547,3.547,0,0,1,2.243.7l.618-.565a.463.463,0,0,1,.269-.138h.007c.112,0,.182.024.209.071a.7.7,0,0,1,.04.293v2.391a.581.581,0,0,1-.049.3c-.032.043-.13.064-.292.064a.464.464,0,0,1-.264-.045.662.662,0,0,1-.09-.3,2.784,2.784,0,0,0-.587-1.364,2.181,2.181,0,0,0-.941-.7,3.283,3.283,0,0,0-1.067-.17,1.613,1.613,0,0,0-1.245.421,1.371,1.371,0,0,0-.381.942,1.2,1.2,0,0,0,.35.893,1.68,1.68,0,0,0,.766.456l1.895.4a3.038,3.038,0,0,1,1.688.965,2.627,2.627,0,0,1,.7,1.826,2.807,2.807,0,0,1-.77,1.96,3,3,0,0,1-2.318.838,4.085,4.085,0,0,1-2.531-.714l-.655.593a.463.463,0,0,1-.272.121c-.116,0-.188-.025-.216-.074A.684.684,0,0,1,1619.338,1740.732Z" fill="#040000"/>
        <path d="M1634.483,1740.956v-.612h1.409v-7.735h-1.409V1732h5.618a4.514,4.514,0,0,1,3.261,1.228,4.4,4.4,0,0,1,1.279,3.332,4.172,4.172,0,0,1-1.272,3.226,4.614,4.614,0,0,1-3.256,1.173Zm3.188-.612h1.907a2.667,2.667,0,0,0,3.013-2.143,8.192,8.192,0,0,0,.13-1.657,5.1,5.1,0,0,0-.561-2.768,2.94,2.94,0,0,0-2.582-1.167h-1.907Z" fill="#040000"/>
        <path d="M1645.666,1740.956v-.612h1.485v-7.735h-1.485V1732q.534.037,2.413.038t2.414-.038v.612h-1.486v7.735h1.486v.612q-.535-.037-2.414-.038T1645.666,1740.956Z" fill="#040000"/>
        <path d="M1651.784,1740.956v-.612h1.409v-7.658h-1.409v-.613h8.111l.4,3.151h-.612a7.211,7.211,0,0,0-.15-.886,2.923,2.923,0,0,0-.267-.687,1.56,1.56,0,0,0-.456-.537,2.125,2.125,0,0,0-.721-.313,4.273,4.273,0,0,0-1.059-.115h-1.983v3.36h.721c.582,0,.959-.118,1.128-.354a2.065,2.065,0,0,0,.256-1.176h.612v3.672h-.612a2.067,2.067,0,0,0-.256-1.176c-.169-.236-.546-.354-1.128-.354h-.721v3.686h1.983a5.632,5.632,0,0,0,1.039-.086,2.168,2.168,0,0,0,.765-.287,2.819,2.819,0,0,0,.529-.431,1.8,1.8,0,0,0,.361-.6,4.335,4.335,0,0,0,.209-.713q.066-.34.165-.846h.618l-.605,3.577Z" fill="#040000"/>
        <path d="M1668.756,1729.032v-.875q.655.054,2.952.055,2.6,0,3.3-.055v.875h-1.749l3.972,8.936,3.771-8.489a.161.161,0,0,1,.027-.065.287.287,0,0,0,.037-.082.29.29,0,0,0,.009-.072q0-.23-1.639-.228v-.875q.727.054,2.441.055c.151,0,.344,0,.578-.009s.507-.015.82-.027.548-.019.706-.019v.875h-.346a6.246,6.246,0,0,0-.993.059.913.913,0,0,0-.41.133.828.828,0,0,0-.146.217l-4.964,11.214a.666.666,0,0,1-.3.374,1.169,1.169,0,0,1-.451.073.859.859,0,0,1-.488-.1.983.983,0,0,1-.259-.383l-5.147-11.587Z" fill="#040000"/>
        <path d="M1682.532,1740.956v-.612h.274a3.266,3.266,0,0,0,.861-.068.393.393,0,0,0,.249-.233l3.239-7.861a.929.929,0,0,1,.089-.2.29.29,0,0,1,.137-.1.779.779,0,0,1,.284-.041.937.937,0,0,1,.21.016.423.423,0,0,1,.157.092.592.592,0,0,1,.156.236l3.341,8.162h1.269v.612q-.459-.037-2.13-.038-1.8,0-2.3.038v-.612h1.244l-.785-1.913h-3.5l-.651,1.587a.208.208,0,0,0-.051.153q0,.172,1.161.173v.612c-.324-.025-.9-.038-1.722-.038Zm3.054-3.138h2.978l-1.486-3.628Z" fill="#040000"/>
        <path d="M1694.319,1740.618a.6.6,0,0,1,.1-.338l5.228-7.671h-1.7a2.966,2.966,0,0,0-2.05.616,2.694,2.694,0,0,0-.756,1.922h-.612l.153-3.15h6.714a1.491,1.491,0,0,1,.243.013.2.2,0,0,1,.124.086.391.391,0,0,1,.054.229.535.535,0,0,1-.108.31l-5.209,7.658h1.83a4.621,4.621,0,0,0,1-.1,3.338,3.338,0,0,0,.736-.242,1.594,1.594,0,0,0,.517-.4,2.724,2.724,0,0,0,.341-.485,2.413,2.413,0,0,0,.2-.58,6.054,6.054,0,0,0,.112-.6c.019-.162.037-.374.054-.638h.612l-.236,3.711h-6.931a1.56,1.56,0,0,1-.246-.013.189.189,0,0,1-.124-.083A.42.42,0,0,1,1694.319,1740.618Z" fill="#040000"/>
        <path d="M1703.276,1740.956v-.612h1.486v-7.735h-1.486V1732q.535.037,2.413.038t2.414-.038v.612h-1.486v7.735h1.486v.612q-.535-.037-2.414-.038T1703.276,1740.956Z" fill="#040000"/>
        <path d="M1709.407,1740.956v-.612h.274a3.266,3.266,0,0,0,.861-.068.393.393,0,0,0,.249-.233l3.239-7.861a.929.929,0,0,1,.089-.2.29.29,0,0,1,.137-.1.779.779,0,0,1,.284-.041.937.937,0,0,1,.21.016.423.423,0,0,1,.157.092.58.58,0,0,1,.155.236l3.342,8.162h1.269v.612q-.459-.037-2.13-.038-1.8,0-2.3.038v-.612h1.244l-.785-1.913h-3.5l-.651,1.587a.208.208,0,0,0-.051.153q0,.172,1.161.173v.612c-.324-.025-.9-.038-1.722-.038Zm3.054-3.138h2.978l-1.486-3.628Z" fill="#040000"/>
        <path d="M1720.174,1735.287l.275-3.143h8.786l.275,3.143h-.613c-.034-.365-.064-.645-.089-.842a3.346,3.346,0,0,0-.175-.678,1.309,1.309,0,0,0-.348-.568,1.791,1.791,0,0,0-.59-.312,2.871,2.871,0,0,0-.927-.131h-.989v7.588h2v.612q-.708-.037-2.927-.038t-2.927.038v-.612h2v-7.588h-1.007a2.817,2.817,0,0,0-.935.137,1.823,1.823,0,0,0-.593.319,1.29,1.29,0,0,0-.338.56,4.093,4.093,0,0,0-.178.673c-.032.2-.061.477-.086.842Z" fill="#040000"/>
        <path d="M1730.018,1740.956v-.612h.274a3.266,3.266,0,0,0,.861-.068.389.389,0,0,0,.248-.233l3.24-7.861a.929.929,0,0,1,.089-.2.285.285,0,0,1,.137-.1.775.775,0,0,1,.284-.041.943.943,0,0,1,.21.016.423.423,0,0,1,.157.092.58.58,0,0,1,.155.236l3.342,8.162h1.269v.612q-.459-.037-2.13-.038-1.8,0-2.3.038v-.612h1.244l-.785-1.913h-3.5l-.651,1.587a.208.208,0,0,0-.051.153q0,.172,1.161.173v.612c-.324-.025-.9-.038-1.722-.038Zm3.054-3.138h2.978l-1.486-3.628Z" fill="#040000"/>
        <path d="M1740.669,1737.713V1735.9h5.7v1.813Z" fill="#040000"/>
        <path d="M1749.208,1734.562a6.109,6.109,0,0,1,2.045-4.769,7.828,7.828,0,0,1,5.434-1.836,5.813,5.813,0,0,1,3.688,1.267l1.229-1.1a.54.54,0,0,1,.354-.164c.149,0,.242.033.277.1a1.035,1.035,0,0,1,.054.419v4.007a.785.785,0,0,1-.076.452.7.7,0,0,1-.425.077.736.736,0,0,1-.385-.06.576.576,0,0,1-.107-.332,4.586,4.586,0,0,0-1.484-2.761,4.012,4.012,0,0,0-2.715-1.029,5.9,5.9,0,0,0-2.346.447,4.088,4.088,0,0,0-1.626,1.175,6.664,6.664,0,0,0-1.066,4.081,6.559,6.559,0,0,0,1.048,4.06,4.027,4.027,0,0,0,1.763,1.268,6.479,6.479,0,0,0,2.363.429,3.257,3.257,0,0,0,1.677-.393,1.431,1.431,0,0,0,.728-1.324v-1.89h-2.687v-.874q1.014.054,3.839.054,2.34,0,2.993-.054v.874h-1.494v3.753q0,.519-.259.519a3.18,3.18,0,0,1-.783-.328,5.137,5.137,0,0,1-1.047-.665q-.967,1.194-3.477,1.2a7.767,7.767,0,0,1-5.511-1.868A6.19,6.19,0,0,1,1749.208,1734.562Z" fill="#040000"/>
        <path d="M1765.386,1740.956v-.612h1.409v-7.735h-1.409V1732h4.961a5.114,5.114,0,0,1,2.841.691,2.023,2.023,0,0,1,1.049,1.722,1.783,1.783,0,0,1-.548,1.264,3.368,3.368,0,0,1-1.63.842,2.075,2.075,0,0,1,1.476,1.526c0,.017.026.192.076.526s.08.526.088.577c.029.193.053.353.073.482a2.739,2.739,0,0,0,.123.46.822.822,0,0,0,.282.406.751.751,0,0,0,.457.138.759.759,0,0,0,.551-.236,1.1,1.1,0,0,0,.289-.669,1.408,1.408,0,0,1,.025-.154.186.186,0,0,1,.08-.1.323.323,0,0,1,.194-.048c.209,0,.313.1.313.287a1.324,1.324,0,0,1-.025.229,1.554,1.554,0,0,1-.125.348,1.7,1.7,0,0,1-.256.386,1.222,1.222,0,0,1-.464.3,1.862,1.862,0,0,1-.7.124,4.172,4.172,0,0,1-1.887-.346,1.9,1.9,0,0,1-.511-.356,1.074,1.074,0,0,1-.27-.483,10.967,10.967,0,0,1-.164-1.479s-.012-.161-.035-.482a1.251,1.251,0,0,0-.345-.805,1.52,1.52,0,0,0-1.178-.443h-1.548v3.635h1.409v.612q-.471-.037-2.3-.038T1765.386,1740.956Zm3.188-4.719h1.511a3.659,3.659,0,0,0,1.046-.13,2.19,2.19,0,0,0,.648-.287.964.964,0,0,0,.325-.452,1.78,1.78,0,0,0,.124-.471c.009-.116.013-.274.013-.474s-.007-.375-.019-.5a1.8,1.8,0,0,0-.131-.472.981.981,0,0,0-.319-.435,2,2,0,0,0-.634-.281,3.706,3.706,0,0,0-1.027-.124h-1.537Z" fill="#040000"/>
        <path d="M1776.931,1736.534a4.566,4.566,0,0,1,1.3-3.386,5.387,5.387,0,0,1,6.986-.012,4.536,4.536,0,0,1,1.31,3.4,4.422,4.422,0,0,1-1.291,3.3,5.488,5.488,0,0,1-7.005.01A4.4,4.4,0,0,1,1776.931,1736.534Zm1.995-.2a6.2,6.2,0,0,0,.536,2.861,2.437,2.437,0,0,0,1,1.026,2.664,2.664,0,0,0,1.266.332,2.453,2.453,0,0,0,2.206-1.243,5.872,5.872,0,0,0,.6-2.976,5.433,5.433,0,0,0-.548-2.727,2.446,2.446,0,0,0-.985-.921,2.765,2.765,0,0,0-2.487-.025,2.41,2.41,0,0,0-.966.845A5.222,5.222,0,0,0,1778.926,1736.336Z" fill="#040000"/>
        <path d="M1788.261,1740.732v-2.378a.661.661,0,0,1,.044-.312c.03-.042.119-.063.268-.063a.8.8,0,0,1,.163.012.163.163,0,0,1,.092.051.167.167,0,0,1,.038.087,1.075,1.075,0,0,1,.007.149,2.186,2.186,0,0,0,.373,1.158,1.905,1.905,0,0,0,.851.69,4.686,4.686,0,0,0,.96.288,5.288,5.288,0,0,0,.9.076,1.528,1.528,0,0,0,1.173-2.669,1.037,1.037,0,0,0-.467-.262l-1.19-.3a13.3,13.3,0,0,1-1.627-.432,2.583,2.583,0,0,1-.88-.611,2.46,2.46,0,0,1-.707-1.745,2.512,2.512,0,0,1,.762-1.86,2.964,2.964,0,0,1,2.178-.754,3.544,3.544,0,0,1,2.242.7l.619-.565a.46.46,0,0,1,.269-.138h.006c.112,0,.182.024.209.071a.684.684,0,0,1,.04.293v2.391a.585.585,0,0,1-.048.3c-.033.043-.13.064-.292.064a.468.468,0,0,1-.265-.045.662.662,0,0,1-.09-.3,2.783,2.783,0,0,0-.586-1.364,2.181,2.181,0,0,0-.941-.7,3.284,3.284,0,0,0-1.068-.17,1.609,1.609,0,0,0-1.244.421,1.367,1.367,0,0,0-.382.942,1.207,1.207,0,0,0,.35.893,1.68,1.68,0,0,0,.766.456l1.895.4a3.035,3.035,0,0,1,1.688.965,2.622,2.622,0,0,1,.7,1.826,2.8,2.8,0,0,1-.77,1.96,3,3,0,0,1-2.318.838,4.087,4.087,0,0,1-2.531-.714l-.655.593a.463.463,0,0,1-.271.121c-.117,0-.189-.025-.217-.074A.688.688,0,0,1,1788.261,1740.732Z" fill="#040000"/>
        <path d="M1796.25,1740.956v-.612h1.41v-7.735h-1.41V1732q.5.037,2.337.038t2.337-.038v.612h-1.409V1736h4.19v-3.386h-1.41V1732q.5.037,2.337.038t2.337-.038v.612h-1.409v7.735h1.409v.612q-.5-.037-2.337-.038t-2.337.038v-.612h1.41v-3.737h-4.19v3.737h1.409v.612q-.5-.037-2.337-.038T1796.25,1740.956Z" fill="#040000"/>
        <path d="M1808.32,1740.956v-.612h.275a3.266,3.266,0,0,0,.861-.068.389.389,0,0,0,.248-.233l3.239-7.861a.971.971,0,0,1,.09-.2.287.287,0,0,1,.136-.1.781.781,0,0,1,.285-.041.949.949,0,0,1,.21.016.421.421,0,0,1,.156.092.572.572,0,0,1,.156.236l3.342,8.162h1.268v.612q-.459-.037-2.129-.038-1.8,0-2.3.038v-.612h1.243l-.784-1.913h-3.5l-.65,1.587a.208.208,0,0,0-.051.153q0,.172,1.16.173v.612q-.484-.037-1.721-.038Zm3.055-3.138h2.978l-1.486-3.628Z" fill="#040000"/>
      </g>
      <g>
        <path d="M2290.265,1294.594q0-11.321,7.892-18.4t20.971-7.084a22.452,22.452,0,0,1,14.234,4.887l4.741-4.254a2.08,2.08,0,0,1,1.369-.633q.862,0,1.07.387a4.036,4.036,0,0,1,.207,1.617v15.469a3.023,3.023,0,0,1-.293,1.74,2.693,2.693,0,0,1-1.64.3,2.864,2.864,0,0,1-1.485-.228,2.232,2.232,0,0,1-.414-1.284,17.684,17.684,0,0,0-5.726-10.652,15.476,15.476,0,0,0-10.481-3.973,22.805,22.805,0,0,0-9.053,1.723,15.793,15.793,0,0,0-6.275,4.535q-4.113,5.415-4.113,15.75,0,10.458,4.043,15.669a15.521,15.521,0,0,0,6.8,4.895,25.039,25.039,0,0,0,9.123,1.655,12.552,12.552,0,0,0,6.469-1.516,5.522,5.522,0,0,0,2.813-5.11v-7.3h-10.372v-3.375q3.916.211,14.815.211,9.032,0,11.553-.211v3.375h-5.766v14.485q0,2-1,2a12.3,12.3,0,0,1-3.021-1.265,19.732,19.732,0,0,1-4.04-2.567q-3.734,4.606-13.418,4.641-13.536,0-21.27-7.207A23.9,23.9,0,0,1,2290.265,1294.594Z" fill="#040000"/>
        <path d="M2415.407,1319.273v-2.362h5.439V1287.06h-5.439V1284.7h19.147q6.913,0,10.963,2.667t4.048,6.648a6.868,6.868,0,0,1-2.114,4.874,12.974,12.974,0,0,1-6.293,3.25q4.883,1.824,5.7,5.891,0,.1.293,2.031t.338,2.224q.171,1.119.282,1.861a10.35,10.35,0,0,0,.475,1.778,3.17,3.17,0,0,0,1.088,1.566,3.043,3.043,0,0,0,3.892-.38,4.214,4.214,0,0,0,1.113-2.584,4.893,4.893,0,0,1,.1-.589.714.714,0,0,1,.307-.382,1.287,1.287,0,0,1,.751-.185q1.206,0,1.206,1.108a5.121,5.121,0,0,1-.1.885,5.589,5.589,0,0,1-.482,1.342,6.5,6.5,0,0,1-.987,1.488,4.657,4.657,0,0,1-1.79,1.169,7.163,7.163,0,0,1-2.715.481,16.078,16.078,0,0,1-7.285-1.335,7.316,7.316,0,0,1-1.973-1.372,4.187,4.187,0,0,1-1.041-1.867,42.317,42.317,0,0,1-.634-5.706s-.045-.62-.134-1.861a4.828,4.828,0,0,0-1.333-3.107,5.873,5.873,0,0,0-4.546-1.708h-5.971v14.027h5.438v2.362q-1.82-.147-8.871-.147T2415.407,1319.273Zm12.3-18.211h5.832a14.157,14.157,0,0,0,4.036-.5,8.532,8.532,0,0,0,2.5-1.106,3.708,3.708,0,0,0,1.255-1.744,6.983,6.983,0,0,0,.48-1.818q.05-.677.049-1.83,0-1.2-.074-1.942a6.991,6.991,0,0,0-.5-1.817,3.805,3.805,0,0,0-1.23-1.683,7.779,7.779,0,0,0-2.45-1.081,14.33,14.33,0,0,0-3.961-.479h-5.931Z" fill="#040000"/>
        <path d="M2504.1,1302.206q0-8.078,5.02-13.063t13.535-4.987q8.367,0,13.425,4.938t5.057,13.112q0,7.846-4.984,12.739t-13.547,4.895q-8.466,0-13.486-4.858T2504.1,1302.206Zm7.7-.762q0,7.157,2.067,11.041a9.4,9.4,0,0,0,3.851,3.959,10.272,10.272,0,0,0,4.885,1.279,9.465,9.465,0,0,0,8.515-4.795q2.313-3.835,2.314-11.484,0-6.958-2.118-10.524a9.417,9.417,0,0,0-3.8-3.554,10.647,10.647,0,0,0-9.6-.1,9.259,9.259,0,0,0-3.729,3.257Q2511.8,1294.191,2511.8,1301.444Z" fill="#040000"/>
        <path d="M2591.988,1318.412v-9.18a2.551,2.551,0,0,1,.173-1.2q.171-.246,1.033-.246a3.245,3.245,0,0,1,.628.049.619.619,0,0,1,.357.2.647.647,0,0,1,.147.333,4.751,4.751,0,0,1,.025.58,8.465,8.465,0,0,0,1.44,4.466,7.326,7.326,0,0,0,3.285,2.664,18.06,18.06,0,0,0,3.7,1.111,20.333,20.333,0,0,0,3.483.3q3.517,0,5.033-1.812a6.021,6.021,0,0,0-.506-8.491,4.062,4.062,0,0,0-1.8-1.014l-4.594-1.16a50.956,50.956,0,0,1-6.276-1.666,10,10,0,0,1-3.4-2.356,9.5,9.5,0,0,1-2.732-6.738,9.7,9.7,0,0,1,2.942-7.177q2.943-2.907,8.406-2.907a13.679,13.679,0,0,1,8.652,2.708l2.389-2.176a1.789,1.789,0,0,1,1.038-.532h.025c.433,0,.7.09.8.271a2.637,2.637,0,0,1,.156,1.132v9.228a2.22,2.22,0,0,1-.188,1.156c-.125.165-.5.246-1.126.246a1.8,1.8,0,0,1-1.02-.172,2.522,2.522,0,0,1-.348-1.138,10.79,10.79,0,0,0-2.265-5.268,8.414,8.414,0,0,0-3.63-2.683,12.645,12.645,0,0,0-4.12-.656q-3.331,0-4.8,1.626a5.282,5.282,0,0,0-1.473,3.632,4.659,4.659,0,0,0,1.352,3.449,6.5,6.5,0,0,0,2.956,1.76l7.315,1.529a11.736,11.736,0,0,1,6.513,3.728,10.123,10.123,0,0,1,2.684,7.045,10.817,10.817,0,0,1-2.974,7.563q-2.973,3.237-8.946,3.236-6.147,0-9.765-2.758l-2.53,2.294a1.82,1.82,0,0,1-1.049.464c-.448,0-.726-.1-.834-.283A2.672,2.672,0,0,1,2591.988,1318.412Z" fill="#040000"/>
        <path d="M2666.964,1319.273v-2.362h5.438V1287.06h-5.438V1284.7q1.918.149,9.019.148t9.02-.148v2.363h-5.44v13.067h16.169V1287.06h-5.438V1284.7q1.918.149,9.018.148t9.02-.148v2.363h-5.438v29.851h5.438v2.362q-1.919-.147-9.02-.147t-9.018.147v-2.362h5.438V1302.49h-16.169v14.421H2685v2.362q-1.92-.147-9.02-.147T2666.964,1319.273Z" fill="#040000"/>
        <path d="M2757.763,1319.273v-2.362h1.057a12.6,12.6,0,0,0,3.323-.26,1.52,1.52,0,0,0,.96-.9l12.5-30.339a3.864,3.864,0,0,1,.345-.788,1.154,1.154,0,0,1,.529-.381,2.95,2.95,0,0,1,1.095-.16,3.739,3.739,0,0,1,.812.062,1.684,1.684,0,0,1,.6.356,2.234,2.234,0,0,1,.6.911l12.895,31.5h4.9v2.362q-1.773-.147-8.22-.147-6.965,0-8.884.147v-2.362h4.8l-3.027-7.383h-13.511l-2.51,6.123a.806.806,0,0,0-.2.593q0,.666,4.479.667v2.362q-1.871-.147-6.644-.147Q2763.5,1319.126,2757.763,1319.273Zm11.788-12.107h11.492l-5.734-14Z" fill="#040000"/>
      </g>
      <g>
        <path d="M656.715,829.9v-3h6.906V788.991h-6.906v-3h27.531q9.719,0,15.984,6.016t6.266,16.328q0,10.063-6.234,15.812t-15.953,5.75Zm15.625-3h9.344q8.842,0,12.593-5.375a14.054,14.054,0,0,0,2.172-5.125,40.091,40.091,0,0,0,.641-8.125q0-9.53-2.75-13.562-3.971-5.687-12.656-5.719H672.34Z" fill="#040000"/>
        <path d="M712.052,829.9v-2.1h4.834V801.525h-4.834v-2.1h27.825l1.378,10.8h-2.1a25.672,25.672,0,0,0-.514-3.037,10.1,10.1,0,0,0-.919-2.357A5.324,5.324,0,0,0,736.158,803a7.349,7.349,0,0,0-2.471-1.075,14.7,14.7,0,0,0-3.632-.395h-6.8v11.529h2.472q3,0,3.872-1.214a7.093,7.093,0,0,0,.875-4.036h2.1v12.6h-2.1a7.087,7.087,0,0,0-.875-4.035q-.876-1.214-3.872-1.215h-2.472V827.8h6.8a19.209,19.209,0,0,0,3.565-.3,7.319,7.319,0,0,0,2.624-.984,9.7,9.7,0,0,0,1.816-1.477,6.221,6.221,0,0,0,1.235-2.067,14.7,14.7,0,0,0,.72-2.448q.225-1.165.564-2.9H742.7L740.624,829.9Z" fill="#040000"/>
        <path d="M770.414,829.9v-2.1h1.115a20.389,20.389,0,0,0,2.429-.132,2.455,2.455,0,0,0,1.115-.251c.116-.109.175-.42.175-.93V801.263h-4.834v-2.1h9.953a5.831,5.831,0,0,1,.853.044,1.257,1.257,0,0,1,.569.295,2.161,2.161,0,0,1,.547.776l10.74,23.713,10.763-23.713a1.821,1.821,0,0,1,.732-.94,3.208,3.208,0,0,1,1.237-.175H815.7v2.1h-4.7V827.8h4.7v2.1q-1.605-.131-7.591-.13-5.942,0-7.546.13v-2.1h4.7V801.263h-.044l-12.49,27.562a1.576,1.576,0,0,1-1.445,1.072,1.544,1.544,0,0,1-1.422-1.115l-12.183-26.928h-.044v24.631c0,.51.057.821.175.93a2.589,2.589,0,0,0,1.159.251,21.839,21.839,0,0,0,2.385.132h1.115v2.1q-1.837-.131-6.06-.13Q772.12,829.767,770.414,829.9Z" fill="#040000"/>
        <path d="M819.843,829.9v-2.1h.94a11.228,11.228,0,0,0,2.953-.231,1.351,1.351,0,0,0,.853-.8L835.7,799.8a3.38,3.38,0,0,1,.306-.7,1.017,1.017,0,0,1,.471-.339,2.6,2.6,0,0,1,.973-.143,3.366,3.366,0,0,1,.722.055,1.492,1.492,0,0,1,.536.317,1.979,1.979,0,0,1,.535.81l11.463,28h4.354v2.1q-1.577-.131-7.307-.13-6.19,0-7.9.13v-2.1h4.266l-2.691-6.563H829.424l-2.232,5.443a.716.716,0,0,0-.174.527q0,.592,3.981.593v2.1q-1.662-.131-5.906-.13Q824.939,829.767,819.843,829.9Zm10.477-10.762h10.216l-5.1-12.447Z" fill="#040000"/>
        <path d="M859.763,829.132v-8.159a2.281,2.281,0,0,1,.153-1.073c.1-.145.408-.218.919-.218a2.765,2.765,0,0,1,.558.044.54.54,0,0,1,.317.175.579.579,0,0,1,.131.3,4.47,4.47,0,0,1,.022.516,7.515,7.515,0,0,0,1.28,3.969,6.522,6.522,0,0,0,2.92,2.369,16.008,16.008,0,0,0,3.292.986,18.059,18.059,0,0,0,3.1.264q3.129,0,4.474-1.611a5.349,5.349,0,0,0-.449-7.547,3.612,3.612,0,0,0-1.6-.9l-4.084-1.031a45.333,45.333,0,0,1-5.578-1.481,8.845,8.845,0,0,1-3.019-2.1,8.438,8.438,0,0,1-2.428-5.988,8.613,8.613,0,0,1,2.615-6.379q2.614-2.585,7.472-2.585a12.153,12.153,0,0,1,7.691,2.408l2.122-1.935a1.59,1.59,0,0,1,.923-.473h.023q.577,0,.715.241a2.332,2.332,0,0,1,.139,1.006v8.2a1.978,1.978,0,0,1-.167,1.028q-.167.219-1,.219a1.6,1.6,0,0,1-.906-.154,2.225,2.225,0,0,1-.31-1.011,9.6,9.6,0,0,0-2.013-4.683,7.484,7.484,0,0,0-3.226-2.385,11.259,11.259,0,0,0-3.663-.583,5.515,5.515,0,0,0-4.27,1.446,4.693,4.693,0,0,0-1.309,3.228,4.139,4.139,0,0,0,1.2,3.065,5.772,5.772,0,0,0,2.629,1.565l6.5,1.359a10.44,10.44,0,0,1,5.79,3.313A9,9,0,0,1,883.1,820.8a9.619,9.619,0,0,1-2.643,6.723q-2.645,2.875-7.952,2.875-5.465,0-8.681-2.45l-2.248,2.038a1.61,1.61,0,0,1-.933.412q-.6,0-.741-.251A2.368,2.368,0,0,1,859.763,829.132Z" fill="#040000"/>
        <path d="M886.625,829.9v-2.1h4.834V801.263h-4.834v-2.1q1.707.132,8.018.131t8.016-.131v2.1h-4.834v11.616H912.2V801.263h-4.835v-2.1q1.707.132,8.018.131t8.016-.131v2.1h-4.834V827.8H923.4v2.1q-1.7-.131-8.016-.13t-8.018.13v-2.1H912.2V814.979H897.825V827.8h4.834v2.1q-1.707-.131-8.016-.13T886.625,829.9Z" fill="#040000"/>
        <path d="M927.5,829.9v-2.1h4.834V801.525H927.5v-2.1h27.1l1.378,10.8h-2.1a27.176,27.176,0,0,0-.492-2.938,12.022,12.022,0,0,0-.853-2.357,4.847,4.847,0,0,0-1.5-1.886,7.657,7.657,0,0,0-2.438-1.1,13.489,13.489,0,0,0-3.621-.428H938.7V813.6h2.232q3,0,3.849-1.214a7.236,7.236,0,0,0,.854-4.036h2.121v12.578h-2.121a7.18,7.18,0,0,0-.854-4.026q-.852-1.2-3.849-1.2H938.7v12.1h6.037v2.1q-1.968-.131-9.034-.13Q929.208,829.767,927.5,829.9Z" fill="#040000"/>
        <path d="M959.715,829.9v-2.1h4.834V801.263h-4.834v-2.1q1.707.132,8.017.131t8.017-.131v2.1h-4.834v11.616h14.372V801.263h-4.835v-2.1q1.707.132,8.018.131t8.016-.131v2.1h-4.834V827.8h4.834v2.1q-1.7-.131-8.016-.13t-8.018.13v-2.1h4.835V814.979H970.915V827.8h4.834v2.1q-1.707-.131-8.017-.13T959.715,829.9Z" fill="#040000"/>
        <path d="M1000.611,829.9v-2.1a28.274,28.274,0,0,0,3.194-.121,2.721,2.721,0,0,0,1.192-.339,2.183,2.183,0,0,0,.536-.9l10.85-26.447a4.955,4.955,0,0,1-3.5-5.131,5.334,5.334,0,0,1,1.455-3.916,5.2,5.2,0,0,1,3.872-1.473,5.667,5.667,0,0,1,4.014,1.485,5.082,5.082,0,0,1,1.6,3.9,5,5,0,0,1-3.718,5.131l11.419,27.8h4.353v2.1q-4.266-.128-7.088-.128-4.07,0-8.159.128v-2.1h4.343l-2.691-6.5h-12.087q-2.274,5.593-2.275,5.857,0,.641,3.851.64v2.1q-2.954-.128-5.972-.128Q1003.739,829.769,1000.611,829.9Zm10.478-10.7h10.26l-5.1-12.475Zm3.894-24.469c0,.454.007.815.022,1.085a4.368,4.368,0,0,0,.208,1.009,2.479,2.479,0,0,0,.492.943,2.6,2.6,0,0,0,.941.6,3.977,3.977,0,0,0,1.531.263,3.055,3.055,0,0,0,2.57-.91,4.452,4.452,0,0,0,.69-2.708c0-.454-.008-.815-.023-1.085a4.707,4.707,0,0,0-.2-1.009,2.319,2.319,0,0,0-.492-.943,2.859,2.859,0,0,0-.942-.614,3.777,3.777,0,0,0-1.519-.274,3.06,3.06,0,0,0-2.6.922A4.551,4.551,0,0,0,1014.983,794.731Z" fill="#040000"/>
        <path d="M1064.114,810.45l.942-10.784H1095.2l.941,10.784h-2.1q-.175-1.881-.307-2.887a11.606,11.606,0,0,0-.6-2.33,4.528,4.528,0,0,0-1.193-1.947,6.158,6.158,0,0,0-2.023-1.071,9.844,9.844,0,0,0-3.183-.448h-3.39V827.8h6.846v2.1q-2.427-.131-10.04-.13t-10.041.13v-2.1h6.87V801.767h-3.457a9.635,9.635,0,0,0-3.2.469,6.29,6.29,0,0,0-2.034,1.094,4.43,4.43,0,0,0-1.16,1.925,14.243,14.243,0,0,0-.612,2.308q-.165,1.007-.3,2.887Z" fill="#040000"/>
        <path d="M1097.228,829.9v-2.1h.94a11.228,11.228,0,0,0,2.953-.231,1.351,1.351,0,0,0,.853-.8l11.113-26.968a3.38,3.38,0,0,1,.306-.7,1.013,1.013,0,0,1,.47-.339,2.6,2.6,0,0,1,.974-.143,3.366,3.366,0,0,1,.722.055,1.492,1.492,0,0,1,.536.317,1.989,1.989,0,0,1,.535.81l11.463,28h4.353v2.1q-1.575-.131-7.306-.13-6.191,0-7.9.13v-2.1h4.266l-2.692-6.563h-12.008l-2.232,5.443a.716.716,0,0,0-.175.527q0,.592,3.982.593v2.1q-1.663-.131-5.906-.13Q1102.324,829.767,1097.228,829.9Zm10.477-10.762h10.216l-5.1-12.447Z" fill="#040000"/>
        <path d="M1160.462,788.991v-3q2.25.188,10.125.188,8.905,0,11.312-.188v3h-6l13.625,30.656,12.938-29.125a.539.539,0,0,1,.094-.218,1.112,1.112,0,0,0,.125-.282,1.063,1.063,0,0,0,.031-.25q0-.78-5.625-.781v-3q2.5.188,8.375.188.78,0,1.984-.032t2.813-.093q1.608-.061,2.422-.063v3h-1.188a21.386,21.386,0,0,0-3.406.2,3.158,3.158,0,0,0-1.406.453,2.9,2.9,0,0,0-.5.75l-17.032,38.469a2.266,2.266,0,0,1-1.015,1.281,3.981,3.981,0,0,1-1.547.25,2.926,2.926,0,0,1-1.672-.343,3.391,3.391,0,0,1-.891-1.313l-17.656-39.75Z" fill="#040000"/>
        <path d="M1206.132,829.9v-2.1h.94a11.223,11.223,0,0,0,2.953-.231,1.351,1.351,0,0,0,.853-.8l11.113-26.968a3.38,3.38,0,0,1,.306-.7,1.017,1.017,0,0,1,.471-.339,2.6,2.6,0,0,1,.973-.143,3.366,3.366,0,0,1,.722.055,1.492,1.492,0,0,1,.536.317,1.979,1.979,0,0,1,.535.81l11.463,28h4.354v2.1q-1.577-.131-7.307-.13-6.191,0-7.9.13v-2.1h4.266l-2.691-6.563h-12.009l-2.232,5.443a.716.716,0,0,0-.174.527q0,.592,3.981.593v2.1q-1.662-.131-5.906-.13Q1211.228,829.767,1206.132,829.9Zm10.477-10.762h10.216l-5.1-12.447Z" fill="#040000"/>
        <path d="M1245.506,829.9v-2.1h4.834V801.263h-4.834v-2.1q1.707.132,8.017.131t8.017-.131v2.1h-4.834v11.616h14.372V801.263h-4.835v-2.1q1.707.132,8.018.131t8.016-.131v2.1h-4.834V827.8h4.834v2.1q-1.7-.131-8.016-.13t-8.018.13v-2.1h4.835V814.979h-14.372V827.8h4.834v2.1q-1.707-.131-8.017-.13T1245.506,829.9Z" fill="#040000"/>
        <path d="M1286.382,829.9v-2.1h4.834V801.263h-4.834v-2.1q1.707.132,8.2.131,7.087,0,9.034-.131v2.1h-6.037V827.8h4.615a10.165,10.165,0,0,0,3.031-.427,8.151,8.151,0,0,0,2.23-1.028,6.6,6.6,0,0,0,1.586-1.619,12.467,12.467,0,0,0,1.083-1.772,9.8,9.8,0,0,0,.645-1.969,16.98,16.98,0,0,0,.35-1.794c.044-.385.12-.907.229-1.563h2.221l-1.481,12.271Z" fill="#040000"/>
        <path d="M1317.187,829.9v-2.1h4.834V801.263h-4.834v-2.1q1.706.132,8.017.131t8.017-.131v2.1h-4.834v11.616h14.372V801.263h-4.835v-2.1q1.707.132,8.017.131t8.017-.131v2.1h-4.834V827.8h4.834v2.1q-1.706-.131-8.017-.13t-8.017.13v-2.1h4.835V814.979h-14.372V827.8h4.834v2.1q-1.707-.131-8.017-.13T1317.187,829.9Z" fill="#040000"/>
        <path d="M1358.084,829.9v-2.1a28.241,28.241,0,0,0,3.193-.121,2.722,2.722,0,0,0,1.193-.339,2.194,2.194,0,0,0,.536-.9l10.849-26.447a4.955,4.955,0,0,1-3.5-5.131,5.334,5.334,0,0,1,1.456-3.916,5.194,5.194,0,0,1,3.872-1.473,5.663,5.663,0,0,1,4.013,1.485,5.08,5.08,0,0,1,1.6,3.9,5,5,0,0,1-3.719,5.131l11.419,27.8h4.354v2.1q-4.266-.128-7.088-.128-4.07,0-8.159.128v-2.1h4.342l-2.69-6.5h-12.087q-2.276,5.593-2.275,5.857,0,.641,3.85.64v2.1q-2.954-.128-5.971-.128Q1361.211,829.769,1358.084,829.9Zm10.478-10.7h10.259l-5.1-12.475Zm3.894-24.469c0,.454.007.815.022,1.085a4.316,4.316,0,0,0,.208,1.009,2.479,2.479,0,0,0,.492.943,2.6,2.6,0,0,0,.94.6,3.984,3.984,0,0,0,1.531.263,3.057,3.057,0,0,0,2.571-.91,4.452,4.452,0,0,0,.689-2.708c0-.454-.008-.815-.022-1.085a4.656,4.656,0,0,0-.2-1.009,2.319,2.319,0,0,0-.492-.943,2.854,2.854,0,0,0-.941-.614,3.779,3.779,0,0,0-1.52-.274,3.06,3.06,0,0,0-2.6.922A4.551,4.551,0,0,0,1372.456,794.731Z" fill="#040000"/>
        <path d="M1394.417,810.45l.941-10.784H1425.5l.94,10.784h-2.1q-.176-1.881-.307-2.887a11.674,11.674,0,0,0-.6-2.33,4.528,4.528,0,0,0-1.193-1.947,6.158,6.158,0,0,0-2.023-1.071,9.844,9.844,0,0,0-3.183-.448h-3.39V827.8h6.846v2.1q-2.427-.131-10.04-.13t-10.041.13v-2.1h6.869V801.767h-3.457a9.629,9.629,0,0,0-3.2.469,6.279,6.279,0,0,0-2.034,1.094,4.421,4.421,0,0,0-1.16,1.925,14.361,14.361,0,0,0-.613,2.308q-.163,1.007-.294,2.887Z" fill="#040000"/>
        <path d="M1427.535,829.9v-2.1h.941a11.234,11.234,0,0,0,2.953-.231,1.347,1.347,0,0,0,.852-.8L1443.4,799.8a3.391,3.391,0,0,1,.305-.7,1.017,1.017,0,0,1,.471-.339,2.6,2.6,0,0,1,.974-.143,3.355,3.355,0,0,1,.721.055,1.484,1.484,0,0,1,.536.317,1.99,1.99,0,0,1,.536.81l11.462,28h4.354v2.1q-1.576-.131-7.307-.13-6.19,0-7.9.13v-2.1h4.265l-2.691-6.563h-12.009l-2.231,5.443a.716.716,0,0,0-.175.527q0,.592,3.981.593v2.1q-1.662-.131-5.906-.13Q1432.632,829.767,1427.535,829.9Zm10.478-10.762h10.216l-5.1-12.447Z" fill="#040000"/>
        <path d="M988.355,861.537v-1.749q1.311.11,5.9.109,5.193,0,6.6-.109v1.749h-3.5l7.944,17.873,7.542-16.98a.307.307,0,0,1,.055-.127.629.629,0,0,0,.073-.164.663.663,0,0,0,.018-.146q0-.456-3.279-.456v-1.749q1.457.11,4.882.109c.3,0,.689,0,1.157-.017s1.014-.03,1.64-.055,1.1-.037,1.412-.037v1.749h-.693a12.335,12.335,0,0,0-1.985.119,1.833,1.833,0,0,0-.82.264,1.689,1.689,0,0,0-.292.437l-9.929,22.427a1.311,1.311,0,0,1-.592.747,2.3,2.3,0,0,1-.9.146,1.706,1.706,0,0,1-.975-.2,2,2,0,0,1-.519-.765L991.8,861.537Z" fill="#040000"/>
        <path d="M1015.521,885.386v-1.225h.549a6.555,6.555,0,0,0,1.722-.134.787.787,0,0,0,.5-.467l6.479-15.722a1.913,1.913,0,0,1,.178-.408.6.6,0,0,1,.274-.2,1.551,1.551,0,0,1,.568-.083,1.888,1.888,0,0,1,.421.033.879.879,0,0,1,.312.184,1.157,1.157,0,0,1,.312.473l6.684,16.323h2.537v1.225q-.919-.076-4.259-.076-3.609,0-4.605.076v-1.225h2.488l-1.57-3.825h-7l-1.3,3.173a.413.413,0,0,0-.1.306q0,.346,2.321.346v1.225q-.969-.076-3.443-.076Q1018.492,885.31,1015.521,885.386Zm6.109-6.275h5.956l-2.972-7.257Z" fill="#040000"/>
        <path d="M1038.974,884.71a1.184,1.184,0,0,1,.2-.676l10.457-15.342h-3.406a5.937,5.937,0,0,0-4.1,1.231,5.4,5.4,0,0,0-1.512,3.845H1039.4l.305-6.3h13.429a3.268,3.268,0,0,1,.485.025.4.4,0,0,1,.248.172.772.772,0,0,1,.109.459,1.066,1.066,0,0,1-.217.619l-10.419,15.317h3.66a9.192,9.192,0,0,0,2.009-.2,6.686,6.686,0,0,0,1.473-.484,3.2,3.2,0,0,0,1.033-.81,5.445,5.445,0,0,0,.682-.969,4.853,4.853,0,0,0,.4-1.16,11.7,11.7,0,0,0,.223-1.2c.038-.322.075-.748.109-1.274h1.223l-.471,7.422h-13.863a3.244,3.244,0,0,1-.491-.026.385.385,0,0,1-.249-.166A.854.854,0,0,1,1038.974,884.71Z" fill="#040000"/>
        <path d="M1056.768,885.386v-1.225h2.971V868.692h-2.971v-1.224q1.07.077,4.827.076t4.827-.076v1.224h-2.972v15.469h2.972v1.225q-1.071-.076-4.827-.076T1056.768,885.386Z" fill="#040000"/>
        <path d="M1068.914,885.386v-1.225h.549a6.56,6.56,0,0,0,1.722-.134.787.787,0,0,0,.5-.467l6.478-15.722a1.9,1.9,0,0,1,.179-.408.592.592,0,0,1,.273-.2,1.557,1.557,0,0,1,.569-.083,1.888,1.888,0,0,1,.421.033.879.879,0,0,1,.312.184,1.167,1.167,0,0,1,.312.473l6.683,16.323h2.537v1.225q-.918-.076-4.258-.076-3.611,0-4.605.076v-1.225h2.487l-1.569-3.825h-7l-1.3,3.173a.417.417,0,0,0-.1.306q0,.346,2.321.346v1.225q-.97-.076-3.443-.076Q1071.885,885.31,1068.914,885.386Zm6.108-6.275h5.957l-2.972-7.257Z" fill="#040000"/>
        <path d="M1090.3,874.048l.549-6.287h17.573l.549,6.287h-1.225q-.1-1.1-.179-1.683a6.657,6.657,0,0,0-.35-1.358,2.637,2.637,0,0,0-.695-1.136,3.593,3.593,0,0,0-1.18-.624,5.719,5.719,0,0,0-1.856-.262h-1.976v15.176h3.992v1.225q-1.416-.076-5.854-.076t-5.854.076v-1.225h4.005V868.985h-2.015a5.608,5.608,0,0,0-1.869.275,3.62,3.62,0,0,0-1.185.637,2.576,2.576,0,0,0-.676,1.123,8.253,8.253,0,0,0-.358,1.345q-.095.586-.171,1.683Z" fill="#040000"/>
        <path d="M1109.822,885.386v-1.225h.549a6.56,6.56,0,0,0,1.722-.134.787.787,0,0,0,.5-.467l6.478-15.722a1.9,1.9,0,0,1,.179-.408.6.6,0,0,1,.274-.2,1.548,1.548,0,0,1,.568-.083,1.888,1.888,0,0,1,.421.033.879.879,0,0,1,.312.184,1.167,1.167,0,0,1,.312.473l6.683,16.323h2.537v1.225q-.918-.076-4.258-.076-3.61,0-4.605.076v-1.225h2.488l-1.57-3.825h-7l-1.3,3.173a.417.417,0,0,0-.1.306q0,.346,2.321.346v1.225q-.969-.076-3.443-.076Q1112.793,885.31,1109.822,885.386Zm6.109-6.275h5.956l-2.972-7.257Z" fill="#040000"/>
      </g>
    </g>
    <g>
      <path d="M1753.232,1957.468l2.541-29.132H1837.2l2.541,29.132h-5.673q-.473-5.082-.827-7.8a31.29,31.29,0,0,0-1.625-6.294,12.212,12.212,0,0,0-3.221-5.259,16.612,16.612,0,0,0-5.465-2.895,26.616,26.616,0,0,0-8.6-1.211h-9.159v70.318h18.5V2010q-6.558-.354-27.123-.354t-27.123.354v-5.673h18.555v-70.318h-9.336a26.01,26.01,0,0,0-8.658,1.27,16.943,16.943,0,0,0-5.495,2.954,11.951,11.951,0,0,0-3.132,5.2,38.507,38.507,0,0,0-1.654,6.234q-.444,2.718-.8,7.8Z" fill="#040000"/>
      <path d="M1848.417,2010v-3.971h1.778a21.275,21.275,0,0,0,5.584-.435,2.553,2.553,0,0,0,1.614-1.516l21.013-50.995a6.373,6.373,0,0,1,.579-1.323,1.93,1.93,0,0,1,.889-.642,4.95,4.95,0,0,1,1.841-.268,6.367,6.367,0,0,1,1.365.1,2.832,2.832,0,0,1,1.014.6,3.759,3.759,0,0,1,1.012,1.53l21.675,52.946h8.232V2010q-2.979-.247-13.816-.248-11.7,0-14.932.248v-3.971h8.066l-5.088-12.409h-22.709l-4.219,10.292a1.356,1.356,0,0,0-.331,1q0,1.12,7.529,1.121V2010q-3.144-.247-11.168-.248Q1858.054,2009.752,1848.417,2010Zm19.813-20.352h19.317l-9.638-23.535Z" fill="#040000"/>
      <path d="M1923.947,2008.553v-15.43a4.3,4.3,0,0,1,.289-2.026q.29-.414,1.738-.414a5.246,5.246,0,0,1,1.054.084,1.028,1.028,0,0,1,.6.331,1.091,1.091,0,0,1,.249.559,8.588,8.588,0,0,1,.041.975,14.229,14.229,0,0,0,2.42,7.506,12.328,12.328,0,0,0,5.521,4.479,30.258,30.258,0,0,0,6.226,1.865,34.127,34.127,0,0,0,5.853.5q5.914,0,8.459-3.044a10.121,10.121,0,0,0-.85-14.274,6.837,6.837,0,0,0-3.03-1.7q-1.667-.418-7.722-1.949a85.771,85.771,0,0,1-10.548-2.8,16.757,16.757,0,0,1-5.709-3.962,15.962,15.962,0,0,1-4.591-11.324,16.29,16.29,0,0,1,4.945-12.063q4.944-4.885,14.128-4.886,8.685,0,14.543,4.552l4.014-3.658a3,3,0,0,1,1.745-.894h.043q1.092,0,1.354.455a4.452,4.452,0,0,1,.261,1.9v15.512a3.734,3.734,0,0,1-.316,1.944q-.317.412-1.893.413a3.019,3.019,0,0,1-1.713-.29,4.207,4.207,0,0,1-.586-1.913,18.139,18.139,0,0,0-3.806-8.854,14.157,14.157,0,0,0-6.1-4.51,21.244,21.244,0,0,0-6.925-1.1q-5.6,0-8.074,2.734a8.872,8.872,0,0,0-2.476,6.1,7.825,7.825,0,0,0,2.272,5.8,10.9,10.9,0,0,0,4.969,2.959l12.294,2.57a19.739,19.739,0,0,1,10.947,6.266,17.018,17.018,0,0,1,4.511,11.842,18.193,18.193,0,0,1-5,12.714q-5,5.436-15.037,5.436-10.329,0-16.414-4.634l-4.25,3.855a3.057,3.057,0,0,1-1.763.779q-1.131,0-1.4-.475A4.457,4.457,0,0,1,1923.947,2008.553Z" fill="#040000"/>
      <path d="M1975.859,2010v-3.971H1985v-50.175h-9.141v-3.97H2012.3q12.864,0,21.157,7.962t8.294,21.613q0,13.32-8.252,20.93T2012.384,2010Zm20.682-3.971h12.368q11.7,0,16.669-7.115a18.573,18.573,0,0,0,2.875-6.783,53.022,53.022,0,0,0,.848-10.755q0-12.615-3.64-17.952-5.253-7.528-16.752-7.57h-12.368Z" fill="#040000"/>
      <path d="M2049.983,2010v-3.971h9.638v-50.175h-9.638v-3.97q3.476.247,15.657.248t15.656-.248v3.97h-9.638v50.175h9.638V2010q-3.476-.247-15.656-.248T2049.983,2010Z" fill="#040000"/>
      <path d="M2087.542,2010v-3.971h1.778a21.275,21.275,0,0,0,5.584-.435,2.553,2.553,0,0,0,1.614-1.516l21.013-50.995a6.373,6.373,0,0,1,.579-1.323,1.93,1.93,0,0,1,.889-.642,4.95,4.95,0,0,1,1.841-.268,6.367,6.367,0,0,1,1.365.1,2.832,2.832,0,0,1,1.014.6,3.759,3.759,0,0,1,1.012,1.53l21.675,52.946h8.232V2010q-2.979-.247-13.816-.248-11.7,0-14.932.248v-3.971h8.066l-5.088-12.409h-22.709l-4.219,10.292a1.356,1.356,0,0,0-.331,1q0,1.12,7.529,1.121V2010q-3.144-.247-11.168-.248Q2097.179,2009.752,2087.542,2010Zm19.813-20.352h19.317l-9.638-23.535Z" fill="#040000"/>
      <path d="M2207.291,2010v-3.971h9.141v-50.175h-9.141v-3.97h36.441q12.866,0,21.158,7.962t8.294,21.613q0,13.32-8.252,20.93T2243.815,2010Zm20.682-3.971h12.368q11.7,0,16.669-7.115a18.607,18.607,0,0,0,2.875-6.783,53.108,53.108,0,0,0,.847-10.755q0-12.615-3.639-17.952-5.253-7.528-16.752-7.57h-12.368Z" fill="#040000"/>
      <path d="M2281.912,2010v-3.971h9.141v-49.678h-9.141v-3.971h52.614l2.607,20.433h-3.971a48.338,48.338,0,0,0-.973-5.743,19.108,19.108,0,0,0-1.737-4.457,10.075,10.075,0,0,0-2.957-3.483,13.823,13.823,0,0,0-4.675-2.032,27.727,27.727,0,0,0-6.866-.747H2303.09v21.8h4.674q5.667,0,7.322-2.295t1.654-7.631h3.971v23.825h-3.971q0-5.335-1.654-7.632t-7.322-2.295h-4.674v23.908h12.861a36.4,36.4,0,0,0,6.741-.558,13.883,13.883,0,0,0,4.962-1.862,18.294,18.294,0,0,0,3.433-2.793,11.778,11.778,0,0,0,2.337-3.909,27.6,27.6,0,0,0,1.359-4.627q.429-2.205,1.068-5.485h4.011l-3.922,23.2Zm24.735-65.852q12.038-7.609,12.782-7.941a5.054,5.054,0,0,1,1.613-.249h.083a4.288,4.288,0,0,1,3.351,1.635,5.527,5.527,0,0,1,1.406,3.7,6.91,6.91,0,0,1-.124,1.3,2.259,2.259,0,0,1-.476,1.054,7.6,7.6,0,0,0-.6.8,1.744,1.744,0,0,1-.889.628,5.207,5.207,0,0,0-.89.4,3.591,3.591,0,0,1-1.095.324c-.567.108-.905.174-1.014.2s-.483.094-1.117.2l-.91.081q-3.061.486-10.754,1.578Z" fill="#040000"/>
      <path d="M2392.01,1932.649v-5.672q4.254.354,19.145.354,16.842,0,21.392-.354v5.672H2421.2l25.764,57.969,24.464-55.073a1.033,1.033,0,0,1,.176-.414,1.8,1.8,0,0,0,.3-1q0-1.476-10.636-1.478v-5.672q4.727.354,15.837.354,1.476,0,3.752-.059t5.318-.177q3.042-.117,4.58-.118v5.672h-2.246a40.143,40.143,0,0,0-6.441.384,5.954,5.954,0,0,0-2.659.858,5.45,5.45,0,0,0-.945,1.418l-32.2,72.741a4.3,4.3,0,0,1-1.921,2.423,7.521,7.521,0,0,1-2.925.472,5.514,5.514,0,0,1-3.161-.649,6.473,6.473,0,0,1-1.685-2.483l-33.386-75.164Z" fill="#040000"/>
      <path d="M2497.477,2010v-3.971h1.778a21.275,21.275,0,0,0,5.584-.435,2.549,2.549,0,0,0,1.613-1.516l21.014-50.995a6.373,6.373,0,0,1,.579-1.323,1.93,1.93,0,0,1,.889-.642,4.944,4.944,0,0,1,1.84-.268,6.384,6.384,0,0,1,1.366.1,2.821,2.821,0,0,1,1.013.6,3.75,3.75,0,0,1,1.013,1.53l21.675,52.946h8.231V2010q-2.977-.247-13.815-.248-11.706,0-14.933.248v-3.971h8.067l-5.088-12.409h-22.709l-4.219,10.292a1.352,1.352,0,0,0-.331,1q0,1.12,7.528,1.121V2010q-3.143-.247-11.168-.248Q2507.114,2009.752,2497.477,2010Zm19.813-20.352h19.316l-9.637-23.535Z" fill="#040000"/>
      <path d="M2573.008,2007.808a3.871,3.871,0,0,1,.661-2.193l33.919-49.761h-11.044q-8.895,0-13.3,3.992t-4.9,12.471h-3.971l.992-20.433h43.557a9.99,9.99,0,0,1,1.571.083,1.3,1.3,0,0,1,.807.557,2.531,2.531,0,0,1,.351,1.49,3.446,3.446,0,0,1-.7,2.006l-33.794,49.678h11.871a30.086,30.086,0,0,0,6.515-.641,21.752,21.752,0,0,0,4.777-1.572,10.371,10.371,0,0,0,3.351-2.627,17.652,17.652,0,0,0,2.213-3.143,15.845,15.845,0,0,0,1.3-3.764,37.326,37.326,0,0,0,.723-3.889q.186-1.57.352-4.136h3.97L2620.7,2010h-44.963a10.4,10.4,0,0,1-1.591-.083,1.244,1.244,0,0,1-.807-.537A2.763,2.763,0,0,1,2573.008,2007.808Z" fill="#040000"/>
      <path d="M2629.841,2010v-3.971h9.638v-50.175h-9.638v-3.97q3.474.247,15.656.248t15.656-.248v3.97h-9.637v50.175h9.637V2010q-3.474-.247-15.656-.248T2629.841,2010Z" fill="#040000"/>
      <path d="M2667.4,2010v-3.971h1.779a21.275,21.275,0,0,0,5.584-.435,2.549,2.549,0,0,0,1.613-1.516l21.014-50.995a6.319,6.319,0,0,1,.579-1.323,1.932,1.932,0,0,1,.888-.642,4.95,4.95,0,0,1,1.841-.268,6.367,6.367,0,0,1,1.365.1,2.816,2.816,0,0,1,1.014.6,3.76,3.76,0,0,1,1.013,1.53l21.675,52.946H2734V2010q-2.977-.247-13.815-.248-11.706,0-14.933.248v-3.971h8.066l-5.087-12.409h-22.709l-4.219,10.292a1.352,1.352,0,0,0-.331,1q0,1.12,7.528,1.121V2010q-3.144-.247-11.168-.248Q2677.038,2009.752,2667.4,2010Zm19.814-20.352h19.316l-9.637-23.535Z" fill="#040000"/>
      <path d="M2732.921,1973.228l1.778-20.393h57l1.779,20.393h-3.971q-.333-3.558-.579-5.46a21.938,21.938,0,0,0-1.138-4.406,8.558,8.558,0,0,0-2.255-3.681,11.634,11.634,0,0,0-3.826-2.027,18.625,18.625,0,0,0-6.018-.848h-6.412v49.223h12.948V2010q-4.593-.247-18.987-.248t-18.986.248v-3.971h12.988v-49.223h-6.535a18.206,18.206,0,0,0-6.06.889,11.838,11.838,0,0,0-3.846,2.069,8.355,8.355,0,0,0-2.193,3.639,27.045,27.045,0,0,0-1.158,4.365q-.31,1.9-.558,5.46Z" fill="#040000"/>
      <path d="M2792.443,2010v-3.971h1.779a21.275,21.275,0,0,0,5.584-.435,2.552,2.552,0,0,0,1.613-1.516l21.014-50.995a6.319,6.319,0,0,1,.579-1.323,1.932,1.932,0,0,1,.888-.642,4.95,4.95,0,0,1,1.841-.268,6.367,6.367,0,0,1,1.365.1,2.816,2.816,0,0,1,1.014.6,3.76,3.76,0,0,1,1.013,1.53l21.675,52.946h8.231V2010q-2.978-.247-13.815-.248-11.706,0-14.933.248v-3.971h8.066l-5.087-12.409h-22.709l-4.219,10.292a1.352,1.352,0,0,0-.331,1q0,1.12,7.528,1.121V2010q-3.144-.247-11.168-.248Q2802.082,2009.752,2792.443,2010Zm19.814-20.352h19.316l-9.637-23.535Z" fill="#040000"/>
      <path d="M2864.032,1988.964V1977.2h36.991v11.76Z" fill="#040000"/>
      <path d="M2916.624,1968.518q0-19.026,13.266-30.935t35.248-11.906a37.738,37.738,0,0,1,23.925,8.214l7.967-7.151a3.5,3.5,0,0,1,2.3-1.063q1.451,0,1.8.649a6.809,6.809,0,0,1,.348,2.719v26q0,2.424-.493,2.925t-2.757.5a4.786,4.786,0,0,1-2.495-.385,3.749,3.749,0,0,1-.7-2.156q-1.971-11.228-9.624-17.906a26.01,26.01,0,0,0-17.617-6.676,38.317,38.317,0,0,0-15.216,2.895,26.542,26.542,0,0,0-10.548,7.622q-6.914,9.1-6.914,26.474,0,17.579,6.8,26.337a26.07,26.07,0,0,0,11.434,8.226,42.044,42.044,0,0,0,15.335,2.783,21.1,21.1,0,0,0,10.872-2.548,9.283,9.283,0,0,0,4.727-8.589v-12.264h-17.431v-5.673q6.581.355,24.9.355,15.18,0,19.418-.355v5.673h-9.691v24.346q0,3.367-1.683,3.368-.826,0-5.078-2.127a33.264,33.264,0,0,1-6.79-4.314q-6.276,7.743-22.554,7.8-22.751,0-35.75-12.114T2916.624,1968.518Z" fill="#040000"/>
      <path d="M3021.57,2010v-3.971h9.141v-50.175h-9.141v-3.97h32.181q11.623,0,18.428,4.482t6.8,11.174a11.541,11.541,0,0,1-3.553,8.192q-3.553,3.684-10.576,5.462,8.2,3.066,9.579,9.9,0,.165.493,3.414t.567,3.738q.287,1.881.475,3.127a17.006,17.006,0,0,0,.8,2.988A5.314,5.314,0,0,0,3078.6,2007a5.119,5.119,0,0,0,6.541-.638,7.092,7.092,0,0,0,1.871-4.343,8.839,8.839,0,0,1,.166-.993,1.206,1.206,0,0,1,.517-.641,2.152,2.152,0,0,1,1.262-.311q2.026,0,2.027,1.862a8.633,8.633,0,0,1-.167,1.489,9.4,9.4,0,0,1-.809,2.255,10.966,10.966,0,0,1-1.659,2.5,7.862,7.862,0,0,1-3.009,1.965,12.074,12.074,0,0,1-4.564.806q-7.934,0-12.246-2.244a12.265,12.265,0,0,1-3.315-2.306,7.021,7.021,0,0,1-1.749-3.137,71.035,71.035,0,0,1-1.065-9.592s-.076-1.04-.225-3.127a8.127,8.127,0,0,0-2.241-5.222q-2.646-2.871-7.643-2.872h-10.035v23.578h9.142V2010q-3.061-.247-14.913-.248T3021.57,2010Zm20.682-30.609h9.8a23.8,23.8,0,0,0,6.784-.846,14.328,14.328,0,0,0,4.2-1.858,6.231,6.231,0,0,0,2.109-2.932,11.714,11.714,0,0,0,.807-3.056q.084-1.136.083-3.076,0-2.025-.124-3.263a11.816,11.816,0,0,0-.848-3.055,6.4,6.4,0,0,0-2.068-2.828,13.091,13.091,0,0,0-4.116-1.817,24.078,24.078,0,0,0-6.659-.806h-9.969Z" fill="#040000"/>
      <path d="M3093.957,1981.313q0-13.575,8.439-21.958t22.75-8.381q14.063,0,22.563,8.3t8.5,22.041q0,13.186-8.377,21.413t-22.771,8.225q-14.229,0-22.666-8.163T3093.957,1981.313Zm12.946-1.281q0,12.029,3.475,18.559a15.813,15.813,0,0,0,6.474,6.654,17.273,17.273,0,0,0,8.21,2.15,15.911,15.911,0,0,0,14.312-8.06q3.888-6.448,3.889-19.3,0-11.7-3.558-17.69a15.832,15.832,0,0,0-6.391-5.972,17.889,17.889,0,0,0-16.131-.165,15.578,15.578,0,0,0-6.267,5.476Q3106.9,1967.84,3106.9,1980.032Z" fill="#040000"/>
      <path d="M3167.047,2008.553v-15.43a4.3,4.3,0,0,1,.289-2.026q.288-.414,1.737-.414a5.257,5.257,0,0,1,1.055.084,1.028,1.028,0,0,1,.6.331,1.108,1.108,0,0,1,.249.559,8.588,8.588,0,0,1,.041.975,14.221,14.221,0,0,0,2.42,7.506,12.328,12.328,0,0,0,5.521,4.479,30.24,30.24,0,0,0,6.226,1.865,34.127,34.127,0,0,0,5.853.5q5.913,0,8.459-3.044a10.12,10.12,0,0,0-.851-14.274,6.831,6.831,0,0,0-3.03-1.7q-1.665-.418-7.721-1.949a85.771,85.771,0,0,1-10.548-2.8,16.747,16.747,0,0,1-5.709-3.962,15.958,15.958,0,0,1-4.591-11.324,16.289,16.289,0,0,1,4.944-12.063q4.944-4.885,14.128-4.886,8.685,0,14.544,4.552l4.014-3.658a3,3,0,0,1,1.745-.894h.043q1.09,0,1.353.455a4.448,4.448,0,0,1,.262,1.9v15.512a3.734,3.734,0,0,1-.316,1.944q-.317.412-1.894.413a3.019,3.019,0,0,1-1.713-.29,4.22,4.22,0,0,1-.586-1.913,18.138,18.138,0,0,0-3.8-8.854,14.163,14.163,0,0,0-6.1-4.51,21.246,21.246,0,0,0-6.926-1.1q-5.6,0-8.073,2.734a8.874,8.874,0,0,0-2.477,6.1,7.821,7.821,0,0,0,2.273,5.8,10.9,10.9,0,0,0,4.969,2.959l12.294,2.57a19.739,19.739,0,0,1,10.947,6.266,17.018,17.018,0,0,1,4.511,11.842,18.193,18.193,0,0,1-5,12.714q-5,5.436-15.038,5.436-10.328,0-16.414-4.634l-4.25,3.855a3.052,3.052,0,0,1-1.762.779q-1.131,0-1.4-.475A4.478,4.478,0,0,1,3167.047,2008.553Z" fill="#040000"/>
      <path d="M3218.959,2010v-3.971h9.141v-50.175h-9.141v-3.97q3.225.247,15.159.248t15.16-.248v3.97h-9.141v21.964h27.176v-21.964h-9.141v-3.97q3.225.247,15.159.248t15.16-.248v3.97h-9.141v50.175h9.141V2010q-3.225-.247-15.16-.248t-15.159.248v-3.971h9.141V1981.79h-27.176v24.239h9.141V2010q-3.226-.247-15.16-.248T3218.959,2010Z" fill="#040000"/>
      <path d="M3295.358,2010v-3.971h1.779a21.275,21.275,0,0,0,5.584-.435,2.549,2.549,0,0,0,1.613-1.516l21.014-50.995a6.319,6.319,0,0,1,.579-1.323,1.932,1.932,0,0,1,.888-.642,4.95,4.95,0,0,1,1.841-.268,6.367,6.367,0,0,1,1.365.1,2.816,2.816,0,0,1,1.014.6,3.76,3.76,0,0,1,1.013,1.53l21.675,52.946h8.231V2010q-2.978-.247-13.815-.248-11.706,0-14.933.248v-3.971h8.066l-5.087-12.409h-22.709l-4.219,10.292a1.352,1.352,0,0,0-.331,1q0,1.12,7.528,1.121V2010q-3.144-.247-11.168-.248Q3305,2009.752,3295.358,2010Zm19.814-20.352h19.316l-9.637-23.535Z" fill="#040000"/>
      <path d="M3415.757,1991.149v-5.671l42.178-52.945a5.467,5.467,0,0,1,1.682-1.626,7.3,7.3,0,0,1,2.452-.266q2.432,0,3.027.65t.593,3.194v50.993h11.7v5.671h-11.7v13.178h11.7V2010q-4.25-.354-19.594-.354-16.164,0-20.766.354v-5.673h13.177v-13.178Zm6.2-5.671h29.9v-37.524Z" fill="#040000"/>
      <path d="M3488.263,2010v-2.187a7.935,7.935,0,0,1,.232-2.481,6.584,6.584,0,0,1,1.282-1.6l24.154-24.818q13.095-13.294,13.095-25.173a18.421,18.421,0,0,0-4.237-12.291q-4.236-5.022-11.761-5.022a18.739,18.739,0,0,0-12.389,4.195,12.337,12.337,0,0,1,2.623,1.034,8.739,8.739,0,0,1,2.739,2.747,8.4,8.4,0,0,1,1.457,4.964,7.873,7.873,0,0,1-2.711,6.471,9.151,9.151,0,0,1-5.916,2.216,9.522,9.522,0,0,1-5.771-2.1q-2.8-2.1-2.8-6.825,0-8.1,7.383-13.237t18.4-5.14q12.852,0,21.159,6.293a19.807,19.807,0,0,1,8.3,16.575,21.6,21.6,0,0,1-1.2,7.505,20.838,20.838,0,0,1-4.561,6.824,62.326,62.326,0,0,1-6.229,5.88q-2.865,2.3-9.355,7.091-5.689,4.137-17.468,13.946h17.687q10.929,0,12.28-.71,1.587-.826,3.173-11.05h5.673L3539.73,2010Z" fill="#040000"/>
      <path d="M3556.689,1990.454q0-13.521,15.482-20.31-11.642-6.585-11.581-18.329a19.693,19.693,0,0,1,6.588-15.243q6.588-5.991,18.7-5.991,10.991,0,17.9,4.5t6.914,13.45q0,10.392-12.232,16.65,3.249,1.947,5.2,3.217a38.051,38.051,0,0,1,4.9,4.045,18.129,18.129,0,0,1,4.462,6.525,23.554,23.554,0,0,1-6.116,25.639q-7.623,6.75-21.509,6.749-12.586,0-20.652-5.241T3556.689,1990.454Zm10.4,0a14.152,14.152,0,0,0,4.963,11.365q4.964,4.223,13.828,4.222a38.6,38.6,0,0,0,7.918-.768,15.564,15.564,0,0,0,7-3.661,9.586,9.586,0,0,0,3.339-7.616,8.526,8.526,0,0,0-1.507-4.959,13.27,13.27,0,0,0-3.132-3.336,58.711,58.711,0,0,0-5.17-3.1q-13.533-7.617-16.546-9.152Q3567.089,1979.472,3567.09,1990.454Zm2.541-45.7q0,4.251,5.377,7.262l18.14,10.155q8.451-5.549,8.451-13.521a11.889,11.889,0,0,0-4.285-9.682q-4.284-3.545-11.906-3.543a31.286,31.286,0,0,0-4.609.325,36.345,36.345,0,0,0-4.964,1.151,9.184,9.184,0,0,0-4.491,2.833A7.46,7.46,0,0,0,3569.631,1944.756Z" fill="#040000"/>
      <path d="M3626.24,1990.454q0-13.521,15.482-20.31-11.642-6.585-11.581-18.329a19.693,19.693,0,0,1,6.588-15.243q6.588-5.991,18.7-5.991,10.991,0,17.9,4.5t6.914,13.45q0,10.392-12.232,16.65,3.249,1.947,5.2,3.217a38.12,38.12,0,0,1,4.9,4.045,18.129,18.129,0,0,1,4.462,6.525,23.554,23.554,0,0,1-6.116,25.639q-7.623,6.75-21.509,6.749-12.588,0-20.652-5.241T3626.24,1990.454Zm10.4,0a14.152,14.152,0,0,0,4.963,11.365q4.964,4.223,13.828,4.222a38.6,38.6,0,0,0,7.918-.768,15.564,15.564,0,0,0,7-3.661,9.585,9.585,0,0,0,3.338-7.616,8.532,8.532,0,0,0-1.506-4.959,13.27,13.27,0,0,0-3.132-3.336,58.711,58.711,0,0,0-5.17-3.1q-13.535-7.617-16.546-9.152Q3636.64,1979.472,3636.641,1990.454Zm2.541-45.7q0,4.251,5.377,7.262l18.14,10.155q8.451-5.549,8.45-13.521a11.889,11.889,0,0,0-4.284-9.682q-4.284-3.545-11.906-3.543a31.286,31.286,0,0,0-4.609.325,36.312,36.312,0,0,0-4.964,1.151,9.184,9.184,0,0,0-4.491,2.833A7.46,7.46,0,0,0,3639.182,1944.756Z" fill="#040000"/>
    </g>
    <g>
      <g>
        <path d="M3530.479,1855.9a2.675,2.675,0,0,1,.214-.688,8.641,8.641,0,0,1,.781-1.412,8.811,8.811,0,0,1,1.4-1.655,7.066,7.066,0,0,1,2.323-1.348,9.23,9.23,0,0,1,3.31-.568,8.71,8.71,0,0,1,6.5,2.545,8.564,8.564,0,0,1,2.5,6.24,6.738,6.738,0,0,1-.326,2.069,11.134,11.134,0,0,1-.688,1.708,9.2,9.2,0,0,1-1.357,1.781q-.994,1.086-1.618,1.66t-2.24,2.014q-1.617,1.438-2.454,2.236l-3.124,2.969h1.283l7.92-.074h.893a1.519,1.519,0,0,1,1.711,1.726v.694a1.519,1.519,0,0,1-1.711,1.725h-13.256a2.787,2.787,0,0,1-1-.148.905.905,0,0,1-.529-.495,2.054,2.054,0,0,1-.168-.5c-.012-.106-.031-.283-.056-.532v-.616a1.409,1.409,0,0,1,.335-.914q.222-.26,5.187-5.577.185-.185.892-.927t.948-1.011l.874-.975a10.956,10.956,0,0,0,.874-1.066q.241-.361.725-1a4.988,4.988,0,0,0,.67-1.114c.123-.316.275-.683.455-1.1a5.081,5.081,0,0,0,.362-1.234,8.086,8.086,0,0,0,.094-1.252,5.688,5.688,0,0,0-1.107-3.527,3.715,3.715,0,0,0-3.151-1.465,3.821,3.821,0,0,0-2.427.762,4.028,4.028,0,0,0-1.338,1.7q-.363.939-.66,1.7t-.539.761a.5.5,0,0,1-.316-.139,3.541,3.541,0,0,1-.307-.288,3.747,3.747,0,0,1-.325-.418,2.961,2.961,0,0,0-.261-.344c-.148-.174-.312-.375-.492-.605s-.307-.386-.382-.473a2.764,2.764,0,0,1-.232-.326,2.017,2.017,0,0,1-.157-.289A.515.515,0,0,1,3530.479,1855.9Z" fill="#040000"/>
        <path d="M3551.265,1865.179V1863.9q0-8.533,2.869-11.434a7.961,7.961,0,0,1,5.98-2.232,8.528,8.528,0,0,1,4.117.929,7.256,7.256,0,0,1,2.6,2.219,10.345,10.345,0,0,1,1.4,3.287,19.181,19.181,0,0,1,.605,3.444q.095,1.449.095,3.417v.242q0,.186.018.694c.012.34.019.627.019.862q0,2.142-.151,3.8a17.454,17.454,0,0,1-.7,3.482,8.9,8.9,0,0,1-1.495,3.008,7.168,7.168,0,0,1-2.607,1.965,9.236,9.236,0,0,1-3.962.782,7.767,7.767,0,0,1-6.129-2.361Q3551.265,1873.062,3551.265,1865.179Zm5.206-1q0,7.171.671,9.006a4.534,4.534,0,0,0,1.052,1.612,2.54,2.54,0,0,0,1.9.778,2.45,2.45,0,0,0,1.864-.759,4.849,4.849,0,0,0,1.035-1.594q.726-1.926.727-8.969v-.26q0-4.28-.16-6.161a8.841,8.841,0,0,0-.642-2.918,3.032,3.032,0,0,0-2.833-1.89,2.837,2.837,0,0,0-2.256,1.019,5.007,5.007,0,0,0-1.155,2.974Q3556.471,1858.968,3556.471,1864.175Z" fill="#040000"/>
        <path d="M3572.2,1865.179V1863.9q0-8.533,2.869-11.434a7.965,7.965,0,0,1,5.981-2.232,8.534,8.534,0,0,1,4.117.929,7.256,7.256,0,0,1,2.6,2.219,10.368,10.368,0,0,1,1.4,3.287,19.193,19.193,0,0,1,.606,3.444q.093,1.449.094,3.417v.242q0,.186.019.694t.018.862q0,2.142-.15,3.8a17.525,17.525,0,0,1-.7,3.482,8.9,8.9,0,0,1-1.495,3.008,7.164,7.164,0,0,1-2.608,1.965,9.23,9.23,0,0,1-3.962.782,7.77,7.77,0,0,1-6.129-2.361Q3572.2,1873.062,3572.2,1865.179Zm5.206-1q0,7.171.671,9.006a4.537,4.537,0,0,0,1.053,1.612,2.539,2.539,0,0,0,1.9.778,2.451,2.451,0,0,0,1.865-.759,4.849,4.849,0,0,0,1.035-1.594q.726-1.926.726-8.969v-.26q0-4.28-.159-6.161a8.813,8.813,0,0,0-.643-2.918,3.031,3.031,0,0,0-2.833-1.89,2.836,2.836,0,0,0-2.255,1.019,5.014,5.014,0,0,0-1.156,2.974Q3577.406,1858.968,3577.405,1864.175Z" fill="#040000"/>
        <path d="M3608.118,1875.739V1851.7q0-1.673,1.825-1.673h1.111a2.592,2.592,0,0,1,1.081.2,1.014,1.014,0,0,1,.564.557,2.4,2.4,0,0,1,.159.549c.013.124.02.3.02.539v14.112l2.77-2.585a39.362,39.362,0,0,1,3.253-2.891,3.145,3.145,0,0,1,1.748-.419h2.51q.837.037.948.688a1.95,1.95,0,0,1-.706,1.107q-.669.642-5.726,5.289.036.038,6.581,8.645a1.885,1.885,0,0,1,.39.875q0,.835-1.152.835h-2.008a2.853,2.853,0,0,1-1.162-.185,3.189,3.189,0,0,1-.976-.911l-4.8-6.322-1.748,1.6v4.147q0,1.672-1.826,1.672h-.973a2.987,2.987,0,0,1-1.083-.167.982.982,0,0,1-.575-.493,2.327,2.327,0,0,1-.189-.557A3.485,3.485,0,0,1,3608.118,1875.739Z" fill="#040000"/>
        <path d="M3627.92,1875.813v-14.241a1.5,1.5,0,0,1,1.71-1.674h1.524a3.556,3.556,0,0,1,.586.038,2.825,2.825,0,0,1,.539.168.842.842,0,0,1,.475.492,2.505,2.505,0,0,1,.148.938v.763q.726-.687,1.144-1.051a9.566,9.566,0,0,1,5.066-1.589,7.388,7.388,0,0,1,3.475.669,3.97,3.97,0,0,1,1.807,2.156,7.844,7.844,0,0,1,6.336-2.825,8.269,8.269,0,0,1,2.762.4,4.868,4.868,0,0,1,1.679.92,3.259,3.259,0,0,1,.849,1.487,7.388,7.388,0,0,1,.327,1.6q.036.631.037,1.766v9.984a1.943,1.943,0,0,1-.364,1.274,1.786,1.786,0,0,1-1.409.436h-1.679a3.605,3.605,0,0,1-.55-.037,1.581,1.581,0,0,1-.42-.111,1.025,1.025,0,0,1-.28-.177,1.85,1.85,0,0,1-.215-.232,2.114,2.114,0,0,1-.158-.223.7.7,0,0,1-.076-.288,1.268,1.268,0,0,0-.037-.251,1.057,1.057,0,0,1-.018-.242v-10.579c0-.484-.012-.852-.037-1.106a3.143,3.143,0,0,0-.243-.874,1.359,1.359,0,0,0-.69-.725,2.993,2.993,0,0,0-1.286-.233,3.637,3.637,0,0,0-2.592.967,5.143,5.143,0,0,0-1.417,2.194,7.722,7.722,0,0,0-.186,1.971v8.1a2.511,2.511,0,0,1-.093.5,2.355,2.355,0,0,1-.25.623,1.683,1.683,0,0,1-.491.492,1.423,1.423,0,0,1-.833.232h-1.742a1.824,1.824,0,0,1-1.426-.436,1.921,1.921,0,0,1-.371-1.274v-10.6a3.781,3.781,0,0,0-.456-2.129,2,2,0,0,0-1.738-.642,4.014,4.014,0,0,0-2.937,1.274,4.833,4.833,0,0,0-1.265,3.56v8.534a1.511,1.511,0,0,1-1.71,1.71H3629.7Q3627.92,1877.523,3627.92,1875.813Z" fill="#040000"/>
      </g>
      <polyline points="3679.74 1877.524 3679.74 1895.522 3249.517 1895.522 3249.517 1877.524" fill="none" stroke="#040000" stroke-miterlimit="10"/>
    </g>
  </g>
</svg>
