<svg xmlns="http://www.w3.org/2000/svg" width="2.5in" height="3.5in" viewBox="0 0 180 252">
  <rect x="-1000" y="-576" width="1818" height="1116" fill="#fff"/>
  <g>
    <g>
      <rect x="13.5" y="13.5" width="153" height="225" fill="none" stroke="#209554" stroke-miterlimit="10" stroke-width="5"/>
      <rect x="18" y="18" width="144" height="216" fill="none" stroke="#209554" stroke-miterlimit="10"/>
    </g>
    <g>
      <path d="M63.349,35.67V29.625h1.3V35.67h-1.3Z" fill="#231815"/>
      <path d="M65.833,35.67V29.625h1.3V35.67h-1.3Z" fill="#231815"/>
      <path d="M78.612,34.776a.265.265,0,0,1,.078.191V35.4a.268.268,0,0,1-.267.268H74.248a.269.269,0,0,1-.268-.268V29.9a.269.269,0,0,1,.268-.269h.762a.268.268,0,0,1,.267.269v4.536a.268.268,0,0,0,.268.267h2.877A.269.269,0,0,1,78.612,34.776ZM76.334,30.6v-.973h2.358V30.6H76.334Z" fill="#231815"/>
      <path d="M79.572,35.67V29.625h1.3V35.67h-1.3Z" fill="#231815"/>
      <path d="M86.688,34.776a.269.269,0,0,1,.078.191V35.4a.269.269,0,0,1-.268.268H82.324a.269.269,0,0,1-.268-.268V29.9a.268.268,0,0,1,.268-.269h.761a.268.268,0,0,1,.268.269v4.536a.268.268,0,0,0,.267.267H86.5A.274.274,0,0,1,86.688,34.776Zm-1.221-2.128V29.625h1.3v3.023h-1.3Z" fill="#231815"/>
      <path d="M92.4,29.7a.272.272,0,0,1,.079.19v.437a.268.268,0,0,1-.268.268H91.04a.268.268,0,0,0-.269.267V35.4a.267.267,0,0,1-.267.268h-.766a.267.267,0,0,1-.267-.268V30.865A.267.267,0,0,0,89.2,30.6H88.031a.268.268,0,0,1-.267-.268v-.437a.268.268,0,0,1,.267-.268h4.18A.267.267,0,0,1,92.4,29.7Z" fill="#231815"/>
      <path d="M98.078,29.705a.263.263,0,0,1,.077.191v.434a.267.267,0,0,1-.267.268H95.012a.268.268,0,0,0-.268.267V35.4a.267.267,0,0,1-.267.268h-.764a.267.267,0,0,1-.268-.268V29.893a.267.267,0,0,1,.268-.268h4.176A.265.265,0,0,1,98.078,29.705Z" fill="#231815"/>
      <path d="M103.752,34.776a.265.265,0,0,1,.078.191V35.4a.268.268,0,0,1-.268.268H99.388a.269.269,0,0,1-.268-.268V29.9a.268.268,0,0,1,.268-.269h.761a.268.268,0,0,1,.268.269v4.536a.268.268,0,0,0,.268.267h2.877A.271.271,0,0,1,103.752,34.776ZM101.474,30.6v-.973h2.358V30.6h-2.358Z" fill="#231815"/>
      <path d="M104.712,35.67V29.625h1.3V35.67h-1.3Z" fill="#231815"/>
      <path d="M112.859,35.67V29.625h1.3V35.67h-1.3Z" fill="#231815"/>
      <path d="M115.344,35.67V29.625h1.3V35.67h-1.3Z" fill="#231815"/>
    </g>
    <g>
      <g>
        <g>
          <path d="M39.422,190.732a.5.5,0,0,1,.147.356v10.344a.5.5,0,0,1-.5.5H37.629a.5.5,0,0,1-.5-.5v-8.517a.5.5,0,0,0-.5-.5h-5.4a.5.5,0,0,1-.5-.5v-.821a.5.5,0,0,1,.5-.5h7.842A.508.508,0,0,1,39.422,190.732Zm-8.553,11.2v-6.647h2.437v6.647H30.869Zm2.844,0v-6.647h2.436v6.647H33.713Z" fill="#231815"/>
          <path d="M93.479,190.733a.5.5,0,0,1,.148.356v10.339a.5.5,0,0,1-.5.5H91.688a.5.5,0,0,1-.5-.5V197.67a.5.5,0,0,0-.5-.5h-5.4a.5.5,0,0,1-.5-.5v-.818a.5.5,0,0,1,.5-.5h5.4a.5.5,0,0,0,.5-.5v-3.753a.5.5,0,0,1,.5-.5h1.434A.5.5,0,0,1,93.479,190.733Z" fill="#231815"/>
          <path d="M139.83,196.259v-5.672h2.437v5.672H139.83Zm8.844-5.168v10.331a.5.5,0,0,1-.5.5h-7.837a.5.5,0,0,1-.5-.5v-.816a.5.5,0,0,1,.5-.5h5.4a.5.5,0,0,0,.5-.5v-8.513a.5.5,0,0,1,.5-.5h1.434A.5.5,0,0,1,148.674,191.091Z" fill="#231815"/>
        </g>
        <g>
          <path d="M84.969,211.215h.671v1.718h.05l1.46-1.718h.821l-1.445,1.677,1.46,2.057h-.81l-1.119-1.6-.417.489v1.114h-.671Z" fill="#231815"/>
          <path d="M88.146,214.949l1.316-3.734h.825l1.32,3.734h-.716l-.313-.923H89.173l-.31.923Zm2.251-1.465-.507-1.5h-.032l-.5,1.5Z" fill="#231815"/>
          <path d="M93.081,214.16h.041l.976-2.945h.737l-1.32,3.734h-.826l-1.315-3.734h.737Z" fill="#231815"/>
        </g>
        <line x1="30.792" y1="205.031" x2="148.754" y2="205.031" fill="none" stroke="#231815" stroke-miterlimit="10"/>
      </g>
      <g>
        <path d="M86.032,223.228a.329.329,0,0,1-.235.228.7.7,0,0,1-.231.038.539.539,0,0,1-.348-.111c-.239-.2.086-.722.1-.743a.011.011,0,0,1,.015,0l0,.007v.007s-.328.525-.1.716a.606.606,0,0,0,.559.071.311.311,0,0,0,.222-.213.686.686,0,0,0-.076-.521.156.156,0,0,0-.137-.048.242.242,0,0,0-.192.137c-.043.087-.08.286.135.638v.01l-.009.006-.009,0c-.221-.361-.18-.567-.137-.658a.259.259,0,0,1,.209-.148.172.172,0,0,1,.154.054A.7.7,0,0,1,86.032,223.228Z" fill="#231815"/>
        <path d="M86.221,223.479a.013.013,0,0,1-.011.008h0a.01.01,0,0,1-.007-.011,4.231,4.231,0,0,0,.013-.824l0-.007.007,0h0a.01.01,0,0,1,.01.009A4.285,4.285,0,0,1,86.221,223.479Z" fill="#231815"/>
        <path d="M87.312,223.228a.325.325,0,0,1-.234.228.694.694,0,0,1-.23.038.544.544,0,0,1-.35-.111c-.237-.2.086-.722.1-.743a.01.01,0,0,1,.014,0l0,.007v.007s-.329.525-.1.716a.6.6,0,0,0,.558.071.311.311,0,0,0,.223-.213.691.691,0,0,0-.076-.521.156.156,0,0,0-.137-.048.24.24,0,0,0-.192.137c-.042.087-.08.286.135.638v.01l-.007.006-.01,0c-.221-.361-.181-.567-.137-.658a.257.257,0,0,1,.209-.148.172.172,0,0,1,.154.054A.7.7,0,0,1,87.312,223.228Z" fill="#231815"/>
        <path d="M88.039,223.362a.471.471,0,0,1-.32.09,2.058,2.058,0,0,1-.35-.037l-.008-.007,0-.01.01,0c.344.06.545.045.652-.048a.348.348,0,0,0,.1-.294.468.468,0,0,0-.279-.419.232.232,0,0,0-.246.015.157.157,0,0,0-.064.122.171.171,0,0,0,.062.11l.005.007,0,.008h-.015a.187.187,0,0,1-.07-.125.175.175,0,0,1,.069-.138.253.253,0,0,1,.269-.02.49.49,0,0,1,.291.438A.369.369,0,0,1,88.039,223.362Z" fill="#231815"/>
        <path d="M89.844,224.05a.8.8,0,0,1-.6.244.771.771,0,0,1-.462-.141.01.01,0,0,1,0-.014.01.01,0,0,1,.015,0,.831.831,0,0,0,1.037-.1c.128-.162.069-.375,0-.62a3.15,3.15,0,0,1-.073-.313c-.1.269-.285.384-.427.373a.279.279,0,0,1-.238-.224.626.626,0,0,1-.445.23.285.285,0,0,1-.337-.229.6.6,0,0,1,.2-.617.009.009,0,0,1,.014,0,.009.009,0,0,1,0,.013.583.583,0,0,0-.2.6.267.267,0,0,0,.316.213.608.608,0,0,0,.438-.237.625.625,0,0,1-.015-.095c-.02-.264-.011-.442.024-.463a.015.015,0,0,1,.018,0,.765.765,0,0,1,.043.419.29.29,0,0,1-.048.143.267.267,0,0,0,.225.226c.141.011.324-.11.419-.4,0-.026-.007-.052-.009-.079a.6.6,0,0,1,.067-.405.018.018,0,0,1,.021,0c.031.025.02.171-.032.393-.008.032-.017.063-.026.092a2.6,2.6,0,0,0,.08.349C89.919,223.662,89.979,223.879,89.844,224.05Zm-.754-.92a.562.562,0,0,0,.01.07.285.285,0,0,0,.034-.114.831.831,0,0,0-.032-.4,1.032,1.032,0,0,0-.012.443Zm.675-.119.011-.046c.067-.285.049-.365.04-.371a.634.634,0,0,0-.054.386Z" fill="#231815"/>
        <path d="M90.651,223.362a.471.471,0,0,1-.32.09,2.069,2.069,0,0,1-.35-.037l-.007-.007v-.01l.01,0c.344.06.544.045.653-.048a.351.351,0,0,0,.095-.294.467.467,0,0,0-.28-.419.233.233,0,0,0-.246.015.158.158,0,0,0-.062.122.167.167,0,0,0,.062.11l0,.007,0,.008a.014.014,0,0,1-.015,0,.183.183,0,0,1-.07-.125.178.178,0,0,1,.069-.138.253.253,0,0,1,.269-.02.491.491,0,0,1,.292.438A.366.366,0,0,1,90.651,223.362Z" fill="#231815"/>
        <path d="M90.926,223.479a.011.011,0,0,1-.01.008h0a.011.011,0,0,1-.008-.011,4.251,4.251,0,0,0,.014-.824l0-.007.007,0h0a.009.009,0,0,1,.009.009A4.285,4.285,0,0,1,90.926,223.479Z" fill="#231815"/>
        <path d="M91.938,223.41l0,.007a.01.01,0,0,1-.008.012l-.042,0-.009,0-.011,0c-.109.011-.22.017-.331.018a.67.67,0,0,1-.373-.072.169.169,0,0,1-.063-.182c.032-.1.163-.161.358-.177a.391.391,0,0,1,.354.215c0-.036-.008-.074-.012-.113a.764.764,0,0,0-.138-.453c-.159-.152-.511.037-.514.039a.01.01,0,0,1-.014,0,.011.011,0,0,1,0-.015c.014-.007.368-.2.538-.035a.776.776,0,0,1,.143.466c.006.06.012.117.022.168a.567.567,0,0,1,.045.121l.039-.005Zm-.079.007,0-.015a.545.545,0,0,1-.029-.1.58.58,0,0,0-.1-.142.326.326,0,0,0-.239-.11h-.024c-.185.014-.312.074-.341.162a.149.149,0,0,0,.058.159C91.29,223.463,91.7,223.433,91.859,223.417Z" fill="#231815"/>
        <path d="M92.923,223.149c-.079.762-.148,1.12-.149,1.122s0,.009-.009.009h0l-.007,0,0-.007s.061-.321.135-1h0a.6.6,0,0,0-.058.029c-.131.066-.436.221-.608.113a.36.36,0,0,1-.123-.335.519.519,0,0,1,.253-.475.378.378,0,0,1,.385.025A.538.538,0,0,1,92.923,223.149Zm-.2-.5a.356.356,0,0,0-.2-.062.378.378,0,0,0-.165.039.5.5,0,0,0-.241.457c0,.16.034.267.114.316.162.1.46-.049.587-.114.053-.027.066-.033.075-.03,0-.034.007-.069.01-.106A.515.515,0,0,0,92.722,222.647Z" fill="#231815"/>
        <path d="M94.484,222.772l0,.01h-.01a3.464,3.464,0,0,0-.653-.155.481.481,0,0,1,.085.62.448.448,0,0,1-.386.215h-.023a.443.443,0,0,1-.355-.179.6.6,0,0,1,.062-.531.449.449,0,0,1,.471-.169,3.835,3.835,0,0,1,.807.181Zm-.689-.136,0-.012-.124-.019a.845.845,0,0,0-.1-.007.4.4,0,0,0-.349.167.574.574,0,0,0-.061.509.42.42,0,0,0,.338.167.428.428,0,0,0,.391-.205A.455.455,0,0,0,93.8,222.636Z" fill="#231815"/>
      </g>
    </g>
    <g>
      <circle cx="85.411" cy="81.189" r="16.05" fill="none" stroke="#1b9c56" stroke-linecap="round" stroke-linejoin="round" stroke-width="5"/>
      <circle cx="110.639" cy="145.172" r="16.05" fill="none" stroke="#1b9c56" stroke-linecap="round" stroke-linejoin="round" stroke-width="5"/>
      <path d="M101.461,80.971a16.051,16.051,0,0,1,0,32.1h-32.1a16.05,16.05,0,1,0,0,32.1h41.278" fill="none" stroke="#1b9c56" stroke-linecap="round" stroke-linejoin="round" stroke-width="5"/>
    </g>
  </g>
</svg>
