<svg xmlns="http://www.w3.org/2000/svg" width="2.5in" height="3.5in" viewBox="0 0 180 252">
  <rect x="-1638" y="-864" width="1818" height="1116" fill="#fff"/>
  <g>
    <g>
      <rect x="13.5" y="13.5" width="153" height="225" fill="none" stroke="#040000" stroke-miterlimit="10" stroke-width="5"/>
      <rect x="18" y="18" width="144" height="216" fill="none" stroke="#040000" stroke-miterlimit="10"/>
    </g>
    <line x1="48.006" y1="167.994" x2="131.994" y2="84.006" fill="none" stroke="#040000" stroke-linecap="round" stroke-linejoin="round" stroke-width="5"/>
    <line x1="48.006" y1="84.006" x2="131.994" y2="167.994" fill="none" stroke="#040000" stroke-linecap="round" stroke-linejoin="round" stroke-width="5"/>
    <circle cx="90.001" cy="125.999" r="34.91" fill="none" stroke="#040000" stroke-linecap="round" stroke-linejoin="round" stroke-width="5"/>
    <g>
      <path d="M62.821,200.8a.358.358,0,0,1,.106.255v.58a.357.357,0,0,1-.358.357H57a.357.357,0,0,1-.357-.357v-7.351a.357.357,0,0,1,.357-.357h1.016a.357.357,0,0,1,.357.357v6.055a.357.357,0,0,0,.358.357h3.837A.352.352,0,0,1,62.821,200.8Zm-1.629-2.841v-4.033h1.733v4.033H61.192Z" fill="#231815"/>
      <path d="M64.224,201.992v-8.068H65.96v8.068H64.224Z" fill="#231815"/>
      <path d="M73.717,200.8a.361.361,0,0,1,.105.255v.58a.357.357,0,0,1-.357.357H67.894a.357.357,0,0,1-.358-.357v-7.351a.357.357,0,0,1,.358-.357h1.015a.358.358,0,0,1,.358.357v6.055a.357.357,0,0,0,.357.357h3.839A.353.353,0,0,1,73.717,200.8Zm-1.629-2.841v-4.033H73.82v4.033H72.088Z" fill="#231815"/>
      <path d="M81.334,194.029a.357.357,0,0,1,.1.253v.582a.357.357,0,0,1-.357.358H79.518a.357.357,0,0,0-.357.357v6.056a.357.357,0,0,1-.357.357H77.781a.357.357,0,0,1-.357-.357v-6.056a.357.357,0,0,0-.358-.357H75.5a.357.357,0,0,1-.357-.358v-.582a.357.357,0,0,1,.357-.357h5.578A.357.357,0,0,1,81.334,194.029Z" fill="#231815"/>
      <path d="M88.805,194.281v7.357a.357.357,0,0,1-.358.357H82.868a.357.357,0,0,1-.357-.357v-.584a.357.357,0,0,1,.357-.358H86.71a.356.356,0,0,0,.356-.357v-6.057a.357.357,0,0,1,.358-.357h1.023A.357.357,0,0,1,88.805,194.281Zm-6.186,4.369v-4.726h1.733v4.726H82.619Zm2.022,0v-4.726h1.733v4.726H84.641Z" fill="#231815"/>
      <path d="M96.022,194.029a.354.354,0,0,1,.1.253v.582a.357.357,0,0,1-.357.358H94.206a.356.356,0,0,0-.356.357v6.056a.358.358,0,0,1-.358.357H92.47a.357.357,0,0,1-.358-.357v-6.056a.357.357,0,0,0-.357-.357H90.191a.357.357,0,0,1-.357-.358v-.582a.357.357,0,0,1,.357-.357H95.77A.357.357,0,0,1,96.022,194.029Z" fill="#231815"/>
      <path d="M97.711,201.992v-8.068h1.736v8.068H97.711Z" fill="#231815"/>
      <path d="M107.115,194.028a.357.357,0,0,1,.106.253v7.357a.357.357,0,0,1-.357.357h-1.023a.358.358,0,0,1-.358-.357V195.58a.357.357,0,0,0-.357-.357h-3.842a.358.358,0,0,1-.357-.358v-.583a.357.357,0,0,1,.357-.357h5.578A.352.352,0,0,1,107.115,194.028Zm-6.082,7.964v-4.727h1.734v4.727h-1.734Zm2.023,0v-4.727h1.732v4.727h-1.732Z" fill="#231815"/>
      <path d="M114.441,194.028a.359.359,0,0,1,.106.254v7.353a.357.357,0,0,1-.358.357h-1.021a.357.357,0,0,1-.357-.357v-2.673a.359.359,0,0,0-.358-.358h-3.841a.356.356,0,0,1-.357-.356v-.583a.357.357,0,0,1,.357-.357h3.841a.358.358,0,0,0,.358-.358v-2.668a.357.357,0,0,1,.357-.357h1.02A.356.356,0,0,1,114.441,194.028Z" fill="#231815"/>
      <path d="M122.329,194.03a.358.358,0,0,1,.1.255v.58a.359.359,0,0,1-.358.358h-3.838a.357.357,0,0,0-.357.357v6.053a.357.357,0,0,1-.358.357H116.5a.357.357,0,0,1-.357-.357v-7.351a.357.357,0,0,1,.357-.357h5.573A.359.359,0,0,1,122.329,194.03Z" fill="#231815"/>
    </g>
    <g>
      <path d="M117.181,51.2a.358.358,0,0,1-.106-.255v-.58a.357.357,0,0,1,.358-.357H123a.357.357,0,0,1,.357.357v7.351a.357.357,0,0,1-.357.357h-1.016a.357.357,0,0,1-.357-.357V51.662a.357.357,0,0,0-.358-.357h-3.837A.352.352,0,0,1,117.181,51.2Zm1.629,2.841v4.033h-1.733V54.042h1.733Z" fill="#231815"/>
      <path d="M115.778,50.008v8.068h-1.736V50.008h1.736Z" fill="#231815"/>
      <path d="M106.285,51.2a.361.361,0,0,1-.1-.255v-.58a.357.357,0,0,1,.357-.357h5.571a.357.357,0,0,1,.358.357v7.351a.357.357,0,0,1-.358.357h-1.015a.358.358,0,0,1-.358-.357V51.662a.357.357,0,0,0-.357-.357h-3.839A.353.353,0,0,1,106.285,51.2Zm1.629,2.841v4.033h-1.732V54.042h1.732Z" fill="#231815"/>
      <path d="M98.668,57.971a.358.358,0,0,1-.105-.253v-.582a.358.358,0,0,1,.358-.358h1.563a.357.357,0,0,0,.357-.357V50.365a.357.357,0,0,1,.357-.357h1.023a.357.357,0,0,1,.357.357v6.056a.357.357,0,0,0,.358.357H104.5a.357.357,0,0,1,.357.358v.582a.357.357,0,0,1-.357.357H98.921A.357.357,0,0,1,98.668,57.971Z" fill="#231815"/>
      <path d="M91.2,57.719V50.362a.357.357,0,0,1,.358-.357h5.579a.357.357,0,0,1,.357.357v.584a.357.357,0,0,1-.357.358H93.292a.356.356,0,0,0-.356.357v6.057a.357.357,0,0,1-.358.357H91.555A.357.357,0,0,1,91.2,57.719Zm4.164-4.369v4.726H93.628V53.35h1.733Zm2.022,0v4.726H95.65V53.35h1.733Z" fill="#231815"/>
      <path d="M83.979,57.971a.357.357,0,0,1-.1-.253v-.582a.357.357,0,0,1,.357-.358H85.8a.356.356,0,0,0,.356-.357V50.365a.357.357,0,0,1,.358-.357h1.022a.358.358,0,0,1,.358.357v6.056a.357.357,0,0,0,.357.357h1.564a.357.357,0,0,1,.357.358v.582a.357.357,0,0,1-.357.357H84.232A.361.361,0,0,1,83.979,57.971Z" fill="#231815"/>
      <path d="M82.291,50.008v8.068H80.555V50.008h1.736Z" fill="#231815"/>
      <path d="M72.887,57.972a.357.357,0,0,1-.106-.253V50.362a.357.357,0,0,1,.357-.357h1.023a.358.358,0,0,1,.358.357V56.42a.357.357,0,0,0,.357.357h3.842a.358.358,0,0,1,.357.358v.583a.357.357,0,0,1-.357.357H73.14A.352.352,0,0,1,72.887,57.972Zm4.059-7.964v4.727H75.214V50.008h1.732Zm2.023,0v4.727H77.235V50.008h1.734Z" fill="#231815"/>
      <path d="M65.561,57.972a.359.359,0,0,1-.106-.254V50.365a.357.357,0,0,1,.357-.357h1.022a.357.357,0,0,1,.357.357v2.673a.359.359,0,0,0,.358.358H71.39a.356.356,0,0,1,.357.356v.583a.357.357,0,0,1-.357.357H67.549a.358.358,0,0,0-.358.358v2.668a.357.357,0,0,1-.357.357h-1.02A.356.356,0,0,1,65.561,57.972Z" fill="#231815"/>
      <path d="M57.673,57.97a.358.358,0,0,1-.1-.255v-.58a.358.358,0,0,1,.358-.358h3.838a.357.357,0,0,0,.357-.357V50.367a.357.357,0,0,1,.357-.357H63.5a.357.357,0,0,1,.357.357v7.351a.357.357,0,0,1-.357.357H57.927A.359.359,0,0,1,57.673,57.97Z" fill="#231815"/>
    </g>
  </g>
</svg>
