<?xml version="1.0" encoding="UTF-8"?>
<svg id="a" data-name="레이어 1" xmlns="http://www.w3.org/2000/svg" width="512" height="512" viewBox="0 0 512 512">
  <polygon points="214.505 60.908 179.788 350.068 145.072 60.908 140.903 26.192 218.673 26.192 214.505 60.908 214.505 60.908" stroke-width="0"/>
  <path d="M35.208,170.771l144.58,34.717c-25.831,6.213-156.54,37.581-179.297,43.052v-86.105s34.716,8.336,34.716,8.336h0Z" stroke-width="0"/>
  <polygon points="35.208 315.351 468.947 350.068 35.208 384.784 .492 387.562 .492 312.572 35.208 315.351 35.208 315.351" stroke-width="0"/>
  <path d="M359.084,350.068l-34.716,144.58c-6.213-25.831-37.581-156.539-43.052-179.296h86.104s-8.336,34.716-8.336,34.716h0Z" stroke-width="0"/>
  <path d="M179.788,26.192l144.579,34.716c-25.831,6.213-156.539,37.581-179.296,43.052V17.856s34.716,8.336,34.716,8.336h0Z" stroke-width="0"/>
  <path d="M503.663,205.488l-34.716,144.58c-6.213-25.832-37.581-156.539-43.052-179.296h86.106s-8.337,34.717-8.337,34.717h0Z" stroke-width="0"/>
  <path d="M324.368,170.771l144.579,34.717c-25.831,6.213-156.539,37.581-179.296,43.052v-86.105s34.716,8.336,34.716,8.336h0Z" stroke-width="0"/>
</svg>