<?xml version="1.0" encoding="UTF-8"?>
<svg id="a" data-name="레이어 1" xmlns="http://www.w3.org/2000/svg" width="512" height="512" viewBox="0 0 512 512">
  <rect x="0" y="0" width="512" height="512" fill="#fff" stroke-width="0"/>
  <g>
    <g>
      <path d="M158.375,65.755h-92.62v92.62h92.62v-92.62ZM110.404,113.726v-3.322h3.322v3.322h-3.322Z" stroke-width="0"/>
      <path d="M353.61,65.755v92.62h92.635v-92.62h-92.635ZM398.259,113.726v-3.322h3.337v3.322h-3.337Z" stroke-width="0"/>
      <path d="M257.652,254.331h95.958v3.321h-99.279v-99.278h95.956v-92.62h-188.575v95.941h-95.958v92.635h95.958v3.321h-95.958v92.635h191.897v95.958h92.635v-95.958h95.958v-188.591h-188.593v92.635ZM305.639,305.639v95.957h-3.337v-95.957H110.404v-3.337h95.957v-92.619h-95.957v-3.338h95.957v-95.941h99.278v3.322h-95.956v188.576h188.576v-92.619h-95.957v-3.338h99.294v99.294h-95.957Z" stroke-width="0"/>
      <path d="M65.755,446.245h188.576v-92.635H65.755v92.635ZM209.683,398.259v3.337h-99.279v-3.337h99.279Z" stroke-width="0"/>
      <path d="M353.61,446.245h92.635v-92.635h-92.635v92.635ZM401.596,398.259v3.337h-3.337v-3.337h3.337Z" stroke-width="0"/>
    </g>
    <path d="M512,512H0V0h512v512ZM46.379,465.622h419.243V46.379H46.379v419.243Z" stroke-width="0"/>
  </g>
</svg>