<?xml version="1.0" encoding="UTF-8"?>
<svg id="a" data-name="레이어 1" xmlns="http://www.w3.org/2000/svg" width="512" height="512" viewBox="0 0 512 512">
  <polygon points="214.259 60.908 179.542 350.068 144.826 60.908 140.657 26.192 218.427 26.192 214.259 60.908 214.259 60.908" fill="#fff" stroke-width="0"/>
  <path d="M34.962,170.771l144.58,34.717C153.711,211.701,23.003,243.068.246,248.54v-86.105s34.716,8.336,34.716,8.336h0Z" fill="#fff" stroke-width="0"/>
  <polygon points="34.962 315.351 468.701 350.068 34.962 384.784 .246 387.562 .246 312.572 34.962 315.351 34.962 315.351" fill="#fff" stroke-width="0"/>
  <path d="M358.838,350.068l-34.716,144.58c-6.213-25.831-37.581-156.539-43.052-179.296h86.104s-8.336,34.716-8.336,34.716h0Z" fill="#fff" stroke-width="0"/>
  <path d="M179.542,26.192l144.579,34.716c-25.831,6.213-156.539,37.581-179.296,43.052V17.856s34.716,8.336,34.716,8.336h0Z" fill="#fff" stroke-width="0"/>
  <path d="M503.417,205.488l-34.716,144.58c-6.213-25.832-37.581-156.539-43.052-179.296h86.106s-8.337,34.717-8.337,34.717h0Z" fill="#fff" stroke-width="0"/>
  <path d="M324.122,170.771l144.579,34.717c-25.831,6.213-156.539,37.581-179.296,43.052v-86.105s34.716,8.336,34.716,8.336h0Z" fill="#fff" stroke-width="0"/>
</svg>