<svg xmlns="http://www.w3.org/2000/svg" width="2.5in" height="3.5in" viewBox="0 0 180 252">
  <g>
    <g>
      <rect x="13.5" y="13.5" width="153" height="225" fill="none" stroke="#1b2e88" stroke-miterlimit="10" stroke-width="5"/>
      <rect x="18" y="18" width="144" height="216" fill="none" stroke="#1b2e88" stroke-miterlimit="10"/>
    </g>
    <g>
      <path d="M70.1,29.807H71.72v6.367a.5.5,0,0,1-.193.4.682.682,0,0,1-.447.156H70.1Z" fill="#231815"/>
      <path d="M72.623,29.807h1.624v6.367a.493.493,0,0,1-.191.4.686.686,0,0,1-.449.156h-.984Z" fill="#231815"/>
      <path d="M75.151,29.807h1.624v6.367a.493.493,0,0,1-.191.4.683.683,0,0,1-.448.156h-.985Z" fill="#231815"/>
      <path d="M84.623,36.734l-.88-1.744a.554.554,0,0,1-.075-.179.8.8,0,0,0-.076-.2,2.01,2.01,0,0,0-.084.2,1.9,1.9,0,0,1-.084.179l-.7,1.385a.567.567,0,0,1-.264.279.91.91,0,0,1-.393.08h-1.3l1.967-3.551L80.9,29.807h1.759l.777,1.568a.59.59,0,0,1,.076.184.583.583,0,0,0,.075.191,1.244,1.244,0,0,0,.093-.228.748.748,0,0,1,.076-.18l.76-1.535h1.759l-1.847,3.376L86.4,36.734Z" fill="#231815"/>
      <path d="M89.775,36.734,88.9,34.99a.558.558,0,0,1-.077-.179.717.717,0,0,0-.076-.2c-.053.123-.081.191-.084.2a1.643,1.643,0,0,1-.084.179l-.7,1.385a.555.555,0,0,1-.264.279.9.9,0,0,1-.391.08H85.919l1.969-3.551-1.841-3.376h1.761l.775,1.568a.517.517,0,0,1,.076.184.6.6,0,0,0,.076.191,1.285,1.285,0,0,0,.092-.228.851.851,0,0,1,.076-.18l.76-1.535h1.761l-1.849,3.376,1.977,3.551Z" fill="#231815"/>
      <path d="M94.927,36.734l-.88-1.744a.554.554,0,0,1-.075-.179.843.843,0,0,0-.076-.2,1.767,1.767,0,0,0-.084.2c0,.013-.032.073-.084.179l-.7,1.385a.561.561,0,0,1-.263.279.916.916,0,0,1-.393.08h-1.3l1.968-3.551L91.2,29.807h1.76l.776,1.568a.606.606,0,0,1,.077.184.583.583,0,0,0,.075.191,1.2,1.2,0,0,0,.092-.228.771.771,0,0,1,.077-.18l.759-1.535h1.76l-1.847,3.376L96.7,36.734Z" fill="#231815"/>
      <path d="M96.911,29.807h1.624v6.367a.494.494,0,0,1-.192.4.684.684,0,0,1-.447.156h-.985Z" fill="#231815"/>
      <path d="M103.215,29.807h1.624v6.367a.494.494,0,0,1-.192.4.681.681,0,0,1-.448.156h-.984Z" fill="#231815"/>
      <path d="M105.743,29.807h1.624v6.367a.494.494,0,0,1-.192.4.684.684,0,0,1-.447.156h-.985Z" fill="#231815"/>
      <path d="M108.271,29.807H109.9v6.367a.494.494,0,0,1-.192.4.683.683,0,0,1-.448.156h-.984Z" fill="#231815"/>
    </g>
    <g>
      <g>
        <g>
          <path d="M39.1,200.439a.45.45,0,0,1,.131.318v.725a.447.447,0,0,1-.447.447H31.819a.447.447,0,0,1-.447-.447V192.3a.446.446,0,0,1,.447-.446h1.27a.446.446,0,0,1,.446.446v7.567a.447.447,0,0,0,.446.447h4.8A.448.448,0,0,1,39.1,200.439Zm-3.8-6.97v-1.621h3.934v1.621H35.3Z" fill="#231815"/>
          <path d="M41.891,201.931V191.847h2.17v10.084h-2.17Z" fill="#231815"/>
          <path d="M46.892,196.889v-5.041h2.166v5.041H46.892Zm7.86-4.593v9.183a.446.446,0,0,1-.446.446H47.34a.446.446,0,0,1-.446-.446v-.726a.446.446,0,0,1,.446-.446h4.8a.447.447,0,0,0,.446-.447V192.3a.447.447,0,0,1,.447-.447h1.275A.446.446,0,0,1,54.752,192.3Z" fill="#231815"/>
          <path d="M57.93,201.931V191.847H60.1v10.084H57.93Z" fill="#231815"/>
          <path d="M70.5,191.978a.448.448,0,0,1,.131.317v9.188a.447.447,0,0,1-.446.448H68.909a.447.447,0,0,1-.446-.448v-3.339a.447.447,0,0,0-.446-.447h-4.8a.447.447,0,0,1-.447-.446v-.728a.447.447,0,0,1,.447-.447h4.8a.446.446,0,0,0,.446-.446V192.3a.447.447,0,0,1,.446-.447h1.276A.455.455,0,0,1,70.5,191.978Z" fill="#231815"/>
          <path d="M81.7,192.292v.729a.445.445,0,0,1-.446.447h-4.8a.447.447,0,0,0-.446.447v7.57a.447.447,0,0,1-.446.448h-1.28a.447.447,0,0,1-.446-.448V192.3a.447.447,0,0,1,.446-.447h6.972A.446.446,0,0,1,81.7,192.292Zm-4.828,9.639v-5.908h2.166v5.908H76.868Zm2.528,0v-5.908h2.165v5.908H79.4Z" fill="#231815"/>
          <path d="M84.89,201.931V191.847h2.17v10.084H84.89Z" fill="#231815"/>
          <path d="M97.461,191.978a.449.449,0,0,1,.132.317v9.188a.448.448,0,0,1-.447.448H95.869a.447.447,0,0,1-.446-.448v-3.339a.447.447,0,0,0-.446-.447h-4.8a.447.447,0,0,1-.447-.446v-.728a.447.447,0,0,1,.447-.447h4.8a.446.446,0,0,0,.446-.446V192.3a.447.447,0,0,1,.446-.447h1.275A.451.451,0,0,1,97.461,191.978Z" fill="#231815"/>
          <path d="M108.648,200.755v.729a.448.448,0,0,1-.447.448h-6.966a.447.447,0,0,1-.446-.448v-9.19a.447.447,0,0,1,.446-.447h1.275a.447.447,0,0,1,.447.447v7.569a.447.447,0,0,0,.446.447h4.8A.446.446,0,0,1,108.648,200.755Zm-4.824-3v-5.907h2.166v5.907h-2.166Zm2.528,0v-5.907h2.166v5.907h-2.166Z" fill="#231815"/>
          <path d="M118.8,191.978a.448.448,0,0,1,.131.317v9.188a.448.448,0,0,1-.447.448h-1.276a.448.448,0,0,1-.447-.448v-3.339a.447.447,0,0,0-.447-.447h-4.8a.447.447,0,0,1-.447-.446v-.728a.447.447,0,0,1,.447-.447h4.8a.446.446,0,0,0,.447-.446V192.3a.447.447,0,0,1,.447-.447h1.274A.452.452,0,0,1,118.8,191.978Z" fill="#231815"/>
          <path d="M129.554,193.467h-4.8a.446.446,0,0,0-.446.446v7.572a.447.447,0,0,1-.447.447h-1.28a.447.447,0,0,1-.446-.447v-9.192a.447.447,0,0,1,.446-.447h6.972a.447.447,0,0,1,.447.447v.73A.446.446,0,0,1,129.554,193.467Zm-3.491,8.464V200.31H130v1.621h-3.934Z" fill="#231815"/>
          <path d="M137.541,191.978a.448.448,0,0,1,.131.317v9.188a.447.447,0,0,1-.446.448h-1.277a.448.448,0,0,1-.447-.448v-3.339a.446.446,0,0,0-.446-.447h-4.8a.446.446,0,0,1-.446-.446v-.728a.446.446,0,0,1,.446-.447h4.8a.445.445,0,0,0,.446-.446V192.3a.447.447,0,0,1,.447-.447h1.275A.451.451,0,0,1,137.541,191.978Z" fill="#231815"/>
          <path d="M148.464,191.978a.443.443,0,0,1,.132.316v9.193a.447.447,0,0,1-.447.447h-1.278a.447.447,0,0,1-.446-.447v-7.57a.446.446,0,0,0-.446-.446h-4.8a.447.447,0,0,1-.447-.447V192.3a.447.447,0,0,1,.447-.447h6.971A.451.451,0,0,1,148.464,191.978Zm-7.6,9.953v-5.908h2.165v5.908h-2.165Zm2.527,0v-5.908h2.166v5.908H143.39Z" fill="#231815"/>
        </g>
        <g>
          <path d="M65.985,211.215h.671v3.167h1.651v.567H65.985Z" fill="#231815"/>
          <path d="M69.505,214.949h-.671v-3.734h.671Z" fill="#231815"/>
          <path d="M71.662,214.16H71.7l.975-2.945h.738l-1.32,3.734H71.27l-1.315-3.734h.737Z" fill="#231815"/>
          <path d="M74.52,214.949h-.67v-3.734h.67Z" fill="#231815"/>
          <path d="M74.969,214.949l1.316-3.734h.824l1.321,3.734h-.717l-.313-.923H76l-.31.923Zm2.252-1.465-.508-1.5h-.031l-.506,1.5Z" fill="#231815"/>
          <path d="M80.312,211.767c-.611,0-1.043.469-1.041,1.315s.433,1.315,1.041,1.315a.856.856,0,0,0,.893-.685h.676A1.512,1.512,0,0,1,80.3,215a1.932,1.932,0,0,1,0-3.837,1.489,1.489,0,0,1,1.578,1.31h-.676A.849.849,0,0,0,80.312,211.767Z" fill="#231815"/>
          <path d="M83.119,214.949h-.671v-3.734h.671Z" fill="#231815"/>
          <path d="M83.568,214.949l1.316-3.734h.825l1.32,3.734h-.717L86,214.026H84.6l-.31.923Zm2.252-1.465-.508-1.5h-.031l-.506,1.5Z" fill="#231815"/>
          <path d="M86.848,211.215h2.974v.562H88.673v3.172H88v-3.172H86.848Z" fill="#231815"/>
          <path d="M89.647,214.949l1.316-3.734h.825l1.32,3.734h-.716l-.313-.923h-1.4l-.31.923Zm2.251-1.465-.507-1.5h-.032l-.5,1.5Z" fill="#231815"/>
          <path d="M94.811,211.736c-.426,0-.679.2-.682.485,0,.314.33.443.64.515l.35.093c.558.129,1.094.423,1.094,1.073s-.519,1.1-1.413,1.1c-.869,0-1.421-.418-1.449-1.155h.66c.03.389.358.58.784.583s.745-.217.748-.537c0-.293-.272-.418-.676-.521l-.423-.108c-.614-.16-1-.469-1-1.006,0-.66.585-1.1,1.371-1.1s1.331.445,1.341,1.077h-.644C95.483,211.919,95.213,211.733,94.811,211.736Z" fill="#231815"/>
          <path d="M96.761,211.215h.67V212.8h1.738v-1.584h.676v3.734h-.676V213.36H97.431v1.589h-.67Z" fill="#231815"/>
          <path d="M100.283,214.949l1.315-3.734h.825l1.32,3.734h-.717l-.311-.923H101.31l-.31.923Zm2.251-1.465-.508-1.5H102l-.506,1.5Z" fill="#231815"/>
          <path d="M105.621,211.164a1.719,1.719,0,0,1,1.713,1.918,1.945,1.945,0,0,1-.606,1.526l.518.666h-.655l-.312-.394a1.778,1.778,0,0,1-.658.121,1.931,1.931,0,0,1,0-3.837ZM106,213.7l.317.417a1.433,1.433,0,0,0,.338-1.031c0-.853-.426-1.315-1.037-1.315s-1.039.462-1.036,1.315.428,1.315,1.036,1.315a1.043,1.043,0,0,0,.278-.036l-.51-.665Z" fill="#231815"/>
          <path d="M110.959,211.215v2.439a1.526,1.526,0,0,1-3.032,0v-2.439h.67V213.6a.844.844,0,0,0,1.686,0v-2.383Z" fill="#231815"/>
          <path d="M111.64,211.215h2.428v.562H112.31V212.8h1.629v.561H112.31v1.022h1.769v.567H111.64Z" fill="#231815"/>
        </g>
        <line x1="31.018" y1="205.031" x2="148.981" y2="205.031" fill="none" stroke="#231815" stroke-miterlimit="10"/>
      </g>
      <g>
        <path d="M86.259,223.228a.328.328,0,0,1-.236.228.689.689,0,0,1-.23.038.543.543,0,0,1-.349-.111c-.238-.2.086-.722.1-.743a.012.012,0,0,1,.015,0l0,.007v.007s-.329.525-.1.716a.606.606,0,0,0,.559.071.306.306,0,0,0,.221-.213.682.682,0,0,0-.075-.521.156.156,0,0,0-.137-.048.239.239,0,0,0-.192.137c-.042.087-.08.286.136.638v.01l-.009.006-.01,0c-.221-.361-.18-.567-.136-.658a.259.259,0,0,1,.208-.148.173.173,0,0,1,.155.054A.705.705,0,0,1,86.259,223.228Z" fill="#231815"/>
        <path d="M86.447,223.479a.012.012,0,0,1-.01.008h0a.01.01,0,0,1-.008-.011,4.4,4.4,0,0,0,.013-.824l0-.007.008,0a.01.01,0,0,1,.011.009A4.222,4.222,0,0,1,86.447,223.479Z" fill="#231815"/>
        <path d="M87.54,223.228a.329.329,0,0,1-.235.228.7.7,0,0,1-.231.038.537.537,0,0,1-.348-.111c-.239-.2.086-.722.1-.743a.011.011,0,0,1,.015,0l0,.007v.007s-.328.525-.1.716a.606.606,0,0,0,.559.071.311.311,0,0,0,.222-.213.682.682,0,0,0-.077-.521.153.153,0,0,0-.135-.048.244.244,0,0,0-.194.137c-.042.087-.08.286.136.638v.01l-.009.006-.01,0c-.22-.361-.18-.567-.136-.658a.259.259,0,0,1,.209-.148.172.172,0,0,1,.154.054A.705.705,0,0,1,87.54,223.228Z" fill="#231815"/>
        <path d="M88.266,223.362a.473.473,0,0,1-.321.09,2.046,2.046,0,0,1-.349-.037l-.008-.007,0-.01.01,0c.343.06.545.045.652-.048a.351.351,0,0,0,.1-.294.469.469,0,0,0-.28-.419.232.232,0,0,0-.246.015.159.159,0,0,0-.063.122.171.171,0,0,0,.062.11l0,.007,0,.008a.012.012,0,0,1-.014,0,.188.188,0,0,1-.071-.125.179.179,0,0,1,.07-.138.251.251,0,0,1,.268-.02.491.491,0,0,1,.292.438A.369.369,0,0,1,88.266,223.362Z" fill="#231815"/>
        <path d="M90.07,224.05a.793.793,0,0,1-.6.244.771.771,0,0,1-.462-.141.01.01,0,0,1,0-.014.01.01,0,0,1,.015,0,.831.831,0,0,0,1.037-.1c.128-.162.069-.375,0-.62a3.155,3.155,0,0,1-.074-.313c-.1.269-.285.384-.426.373a.279.279,0,0,1-.239-.224.622.622,0,0,1-.444.23.286.286,0,0,1-.338-.229.6.6,0,0,1,.2-.617.009.009,0,0,1,.014,0l0,.013a.583.583,0,0,0-.2.6.267.267,0,0,0,.316.213.61.61,0,0,0,.438-.237.781.781,0,0,1-.015-.095c-.021-.264-.012-.442.023-.463a.018.018,0,0,1,.02,0,.776.776,0,0,1,.043.419.3.3,0,0,1-.049.143.266.266,0,0,0,.225.226c.14.011.324-.11.419-.4,0-.026-.007-.052-.009-.079a.6.6,0,0,1,.066-.405.02.02,0,0,1,.022,0c.031.025.019.171-.033.393a.823.823,0,0,1-.026.092,2.942,2.942,0,0,0,.08.349C90.146,223.662,90.205,223.879,90.07,224.05Zm-.754-.92a.562.562,0,0,0,.01.07.27.27,0,0,0,.034-.114.8.8,0,0,0-.032-.4,1.076,1.076,0,0,0-.012.443Zm.675-.119.012-.046c.066-.285.049-.365.04-.371a.63.63,0,0,0-.055.386Z" fill="#231815"/>
        <path d="M90.878,223.362a.471.471,0,0,1-.32.09,2.047,2.047,0,0,1-.35-.037l-.008-.007v-.01l.011,0c.344.06.544.045.652-.048a.348.348,0,0,0,.1-.294.469.469,0,0,0-.28-.419.232.232,0,0,0-.246.015.159.159,0,0,0-.063.122.168.168,0,0,0,.063.11l0,.007,0,.008a.014.014,0,0,1-.015,0,.159.159,0,0,1,0-.263.251.251,0,0,1,.268-.02.49.49,0,0,1,.292.438A.369.369,0,0,1,90.878,223.362Z" fill="#231815"/>
        <path d="M91.152,223.479a.011.011,0,0,1-.009.008h0a.011.011,0,0,1-.008-.011,4.335,4.335,0,0,0,.014-.824l0-.007.007,0h0a.01.01,0,0,1,.01.009A4.222,4.222,0,0,1,91.152,223.479Z" fill="#231815"/>
        <path d="M92.164,223.41l0,.007a.011.011,0,0,1-.009.012l-.042,0-.009,0-.01,0c-.11.011-.22.017-.331.018a.668.668,0,0,1-.373-.072.172.172,0,0,1-.064-.182c.032-.1.163-.161.358-.177a.393.393,0,0,1,.355.215c-.005-.036-.009-.074-.013-.113a.764.764,0,0,0-.137-.453c-.16-.152-.511.037-.514.039a.011.011,0,0,1-.015,0,.011.011,0,0,1,0-.015c.015-.007.368-.2.538-.035a.776.776,0,0,1,.144.466c.006.06.011.117.021.168a.518.518,0,0,1,.045.121l.039-.005Zm-.078.007-.006-.015a.542.542,0,0,1-.028-.1.613.613,0,0,0-.1-.142.323.323,0,0,0-.238-.11H91.69c-.184.014-.311.074-.34.162a.149.149,0,0,0,.057.159C91.517,223.463,91.922,223.433,92.086,223.417Z" fill="#231815"/>
        <path d="M93.149,223.149c-.079.762-.147,1.12-.148,1.122a.011.011,0,0,1-.01.009h0l-.007,0,0-.007s.062-.321.135-1h0a.618.618,0,0,0-.057.029c-.131.066-.437.221-.609.113a.36.36,0,0,1-.123-.335.521.521,0,0,1,.253-.475.379.379,0,0,1,.386.025A.535.535,0,0,1,93.149,223.149Zm-.2-.5a.353.353,0,0,0-.2-.062.373.373,0,0,0-.164.039.5.5,0,0,0-.241.457c0,.16.034.267.113.316.162.1.461-.049.588-.114.053-.027.065-.033.074-.03,0-.034.008-.069.011-.106A.515.515,0,0,0,92.948,222.647Z" fill="#231815"/>
        <path d="M94.711,222.772l0,.01H94.7a3.433,3.433,0,0,0-.652-.155.481.481,0,0,1,.085.62.45.45,0,0,1-.387.215H93.72a.445.445,0,0,1-.356-.179.6.6,0,0,1,.063-.531.447.447,0,0,1,.47-.169,3.811,3.811,0,0,1,.807.181Zm-.69-.136,0-.012-.124-.019a.874.874,0,0,0-.1-.007.4.4,0,0,0-.35.167.574.574,0,0,0-.06.509.42.42,0,0,0,.338.167.426.426,0,0,0,.39-.205A.455.455,0,0,0,94.021,222.636Z" fill="#231815"/>
      </g>
    </g>
    <g>
      <g>
        <line x1="89.773" y1="74.25" x2="89.773" y2="155.495" fill="none" stroke="#172e7d" stroke-linecap="round" stroke-linejoin="round" stroke-width="5"/>
        <line x1="89.773" y1="91.019" x2="101.153" y2="78.201" fill="none" stroke="#172e7d" stroke-linecap="round" stroke-linejoin="round" stroke-width="5"/>
        <line x1="89.774" y1="91.019" x2="78.394" y2="78.201" fill="none" stroke="#172e7d" stroke-linecap="round" stroke-linejoin="round" stroke-width="5"/>
        <line x1="89.774" y1="138.725" x2="78.394" y2="151.543" fill="none" stroke="#172e7d" stroke-linecap="round" stroke-linejoin="round" stroke-width="5"/>
        <line x1="89.773" y1="138.725" x2="101.153" y2="151.543" fill="none" stroke="#172e7d" stroke-linecap="round" stroke-linejoin="round" stroke-width="5"/>
      </g>
      <g>
        <line x1="54.593" y1="94.561" x2="124.953" y2="135.184" fill="none" stroke="#172e7d" stroke-linecap="round" stroke-linejoin="round" stroke-width="5"/>
        <line x1="69.115" y1="102.946" x2="63.705" y2="86.682" fill="none" stroke="#172e7d" stroke-linecap="round" stroke-linejoin="round" stroke-width="5"/>
        <line x1="69.116" y1="102.945" x2="52.326" y2="106.392" fill="none" stroke="#172e7d" stroke-linecap="round" stroke-linejoin="round" stroke-width="5"/>
        <line x1="110.431" y1="126.798" x2="115.841" y2="143.062" fill="none" stroke="#172e7d" stroke-linecap="round" stroke-linejoin="round" stroke-width="5"/>
        <line x1="110.431" y1="126.799" x2="127.221" y2="123.353" fill="none" stroke="#172e7d" stroke-linecap="round" stroke-linejoin="round" stroke-width="5"/>
      </g>
      <g>
        <line x1="54.593" y1="135.184" x2="124.954" y2="94.561" fill="none" stroke="#172e7d" stroke-linecap="round" stroke-linejoin="round" stroke-width="5"/>
        <line x1="69.116" y1="126.799" x2="52.326" y2="123.353" fill="none" stroke="#172e7d" stroke-linecap="round" stroke-linejoin="round" stroke-width="5"/>
        <line x1="69.115" y1="126.798" x2="63.705" y2="143.062" fill="none" stroke="#172e7d" stroke-linecap="round" stroke-linejoin="round" stroke-width="5"/>
        <line x1="110.431" y1="102.945" x2="127.221" y2="106.392" fill="none" stroke="#172e7d" stroke-linecap="round" stroke-linejoin="round" stroke-width="5"/>
        <line x1="110.431" y1="102.946" x2="115.841" y2="86.682" fill="none" stroke="#172e7d" stroke-linecap="round" stroke-linejoin="round" stroke-width="5"/>
      </g>
    </g>
  </g>
</svg>
