<svg xmlns="http://www.w3.org/2000/svg" width="2.5in" height="3.5in" viewBox="0 0 180 252">
  <g>
    <g>
      <rect x="13.5" y="13.5" width="153" height="225" fill="none" stroke="#1b2e88" stroke-miterlimit="10" stroke-width="5"/>
      <rect x="18" y="18" width="144" height="216" fill="none" stroke="#1b2e88" stroke-miterlimit="10"/>
    </g>
    <g>
      <path d="M66.3,29.807h1.624v6.367a.494.494,0,0,1-.192.4.683.683,0,0,1-.448.156H66.3Z" fill="#231815"/>
      <path d="M68.832,29.807h1.624v6.367a.494.494,0,0,1-.192.4.685.685,0,0,1-.448.156h-.984Z" fill="#231815"/>
      <path d="M71.36,29.807h1.624v6.367a.494.494,0,0,1-.192.4.682.682,0,0,1-.447.156H71.36Z" fill="#231815"/>
      <path d="M73.888,29.807h1.624v6.367a.494.494,0,0,1-.192.4.683.683,0,0,1-.448.156h-.984Z" fill="#231815"/>
      <path d="M83.359,36.734l-.88-1.744a.582.582,0,0,1-.075-.179.8.8,0,0,0-.076-.2,2.01,2.01,0,0,0-.084.2,1.9,1.9,0,0,1-.084.179l-.7,1.385a.563.563,0,0,1-.264.279.908.908,0,0,1-.392.08H79.5l1.968-3.551-1.84-3.376h1.76l.776,1.568a.564.564,0,0,1,.076.184.611.611,0,0,0,.075.191,1.244,1.244,0,0,0,.093-.228.748.748,0,0,1,.076-.18l.76-1.535h1.76L83.16,33.183l1.976,3.551Z" fill="#231815"/>
      <path d="M88.512,36.734l-.88-1.744a.543.543,0,0,1-.076-.179.738.738,0,0,0-.077-.2c-.052.123-.081.191-.083.2a1.9,1.9,0,0,1-.084.179l-.7,1.385a.553.553,0,0,1-.263.279.912.912,0,0,1-.392.08h-1.3l1.969-3.551-1.841-3.376h1.761l.775,1.568a.553.553,0,0,1,.077.184.572.572,0,0,0,.076.191,1.242,1.242,0,0,0,.091-.228.881.881,0,0,1,.077-.18l.759-1.535H90.16l-1.848,3.376,1.976,3.551Z" fill="#231815"/>
      <path d="M93.664,36.734l-.88-1.744a.543.543,0,0,1-.076-.179.717.717,0,0,0-.076-.2c-.053.123-.081.191-.084.2a1.643,1.643,0,0,1-.084.179l-.7,1.385a.559.559,0,0,1-.264.279.905.905,0,0,1-.392.08h-1.3l1.968-3.551-1.84-3.376H91.7l.776,1.568a.539.539,0,0,1,.076.184.572.572,0,0,0,.076.191,1.285,1.285,0,0,0,.092-.228.851.851,0,0,1,.076-.18l.76-1.535h1.76l-1.848,3.376,1.976,3.551Z" fill="#231815"/>
      <path d="M95.647,29.807h1.624v6.367a.493.493,0,0,1-.191.4.683.683,0,0,1-.448.156h-.985Z" fill="#231815"/>
      <path d="M98.176,29.807H99.8v6.367a.5.5,0,0,1-.193.4.682.682,0,0,1-.447.156h-.984Z" fill="#231815"/>
      <path d="M104.479,29.807H106.1v6.367a.5.5,0,0,1-.193.4.682.682,0,0,1-.447.156h-.985Z" fill="#231815"/>
      <path d="M107.008,29.807h1.624v6.367a.5.5,0,0,1-.193.4.681.681,0,0,1-.447.156h-.984Z" fill="#231815"/>
      <path d="M109.535,29.807h1.624v6.367a.493.493,0,0,1-.191.4.685.685,0,0,1-.448.156h-.985Z" fill="#231815"/>
      <path d="M112.063,29.807h1.625v6.367a.5.5,0,0,1-.193.4.682.682,0,0,1-.447.156h-.985Z" fill="#231815"/>
    </g>
    <g>
      <g>
        <g>
          <path d="M31.7,201.931V190.585h2.442v11.346H31.7Z" fill="#231815"/>
          <path d="M73.56,200.608v.821a.5.5,0,0,1-.5.5H65.22a.5.5,0,0,1-.5-.5V191.088a.5.5,0,0,1,.5-.5h1.433a.5.5,0,0,1,.5.5V199.6a.5.5,0,0,0,.5.5h5.4A.5.5,0,0,1,73.56,200.608Zm-5.427-3.377v-6.646h2.436v6.646H68.133Zm2.843,0v-6.646h2.436v6.646H70.976Z" fill="#231815"/>
          <path d="M109.906,190.733a.5.5,0,0,1,.148.356v10.339a.5.5,0,0,1-.5.5h-1.437a.5.5,0,0,1-.5-.5V197.67a.5.5,0,0,0-.5-.5h-5.4a.5.5,0,0,1-.5-.5v-.818a.5.5,0,0,1,.5-.5h5.4a.5.5,0,0,0,.5-.5v-3.753a.5.5,0,0,1,.5-.5h1.434A.5.5,0,0,1,109.906,190.733Z" fill="#231815"/>
          <path d="M143.121,199.284a.5.5,0,0,0,.386.822h4.833a.5.5,0,0,1,.5.5v.821a.5.5,0,0,1-.5.5H140.5a.5.5,0,0,1-.5-.5v-1.141a.5.5,0,0,1,.116-.321l5.61-6.735a.5.5,0,0,0-.386-.822H140.5a.5.5,0,0,1-.5-.5v-.821a.5.5,0,0,1,.5-.5h7.843a.5.5,0,0,1,.5.5v1.141a.5.5,0,0,1-.117.321Z" fill="#231815"/>
        </g>
        <g>
          <path d="M85.427,214.949h-.671v-3.734h.671Z" fill="#231815"/>
          <path d="M85.954,211.215H88.93v.562H87.779v3.172h-.67v-3.172H85.954Z" fill="#231815"/>
          <path d="M88.754,214.949l1.315-3.734H90.9l1.32,3.734H91.5l-.312-.923H89.78l-.309.923Zm2.252-1.465-.509-1.5h-.03l-.506,1.5Z" fill="#231815"/>
          <path d="M92.648,211.215h1.4a1.159,1.159,0,0,1,1.316,1.191,1.072,1.072,0,0,1-.674,1.063l.807,1.48h-.748l-.732-1.367h-.7v1.367h-.67Zm1.3,1.806c.506,0,.733-.214.733-.615s-.227-.629-.733-.629h-.629v1.244Z" fill="#231815"/>
        </g>
        <line x1="31.019" y1="205.031" x2="148.982" y2="205.031" fill="none" stroke="#231815" stroke-miterlimit="10"/>
      </g>
      <g>
        <path d="M86.26,223.228a.332.332,0,0,1-.237.228.684.684,0,0,1-.229.038.541.541,0,0,1-.349-.111c-.238-.2.086-.722.1-.743a.011.011,0,0,1,.015,0l0,.007v.007s-.328.525-.1.716a.606.606,0,0,0,.559.071.308.308,0,0,0,.221-.213.682.682,0,0,0-.076-.521.155.155,0,0,0-.137-.048.242.242,0,0,0-.192.137c-.042.087-.08.286.136.638v.01l-.01.006-.009,0c-.221-.361-.181-.567-.137-.658a.26.26,0,0,1,.209-.148.174.174,0,0,1,.155.054A.71.71,0,0,1,86.26,223.228Z" fill="#231815"/>
        <path d="M86.447,223.479a.011.011,0,0,1-.009.008h0s-.009-.007-.007-.011a4.378,4.378,0,0,0,.012-.824l0-.007.007,0h0a.009.009,0,0,1,.01.009A4.144,4.144,0,0,1,86.447,223.479Z" fill="#231815"/>
        <path d="M87.54,223.228a.327.327,0,0,1-.235.228.7.7,0,0,1-.23.038.54.54,0,0,1-.349-.111c-.238-.2.086-.722.1-.743a.01.01,0,0,1,.014,0l0,.007v.007s-.329.525-.1.716a.607.607,0,0,0,.559.071.311.311,0,0,0,.223-.213.686.686,0,0,0-.077-.521.155.155,0,0,0-.136-.048.241.241,0,0,0-.193.137c-.042.087-.08.286.136.638v.01l-.009.006-.009,0c-.221-.361-.18-.567-.136-.658a.256.256,0,0,1,.208-.148.172.172,0,0,1,.154.054A.705.705,0,0,1,87.54,223.228Z" fill="#231815"/>
        <path d="M88.267,223.362a.475.475,0,0,1-.321.09,2.036,2.036,0,0,1-.349-.037l-.009-.007,0-.01.01,0c.343.06.545.045.653-.048a.348.348,0,0,0,.095-.294.467.467,0,0,0-.28-.419.233.233,0,0,0-.246.015.158.158,0,0,0-.062.122.165.165,0,0,0,.061.11l0,.007,0,.008H87.81a.185.185,0,0,1-.072-.125.18.18,0,0,1,.071-.138.25.25,0,0,1,.267-.02.49.49,0,0,1,.292.438A.366.366,0,0,1,88.267,223.362Z" fill="#231815"/>
        <path d="M90.071,224.05a.793.793,0,0,1-.6.244.771.771,0,0,1-.462-.141.01.01,0,0,1,.012-.016.832.832,0,0,0,1.038-.1c.128-.162.069-.375,0-.62a3.155,3.155,0,0,1-.074-.313c-.1.269-.285.384-.426.373a.281.281,0,0,1-.24-.224.619.619,0,0,1-.443.23.286.286,0,0,1-.338-.229.6.6,0,0,1,.2-.617.01.01,0,0,1,.015,0,.009.009,0,0,1,0,.013.583.583,0,0,0-.2.6.268.268,0,0,0,.317.213.61.61,0,0,0,.438-.237.521.521,0,0,1-.015-.095c-.021-.264-.012-.442.023-.463a.017.017,0,0,1,.019,0,.776.776,0,0,1,.043.419.312.312,0,0,1-.048.143.265.265,0,0,0,.225.226c.14.011.324-.11.419-.4,0-.026-.007-.052-.009-.079a.6.6,0,0,1,.066-.405.02.02,0,0,1,.022,0c.031.025.019.171-.033.393a.823.823,0,0,1-.026.092,2.942,2.942,0,0,0,.08.349C90.146,223.662,90.206,223.879,90.071,224.05Zm-.754-.92a.562.562,0,0,0,.01.07.27.27,0,0,0,.034-.114.816.816,0,0,0-.032-.4,1.053,1.053,0,0,0-.012.443Zm.675-.119.012-.046c.066-.285.049-.365.04-.371a.63.63,0,0,0-.055.386Z" fill="#231815"/>
        <path d="M90.879,223.362a.471.471,0,0,1-.32.09,2.047,2.047,0,0,1-.35-.037l-.008-.007v-.01l.011,0c.344.06.544.045.652-.048a.348.348,0,0,0,.1-.294.469.469,0,0,0-.28-.419.232.232,0,0,0-.246.015.156.156,0,0,0-.063.122.168.168,0,0,0,.063.11l0,.007v.008a.014.014,0,0,1-.015,0,.159.159,0,0,1,0-.263.251.251,0,0,1,.268-.02.49.49,0,0,1,.292.438A.369.369,0,0,1,90.879,223.362Z" fill="#231815"/>
        <path d="M91.153,223.479a.011.011,0,0,1-.009.008h0a.011.011,0,0,1-.008-.011,4.231,4.231,0,0,0,.013-.824l0-.007.007,0h0a.01.01,0,0,1,.01.009A4.222,4.222,0,0,1,91.153,223.479Z" fill="#231815"/>
        <path d="M92.165,223.41l0,.007a.011.011,0,0,1-.009.012l-.042,0-.009,0-.01,0c-.11.011-.22.017-.331.018a.668.668,0,0,1-.373-.072.172.172,0,0,1-.064-.182c.032-.1.163-.161.358-.177a.393.393,0,0,1,.355.215c0-.036-.009-.074-.013-.113a.764.764,0,0,0-.137-.453c-.16-.152-.511.037-.514.039a.011.011,0,0,1-.015,0,.011.011,0,0,1,.005-.015c.015-.007.368-.2.538-.035a.776.776,0,0,1,.144.466c.006.06.011.117.021.168a.518.518,0,0,1,.045.121l.039-.005Zm-.078.007-.006-.015a.542.542,0,0,1-.028-.1.613.613,0,0,0-.1-.142.323.323,0,0,0-.238-.11h-.025c-.184.014-.311.074-.34.162a.149.149,0,0,0,.057.159C91.518,223.463,91.923,223.433,92.087,223.417Z" fill="#231815"/>
        <path d="M93.15,223.149c-.079.762-.147,1.12-.148,1.122a.011.011,0,0,1-.01.009h0l-.007,0,0-.007s.062-.321.135-1h0a.618.618,0,0,0-.057.029c-.131.066-.437.221-.609.113a.36.36,0,0,1-.123-.335.521.521,0,0,1,.253-.475.379.379,0,0,1,.386.025A.538.538,0,0,1,93.15,223.149Zm-.2-.5a.353.353,0,0,0-.2-.062.373.373,0,0,0-.164.039.5.5,0,0,0-.241.457c0,.16.034.267.113.316.162.1.461-.049.588-.114.053-.027.065-.033.074-.03,0-.034.008-.069.011-.106A.515.515,0,0,0,92.949,222.647Z" fill="#231815"/>
        <path d="M94.712,222.772l0,.01H94.7a3.433,3.433,0,0,0-.652-.155.481.481,0,0,1,.085.62.45.45,0,0,1-.387.215h-.022a.445.445,0,0,1-.356-.179.6.6,0,0,1,.063-.531.447.447,0,0,1,.47-.169,3.811,3.811,0,0,1,.807.181Zm-.69-.136,0-.012-.124-.019a.874.874,0,0,0-.1-.007.4.4,0,0,0-.35.167.574.574,0,0,0-.06.509.418.418,0,0,0,.338.167.426.426,0,0,0,.39-.205A.455.455,0,0,0,94.022,222.636Z" fill="#231815"/>
      </g>
    </g>
    <g>
      <line x1="70.75" y1="162.919" x2="70.75" y2="60.062" fill="none" stroke="#172e7d" stroke-linecap="round" stroke-linejoin="round" stroke-width="5"/>
      <line x1="90" y1="162.919" x2="90" y2="60.062" fill="none" stroke="#172e7d" stroke-linecap="round" stroke-linejoin="round" stroke-width="5"/>
      <line x1="109.25" y1="162.919" x2="109.25" y2="60.062" fill="none" stroke="#172e7d" stroke-linecap="round" stroke-linejoin="round" stroke-width="5"/>
      <line x1="104.612" y1="64.516" x2="113.888" y2="64.516" fill="none" stroke="#172e7d" stroke-linecap="round" stroke-linejoin="round" stroke-width="5"/>
      <line x1="85.362" y1="131.224" x2="94.638" y2="131.224" fill="none" stroke="#172e7d" stroke-linecap="round" stroke-linejoin="round" stroke-width="5"/>
      <line x1="66.112" y1="102.379" x2="75.388" y2="102.379" fill="none" stroke="#172e7d" stroke-linecap="round" stroke-linejoin="round" stroke-width="5"/>
    </g>
  </g>
</svg>
