<svg xmlns="http://www.w3.org/2000/svg" width="2.5in" height="3.5in" viewBox="0 0 180 252">
  <g>
    <g>
      <rect x="13.5" y="13.5" width="153" height="225" fill="none" stroke="#d2c128" stroke-miterlimit="10" stroke-width="5"/>
      <rect x="18" y="18" width="144" height="216" fill="none" stroke="#d2c128" stroke-miterlimit="10"/>
    </g>
    <g>
      <path d="M81.784,33.887a.559.559,0,0,1-.368.1h-1.2V32.342H81.9v1.232A.393.393,0,0,1,81.784,33.887Z" fill="#231815"/>
      <path d="M86.607,29.807h1.624v6.367a.5.5,0,0,1-.191.4.685.685,0,0,1-.448.156h-.985Z" fill="#231815"/>
      <path d="M92.3,36.734l-.88-1.744a.554.554,0,0,1-.075-.179.822.822,0,0,0-.077-.2,1.864,1.864,0,0,0-.083.2c0,.013-.032.073-.084.179l-.7,1.385a.561.561,0,0,1-.263.279.913.913,0,0,1-.393.08h-1.3l1.969-3.551-1.841-3.376h1.76l.776,1.568a.606.606,0,0,1,.077.184.583.583,0,0,0,.075.191,1.2,1.2,0,0,0,.092-.228.771.771,0,0,1,.077-.18l.759-1.535h1.76L92.1,33.183l1.975,3.551Z" fill="#231815"/>
      <path d="M99.655,33.887a.559.559,0,0,1-.368.1h-1.2V32.342h1.688v1.232A.393.393,0,0,1,99.655,33.887Z" fill="#231815"/>
    </g>
    <g>
      <g>
        <g>
          <path d="M40.366,200.253a.5.5,0,0,1,.148.357v.817a.5.5,0,0,1-.5.5H32.178a.5.5,0,0,1-.5-.5V191.091a.5.5,0,0,1,.5-.5h1.428a.5.5,0,0,1,.5.5V199.6a.5.5,0,0,0,.5.5h5.4A.5.5,0,0,1,40.366,200.253Z" fill="#231815"/>
          <path d="M50.657,190.733a.5.5,0,0,1,.148.356v10.339a.5.5,0,0,1-.5.5H48.866a.5.5,0,0,1-.5-.5V197.67a.5.5,0,0,0-.5-.5h-5.4a.5.5,0,0,1-.5-.5v-.818a.5.5,0,0,1,.5-.5h5.4a.5.5,0,0,0,.5-.5v-3.753a.5.5,0,0,1,.5-.5H50.3A.5.5,0,0,1,50.657,190.733Z" fill="#231815"/>
          <path d="M58.245,199.284a.5.5,0,0,0,.385.822h4.834a.5.5,0,0,1,.5.5v.821a.5.5,0,0,1-.5.5H55.626a.5.5,0,0,1-.5-.5v-1.141a.509.509,0,0,1,.115-.321l5.61-6.735a.5.5,0,0,0-.386-.822H55.625a.5.5,0,0,1-.5-.5v-.821a.5.5,0,0,1,.5-.5h7.844a.5.5,0,0,1,.5.5v1.141a.5.5,0,0,1-.116.321Z" fill="#231815"/>
          <path d="M68,201.931V190.585h2.441v11.346H68Z" fill="#231815"/>
          <path d="M84.085,190.736a.5.5,0,0,1,.145.358v.815a.5.5,0,0,1-.5.5h-5.4a.5.5,0,0,0-.5.5v8.511a.5.5,0,0,1-.5.5H75.893a.5.5,0,0,1-.5-.5V191.089a.5.5,0,0,1,.5-.5h7.836A.5.5,0,0,1,84.085,190.736Z" fill="#231815"/>
          <path d="M92.985,190.733a.5.5,0,0,1,.149.356v10.339a.5.5,0,0,1-.5.5H91.194a.5.5,0,0,1-.5-.5V197.67a.5.5,0,0,0-.5-.5h-5.4a.5.5,0,0,1-.5-.5v-.818a.5.5,0,0,1,.5-.5h5.4a.5.5,0,0,0,.5-.5v-3.753a.5.5,0,0,1,.5-.5h1.435A.5.5,0,0,1,92.985,190.733Z" fill="#231815"/>
          <path d="M106.821,200.253a.506.506,0,0,1,.148.357v.817a.5.5,0,0,1-.5.5H98.633a.5.5,0,0,1-.5-.5V191.091a.5.5,0,0,1,.5-.5h1.429a.5.5,0,0,1,.5.5V199.6a.5.5,0,0,0,.5.5h5.4A.5.5,0,0,1,106.821,200.253Z" fill="#231815"/>
          <path d="M113.371,199.284a.5.5,0,0,0,.386.822h4.833a.5.5,0,0,1,.5.5v.821a.5.5,0,0,1-.5.5h-7.837a.5.5,0,0,1-.5-.5v-1.141a.5.5,0,0,1,.116-.321l5.61-6.735a.5.5,0,0,0-.386-.822h-4.839a.5.5,0,0,1-.5-.5v-.821a.5.5,0,0,1,.5-.5H118.6a.5.5,0,0,1,.5.5v1.141a.5.5,0,0,1-.117.321Z" fill="#231815"/>
          <path d="M129.48,190.733a.5.5,0,0,1,.148.356v.819a.5.5,0,0,1-.5.5h-2.2a.5.5,0,0,0-.5.5v8.515a.5.5,0,0,1-.5.5h-1.438a.5.5,0,0,1-.5-.5v-8.515a.5.5,0,0,0-.5-.5h-2.2a.5.5,0,0,1-.5-.5v-.819a.5.5,0,0,1,.5-.5h7.843A.5.5,0,0,1,129.48,190.733Z" fill="#231815"/>
          <path d="M132.519,201.931V190.585h2.441v11.346h-2.441Z" fill="#231815"/>
          <path d="M148.591,200.253a.5.5,0,0,1,.147.357v.817a.5.5,0,0,1-.5.5H140.4a.5.5,0,0,1-.5-.5V191.091a.5.5,0,0,1,.5-.5h1.429a.5.5,0,0,1,.5.5V199.6a.5.5,0,0,0,.5.5h5.4A.5.5,0,0,1,148.591,200.253Zm-2.291-3.994v-5.672h2.436v5.672H146.3Z" fill="#231815"/>
        </g>
        <g>
          <path d="M75.964,214.949h-.6L73.6,212.4h-.031v2.553H72.9v-3.734H73.5l1.759,2.554H75.3v-2.554h.665Z" fill="#231815"/>
          <path d="M76.4,214.949l1.315-3.734h.825l1.321,3.734h-.717l-.313-.923H77.428l-.309.923Zm2.251-1.465-.508-1.5h-.031l-.505,1.5Z" fill="#231815"/>
          <path d="M80.3,211.215h1.4a1.157,1.157,0,0,1,1.315,1.191,1.068,1.068,0,0,1-.673,1.063l.807,1.48H82.4l-.732-1.367h-.7v1.367H80.3Zm1.3,1.806c.506,0,.732-.214.732-.615s-.226-.629-.732-.629h-.629v1.244Z" fill="#231815"/>
          <path d="M84.253,214.949h-.67v-3.734h.67Z" fill="#231815"/>
          <path d="M86.271,211.736c-.426,0-.679.2-.681.485,0,.314.33.443.639.515l.351.093c.557.129,1.093.423,1.093,1.073s-.518,1.1-1.413,1.1c-.869,0-1.421-.418-1.449-1.155h.66c.031.389.359.58.784.583.441,0,.745-.217.748-.537,0-.293-.271-.418-.676-.521l-.423-.108c-.613-.16-.995-.469-.995-1.006,0-.66.586-1.1,1.372-1.1s1.331.445,1.341,1.077h-.645C86.944,211.919,86.673,211.733,86.271,211.736Z" fill="#231815"/>
          <path d="M87.922,214.949l1.316-3.734h.825l1.32,3.734h-.716l-.313-.923H88.949l-.31.923Zm2.252-1.465-.508-1.5h-.031l-.506,1.5Z" fill="#231815"/>
          <path d="M94.885,214.949h-.6L92.518,212.4h-.032v2.553h-.67v-3.734h.609l1.759,2.554h.035v-2.554h.666Z" fill="#231815"/>
          <path d="M95.565,211.215h1.4a1.158,1.158,0,0,1,1.315,1.191,1.069,1.069,0,0,1-.673,1.063l.807,1.48H97.67l-.732-1.367h-.7v1.367h-.67Zm1.3,1.806c.505,0,.733-.214.733-.615s-.228-.629-.733-.629h-.63v1.244Z" fill="#231815"/>
          <path d="M100.471,215a1.931,1.931,0,1,1,1.713-1.919A1.718,1.718,0,0,1,100.471,215Zm0-.6c.611,0,1.039-.461,1.037-1.315s-.426-1.315-1.037-1.315-1.039.462-1.036,1.315S99.862,214.4,100.471,214.4Z" fill="#231815"/>
          <path d="M103.44,214.949h-.669v-3.734h.669Z" fill="#231815"/>
          <path d="M104.134,214.949v-3.734h1.289a1.868,1.868,0,0,1-.021,3.734Zm1.232-.583c.781,0,1.176-.428,1.176-1.289s-.395-1.281-1.155-1.279H104.8v2.568Z" fill="#231815"/>
        </g>
        <line x1="31.019" y1="205.031" x2="148.981" y2="205.031" fill="none" stroke="#231815" stroke-miterlimit="10"/>
      </g>
      <g>
        <path d="M86.259,223.228a.328.328,0,0,1-.236.228.685.685,0,0,1-.23.038.539.539,0,0,1-.348-.111c-.238-.2.086-.722.1-.743a.012.012,0,0,1,.015,0l0,.007v.007s-.328.525-.1.716a.606.606,0,0,0,.559.071.309.309,0,0,0,.222-.213.686.686,0,0,0-.076-.521.156.156,0,0,0-.137-.048.242.242,0,0,0-.192.137c-.042.087-.08.286.136.638v.01l-.009.006-.009,0c-.221-.361-.181-.567-.137-.658a.259.259,0,0,1,.209-.148.172.172,0,0,1,.154.054A.705.705,0,0,1,86.259,223.228Z" fill="#231815"/>
        <path d="M86.447,223.479a.011.011,0,0,1-.01.008h0a.01.01,0,0,1-.008-.011,4.314,4.314,0,0,0,.013-.824l0-.007.007,0h0a.009.009,0,0,1,.01.009A4.222,4.222,0,0,1,86.447,223.479Z" fill="#231815"/>
        <path d="M87.54,223.228a.327.327,0,0,1-.235.228.7.7,0,0,1-.23.038.54.54,0,0,1-.349-.111c-.238-.2.086-.722.1-.743a.01.01,0,0,1,.014,0l0,.007v.007s-.328.525-.1.716a.606.606,0,0,0,.559.071.311.311,0,0,0,.222-.213.686.686,0,0,0-.076-.521.155.155,0,0,0-.136-.048.241.241,0,0,0-.193.137c-.042.087-.08.286.135.638v.01l-.009.006-.009,0c-.221-.361-.181-.567-.137-.658a.259.259,0,0,1,.209-.148.172.172,0,0,1,.154.054A.705.705,0,0,1,87.54,223.228Z" fill="#231815"/>
        <path d="M88.266,223.362a.472.472,0,0,1-.32.09,2.047,2.047,0,0,1-.35-.037l-.008-.007,0-.01.01,0c.343.06.545.045.652-.048a.348.348,0,0,0,.1-.294.467.467,0,0,0-.28-.419.232.232,0,0,0-.246.015.162.162,0,0,0-.063.122.171.171,0,0,0,.062.11l0,.007,0,.008a.014.014,0,0,1-.015,0,.188.188,0,0,1-.071-.125.179.179,0,0,1,.07-.138.251.251,0,0,1,.268-.02.49.49,0,0,1,.292.438A.366.366,0,0,1,88.266,223.362Z" fill="#231815"/>
        <path d="M90.071,224.05a.8.8,0,0,1-.6.244.771.771,0,0,1-.462-.141.01.01,0,0,1,0-.014.01.01,0,0,1,.015,0,.831.831,0,0,0,1.037-.1c.128-.162.07-.375,0-.62a3.15,3.15,0,0,1-.073-.313c-.1.269-.285.384-.427.373a.281.281,0,0,1-.239-.224.621.621,0,0,1-.443.23.286.286,0,0,1-.338-.229.6.6,0,0,1,.2-.617.009.009,0,0,1,.014,0,.009.009,0,0,1,0,.013.583.583,0,0,0-.2.6.268.268,0,0,0,.317.213.607.607,0,0,0,.437-.237.781.781,0,0,1-.015-.095c-.02-.264-.011-.442.024-.463a.017.017,0,0,1,.019,0,.776.776,0,0,1,.043.419.3.3,0,0,1-.049.143.267.267,0,0,0,.225.226c.141.011.324-.11.419-.4,0-.026-.007-.052-.009-.079a.6.6,0,0,1,.067-.405.018.018,0,0,1,.021,0c.031.025.02.171-.032.393-.008.032-.017.063-.026.092a2.6,2.6,0,0,0,.08.349C90.146,223.662,90.206,223.879,90.071,224.05Zm-.754-.92a.562.562,0,0,0,.01.07.285.285,0,0,0,.034-.114.831.831,0,0,0-.032-.4,1.032,1.032,0,0,0-.012.443Zm.675-.119.011-.046c.067-.285.049-.365.04-.371a.634.634,0,0,0-.054.386Z" fill="#231815"/>
        <path d="M90.878,223.362a.469.469,0,0,1-.32.09,2.069,2.069,0,0,1-.35-.037l-.007-.007v-.01l.01,0c.344.06.544.045.653-.048a.351.351,0,0,0,.095-.294.467.467,0,0,0-.28-.419.233.233,0,0,0-.246.015.158.158,0,0,0-.062.122.167.167,0,0,0,.062.11l0,.007,0,.008a.014.014,0,0,1-.015,0,.183.183,0,0,1-.07-.125.178.178,0,0,1,.069-.138.253.253,0,0,1,.269-.02.491.491,0,0,1,.292.438A.366.366,0,0,1,90.878,223.362Z" fill="#231815"/>
        <path d="M91.152,223.479a.011.011,0,0,1-.009.008h0a.011.011,0,0,1-.008-.011,4.335,4.335,0,0,0,.014-.824l0-.007.007,0h0a.01.01,0,0,1,.01.009A4.222,4.222,0,0,1,91.152,223.479Z" fill="#231815"/>
        <path d="M92.164,223.41l0,.007a.011.011,0,0,1-.009.012l-.042,0-.009,0-.01,0c-.11.011-.22.017-.331.018a.668.668,0,0,1-.373-.072.172.172,0,0,1-.064-.182c.032-.1.163-.161.358-.177a.393.393,0,0,1,.355.215c-.005-.036-.009-.074-.013-.113a.764.764,0,0,0-.137-.453c-.16-.152-.511.037-.514.039a.011.011,0,0,1-.015,0,.011.011,0,0,1,0-.015c.015-.007.368-.2.538-.035a.776.776,0,0,1,.144.466c.006.06.011.117.021.168a.518.518,0,0,1,.045.121l.039-.005Zm-.078.007-.006-.015a.542.542,0,0,1-.028-.1.613.613,0,0,0-.1-.142.323.323,0,0,0-.238-.11H91.69c-.184.014-.311.074-.34.162a.149.149,0,0,0,.057.159C91.517,223.463,91.922,223.433,92.086,223.417Z" fill="#231815"/>
        <path d="M93.149,223.149c-.079.762-.147,1.12-.148,1.122a.011.011,0,0,1-.01.009h0l-.007,0,0-.007s.062-.321.135-1h0a.618.618,0,0,0-.057.029c-.131.066-.437.221-.609.113a.36.36,0,0,1-.123-.335.521.521,0,0,1,.253-.475.379.379,0,0,1,.386.025A.535.535,0,0,1,93.149,223.149Zm-.2-.5a.353.353,0,0,0-.2-.062.373.373,0,0,0-.164.039.5.5,0,0,0-.241.457c0,.16.034.267.113.316.162.1.461-.049.588-.114.053-.027.065-.033.074-.03,0-.034.008-.069.011-.106A.515.515,0,0,0,92.948,222.647Z" fill="#231815"/>
        <path d="M94.711,222.772l0,.01H94.7a3.433,3.433,0,0,0-.652-.155.481.481,0,0,1,.085.62.45.45,0,0,1-.387.215H93.72a.445.445,0,0,1-.356-.179.6.6,0,0,1,.063-.531.447.447,0,0,1,.47-.169,3.811,3.811,0,0,1,.807.181Zm-.69-.136,0-.012-.124-.019a.874.874,0,0,0-.1-.007.4.4,0,0,0-.35.167.574.574,0,0,0-.06.509.42.42,0,0,0,.338.167.426.426,0,0,0,.39-.205A.455.455,0,0,0,94.021,222.636Z" fill="#231815"/>
      </g>
    </g>
    <path d="M69.72,87.771A20.28,20.28,0,1,1,90,108.05v53.128" fill="none" stroke="#dbc81b" stroke-linecap="round" stroke-linejoin="round" stroke-width="5"/>
  </g>
</svg>
