<svg xmlns="http://www.w3.org/2000/svg" width="2.5in" height="3.5in" viewBox="0 0 180 252">
  <g>
    <g>
      <rect x="13.5" y="13.5" width="153" height="225" fill="none" stroke="#d2c128" stroke-miterlimit="10" stroke-width="5"/>
      <rect x="18" y="18" width="144" height="216" fill="none" stroke="#d2c128" stroke-miterlimit="10"/>
    </g>
    <g>
      <path d="M71.48,33.887a.559.559,0,0,1-.368.1h-1.2V32.342H71.6v1.232A.391.391,0,0,1,71.48,33.887Z" fill="#231815"/>
      <path d="M74.28,33.887a.559.559,0,0,1-.368.1h-1.2V32.342H74.4v1.232A.393.393,0,0,1,74.28,33.887Z" fill="#231815"/>
      <path d="M77.08,33.887a.559.559,0,0,1-.368.1h-1.2V32.342H77.2v1.232A.393.393,0,0,1,77.08,33.887Z" fill="#231815"/>
      <path d="M79.88,33.887a.557.557,0,0,1-.368.1h-1.2V32.342H80v1.232A.393.393,0,0,1,79.88,33.887Z" fill="#231815"/>
      <path d="M88.352,36.734l-.88-1.744a.6.6,0,0,1-.076-.179.8.8,0,0,0-.076-.2c-.053.123-.082.191-.084.2a1.9,1.9,0,0,1-.084.179l-.7,1.385a.559.559,0,0,1-.264.279.908.908,0,0,1-.392.08H84.5l1.968-3.551-1.84-3.376h1.76l.776,1.568a.564.564,0,0,1,.076.184.6.6,0,0,0,.076.191,1.285,1.285,0,0,0,.092-.228.8.8,0,0,1,.076-.18l.76-1.535H90l-1.848,3.376,1.976,3.551Z" fill="#231815"/>
      <path d="M90.5,29.807h1.624v6.367a.493.493,0,0,1-.191.4.686.686,0,0,1-.449.156H90.5Z" fill="#231815"/>
      <path d="M93.184,29.807h1.624v6.367a.5.5,0,0,1-.193.4.682.682,0,0,1-.447.156h-.984Z" fill="#231815"/>
      <path d="M101.56,33.887a.562.562,0,0,1-.369.1h-1.2V32.342h1.689v1.232A.393.393,0,0,1,101.56,33.887Z" fill="#231815"/>
      <path d="M104.359,33.887a.557.557,0,0,1-.368.1h-1.2V32.342h1.688v1.232A.393.393,0,0,1,104.359,33.887Z" fill="#231815"/>
      <path d="M107.159,33.887a.557.557,0,0,1-.368.1h-1.2V32.342h1.688v1.232A.393.393,0,0,1,107.159,33.887Z" fill="#231815"/>
      <path d="M109.96,33.887a.559.559,0,0,1-.368.1h-1.2V32.342h1.688v1.232A.393.393,0,0,1,109.96,33.887Z" fill="#231815"/>
    </g>
    <g>
      <g>
        <g>
          <path d="M40.306,191.088v10.344a.5.5,0,0,1-.5.5H31.959a.5.5,0,0,1-.5-.5v-.821a.5.5,0,0,1,.5-.5h5.4a.5.5,0,0,0,.5-.5v-8.517a.5.5,0,0,1,.5-.5H39.8A.5.5,0,0,1,40.306,191.088Zm-8.7,6.143v-6.646h2.437v6.646H31.607Zm2.844,0v-6.646h2.437v6.646H34.451Z" fill="#231815"/>
          <path d="M54.255,190.733a.5.5,0,0,1,.147.356v.819a.5.5,0,0,1-.5.5H51.7a.5.5,0,0,0-.5.5v8.515a.5.5,0,0,1-.5.5H49.26a.5.5,0,0,1-.5-.5v-8.515a.5.5,0,0,0-.5-.5h-2.2a.5.5,0,0,1-.5-.5v-.819a.5.5,0,0,1,.5-.5H53.9A.507.507,0,0,1,54.255,190.733Z" fill="#231815"/>
          <path d="M68.475,200.608v.821a.5.5,0,0,1-.5.5H60.136a.5.5,0,0,1-.5-.5V191.088a.5.5,0,0,1,.5-.5h1.433a.5.5,0,0,1,.5.5V199.6a.5.5,0,0,0,.5.5h5.4A.5.5,0,0,1,68.475,200.608Zm-5.427-3.377v-6.646h2.436v6.646H63.048Zm2.843,0v-6.646h2.436v6.646H65.891Z" fill="#231815"/>
          <path d="M83.806,195.849v.819a.5.5,0,0,1-.5.5H77.9a.5.5,0,0,0-.5.5v3.755a.5.5,0,0,1-.5.5H75.46a.5.5,0,0,1-.5-.5V191.089a.5.5,0,0,1,.5-.5H76.9a.5.5,0,0,1,.5.5v3.756a.5.5,0,0,0,.5.5h5.4A.5.5,0,0,1,83.806,195.849Z" fill="#231815"/>
          <path d="M98.206,190.736a.5.5,0,0,1,.145.358v.815a.5.5,0,0,1-.5.5h-5.4a.5.5,0,0,0-.5.5v8.511a.5.5,0,0,1-.5.5H90.013a.5.5,0,0,1-.5-.5V191.089a.5.5,0,0,1,.5-.5H97.85A.5.5,0,0,1,98.206,190.736Z" fill="#231815"/>
          <path d="M109.57,191.089v10.339a.5.5,0,0,1-.5.5h-1.436a.5.5,0,0,1-.5-.5V197.67a.5.5,0,0,0-.5-.5h-5.4a.5.5,0,0,1-.5-.5v-.818a.5.5,0,0,1,.5-.5h5.4a.5.5,0,0,0,.5-.5v-3.753a.5.5,0,0,1,.5-.5h1.436A.5.5,0,0,1,109.57,191.089Zm-5.643-2.162V187.1h2.441v1.824h-2.441Z" fill="#231815"/>
          <path d="M125.572,190.736a.5.5,0,0,1,.145.358v.815a.5.5,0,0,1-.5.5h-5.4a.5.5,0,0,0-.5.5v8.511a.5.5,0,0,1-.5.5h-1.433a.5.5,0,0,1-.5-.5V191.089a.5.5,0,0,1,.5-.5h7.837A.5.5,0,0,1,125.572,190.736Z" fill="#231815"/>
          <path d="M129.81,201.931V190.585h2.441v11.346H129.81Z" fill="#231815"/>
          <path d="M148.22,200.253a.509.509,0,0,1,.147.357v.817a.5.5,0,0,1-.5.5h-7.834a.5.5,0,0,1-.5-.5V191.091a.5.5,0,0,1,.5-.5h1.429a.5.5,0,0,1,.5.5V199.6a.5.5,0,0,0,.5.5h5.4A.505.505,0,0,1,148.22,200.253Z" fill="#231815"/>
        </g>
        <g>
          <path d="M75.493,211.215h1.4a1.238,1.238,0,1,1-.01,2.471h-.723v1.263h-.67Zm1.3,1.919a.644.644,0,0,0,.732-.681.637.637,0,0,0-.732-.676h-.629v1.357Z" fill="#231815"/>
          <path d="M80.362,215a1.931,1.931,0,1,1,1.713-1.919A1.718,1.718,0,0,1,80.362,215Zm0-.6c.612,0,1.04-.461,1.037-1.315s-.425-1.315-1.037-1.315-1.039.462-1.036,1.315S79.754,214.4,80.362,214.4Z" fill="#231815"/>
          <path d="M82.335,211.215h2.976v.562h-1.15v3.172H83.49v-3.172H82.335Z" fill="#231815"/>
          <path d="M88.86,211.215v2.439a1.526,1.526,0,0,1-3.032,0v-2.439h.67V213.6a.844.844,0,0,0,1.687,0v-2.383Zm-1.361-1.2h.645l-.563.83h-.489Z" fill="#231815"/>
          <path d="M90.866,211.736c-.426,0-.678.2-.68.485,0,.314.33.443.639.515l.351.093c.556.129,1.093.423,1.093,1.073s-.518,1.1-1.414,1.1c-.869,0-1.42-.418-1.449-1.155h.66c.032.389.359.58.785.583.441,0,.745-.217.748-.537,0-.293-.271-.418-.676-.521l-.423-.108c-.614-.16-1-.469-1-1.006,0-.66.585-1.1,1.371-1.1s1.331.445,1.342,1.077h-.646C91.539,211.919,91.269,211.733,90.866,211.736Z" fill="#231815"/>
          <path d="M92.518,214.949l1.315-3.734h.825l1.321,3.734h-.717l-.312-.923H93.544l-.31.923Zm2.252-1.465-.508-1.5H94.23l-.505,1.5Z" fill="#231815"/>
          <path d="M97.681,211.736c-.426,0-.678.2-.681.485,0,.314.33.443.64.515l.35.093c.557.129,1.094.423,1.094,1.073s-.519,1.1-1.413,1.1c-.869,0-1.421-.418-1.449-1.155h.66c.03.389.358.58.783.583.441,0,.745-.217.748-.537,0-.293-.27-.418-.676-.521l-.423-.108c-.613-.16-.995-.469-.995-1.006,0-.66.585-1.1,1.372-1.1s1.33.445,1.341,1.077h-.644C98.354,211.919,98.083,211.733,97.681,211.736Z" fill="#231815"/>
          <path d="M100.3,214.949h-.67v-3.734h.67Z" fill="#231815"/>
          <path d="M104.063,214.949h-.6L101.7,212.4h-.031v2.553H101v-3.734h.609l1.758,2.554h.036v-2.554h.665Z" fill="#231815"/>
        </g>
        <line x1="30.792" y1="205.031" x2="148.754" y2="205.031" fill="none" stroke="#231815" stroke-miterlimit="10"/>
      </g>
      <g>
        <path d="M86.032,223.228a.329.329,0,0,1-.235.228.7.7,0,0,1-.231.038.539.539,0,0,1-.348-.111c-.239-.2.086-.722.1-.743a.011.011,0,0,1,.015,0l0,.007v.007s-.328.525-.1.716a.606.606,0,0,0,.559.071.311.311,0,0,0,.222-.213.686.686,0,0,0-.076-.521.156.156,0,0,0-.137-.048.242.242,0,0,0-.192.137c-.043.087-.08.286.135.638v.01l-.009.006-.009,0c-.221-.361-.18-.567-.137-.658a.259.259,0,0,1,.209-.148.172.172,0,0,1,.154.054A.7.7,0,0,1,86.032,223.228Z" fill="#231815"/>
        <path d="M86.221,223.479a.013.013,0,0,1-.011.008h0a.01.01,0,0,1-.007-.011,4.231,4.231,0,0,0,.013-.824l0-.007.007,0h0a.01.01,0,0,1,.01.009A4.285,4.285,0,0,1,86.221,223.479Z" fill="#231815"/>
        <path d="M87.312,223.228a.325.325,0,0,1-.234.228.694.694,0,0,1-.23.038.544.544,0,0,1-.35-.111c-.237-.2.086-.722.1-.743a.01.01,0,0,1,.014,0l0,.007v.007s-.329.525-.1.716a.6.6,0,0,0,.558.071.311.311,0,0,0,.223-.213.691.691,0,0,0-.076-.521.156.156,0,0,0-.137-.048.24.24,0,0,0-.192.137c-.042.087-.08.286.135.638v.01l-.007.006-.01,0c-.221-.361-.181-.567-.137-.658a.257.257,0,0,1,.209-.148.172.172,0,0,1,.154.054A.7.7,0,0,1,87.312,223.228Z" fill="#231815"/>
        <path d="M88.039,223.362a.471.471,0,0,1-.32.09,2.058,2.058,0,0,1-.35-.037l-.008-.007,0-.01.01,0c.344.06.545.045.652-.048a.348.348,0,0,0,.1-.294.468.468,0,0,0-.279-.419.232.232,0,0,0-.246.015.157.157,0,0,0-.064.122.171.171,0,0,0,.062.11l.005.007,0,.008h-.015a.187.187,0,0,1-.07-.125.175.175,0,0,1,.069-.138.253.253,0,0,1,.269-.02.49.49,0,0,1,.291.438A.369.369,0,0,1,88.039,223.362Z" fill="#231815"/>
        <path d="M89.844,224.05a.8.8,0,0,1-.6.244.771.771,0,0,1-.462-.141.01.01,0,0,1,0-.014.01.01,0,0,1,.015,0,.831.831,0,0,0,1.037-.1c.128-.162.069-.375,0-.62a3.15,3.15,0,0,1-.073-.313c-.1.269-.285.384-.427.373a.279.279,0,0,1-.238-.224.626.626,0,0,1-.445.23.285.285,0,0,1-.337-.229.6.6,0,0,1,.2-.617.009.009,0,0,1,.014,0,.009.009,0,0,1,0,.013.583.583,0,0,0-.2.6.267.267,0,0,0,.316.213.608.608,0,0,0,.438-.237.625.625,0,0,1-.015-.095c-.02-.264-.011-.442.024-.463a.015.015,0,0,1,.018,0,.765.765,0,0,1,.043.419.29.29,0,0,1-.048.143.267.267,0,0,0,.225.226c.141.011.324-.11.419-.4,0-.026-.007-.052-.009-.079a.6.6,0,0,1,.067-.405.018.018,0,0,1,.021,0c.031.025.02.171-.032.393-.008.032-.017.063-.026.092a2.6,2.6,0,0,0,.08.349C89.919,223.662,89.979,223.879,89.844,224.05Zm-.754-.92a.562.562,0,0,0,.01.07.285.285,0,0,0,.034-.114.831.831,0,0,0-.032-.4,1.032,1.032,0,0,0-.012.443Zm.675-.119.011-.046c.067-.285.049-.365.04-.371a.634.634,0,0,0-.054.386Z" fill="#231815"/>
        <path d="M90.651,223.362a.471.471,0,0,1-.32.09,2.069,2.069,0,0,1-.35-.037l-.007-.007v-.01l.01,0c.344.06.544.045.653-.048a.351.351,0,0,0,.095-.294.467.467,0,0,0-.28-.419.233.233,0,0,0-.246.015.158.158,0,0,0-.062.122.167.167,0,0,0,.062.11l0,.007,0,.008a.014.014,0,0,1-.015,0,.183.183,0,0,1-.07-.125.178.178,0,0,1,.069-.138.253.253,0,0,1,.269-.02.491.491,0,0,1,.292.438A.366.366,0,0,1,90.651,223.362Z" fill="#231815"/>
        <path d="M90.926,223.479a.011.011,0,0,1-.01.008h0a.011.011,0,0,1-.008-.011,4.251,4.251,0,0,0,.014-.824l0-.007.007,0h0a.009.009,0,0,1,.009.009A4.285,4.285,0,0,1,90.926,223.479Z" fill="#231815"/>
        <path d="M91.938,223.41l0,.007a.01.01,0,0,1-.008.012l-.042,0-.009,0-.011,0c-.109.011-.22.017-.331.018a.67.67,0,0,1-.373-.072.169.169,0,0,1-.063-.182c.032-.1.163-.161.358-.177a.391.391,0,0,1,.354.215c0-.036-.008-.074-.012-.113a.764.764,0,0,0-.138-.453c-.159-.152-.511.037-.514.039a.01.01,0,0,1-.014,0,.011.011,0,0,1,0-.015c.014-.007.368-.2.538-.035a.776.776,0,0,1,.143.466c.006.06.012.117.022.168a.567.567,0,0,1,.045.121l.039-.005Zm-.079.007,0-.015a.545.545,0,0,1-.029-.1.58.58,0,0,0-.1-.142.326.326,0,0,0-.239-.11h-.024c-.185.014-.312.074-.341.162a.149.149,0,0,0,.058.159C91.29,223.463,91.7,223.433,91.859,223.417Z" fill="#231815"/>
        <path d="M92.923,223.149c-.079.762-.148,1.12-.149,1.122s0,.009-.009.009h0l-.007,0,0-.007s.061-.321.135-1h0a.6.6,0,0,0-.058.029c-.131.066-.436.221-.608.113a.36.36,0,0,1-.123-.335.519.519,0,0,1,.253-.475.378.378,0,0,1,.385.025A.538.538,0,0,1,92.923,223.149Zm-.2-.5a.356.356,0,0,0-.2-.062.378.378,0,0,0-.165.039.5.5,0,0,0-.241.457c0,.16.034.267.114.316.162.1.46-.049.587-.114.053-.027.066-.033.075-.03,0-.034.007-.069.01-.106A.515.515,0,0,0,92.722,222.647Z" fill="#231815"/>
        <path d="M94.484,222.772l0,.01h-.01a3.464,3.464,0,0,0-.653-.155.481.481,0,0,1,.085.62.448.448,0,0,1-.386.215h-.023a.443.443,0,0,1-.355-.179.6.6,0,0,1,.062-.531.449.449,0,0,1,.471-.169,3.835,3.835,0,0,1,.807.181Zm-.689-.136,0-.012-.124-.019a.845.845,0,0,0-.1-.007.4.4,0,0,0-.349.167.574.574,0,0,0-.061.509.42.42,0,0,0,.338.167.428.428,0,0,0,.391-.205A.455.455,0,0,0,93.8,222.636Z" fill="#231815"/>
      </g>
    </g>
    <g>
      <rect x="53.066" y="95.425" width="41.907" height="60.276" fill="none" stroke="#dbc81b" stroke-linecap="round" stroke-linejoin="round" stroke-width="5"/>
      <polyline points="69.046 79.445 110.954 79.445 110.954 139.72" fill="none" stroke="#dbc81b" stroke-linecap="round" stroke-linejoin="round" stroke-width="5"/>
      <polyline points="85.026 63.465 126.934 63.465 126.934 123.741" fill="none" stroke="#dbc81b" stroke-linecap="round" stroke-linejoin="round" stroke-width="5"/>
    </g>
  </g>
</svg>
