<svg xmlns="http://www.w3.org/2000/svg" width="2.5in" height="3.5in" viewBox="0 0 180 252">
  <g>
    <g>
      <rect x="13.5" y="13.5" width="153" height="225" fill="none" stroke="#d2c128" stroke-miterlimit="10" stroke-width="5"/>
      <rect x="18" y="18" width="144" height="216" fill="none" stroke="#d2c128" stroke-miterlimit="10"/>
    </g>
    <g>
      <path d="M75.3,29.807H76.92v6.367a.5.5,0,0,1-.192.4.685.685,0,0,1-.448.156H75.3Z" fill="#231815"/>
      <path d="M77.823,29.807h1.624v6.367a.493.493,0,0,1-.191.4.683.683,0,0,1-.448.156h-.985Z" fill="#231815"/>
      <path d="M87.3,36.734l-.88-1.744a.543.543,0,0,1-.076-.179.755.755,0,0,0-.076-.2c-.053.123-.081.191-.084.2a1.9,1.9,0,0,1-.084.179l-.7,1.385a.553.553,0,0,1-.263.279.908.908,0,0,1-.392.08H83.439l1.969-3.551-1.841-3.376h1.761l.776,1.568a.539.539,0,0,1,.076.184.572.572,0,0,0,.076.191,1.379,1.379,0,0,0,.092-.228.851.851,0,0,1,.076-.18l.76-1.535h1.76L87.1,33.183l1.976,3.551Z" fill="#231815"/>
      <path d="M89.279,29.807H90.9v6.367a.493.493,0,0,1-.191.4.683.683,0,0,1-.448.156h-.985Z" fill="#231815"/>
      <path d="M93.831,33.91a1.8,1.8,0,0,0,.045-.24,1.437,1.437,0,0,1,.044-.232l.983-3.631h1.672l-1.96,6.544a.565.565,0,0,1-.195.307.557.557,0,0,1-.349.109h-.887l-2.08-6.96h1.664l.992,3.639a1.893,1.893,0,0,1,.044.228C93.816,33.773,93.826,33.852,93.831,33.91Z" fill="#231815"/>
      <path d="M100.543,29.807h1.624v6.367a.493.493,0,0,1-.191.4.686.686,0,0,1-.449.156h-.984Z" fill="#231815"/>
      <path d="M103.071,29.807H104.7v6.367a.493.493,0,0,1-.191.4.683.683,0,0,1-.448.156h-.985Z" fill="#231815"/>
    </g>
    <g>
      <g>
        <g>
          <path d="M31.384,201.931V190.585h2.441v11.346H31.384Z" fill="#231815"/>
          <path d="M57.876,190.732a.5.5,0,0,1,.148.356v10.344a.5.5,0,0,1-.5.5H56.084a.5.5,0,0,1-.5-.5v-8.517a.5.5,0,0,0-.5-.5h-5.4a.5.5,0,0,1-.5-.5v-.821a.5.5,0,0,1,.5-.5H57.52A.5.5,0,0,1,57.876,190.732Zm-8.552,11.2v-6.647h2.437v6.647H49.324Zm2.843,0v-6.647H54.6v6.647H52.167Z" fill="#231815"/>
          <path d="M80.658,190.733a.5.5,0,0,1,.148.356v10.339a.5.5,0,0,1-.5.5H78.867a.5.5,0,0,1-.5-.5V197.67a.5.5,0,0,0-.5-.5h-5.4a.5.5,0,0,1-.5-.5v-.818a.5.5,0,0,1,.5-.5h5.4a.5.5,0,0,0,.5-.5v-3.753a.5.5,0,0,1,.5-.5H80.3A.5.5,0,0,1,80.658,190.733Z" fill="#231815"/>
          <path d="M105.025,200.253a.5.5,0,0,1,.149.357v.817a.5.5,0,0,1-.5.5H96.837a.5.5,0,0,1-.5-.5V191.091a.5.5,0,0,1,.5-.5h1.429a.5.5,0,0,1,.5.5V199.6a.5.5,0,0,0,.5.5h5.4A.5.5,0,0,1,105.025,200.253Zm-4.274-7.843v-1.823h4.426v1.823h-4.426Z" fill="#231815"/>
          <path d="M127.509,200.609v.819a.5.5,0,0,1-.5.5h-7.842a.5.5,0,0,1-.5-.5v-.819a.5.5,0,0,1,.5-.5h2.2a.5.5,0,0,0,.5-.5v-8.515a.5.5,0,0,1,.5-.5H123.8a.5.5,0,0,1,.5.5V199.6a.5.5,0,0,0,.5.5h2.2A.5.5,0,0,1,127.509,200.609Z" fill="#231815"/>
          <path d="M148.447,190.733a.507.507,0,0,1,.147.356v.819a.5.5,0,0,1-.5.5h-2.2a.5.5,0,0,0-.5.5v8.515a.5.5,0,0,1-.5.5h-1.438a.5.5,0,0,1-.5-.5v-8.515a.5.5,0,0,0-.5-.5h-2.2a.5.5,0,0,1-.5-.5v-.819a.5.5,0,0,1,.5-.5h7.843A.507.507,0,0,1,148.447,190.733Z" fill="#231815"/>
        </g>
        <g>
          <path d="M81.558,214.949h-.67v-3.734h.67Z" fill="#231815"/>
          <path d="M82.25,211.215h.671v1.718h.051l1.46-1.718h.82l-1.444,1.677,1.46,2.057h-.811l-1.119-1.6-.417.489v1.114H82.25Z" fill="#231815"/>
          <path d="M85.428,214.949l1.315-3.734h.825l1.321,3.734h-.717l-.313-.923H86.454l-.309.923Zm2.252-1.465-.509-1.5h-.03l-.506,1.5Z" fill="#231815"/>
          <path d="M89.322,211.215h.67v3.167h1.651v.567H89.322Z" fill="#231815"/>
          <path d="M95.2,211.215v2.439a1.526,1.526,0,0,1-3.032,0v-2.439h.671V213.6a.843.843,0,0,0,1.685,0v-2.383Z" fill="#231815"/>
          <path d="M97.5,215a1.931,1.931,0,1,1,1.713-1.919A1.718,1.718,0,0,1,97.5,215Zm0-.6c.611,0,1.039-.461,1.037-1.315s-.426-1.315-1.037-1.315-1.039.462-1.036,1.315S96.9,214.4,97.5,214.4Z" fill="#231815"/>
        </g>
        <line x1="31.019" y1="205.031" x2="148.981" y2="205.031" fill="none" stroke="#231815" stroke-miterlimit="10"/>
      </g>
      <g>
        <path d="M86.26,223.228a.332.332,0,0,1-.237.228.684.684,0,0,1-.229.038.541.541,0,0,1-.349-.111c-.238-.2.086-.722.1-.743a.011.011,0,0,1,.015,0l0,.007v.007s-.328.525-.1.716a.606.606,0,0,0,.559.071.308.308,0,0,0,.221-.213.682.682,0,0,0-.076-.521.155.155,0,0,0-.137-.048.242.242,0,0,0-.192.137c-.042.087-.08.286.136.638v.01l-.01.006-.009,0c-.221-.361-.181-.567-.137-.658a.26.26,0,0,1,.209-.148.174.174,0,0,1,.155.054A.71.71,0,0,1,86.26,223.228Z" fill="#231815"/>
        <path d="M86.447,223.479a.011.011,0,0,1-.009.008h0s-.009-.007-.007-.011a4.378,4.378,0,0,0,.012-.824l0-.007.007,0h0a.009.009,0,0,1,.01.009A4.144,4.144,0,0,1,86.447,223.479Z" fill="#231815"/>
        <path d="M87.54,223.228a.327.327,0,0,1-.235.228.7.7,0,0,1-.23.038.54.54,0,0,1-.349-.111c-.238-.2.086-.722.1-.743a.01.01,0,0,1,.014,0l0,.007v.007s-.329.525-.1.716a.607.607,0,0,0,.559.071.311.311,0,0,0,.223-.213.686.686,0,0,0-.077-.521.155.155,0,0,0-.136-.048.241.241,0,0,0-.193.137c-.042.087-.08.286.136.638v.01l-.009.006-.009,0c-.221-.361-.18-.567-.136-.658a.256.256,0,0,1,.208-.148.172.172,0,0,1,.154.054A.705.705,0,0,1,87.54,223.228Z" fill="#231815"/>
        <path d="M88.267,223.362a.475.475,0,0,1-.321.09,2.036,2.036,0,0,1-.349-.037l-.009-.007,0-.01.01,0c.343.06.545.045.653-.048a.348.348,0,0,0,.095-.294.467.467,0,0,0-.28-.419.233.233,0,0,0-.246.015.158.158,0,0,0-.062.122.165.165,0,0,0,.061.11l0,.007,0,.008H87.81a.185.185,0,0,1-.072-.125.18.18,0,0,1,.071-.138.25.25,0,0,1,.267-.02.49.49,0,0,1,.292.438A.366.366,0,0,1,88.267,223.362Z" fill="#231815"/>
        <path d="M90.071,224.05a.793.793,0,0,1-.6.244.771.771,0,0,1-.462-.141.01.01,0,0,1,.012-.016.832.832,0,0,0,1.038-.1c.128-.162.069-.375,0-.62a3.155,3.155,0,0,1-.074-.313c-.1.269-.285.384-.426.373a.281.281,0,0,1-.24-.224.619.619,0,0,1-.443.23.286.286,0,0,1-.338-.229.6.6,0,0,1,.2-.617.01.01,0,0,1,.015,0,.009.009,0,0,1,0,.013.583.583,0,0,0-.2.6.268.268,0,0,0,.317.213.61.61,0,0,0,.438-.237.521.521,0,0,1-.015-.095c-.021-.264-.012-.442.023-.463a.017.017,0,0,1,.019,0,.776.776,0,0,1,.043.419.312.312,0,0,1-.048.143.265.265,0,0,0,.225.226c.14.011.324-.11.419-.4,0-.026-.007-.052-.009-.079a.6.6,0,0,1,.066-.405.02.02,0,0,1,.022,0c.031.025.019.171-.033.393a.823.823,0,0,1-.026.092,2.942,2.942,0,0,0,.08.349C90.146,223.662,90.206,223.879,90.071,224.05Zm-.754-.92a.562.562,0,0,0,.01.07.27.27,0,0,0,.034-.114.816.816,0,0,0-.032-.4,1.053,1.053,0,0,0-.012.443Zm.675-.119.012-.046c.066-.285.049-.365.04-.371a.63.63,0,0,0-.055.386Z" fill="#231815"/>
        <path d="M90.879,223.362a.471.471,0,0,1-.32.09,2.047,2.047,0,0,1-.35-.037l-.008-.007v-.01l.011,0c.344.06.544.045.652-.048a.348.348,0,0,0,.1-.294.469.469,0,0,0-.28-.419.232.232,0,0,0-.246.015.156.156,0,0,0-.063.122.168.168,0,0,0,.063.11l0,.007v.008a.014.014,0,0,1-.015,0,.159.159,0,0,1,0-.263.251.251,0,0,1,.268-.02.49.49,0,0,1,.292.438A.369.369,0,0,1,90.879,223.362Z" fill="#231815"/>
        <path d="M91.153,223.479a.011.011,0,0,1-.009.008h0a.011.011,0,0,1-.008-.011,4.231,4.231,0,0,0,.013-.824l0-.007.007,0h0a.01.01,0,0,1,.01.009A4.222,4.222,0,0,1,91.153,223.479Z" fill="#231815"/>
        <path d="M92.165,223.41l0,.007a.011.011,0,0,1-.009.012l-.042,0-.009,0-.01,0c-.11.011-.22.017-.331.018a.668.668,0,0,1-.373-.072.172.172,0,0,1-.064-.182c.032-.1.163-.161.358-.177a.393.393,0,0,1,.355.215c0-.036-.009-.074-.013-.113a.764.764,0,0,0-.137-.453c-.16-.152-.511.037-.514.039a.011.011,0,0,1-.015,0,.011.011,0,0,1,.005-.015c.015-.007.368-.2.538-.035a.776.776,0,0,1,.144.466c.006.06.011.117.021.168a.518.518,0,0,1,.045.121l.039-.005Zm-.078.007-.006-.015a.542.542,0,0,1-.028-.1.613.613,0,0,0-.1-.142.323.323,0,0,0-.238-.11h-.025c-.184.014-.311.074-.34.162a.149.149,0,0,0,.057.159C91.518,223.463,91.923,223.433,92.087,223.417Z" fill="#231815"/>
        <path d="M93.15,223.149c-.079.762-.147,1.12-.148,1.122a.011.011,0,0,1-.01.009h0l-.007,0,0-.007s.062-.321.135-1h0a.618.618,0,0,0-.057.029c-.131.066-.437.221-.609.113a.36.36,0,0,1-.123-.335.521.521,0,0,1,.253-.475.379.379,0,0,1,.386.025A.538.538,0,0,1,93.15,223.149Zm-.2-.5a.353.353,0,0,0-.2-.062.373.373,0,0,0-.164.039.5.5,0,0,0-.241.457c0,.16.034.267.113.316.162.1.461-.049.588-.114.053-.027.065-.033.074-.03,0-.034.008-.069.011-.106A.515.515,0,0,0,92.949,222.647Z" fill="#231815"/>
        <path d="M94.712,222.772l0,.01H94.7a3.433,3.433,0,0,0-.652-.155.481.481,0,0,1,.085.62.45.45,0,0,1-.387.215h-.022a.445.445,0,0,1-.356-.179.6.6,0,0,1,.063-.531.447.447,0,0,1,.47-.169,3.811,3.811,0,0,1,.807.181Zm-.69-.136,0-.012-.124-.019a.874.874,0,0,0-.1-.007.4.4,0,0,0-.35.167.574.574,0,0,0-.06.509.418.418,0,0,0,.338.167.426.426,0,0,0,.39-.205A.455.455,0,0,0,94.022,222.636Z" fill="#231815"/>
      </g>
    </g>
    <g>
      <rect x="89.777" y="75.491" width="50.416" height="72.514" fill="none" stroke="#dbc81b" stroke-linecap="round" stroke-linejoin="round" stroke-width="5"/>
      <rect x="39.316" y="75.446" width="50.416" height="72.514" fill="none" stroke="#dbc81b" stroke-linecap="round" stroke-linejoin="round" stroke-width="5"/>
      <line x1="48.249" y1="107.365" x2="80.799" y2="107.365" fill="none" stroke="#dbc81b" stroke-linecap="round" stroke-linejoin="round" stroke-width="5"/>
      <line x1="57.88" y1="116.04" x2="71.168" y2="116.04" fill="none" stroke="#dbc81b" stroke-linecap="round" stroke-linejoin="round" stroke-width="5"/>
      <line x1="102.664" y1="94.397" x2="131.26" y2="94.397" fill="none" stroke="#dbc81b" stroke-linecap="round" stroke-linejoin="round" stroke-width="5"/>
      <line x1="98.71" y1="103.073" x2="131.26" y2="103.073" fill="none" stroke="#dbc81b" stroke-linecap="round" stroke-linejoin="round" stroke-width="5"/>
      <line x1="98.71" y1="111.748" x2="131.26" y2="111.748" fill="none" stroke="#dbc81b" stroke-linecap="round" stroke-linejoin="round" stroke-width="5"/>
      <line x1="98.71" y1="120.423" x2="131.26" y2="120.423" fill="none" stroke="#dbc81b" stroke-linecap="round" stroke-linejoin="round" stroke-width="5"/>
      <line x1="98.71" y1="129.098" x2="102.664" y2="129.098" fill="none" stroke="#dbc81b" stroke-linecap="round" stroke-linejoin="round" stroke-width="5"/>
    </g>
  </g>
</svg>
