<svg xmlns="http://www.w3.org/2000/svg" width="2.5in" height="3.5in" viewBox="0 0 180 252">
  <g>
    <g>
      <rect x="13.5" y="13.5" width="153" height="225" fill="none" stroke="#209554" stroke-miterlimit="10" stroke-width="5"/>
      <rect x="18" y="18" width="144" height="216" fill="none" stroke="#209554" stroke-miterlimit="10"/>
    </g>
    <g>
      <path d="M77.32,33.887a.559.559,0,0,1-.368.1h-1.2V32.342H77.44v1.232A.393.393,0,0,1,77.32,33.887Z" fill="#231815"/>
      <path d="M85.792,36.734l-.88-1.744a.543.543,0,0,1-.076-.179.8.8,0,0,0-.076-.2c-.053.123-.082.191-.084.2a1.9,1.9,0,0,1-.084.179l-.7,1.385a.559.559,0,0,1-.264.279.908.908,0,0,1-.392.08h-1.3L83.9,33.183l-1.841-3.376h1.761l.776,1.568a.564.564,0,0,1,.076.184.583.583,0,0,0,.075.191,1.244,1.244,0,0,0,.093-.228.8.8,0,0,1,.076-.18l.76-1.535h1.76l-1.848,3.376,1.976,3.551Z" fill="#231815"/>
      <path d="M89.959,33.91A1.8,1.8,0,0,0,90,33.67a1.557,1.557,0,0,1,.044-.232l.984-3.631H92.7l-1.96,6.544a.567.567,0,0,1-.2.307.556.556,0,0,1-.348.109h-.888l-2.08-6.96H88.9l.992,3.639a1.713,1.713,0,0,1,.044.228C89.945,33.773,89.954,33.852,89.959,33.91Z" fill="#231815"/>
      <path d="M93.056,29.807H94.68v6.367a.5.5,0,0,1-.193.4.682.682,0,0,1-.447.156h-.984Z" fill="#231815"/>
      <path d="M95.743,29.807h1.624v6.367a.493.493,0,0,1-.191.4.685.685,0,0,1-.448.156h-.985Z" fill="#231815"/>
      <path d="M104.12,33.887a.559.559,0,0,1-.368.1h-1.2V32.342h1.688v1.232A.393.393,0,0,1,104.12,33.887Z" fill="#231815"/>
    </g>
    <g>
      <g>
        <g>
          <path d="M40.146,191.089v10.339a.5.5,0,0,1-.5.5H38.207a.5.5,0,0,1-.5-.5V197.67a.5.5,0,0,0-.5-.5H31.8a.5.5,0,0,1-.5-.5v-.818a.5.5,0,0,1,.5-.5h5.4a.5.5,0,0,0,.5-.5v-3.753a.5.5,0,0,1,.5-.5h1.437A.5.5,0,0,1,40.146,191.089Zm-6.5-2.162V187.1h2.441v1.824H33.647Zm2.715,0V187.1H38.8v1.824H36.362Z" fill="#231815"/>
          <path d="M57.931,200.253a.506.506,0,0,1,.148.357v.817a.5.5,0,0,1-.5.5H49.743a.5.5,0,0,1-.5-.5V191.091a.5.5,0,0,1,.5-.5h1.428a.5.5,0,0,1,.5.5V199.6a.5.5,0,0,0,.5.5h5.4A.5.5,0,0,1,57.931,200.253Zm-4.275-7.843v-1.823h4.426v1.823H53.656Z" fill="#231815"/>
          <path d="M66.1,201.931V190.585h2.442v11.346H66.1Z" fill="#231815"/>
          <path d="M86.163,190.732a.508.508,0,0,1,.148.356v10.344a.5.5,0,0,1-.5.5H84.37a.5.5,0,0,1-.5-.5v-8.517a.5.5,0,0,0-.5-.5h-5.4a.5.5,0,0,1-.5-.5v-.821a.5.5,0,0,1,.5-.5h7.844A.507.507,0,0,1,86.163,190.732Zm-8.553,11.2v-6.647h2.437v6.647H77.61Zm2.844,0v-6.647H82.89v6.647H80.454Z" fill="#231815"/>
          <path d="M95.4,201.931V190.585h2.442v11.346H95.4Z" fill="#231815"/>
          <path d="M115.594,200.253a.509.509,0,0,1,.147.357v.817a.5.5,0,0,1-.5.5H107.4a.5.5,0,0,1-.5-.5V191.091a.5.5,0,0,1,.5-.5h1.429a.5.5,0,0,1,.5.5V199.6a.5.5,0,0,0,.5.5h5.4A.505.505,0,0,1,115.594,200.253Zm-4.276-7.843v-1.823h4.426v1.823h-4.426Z" fill="#231815"/>
          <path d="M130,190.733a.5.5,0,0,1,.147.356v10.339a.5.5,0,0,1-.5.5h-1.437a.5.5,0,0,1-.5-.5V197.67a.5.5,0,0,0-.5-.5h-5.4a.5.5,0,0,1-.5-.5v-.818a.5.5,0,0,1,.5-.5h5.4a.5.5,0,0,0,.5-.5v-3.753a.5.5,0,0,1,.5-.5h1.434A.5.5,0,0,1,130,190.733Z" fill="#231815"/>
          <path d="M147.949,190.736a.5.5,0,0,1,.145.358v.815a.5.5,0,0,1-.5.5h-5.4a.5.5,0,0,0-.5.5v8.511a.5.5,0,0,1-.5.5h-1.433a.5.5,0,0,1-.5-.5V191.089a.5.5,0,0,1,.5-.5h7.837A.5.5,0,0,1,147.949,190.736Z" fill="#231815"/>
        </g>
        <g>
          <path d="M76.74,214.949l1.316-3.734h.825l1.32,3.734h-.717l-.312-.923H77.767l-.31.923Zm1.187-4.833a.336.336,0,0,1,.345.341.341.341,0,0,1-.345.346.355.355,0,0,1-.356-.346A.349.349,0,0,1,77.927,210.116Zm1.065,3.368-.509-1.5h-.03l-.506,1.5Zm.028-3.368a.339.339,0,0,1,.346.341.345.345,0,0,1-.346.346.357.357,0,0,1-.356-.346A.351.351,0,0,1,79.02,210.116Z" fill="#231815"/>
          <path d="M80.634,211.215h.671v3.167h1.65v.567H80.634Z" fill="#231815"/>
          <path d="M84.154,214.949h-.67v-3.734h.67Z" fill="#231815"/>
          <path d="M86.466,211.164a1.718,1.718,0,0,1,1.712,1.918,1.938,1.938,0,0,1-.606,1.526l.518.666h-.654l-.312-.394a1.778,1.778,0,0,1-.658.121,1.931,1.931,0,0,1,0-3.837Zm.382,2.532.317.417a1.428,1.428,0,0,0,.337-1.031c0-.853-.425-1.315-1.036-1.315s-1.039.462-1.037,1.315.428,1.315,1.037,1.315a1.056,1.056,0,0,0,.279-.036l-.511-.665Z" fill="#231815"/>
          <path d="M91.8,211.215v2.439a1.526,1.526,0,0,1-3.032,0v-2.439h.67V213.6a.844.844,0,0,0,1.686,0v-2.383Z" fill="#231815"/>
          <path d="M93.154,214.949h-.671v-3.734h.671Z" fill="#231815"/>
          <path d="M93.847,211.215h.67v3.167h1.65v.567h-2.32Z" fill="#231815"/>
          <path d="M96.6,214.949l1.314-3.734h.825l1.321,3.734h-.717l-.312-.923H97.621l-.309.923Zm2.251-1.465-.508-1.5h-.031l-.506,1.5Z" fill="#231815"/>
          <path d="M101.757,211.736c-.426,0-.678.2-.681.485,0,.314.33.443.64.515l.35.093c.557.129,1.094.423,1.094,1.073s-.518,1.1-1.413,1.1c-.869,0-1.421-.418-1.449-1.155h.66c.03.389.358.58.783.583.442,0,.745-.217.748-.537,0-.293-.27-.418-.676-.521l-.422-.108c-.614-.16-1-.469-1-1.006,0-.66.584-1.1,1.372-1.1s1.33.445,1.34,1.077h-.644C102.43,211.919,102.159,211.733,101.757,211.736Z" fill="#231815"/>
        </g>
        <line x1="31.019" y1="205.031" x2="148.981" y2="205.031" fill="none" stroke="#231815" stroke-miterlimit="10"/>
      </g>
      <g>
        <path d="M86.259,223.228a.328.328,0,0,1-.236.228.685.685,0,0,1-.23.038.539.539,0,0,1-.348-.111c-.238-.2.086-.722.1-.743a.012.012,0,0,1,.015,0l0,.007v.007s-.328.525-.1.716a.606.606,0,0,0,.559.071.309.309,0,0,0,.222-.213.686.686,0,0,0-.076-.521.156.156,0,0,0-.137-.048.242.242,0,0,0-.192.137c-.042.087-.08.286.136.638v.01l-.009.006-.009,0c-.221-.361-.181-.567-.137-.658a.259.259,0,0,1,.209-.148.172.172,0,0,1,.154.054A.705.705,0,0,1,86.259,223.228Z" fill="#231815"/>
        <path d="M86.447,223.479a.011.011,0,0,1-.01.008h0a.01.01,0,0,1-.008-.011,4.314,4.314,0,0,0,.013-.824l0-.007.007,0h0a.009.009,0,0,1,.01.009A4.222,4.222,0,0,1,86.447,223.479Z" fill="#231815"/>
        <path d="M87.54,223.228a.327.327,0,0,1-.235.228.7.7,0,0,1-.23.038.54.54,0,0,1-.349-.111c-.238-.2.086-.722.1-.743a.01.01,0,0,1,.014,0l0,.007v.007s-.328.525-.1.716a.606.606,0,0,0,.559.071.311.311,0,0,0,.222-.213.686.686,0,0,0-.076-.521.155.155,0,0,0-.136-.048.241.241,0,0,0-.193.137c-.042.087-.08.286.135.638v.01l-.009.006-.009,0c-.221-.361-.181-.567-.137-.658a.259.259,0,0,1,.209-.148.172.172,0,0,1,.154.054A.705.705,0,0,1,87.54,223.228Z" fill="#231815"/>
        <path d="M88.266,223.362a.472.472,0,0,1-.32.09,2.047,2.047,0,0,1-.35-.037l-.008-.007,0-.01.01,0c.343.06.545.045.652-.048a.348.348,0,0,0,.1-.294.467.467,0,0,0-.28-.419.232.232,0,0,0-.246.015.162.162,0,0,0-.063.122.171.171,0,0,0,.062.11l0,.007,0,.008a.014.014,0,0,1-.015,0,.188.188,0,0,1-.071-.125.179.179,0,0,1,.07-.138.251.251,0,0,1,.268-.02.49.49,0,0,1,.292.438A.366.366,0,0,1,88.266,223.362Z" fill="#231815"/>
        <path d="M90.071,224.05a.8.8,0,0,1-.6.244.771.771,0,0,1-.462-.141.01.01,0,0,1,0-.014.01.01,0,0,1,.015,0,.831.831,0,0,0,1.037-.1c.128-.162.07-.375,0-.62a3.15,3.15,0,0,1-.073-.313c-.1.269-.285.384-.427.373a.281.281,0,0,1-.239-.224.621.621,0,0,1-.443.23.286.286,0,0,1-.338-.229.6.6,0,0,1,.2-.617.009.009,0,0,1,.014,0,.009.009,0,0,1,0,.013.583.583,0,0,0-.2.6.268.268,0,0,0,.317.213.607.607,0,0,0,.437-.237.781.781,0,0,1-.015-.095c-.02-.264-.011-.442.024-.463a.017.017,0,0,1,.019,0,.776.776,0,0,1,.043.419.3.3,0,0,1-.049.143.267.267,0,0,0,.225.226c.141.011.324-.11.419-.4,0-.026-.007-.052-.009-.079a.6.6,0,0,1,.067-.405.018.018,0,0,1,.021,0c.031.025.02.171-.032.393-.008.032-.017.063-.026.092a2.6,2.6,0,0,0,.08.349C90.146,223.662,90.206,223.879,90.071,224.05Zm-.754-.92a.562.562,0,0,0,.01.07.285.285,0,0,0,.034-.114.831.831,0,0,0-.032-.4,1.032,1.032,0,0,0-.012.443Zm.675-.119.011-.046c.067-.285.049-.365.04-.371a.634.634,0,0,0-.054.386Z" fill="#231815"/>
        <path d="M90.878,223.362a.469.469,0,0,1-.32.09,2.069,2.069,0,0,1-.35-.037l-.007-.007v-.01l.01,0c.344.06.544.045.653-.048a.351.351,0,0,0,.095-.294.467.467,0,0,0-.28-.419.233.233,0,0,0-.246.015.158.158,0,0,0-.062.122.167.167,0,0,0,.062.11l0,.007,0,.008a.014.014,0,0,1-.015,0,.183.183,0,0,1-.07-.125.178.178,0,0,1,.069-.138.253.253,0,0,1,.269-.02.491.491,0,0,1,.292.438A.366.366,0,0,1,90.878,223.362Z" fill="#231815"/>
        <path d="M91.152,223.479a.011.011,0,0,1-.009.008h0a.011.011,0,0,1-.008-.011,4.335,4.335,0,0,0,.014-.824l0-.007.007,0h0a.01.01,0,0,1,.01.009A4.222,4.222,0,0,1,91.152,223.479Z" fill="#231815"/>
        <path d="M92.164,223.41l0,.007a.011.011,0,0,1-.009.012l-.042,0-.009,0-.01,0c-.11.011-.22.017-.331.018a.668.668,0,0,1-.373-.072.172.172,0,0,1-.064-.182c.032-.1.163-.161.358-.177a.393.393,0,0,1,.355.215c-.005-.036-.009-.074-.013-.113a.764.764,0,0,0-.137-.453c-.16-.152-.511.037-.514.039a.011.011,0,0,1-.015,0,.011.011,0,0,1,0-.015c.015-.007.368-.2.538-.035a.776.776,0,0,1,.144.466c.006.06.011.117.021.168a.518.518,0,0,1,.045.121l.039-.005Zm-.078.007-.006-.015a.542.542,0,0,1-.028-.1.613.613,0,0,0-.1-.142.323.323,0,0,0-.238-.11H91.69c-.184.014-.311.074-.34.162a.149.149,0,0,0,.057.159C91.517,223.463,91.922,223.433,92.086,223.417Z" fill="#231815"/>
        <path d="M93.149,223.149c-.079.762-.147,1.12-.148,1.122a.011.011,0,0,1-.01.009h0l-.007,0,0-.007s.062-.321.135-1h0a.618.618,0,0,0-.057.029c-.131.066-.437.221-.609.113a.36.36,0,0,1-.123-.335.521.521,0,0,1,.253-.475.379.379,0,0,1,.386.025A.535.535,0,0,1,93.149,223.149Zm-.2-.5a.353.353,0,0,0-.2-.062.373.373,0,0,0-.164.039.5.5,0,0,0-.241.457c0,.16.034.267.113.316.162.1.461-.049.588-.114.053-.027.065-.033.074-.03,0-.034.008-.069.011-.106A.515.515,0,0,0,92.948,222.647Z" fill="#231815"/>
        <path d="M94.711,222.772l0,.01H94.7a3.433,3.433,0,0,0-.652-.155.481.481,0,0,1,.085.62.45.45,0,0,1-.387.215H93.72a.445.445,0,0,1-.356-.179.6.6,0,0,1,.063-.531.447.447,0,0,1,.47-.169,3.811,3.811,0,0,1,.807.181Zm-.69-.136,0-.012-.124-.019a.874.874,0,0,0-.1-.007.4.4,0,0,0-.35.167.574.574,0,0,0-.06.509.42.42,0,0,0,.338.167.426.426,0,0,0,.39-.205A.455.455,0,0,0,94.021,222.636Z" fill="#231815"/>
      </g>
    </g>
    <g>
      <circle cx="53.039" cy="110.818" r="16.05" fill="none" stroke="#1b9c56" stroke-linecap="round" stroke-linejoin="round" stroke-width="5"/>
      <circle cx="126.961" cy="110.818" r="16.05" fill="none" stroke="#1b9c56" stroke-linecap="round" stroke-linejoin="round" stroke-width="5"/>
      <polyline points="105.862 135.121 91 120.258 76.138 135.121" fill="none" stroke="#1b9c56" stroke-linecap="round" stroke-linejoin="round" stroke-width="5"/>
    </g>
  </g>
</svg>
