<svg xmlns="http://www.w3.org/2000/svg" width="2.5in" height="3.5in" viewBox="0 0 180 252">
  <g>
    <g>
      <rect x="13.5" y="13.5" width="153" height="225" fill="none" stroke="#209554" stroke-miterlimit="10" stroke-width="5"/>
      <rect x="18" y="18" width="144" height="216" fill="none" stroke="#209554" stroke-miterlimit="10"/>
    </g>
    <g>
      <path d="M73.177,33.887a.559.559,0,0,1-.368.1h-1.2V32.342H73.3v1.232A.393.393,0,0,1,73.177,33.887Z" fill="#231815"/>
      <path d="M75.977,33.887a.564.564,0,0,1-.369.1h-1.2V32.342H76.1v1.232A.393.393,0,0,1,75.977,33.887Z" fill="#231815"/>
      <path d="M84.448,36.734l-.88-1.744a.57.57,0,0,1-.076-.179.717.717,0,0,0-.076-.2c-.053.123-.081.191-.084.2a1.643,1.643,0,0,1-.084.179l-.7,1.385a.559.559,0,0,1-.264.279.905.905,0,0,1-.392.08h-1.3l1.969-3.551L80.72,29.807h1.76l.776,1.568a.517.517,0,0,1,.076.184.572.572,0,0,0,.076.191,1.285,1.285,0,0,0,.092-.228.851.851,0,0,1,.076-.18l.76-1.535H86.1l-1.849,3.376,1.977,3.551Z" fill="#231815"/>
      <path d="M88.616,33.91a2.009,2.009,0,0,0,.044-.24,1.7,1.7,0,0,1,.044-.232l.984-3.631H91.36L89.4,36.351a.561.561,0,0,1-.2.307.554.554,0,0,1-.348.109h-.888l-2.079-6.96h1.663l.992,3.639a1.44,1.44,0,0,1,.044.228C88.6,33.773,88.61,33.852,88.616,33.91Z" fill="#231815"/>
      <path d="M91.712,29.807h1.624v6.367a.5.5,0,0,1-.192.4.685.685,0,0,1-.448.156h-.984Z" fill="#231815"/>
      <path d="M94.4,29.807h1.624v6.367a.494.494,0,0,1-.192.4.682.682,0,0,1-.447.156H94.4Z" fill="#231815"/>
      <path d="M97.088,29.807h1.624v6.367a.5.5,0,0,1-.192.4.685.685,0,0,1-.448.156h-.984Z" fill="#231815"/>
      <path d="M105.464,33.887a.557.557,0,0,1-.368.1h-1.2V32.342h1.688v1.232A.393.393,0,0,1,105.464,33.887Z" fill="#231815"/>
      <path d="M108.264,33.887a.557.557,0,0,1-.368.1h-1.2V32.342h1.689v1.232A.393.393,0,0,1,108.264,33.887Z" fill="#231815"/>
    </g>
    <g>
      <g>
        <g>
          <path d="M38.948,190.734a.507.507,0,0,1,.147.357v10.331a.5.5,0,0,1-.5.5H37.157a.5.5,0,0,1-.5-.5v-8.513a.5.5,0,0,0-.5-.5h-5.4a.5.5,0,0,1-.5-.5v-.816a.5.5,0,0,1,.5-.5h7.837A.5.5,0,0,1,38.948,190.734Z" fill="#231815"/>
          <path d="M67.338,190.733a.507.507,0,0,1,.147.356v.819a.5.5,0,0,1-.5.5h-2.2a.5.5,0,0,0-.5.5v8.515a.5.5,0,0,1-.5.5H62.342a.5.5,0,0,1-.5-.5v-8.515a.5.5,0,0,0-.5-.5h-2.2a.5.5,0,0,1-.5-.5v-.819a.5.5,0,0,1,.5-.5h7.843A.51.51,0,0,1,67.338,190.733Z" fill="#231815"/>
          <path d="M95.707,200.253a.5.5,0,0,1,.147.357v.817a.5.5,0,0,1-.5.5H87.519a.5.5,0,0,1-.5-.5V191.091a.5.5,0,0,1,.5-.5h1.428a.5.5,0,0,1,.5.5V199.6a.5.5,0,0,0,.5.5h5.4A.5.5,0,0,1,95.707,200.253Zm-4.275-7.843v-1.823h4.425v1.823H91.432Z" fill="#231815"/>
          <path d="M116.39,201.931V190.585h2.441v11.346H116.39Z" fill="#231815"/>
          <path d="M149.106,190.736a.5.5,0,0,1,.145.358v.815a.5.5,0,0,1-.5.5h-5.4a.5.5,0,0,0-.5.5v8.511a.5.5,0,0,1-.5.5h-1.434a.5.5,0,0,1-.5-.5V191.089a.5.5,0,0,1,.5-.5h7.837A.5.5,0,0,1,149.106,190.736Z" fill="#231815"/>
        </g>
        <g>
          <path d="M84.126,211.767c-.6,0-1.039.469-1.037,1.31s.429,1.32,1.053,1.32a.853.853,0,0,0,.933-.872h-.867v-.531h1.517v.449A1.484,1.484,0,0,1,84.142,215a1.93,1.93,0,0,1-.021-3.837,1.508,1.508,0,0,1,1.572,1.242h-.685A.863.863,0,0,0,84.126,211.767Z" fill="#231815"/>
          <path d="M87.941,215a1.931,1.931,0,1,1,1.713-1.919A1.719,1.719,0,0,1,87.941,215Zm0-.6c.612,0,1.04-.461,1.038-1.315s-.426-1.315-1.038-1.315-1.039.462-1.036,1.315S87.333,214.4,87.941,214.4Z" fill="#231815"/>
          <path d="M90.241,211.215h.671v3.167h1.65v.567H90.241Z" fill="#231815"/>
          <path d="M93.762,214.949h-.671v-3.734h.671Z" fill="#231815"/>
          <path d="M95.779,211.736c-.425,0-.677.2-.68.485,0,.314.33.443.639.515l.351.093c.557.129,1.094.423,1.094,1.073s-.519,1.1-1.413,1.1c-.87,0-1.421-.418-1.45-1.155h.66c.031.389.359.58.784.583.441,0,.745-.217.748-.537,0-.293-.271-.418-.676-.521l-.423-.108c-.613-.16-.995-.469-.995-1.006,0-.66.585-1.1,1.372-1.1s1.33.445,1.341,1.077h-.645C96.452,211.919,96.182,211.733,95.779,211.736Z" fill="#231815"/>
        </g>
        <line x1="30.792" y1="205.031" x2="148.754" y2="205.031" fill="none" stroke="#231815" stroke-miterlimit="10"/>
      </g>
      <g>
        <path d="M86.032,223.228a.325.325,0,0,1-.235.228.691.691,0,0,1-.231.038.539.539,0,0,1-.348-.111c-.239-.2.086-.722.1-.743a.012.012,0,0,1,.015,0l.005.007,0,.007s-.328.525-.1.716a.606.606,0,0,0,.559.071.309.309,0,0,0,.222-.213.691.691,0,0,0-.075-.521.157.157,0,0,0-.137-.048.242.242,0,0,0-.193.137c-.042.087-.08.286.136.638v.01l-.009.006-.009,0c-.221-.361-.18-.567-.136-.658a.256.256,0,0,1,.208-.148.172.172,0,0,1,.154.054A.7.7,0,0,1,86.032,223.228Z" fill="#231815"/>
        <path d="M86.221,223.479a.012.012,0,0,1-.011.008h0a.01.01,0,0,1-.008-.011,4.335,4.335,0,0,0,.014-.824l0-.007.008,0a.01.01,0,0,1,.01.009A4.285,4.285,0,0,1,86.221,223.479Z" fill="#231815"/>
        <path d="M87.313,223.228a.327.327,0,0,1-.235.228.694.694,0,0,1-.23.038.541.541,0,0,1-.349-.111c-.238-.2.086-.722.1-.743a.01.01,0,0,1,.014,0l0,.007v.007s-.328.525-.1.716a.6.6,0,0,0,.558.071.311.311,0,0,0,.222-.213.686.686,0,0,0-.076-.521.154.154,0,0,0-.136-.048.242.242,0,0,0-.193.137c-.042.087-.08.286.135.638v.01l-.008.006-.01,0c-.221-.361-.181-.567-.137-.658a.259.259,0,0,1,.209-.148.171.171,0,0,1,.154.054A.7.7,0,0,1,87.313,223.228Z" fill="#231815"/>
        <path d="M88.039,223.362a.471.471,0,0,1-.32.09,2.058,2.058,0,0,1-.35-.037l-.008-.007,0-.01.01,0c.344.06.545.045.652-.048a.348.348,0,0,0,.1-.294.468.468,0,0,0-.279-.419.232.232,0,0,0-.246.015.16.16,0,0,0-.064.122.172.172,0,0,0,.063.11l0,.007,0,.008a.014.014,0,0,1-.015,0,.187.187,0,0,1-.07-.125.178.178,0,0,1,.069-.138.253.253,0,0,1,.269-.02.493.493,0,0,1,.292.438A.373.373,0,0,1,88.039,223.362Z" fill="#231815"/>
        <path d="M89.844,224.05a.8.8,0,0,1-.6.244.771.771,0,0,1-.462-.141.01.01,0,0,1,0-.014.01.01,0,0,1,.015,0,.831.831,0,0,0,1.037-.1c.128-.162.069-.375,0-.62a3.15,3.15,0,0,1-.073-.313c-.1.269-.285.384-.427.373a.279.279,0,0,1-.238-.224.626.626,0,0,1-.445.23.286.286,0,0,1-.337-.229.6.6,0,0,1,.2-.617.008.008,0,0,1,.013,0l0,.013a.583.583,0,0,0-.2.6.267.267,0,0,0,.316.213.608.608,0,0,0,.438-.237.781.781,0,0,1-.015-.095c-.02-.264-.011-.442.024-.463a.017.017,0,0,1,.019,0,.776.776,0,0,1,.043.419.292.292,0,0,1-.049.143.268.268,0,0,0,.225.226c.141.011.324-.11.419-.4,0-.026-.007-.052-.009-.079a.6.6,0,0,1,.067-.405.018.018,0,0,1,.021,0c.031.025.02.171-.032.393-.008.032-.017.063-.026.092a2.6,2.6,0,0,0,.08.349C89.919,223.662,89.979,223.879,89.844,224.05Zm-.754-.92a.562.562,0,0,0,.01.07.285.285,0,0,0,.034-.114.831.831,0,0,0-.032-.4,1.053,1.053,0,0,0-.012.443Zm.675-.119.011-.046c.067-.285.049-.365.04-.371a.634.634,0,0,0-.054.386Z" fill="#231815"/>
        <path d="M90.651,223.362a.471.471,0,0,1-.32.09,2.069,2.069,0,0,1-.35-.037l-.007-.007v-.01l.01,0c.344.06.544.045.653-.048a.351.351,0,0,0,.095-.294.467.467,0,0,0-.28-.419.233.233,0,0,0-.246.015.158.158,0,0,0-.062.122.167.167,0,0,0,.062.11l0,.007,0,.008a.014.014,0,0,1-.015,0,.183.183,0,0,1-.07-.125.178.178,0,0,1,.069-.138.253.253,0,0,1,.269-.02.491.491,0,0,1,.292.438A.366.366,0,0,1,90.651,223.362Z" fill="#231815"/>
        <path d="M90.926,223.479a.011.011,0,0,1-.01.008h0a.011.011,0,0,1-.008-.011,4.251,4.251,0,0,0,.014-.824l0-.007.007,0h0a.009.009,0,0,1,.009.009A4.285,4.285,0,0,1,90.926,223.479Z" fill="#231815"/>
        <path d="M91.938,223.41l0,.007a.01.01,0,0,1-.008.012l-.042,0-.009,0-.011,0c-.109.011-.22.017-.331.018a.67.67,0,0,1-.373-.072.169.169,0,0,1-.063-.182c.032-.1.163-.161.358-.177a.391.391,0,0,1,.354.215c0-.036-.008-.074-.012-.113a.764.764,0,0,0-.138-.453c-.159-.152-.511.037-.514.039a.01.01,0,0,1-.014,0,.011.011,0,0,1,0-.015c.014-.007.368-.2.538-.035a.776.776,0,0,1,.143.466c.006.06.012.117.022.168a.567.567,0,0,1,.045.121l.039-.005Zm-.079.007,0-.015a.545.545,0,0,1-.029-.1.58.58,0,0,0-.1-.142.326.326,0,0,0-.239-.11h-.024c-.185.014-.312.074-.341.162a.149.149,0,0,0,.058.159C91.29,223.463,91.7,223.433,91.859,223.417Z" fill="#231815"/>
        <path d="M92.923,223.149c-.079.762-.148,1.12-.149,1.122s0,.009-.009.009h0l-.007,0,0-.007s.061-.321.135-1h0a.6.6,0,0,0-.058.029c-.131.066-.436.221-.608.113a.36.36,0,0,1-.123-.335.519.519,0,0,1,.253-.475.378.378,0,0,1,.385.025A.538.538,0,0,1,92.923,223.149Zm-.2-.5a.356.356,0,0,0-.2-.062.378.378,0,0,0-.165.039.5.5,0,0,0-.241.457c0,.16.034.267.114.316.162.1.46-.049.587-.114.053-.027.066-.033.075-.03,0-.034.007-.069.01-.106A.515.515,0,0,0,92.722,222.647Z" fill="#231815"/>
        <path d="M94.484,222.772l0,.01h-.01a3.464,3.464,0,0,0-.653-.155.481.481,0,0,1,.085.62.448.448,0,0,1-.386.215h-.023a.443.443,0,0,1-.355-.179.6.6,0,0,1,.062-.531.449.449,0,0,1,.471-.169,3.835,3.835,0,0,1,.807.181Zm-.689-.136,0-.012-.124-.019a.845.845,0,0,0-.1-.007.4.4,0,0,0-.349.167.574.574,0,0,0-.061.509.42.42,0,0,0,.338.167.428.428,0,0,0,.391-.205A.455.455,0,0,0,93.8,222.636Z" fill="#231815"/>
      </g>
    </g>
    <g>
      <circle cx="58.633" cy="140.434" r="16.05" fill="none" stroke="#1b9c56" stroke-linecap="round" stroke-linejoin="round" stroke-width="5"/>
      <circle cx="121.367" cy="140.434" r="16.05" fill="none" stroke="#1b9c56" stroke-linecap="round" stroke-linejoin="round" stroke-width="5"/>
      <g>
        <circle cx="121.367" cy="82.843" r="16.05" fill="none" stroke="#1b9c56" stroke-linecap="round" stroke-linejoin="round" stroke-width="5"/>
        <circle cx="58.633" cy="82.843" r="16.05" fill="none" stroke="#1b9c56" stroke-linecap="round" stroke-linejoin="round" stroke-width="5"/>
      </g>
      <line x1="51.678" y1="111.639" x2="128.322" y2="111.639" fill="none" stroke="#1b9c56" stroke-linecap="round" stroke-linejoin="round" stroke-width="5"/>
    </g>
  </g>
</svg>
