<svg xmlns="http://www.w3.org/2000/svg" width="2.5in" height="3.5in" viewBox="0 0 180 252">
  <g>
    <g>
      <rect x="13.5" y="13.5" width="153" height="225" fill="none" stroke="#209554" stroke-miterlimit="10" stroke-width="5"/>
      <rect x="18" y="18" width="144" height="216" fill="none" stroke="#209554" stroke-miterlimit="10"/>
    </g>
    <g>
      <path d="M77.728,29.807h1.624v6.367a.494.494,0,0,1-.192.4.683.683,0,0,1-.448.156h-.984Z" fill="#231815"/>
      <path d="M87.2,36.734l-.88-1.744a.582.582,0,0,1-.075-.179.8.8,0,0,0-.076-.2,2.01,2.01,0,0,0-.084.2A1.9,1.9,0,0,1,86,34.99l-.7,1.385a.567.567,0,0,1-.264.279.91.91,0,0,1-.393.08h-1.3l1.968-3.551-1.84-3.376h1.759l.777,1.568a.564.564,0,0,1,.076.184.583.583,0,0,0,.075.191,1.244,1.244,0,0,0,.093-.228.748.748,0,0,1,.076-.18l.76-1.535h1.76L87,33.183l1.976,3.551Z" fill="#231815"/>
      <path d="M92.352,36.734l-.88-1.744a.6.6,0,0,1-.076-.179.8.8,0,0,0-.076-.2c-.053.123-.082.191-.084.2a1.9,1.9,0,0,1-.084.179l-.7,1.385a.559.559,0,0,1-.264.279.908.908,0,0,1-.392.08H88.5l1.968-3.551-1.84-3.376h1.76l.776,1.568a.564.564,0,0,1,.076.184.6.6,0,0,0,.076.191,1.285,1.285,0,0,0,.092-.228.8.8,0,0,1,.076-.18l.76-1.535H94l-1.848,3.376,1.976,3.551Z" fill="#231815"/>
      <path d="M94.336,29.807H95.96v6.367a.494.494,0,0,1-.192.4.685.685,0,0,1-.448.156h-.984Z" fill="#231815"/>
      <path d="M100.64,29.807h1.624v6.367a.5.5,0,0,1-.193.4.682.682,0,0,1-.447.156h-.984Z" fill="#231815"/>
    </g>
    <g>
      <g>
        <g>
          <path d="M34.321,199.284a.5.5,0,0,0,.386.822H39.54a.5.5,0,0,1,.5.5v.821a.5.5,0,0,1-.5.5H31.7a.5.5,0,0,1-.5-.5v-1.141a.509.509,0,0,1,.115-.321l5.611-6.735a.5.5,0,0,0-.386-.822H31.7a.5.5,0,0,1-.5-.5v-.821a.5.5,0,0,1,.5-.5h7.843a.5.5,0,0,1,.5.5v1.141a.5.5,0,0,1-.116.321Z" fill="#231815"/>
          <path d="M66.765,200.609v.819a.5.5,0,0,1-.5.5H58.42a.5.5,0,0,1-.5-.5v-.819a.5.5,0,0,1,.5-.5h2.2a.5.5,0,0,0,.5-.5v-8.515a.5.5,0,0,1,.5-.5H63.06a.5.5,0,0,1,.5.5V199.6a.5.5,0,0,0,.5.5h2.2A.5.5,0,0,1,66.765,200.609Z" fill="#231815"/>
          <path d="M94.45,200.608v.821a.5.5,0,0,1-.5.5H86.111a.5.5,0,0,1-.5-.5V191.088a.5.5,0,0,1,.5-.5h1.434a.5.5,0,0,1,.5.5V199.6a.5.5,0,0,0,.5.5h5.4A.5.5,0,0,1,94.45,200.608Zm-5.427-3.377v-6.646H91.46v6.646H89.023Zm2.843,0v-6.646H94.3v6.646H91.866Z" fill="#231815"/>
          <path d="M120.02,190.733a.5.5,0,0,1,.147.356v10.339a.5.5,0,0,1-.5.5h-1.436a.5.5,0,0,1-.5-.5V197.67a.5.5,0,0,0-.5-.5h-5.4a.5.5,0,0,1-.5-.5v-.818a.5.5,0,0,1,.5-.5h5.4a.5.5,0,0,0,.5-.5v-3.753a.5.5,0,0,1,.5-.5h1.433A.5.5,0,0,1,120.02,190.733Z" fill="#231815"/>
          <path d="M148.706,200.253a.506.506,0,0,1,.148.357v.817a.5.5,0,0,1-.5.5h-7.834a.5.5,0,0,1-.5-.5V191.091a.5.5,0,0,1,.5-.5h1.428a.5.5,0,0,1,.5.5V199.6a.5.5,0,0,0,.5.5h5.4A.5.5,0,0,1,148.706,200.253Z" fill="#231815"/>
        </g>
        <g>
          <path d="M81.373,211.215h1.4a1.158,1.158,0,0,1,1.316,1.191,1.07,1.07,0,0,1-.674,1.063l.808,1.48h-.748l-.733-1.367h-.7v1.367h-.671Zm1.3,1.806c.506,0,.732-.214.732-.615s-.226-.629-.732-.629h-.629v1.244Z" fill="#231815"/>
          <path d="M87.852,211.215v2.439a1.527,1.527,0,0,1-3.033,0v-2.439h.671V213.6a.844.844,0,0,0,1.686,0v-2.383Z" fill="#231815"/>
          <path d="M88.5,211.215h2.976v.562h-1.15v3.172h-.671v-3.172H88.5Z" fill="#231815"/>
          <path d="M91.5,214.949l1.315-3.734h.826l1.319,3.734h-.717l-.311-.923H92.529l-.309.923Zm2.251-1.465-.508-1.5h-.031l-.505,1.5Z" fill="#231815"/>
          <path d="M98.637,214.949h-.6L96.27,212.4h-.032v2.553h-.67v-3.734h.61l1.758,2.554h.037v-2.554h.664Z" fill="#231815"/>
        </g>
        <line x1="31.019" y1="205.031" x2="148.982" y2="205.031" fill="none" stroke="#231815" stroke-miterlimit="10"/>
      </g>
      <g>
        <path d="M85.689,223.228a.328.328,0,0,1-.236.228.684.684,0,0,1-.229.038.541.541,0,0,1-.349-.111c-.238-.2.086-.722.1-.743a.01.01,0,0,1,.014,0l0,.007v.007s-.328.525-.1.716a.6.6,0,0,0,.558.071.311.311,0,0,0,.222-.213.686.686,0,0,0-.076-.521.155.155,0,0,0-.137-.048.242.242,0,0,0-.192.137c-.042.087-.08.286.135.638v.01l-.009.006-.009,0c-.221-.361-.181-.567-.137-.658a.259.259,0,0,1,.209-.148.172.172,0,0,1,.154.054A.7.7,0,0,1,85.689,223.228Z" fill="#231815"/>
        <path d="M86.019,223.479l-.01.008h0a.01.01,0,0,1-.008-.011,4.335,4.335,0,0,0,.014-.824l0-.007.007,0a.01.01,0,0,1,.011.009A4.285,4.285,0,0,1,86.019,223.479Z" fill="#231815"/>
        <path d="M87.272,223.228a.325.325,0,0,1-.235.228.688.688,0,0,1-.229.038.544.544,0,0,1-.35-.111c-.237-.2.086-.722.1-.743a.009.009,0,0,1,.013,0l0,.007v.007s-.329.525-.1.716a.6.6,0,0,0,.558.071.311.311,0,0,0,.223-.213.691.691,0,0,0-.076-.521.156.156,0,0,0-.137-.048.239.239,0,0,0-.192.137c-.042.087-.08.286.135.638v.01l-.008.006-.009,0c-.222-.361-.181-.567-.137-.658a.256.256,0,0,1,.208-.148.171.171,0,0,1,.154.054A.7.7,0,0,1,87.272,223.228Z" fill="#231815"/>
        <path d="M88.084,223.362a.472.472,0,0,1-.32.09,2.047,2.047,0,0,1-.35-.037l-.009-.007,0-.01.01,0c.344.06.545.045.653-.048a.345.345,0,0,0,.1-.294.466.466,0,0,0-.279-.419.232.232,0,0,0-.246.015.159.159,0,0,0-.063.122.163.163,0,0,0,.062.11l.005.007,0,.008h-.015a.184.184,0,0,1-.071-.125.179.179,0,0,1,.07-.138.251.251,0,0,1,.268-.02.491.491,0,0,1,.292.438A.369.369,0,0,1,88.084,223.362Z" fill="#231815"/>
        <path d="M90.04,224.05a.793.793,0,0,1-.6.244.767.767,0,0,1-.462-.141.009.009,0,0,1,0-.014.008.008,0,0,1,.013,0,.832.832,0,0,0,1.038-.1c.128-.162.07-.375,0-.62-.029-.1-.054-.208-.073-.313-.1.269-.285.384-.427.373a.28.28,0,0,1-.239-.224.619.619,0,0,1-.443.23.286.286,0,0,1-.338-.229.6.6,0,0,1,.2-.617.01.01,0,0,1,.015,0,.009.009,0,0,1,0,.013.582.582,0,0,0-.2.6.27.27,0,0,0,.318.213.607.607,0,0,0,.437-.237.519.519,0,0,1-.014-.095c-.021-.264-.012-.442.023-.463a.017.017,0,0,1,.019,0,.786.786,0,0,1,.043.419.312.312,0,0,1-.048.143.265.265,0,0,0,.224.226c.141.011.325-.11.419-.4a.682.682,0,0,1-.008-.079.6.6,0,0,1,.066-.405.018.018,0,0,1,.021,0c.032.025.02.171-.032.393-.008.032-.016.063-.026.092a2.757,2.757,0,0,0,.08.349C90.115,223.662,90.175,223.879,90.04,224.05Zm-.754-.92a.562.562,0,0,0,.01.07.285.285,0,0,0,.034-.114.831.831,0,0,0-.032-.4,1.053,1.053,0,0,0-.012.443Zm.675-.119.012-.046c.066-.285.048-.365.04-.371a.621.621,0,0,0-.055.386Z" fill="#231815"/>
        <path d="M90.876,223.362a.471.471,0,0,1-.32.09,2.047,2.047,0,0,1-.35-.037l-.008-.007v-.01l.011,0c.344.06.545.045.652-.048a.348.348,0,0,0,.1-.294.469.469,0,0,0-.28-.419.232.232,0,0,0-.246.015.159.159,0,0,0-.063.122.168.168,0,0,0,.063.11l0,.007,0,.008a.014.014,0,0,1-.015,0,.183.183,0,0,1-.07-.125.178.178,0,0,1,.069-.138.253.253,0,0,1,.269-.02.493.493,0,0,1,.292.438A.373.373,0,0,1,90.876,223.362Z" fill="#231815"/>
        <path d="M91.3,223.479a.011.011,0,0,1-.01.008h0a.011.011,0,0,1-.008-.011,4.251,4.251,0,0,0,.014-.824l0-.007.007,0h0a.009.009,0,0,1,.009.009A4.285,4.285,0,0,1,91.3,223.479Z" fill="#231815"/>
        <path d="M92.468,223.41l0,.007a.011.011,0,0,1-.009.012l-.042,0-.009,0-.011,0c-.109.011-.219.017-.331.018a.672.672,0,0,1-.373-.072.171.171,0,0,1-.063-.182c.032-.1.163-.161.358-.177a.394.394,0,0,1,.355.215c0-.036-.009-.074-.013-.113a.764.764,0,0,0-.138-.453c-.159-.152-.51.037-.513.039a.011.011,0,0,1-.015,0,.011.011,0,0,1,0-.015c.015-.007.368-.2.538-.035a.776.776,0,0,1,.143.466c.006.06.012.117.022.168a.518.518,0,0,1,.045.121l.039-.005Zm-.078.007-.006-.015a.545.545,0,0,1-.029-.1.58.58,0,0,0-.1-.142.326.326,0,0,0-.238-.11h-.025c-.184.014-.311.074-.341.162a.151.151,0,0,0,.058.159C91.82,223.463,92.226,223.433,92.39,223.417Z" fill="#231815"/>
        <path d="M93.574,223.149c-.079.762-.147,1.12-.148,1.122a.011.011,0,0,1-.01.009h0l-.007,0,0-.007s.062-.321.135-1h-.005a.511.511,0,0,0-.057.029c-.131.066-.437.221-.609.113a.36.36,0,0,1-.123-.335.521.521,0,0,1,.253-.475.379.379,0,0,1,.386.025A.538.538,0,0,1,93.574,223.149Zm-.2-.5a.356.356,0,0,0-.2-.062.373.373,0,0,0-.164.039.5.5,0,0,0-.241.457c0,.16.034.267.113.316.162.1.461-.049.588-.114.053-.027.065-.033.074-.03,0-.034.008-.069.011-.106A.515.515,0,0,0,93.373,222.647Z" fill="#231815"/>
        <path d="M95.282,222.772l0,.01h-.01a3.464,3.464,0,0,0-.653-.155.481.481,0,0,1,.085.62.449.449,0,0,1-.387.215h-.022a.443.443,0,0,1-.355-.179.6.6,0,0,1,.062-.531.448.448,0,0,1,.471-.169,3.81,3.81,0,0,1,.806.181Zm-.689-.136,0-.012-.124-.019a.859.859,0,0,0-.1-.007.4.4,0,0,0-.349.167.574.574,0,0,0-.061.509.42.42,0,0,0,.338.167.428.428,0,0,0,.391-.205A.458.458,0,0,0,94.593,222.636Z" fill="#231815"/>
      </g>
    </g>
    <g>
      <circle cx="90" cy="85.419" r="16.05" fill="none" stroke="#1b9c56" stroke-linecap="round" stroke-linejoin="round" stroke-width="5"/>
      <path d="M116.739,85.419a26.739,26.739,0,0,1-53.478,0" fill="none" stroke="#1b9c56" stroke-linecap="round" stroke-linejoin="round" stroke-width="5"/>
      <polyline points="118.128 153.469 67.696 153.469 90 85.419" fill="none" stroke="#1b9c56" stroke-linecap="round" stroke-linejoin="round" stroke-width="5"/>
    </g>
  </g>
</svg>
