<svg xmlns="http://www.w3.org/2000/svg" width="2.5in" height="3.5in" viewBox="0 0 180 252">
  <g>
    <g>
      <rect x="13.5" y="13.5" width="153" height="225" fill="none" stroke="#209554" stroke-miterlimit="10" stroke-width="5"/>
      <rect x="18" y="18" width="144" height="216" fill="none" stroke="#209554" stroke-miterlimit="10"/>
    </g>
    <g>
      <path d="M67.664,29.807h1.624v6.367a.493.493,0,0,1-.191.4.686.686,0,0,1-.449.156h-.984Z" fill="#231815"/>
      <path d="M70.192,29.807h1.624v6.367a.494.494,0,0,1-.192.4.682.682,0,0,1-.447.156h-.985Z" fill="#231815"/>
      <path d="M72.721,29.807h1.624v6.367a.5.5,0,0,1-.193.4.682.682,0,0,1-.447.156h-.984Z" fill="#231815"/>
      <path d="M75.248,29.807h1.624v6.367a.493.493,0,0,1-.191.4.686.686,0,0,1-.449.156h-.984Z" fill="#231815"/>
      <path d="M84.72,36.734l-.88-1.744a.554.554,0,0,1-.075-.179.822.822,0,0,0-.077-.2c-.053.123-.082.191-.084.2a1.748,1.748,0,0,1-.083.179l-.7,1.385a.561.561,0,0,1-.263.279.916.916,0,0,1-.393.08h-1.3l1.968-3.551-1.84-3.376h1.76l.776,1.568a.564.564,0,0,1,.076.184.627.627,0,0,0,.076.191,1.2,1.2,0,0,0,.092-.228.771.771,0,0,1,.077-.18l.759-1.535h1.76l-1.847,3.376L86.5,36.734Z" fill="#231815"/>
      <path d="M89.872,36.734l-.88-1.744a.543.543,0,0,1-.076-.179.717.717,0,0,0-.076-.2c-.053.123-.081.191-.084.2a1.643,1.643,0,0,1-.084.179l-.7,1.385a.559.559,0,0,1-.264.279.905.905,0,0,1-.392.08h-1.3l1.968-3.551-1.84-3.376H87.9l.776,1.568a.539.539,0,0,1,.076.184.572.572,0,0,0,.076.191,1.285,1.285,0,0,0,.092-.228.851.851,0,0,1,.076-.18l.76-1.535h1.761l-1.849,3.376,1.976,3.551Z" fill="#231815"/>
      <path d="M91.856,29.807H93.48v6.367a.494.494,0,0,1-.192.4.682.682,0,0,1-.447.156h-.985Z" fill="#231815"/>
      <path d="M96.408,33.91a2.009,2.009,0,0,0,.044-.24,1.7,1.7,0,0,1,.044-.232l.984-3.631h1.672l-1.96,6.544a.561.561,0,0,1-.2.307.554.554,0,0,1-.348.109H95.76l-2.079-6.96h1.663l.992,3.639a1.44,1.44,0,0,1,.044.228C96.394,33.773,96.4,33.852,96.408,33.91Z" fill="#231815"/>
      <path d="M103.12,29.807h1.624v6.367a.494.494,0,0,1-.192.4.685.685,0,0,1-.448.156h-.984Z" fill="#231815"/>
      <path d="M105.647,29.807h1.624v6.367a.493.493,0,0,1-.191.4.683.683,0,0,1-.448.156h-.985Z" fill="#231815"/>
      <path d="M108.176,29.807H109.8v6.367a.494.494,0,0,1-.192.4.683.683,0,0,1-.448.156h-.984Z" fill="#231815"/>
      <path d="M110.7,29.807h1.624v6.367a.494.494,0,0,1-.192.4.685.685,0,0,1-.448.156H110.7Z" fill="#231815"/>
    </g>
    <g>
      <g>
        <g>
          <path d="M39.1,191.091v10.331a.5.5,0,0,1-.5.5H30.764a.5.5,0,0,1-.5-.5v-.816a.5.5,0,0,1,.5-.5h5.4a.5.5,0,0,0,.5-.5v-8.513a.5.5,0,0,1,.5-.5H38.6A.5.5,0,0,1,39.1,191.091Z" fill="#231815"/>
          <path d="M55.057,201.931V190.585H57.5v11.346H55.057Z" fill="#231815"/>
          <path d="M82.292,200.608v.821a.5.5,0,0,1-.5.5H73.952a.5.5,0,0,1-.5-.5V191.088a.5.5,0,0,1,.5-.5h1.434a.5.5,0,0,1,.5.5V199.6a.5.5,0,0,0,.5.5h5.4A.5.5,0,0,1,82.292,200.608Zm-5.427-3.377v-6.646H79.3v6.646H76.865Zm2.843,0v-6.646h2.437v6.646H79.708Z" fill="#231815"/>
          <path d="M103.586,190.733a.5.5,0,0,1,.147.356v.819a.5.5,0,0,1-.5.5h-2.2a.5.5,0,0,0-.5.5v8.515a.5.5,0,0,1-.5.5H98.591a.5.5,0,0,1-.5-.5v-8.515a.5.5,0,0,0-.5-.5h-2.2a.5.5,0,0,1-.5-.5v-.819a.5.5,0,0,1,.5-.5h7.842A.507.507,0,0,1,103.586,190.733Z" fill="#231815"/>
          <path d="M126.33,200.253a.506.506,0,0,1,.148.357v.817a.5.5,0,0,1-.5.5h-7.835a.5.5,0,0,1-.5-.5V191.091a.5.5,0,0,1,.5-.5h1.429a.5.5,0,0,1,.5.5V199.6a.5.5,0,0,0,.5.5h5.4A.5.5,0,0,1,126.33,200.253Zm-2.291-3.994v-5.672h2.437v5.672h-2.437Z" fill="#231815"/>
          <path d="M148.558,190.733a.5.5,0,0,1,.147.356v10.339a.5.5,0,0,1-.5.5h-1.436a.5.5,0,0,1-.5-.5V197.67a.5.5,0,0,0-.5-.5h-5.4a.5.5,0,0,1-.5-.5v-.818a.5.5,0,0,1,.5-.5h5.4a.5.5,0,0,0,.5-.5v-3.753a.5.5,0,0,1,.5-.5H148.2A.5.5,0,0,1,148.558,190.733Z" fill="#231815"/>
        </g>
        <g>
          <path d="M80.866,211.215l1.109,2.713h.046l1.109-2.713h.825v3.734h-.644v-2.568h-.037l-1.037,2.557h-.479l-1.036-2.568H80.69v2.579h-.649v-3.734Z" fill="#231815"/>
          <path d="M85.3,214.949h-.67v-3.734h.67Z" fill="#231815"/>
          <path d="M85.831,211.215h2.976v.562h-1.15v3.172h-.671v-3.172H85.831Z" fill="#231815"/>
          <path d="M90.781,215a1.931,1.931,0,1,1,1.712-1.919A1.718,1.718,0,0,1,90.781,215Zm0-.6c.612,0,1.039-.461,1.036-1.315s-.424-1.315-1.036-1.315-1.039.462-1.037,1.315S90.173,214.4,90.781,214.4Z" fill="#231815"/>
          <path d="M93.081,214.949v-3.734H94.37a1.868,1.868,0,0,1-.02,3.734Zm1.232-.583c.782,0,1.176-.428,1.176-1.289S95.1,211.8,94.334,211.8h-.583v2.568Z" fill="#231815"/>
          <path d="M96.3,214.949l1.314-3.734h.825l1.321,3.734h-.717l-.312-.923H97.329l-.309.923Zm2.251-1.465-.508-1.5h-.031l-.506,1.5Z" fill="#231815"/>
        </g>
        <line x1="30.792" y1="205.031" x2="148.754" y2="205.031" fill="none" stroke="#231815" stroke-miterlimit="10"/>
      </g>
      <g>
        <path d="M86.032,223.228a.325.325,0,0,1-.235.228.691.691,0,0,1-.231.038.539.539,0,0,1-.348-.111c-.239-.2.086-.722.1-.743a.012.012,0,0,1,.015,0l.005.007,0,.007s-.328.525-.1.716a.606.606,0,0,0,.559.071.309.309,0,0,0,.222-.213.691.691,0,0,0-.075-.521.157.157,0,0,0-.137-.048.242.242,0,0,0-.193.137c-.042.087-.08.286.136.638v.01l-.009.006-.009,0c-.221-.361-.18-.567-.136-.658a.256.256,0,0,1,.208-.148.172.172,0,0,1,.154.054A.7.7,0,0,1,86.032,223.228Z" fill="#231815"/>
        <path d="M86.221,223.479a.012.012,0,0,1-.011.008h0a.01.01,0,0,1-.008-.011,4.335,4.335,0,0,0,.014-.824l0-.007.008,0a.01.01,0,0,1,.01.009A4.285,4.285,0,0,1,86.221,223.479Z" fill="#231815"/>
        <path d="M87.313,223.228a.327.327,0,0,1-.235.228.694.694,0,0,1-.23.038.541.541,0,0,1-.349-.111c-.238-.2.086-.722.1-.743a.01.01,0,0,1,.014,0l0,.007v.007s-.328.525-.1.716a.6.6,0,0,0,.558.071.311.311,0,0,0,.222-.213.686.686,0,0,0-.076-.521.154.154,0,0,0-.136-.048.242.242,0,0,0-.193.137c-.042.087-.08.286.135.638v.01l-.008.006-.01,0c-.221-.361-.181-.567-.137-.658a.259.259,0,0,1,.209-.148.171.171,0,0,1,.154.054A.7.7,0,0,1,87.313,223.228Z" fill="#231815"/>
        <path d="M88.039,223.362a.471.471,0,0,1-.32.09,2.058,2.058,0,0,1-.35-.037l-.008-.007,0-.01.01,0c.344.06.545.045.652-.048a.348.348,0,0,0,.1-.294.468.468,0,0,0-.279-.419.232.232,0,0,0-.246.015.16.16,0,0,0-.064.122.172.172,0,0,0,.063.11l0,.007,0,.008a.014.014,0,0,1-.015,0,.187.187,0,0,1-.07-.125.178.178,0,0,1,.069-.138.253.253,0,0,1,.269-.02.493.493,0,0,1,.292.438A.373.373,0,0,1,88.039,223.362Z" fill="#231815"/>
        <path d="M89.844,224.05a.8.8,0,0,1-.6.244.771.771,0,0,1-.462-.141.01.01,0,0,1,0-.014.01.01,0,0,1,.015,0,.831.831,0,0,0,1.037-.1c.128-.162.069-.375,0-.62a3.15,3.15,0,0,1-.073-.313c-.1.269-.285.384-.427.373a.279.279,0,0,1-.238-.224.626.626,0,0,1-.445.23.286.286,0,0,1-.337-.229.6.6,0,0,1,.2-.617.008.008,0,0,1,.013,0l0,.013a.583.583,0,0,0-.2.6.267.267,0,0,0,.316.213.608.608,0,0,0,.438-.237.781.781,0,0,1-.015-.095c-.02-.264-.011-.442.024-.463a.017.017,0,0,1,.019,0,.776.776,0,0,1,.043.419.292.292,0,0,1-.049.143.268.268,0,0,0,.225.226c.141.011.324-.11.419-.4,0-.026-.007-.052-.009-.079a.6.6,0,0,1,.067-.405.018.018,0,0,1,.021,0c.031.025.02.171-.032.393-.008.032-.017.063-.026.092a2.6,2.6,0,0,0,.08.349C89.919,223.662,89.979,223.879,89.844,224.05Zm-.754-.92a.562.562,0,0,0,.01.07.285.285,0,0,0,.034-.114.831.831,0,0,0-.032-.4,1.053,1.053,0,0,0-.012.443Zm.675-.119.011-.046c.067-.285.049-.365.04-.371a.634.634,0,0,0-.054.386Z" fill="#231815"/>
        <path d="M90.651,223.362a.471.471,0,0,1-.32.09,2.069,2.069,0,0,1-.35-.037l-.007-.007v-.01l.01,0c.344.06.544.045.653-.048a.351.351,0,0,0,.095-.294.467.467,0,0,0-.28-.419.233.233,0,0,0-.246.015.158.158,0,0,0-.062.122.167.167,0,0,0,.062.11l0,.007,0,.008a.014.014,0,0,1-.015,0,.183.183,0,0,1-.07-.125.178.178,0,0,1,.069-.138.253.253,0,0,1,.269-.02.491.491,0,0,1,.292.438A.366.366,0,0,1,90.651,223.362Z" fill="#231815"/>
        <path d="M90.926,223.479a.011.011,0,0,1-.01.008h0a.011.011,0,0,1-.008-.011,4.251,4.251,0,0,0,.014-.824l0-.007.007,0h0a.009.009,0,0,1,.009.009A4.285,4.285,0,0,1,90.926,223.479Z" fill="#231815"/>
        <path d="M91.938,223.41l0,.007a.01.01,0,0,1-.008.012l-.042,0-.009,0-.011,0c-.109.011-.22.017-.331.018a.67.67,0,0,1-.373-.072.169.169,0,0,1-.063-.182c.032-.1.163-.161.358-.177a.391.391,0,0,1,.354.215c0-.036-.008-.074-.012-.113a.764.764,0,0,0-.138-.453c-.159-.152-.511.037-.514.039a.01.01,0,0,1-.014,0,.011.011,0,0,1,0-.015c.014-.007.368-.2.538-.035a.776.776,0,0,1,.143.466c.006.06.012.117.022.168a.567.567,0,0,1,.045.121l.039-.005Zm-.079.007,0-.015a.545.545,0,0,1-.029-.1.58.58,0,0,0-.1-.142.326.326,0,0,0-.239-.11h-.024c-.185.014-.312.074-.341.162a.149.149,0,0,0,.058.159C91.29,223.463,91.7,223.433,91.859,223.417Z" fill="#231815"/>
        <path d="M92.923,223.149c-.079.762-.148,1.12-.149,1.122s0,.009-.009.009h0l-.007,0,0-.007s.061-.321.135-1h0a.6.6,0,0,0-.058.029c-.131.066-.436.221-.608.113a.36.36,0,0,1-.123-.335.519.519,0,0,1,.253-.475.378.378,0,0,1,.385.025A.538.538,0,0,1,92.923,223.149Zm-.2-.5a.356.356,0,0,0-.2-.062.378.378,0,0,0-.165.039.5.5,0,0,0-.241.457c0,.16.034.267.114.316.162.1.46-.049.587-.114.053-.027.066-.033.075-.03,0-.034.007-.069.01-.106A.515.515,0,0,0,92.722,222.647Z" fill="#231815"/>
        <path d="M94.484,222.772l0,.01h-.01a3.464,3.464,0,0,0-.653-.155.481.481,0,0,1,.085.62.448.448,0,0,1-.386.215h-.023a.443.443,0,0,1-.355-.179.6.6,0,0,1,.062-.531.449.449,0,0,1,.471-.169,3.835,3.835,0,0,1,.807.181Zm-.689-.136,0-.012-.124-.019a.845.845,0,0,0-.1-.007.4.4,0,0,0-.349.167.574.574,0,0,0-.061.509.42.42,0,0,0,.338.167.428.428,0,0,0,.391-.205A.455.455,0,0,0,93.8,222.636Z" fill="#231815"/>
      </g>
    </g>
    <g>
      <line x1="41.106" y1="121.051" x2="138.894" y2="121.051" fill="none" stroke="#1b9c56" stroke-linecap="round" stroke-linejoin="round" stroke-width="5"/>
      <path d="M58.666,121.051A19.454,19.454,0,0,1,78.12,140.5a19.453,19.453,0,0,0,19.453,19.454" fill="none" stroke="#1b9c56" stroke-linecap="round" stroke-linejoin="round" stroke-width="5"/>
      <path d="M96.671,121.051a13.491,13.491,0,0,0,13.491-13.491,13.49,13.49,0,0,1,13.49-13.49" fill="none" stroke="#1b9c56" stroke-linecap="round" stroke-linejoin="round" stroke-width="5"/>
      <line x1="110.162" y1="107.56" x2="110.162" y2="67.461" fill="none" stroke="#1b9c56" stroke-linecap="round" stroke-linejoin="round" stroke-width="5"/>
      <path d="M83.18,64.626A13.491,13.491,0,0,0,96.671,78.117a13.491,13.491,0,0,1,13.491,13.49" fill="none" stroke="#1b9c56" stroke-linecap="round" stroke-linejoin="round" stroke-width="5"/>
    </g>
  </g>
</svg>
