<svg xmlns="http://www.w3.org/2000/svg" width="2.5in" height="3.5in" viewBox="0 0 180 252">
  <g>
    <g>
      <rect x="13.5" y="13.5" width="153" height="225" fill="none" stroke="#1b2e88" stroke-miterlimit="10" stroke-width="5"/>
      <rect x="18" y="18" width="144" height="216" fill="none" stroke="#1b2e88" stroke-miterlimit="10"/>
    </g>
    <g>
      <path d="M64.92,33.887a.559.559,0,0,1-.368.1h-1.2V32.342H65.04v1.232A.393.393,0,0,1,64.92,33.887Z" fill="#231815"/>
      <path d="M67.72,33.887a.559.559,0,0,1-.368.1h-1.2V32.342H67.84v1.232A.393.393,0,0,1,67.72,33.887Z" fill="#231815"/>
      <path d="M70.52,33.887a.562.562,0,0,1-.369.1h-1.2V32.342H70.64v1.232A.393.393,0,0,1,70.52,33.887Z" fill="#231815"/>
      <path d="M73.319,33.887a.557.557,0,0,1-.368.1h-1.2V32.342h1.688v1.232A.393.393,0,0,1,73.319,33.887Z" fill="#231815"/>
      <path d="M81.791,36.734l-.88-1.744a.543.543,0,0,1-.076-.179.755.755,0,0,0-.076-.2c-.053.123-.081.191-.084.2a1.643,1.643,0,0,1-.084.179l-.7,1.385a.559.559,0,0,1-.264.279.905.905,0,0,1-.392.08h-1.3L79.9,33.183l-1.841-3.376h1.761l.776,1.568a.539.539,0,0,1,.076.184.572.572,0,0,0,.076.191,1.285,1.285,0,0,0,.092-.228.851.851,0,0,1,.076-.18l.76-1.535h1.76l-1.848,3.376,1.976,3.551Z" fill="#231815"/>
      <path d="M87.1,36.734l-.88-1.744a.6.6,0,0,1-.076-.179.8.8,0,0,0-.076-.2c-.053.123-.082.191-.084.2a1.9,1.9,0,0,1-.084.179l-.7,1.385a.559.559,0,0,1-.264.279.908.908,0,0,1-.392.08h-1.3l1.968-3.551-1.84-3.376h1.76l.776,1.568a.564.564,0,0,1,.076.184.611.611,0,0,0,.075.191,1.244,1.244,0,0,0,.093-.228.8.8,0,0,1,.076-.18l.76-1.535h1.76L86.9,33.183l1.976,3.551Z" fill="#231815"/>
      <path d="M91.271,33.91a1.825,1.825,0,0,0,.044-.24,1.557,1.557,0,0,1,.044-.232l.984-3.631h1.672l-1.96,6.544a.567.567,0,0,1-.2.307.554.554,0,0,1-.348.109h-.888l-2.08-6.96h1.664l.992,3.639a1.713,1.713,0,0,1,.044.228C91.256,33.773,91.266,33.852,91.271,33.91Z" fill="#231815"/>
      <path d="M94.367,29.807h1.624v6.367a.494.494,0,0,1-.192.4.684.684,0,0,1-.447.156h-.985Z" fill="#231815"/>
      <path d="M97.055,29.807h1.624v6.367a.494.494,0,0,1-.192.4.683.683,0,0,1-.448.156h-.984Z" fill="#231815"/>
      <path d="M99.743,29.807h1.624v6.367a.494.494,0,0,1-.192.4.684.684,0,0,1-.447.156h-.985Z" fill="#231815"/>
      <path d="M108.119,33.887a.559.559,0,0,1-.368.1h-1.2V32.342h1.688v1.232A.393.393,0,0,1,108.119,33.887Z" fill="#231815"/>
      <path d="M110.919,33.887a.557.557,0,0,1-.368.1h-1.2V32.342h1.688v1.232A.393.393,0,0,1,110.919,33.887Z" fill="#231815"/>
      <path d="M113.719,33.887a.557.557,0,0,1-.368.1h-1.2V32.342h1.689v1.232A.393.393,0,0,1,113.719,33.887Z" fill="#231815"/>
      <path d="M116.519,33.887a.562.562,0,0,1-.369.1h-1.2V32.342h1.689v1.232A.393.393,0,0,1,116.519,33.887Z" fill="#231815"/>
    </g>
    <g>
      <g>
        <g>
          <path d="M39.534,191.091v10.331a.5.5,0,0,1-.5.5H31.194a.5.5,0,0,1-.5-.5v-.816a.5.5,0,0,1,.5-.5h5.4a.5.5,0,0,0,.5-.5v-8.513a.5.5,0,0,1,.5-.5h1.433A.5.5,0,0,1,39.534,191.091Z" fill="#231815"/>
          <path d="M69.888,201.931V190.585h2.441v11.346H69.888Z" fill="#231815"/>
          <path d="M111.382,200.253a.5.5,0,0,1,.147.357v.817a.5.5,0,0,1-.5.5h-7.834a.5.5,0,0,1-.5-.5V191.091a.5.5,0,0,1,.5-.5h1.429a.5.5,0,0,1,.5.5V199.6a.5.5,0,0,0,.5.5h5.4A.505.505,0,0,1,111.382,200.253Z" fill="#231815"/>
          <path d="M139.76,192.41v-1.823h8.846v1.823H139.76Zm0,9.521v-1.825h8.846v1.825H139.76Z" fill="#231815"/>
        </g>
        <g>
          <path d="M84.331,211.215l1.109,2.713h.046l1.11-2.713h.825v3.734h-.646v-2.568h-.036L85.7,214.938h-.479l-1.037-2.568h-.031v2.579h-.65v-3.734Z" fill="#231815"/>
          <path d="M88.77,214.949H88.1v-3.734h.671Z" fill="#231815"/>
          <path d="M92.53,214.949h-.6L90.163,212.4h-.031v2.553h-.67v-3.734h.608l1.759,2.554h.036v-2.554h.665Z" fill="#231815"/>
          <path d="M93.211,211.215H95.64v.562H93.881V212.8h1.63v.561h-1.63v1.022h1.768v.567H93.211Z" fill="#231815"/>
        </g>
        <line x1="30.565" y1="205.031" x2="148.527" y2="205.031" fill="none" stroke="#231815" stroke-miterlimit="10"/>
      </g>
      <g>
        <path d="M85.805,223.228a.328.328,0,0,1-.236.228.684.684,0,0,1-.229.038.544.544,0,0,1-.35-.111c-.238-.2.086-.722.1-.743a.012.012,0,0,1,.015,0l0,.007,0,.007s-.328.525-.1.716a.6.6,0,0,0,.558.071.309.309,0,0,0,.223-.213.691.691,0,0,0-.076-.521.156.156,0,0,0-.137-.048.24.24,0,0,0-.192.137c-.042.087-.08.286.136.638v.01l-.009.006-.009,0c-.221-.361-.181-.567-.137-.658a.259.259,0,0,1,.209-.148.174.174,0,0,1,.155.054A.71.71,0,0,1,85.805,223.228Z" fill="#231815"/>
        <path d="M85.993,223.479a.011.011,0,0,1-.011.008h0a.01.01,0,0,1-.007-.011,4.4,4.4,0,0,0,.013-.824l0-.007.008,0a.01.01,0,0,1,.011.009A4.222,4.222,0,0,1,85.993,223.479Z" fill="#231815"/>
        <path d="M87.086,223.228a.329.329,0,0,1-.235.228.7.7,0,0,1-.23.038.542.542,0,0,1-.35-.111c-.238-.2.086-.722.1-.743a.012.012,0,0,1,.015,0l.005.007,0,.007s-.328.525-.1.716a.607.607,0,0,0,.559.071.309.309,0,0,0,.222-.213.686.686,0,0,0-.076-.521.155.155,0,0,0-.136-.048.244.244,0,0,0-.194.137c-.041.087-.08.286.137.638v.01l-.009.006-.009,0c-.221-.361-.181-.567-.136-.658a.256.256,0,0,1,.208-.148.172.172,0,0,1,.154.054A.71.71,0,0,1,87.086,223.228Z" fill="#231815"/>
        <path d="M87.812,223.362a.471.471,0,0,1-.32.09,2.036,2.036,0,0,1-.349-.037l-.009-.007,0-.01.01,0c.343.06.544.045.653-.048a.358.358,0,0,0,.095-.294.467.467,0,0,0-.28-.419.233.233,0,0,0-.246.015.162.162,0,0,0-.063.122.171.171,0,0,0,.062.11l0,.007,0,.008h-.014a.184.184,0,0,1-.071-.125.179.179,0,0,1,.07-.138.251.251,0,0,1,.268-.02.49.49,0,0,1,.292.438A.363.363,0,0,1,87.812,223.362Z" fill="#231815"/>
        <path d="M89.617,224.05a.794.794,0,0,1-.6.244.772.772,0,0,1-.463-.141.011.011,0,0,1,0-.014.009.009,0,0,1,.014,0,.834.834,0,0,0,1.039-.1c.127-.162.068-.375,0-.62-.03-.1-.055-.208-.075-.313-.1.269-.285.384-.425.373a.281.281,0,0,1-.24-.224.622.622,0,0,1-.444.23.286.286,0,0,1-.338-.229.6.6,0,0,1,.205-.617.009.009,0,0,1,.014,0l0,.013a.581.581,0,0,0-.2.6.268.268,0,0,0,.317.213.609.609,0,0,0,.437-.237.781.781,0,0,1-.015-.095c-.02-.264-.012-.442.023-.463a.018.018,0,0,1,.02,0,.786.786,0,0,1,.043.419.3.3,0,0,1-.049.143.267.267,0,0,0,.225.226c.14.011.324-.11.419-.4,0-.026-.007-.052-.009-.079a.6.6,0,0,1,.066-.405.019.019,0,0,1,.022,0c.031.025.019.171-.032.393-.008.032-.017.063-.027.092a2.942,2.942,0,0,0,.08.349C89.691,223.662,89.752,223.879,89.617,224.05Zm-.754-.92a.422.422,0,0,0,.01.07.255.255,0,0,0,.033-.114.81.81,0,0,0-.031-.4,1.032,1.032,0,0,0-.012.443Zm.674-.119.012-.046c.066-.285.049-.365.041-.371a.613.613,0,0,0-.055.386Z" fill="#231815"/>
        <path d="M90.424,223.362a.472.472,0,0,1-.32.09,2.047,2.047,0,0,1-.35-.037l-.008-.007,0-.01.01,0c.344.06.545.045.652-.048a.345.345,0,0,0,.1-.294.468.468,0,0,0-.279-.419.234.234,0,0,0-.247.015.152.152,0,0,0-.062.122.167.167,0,0,0,.062.11l0,.007,0,.008a.013.013,0,0,1-.015,0,.188.188,0,0,1-.071-.125.183.183,0,0,1,.071-.138.25.25,0,0,1,.267-.02.494.494,0,0,1,.293.438A.373.373,0,0,1,90.424,223.362Z" fill="#231815"/>
        <path d="M90.7,223.479l-.01.008h0a.013.013,0,0,1-.008-.011,4.151,4.151,0,0,0,.013-.824l0-.007.006,0h0a.011.011,0,0,1,.01.009A4.3,4.3,0,0,1,90.7,223.479Z" fill="#231815"/>
        <path d="M91.711,223.41l0,.007a.012.012,0,0,1-.01.012l-.041,0-.01,0-.009,0q-.165.017-.333.018a.677.677,0,0,1-.373-.072.168.168,0,0,1-.062-.182c.031-.1.162-.161.357-.177a.4.4,0,0,1,.356.215c-.006-.036-.01-.074-.014-.113a.764.764,0,0,0-.137-.453c-.16-.152-.511.037-.513.039a.013.013,0,0,1-.016,0,.012.012,0,0,1,.006-.015c.014-.007.367-.2.537-.035a.776.776,0,0,1,.145.466c.006.06.011.117.021.168a.518.518,0,0,1,.045.121l.039-.005Zm-.078.007-.006-.015a.481.481,0,0,1-.029-.1.609.609,0,0,0-.1-.142.324.324,0,0,0-.238-.11h-.026c-.183.014-.31.074-.34.162a.152.152,0,0,0,.057.159C91.062,223.463,91.469,223.433,91.633,223.417Z" fill="#231815"/>
        <path d="M92.7,223.149c-.078.762-.146,1.12-.148,1.122a.009.009,0,0,1-.01.009h0l-.006,0,0-.007s.061-.321.135-1h-.006a.441.441,0,0,0-.056.029c-.131.066-.438.221-.61.113a.36.36,0,0,1-.123-.335.519.519,0,0,1,.254-.475.378.378,0,0,1,.385.025A.535.535,0,0,1,92.7,223.149Zm-.2-.5a.349.349,0,0,0-.2-.062.373.373,0,0,0-.164.039.5.5,0,0,0-.24.457c0,.16.033.267.113.316.162.1.461-.049.588-.114.053-.027.064-.033.074-.03,0-.034.008-.069.01-.106A.513.513,0,0,0,92.494,222.647Z" fill="#231815"/>
        <path d="M94.258,222.772l0,.01h-.012a3.4,3.4,0,0,0-.652-.155.481.481,0,0,1,.086.62.451.451,0,0,1-.387.215h-.023a.445.445,0,0,1-.356-.179.6.6,0,0,1,.063-.531.448.448,0,0,1,.47-.169,3.788,3.788,0,0,1,.807.181Zm-.69-.136,0-.012-.123-.019a.857.857,0,0,0-.1-.007.4.4,0,0,0-.35.167.57.57,0,0,0-.06.509.416.416,0,0,0,.338.167.426.426,0,0,0,.39-.205A.458.458,0,0,0,93.568,222.636Z" fill="#231815"/>
      </g>
    </g>
    <g>
      <circle cx="90" cy="139.106" r="16.05" fill="none" stroke="#172e7d" stroke-linecap="round" stroke-linejoin="round" stroke-width="5"/>
      <g>
        <circle cx="59.59" cy="89.652" r="16.05" fill="none" stroke="#172e7d" stroke-linecap="round" stroke-linejoin="round" stroke-width="5"/>
        <circle cx="74.795" cy="89.652" r="16.05" fill="none" stroke="#172e7d" stroke-linecap="round" stroke-linejoin="round" stroke-width="5"/>
        <circle cx="90" cy="89.652" r="16.05" fill="none" stroke="#172e7d" stroke-linecap="round" stroke-linejoin="round" stroke-width="5"/>
        <circle cx="105.205" cy="89.652" r="16.05" fill="none" stroke="#172e7d" stroke-linecap="round" stroke-linejoin="round" stroke-width="5"/>
        <circle cx="120.41" cy="89.652" r="16.05" fill="none" stroke="#172e7d" stroke-linecap="round" stroke-linejoin="round" stroke-width="5"/>
      </g>
    </g>
  </g>
</svg>
