<?xml version="1.0" encoding="UTF-8"?>
<svg id="a" data-name="레이어 1" xmlns="http://www.w3.org/2000/svg" width="1920" height="1280" viewBox="0 0 1920 1280">
  <g>
    <rect x="1590.213" width="329.787" height="1280" fill="#ff4d30"/>
    <rect x="0" y="0" width="1590.213" height="1280" fill="#008cd6"/>
  </g>
  <path d="M1311.262,657.21c-.167,.161-.326,.431-.481,.429-.156-.002-.429-.277-.428-.43,0-.157,.271-.431,.426-.434,.155-.002,.313,.27,.483,.435Z" fill="#f7fcfd"/>
  <polygon points="112.041 0 138.491 81.403 224.083 81.403 154.837 131.712 181.287 213.115 112.041 162.806 42.796 213.115 69.245 131.712 0 81.403 85.592 81.403 112.041 0" fill="#f7fcfd"/>
  <polygon points="960 533.442 986.449 614.845 1072.041 614.845 1002.796 665.155 1029.245 746.558 960 696.248 890.755 746.558 917.204 665.155 847.959 614.845 933.551 614.845 960 533.442" fill="#f7fcfd"/>
  <polygon points="1807.959 1066.885 1834.408 1148.288 1920 1148.288 1850.755 1198.597 1877.204 1280 1807.959 1229.69 1738.713 1280 1765.163 1198.597 1695.917 1148.288 1781.509 1148.288 1807.959 1066.885" fill="#f7fcfd"/>
  <g>
    <path d="M535.189,55.697c-8.647,20.766-6.958,43.247-14.152,65.023-8.3-16.762-19.301-31.025-23.572-48.68-.224-.927-.553-1.834-.701-2.772-2.043-12.912-.099-15.032,12.908-14.129-8.885,10.166-2.145,36.691,11.863,52.77,3.475-13.201,5.435-26.266,6.329-39.457,.32-4.717-.874-9.484-6.609-13.184h23.005c-.285,21.437-2.316,43.075,1.045,65.689-1.616,1.069-4.497,.628-7.482-.312,3.627-10.326,2.21-59.845-2.634-64.948Z" fill="#f7fcfd"/>
    <path d="M291.895,120.763c2.46-4.221,4.781-7.816,6.717-11.606,3.64-7.127,4.289-14.536,1.103-22.016-4.363-10.244-7.246-20.598-2.704-32.021h27.162V120.683c-2.592,.89-4.857,.828-6.929-.003,0-12.248,.019-24.34-.021-36.432-.006-1.816,.501-3.732-1.44-5.192-2.074-1.561-1.916-3.624-.322-5.518,3.702-4.399,1.915-9.583,1.444-14.227-.441-4.347-9.563-4.425-13.24-.291-4.141,4.655-3.307,13.936,2.027,18.336-5.031,2.531-4.325,6.874-3.852,11.325,.878,8.255,2.911,16.492,.819,24.853-1.756,7.018-3.214,8.067-10.765,7.23Z" fill="#f7fcfd"/>
    <path d="M258.736,84.664c3.097,1.18,2.918,4,6.295,4.208,5.157-10.097,8.726-21.04,9.65-33.32,3.062-1.541,6.582-.277,9.618-.686-1.101,22.12-.831,43.832-.217,65.92-2.158,.95-4.864,.848-8.125-.7v-47.677l-1.901-.333c-3.394,8.773-9.309,16.773-7.351,27.206,1.308,6.968,3.972,13.838,1.129,21.027-2.273,1.307-4.569,1.099-7.671,.073,6.381-11.753,1.805-23.271-1.427-35.718Z" fill="#f7fcfd"/>
    <path d="M362.027,121.708c2.264-20.481-13.087-32.38-19.734-48.374,.064,15.737-2.902,31.431,1.075,47.238-2.446,.777-5.675,.673-8.967-.326,4.06-6.709,4.317-56.071,.361-64.747,2.499-1.141,5.056-.639,7.594-.424,.528,15.15,12.981,24.438,18.311,37.426,.342-12.501,3.136-24.965-1.297-37.341,3.021-.44,6.499-.9,11.319,.825-5.299,2.277-4.989,6.278-4.979,10.24,.038,15.986,.062,31.973-.028,47.958-.012,2.149,1.194,4.804-3.653,7.524Z" fill="#f7fcfd"/>
    <path d="M386.464,56.05v63.071c5.83,1.088,8.546-2.82,10.82-6.568,7.263-11.973,7.761-24.703,3.417-37.804-.595-1.795-1.172-3.602-1.621-5.437-.149-.609,.129-1.323,.219-2.05,9.606,7.788,14.004,29.096,8.883,40.137-5.194,11.198-13.614,15.049-30.228,13.277V55.127c2.338-.225,5.679-1.246,8.51,.923Z" fill="#f7fcfd"/>
    <path d="M576.345,120.57c-2.33,1.281-4.817,.838-7.551-.105v-50.267l-1.755-.189c-3.072,11.13-12.066,20.834-6.659,34.037,1.305,3.187,1.481,7.04,1.357,10.557-.17,4.822-1.886,8.601-8.727,5.731,7.418-14.857-.737-28.649-3.564-43.604,4.081,3.554,3.06,9.47,7.936,13.048,5.184-11.107,8.853-22.172,10.002-34.575h9.597c-1.333,21.752-.234,43.488-.634,65.366Z" fill="#f7fcfd"/>
    <path d="M437.676,77.651c.66-.545,1.319-1.09,2.239-1.851-3.467-2.214-7.045-.103-10.681-1.899,1.304-.165,2.035-.314,2.771-.342,9.666-.371,12.143-4.025,9.549-13.611-.718-2.655-2.548-3.467-4.676-3.577-3.839-.197-7.931-.053-10.015,3.891-2.036,3.852-2.75,8.208-2.07,12.529,1.966,12.492,2.707,25.081,2.529,37.678-.122,8.655-3.658,11.54-10.994,10.373-.371-2.707,1.859-4.42,3.06-6.147,6.3-9.056,7.978-18.548,3.64-28.738-4.249-9.979-5.582-20.056-1.941-30.861h27.312V119.945c-2.696,1.799-4.723,1.466-6.759,.67-.237-.441-.688-.877-.633-1.237,1.753-11.641,.16-23.355,.826-35.008,.201-3.511-2.095-4.932-4.059-6.838l-.097,.119Z" fill="#f7fcfd"/>
    <path d="M490.203,60.949c-3.103-.825-5.555-1.57-8.053-2.098-1.124-.237-2.34-.04-4.277-.04v61.526c-3.082,1.426-5.598,1.196-8.063,.497V59.363c-5.44-2.006-8.522,1.987-12.913,3.491,.482-5.803,2.661-8.613,8.838-8.09,5.91,.501,11.909,.35,17.844,.024,4.151-.229,6.269,1.245,6.624,6.161Z" fill="#f7fcfd"/>
    <path d="M245.545,55.07h6.293c-.516,21.674-2.186,43.312,.616,65.798-1.578,.947-4.223,.989-5.476,.489-.43-22.295,1.261-43.941-1.433-66.286Z" fill="#f7fcfd"/>
  </g>
  <g>
    <path d="M844.875,854.673c-8.405-15.617-17.441-29.353-22.838-44.99-1.108-3.21-1.416-6.504-1.466-9.86-.159-10.711,.286-11.102,11.326-9.75-7.014,20.066,2.62,36.024,13.195,51.962,2.184-17.24,10.495-34.16,3.029-52.079h18.462c2.432,17.54,.643,35.388,1.066,53.154,.097,4.083-.178,8.144,3.019,11.235-3.052,3.317-6.252,3.295-8.742,2.536,2.789-22.405,2.286-43.973,.47-65.533-1.239-.145-2.477-.291-3.716-.436-7.977,19.824-6.756,41.905-13.803,63.76Z" fill="#f7fcfd"/>
    <path d="M1134.53,790.092c8.525,0,16.346-.156,24.155,.08,2.936,.089,4.569,2.507,5.083,5.208,.57,2.996,.741,6.116-3.144,7.419-2.286-1.804-1.43-4.132-1.347-6.061,.214-4.972-2.666-6.264-6.771-6.096-4.828,.197-4.202,3.943-3.72,6.848,.736,4.439,.585,9.678,6.551,11.152,2.422,12.606,14.681,22.141,11.344,36.563-1.55,6.699-5.528,10.387-12.489,10.475-6.666,.084-13.334,.018-20.163,.018,2.415-6.582,2.802-57.512,.501-65.606Zm11.79,1.075c-2.375-.105-3.141,.552-3.144,1.569-.053,19.103-.067,38.205-.049,57.308,.003,3.067,1.86,4.106,4.7,3.97,5.959-.285,10.541-3.012,11.194-9.03,1.067-9.823,1.044-19.582-3.336-29.049-3.719-8.037-8.784-15.62-9.366-24.767Z" fill="#f7fcfd"/>
    <path d="M704.352,855.122c-2.304,1.042-5.114,.164-6.506,.214,1.722-21.798,1.304-43.322,.154-65.351,.942-.39,3.014-.652,5.453,.005,1.222,14.44,12.426,23.897,18.627,36.201,.593-11.944,2.842-23.799-1.139-35.986,2.417-.973,5.297-.784,8.717-.074-2.908,3.182-2.467,6.726-2.471,10.163-.017,15.985,.037,31.97-.057,47.955-.014,2.434,1.081,5.353-3.679,8.142,2.19-20.05-12.711-32.124-19.662-48.064-.514,15.41-2.49,30.722,.563,46.795Z" fill="#f7fcfd"/>
    <path d="M737.493,822.217c.161-10.495,.818-20.812,8.967-28.887,6.798-6.736,13.985-6.758,20.275,.426,1.842,2.105,3.431,4.646,4.407,7.259,5.233,14,4.238,28.037-.649,41.871-2.508,7.098-7.987,13.444-14.898,13.586-7.356,.152-11.765-7.216-14.69-13.973-2.786-6.438-3.634-13.283-3.413-20.281Zm32.995,4.641c-.467-9.529-1.781-19.196-8.3-27.178-2.596-3.179-6.17-5.834-10.448-5.13-4.696,.773-5.956,5.199-6.824,9.17-2.607,11.933-1.597,23.71,2.421,35.192,1.593,4.553,4.147,8.516,8.488,11.125,4.922,2.959,8.439,2.161,10.794-3.299,2.697-6.251,3.321-12.862,3.868-19.88Z" fill="#f7fcfd"/>
    <path d="M958.392,797.088c12.515,10.867,16.477,24.983,13.547,40.612-2.602,13.879-14.152,19.583-31.162,17.567v-64.949c2.613-1.252,5.819-.668,8.884-.008-.448,1.892-1.217,3.648-1.225,5.408-.078,17.644-.047,35.29,.008,52.934,.006,1.827-.304,4.149,2.176,4.677,2.557,.544,4.62-.768,6.25-2.689,9.673-11.404,10.669-24.607,7.391-38.398-1.248-5.253-3.782-10.2-5.731-15.287l-.138,.135Z" fill="#f7fcfd"/>
    <path d="M1003.882,851.699c-5.682,6.181-8.771,6.587-14.208,1.825-1.076-.943-2.157-1.906-3.084-2.989-9.538-11.132-13.45-42.075,.429-56.092,8.375-8.457,16.485-8.166,22.675,2.148,6.931,11.549,6.627,24.212,4.162,36.838-1.381,7.074-2.457,14.692-10.169,18.422,10.228-11.365,9.844-40.192-.691-52.271-.468-.537-.977-1.046-1.515-1.512-6.991-6.07-12.989-4.438-15.331,4.548-3.554,13.639-2.159,26.994,3.741,39.758,2.677,5.792,7.157,9.478,13.993,9.325Z" fill="#f7fcfd"/>
    <path d="M1114.396,853.664c-2.984,4.481-6.326,3.779-10.164,.889-4.345-3.273-7.68-7.352-9.305-12.413-4.661-14.513-5.48-28.988,1.902-43.017,3.007-5.713,7.35-10.348,13.986-10.682,6.453-.324,10.645,4.472,13.007,9.764,7.551,16.915,6.159,33.598-2.532,49.766,3.119-10.02,3.775-20.256,2.224-30.625-1.15-7.687-3.384-14.908-9.856-20.014-5.98-4.717-11.135-3.879-13.433,3.18-5.129,15.751-3.125,30.963,5.045,45.409,2.141,3.785,7.204,3.841,9.125,7.743Z" fill="#f7fcfd"/>
    <path d="M900.044,789.963c-.468,22.059-1.37,43.58,.624,65.493-.151,.015-1.502,.231-2.857,.253-1.417,.023-2.837-.141-5.095-.271v-51.61c-5.615,11.788-13.89,22.687-8.104,36.773,1.755,4.272,.86,9.417-.191,14.357-2.101,.568-4.077,1.103-7.339,1.985,1.164-8.594,4.187-16.634,1.589-24.974-2.522-8.094-4.253-16.434-5.847-22.746,1.814,3.7,4.481,9.14,7.994,16.304,5.197-12.291,9.029-23.233,10.714-35.286,2.585-1.075,5.634-.635,8.511-.278Z" fill="#f7fcfd"/>
    <path d="M791.831,790.127c-6.918,20.287,2.679,36.055,12.94,51.879,3.128-17.051,9.9-33.825,3.595-52.075,2.597-.596,6.258-.398,9.967,.126-7.89,20.487-6.506,42.755-13.572,65.074-8.833-18.752-22.49-33.705-24.06-53.995-.951-12.286-.198-12.499,11.131-11.01Z" fill="#f7fcfd"/>
    <path d="M1077.196,841.82c2.523-17.087,10.333-33.94,3.463-52.009,2.444-.55,6.108-.622,9.628,.503-6.913,20.602-6.195,42.596-13.265,64.835-8.755-19.258-22.922-34.467-23.981-55.395-.536-10.585,.435-11.008,11.343-9.588-7.593,19.845,2.625,35.558,12.811,51.654Z" fill="#f7fcfd"/>
    <path d="M1217.651,790.758c-1.031,2.602-2.144,4.618-4.799,6.011-4.646-3.257-9.752-7.741-15.388-1.914-4.005,4.14-5.873,9.162-2.354,14.805,15.51-6.841,26.358,.344,26.976,17.629,.301,8.429-.087,16.693-7.542,24.645,2.487-7.358,4.205-13.208,3.562-19.508-1.186-11.619-8.504-18.288-19.809-17.211-3.231,.308-4.135-1.315-5.184-3.609-3.132-6.847-1.651-14.422,3.937-19.556,6.411-5.891,11.698-6.307,20.602-1.294Z" fill="#f7fcfd"/>
    <path d="M1183.356,855.552h-8.278c2.087-21.683,1-43.287,.607-65.114q2.77-.708,7.67,.174v64.94Z" fill="#f7fcfd"/>
    <path d="M1199.977,839.835c3.956-1.369,6.208-3.293,5.106-6.976-.71-2.375-2.11-4.383-4.796-4.721-3.686-.464-6.294,1.214-8.205,4.37-4.616,7.621-3.119,13.17,3.318,20.468,5.271,5.978,11.426,3.311,17.291,.519-6.806,6.684-11.166,6.608-18.385-.323-7.188-6.9-6.78-20.776,.751-26.651,4.689-3.657,8.921-2.501,12.67,1.357,3.78,3.891,4.25,8.67,1.375,13.029-2.258,3.423-5.553,4.138-9.124-1.073Z" fill="#f7fcfd"/>
  </g>
  <g>
    <path d="M1860.166,885.148v22.006c-21.879,.99-43.546-.67-65.557,1.058-1.276-2.513-.697-5.465-.262-8.66h62.025l.382-2.472c-19.969-6.04-41.201-6.509-62.818-12.55,11.31-6.217,21.634-12.062,32.12-17.599,8.046-4.248,16.307-7.35,25.841-7.251,7.002,.072,9.657,2.175,8.511,9.038-.271,1.62-.04,3.325-.04,5.775-4.269-6.022-10.099-5.526-15.543-5.501-13.868,.063-24.939,7.801-37.179,13.353,9.154,8.077,43.688,10.072,52.521,2.803Z" fill="#f7fcfd"/>
    <path d="M1790.834,623.263c-2.255-9.869,2.414-21.61,10.268-27.279,15.024-10.843,36.36-11.152,51.683-.748,11.868,8.057,12.77,21.848,1.821,29.344-2.718-.937-3.781-3.31-4.81-5.666,.176-.478,.212-1.112,.49-1.248,3.979-1.932,9.274-2.848,8.689-8.869-.53-5.452-5.51-6.937-9.602-8.428-15.053-5.483-30.214-5.422-45.363-.044-6.21,2.205-9.063,6.935-11.09,13.056,5.002,2.307,9.787,1.052,14.4,1.187,7.154,.209,14.318,.035,21.476,.11,5.046,.053,10.187,.47,12.322-6.169,.43,4.641,1.369,8.634-.177,13.264-16.708,.189-33.532-.368-50.107,1.49Z" fill="#f7fcfd"/>
    <path d="M1794.585,825.986c-.367-3.04-.981-6.058-.234-7.856,22.233,2.618,43.833,2.22,65.757,.023,.004,.022,.27,.947,.291,1.877,.032,1.425-.104,2.854-.185,4.613-14.633,.9-24.148,12.177-37.059,17.647,7.44,3.243,29.678,2.182,36.607-1.755,1.254,3.522,.532,6.932,.509,11.32-4.513-3.999-9.394-3.394-14.189-3.386-15.285,.025-30.57,.083-45.853-.053-2.156-.019-5.559,1.41-6.12-4.125,19.113,2.335,30.724-12.909,47.493-18.626-7.714-2.409-39.009-1.967-47.017,.321Z" fill="#f7fcfd"/>
    <path d="M1851.722,492.634c.809,2.469-1.352,3.182-2.667,4.231-10.14,8.092-21.691,11.51-34.616,10.193-14.868-1.515-22.139-13.115-19.883-32.363h65.517c.963,3.865,.939,8.304-2.596,12.188l.141,.2c.746-3.696-1.205-4.371-4.401-4.356-17.125,.08-34.251-.009-51.377,.036-2.051,.005-4.658-.417-5.572,2.092-.832,2.286,.843,4.11,2.346,5.605,5.997,5.96,13.46,8.519,21.728,9.425,11.351,1.243,21.45-2.72,31.501-7.072l-.122-.179Z" fill="#f7fcfd"/>
    <path d="M1860.14,662.727h-65.445c-1.308-2.165-.651-4.693-.428-7.681,10.381,2.124,20.564,.922,30.715,1.076,12.766,.195,14.568-2.496,10.741-14.236-10.409,0-20.604,.135-30.794-.041-8.882-.154-11.5-3.015-10.527-10.906,2.277-.749,3.42,1.215,4.868,2.205,9.146,6.248,18.681,9.201,29.569,4.59,10.036-4.251,20.344-6.535,31.301-2.201v27.194Zm-18.258-6.939c6.029-.025,11.702,2.719,15.682-1.706,2.629-2.923,1.84-7.882-.734-10.621-3.915-4.165-9.475-4.435-14.948-3.598v15.925Z" fill="#f7fcfd"/>
    <path d="M1835.898,1010.306c-1.899,4.043-7.325,2.91-9.968,7.167,10.939,4.654,21.859,8.652,33.899,9.82,.909,3.382,.834,6.858,.313,9.387-22.05-.626-43.792-.572-65.726-.02-.856-2.191-.5-4.74,.142-8.149h47.974l.245-1.95c-9.466-3.189-17.883-10.147-29.211-6.6-4.078,1.277-8.272,2.163-12.662,1.962-5.822-.267-8.397-2.537-5.871-9.274,11.566,6.211,22.73,1.835,33.994-.985,2.283-.572,4.648-.81,6.976-1.203l-.106-.155Z" fill="#f7fcfd"/>
    <path d="M1856.068,989.261c-2.202-2.861-3.328-4.324-4.181-5.431,.192-2.07,1.502-2.352,2.479-2.917,4.794-2.768,5.045-7.463,4.286-11.922-.855-5.022-5.414-2.162-8.291-2.932-.223-.06-.485-.053-.713-.005-3.959,.847-9.452-2.439-11.699,2.235-2.146,4.465,.22,9.384,3.293,13.247,2.038,2.562,2.681,4.421-1.011,5.979-5.094-3.766-4.453-9.221-4.019-14.324,.483-5.69-1.609-7.541-7.264-7.264-8.811,.432-17.668,.397-26.487,.066-5.962-.223-6.895,2.736-6.078,7.565,.923,5.45,4.23,9.451,8.009,13.026-.248,2.587-1.679,4.01-3.597,4.995-8.786-1.459-9.131-14.824-.722-35.394,3.577,5.485,8.4,2.857,13.081,2.714,11.208-.341,22.433-.078,33.652-.119,4.417-.016,8.954,.814,14.558-3.745-2.603,12.425,2.861,23.525-5.297,34.226Z" fill="#f7fcfd"/>
    <path d="M1855.721,401.867c-4.308-4.707-10.343-4.307-15.86-5.15-14.995-2.292-29.915-4.893-44.766-8.924,20.734-9.959,38.281-27.908,64.392-23.898,1.879,4.429,.736,8.869,.562,13.45-8.64-9.922-33.183-4.204-53.646,11.207,18.804,1.412,35.724,10.396,53.84,1.291-2.297,3.469,5.287,10.442-4.425,11.926l-.098,.097Z" fill="#f7fcfd"/>
    <path d="M1855.071,705.796c-2.202-4.304,3.45-7.999,.216-13.008h-60.266c-1.589-3.12-1.296-6.041-.349-8.491h60.736q.712-5.115-2.878-12.695,7.949,1.471,7.873,9.161c-.039,5.485-.429,11.012,.114,16.442,.47,4.698-1.414,7.08-5.5,8.41l.054,.181Z" fill="#f7fcfd"/>
    <path d="M1860.58,950.253c-4.042-.722-5.808-2.557-7.515-4.527,7.365-6.211,6.934-11.501-2.053-14.875-16.422-6.164-32.796-4.892-48.491,2.861-5.708,2.82-8.029,7.922-6.508,15.736-3.797-4.2-3.1-7.349-1.605-10.697,9.749-21.836,47.945-26.879,63.095-8.337,4.835,5.918,2.183,12.704,3.076,19.839Z" fill="#f7fcfd"/>
    <path d="M1855.819,401.769c-.117,.208-.357,.584-.335,.6,7.816,5.69,2.627,13.618,3.516,20.487,.273,2.108-.278,4.532,.583,6.31,1.797,3.711-1.539,4.163-2.499,6.281-4.809-3.512,1.161-7.635-2.178-11.273h-60.408c-.958-2.708-.405-5.71-.368-8.72,20.531,2.151,40.678,.442,61.599,1.152,0-5.363,0-10.048-.004-14.736l.095-.1Z" fill="#f7fcfd"/>
    <path d="M1804.378,558.727c-1.202,2.521-2.641,4.33-5.535,5.405-8.31-8.711-2.915-19.383-4.801-29.817h66.013c.96,2.255,.402,5.288,.075,8.244-18.513-1.96-36.972-.648-55.4-.91-2.879-.041-6.833-1.56-8.377,2.071-1.501,3.532,.552,7.047,2.56,9.982,1.278,1.869,3.389,3.169,5.464,5.024Z" fill="#f7fcfd"/>
    <path d="M1797.125,751.032c7.32,1.69,13.973,5.701,22.304,3.159,10.914-3.331,15.268-7.646,14.879-19.12-.105-3.111,1.088-4.225,3.337-5.392,6.81-3.532,14.817-1.754,20.58,4.659,5.129,5.707,5.298,13.193,.399,20.257-2.725-.459-4.507-2.299-6.495-4.633,2.322-4.535,8.328-8.546,3.196-14.817-4.081-4.987-9.245-5.183-14.869-3.954-1.239,2.364,.985,3.48,1.65,5.092,2.173,5.267,1.985,10.309-1.865,14.676-10.264,11.64-35.479,10.901-42.977-.043l-.139,.115Z" fill="#f7fcfd"/>
    <path d="M1860.258,797.448v8.203h-66.156c-.745-1.77-.055-4.952,.229-8.203h65.927Z" fill="#f7fcfd"/>
    <path d="M1794.36,719.536c-.071-.433-.341-1.348-.344-2.262-.005-1.652,.149-3.304,.283-5.82h65.812c.488,1.987,.673,4.547-.528,8.082h-65.223Z" fill="#f7fcfd"/>
    <path d="M1859.972,570.288q1.109,8.552-8.382,8.533c-18.783-.018-37.567-.005-56.404-.005-1.778-2.747-1.385-5.442-.625-7.729,21.958,.284,43.669,1.704,65.411-.798Z" fill="#f7fcfd"/>
    <path d="M1859.98,522.574h-65.136c-1.31-2.63-1.082-5.325-.315-7.394,21.927,.432,43.493,.653,65.6-.083-.016-.127,.267,1.189,.28,2.507,.013,1.405-.229,2.813-.429,4.971Z" fill="#f7fcfd"/>
    <path d="M1794.325,1005.335c-.538-2.102-.986-5.078-.374-6.508,22.378,.612,43.966,.612,65.546-.821,1.146-.032,.869,1.46,.908,2.851,.033,1.178-.094,2.359-.153,3.611-21.833-.272-43.537-2.512-65.926,.867Z" fill="#f7fcfd"/>
    <path d="M1822.538,731.353c4.024,4.765,2.441,9.307-1.13,13.181-3.352,3.637-7.754,4.706-12.23,1.864-3.831-2.432-5.035-5.417-.589-9.009,3.013,1.186,4.055,6.679,8.668,3.95,3.531-2.088,4.762-5.081,4.302-8.981,.34-.322,.666-.657,.979-1.005Z" fill="#f7fcfd"/>
    <path d="M1796.144,732.567c-5.447,5.551-1.917,11.374-.52,17.133l.128-.137c-6.358-6.769-6.158-12.908,.548-16.828l-.155-.168Z" fill="#f7fcfd"/>
    <path d="M1802.17,728.681c4.771-5.767,15.379-4.396,17.994,2.326l.09-.205c-5.796-2.811-11.424-6.99-18.168-2.25-.019-.024,.085,.13,.085,.13Z" fill="#f7fcfd"/>
    <path d="M1857.477,486.883c-1.461,2.374-1.489,6.183-5.755,5.751l.122,.179c.981-2.861,3.69-3.98,5.774-5.73l-.141-.2Z" fill="#f7fcfd"/>
    <path d="M1796.299,732.736c.354-3.639,1.84-5.663,5.858-4.075,.014,.02-.089-.133-.071-.109-1.976,1.346-3.972,2.669-5.955,4.004,.012,.012,.168,.181,.168,.181Z" fill="#f7fcfd"/>
    <path d="M1836.004,1010.461c.697-1.63,1.906-1.177,3.719-1.286-1.504,1.666-2.588,1.795-3.823,1.133l.105,.154Z" fill="#f7fcfd"/>
    <path d="M1795.623,749.7c1.15-.292,2.151-.416,1.504,1.329l.137-.113c-.503-.453-1.004-.907-1.509-1.357l-.132,.141Z" fill="#f7fcfd"/>
    <path d="M1820.164,731.006c1.089-1.915,1.638-.149,2.374,.347-.312,.347-.639,.682-.978,1.004-.435-.519-.87-1.038-1.305-1.556l-.09,.205Z" fill="#f7fcfd"/>
    <path d="M1855.017,705.615l-1.271-.188c.724-1.08,.994-.292,1.316,.344,.009,.026-.045-.155-.045-.155Z" fill="#f7fcfd"/>
    <polygon points="1839.277 605.422 1839.728 605.218 1839.696 605.685 1839.277 605.422" fill="#f7fcfd"/>
  </g>
</svg>