<svg xmlns="http://www.w3.org/2000/svg" width="2160" height="1440" viewBox="0 0 2160 1440">
  <rect width="1080" height="1440" fill="#ffe298"/>
  <rect x="1080" width="1080" height="1440" fill="#87cefa"/>
  <path d="M1515.58,1018.8v50H1080V371.2h25c0,28.87.89,59.8,2.63,92.38l52.28-47.61,33.66,36.97-81.61,74.32c3.73,45.82,8.99,94.74,15.69,146.01l136.99-124.74,33.66,36.97L1135.98,733.3c19.28,131.22,42.35,242.24,51.75,285.5Z" fill="#fff"/>
  <path d="M1080,371.2v697.6H644.42v-50H972.27c9.4-43.26,32.47-154.28,51.75-285.5L861.7,585.5l33.66-36.97,136.99,124.74c6.7-51.28,11.96-100.19,15.69-146.01l-81.61-74.32,33.66-36.97,52.28,47.61c1.74-32.59,2.63-63.52,2.63-92.38Z" fill="#42361d"/>
</svg>
