<?xml version="1.0" encoding="UTF-8"?>
<svg id="b" data-name="레이어 2" xmlns="http://www.w3.org/2000/svg" width="1071.21" height="1071.211" viewBox="0 0 1071.21 1071.211">
  <g id="c" data-name="레이어 1">
    <g>
      <circle cx="535.605" cy="535.605" r="508.354" fill="#fff"/>
      <g>
        <path d="M798.492,897.826c-96.765,70.256-215.093,98.609-333.186,79.854-118.086-18.745-221.835-82.352-292.054-179.13-41.47-57.116-68.393-121.685-79.554-189.87,.267,.395,.526,.78,.802,1.167,.352,.55,.717,1.074,1.089,1.609,.704,1.037,1.411,2.056,2.126,3.086,.636,.947,1.285,1.869,1.942,2.801,.171,.247,.342,.495,.521,.752,.926,1.309,1.851,2.618,2.769,3.917,1.054,1.479,2.125,2.96,3.189,4.432,2.354,3.243,4.73,6.453,7.136,9.64,4.345,5.755,8.782,11.425,13.294,17.007,9.039,11.184,18.422,22.014,28.142,32.48,.04,.032,.078,.082,.116,.132,56.633,61.058,124.449,110.082,199.638,144.645,2.159,.99,4.31,1.97,6.464,2.932,6.479,2.889,13.015,5.688,19.614,8.362,4.415,1.797,8.847,3.533,13.284,5.234,4.329,1.641,8.674,3.24,13.033,4.797,.12,.035,.231,.077,.341,.119,4.472,1.581,8.959,3.119,13.47,4.608,13.567,4.487,27.324,8.518,41.252,12.09,4.633,1.192,9.284,2.325,13.95,3.414l.018,.002c4.666,1.09,9.356,2.129,14.064,3.108,2.345,.488,4.683,.967,7.023,1.428,2.783,.55,5.559,1.089,8.35,1.586,1.533,.286,3.076,.564,4.63,.834,1.002,.185,2.014,.362,3.019,.529,6.241,1.077,12.478,2.047,18.728,2.929,1.596,.223,3.191,.446,4.772,.649,.649,.091,1.298,.181,1.931,.252,1.192,.166,2.37,.313,3.547,.46,1.265,.159,2.53,.318,3.797,.459,9.689,1.157,19.374,2.08,29.081,2.784,1.027,.072,2.054,.144,3.081,.216,2.018,.139,4.029,.268,6.043,.379,2.377,.135,4.746,.261,7.125,.378,.035,.005,.08,.002,.108-.003,2.424,.115,4.841,.22,7.252,.298,2.356,.088,4.715,.158,7.059,.208,.178,.007,.338,.012,.508,.008,1.745,.047,3.483,.084,5.223,.104,8,.125,15.978,.095,23.959-.095,2.213-.039,4.429-.096,6.64-.181,2.406-.075,4.814-.168,7.208-.28,2.408-.093,4.812-.213,7.21-.361,2.406-.138,4.804-.286,7.195-.443,2.408-.155,4.801-.331,7.197-.523,2.168-.162,4.338-.342,6.503-.549,.381-.036,.751-.065,1.114-.104,2.225-.19,4.446-.407,6.676-.632,.028-.005,.065-.018,.1-.013,2.375-.24,4.753-.498,7.124-.766,2.388-.265,4.778-.548,7.154-.851,2.045-.242,4.095-.519,6.134-.788,.611-.085,1.221-.169,1.822-.246,2.105-.287,4.212-.592,6.322-.914,2.373-.348,4.748-.713,7.115-1.089,2.147-.335,4.29-.697,6.432-1.059,.633-.117,1.264-.217,1.869-.329,1.967-.324,3.929-.676,5.893-1.045,2.09-.37,4.174-.767,6.261-1.181,.513-.089,1.018-.188,1.524-.288,1.692-.336,3.383-.672,5.077-1.025,.883-.181,1.767-.361,2.65-.542,4.244-.882,8.467-1.812,12.688-2.786,2.344-.531,4.684-1.089,7.016-1.657,2.339-.558,4.664-1.136,6.983-1.742,2.334-.586,4.654-1.191,6.975-1.815,4.641-1.229,9.281-2.52,13.887-3.879,2.319-.668,4.63-1.347,6.919-2.055,4.6-1.387,9.183-2.838,13.755-4.345,2.041-.662,4.057-1.337,6.086-2.037,.385-.134,.78-.275,1.173-.399,2.063-.695,4.132-1.425,6.183-2.158,.245-.091,.508-.179,.753-.27,1.926-.67,3.837-1.359,5.75-2.066,.255-.098,.51-.197,.773-.285,8.168-2.998,16.281-6.173,24.328-9.518-19.677,21.144-41.45,40.405-65.183,57.63Z" fill="#1c2072"/>
        <path d="M942.017,347.887c-1.168,.552-2.36,1.091-3.543,1.624s-2.365,1.064-3.563,1.576c-1.068,.477-2.153,.951-3.236,1.407-1.303,.56-2.613,1.11-3.931,1.65-1.195,.495-2.398,.979-3.601,1.464-.995,.406-1.988,.795-2.981,1.184-.54,.22-1.088,.429-1.635,.639-.87,.343-1.748,.676-2.616,1.002-.595,.23-1.198,.45-1.783,.672-.283,.103-.565,.207-.848,.311-.773,.285-1.536,.563-2.316,.838-1.178,.434-2.353,.851-3.546,1.266-.245,.091-.498,.172-.743,.263-.113,.038-.225,.076-.338,.114-2.151,.745-4.3,1.473-6.471,2.171-.76,.26-1.518,.503-2.284,.736-1.236,.4-2.461,.791-3.702,1.163-1.261,.387-2.532,.782-3.807,1.149-1.203,.359-2.406,.719-3.625,1.058-1.238,.355-2.484,.699-3.73,1.043-1.246,.344-2.499,.679-3.743,1.006-.808,.218-1.624,.426-2.439,.634-.816,.208-1.621,.408-2.437,.616-2.287,.566-4.571,1.113-6.86,1.634-2.354,.538-4.716,1.066-7.091,1.557-.525,.114-1.051,.229-1.574,.325-.175,.038-.35,.076-.533,.104-.983,.193-1.969,.404-2.96,.588-1.176,.229-2.342,.451-3.526,.67-1.799,.339-3.613,.657-5.425,.958-1.081,.189-2.17,.367-3.266,.536-1.034,.168-2.057,.329-3.088,.48-4.422,.687-8.867,1.282-13.318,1.787-1.171,.131-2.343,.263-3.522,.384-3.196,.358-6.393,.654-9.592,.904-2.043,.162-4.093,.313-6.131,.44-1.913,.126-3.823,.235-5.72,.318-1.314,.067-2.636,.123-3.948,.173-.989,.041-1.985,.071-2.982,.102-.916,.033-1.84,.056-2.764,.079-.341,.006-.681,.012-1.022,.018-1.212,.036-2.421,.055-3.628,.056-.824,.01-1.647,.02-2.479,.02-.045,.003-.108,.003-.16-.004-.994,.013-1.993-.001-2.995,.002-1.545-.01-3.09-.02-4.632-.048-.456-.001-.919-.012-1.382-.023-1.605-.028-3.208-.073-4.808-.135-.979-.029-1.958-.059-2.952-.108-1.29-.046-2.587-.102-3.882-.176-2.407-.113-4.816-.27-7.225-.428-7.223-.508-14.434-1.229-21.643-2.156-1.142-.142-2.274-.291-3.422-.46-.897-.107-1.799-.242-2.7-.377-1.157-.162-2.305-.331-3.459-.51-.218-.04-.446-.071-.664-.111-1.12-.174-2.24-.348-3.357-.54-.158-.022-.316-.044-.463-.074-1.187-.202-2.385-.396-3.57-.615-1.318-.229-2.625-.465-3.931-.719-1.255-.229-2.525-.478-3.778-.724-1.608-.323-3.217-.646-4.823-.986-2.24-.474-4.467-.973-6.703-1.481-88.411-20.41-166.526-72.169-219.875-145.666-.863-1.184-1.715-2.376-2.55-3.565-.433-.615-.858-1.219-1.283-1.824-.629-.874-1.23-1.754-1.831-2.633-.045-.06-.091-.12-.126-.187-.692-.999-1.358-1.986-2.04-2.993l-.075-.1c-.697-1.027-1.376-2.051-2.053-3.093-.737-1.122-1.474-2.244-2.201-3.373-.176-.275-.345-.54-.513-.805-.425-.667-.868-1.337-1.283-2.012-.108-.185-.227-.362-.335-.547-.461-.735-.913-1.459-1.374-2.194-.199-.305-.388-.617-.576-.93-.468-.745-.934-1.507-1.382-2.267-.541-.862-1.062-1.739-1.576-2.607-.745-1.257-1.49-2.514-2.225-3.779-1.369-2.354-2.709-4.731-4.021-7.113-.106-.202-.214-.387-.32-.59-.665-1.192-1.31-2.4-1.954-3.607-.612-1.122-1.196-2.25-1.788-3.387-.164-.3-.325-.617-.479-.925-.055-.115-.128-.232-.184-.347-.521-1.002-1.035-1.995-1.529-3.002-.653-1.28-1.295-2.567-1.92-3.852-1.101-2.227-2.172-4.478-3.224-6.743-.434-.928-.875-1.865-1.278-2.815-.413-.88-.827-1.76-1.193-2.66-.383-.777-.789-1.648-1.142-2.51-.217-.495-.441-1-.658-1.495-.701-1.635-1.402-3.271-2.084-4.921-.272-.673-.555-1.338-.828-2.011-.272-.673-.555-1.338-.81-2.008-.704-1.743-1.391-3.484-2.057-5.239-.351-.88-.692-1.768-1.012-2.671-.328-.85-.646-1.708-.965-2.566-.369-1.008-.737-2.016-1.096-3.031-.359-1.015-.718-2.031-1.069-3.036-.359-1.015-.707-2.038-1.049-3.051-.341-1.013-.69-2.036-1.021-3.057-.546-1.658-1.082-3.324-1.608-4.998-.056-.178-.111-.355-.167-.533-.387-1.261-.774-2.521-1.151-3.79-.03-.103-.061-.205-.099-.318-.025-.075-.046-.123-.061-.205-.221-.916-.441-1.831-.747-2.714-.382-1.108-.696-2.251-1.017-3.405-.182-.615-.344-1.246-.509-1.859-.205-.708-.4-1.423-.588-2.129-.068-.278-.139-.538-.21-.798,38.81-10.365,78.846-15.428,119.25-15.058,45.787,.415,91.085,7.788,134.637,21.906,90.441,29.293,167.872,85.568,223.902,162.783,17.198,23.675,32.03,48.933,44.241,75.291Z" fill="#8aa1db"/>
        <path d="M853.293,803.814c-.057,.028-.123,.045-.18,.073-1.16,.499-2.318,.981-3.476,1.463-1.205,.502-2.401,.997-3.603,1.481-.57,.242-1.148,.474-1.733,.697-1.688,.694-3.383,1.378-5.084,2.034-.143,.061-.295,.129-.445,.179-2.073,.828-4.161,1.636-6.265,2.423-2.483,.949-4.964,1.881-7.468,2.783-1.556,.578-3.109,1.139-4.669,1.69-.818,.288-1.601,.581-2.424,.841-1.358,.508-2.746,.975-4.124,1.435-.395,.141-.8,.29-1.193,.414-1.906,.654-3.819,1.299-5.748,1.923-2.146,.71-4.3,1.411-6.459,2.083-2.151,.683-4.32,1.363-6.484,2.008-1.858,.572-3.715,1.126-5.578,1.67-1.118,.326-2.219,.655-3.387,.957-1.198,.387-2.424,.716-3.642,1.055-.345,.104-.698,.198-1.041,.284-1.964,.557-3.943,1.094-5.919,1.614-1.784,.484-3.583,.948-5.372,1.404-2.827,.722-5.662,1.435-8.492,2.112-1.739,.419-3.478,.837-5.222,1.228-1.636,.388-3.27,.759-4.912,1.12-1.301,.292-2.602,.584-3.918,.856-.683,.155-1.374,.3-2.064,.445-1.419,.302-2.855,.602-4.281,.895-3.681,.755-7.374,1.473-11.08,2.153-1.008,.181-2.027,.369-3.053,.548-1.239,.229-2.485,.448-3.739,.658-1.466,.26-2.94,.51-4.422,.75-1.674,.276-3.338,.544-4.993,.804-1.654,.261-3.316,.511-4.985,.752-1.652,.243-3.304,.486-4.97,.709-2.425,.34-4.848,.663-7.296,.974-1.547,.195-3.094,.39-4.638,.568-.446,.054-.909,.105-1.354,.159-1.199,.136-2.388,.265-3.587,.402-8.007,.884-16.062,1.6-24.113,2.156-1.237,.086-2.481,.163-3.725,.239-1.67,.115-3.355,.211-5.029,.299-1.422,.07-2.854,.147-4.276,.216-1.214,.054-2.411,.11-3.625,.164-.215,.006-.441,.019-.663,.015-1.745,.078-3.505,.136-5.265,.194-3.753,.119-7.501,.204-11.252,.243-1.978,.019-3.956,.038-5.931,.039-1.753,.005-3.496,.003-5.253-.019-.135,.008-.278,.006-.421,.004-1.813-.012-3.643-.026-5.461-.066-1.89-.032-3.781-.063-5.669-.112-3.776-.098-7.565-.234-11.349-.405-1.528-.07-3.055-.141-4.59-.221-.551-.023-1.099-.064-1.64-.095-1.713-.087-3.423-.192-5.124-.304-1.888-.112-3.782-.251-5.675-.39s-3.787-.279-5.678-.435c-5.673-.471-11.343-1.021-17.019-1.662-1.894-.202-3.785-.421-5.673-.658-1.678-.208-3.356-.415-5.025-.63-1.721-.223-3.432-.453-5.15-.693-2.272-.308-4.541-.634-6.809-.978-2.442-.368-4.865-.751-7.302-1.154-1.801-.287-3.61-.585-5.406-.907-.744-.113-1.486-.243-2.217-.381-1.353-.234-2.696-.475-4.056-.718-.732-.138-1.473-.268-2.212-.416-1.987-.367-3.971-.751-5.963-1.146-2.262-.441-4.522-.9-6.78-1.376-145.475-30.445-273.698-113.506-361.107-233.887-1.919-2.646-3.817-5.306-5.696-7.982-1.461-2.081-2.913-4.17-4.344-6.274-.556-.819-1.112-1.639-1.668-2.459-.747-1.114-1.504-2.221-2.234-3.333-1.049-1.577-2.091-3.143-3.12-4.735-.302-.462-.596-.915-.898-1.377-.772-1.189-1.545-2.379-2.307-3.576-.961-1.502-1.912-3.011-2.854-4.528-.667-1.05-1.316-2.097-1.963-3.161-.825-1.322-1.641-2.651-2.446-3.988-.903-1.467-1.794-2.959-2.678-4.441-.775-1.297-1.548-2.612-2.313-3.916-.73-1.237-1.458-2.492-2.168-3.744-.72-1.245-1.447-2.499-2.14-3.749-.685-1.177-1.342-2.359-1.999-3.542-.307-.552-.617-1.087-.907-1.637-.693-1.312-1.425-2.595-2.145-3.902-.179-.32-.34-.637-.519-.957-.874-1.615-1.738-3.237-2.602-4.859-.065-.107-.113-.212-.161-.318-.927-1.747-1.851-3.512-2.758-5.274-.227-.425-.451-.867-.675-1.31,1.602-66.698,18.295-133.166,48.366-192.509,32.251-63.624,78.092-117.288,136.23-159.482,28.34-20.578,58.711-37.654,90.644-50.999-.361,1.433-.722,2.867-1.058,4.312-.067,.223-.116,.449-.168,.692-.218,.855-.428,1.719-.615,2.613-.386,1.546-.739,3.115-1.085,4.693-.136,.526-.247,1.065-.361,1.621-.02,.015-.032,.04-.022,.095-.447,1.922-.869,3.856-1.266,5.803-1.417,6.622-2.698,13.299-3.856,19.993-.347,1.972-.676,3.946-.99,5.94-.054,.261-.103,.549-.138,.857-.167,.942-.317,1.886-.452,2.851-.17,1.022-.334,2.072-.473,3.134-.076,.418-.148,.864-.194,1.323-.025,.05-.032,.103-.027,.193-.224,1.345-.415,2.713-.586,4.066-.03,.085-.032,.165-.032,.228-.201,1.313-.372,2.603-.536,3.903-.259,1.921-.501,3.845-.726,5.771-.22,1.766-.43,3.524-.612,5.278-.49,4.276-.91,8.561-1.274,12.836-.037,.263-.056,.528-.075,.794-.099,1.095-.201,2.207-.275,3.313-.092,1.105-.183,2.209-.258,3.316-.344,4.511-.625,9.021-.844,13.531-.118,2.379-.228,4.768-.321,7.16-.072,1.921-.136,3.851-.182,5.785-.009,.195-.011,.401-.013,.606-.056,2.254-.104,4.517-.124,6.776-.029,1.23-.037,2.444-.039,3.668-.012,1.044-.021,2.071-.013,3.1-.009,1.92,.002,3.826,.013,5.731,.006,.215,.011,.431,.01,.636,.026,1.863,.052,3.726,.098,5.573,.058,3.235,.143,6.465,.273,9.692,.073,1.78,.149,3.543,.242,5.307-.01,.133,0,.25,.011,.368,.094,2.078,.206,4.158,.335,6.241,.706,11.906,1.81,23.779,3.304,35.607,.126,1.019,.262,2.03,.388,3.049,.105,.783,.203,1.557,.318,2.333,.144,1.084,.29,2.15,.453,3.219,.146,1.066,.3,2.142,.456,3.201,12.868,86.614,47.044,170.099,98.819,241.427,2.009,2.765,4.056,5.518,6.115,8.246,2.829,3.747,5.7,7.446,8.628,11.118,.865,1.104,1.742,2.183,2.627,3.272,1.013,1.259,2.026,2.518,3.059,3.761,3.446,4.191,6.954,8.319,10.515,12.391,2.387,2.747,4.807,5.453,7.249,8.127,.804,.899,1.626,1.8,2.45,2.684,.495,.552,1,1.096,1.505,1.64,1.477,1.583,2.957,3.148,4.437,4.713,.99,1.041,1.98,2.082,2.982,3.098,.631,.669,1.256,1.311,1.899,1.955,1,1.033,2.017,2.069,3.027,3.095,3.637,3.654,7.306,7.268,11.038,10.82,.914,.879,1.821,1.747,2.755,2.61,2.044,1.939,4.111,3.846,6.198,5.737,.791,.736,1.592,1.465,2.403,2.186,1.286,1.163,2.581,2.318,3.887,3.466,1.311,1.175,2.641,2.335,3.974,3.478,5.037,4.386,10.168,8.669,15.374,12.864,.73,.594,1.453,1.177,2.194,1.763,.916,.736,1.835,1.454,2.761,2.182,1.305,1.023,2.61,2.045,3.926,3.06,11.48,8.87,23.318,17.299,35.466,25.226,1.942,1.263,3.886,2.509,5.841,3.748,.409,.272,.836,.546,1.272,.812,1.857,1.171,3.731,2.345,5.617,3.493,1.711,1.061,3.434,2.098,5.158,3.134,.123,.08,.256,.152,.389,.224,.815,.498,1.658,.991,2.484,1.482,1.625,.969,3.271,1.923,4.934,2.879,2.258,1.307,4.518,2.597,6.808,3.865,3.118,1.74,6.265,3.458,9.436,5.144,.966,.51,1.931,1.02,2.907,1.523,5.395,2.845,10.857,5.592,16.379,8.232,1.204,.597,2.427,1.179,3.643,1.751,1.76,.836,3.531,1.664,5.304,2.475,.89,.41,1.798,.823,2.698,1.226,.89,.41,1.798,.823,2.708,1.218,3.819,1.713,7.672,3.369,11.531,4.989,.845,.35,1.69,.701,2.552,1.054,6.21,2.575,12.49,5.034,18.805,7.373,1.487,.556,2.986,1.087,4.475,1.626,6.034,2.174,12.107,4.256,18.215,6.218,2.156,.694,4.303,1.379,6.456,2.028,.351,.112,.702,.223,1.055,.317,1.627,.513,3.256,1.009,4.887,1.487,2.782,.818,5.566,1.618,8.363,2.393,1.058,.3,2.125,.592,3.183,.891,2.343,.631,4.679,1.252,7.017,1.856,2.002,.512,3.997,1.014,6.002,1.509,1.659,.411,3.328,.813,4.989,1.206,2.293,.544,4.578,1.077,6.886,1.579,3.856,.869,7.72,1.686,11.598,2.46,1.894,.39,3.808,.764,5.725,1.121,1.776,.337,3.545,.665,5.316,.975,1.699,.318,3.417,.62,5.128,.913,6.506,1.096,13.027,2.088,19.554,2.963,.799,.103,1.588,.213,2.387,.316,3.319,.428,6.625,.818,9.934,1.191,1.936,.217,3.865,.424,5.796,.613,4.037,.403,8.072,.761,12.112,1.084Z" fill="#243d8e"/>
        <path d="M918.583,767.437l-.01,.008c-3.022,.132-6.049,.237-9.081,.314-1.507,.04-3.022,.07-4.544,.089-.163,.013-.343,.024-.528,.007-.771,.018-1.56,.032-2.346,.03-.075,.025-.163,.013-.261,.008-1.765,.031-3.545,.041-5.323,.034-2.629,.008-5.273-.003-7.92-.06-.608,.004-1.232-.011-1.855-.027-3.335-.055-6.673-.154-10.024-.292-2.572-.082-5.166-.194-7.763-.351-4.971-.247-9.947-.585-14.929-1.012-.541-.031-1.097-.082-1.661-.143-.02,.015-.065,.018-.115-.007-1.052-.084-2.119-.189-3.178-.283-1.961-.167-3.927-.361-5.908-.575-.654-.056-1.305-.129-1.964-.212-1.34-.134-2.695-.287-4.058-.451-1.267-.141-2.542-.292-3.807-.451-.045,.003-.098-.005-.158-.022-1.117-.129-2.242-.268-3.382-.427-.115-.007-.248-.017-.386-.054-1.045-.137-2.062-.279-3.106-.416-1.588-.213-3.166-.433-4.724-.669-1.305-.191-2.618-.392-3.913-.591-1.323-.194-2.625-.402-3.918-.619-1.303-.209-2.595-.425-3.896-.651-1.285-.206-2.56-.42-3.823-.659-1.135-.194-2.277-.399-3.4-.618-.14-.02-.281-.039-.418-.076-1.142-.204-2.292-.418-3.44-.65-1.305-.254-2.603-.498-3.878-.774-1.255-.229-2.498-.483-3.721-.752-.253-.044-.514-.099-.747-.158-1.007-.212-2.014-.425-3.012-.644-2.065-.449-4.129-.899-6.181-1.373-.634-.133-1.258-.274-1.852-.437-1.751-.388-3.473-.798-5.174-1.223-1.817-.432-3.621-.89-5.408-1.345-.872-.22-1.734-.448-2.596-.675-1.977-.5-3.942-1.024-5.904-1.567-2.453-.673-4.897-1.354-7.328-2.06-2.441-.698-4.87-1.422-7.303-2.173-1.664-.501-3.318-1.009-4.977-1.544-.351-.112-.694-.213-1.035-.332-.762-.241-1.524-.481-2.276-.729-1.659-.536-3.291-1.076-4.93-1.627-.777-.26-1.554-.521-2.321-.789-6.494-2.203-12.927-4.532-19.312-7.006-.722-.271-1.434-.549-2.146-.827-1.424-.556-2.838-1.12-4.259-1.694-1-.39-1.998-.798-2.986-1.213-2.444-.994-4.894-2.015-7.313-3.059-1.848-.785-3.693-1.588-5.528-2.399-2.324-1.022-4.646-2.061-6.955-3.126-79.241-36.399-148.383-93.206-199.92-164.197-48.255-66.457-80.084-144.216-92.067-224.878-.197-1.279-.376-2.555-.545-3.839-.169-1.159-.338-2.318-.479-3.481-1.389-10.339-2.449-20.739-3.182-31.166-.083-1.066-.149-2.13-.213-3.212-.028-.245-.037-.506-.055-.758-.071-1.029-.132-2.065-.185-3.092-.241-4.101-.419-8.201-.552-12.305-.038-.944-.066-1.895-.096-2.829-.159-5.904-.22-11.803-.171-17.722-.01-.636,0-1.287,.011-1.938,.032-3.428,.111-6.876,.218-10.329,.013-.794,.045-1.603,.078-2.411,.177-5.168,.441-10.325,.778-15.489,.114-1.906,.256-3.817,.405-5.718,.142-1.911,.301-3.819,.468-5.718,.329-3.762,.695-7.536,1.104-11.296l.029-.21c.2-1.813,.417-3.624,.624-5.428,.239-1.969,.486-3.928,.748-5.866,.257-1.904,.521-3.798,.786-5.691,.265-1.894,.547-3.785,.846-5.674,.582-3.78,1.216-7.553,1.885-11.321,.669-3.768,1.374-7.531,2.13-11.287,.377-1.869,.764-3.746,1.159-5.612,.48,1.301,.97,2.593,1.459,3.886,.045,.122,.083,.235,.139,.35,.291,.8,.593,1.576,.904,2.361,.419,1.095,.856,2.193,1.295,3.274,.257,.653,.515,1.305,.782,1.951,.338,.843,.676,1.685,1.032,2.531,.02,.047,.04,.095,.061,.143,.26,.635,.52,1.27,.797,1.908,.656,1.575,1.322,3.143,1.998,4.703,.434,.99,.868,1.98,1.311,2.963,.298,.685,.595,1.37,.913,2.04,.477,1.068,.961,2.145,1.455,3.215,.308,.678,.618,1.338,.935,2.008,.055,.115,.108,.248,.164,.363,.27,.565,.539,1.13,.809,1.695,.365,.775,.731,1.55,1.106,2.318,.194,.402,.381,.795,.575,1.198,.494,1.008,.985,2.033,1.497,3.043,.758,1.545,1.529,3.065,2.308,4.595,.66,1.29,1.323,2.562,1.993,3.845,.043,.078,.086,.155,.128,.232,.322,.635,.655,1.262,.997,1.882,.524,.985,1.04,1.96,1.567,2.927,.64,1.18,1.289,2.352,1.947,3.534,.476,.88,.972,1.745,1.468,2.609,.521,.94,1.045,1.862,1.586,2.787,.365,.65,.748,1.302,1.13,1.954,.604,1.05,1.218,2.092,1.843,3.127,.491,.837,.982,1.674,1.5,2.507,1.218,2.029,2.464,4.054,3.73,6.063,.619,1.007,1.258,1.999,1.905,3.001,1.012,1.589,2.033,3.171,3.082,4.748,.108,.185,.226,.362,.345,.54,.252,.375,.503,.75,.755,1.124,.39,.6,.797,1.202,1.205,1.804,.065,.107,.148,.217,.214,.325,1.497,2.211,3.003,4.415,4.54,6.596,.506,.732,1.029,1.467,1.544,2.191,.807,1.132,1.607,2.254,2.424,3.378,2.422,3.333,4.886,6.617,7.392,9.855,.747,.989,1.513,1.963,2.29,2.93,.264,.35,.53,.682,.797,1.014,.515,.662,1.041,1.316,1.576,1.963,.691,.874,1.393,1.741,2.104,2.6,.282,.352,.571,.714,.862,1.059,.885,1.089,1.78,2.17,2.684,3.244,.161,.192,.329,.395,.49,.587,.101,.112,.199,.242,.299,.355,1.395,1.661,2.802,3.296,4.227,4.934,.224,.255,.455,.519,.686,.784,.646,.752,1.302,1.496,1.958,2.24,.721,.789,1.425,1.575,2.136,2.372,.301,.337,.603,.674,.897,1.001,.789,.879,1.588,1.75,2.397,2.614,.543,.594,1.103,1.191,1.656,1.778,.349,.379,.691,.749,1.04,1.129,.517,.519,.772,1.002,2.787,1.739,1.005,.355,1.254,1.391,1.24,2.452,.003,.045,.045,.06,.068,.09,.359,.372,.726,.754,1.085,1.126,.485,.497,.987,.996,1.472,1.493,.862,.871,1.716,1.732,2.587,2.596,.399,.404,.806,.819,1.216,1.216,.181,.177,.369,.364,.55,.542,1.17,1.156,2.351,2.304,3.534,3.434,.424,.417,.851,.816,1.268,1.223,.575,.554,1.143,1.098,1.72,1.635,.806,.756,1.605,1.502,2.403,2.248,1.7,1.587,3.42,3.159,5.153,4.706,.11,.105,.223,.192,.334,.297,.452,.412,.914,.816,1.376,1.22,1.105,.986,2.212,1.954,3.319,2.922,.294,.265,.59,.511,.876,.766,.48,.407,.967,.823,1.446,1.23,.239,.212,.495,.427,.743,.631,.909,.788,1.835,1.579,2.764,2.353,.241,.195,.464,.387,.705,.581,.512,.429,1.042,.861,1.571,1.292,.698,.571,1.378,1.14,2.069,1.701,.698,.571,1.386,1.15,2.086,1.704,.346,.272,.693,.544,1.039,.816,.289,.237,.587,.466,.886,.696,.894,.706,1.795,1.422,2.706,2.13,.384,.322,.781,.618,1.175,.933,.71,.546,1.421,1.092,2.141,1.631,1.242,.96,2.495,1.913,3.75,2.848,2.387,1.79,4.814,3.55,7.253,5.286,2.439,1.735,4.891,3.445,7.372,5.132,2.464,1.685,4.951,3.337,7.467,4.967,1.244,.817,2.509,1.62,3.773,2.422,1.084,.688,2.168,1.375,3.264,2.038,1.084,.688,2.188,1.36,3.284,2.023,.617,.381,1.252,.765,1.879,1.138,.105,.077,.213,.137,.321,.197,2.195,1.308,4.4,2.608,6.617,3.883,2.599,1.489,5.21,2.953,7.833,4.392,1.628,.889,3.256,1.778,4.906,2.634,.998,.533,2.006,1.058,3.032,1.585,1.324,.694,2.651,1.371,3.995,2.051,2.681,1.349,5.367,2.662,8.072,3.961,1.349,.644,2.698,1.289,4.067,1.918,2.234,1.027,4.478,2.047,6.735,3.041,.825,.365,1.657,.741,2.492,1.099,.16,.067,.311,.142,.471,.209,.878,.373,1.763,.756,2.64,1.128,1.374,.594,2.768,1.173,4.154,1.742,1.386,.569,2.773,1.138,4.179,1.692,.193,.089,.396,.171,.609,.246,1.04,.422,2.101,.83,3.161,1.237,.125,.062,.278,.119,.424,.166,1.399,.544,2.808,1.08,4.217,1.617,1.401,.526,2.813,1.045,4.234,1.557,1.659,.598,3.329,1.189,5.018,1.765,.79,.298,1.609,.573,2.439,.841,.058,.035,.125,.062,.213,.074,.86,.308,1.722,.598,2.612,.883,1.81,.61,3.639,1.205,5.481,1.776,.717,.243,1.454,.471,2.201,.692,.94,.31,1.9,.605,2.862,.883,1.654,.508,3.328,1.001,4.995,1.484,2.905,.835,5.822,1.644,8.751,2.429,1.456,.391,2.922,.775,4.39,1.141,1.466,.383,2.944,.742,4.423,1.1,1.478,.358,2.949,.707,4.43,1.048,6.149,1.413,12.307,2.693,18.495,3.826,1.22,.224,2.44,.448,3.663,.655,3.465,.6,6.927,1.155,10.386,1.665,1.243,.191,2.495,.375,3.75,.542,1.235,.181,2.472,.345,3.72,.502,.281,.039,.561,.078,.834,.108,1.518,.203,3.031,.379,4.561,.557,1.1,.127,2.199,.254,3.291,.37,.784,.083,1.585,.168,2.369,.25,1.155,.117,2.309,.233,3.474,.342,1.385,.131,2.77,.262,4.15,.365,1.563,.138,3.128,.258,4.686,.368,.902,.072,1.778,.132,2.665,.185,1.222,.081,2.444,.163,3.651,.224,2.89,.171,5.767,.305,8.657,.414,1.2,.051,2.402,.085,3.596,.109,1.004,.042,2.003,.056,3.01,.081,1.017,.017,2.051,.036,3.077,.045,1.685,.03,3.373,.042,5.045,.034,1.357,.011,2.717,.004,4.079-.02,.035,.005,.053,.007,.08,.002,.115,.007,.223,.004,.331,.001,.198-.008,.393,.001,.591-.007,1.137-.011,2.273-.022,3.405-.061,.233-.003,.466-.006,.699-.01,.834-.018,1.667-.035,2.511-.061,.816-.02,1.632-.04,2.451-.078,.941-.02,1.885-.058,2.812-.099,1.42-.052,2.832-.114,4.236-.186,2.809-.144,5.63-.313,8.446-.51,.09-.005,.173-.021,.27-.016,1.364-.104,2.729-.209,4.085-.323,1.364-.104,2.721-.219,4.08-.351,1.194-.101,2.391-.22,3.579-.349,1.585-.145,3.171-.308,4.753-.498,2.313-.24,4.613-.518,6.908-.823,1.246-.157,2.503-.321,3.762-.503,1.229-.159,2.46-.336,3.702-.52,1.141-.171,2.3-.34,3.454-.537,1.076-.154,2.137-.327,3.208-.508,1.399-.225,2.79-.459,4.174-.704,1.787-.314,3.574-.627,5.338-.971,.706-.125,1.394-.252,2.085-.397l.496-.092c1.662-.313,3.328-.661,4.985-1.002,1.611-.338,3.223-.676,4.837-1.032,.903-.196,1.817-.399,2.712-.604,1.754-.399,3.518-.805,5.267-1.231,1.471-.358,2.942-.715,4.416-1.09,1.306-.327,2.604-.664,3.903-1.001,.102-.03,.223-.058,.325-.089,.26-.071,.538-.139,.798-.21,.956-.251,1.921-.509,2.88-.778,.28-.086,.558-.154,.846-.23,1.201-.342,3.182-.896,4.383-1.238,1.088-.304,2.134-.622,3.215-.937,.263-.088,.533-.167,.803-.245,1.603-.473,3.2-.956,4.788-1.45,.14-.043,.29-.094,.43-.137,.926-.291,1.851-.582,2.769-.883l.01-.008c.871-.281,1.731-.554,2.594-.844,1.471-.483,2.942-.966,4.407-1.476,1.068-.351,2.139-.72,3.202-1.099,1.118-.389,2.218-.781,3.321-1.19,.78-.275,1.551-.543,2.316-.838,.518-.187,1.028-.384,1.546-.571,.923-.336,1.838-.682,2.746-1.038,1.1-.391,2.188-.821,3.286-1.257,.17-.066,.33-.124,.5-.189,.765-.295,1.521-.583,2.271-.898,.245-.091,.473-.184,.71-.285,1.06-.424,2.111-.84,3.163-1.274,.663-.265,1.318-.54,1.973-.815,.653-.258,1.308-.532,1.955-.817,1.31-.55,2.621-1.1,3.926-1.677,1.303-.56,2.598-1.13,3.896-1.717,1.065-.459,2.115-.938,3.158-1.427,.228-.093,.438-.189,.658-.292,.02-.015,.047-.02,.067-.035,46.218,126.927,32.462,268.682-37.772,384.806Z" fill="#586fb7"/>
        <path d="M535.605,1071.211c-72.295,0-142.441-14.165-208.489-42.101-63.782-26.978-121.06-65.593-170.241-114.774-49.181-49.181-87.797-106.458-114.774-170.241C14.165,678.047,0,607.901,0,535.605s14.165-142.441,42.101-208.489c26.978-63.783,65.593-121.06,114.774-170.241,49.181-49.181,106.458-87.797,170.241-114.775C393.164,14.165,463.31,0,535.605,0s142.441,14.165,208.49,42.1c63.782,26.978,121.06,65.594,170.239,114.775,49.181,49.18,87.797,106.458,114.774,170.241,27.936,66.048,42.101,136.194,42.101,208.489s-14.165,142.441-42.101,208.489c-26.978,63.782-65.593,121.06-114.774,170.241-49.18,49.181-106.457,87.797-170.239,114.774-66.049,27.936-136.195,42.101-208.49,42.101Zm0-1021.133c-65.557,0-129.14,12.834-188.982,38.145-57.813,24.453-109.74,59.465-154.338,104.063s-79.61,96.525-104.063,154.338c-25.311,59.842-38.145,123.425-38.145,188.982s12.834,129.14,38.145,188.982c24.453,57.814,59.465,109.741,104.063,154.338,44.598,44.598,96.525,79.61,154.338,104.063,59.842,25.311,123.425,38.145,188.982,38.145s129.139-12.834,188.982-38.145c57.813-24.453,109.74-59.466,154.337-104.063,44.599-44.598,79.61-96.525,104.063-154.338,25.311-59.842,38.145-123.425,38.145-188.982s-12.834-129.14-38.145-188.982c-24.453-57.814-59.464-109.74-104.063-154.338-44.598-44.598-96.525-79.61-154.337-104.063-59.842-25.311-123.425-38.145-188.982-38.145Z" fill="#243d8e"/>
      </g>
    </g>
  </g>
</svg>