<?xml version="1.0" encoding="utf-8"?>
<!-- Generator: Adobe Illustrator 26.0.1, SVG Export Plug-In . SVG Version: 6.00 Build 0)  -->
<svg version="1.1" id="레이어_1" xmlns="http://www.w3.org/2000/svg" xmlns:xlink="http://www.w3.org/1999/xlink" x="0px"
	 y="0px" width="36px" height="36px" viewBox="0 0 36 36" style="enable-background:new 0 0 36 36;" xml:space="preserve">
<style type="text/css">
	.st0{clip-path:url(#SVGID_00000175291466417949646400000010037429497584413106_);}
	.st1{fill:#FDC000;}
	.st2{fill:#1BA64E;}
	.st3{fill:#FFFFFF;}
	.st4{fill:#FF0000;}
</style>
<g>
	<defs>
		<path id="SVGID_1_" d="M36,27c0,2.2-1.8,4-4,4H4c-2.2,0-4-1.8-4-4V9c0-2.2,1.8-4,4-4h28c2.2,0,4,1.8,4,4V27z"/>
	</defs>
	<clipPath id="SVGID_00000052090007665133248520000004858131508794223801_">
		<use xlink:href="#SVGID_1_"  style="overflow:visible;"/>
	</clipPath>
	<g style="clip-path:url(#SVGID_00000052090007665133248520000004858131508794223801_);">
		<polygon class="st1" points="34.3,5 32.6,5 30.9,5 29.1,5 27.4,5 25.7,5 24,5 22.3,5 20.6,5 18.9,5 17.1,5 15.4,5 13.7,5 12,5 
			10.3,5 8.6,5 6.9,5 5.1,5 3.4,5 1.7,5 0,5 0,6.9 0,8.7 0,10.6 0,12.4 1.7,12.4 3.4,12.4 5.1,12.4 6.9,12.4 8.6,12.4 10.3,12.4 
			12,12.4 13.7,12.4 15.4,12.4 17.1,12.4 18.9,12.4 20.6,12.4 22.3,12.4 24,12.4 25.7,12.4 27.4,12.4 29.1,12.4 30.9,12.4 
			32.6,12.4 34.3,12.4 36,12.4 36,10.6 36,8.7 36,6.9 36,5 		"/>
		<polygon points="34.3,23.6 32.6,23.6 30.9,23.6 29.1,23.6 27.4,23.6 25.7,23.6 24,23.6 22.3,23.6 20.6,23.6 18.9,23.6 17.1,23.6 
			15.4,23.6 13.7,23.6 12,23.6 10.3,23.6 8.6,23.6 6.9,23.6 5.1,23.6 3.4,23.6 1.7,23.6 0,23.6 0,25.4 0,27.3 0,29.1 0,31 1.7,31 
			3.4,31 5.1,31 6.9,31 8.6,31 10.3,31 12,31 13.7,31 15.4,31 17.1,31 18.9,31 20.6,31 22.3,31 24,31 25.7,31 27.4,31 29.1,31 
			30.9,31 32.6,31 34.3,31 36,31 36,29.1 36,27.3 36,25.4 36,23.6 		"/>
		<polygon class="st2" points="34.3,12.4 32.6,12.4 30.9,12.4 29.1,12.4 27.4,12.4 25.7,12.4 24,12.4 22.3,12.4 20.6,12.4 
			18.9,12.4 17.1,12.4 15.4,12.4 13.7,12.4 12,12.4 10.3,12.4 8.6,12.4 6.9,12.4 5.1,12.4 3.4,12.4 1.7,12.4 0,12.4 0,14.3 0,16.1 
			0,18 0,19.9 0,21.7 0,23.6 1.7,23.6 3.4,23.6 5.1,23.6 6.9,23.6 8.6,23.6 10.3,23.6 12,23.6 13.7,23.6 15.4,23.6 17.1,23.6 
			18.9,23.6 20.6,23.6 22.3,23.6 24,23.6 25.7,23.6 27.4,23.6 29.1,23.6 30.9,23.6 32.6,23.6 34.3,23.6 36,23.6 36,21.7 36,19.9 
			36,18 36,16.1 36,14.3 36,12.4 		"/>
		<polygon class="st3" points="16.2,19.9 19.8,19.9 21.4,16.1 14.6,16.1 		"/>
		<polygon class="st3" points="33,7.5 33,5 30,5 30,7.5 27,7.5 27,10 30,10 30,12.4 33,12.4 33,10 36,10 36,7.5 		"/>
		<g>
			<rect x="27" y="5" class="st4" width="3" height="2.5"/>
			<rect x="33" y="5" class="st4" width="3" height="2.5"/>
			<rect x="27" y="10" class="st4" width="3" height="2.5"/>
			<rect x="33" y="10" class="st4" width="3" height="2.5"/>
		</g>
	</g>
</g>
</svg>
