<svg xmlns="http://www.w3.org/2000/svg" width="2160" height="1440" viewBox="0 0 2160 1440">
  <polygon points="2057.143 0 1954.286 0 1851.429 0 1748.571 0 1645.714 0 1542.857 0 1440 0 1337.143 0 1234.286 0 1131.429 0 1028.571 0 925.714 0 822.857 0 720 0 617.143 0 514.286 0 411.429 0 308.571 0 205.714 0 102.857 0 0 0 0 102.857 0 205.714 0 308.571 0 411.429 102.857 411.429 205.714 411.429 308.571 411.429 411.429 411.429 514.286 411.429 617.143 411.429 720 411.429 822.857 411.429 925.714 411.429 1028.571 411.429 1131.429 411.429 1234.286 411.429 1337.143 411.429 1440 411.429 1542.857 411.429 1645.714 411.429 1748.571 411.429 1851.429 411.429 1954.286 411.429 2057.143 411.429 2160 411.429 2160 308.571 2160 205.714 2160 102.857 2160 0 2057.143 0" fill="#fdc000"/>
  <polygon points="2057.143 1028.571 1954.286 1028.571 1851.429 1028.571 1748.571 1028.571 1645.714 1028.571 1542.857 1028.571 1440 1028.571 1337.143 1028.571 1234.286 1028.571 1131.429 1028.571 1028.571 1028.571 925.714 1028.571 822.857 1028.571 720 1028.571 617.143 1028.571 514.286 1028.571 411.429 1028.571 308.571 1028.571 205.714 1028.571 102.857 1028.571 0 1028.571 0 1131.429 0 1234.286 0 1337.143 0 1440 102.857 1440 205.714 1440 308.571 1440 411.429 1440 514.286 1440 617.143 1440 720 1440 822.857 1440 925.714 1440 1028.571 1440 1131.429 1440 1234.286 1440 1337.143 1440 1440 1440 1542.857 1440 1645.714 1440 1748.571 1440 1851.429 1440 1954.286 1440 2057.143 1440 2160 1440 2160 1337.143 2160 1234.286 2160 1131.429 2160 1028.571 2057.143 1028.571"/>
  <polygon points="2057.143 411.429 1954.286 411.429 1851.428 411.429 1748.571 411.429 1645.714 411.429 1542.857 411.429 1440 411.429 1337.143 411.429 1234.286 411.429 1131.428 411.429 1028.571 411.429 925.714 411.429 822.857 411.429 720 411.429 617.143 411.429 514.286 411.429 411.429 411.429 308.571 411.429 205.714 411.429 102.857 411.429 0 411.429 0 514.286 0 617.143 0 720 0 822.857 0 925.714 0 1028.571 102.857 1028.571 205.714 1028.571 308.571 1028.571 411.429 1028.571 514.286 1028.571 617.143 1028.571 720 1028.571 822.857 1028.571 925.714 1028.571 1028.571 1028.571 1131.428 1028.571 1234.286 1028.571 1337.143 1028.571 1440 1028.571 1542.857 1028.571 1645.714 1028.571 1748.571 1028.571 1851.428 1028.571 1954.286 1028.571 2057.143 1028.571 2160 1028.571 2160 925.714 2160 822.857 2160 720 2160 617.143 2160 514.286 2160 411.429 2057.143 411.429" fill="#1ba64e"/>
  <polygon points="971.893 822.857 1188.107 822.857 1286.615 617.143 873.385 617.143 971.893 822.857" fill="#fff"/>
  <polygon points="1980 137.244 1980 0 1800 0 1800 137.244 1620 137.244 1620 274.489 1800 274.489 1800 411.733 1980 411.733 1980 274.489 2160 274.489 2160 137.244 1980 137.244" fill="#fff"/>
  <g>
    <rect x="1620" width="180" height="137.244" fill="red"/>
    <rect x="1980" width="180" height="137.244" fill="red"/>
    <rect x="1620" y="274.489" width="180" height="137.244" fill="red"/>
    <rect x="1980" y="274.489" width="180" height="137.244" fill="red"/>
  </g>
</svg>
