<?xml version="1.0" encoding="UTF-8"?>
<svg id="a" data-name="레이어 1" xmlns="http://www.w3.org/2000/svg" width="1440" height="1440" viewBox="0 0 1440 1440">
  <g>
    <path d="M1120.201,318.463c-42.674,49.685-85.348,99.389-128.003,149.074-.019,.158-.039,.315-.039,.473-.256,2.993-.65,6.223-2.698,8.428-1.772,1.891-4.451,2.619-6.971,3.21-19.752,4.529-40.153,5.061-60.398,5.534-178.83,4.155-358.29,4.746-535.506,29.047,17.349-55.278,41.965-108.291,72.981-157.207l1.654-.079c21.071-22.706,43.442-44.191,66.916-64.376,19.299-16.601,41.414-38.933,64.435-50.079,19.614-9.492,50.079-2.816,72.391-4.844,56.499-5.1,111.756-19.102,168.137-25.246,70.244-7.641,141.847-2.875,210.456,14.002,23.828,28.318,52.836,63.745,76.644,92.064Z" fill="#93a4b5"/>
    <path d="M1133.37,91.269c9.198-27.001,7.17-57.637-5.507-83.189,6.972,27.656,13.944,55.312,20.917,82.968,3.032,12.027,6.321,24.554,14.543,33.841,8.222,9.287,22.994,14.045,33.322,7.177-19.677,13.855-35.672,32.89-45.931,54.659-8.848,18.776-13.392,39.24-17.871,59.507,1.146-31.275-.603-69.207-13.91-98.096-6.758-14.672-14.022-14.266-6.756-26.403,6.619-11.055,16.506-16.704,21.194-30.463Z" fill="#f4d01c"/>
    <path d="M306.63,509.7c-9.198,27.001-7.17,57.637,5.507,83.189-6.972-27.656-13.944-55.312-20.917-82.968-3.032-12.027-6.321-24.554-14.543-33.841-8.222-9.287-22.994-14.045-33.322-7.177,19.677-13.855,35.672-32.89,45.931-54.659,8.848-18.776,13.392-39.24,17.871-59.507-1.146,31.275,.603,69.207,13.91,98.096,6.758,14.672,14.022,14.266,6.756,26.403-6.619,11.055-16.506,16.704-21.194,30.463Z" fill="#f4d01c"/>
    <path d="M1058.196,612.641c-3.246-11.541-9.617-22.81-19.997-28.81-19.059-11.016-148.776-9.912-213.134,9.059-69.576,20.509-112.67,35.306-183.01,53.013,.704-25.053-9.507-58.179-16.697-82.188-1.374-4.589-2.945-9.244-5.928-12.992-8.041-10.105-23.014-10.391-35.914-9.792-10.254,.476-21.655,1.468-28.542,9.08-8.784,9.71-5.816,24.831-2.548,37.511,17.578,68.205,34.968,149.006,14.678,216.454-12.292,40.859-35.315,77.714-49.284,118.031-12.45,35.932-17.485,73.941-22.308,111.661l156.63,8.442c-.362-12.356-.724-24.711-1.086-37.067-.367-12.516-.758-25.193-4.273-37.211-3.515-12.018-10.562-23.504-21.424-29.732,7.995,2.516,15.99,5.033,23.985,7.549,7.659,2.411,15.41,4.839,23.423,5.345,19.706,1.244,38.47-9.175,58.203-9.764,7.639,9.852,20.22,14.878,32.55,17.229,25.788,4.919,52.668,.357,77.309-8.701,24.642-9.058,47.414-22.459,70.033-35.788,3.432-2.022,7.251-4.627,7.61-8.595,.21-2.321-.863-4.545-1.914-6.625-8.794-17.398-18.107-34.532-27.902-51.387,8.342-13.706,12.828-29.786,12.232-45.831-.984-26.505-15.733-52.124-38.161-66.283l-23.239,11.401c2.508-3.121,5.016-6.242,7.524-9.364,8.173-10.171,16.858-22.443,13.715-35.106-2.917-11.751-14.766-18.591-22.632-27.794-2.305-2.697-4.39-5.967-4.136-9.505,.469-6.514,7.953-9.695,14.137-11.795,30.081-10.219,186.623-7.827,207.875-31.442,1.151-1.279,2.326-2.652,2.696-4.333,.34-1.544-.044-3.148-.472-4.67Z" fill="#fff"/>
    <g>
      <path d="M687.269,821.937c-1.099,26.071-.006,52.043,3.2,77.556l-6.511-7.49c55.558,7.322,114.397,1.244,165.51-21.799,53.878-26.333,56.526-96.104,12.732-134.121,0,0,1.052-1.665,1.052-1.665,28.494,12.567,47.148,44.279,45.787,75.796-.849,24.336-12.526,47.782-30.665,63.96-11.977,10.674-26.754,17.221-41.382,22.52-35.495,12.628-73.488,18.456-111.121,16.611-17.357-.723-34.617-3.383-51.512-7.23,0,0,.34-6.023,.34-6.023,1.363-26.549,4.94-52.79,10.618-78.37l1.953,.256h0Z"/>
      <path d="M734.719,905.63c-9.639,7.697-8.675,23.504-1.399,32.227,18.676,21.524,62.205,17.23,87.06,9.802,31.636-9.264,60.103-26.26,88.621-43.788,.523-.448,.512-.612,.267-.011-.102,.274-.143,.666-.124,.977,.019,.285,.066,.361,.038,.166-8.323-18.995-17.124-38.299-22.242-58.654,0,0,1.701-.992,1.701-.992,14.52,14.013,25.752,30.761,35.557,48.232,7.268,11.297,3.044,22.203-8.186,28.266-11.421,6.694-22.804,13.358-34.739,19.514-23.922,12.471-50.044,22.742-77.223,25.321-25.841,2.376-61.355-.757-77.096-24.304-7.745-12.058-6.426-31.111,6.69-38.405,0,0,1.075,1.65,1.075,1.65h0Z"/>
      <path d="M731.116,942.205c-8.904,.861-17.389,3.685-25.97,6.539-20.257,7.27-34.42,9.424-55.738,3.421-.009-.002-26.426-6.492-26.434-6.494,0,0,6.333-14.461,6.333-14.461,4.91,2.755,9.275,6.422,12.943,10.633,17.32,19.835,17.282,47.685,18.349,71.958,0,0,1.27,28.022,1.27,28.022l-19.456,.57-.374-28.048c-.441-17.585,.704-36.021-6.192-51.872-3.23-7.359-8.157-13.737-14.439-17.487,.008,.003,6.325-14.482,6.34-14.458,0,0,25.358,9.802,25.358,9.802,8.373,3.225,16.273,6.062,24.587,6.251,17.48,.645,35.47-7.003,53.368-6.345,0,0,.055,1.968,.055,1.968h0Z"/>
      <path d="M774.374,715.107c-24.447-4.754-49.592-4.428-73.849,.877-17.355,4.173-35.48,10.048-50.05,20.157-13.291,9.77-11.953,19.725-4.281,32.618,6.88,12.495,15.409,26.749,26.21,34.213,8.909,6.373,18.385,7.034,29.107,4.593,11.938-2.654,24.993-7.929,37.704-8.963,12.306-1.222,24.644,.023,35.815-2.935,15.138-3.852,27.129-19.352,37.174-32.125,5.837-7.384,17.677-22.13,23.52-29.504,5.686-7.171,14.492-17.409,14.678-26.211-.04-3.917-1.584-6.537-4.284-9.796-5.396-6.391-16.045-13.651-20.754-22.54-6.679-12.086,.153-25.066,11.983-30.202,9.786-4.755,20.55-6.071,31.032-7.39,37.715-4.015,75.596-5.313,112.979-9.067,18.173-1.912,36.421-3.867,53.748-8.709,4.674-1.441,10.467-3.167,13.372-6.288,.256-.288,.281-.373,.11-.057-.158,.251-.483,1.176-.52,1.876-.047,.658,.043,.881,.012,.721-2.34-9.121-7.077-18.743-15.128-23.516-7.142-2.859-15.276-3.432-23.36-4.356-12.079-1.128-24.461-1.579-36.834-1.727-37.088-.234-74.661,1.734-111.241,7.285-12.196,1.919-24.146,4.273-35.822,7.657-35.323,9.844-73.58,21.674-109.003,30.608-24.912,6.238-50.122,11.404-75.682,14.749,.146-2.105,.144-4.265,.022-6.371-2.938-26.053-15.514-49.357-23.973-73.899-3.641-12.122-8.88-15.816-22.246-16.333-30.907,.11-41.747,2.046-31.697,36.18,17.917,68.6,34.625,140.746,17.709,211.751-7.266,28.745-20.014,54.484-31.73,79.614-11.778,24.865-22.438,49.218-28.836,75.905-6.736,26.515-10.639,53.804-14.592,81.042,0,0-20.315-2.597-20.315-2.597,1.567-13.862,3.13-27.814,5.169-41.806,4.116-28.193,10.082-56.589,20.46-83.359,9.86-26.117,23.234-51.26,33.887-76.775,34.752-75.416,16.657-160.851-2.236-238.516-8.189-28.573-4.698-56.157,30.621-60.068,19.858-1.854,46.386-2.481,56.771,18.375,2.059,4.121,3.111,8.076,3.962,11.518,3.384,13.516,5.869,27.565,7.396,41.722,1.346,12.358,2.133,24.778,1.666,37.192-.026,1.76-.108,3.519-.011,5.28l-1.224-.982c11.809-4.59,23.68-8.819,35.565-12.936,11.455-4.065,24.088-8.332,35.656-12.202,23.778-8.043,47.721-15.657,71.713-23.318,21.444-6.77,51.809-17.037,73.811-20.212,37.921-6.492,75.943-9.233,114.281-9.465,12.777-.021,25.562,.255,38.547,1.284,10.556,1.161,21.71,1.541,31.871,6.606,10.406,5.769,17.948,16.171,22.252,26.546,1.991,5.535,4.32,9.97,3.964,16.327-2.646,19.7-32.013,24.923-47.598,28.14-37.708,6.742-75.999,8.58-113.781,11.447-12.485,.925-24.969,1.867-37.091,3.261-9.179,1.11-19.505,2.165-26.197,6.396,.186-.377,.386-.978,.317-1.468-.039-.534-.175-.591,.031-.199,.184,.373,.632,1.063,1.307,1.864,4.97,5.81,10.288,9.447,16.542,16.746,8.952,9.872,11.957,24.735,6.829,37.218-5.991,15.728-19.399,28.446-29.096,41.289-7.481,8.775-16.534,21.088-24.56,29.514-25.381,27.148-41.415,25.498-75.307,26.26-19.511,1.323-37.35,11.653-57.807,7.895-29.155-5.58-43.369-35.257-54.134-59.734-9.814-25.511,11.013-41.434,32.567-48.925,35.925-13.817,76.871-15.329,113.359-4.082,0,0-.483,1.909-.483,1.909h0Z"/>
    </g>
    <g>
      <path d="M473.341,353.622c.218-1.932-.688-4.565-2.383-6.059-.983-.923-1.943-1.357-2.988-1.585,0,0,.231,.069,.231,.069,1.602,.441,3.167,.927,4.81,1.285,21.936,5.098,44.984,2.415,67.413,1.484,133.505-7.549,297.934-16.952,431.102-23.286,11.119-36.699,34.495-77.805,61.7-108.993,0,0,6.926,23.75,6.926,23.75-73.503-24.183-153.483-30.084-230.442-19.951-38.925,4.938-77.708,13.021-116.728,18.322-13.19,1.698-26.419,3.797-39.774,3.82-19.288,.336-38.796-3.066-56.482,4.007-22.733,11.085-41.113,30.977-59.518,48.219-21.616,19.872-41.956,40.843-60.66,63.43,0,0-1.549,1.873-1.549,1.873l-.774,.936-.194,.234c-.01,.021,.104-.093,.15-.144,1.781-1.828,1.073-5.737-.84-7.413h0Zm-24.45,6.844c.406-5.647,3.14-12.378,7.527-16.307,0,0,.919-.849,.919-.849l1.839-1.698c7.335-6.541,14.902-13.724,22.288-20.057,14.253-12.74,30.805-26.138,45.75-38.22,17.824-14.424,35.666-30.872,55.961-42.073,9.089-5.419,20.17-8.359,30.349-8.654,13.71-.656,26.886,.742,39.741,.996,12.946,.209,25.753-1.751,38.602-3.242,65.125-8.948,129.415-25.662,195.466-28.008,61.81-3.339,124.928,3.363,186.365,14.674-.006,.015-19.802,19.252-19.809,19.266-25.573,24.104-46.312,54.093-60.203,86.601-2.755,5.823-3.826,12.233-9.222,17.105-6.377,5.526-13.694,4.728-20.833,4.751-58.911-.142-121.98,1.129-181.001,3.698-94.222,3.336-187.561,12.091-281.225,23.069-10.594,.848-21.759,.993-32.546-.348-2.6-.338-5.262-.656-7.828-1.295-4.741-1.045-10.202-5.687-12.14-9.409h0Z"/>
      <path d="M460.403,357.54c-28.077,50.701-49.256,104.702-63.026,160.07l-12.323-14.586c77.692-11.264,155.995-17.533,234.36-21.242,73.03-3.447,160.907-4.572,234.642-5.464,0,0,46.864-.433,46.864-.433,26.948-.545,53.64,.699,79.867-4.862,1.637-.328,2.567-.742,2.485-.705-.017,.005-.272,.285-.3,.378-.046,.113,.043,.029,.152-.31,.979-6.299,1.651-14.816,2.173-21.41,3.096-38.689,2.608-77.045,.332-116.183,0,0,1.942-.329,1.942-.329,12.282,43.625,16.058,89.875,13.152,135.176-.365,18.77-12.914,20.272-28.034,22.975-23.633,3.951-47.803,3.816-71.339,4.798,0,0-46.869,1.557-46.869,1.557-131.121,3.953-266.637,7.604-396.859,20.572-29.275,2.971-59.081,6.671-88.342,10.09,22.253-60.849,51.768-119.364,89.459-171.148,0,0,1.663,1.054,1.663,1.054h0Z"/>
      <path d="M1049.527,232.905l79.151,78.424,6.122,6.066c-31.708,42.609-67.375,82.894-103.195,122.046-8.157,8.855-17.229,18.538-25.548,27.327-1.173,1.125-2.963,3.596-4.743,4.137-2.255,.801-5.149,1.053-10.225-.569l-1.494-1.283c-2.371-4.773-2.56-7.672-2.109-10.022,.255-1.15,.786-2.062,1.453-2.857l1.919-2.457c22.927-29.502,46.488-58.647,70.794-87.004,15.824-18.235,33.325-38.289,50.145-55.47,0,0-.073,14.344-.073,14.344l-63.706-91.415,1.507-1.268h0Z"/>
    </g>
    <path d="M1130.504,90.293c9.399-26.341,7.798-56.223-3.515-81.757-.061-.038,1.837-.679,1.829-.697,8.227,25.379,15.445,51.013,22.505,76.686,3.392,12.221,6.108,25.305,13.699,35.326,7.212,9.259,19.485,13.825,31.076,11.394,0,0,1.113,1.625,1.113,1.625-26.688,20.398-44.121,49.798-51.36,82.147-2.609,10.687-4.551,21.606-6.507,32.65l-13.155-1.68c2.032-20.48,2.301-41.127-.367-61.524-1.968-13.318-5.136-26.983-11.16-38.993-2.201-4.927-6.86-8.64-7.839-14.496-.25-2.341,.385-4.45,1.06-6.281,2.981-7.021,7.883-12.516,12.31-17.771,4.428-5.25,8.252-10.472,10.311-16.629h0Zm5.732,1.953c-2.24,7.001-6.775,13.258-11.713,18.474-4.572,4.931-9.294,9.885-12.095,15.865-.591,1.386-.946,2.722-.806,3.863,1.047,4.492,5.325,8.082,7.545,12.494,3.648,6.363,6.251,12.898,8.515,19.673,8.985,27.019,11.005,55.614,11.815,83.86,0,0-13.155-1.68-13.155-1.68,2.883-10.85,5.805-21.841,9.447-32.699,10.139-32.653,31.454-62.614,60.289-80.835,0,0,1.112,1.625,1.112,1.625-10.968,12.646-31.187,4.306-39.323-7.574-8.652-11.478-11.209-25.49-14.418-38.801-5.955-25.952-11.752-51.944-16.54-78.19l-1.518-8.321c.008,.019,3.357,7.643,3.364,7.66,14.036,25.54,16.484,56.92,7.482,84.585h0Z"/>
    <path d="M311.106,511.225c-8.49,25.771-6.454,55.034,6.074,79.141,.058,.037-10.517,3.884-10.51,3.901-3.497-14.867-18.147-84.023-21.874-97.228-1.841-6.205-4.267-12.198-7.949-17.349-6.844-10.053-21.675-16.71-32.921-9.981-.041,.085-1.113-1.623-1.137-1.611,27.584-19.197,46.793-48.653,55.445-80.961,3.772-13.023,6.609-26.543,9.548-39.821,1.448,29.791,2.973,60.338,12.142,88.706,3.18,9.752,6.806,18.311,13.069,26.742,11.732,17.163-18.193,33.047-21.888,48.459h0Zm-8.952-3.05c2.318-7.179,7.021-13.72,11.908-19.167,4.304-4.866,8.756-9.906,11.221-15.576,.452-1.202,.623-2.13,.544-2.63-1.252-3.711-5.067-7.362-7.142-11.568-3.45-6.226-6.054-13.565-8.038-20.365-7.661-27.314-7.709-56.249-4.473-84.165,0,0,1.946,.248,1.946,.248-9.498,47.232-23.288,85.698-64.197,114.758,.025-.017-1.196-1.645-1.084-1.641,5.803-4.109,13.54-4.565,20.221-2.608,21.444,5.985,27.58,30.379,32.767,49.183,0,0,21.779,76.869,21.779,76.869-.009-.019-10.54,3.935-10.527,3.865-12.814-26.992-14.826-58.973-4.924-87.201h0Z"/>
  </g>
  <g>
    <path d="M118.474,1113.316h42.855c7.419,0,13.57,1.354,18.449,4.068,4.878,2.714,8.152,6.627,9.822,11.741,1.668,5.117,1.57,11.156-.295,18.118-1.884,7.028-5.029,13.01-9.441,17.945-4.412,4.935-9.828,8.679-16.248,11.23-6.421,2.55-13.471,3.825-21.151,3.825h-25.988l5.517-20.595h20.79c3.366,0,6.327-.434,8.88-1.298,2.551-.867,4.688-2.217,6.404-4.045,1.717-1.832,2.96-4.184,3.731-7.062,.771-2.875,.801-5.279,.092-7.208s-2.113-3.334-4.216-4.216c-2.099-.882-4.817-1.324-8.15-1.324h-10.298l-21.231,79.236h-26.428l26.906-100.417Zm56.399,100.417h-28.781l-12.131-46.042h28.144l12.769,46.042Z" fill="#ff0029"/>
    <path d="M191.134,1210.446c-4.97-3.103-8.218-7.566-9.749-13.386-1.529-5.817-1.219-12.747,.935-20.788,2.059-7.681,5.439-14.472,10.142-20.375,4.705-5.899,10.351-10.449,16.946-13.653,6.595-3.203,13.702-4.807,21.317-4.807,7.453,0,13.57,1.538,18.353,4.609,4.784,3.073,7.934,7.511,9.452,13.313,1.516,5.802,1.209,12.692-.929,20.666l-1.655,6.179h-66.782l3.915-14.613h42.56c.572-2.255,.547-4.265-.075-6.029-.624-1.766-1.734-3.139-3.336-4.12-1.6-.98-3.56-1.471-5.881-1.471s-4.579,.5-6.774,1.495c-2.198,.997-4.105,2.388-5.723,4.169-1.623,1.781-2.753,3.799-3.391,6.054l-4.164,15.546c-.7,2.614-.788,4.925-.265,6.936,.523,2.01,1.649,3.579,3.372,4.707,1.726,1.128,3.942,1.691,6.657,1.691,1.928,0,3.765-.269,5.514-.807,1.743-.54,3.319-1.316,4.718-2.33,1.399-1.012,2.565-2.223,3.496-3.628h24.025c-2.225,5.132-5.424,9.604-9.597,13.412-4.177,3.808-9.138,6.74-14.887,8.799-5.749,2.059-12.008,3.09-18.774,3.09-7.974,0-14.449-1.553-19.419-4.66Z" fill="#ff0029"/>
    <path d="M256.167,1199.172l44.288-40.308,.105-.391h-32.312l5.373-20.053h63.348l-4.307,16.081-41.085,38.786-.107,.391h31.869l-5.373,20.055h-65.702l3.902-14.56Z" fill="#ff0029"/>
    <path d="M339.848,1210.249c-4.987-3.233-8.237-7.778-9.76-13.627-1.521-5.854-1.249-12.636,.818-20.35,2.067-7.715,5.431-14.497,10.086-20.349,4.658-5.852,10.343-10.394,17.066-13.631,6.714-3.235,14.061-4.854,22.039-4.854s14.445,1.619,19.417,4.854c4.965,3.238,8.209,7.78,9.73,13.631,1.523,5.852,1.249,12.634-.818,20.349-2.067,7.714-5.429,14.496-10.086,20.35-4.656,5.849-10.334,10.394-17.036,13.627-6.704,3.238-14.042,4.856-22.02,4.856s-14.454-1.619-19.436-4.856Zm31.763-16.989c2.189-1.585,4.152-3.848,5.89-6.791,1.734-2.941,3.137-6.405,4.207-10.394,1.059-3.956,1.51-7.405,1.352-10.346-.162-2.943-.912-5.204-2.251-6.791-1.343-1.585-3.238-2.379-5.689-2.379-2.518,0-4.897,.777-7.144,2.33-2.249,1.553-4.25,3.808-6.005,6.766-1.76,2.96-3.171,6.432-4.239,10.421-1.078,4.021-1.527,7.494-1.343,10.42,.177,2.928,.97,5.181,2.379,6.766,1.405,1.587,3.364,2.379,5.881,2.379,2.452,0,4.771-.792,6.962-2.379Z" fill="#ff0029"/>
    <path d="M428.748,1213.732h-26.231l20.179-75.313h24.907l-3.797,14.17h.786c1.911-3.105,4.288-5.811,7.129-8.115,2.838-2.304,5.971-4.053,9.397-5.245,3.425-1.196,6.966-1.792,10.631-1.792,5.228,0,9.508,1.2,12.835,3.605,3.327,2.403,5.497,5.745,6.507,10.027,1.01,4.282,.784,9.153-.679,14.612l-12.875,48.052h-26.231l11.417-42.608c.692-2.584,.844-4.799,.455-6.644-.389-1.847-1.281-3.263-2.687-4.241-1.405-.982-3.267-1.471-5.589-1.471s-4.461,.489-6.424,1.471c-1.963,.978-3.673,2.42-5.128,4.312-1.456,1.899-2.526,4.12-3.21,6.669l-11.391,42.512Z" fill="#ff0029"/>
    <path d="M475.966,1241.583l5.241-19.564c.735,.066,1.459,.113,2.17,.147,.709,.032,1.424,.049,2.144,.049,1.322,.066,3.176,.098,5.561,.098,1.405,0,2.601-.09,3.579-.269,.98-.179,1.913-.557,2.804-1.13,.888-.57,1.73-1.429,2.529-2.573l.967-1.422-5.542-78.499h27.408l-1.495,52.611h.784l26.945-52.611h27.556l-49.629,81.833c-4.12,6.832-9.241,12.16-15.366,15.985-6.123,3.825-13.73,5.736-22.815,5.736-5.561,0-9.839-.128-12.841-.391Z" fill="#ff0029"/>
    <path d="M583.508,1213.732h-26.231l20.179-75.313h24.907l-3.795,14.17h.786c1.909-3.105,4.284-5.811,7.124-8.115,2.84-2.304,5.973-4.053,9.399-5.245,3.423-1.196,6.968-1.792,10.629-1.792,5.228,0,9.51,1.2,12.837,3.605,3.327,2.403,5.495,5.745,6.507,10.027,1.01,4.282,.784,9.153-.679,14.612l-12.875,48.052h-26.231l11.417-42.608c.692-2.584,.844-4.799,.457-6.644-.391-1.847-1.283-3.263-2.689-4.241-1.405-.982-3.267-1.471-5.589-1.471s-4.461,.489-6.424,1.471c-1.963,.978-3.673,2.42-5.13,4.312-1.456,1.899-2.524,4.12-3.208,6.669l-11.391,42.512Z" fill="#ff0029"/>
    <path d="M694.546,1157.123c-1.591-1.388-3.808-2.084-6.652-2.084-1.666,0-3.227,.216-4.681,.639-1.454,.425-2.687,1.029-3.699,1.815-1.01,.784-1.644,1.717-1.899,2.795-.419,1.307-.164,2.435,.758,3.383,.923,.946,2.704,1.683,5.343,2.204l14.317,2.746c7.263,1.439,12.331,3.818,15.199,7.135,2.87,3.318,3.584,7.74,2.136,13.263-1.435,5.232-4.216,9.815-8.344,13.755-4.128,3.938-9.2,6.979-15.216,9.119s-12.459,3.212-19.323,3.212c-7.453,0-13.61-1.046-18.477-3.139-4.865-2.091-8.316-5.042-10.351-8.85s-2.608-8.295-1.713-13.459h26.035c-.273,2.486,.427,4.38,2.104,5.689,1.676,1.307,4.117,1.958,7.321,1.958,1.764,0,3.389-.211,4.878-.636,1.486-.423,2.719-1.029,3.697-1.813s1.629-1.717,1.95-2.795c.372-1.503-.028-2.704-1.192-3.605-1.164-.899-3.188-1.64-6.069-2.232l-12.606-2.351c-7.227-1.341-12.25-3.874-15.077-7.601-2.828-3.728-3.413-8.548-1.764-14.465,1.335-5.1,3.874-9.488,7.624-13.166,3.746-3.675,8.457-6.462,14.129-8.359,5.67-1.894,12.04-2.845,19.101-2.845s12.927,1.006,17.602,3.015c4.675,2.01,7.938,4.903,9.785,8.679,1.849,3.776,2.204,8.278,1.064,13.508h-24.171c.382-2.285-.22-4.126-1.807-5.516Z" fill="#ff0029"/>
    <path d="M762.734,1113.316h42.855c7.355,0,13.441,1.463,18.264,4.387,4.822,2.926,8.058,7.054,9.702,12.382,1.642,5.328,1.527,11.507-.357,18.535-1.892,7.058-5.104,13.219-9.636,18.481-4.532,5.264-10.054,9.319-16.57,12.161-6.516,2.845-13.567,4.267-21.149,4.267h-25.789l5.518-20.595h20.591c3.267,0,6.244-.587,8.931-1.766,2.687-1.175,4.929-2.834,6.727-4.976,1.8-2.14,3.09-4.666,3.87-7.573,.779-2.911,.841-5.437,.19-7.577-.651-2.142-2.014-3.767-4.088-4.88-2.074-1.108-4.743-1.666-8.011-1.666h-10.298l-21.23,79.236h-26.428l26.906-100.417Z" fill="#ff0029"/>
    <path d="M839.517,1138.419h26.231l-20.179,75.313h-26.231l20.179-75.313Zm9.181-9.734c-1.702-1.093-2.892-2.576-3.569-4.438-.677-1.862-.728-3.874-.149-6.029,.587-2.191,1.719-4.22,3.396-6.082,1.676-1.862,3.654-3.334,5.939-4.412,2.281-1.078,4.598-1.617,6.951-1.617s4.401,.538,6.14,1.617c1.736,1.078,2.926,2.55,3.573,4.412,.643,1.862,.673,3.891,.085,6.082-.579,2.155-1.689,4.167-3.332,6.029-1.642,1.862-3.624,3.344-5.943,4.438-2.321,1.096-4.66,1.644-7.013,1.644s-4.38-.549-6.078-1.644Z" fill="#ff0029"/>
    <path d="M857.033,1199.172l44.288-40.308,.105-.391h-32.312l5.373-20.053h63.348l-4.307,16.081-41.085,38.786-.107,.391h31.869l-5.373,20.055h-65.702l3.902-14.56Z" fill="#ff0029"/>
    <path d="M971.204,1183.187c-3.18,.162-5.715,.342-7.596,.538-2.392,.261-4.478,1.096-6.259,2.499-1.781,1.407-2.954,3.156-3.513,5.249-.387,1.437-.365,2.672,.062,3.701,.425,1.029,1.2,1.798,2.324,2.304s2.486,.76,4.088,.76c2.221,0,4.416-.466,6.575-1.397,2.161-.933,4.041-2.24,5.636-3.923,1.595-1.683,2.695-3.654,3.299-5.909l6.452-24.81c.367-1.373,.329-2.565-.12-3.581-.446-1.012-1.241-1.77-2.379-2.279-1.14-.506-2.561-.758-4.258-.758-1.832,0-3.487,.261-4.965,.784-1.482,.523-2.8,1.316-3.949,2.377-1.151,1.064-2.031,2.362-2.635,3.897h-24.222c1.61-4.673,4.263-8.931,7.955-12.771,3.695-3.842,8.346-6.874,13.96-9.098,5.612-2.221,11.981-3.334,19.109-3.334,6.83,0,12.57,1.055,17.221,3.163,4.647,2.108,7.88,5.051,9.696,8.826,1.815,3.776,2.084,8.049,.807,12.82l-13.796,51.486h-24.566l2.838-10.59h-.587c-2.208,2.746-4.594,4.976-7.163,6.691-2.569,1.717-5.333,3.001-8.288,3.85-2.96,.85-6.138,1.275-9.535,1.275-4.871,0-8.927-.809-12.171-2.426-3.244-1.619-5.463-4.079-6.652-7.381-1.192-3.302-1.134-7.387,.169-12.258,2.095-7.812,6.185-13.623,12.271-17.432,6.086-3.808,13.401-5.973,21.941-6.496,1.89-.098,4.397-.211,7.522-.344,3.124-.13,5.845-.246,8.158-.342,1.055-.034,2.093-.066,3.116-.1l-3.842,14.711c-1.286,.034-3.519,.132-6.701,.297Z" fill="#ff0029"/>
    <path d="M1016.936,1210.446c-4.97-3.103-8.218-7.566-9.749-13.386-1.529-5.817-1.219-12.747,.935-20.788,2.059-7.681,5.439-14.472,10.142-20.375,4.703-5.899,10.353-10.449,16.946-13.653,6.595-3.203,13.7-4.807,21.32-4.807,7.453,0,13.57,1.538,18.351,4.609,4.782,3.073,7.934,7.511,9.452,13.313,1.516,5.802,1.207,12.692-.929,20.666l-1.655,6.179h-66.782l3.915-14.613h42.56c.572-2.255,.547-4.265-.077-6.029-.621-1.766-1.73-3.139-3.332-4.12s-3.562-1.471-5.884-1.471-4.579,.5-6.774,1.495c-2.198,.997-4.105,2.388-5.726,4.169-1.621,1.781-2.751,3.799-3.387,6.054l-4.167,15.546c-.698,2.614-.788,4.925-.265,6.936,.523,2.01,1.649,3.579,3.372,4.707,1.726,1.128,3.942,1.691,6.657,1.691,1.928,0,3.765-.269,5.512-.807,1.745-.54,3.321-1.316,4.72-2.33,1.399-1.012,2.565-2.223,3.496-3.628h24.025c-2.225,5.132-5.424,9.604-9.599,13.412-4.175,3.808-9.136,6.74-14.885,8.799s-12.006,3.09-18.776,3.09c-7.974,0-14.445-1.553-19.417-4.66Z" fill="#ff0029"/>
    <path d="M1103.66,1213.732h-26.231l26.906-100.417h26.231l-26.906,100.417Z" fill="#ff0029"/>
    <path d="M1130.763,1138.419h26.231l-20.179,75.313h-26.231l20.179-75.313Zm9.179-9.734c-1.7-1.093-2.887-2.576-3.566-4.438-.677-1.862-.728-3.874-.149-6.029,.587-2.191,1.719-4.22,3.396-6.082,1.674-1.862,3.654-3.334,5.937-4.412s4.6-1.617,6.953-1.617,4.401,.538,6.138,1.617c1.738,1.078,2.93,2.55,3.575,4.412,.643,1.862,.673,3.891,.085,6.082-.579,2.155-1.689,4.167-3.332,6.029-1.644,1.862-3.624,3.344-5.945,4.438-2.319,1.096-4.658,1.644-7.011,1.644s-4.38-.549-6.08-1.644Z" fill="#ff0029"/>
    <path d="M1163.918,1138.419h24.907l-3.797,14.17h.786c2.832-4.707,6.501-8.41,11.018-11.107,4.515-2.695,9.352-4.045,14.52-4.045,3.498,0,6.548,.63,9.153,1.888,2.605,1.258,4.547,3.033,5.83,5.32,1.281,2.289,1.798,4.937,1.55,7.944h.782c1.691-3.007,3.94-5.67,6.751-7.994,2.813-2.321,5.937-4.092,9.371-5.32,3.432-1.226,6.998-1.839,10.689-1.839,4.741,0,8.679,1.038,11.818,3.114,3.135,2.076,5.192,5.051,6.163,8.923,.974,3.874,.775,8.361-.589,13.461l-13.612,50.798h-26.182l11.863-44.278c.912-3.398,.758-6.063-.457-7.991s-3.278-2.892-6.187-2.892c-1.96,0-3.771,.442-5.429,1.322-1.659,.884-3.086,2.153-4.28,3.801-1.194,1.651-2.089,3.588-2.684,5.811l-11.85,44.227h-25.104l11.889-44.374c.587-2.191,.707-4.102,.361-5.736-.348-1.634-1.123-2.885-2.33-3.75-1.204-.867-2.757-1.301-4.651-1.301-1.931,0-3.724,.451-5.388,1.348-1.664,.899-3.103,2.183-4.316,3.848-1.215,1.668-2.121,3.613-2.716,5.837l-11.825,44.129h-26.231l20.179-75.313Z" fill="#ff0029"/>
    <path d="M1310.353,1183.187c-3.18,.162-5.715,.342-7.596,.538-2.392,.261-4.478,1.096-6.259,2.499-1.781,1.407-2.954,3.156-3.513,5.249-.387,1.437-.365,2.672,.062,3.701,.425,1.029,1.2,1.798,2.324,2.304s2.486,.76,4.088,.76c2.221,0,4.416-.466,6.575-1.397,2.161-.933,4.041-2.24,5.636-3.923,1.595-1.683,2.695-3.654,3.299-5.909l6.452-24.81c.367-1.373,.329-2.565-.12-3.581-.446-1.012-1.241-1.77-2.379-2.279-1.14-.506-2.561-.758-4.258-.758-1.832,0-3.487,.261-4.965,.784-1.482,.523-2.8,1.316-3.949,2.377-1.151,1.064-2.031,2.362-2.635,3.897h-24.222c1.61-4.673,4.263-8.931,7.955-12.771,3.695-3.842,8.346-6.874,13.96-9.098,5.612-2.221,11.981-3.334,19.109-3.334,6.83,0,12.57,1.055,17.221,3.163,4.647,2.108,7.88,5.051,9.696,8.826,1.815,3.776,2.084,8.049,.807,12.82l-13.796,51.486h-24.566l2.838-10.59h-.587c-2.208,2.746-4.594,4.976-7.163,6.691-2.569,1.717-5.333,3.001-8.288,3.85-2.96,.85-6.138,1.275-9.535,1.275-4.871,0-8.927-.809-12.171-2.426-3.244-1.619-5.463-4.079-6.652-7.381-1.192-3.302-1.134-7.387,.169-12.258,2.095-7.812,6.185-13.623,12.271-17.432,6.086-3.808,13.401-5.973,21.941-6.496,1.89-.098,4.397-.211,7.522-.344,3.124-.13,5.845-.246,8.158-.342,1.055-.034,2.093-.066,3.116-.1l-3.842,14.711c-1.286,.034-3.519,.132-6.701,.297Z" fill="#ff0029"/>
  </g>
  <g>
    <path d="M30.406,1280.907h42.854c7.355,0,13.444,1.463,18.266,4.389,4.822,2.926,8.055,7.052,9.702,12.38,1.642,5.328,1.525,11.507-.359,18.535-1.892,7.06-5.104,13.221-9.636,18.484-4.532,5.264-10.054,9.318-16.57,12.16-6.515,2.845-13.565,4.267-21.147,4.267H27.725l5.518-20.594h20.594c3.267,0,6.244-.589,8.93-1.766,2.686-1.177,4.928-2.834,6.728-4.976,1.799-2.142,3.088-4.666,3.868-7.575,.779-2.911,.844-5.435,.192-7.577-.653-2.14-2.016-3.765-4.088-4.878-2.074-1.111-4.743-1.668-8.011-1.668h-10.298l-21.231,79.237H3.5l26.906-100.418Z" fill="#ff0029"/>
    <path d="M143.274,1341.706l-2.522,9.416h-11.62c-2.125,0-4.152,.179-6.078,.54-1.928,.359-3.643,1.061-5.149,2.108s-2.509,2.435-3.005,4.167c-.265,1.113-.103,2.183,.489,3.212,.589,1.029,1.636,1.879,3.139,2.55,1.506,.671,3.483,1.004,5.935,1.004,4.053,0,7.184-.434,9.394-1.298,2.21-.865,3.509-2.084,3.895-3.652h24.418c-1.339,4.999-4.096,9.217-8.269,12.649-4.171,3.432-9.104,6.007-14.793,7.722-5.689,1.717-11.509,2.576-17.458,2.576-7.028,0-13.166-.882-18.411-2.648-5.249-1.766-9.1-4.316-11.558-7.65-2.456-3.334-3.105-7.225-1.95-11.669,1.113-4.021,3.261-7.462,6.443-10.321,3.186-2.86,7.248-5.027,12.186-6.496,4.937-1.471,10.593-2.208,16.967-2.208h17.945Zm-33.121,.369c-3.996-1.619-6.883-3.799-8.666-6.546-1.779-2.749-2.245-5.77-1.39-9.072,1.247-4.542,3.883-8.433,7.906-11.669,4.021-3.238,8.995-5.672,14.926-7.306,5.931-1.636,12.442-2.452,19.534-2.452,6.08,0,11.432,.916,16.06,2.746,4.621,1.83,7.949,4.478,9.982,7.942,2.029,3.466,2.417,7.534,1.164,12.209h-24.76c.489-1.83-.058-3.105-1.647-3.825-1.591-.718-4.019-1.078-7.289-1.078-2.255,0-4.22,.286-5.892,.856-1.674,.574-3.003,1.326-3.985,2.257-.987,.931-1.632,1.905-1.935,2.917-.275,1.145-.07,2.151,.613,3.015,.681,.867,1.777,1.538,3.287,2.01,1.508,.474,3.323,.711,5.448,.711h11.62l-2.601,9.708h-17.945c-5.623,0-10.432-.809-14.428-2.426Z" fill="#ff0029"/>
    <path d="M253.517,1280.907l-3.545,13.239-34.93,31.724c-1.728,1.57-3.026,2.761-3.9,3.579-2.836,2.778-5.279,5.401-7.329,7.87-2.052,2.469-3.75,4.814-5.098,7.035-1.348,2.225-2.283,4.316-2.808,6.277-.754,2.81-.346,5.215,1.23,7.21,1.574,1.993,4.254,3.545,8.043,4.658l3.05,.88c4.421,1.307,7.994,2.919,10.719,4.831,2.723,1.913,4.568,4.111,5.538,6.595,.97,2.484,1.061,5.198,.273,8.139-1.183,4.414-3.947,8.737-8.282,12.969-4.34,4.233-10.086,8.246-17.249,12.038l-10.074-8.878c2.605-1.928,4.649-3.791,6.129-5.587,1.478-1.8,2.477-3.483,2.994-5.051,.34-1.014,.393-1.922,.167-2.723s-.735-1.495-1.525-2.082c-.792-.589-1.832-1.029-3.127-1.326l-4.137-1.029c-5.371-1.305-9.689-3.152-12.955-5.54-3.27-2.385-5.456-5.262-6.563-8.628-1.108-3.368-1.089-7.193,.058-11.475,1.454-5.424,3.334-10.125,5.64-14.097s5.019-7.601,8.141-10.883c3.118-3.287,7.769-7.803,13.954-13.559l1.446-1.373,37.52-34.812h16.619Zm-12.062,0l-5.674,21.181h-56.533l5.674-21.181h56.533Z" fill="#ff0029"/>
    <path d="M248.298,1377.842c-4.989-3.233-8.239-7.778-9.76-13.629s-1.249-12.634,.818-20.35c2.065-7.712,5.429-14.494,10.086-20.346s10.343-10.396,17.063-13.631c6.716-3.235,14.063-4.854,22.039-4.854s14.447,1.619,19.417,4.854c4.967,3.235,8.211,7.78,9.732,13.631,1.521,5.852,1.247,12.634-.818,20.346-2.067,7.716-5.429,14.499-10.089,20.35-4.656,5.852-10.334,10.396-17.033,13.629-6.706,3.238-14.044,4.856-22.02,4.856s-14.456-1.619-19.436-4.856Zm31.763-16.989c2.189-1.585,4.152-3.85,5.89-6.791,1.734-2.941,3.137-6.405,4.205-10.394,1.059-3.955,1.51-7.404,1.352-10.345-.162-2.943-.912-5.204-2.251-6.791-1.341-1.585-3.235-2.379-5.687-2.379-2.518,0-4.899,.777-7.146,2.33s-4.248,3.808-6.005,6.766c-1.758,2.96-3.169,6.432-4.239,10.42-1.076,4.019-1.525,7.494-1.343,10.42,.179,2.926,.972,5.181,2.379,6.766,1.405,1.587,3.366,2.379,5.881,2.379,2.452,0,4.773-.792,6.964-2.379Z" fill="#ff0029"/>
    <path d="M324.38,1306.013h26.821l2.983,50.157h.786c4.414-5.13,8.128-10.059,11.144-14.783,3.013-4.724,5.698-9.822,8.047-15.297,2.349-5.476,4.829-12.166,7.438-20.077h25.251c-4.113,13.76-10.435,27.137-18.966,40.132-8.532,12.991-18.71,24.717-30.535,35.18h-24.564l-8.406-75.312Z" fill="#ff0029"/>
    <path d="M405.813,1377.891c-4.124-3.334-6.834-7.974-8.134-13.924-1.298-5.948-.931-12.715,1.1-20.299,2.014-7.517,5.29-14.219,9.826-20.102,4.532-5.884,9.777-10.445,15.727-13.681,5.95-3.235,11.966-4.854,18.046-4.854,3.759,0,7.135,.636,10.127,1.911s5.407,3.114,7.248,5.516,2.956,5.256,3.346,8.557h7.257l1.143,22.456-1.269,37.853h-19.122l1.856-37.853c.419-5.591-.182-10.027-1.802-13.311-1.621-3.287-4.555-4.929-8.805-4.929-2.877,0-5.516,.769-7.923,2.304-2.405,1.538-4.485,3.663-6.244,6.375-1.755,2.714-3.112,5.852-4.066,9.414-.972,3.628-1.301,6.874-.989,9.734s1.219,5.083,2.723,6.667,3.515,2.377,6.033,2.377c2.614,0,5.26-.856,7.947-2.571,2.68-1.717,5.145-3.957,7.389-6.719,2.242-2.763,4.122-5.745,5.634-8.95l17.841-37.849h18.729l-18.035,37.849-12.888,21.379h-7.257c-2.097,3.434-4.621,6.456-7.579,9.07-2.956,2.616-6.309,4.7-10.059,6.253-3.75,1.553-7.801,2.33-12.145,2.33-6.313,0-11.526-1.67-15.652-5.004Z" fill="#ff0029"/>
    <path d="M490.517,1306.013h26.821l2.983,50.157h.786c4.414-5.13,8.128-10.059,11.144-14.783,3.013-4.724,5.698-9.822,8.047-15.297,2.349-5.476,4.829-12.166,7.438-20.077h25.251c-4.113,13.76-10.435,27.137-18.966,40.132-8.532,12.991-18.71,24.717-30.535,35.18h-24.564l-8.406-75.312Z" fill="#ff0029"/>
    <path d="M604.474,1306.013l-9.711,36.232c-1.365,5.1-1.38,9.179-.041,12.233,1.337,3.058,3.782,5.247,7.336,6.571,3.549,1.324,8.152,1.986,13.809,1.986,6.928,0,12.658-.884,17.183-2.648,4.527-1.764,8.115-4.363,10.768-7.797,2.652-3.432,4.7-7.844,6.146-13.236,.884-3.304,1.548-6.907,1.99-10.813,.44-3.906,.662-7.812,.662-11.718s-.226-7.511-.681-10.81h21.623c1.138,2.58,1.99,5.629,2.552,9.142,.562,3.515,.711,7.372,.455,11.571-.261,4.201-.955,8.41-2.084,12.628-2.183,8.137-5.785,15.428-10.813,21.868-5.027,6.439-11.9,11.628-20.621,15.566-8.722,3.938-19.276,5.909-31.664,5.909-10.657,0-19.485-1.424-26.488-4.267-7-2.845-11.838-7.297-14.511-13.36-2.674-6.065-2.749-13.804-.226-23.216l9.604-35.842h24.713Zm39.126,0l-28.798,107.476h-24.564l28.798-107.476h24.564Z" fill="#ff0029"/>
    <path d="M723.675,1341.706l-2.522,9.416h-11.62c-2.125,0-4.149,.179-6.078,.54-1.928,.359-3.643,1.061-5.149,2.108-1.508,1.046-2.507,2.435-3.005,4.167-.267,1.113-.103,2.183,.489,3.212,.589,1.029,1.636,1.879,3.139,2.55,1.506,.671,3.483,1.004,5.935,1.004,4.053,0,7.182-.434,9.394-1.298,2.208-.865,3.507-2.084,3.895-3.652h24.418c-1.339,4.999-4.096,9.217-8.269,12.649-4.173,3.432-9.102,6.007-14.793,7.722-5.689,1.717-11.509,2.576-17.458,2.576-7.028,0-13.166-.882-18.413-2.648-5.247-1.766-9.098-4.316-11.556-7.65-2.458-3.334-3.107-7.225-1.95-11.669,1.113-4.021,3.259-7.462,6.443-10.321,3.186-2.86,7.248-5.027,12.188-6.496,4.935-1.471,10.59-2.208,16.965-2.208h17.945Zm-33.121,.369c-3.996-1.619-6.883-3.799-8.666-6.546-1.779-2.749-2.245-5.77-1.392-9.072,1.251-4.542,3.887-8.433,7.908-11.669,4.021-3.238,8.995-5.672,14.926-7.306,5.928-1.636,12.442-2.452,19.534-2.452,6.08,0,11.432,.916,16.058,2.746,4.626,1.83,7.953,4.478,9.984,7.942,2.029,3.466,2.415,7.534,1.164,12.209h-24.76c.491-1.83-.06-3.105-1.647-3.825-1.591-.718-4.019-1.078-7.289-1.078-2.255,0-4.22,.286-5.89,.856-1.674,.574-3.003,1.326-3.989,2.257-.985,.931-1.632,1.905-1.935,2.917-.273,1.145-.068,2.151,.615,3.015,.681,.867,1.777,1.538,3.287,2.01,1.506,.474,3.323,.711,5.448,.711h11.62l-2.601,9.708h-17.945c-5.623,0-10.432-.809-14.428-2.426Z" fill="#ff0029"/>
    <path d="M855.81,1381.325h-26.088l21.283-79.431h-34.81l-21.283,79.431h-26.084l26.904-100.418h86.983l-26.904,100.418Z" fill="#ff0029"/>
    <path d="M914.535,1306.013l-13.441,48.882c-.466,1.864-.607,3.295-.414,4.29,.19,.999,.756,1.726,1.694,2.183,.942,.459,2.375,.688,4.303,.688,1.341,0,2.364-.009,3.071-.026,.707-.015,1.715-.023,3.022-.023l-4.769,17.798c-2.334,.784-4.754,1.365-7.257,1.741-2.503,.376-4.931,.564-7.285,.564-5.23,0-9.431-.826-12.6-2.475-3.169-1.651-5.264-4.201-6.285-7.65-1.023-3.449-.835-7.838,.56-13.166l14.15-52.805h25.251Z" fill="#ff0029"/>
    <path d="M1001.043,1280.907l-3.545,13.239-34.93,31.724c-1.728,1.57-3.026,2.761-3.9,3.579-2.836,2.778-5.279,5.401-7.329,7.87-2.052,2.469-3.75,4.814-5.098,7.035-1.348,2.225-2.283,4.316-2.808,6.277-.754,2.81-.346,5.215,1.23,7.21,1.574,1.993,4.254,3.545,8.043,4.658l3.05,.88c4.421,1.307,7.994,2.919,10.719,4.831,2.723,1.913,4.568,4.111,5.538,6.595s1.061,5.198,.273,8.139c-1.183,4.414-3.947,8.737-8.282,12.969-4.34,4.233-10.086,8.246-17.249,12.038l-10.074-8.878c2.605-1.928,4.649-3.791,6.129-5.587,1.478-1.8,2.477-3.483,2.994-5.051,.34-1.014,.393-1.922,.167-2.723s-.735-1.495-1.525-2.082c-.792-.589-1.832-1.029-3.127-1.326l-4.137-1.029c-5.371-1.305-9.689-3.152-12.955-5.54-3.27-2.385-5.456-5.262-6.563-8.628-1.108-3.368-1.089-7.193,.058-11.475,1.454-5.424,3.334-10.125,5.64-14.097,2.306-3.972,5.019-7.601,8.141-10.883,3.118-3.287,7.769-7.803,13.954-13.559l1.446-1.373,37.52-34.812h16.619Zm-12.062,0l-5.674,21.181h-56.533l5.674-21.181h56.533Z" fill="#ff0029"/>
    <path d="M987.359,1377.891c-4.126-3.334-6.834-7.974-8.134-13.924-1.298-5.948-.933-12.715,1.1-20.299,2.014-7.517,5.29-14.219,9.824-20.102,4.536-5.884,9.779-10.445,15.729-13.681,5.95-3.235,11.966-4.854,18.046-4.854,3.759,0,7.135,.636,10.127,1.911s5.409,3.114,7.248,5.516c1.843,2.403,2.958,5.256,3.346,8.557h7.257l1.143,22.456-1.271,37.853h-19.122l1.858-37.853c.419-5.591-.182-10.027-1.802-13.311-1.621-3.287-4.555-4.929-8.805-4.929-2.877,0-5.516,.769-7.923,2.304-2.407,1.538-4.485,3.663-6.242,6.375-1.758,2.714-3.114,5.852-4.068,9.414-.972,3.628-1.301,6.874-.989,9.734s1.219,5.083,2.723,6.667c1.506,1.585,3.515,2.377,6.033,2.377,2.614,0,5.262-.856,7.947-2.571,2.68-1.717,5.145-3.957,7.389-6.719,2.245-2.763,4.12-5.745,5.634-8.95l17.841-37.849h18.729l-18.035,37.849-12.888,21.379h-7.257c-2.095,3.434-4.624,6.456-7.579,9.07-2.956,2.616-6.309,4.7-10.059,6.253-3.75,1.553-7.799,2.33-12.147,2.33-6.309,0-11.524-1.67-15.65-5.004Z" fill="#ff0029"/>
    <path d="M1112.558,1341.706l-2.522,9.416h-11.62c-2.125,0-4.149,.179-6.078,.54-1.928,.359-3.643,1.061-5.149,2.108-1.508,1.046-2.507,2.435-3.005,4.167-.267,1.113-.103,2.183,.489,3.212,.589,1.029,1.636,1.879,3.139,2.55,1.506,.671,3.483,1.004,5.935,1.004,4.053,0,7.182-.434,9.394-1.298,2.208-.865,3.507-2.084,3.895-3.652h24.418c-1.339,4.999-4.096,9.217-8.269,12.649-4.173,3.432-9.102,6.007-14.793,7.722-5.689,1.717-11.509,2.576-17.458,2.576-7.028,0-13.166-.882-18.413-2.648-5.247-1.766-9.098-4.316-11.556-7.65-2.458-3.334-3.107-7.225-1.95-11.669,1.113-4.021,3.259-7.462,6.443-10.321,3.186-2.86,7.248-5.027,12.188-6.496,4.935-1.471,10.59-2.208,16.965-2.208h17.945Zm-33.121,.369c-3.996-1.619-6.883-3.799-8.666-6.546-1.779-2.749-2.245-5.77-1.392-9.072,1.251-4.542,3.887-8.433,7.908-11.669,4.021-3.238,8.995-5.672,14.926-7.306,5.928-1.636,12.442-2.452,19.534-2.452,6.08,0,11.432,.916,16.058,2.746,4.626,1.83,7.953,4.478,9.984,7.942,2.029,3.466,2.415,7.534,1.164,12.209h-24.76c.491-1.83-.06-3.105-1.647-3.825-1.591-.718-4.019-1.078-7.289-1.078-2.255,0-4.22,.286-5.89,.856-1.674,.574-3.003,1.326-3.989,2.257-.985,.931-1.632,1.905-1.935,2.917-.273,1.145-.068,2.151,.615,3.015,.681,.867,1.777,1.538,3.287,2.01,1.506,.474,3.323,.711,5.448,.711h11.62l-2.601,9.708h-17.945c-5.623,0-10.432-.809-14.428-2.426Z" fill="#ff0029"/>
    <path d="M1176.778,1302.628l6.808,41.384h-8.63l-22.793,37.313h-26.627l51.241-78.697Zm10.101,78.5c-2.467-1.046-4.448-2.582-5.95-4.609-1.497-2.027-2.469-4.478-2.907-7.355l-2.285-27.703-3.511-27.703-.946-6.716c-.406-2.518-.942-4.29-1.615-5.32s-1.783-1.555-3.329-1.572c-1.55-.015-3.868,.434-6.958,1.35l-.468-19.662c2.571-.818,4.895-1.405,6.968-1.764,2.074-.361,4.192-.54,6.349-.54,4.478,0,8.397,.745,11.756,2.232,3.359,1.489,6.037,3.671,8.03,6.546,1.99,2.877,3.231,6.326,3.724,10.345l6.605,55.31c.023,.162,.043,.325,.066,.487,.282,2.486,.617,4.316,1.004,5.495,.387,1.175,.882,2.01,1.489,2.499,.602,.491,1.478,.735,2.623,.735h.489c.164,0,.32-.03,.468-.096,.196,0,.466-.034,.812-.098l-3.443,18.338c-1.046,.359-2.595,.677-4.645,.955-2.052,.278-3.944,.419-5.679,.419-3.302,0-6.183-.523-8.649-1.57Z" fill="#ff0029"/>
    <path d="M1255.194,1306.013l-13.444,48.882c-.466,1.864-.604,3.295-.412,4.29,.19,.999,.756,1.726,1.694,2.183,.942,.459,2.375,.688,4.303,.688,1.341,0,2.364-.009,3.071-.026,.707-.015,1.715-.023,3.022-.023l-4.769,17.798c-2.334,.784-4.754,1.365-7.257,1.741-2.503,.376-4.931,.564-7.285,.564-5.23,0-9.431-.826-12.6-2.475-3.169-1.651-5.264-4.201-6.287-7.65-1.021-3.449-.833-7.838,.562-13.166l14.15-52.805h25.251Z" fill="#ff0029"/>
    <path d="M1272.03,1306.013h26.231l-11.378,42.46c-.647,2.417-.613,4.577,.105,6.471,.718,1.896,2.042,3.368,3.968,4.414,1.924,1.046,4.278,1.57,7.056,1.57,2.813,0,5.467-.523,7.972-1.57,2.503-1.046,4.611-2.518,6.33-4.414,1.717-1.894,2.9-4.053,3.547-6.471l11.378-42.46h26.185l-20.179,75.312h-24.91l2.798-10.445h-.587c-1.294,1.896-2.87,3.541-4.73,4.929-1.86,1.39-3.9,2.45-6.123,3.186-2.225,.737-4.498,1.104-6.819,1.104s-4.395-.367-6.223-1.104c-1.83-.737-3.304-1.796-4.416-3.186-1.117-1.388-1.813-3.033-2.089-4.929h-.589l-9.973,37.215h-24.905l27.353-102.081Z" fill="#ff0029"/>
    <path d="M1352.885,1377.891c-4.124-3.334-6.834-7.974-8.134-13.924-1.298-5.948-.931-12.715,1.1-20.299,2.014-7.517,5.29-14.219,9.826-20.102,4.532-5.884,9.777-10.445,15.727-13.681,5.95-3.235,11.966-4.854,18.046-4.854,3.759,0,7.135,.636,10.127,1.911s5.407,3.114,7.248,5.516,2.956,5.256,3.346,8.557h7.257l1.143,22.456-1.269,37.853h-19.122l1.856-37.853c.419-5.591-.182-10.027-1.802-13.311-1.621-3.287-4.555-4.929-8.805-4.929-2.877,0-5.516,.769-7.923,2.304-2.405,1.538-4.485,3.663-6.244,6.375-1.755,2.714-3.112,5.852-4.066,9.414-.972,3.628-1.301,6.874-.989,9.734,.312,2.86,1.219,5.083,2.723,6.667,1.503,1.585,3.515,2.377,6.033,2.377,2.614,0,5.26-.856,7.947-2.571,2.68-1.717,5.145-3.957,7.389-6.719,2.242-2.763,4.122-5.745,5.634-8.95l17.841-37.849h18.729l-18.035,37.849-12.888,21.379h-7.257c-2.097,3.434-4.621,6.456-7.579,9.07-2.956,2.616-6.309,4.7-10.059,6.253-3.75,1.553-7.801,2.33-12.145,2.33-6.313,0-11.526-1.67-15.652-5.004Z" fill="#ff0029"/>
  </g>
</svg>