<?xml version="1.0" encoding="UTF-8"?>
<svg xmlns="http://www.w3.org/2000/svg" width="1366" height="574" xmlns:xlink="http://www.w3.org/1999/xlink" viewBox="0 0 1366 574">
  <defs>
    <linearGradient id="b" data-name="무제 그라디언트 124" x1="0" y1="287" x2="1366" y2="287" gradientUnits="userSpaceOnUse">
      <stop offset="0" stop-color="#c1b88b"/>
      <stop offset=".362" stop-color="#beb68c"/>
      <stop offset=".58" stop-color="#b6b391"/>
      <stop offset=".76" stop-color="#a7ac99"/>
      <stop offset=".919" stop-color="#93a4a5"/>
      <stop offset="1" stop-color="#869ead"/>
    </linearGradient>
    <linearGradient id="d" data-name="무제 그라디언트 49" x1="37.506" y1="471.258" x2="167.995" y2="471.258" gradientUnits="userSpaceOnUse">
      <stop offset="0" stop-color="#56356d"/>
      <stop offset="1" stop-color="#495f76"/>
    </linearGradient>
    <linearGradient id="e" data-name="무제 그라디언트 49" x1="1198.012" y1="344.921" x2="1328.496" y2="344.921" xlink:href="#d"/>
    <linearGradient id="f" data-name="무제 그라디언트 49" x1="1198.012" y1="282.179" x2="1328.496" y2="282.179" xlink:href="#d"/>
    <linearGradient id="g" data-name="무제 그라디언트 49" x1="1123.139" y1="140.177" x2="1328.5" y2="140.177" xlink:href="#d"/>
  </defs>
  <g id="a" data-name="레이어 2">
    <rect width="1366" height="574" transform="translate(1366 574) rotate(180)" fill="url(#b)"/>
    <rect width="292.835" height="574" fill="#edebe4"/>
  </g>
  <g id="c" data-name="레이어 1">
    <g opacity=".2">
      <g>
        <path d="m389.521,286.97l-3.867-4.152c-5.115-5.492-10.056-11.427-15.104-18.143-4.694-6.263-9.139-12.902-13.592-20.302l9.654-5.81c4.255,7.07,8.491,13.4,12.95,19.349,3.555,4.731,7.049,9.048,10.589,13.081,4.138-3.684,8.557-7.31,13.188-10.823,5.684-4.302,11.837-8.437,18.293-12.294l5.779,9.672c-6.104,3.647-11.914,7.551-17.268,11.603-5.928,4.495-11.479,9.181-16.497,13.922l-4.124,3.897Z" fill="#47422f"/>
        <path d="m393.78,243.092l-2.975-4.832c-3.979-6.463-7.662-13.25-11.259-20.75-3.424-7.215-6.562-14.81-9.337-22.595l10.613-3.783c2.648,7.43,5.64,14.673,8.893,21.526,2.536,5.287,5.117,10.203,7.822,14.892,4.813-2.822,9.854-5.513,15.044-8.031,6.626-3.182,13.47-6.023,20.364-8.456l3.749,10.625c-6.511,2.298-12.976,4.982-19.216,7.978-6.608,3.206-12.97,6.714-18.888,10.417l-4.81,3.01Z" fill="#47422f"/>
        <path d="m406.569,200.905l-1.968-5.322c-2.63-7.11-4.908-14.488-6.964-22.554-1.917-7.596-3.508-15.655-4.732-23.968l11.147-1.641c1.169,7.938,2.685,15.622,4.506,22.839,1.451,5.692,3.016,11.02,4.746,16.144,5.272-1.821,10.744-3.47,16.333-4.921,6.998-1.801,14.27-3.25,21.625-4.309l1.606,11.152c-6.951,1.001-13.819,2.37-20.411,4.066-7.127,1.85-14.055,4.04-20.58,6.508l-5.308,2.007Z" fill="#47422f"/>
        <path d="m427.383,162.042l-.885-5.604c-2.444-15.475-3.257-31.589-2.417-47.895l11.252.579c-.7,13.586-.196,27.021,1.497,40.018,13.12-1.807,26.228-2.369,39.044-1.671l-.613,11.25c-13.849-.755-28.074.053-42.28,2.398l-5.597.924Z" fill="#47422f"/>
        <path d="m502.971,134.014c-1.937-.499-3.506-.878-4.94-1.191-1.525-.339-3.308-.73-5.122-1.09-4.12-.786-7.314-1.322-10.317-1.729l-.058-.008c-3.623-.529-7.242-.893-10.616-1.206-3.014-.238-6.963-.522-10.846-.626l-5.672-.152.193-5.671c.141-4.151.461-8.234.755-11.68l.007-.078c.35-3.526.791-7.681,1.409-11.774.615-4.376,1.41-8.662,2.035-11.91.422-2.109.864-4.13,1.28-6.006.386-1.77.832-3.64,1.444-6.045l10.919,2.778c-.579,2.275-.998,4.028-1.359,5.686-.407,1.837-.834,3.789-1.228,5.757-.593,3.083-1.357,7.2-1.938,11.336l-.008.058c-.58,3.839-1.002,7.812-1.338,11.197-.145,1.703-.296,3.564-.427,5.501,2.081.125,4.031.271,5.7.402l.078.007c3.529.328,7.33.709,11.214,1.276,3.202.435,6.573,1,10.927,1.831,1.966.39,3.827.798,5.394,1.146,1.553.339,3.252.748,5.327,1.283l-2.812,10.911Z" fill="#47422f"/>
        <path d="m534.914,115.19c-2.722-1.321-5.627-2.618-9.419-4.204-1.525-.632-3.098-1.24-4.847-1.913l-2.452-.923-2.501-.883c-6.498-2.286-13.475-4.301-20.733-5.988l-5.525-1.284,1.323-5.516c1.863-7.769,4.12-15.388,6.71-22.644l1.032-2.883,1.046-2.748c.689-1.775,1.454-3.745,2.26-5.684,1.879-4.473,3.473-8.048,5.024-11.269l10.151,4.889c-1.466,3.044-2.985,6.452-4.779,10.724-.747,1.796-1.486,3.701-2.139,5.382l-1.012,2.66-.973,2.72c-1.848,5.178-3.519,10.558-4.988,16.051,5.667,1.471,11.145,3.134,16.347,4.963l2.672.944,2.545.958c1.859.715,3.502,1.351,5.169,2.041,3.956,1.656,7.13,3.073,10.008,4.47l-4.919,10.136Z" fill="#47422f"/>
        <path d="m569.944,103.041l-.636-.475c-1.15-.859-2.338-1.748-3.48-2.542-1.434-1.009-2.882-2.007-4.331-2.986-1.356-.913-2.734-1.787-4.193-2.713l-2.406-1.504-2.278-1.356c-5.906-3.513-12.173-6.765-19.156-9.941l-5.163-2.348,2.383-5.147c3.407-7.357,7.116-14.385,11.025-20.887l1.578-2.623,1.772-2.812c1.007-1.577,2.049-3.208,3.133-4.815,1.132-1.671,2.294-3.356,3.461-5.016.978-1.408,1.999-2.782,2.987-4.112l.656-.884,9.054,6.707-.667.898c-.978,1.316-1.901,2.558-2.793,3.842-1.147,1.633-2.274,3.266-3.365,4.877-.999,1.48-2.001,3.048-2.97,4.566l-1.702,2.7-1.489,2.476c-2.798,4.655-5.492,9.601-8.039,14.76,5.336,2.584,10.299,5.247,15.056,8.077l2.433,1.45,2.524,1.578c1.459.925,2.966,1.882,4.458,2.886,1.515,1.024,3.023,2.063,4.488,3.094,1.275.886,2.543,1.834,3.768,2.75l.627.468-6.736,9.032Z" fill="#47422f"/>
        <path d="m606.698,97.947l-.222-.247c-.489-.546-.983-1.097-1.48-1.635l-1.794-1.905c-1.261-1.321-2.423-2.532-3.602-3.707-2.197-2.166-4.837-4.731-7.617-7.192l-.046-.041c-2.28-2.062-4.799-4.199-8.168-6.931-1.28-1.036-2.582-2.032-3.961-3.086l-2.528-1.91c-.558-.414-1.15-.838-1.747-1.265l-5.034-3.61,3.644-5.005c.473-.65.949-1.305,1.432-1.946l2.003-2.613c1.1-1.419,2.238-2.885,3.417-4.324,3.029-3.687,5.415-6.465,7.737-9.009,2.81-3.144,5.66-6.067,8.321-8.757,1.468-1.471,2.956-2.892,4.395-4.268l2.264-2.138c.631-.586,1.266-1.158,1.905-1.734l.387-.349,7.546,8.366-.393.354c-.592.533-1.179,1.062-1.763,1.604l-2.18,2.058c-1.438,1.375-2.813,2.689-4.17,4.048-2.544,2.573-5.281,5.38-7.931,8.346l-.041.045c-2.19,2.399-4.463,5.045-7.367,8.581-1.079,1.317-2.17,2.723-3.225,4.083l-.175.226.351.268c1.378,1.054,2.802,2.144,4.206,3.279,3.527,2.86,6.183,5.114,8.612,7.31,2.99,2.647,5.876,5.454,8.058,7.606,1.292,1.287,2.506,2.552,3.846,3.956l1.872,1.986c.544.588,1.084,1.19,1.619,1.787l.219.244-8.388,7.523Z" fill="#47422f"/>
        <path d="m643.798,100.064c-3.646-6.102-7.55-11.912-11.603-17.268-4.496-5.929-9.182-11.481-13.922-16.497l-3.897-4.124,4.152-3.868c5.491-5.115,11.426-10.055,18.143-15.104,6.263-4.694,12.903-9.139,20.303-13.592l5.81,9.654c-7.07,4.255-13.399,8.491-19.349,12.95-4.731,3.556-9.049,7.05-13.082,10.589,3.683,4.137,7.31,8.556,10.823,13.188,4.303,5.686,8.438,11.839,12.294,18.293l-9.672,5.778Z" fill="#47422f"/>
        <path d="m679.657,109.347c-2.297-6.509-4.98-12.974-7.978-19.215-3.205-6.606-6.713-12.968-10.417-18.888l-3.009-4.81,4.832-2.975c6.463-3.979,13.25-7.662,20.749-11.259,7.217-3.425,14.812-6.563,22.596-9.337l3.782,10.613c-7.428,2.648-14.671,5.64-21.526,8.893-5.286,2.536-10.203,5.117-14.891,7.822,2.822,4.814,5.513,9.855,8.031,15.044,3.183,6.628,6.025,13.473,8.456,20.364l-10.625,3.749Z" fill="#47422f"/>
        <path d="m713.021,125.522c-1.001-6.95-2.369-13.817-4.066-20.412-1.85-7.127-4.04-14.055-6.508-20.58l-2.006-5.308,5.322-1.968c7.11-2.63,14.487-4.908,22.554-6.964,7.596-1.917,15.655-3.508,23.968-4.732l1.641,11.147c-7.938,1.169-15.622,2.685-22.838,4.506-5.692,1.451-11.02,3.016-16.144,4.746,1.821,5.272,3.47,10.744,4.921,16.333,1.801,7,3.251,14.272,4.31,21.625l-11.152,1.606Z" fill="#47422f"/>
        <path d="m753.876,148.527l-11.25-.613c.754-13.85-.052-28.075-2.398-42.28l-.924-5.598,5.604-.885c15.475-2.443,31.589-3.257,47.895-2.417l-.579,11.252c-13.587-.698-27.021-.196-40.018,1.497,1.807,13.12,2.37,26.228,1.671,39.044Z" fill="#47422f"/>
        <path d="m778.242,178.436l-10.911-2.809c.501-1.947.88-3.517,1.191-4.941.339-1.525.73-3.308,1.09-5.122.788-4.129,1.323-7.323,1.729-10.316l.008-.059c.53-3.628.893-7.245,1.206-10.615.238-3.014.522-6.963.627-10.846l.152-5.672,5.671.193c4.152.141,8.234.461,11.68.755l.078.007c3.526.35,7.681.791,11.775,1.409,4.377.615,8.663,1.411,11.91,2.035,2.111.422,4.131.864,6.006,1.28,1.767.385,3.637.832,6.045,1.444l-2.778,10.919c-2.278-.58-4.031-.999-5.686-1.359-1.836-.407-3.788-.834-5.757-1.228-3.082-.593-7.199-1.357-11.336-1.938l-.058-.008c-3.839-.58-7.812-1.002-11.196-1.338-1.703-.145-3.564-.296-5.501-.427-.125,2.081-.271,4.031-.403,5.7l-.007.077c-.327,3.526-.708,7.324-1.276,11.214-.433,3.193-.998,6.565-1.83,10.927-.39,1.966-.798,3.827-1.146,5.394-.337,1.543-.746,3.241-1.283,5.326Z" fill="#47422f"/>
        <path d="m796.292,212.487l-10.137-4.919c1.304-2.686,2.639-5.679,4.204-9.419.631-1.521,1.215-3.032,1.913-4.847l.923-2.452.882-2.501c2.286-6.5,4.301-13.477,5.988-20.733l1.284-5.525,5.516,1.323c7.77,1.863,15.388,4.12,22.644,6.71l2.884,1.033,2.748,1.046c1.773.688,3.742,1.452,5.684,2.26,4.47,1.877,8.044,3.471,11.269,5.024l-4.888,10.151c-3.047-1.467-6.455-2.986-10.725-4.779-1.799-.748-3.703-1.487-5.382-2.139l-2.66-1.012-2.72-.973c-5.178-1.848-10.558-3.519-16.051-4.988-1.471,5.667-3.134,11.144-4.964,16.347l-.944,2.672-.958,2.545c-.717,1.864-1.354,3.511-2.042,5.171-1.655,3.954-3.072,7.128-4.469,10.007Z" fill="#47422f"/>
        <path d="m807.335,249.334l-9.031-6.737.466-.624c.862-1.154,1.754-2.346,2.551-3.493,1.01-1.436,2.009-2.884,2.986-4.331.91-1.352,1.781-2.725,2.704-4.178l1.513-2.42,1.357-2.278c3.512-5.904,6.764-12.171,9.941-19.155l2.348-5.163,5.147,2.383c7.359,3.408,14.387,7.117,20.887,11.025l2.623,1.578,2.812,1.772c1.577,1.007,3.208,2.049,4.815,3.133,1.672,1.133,3.358,2.296,5.016,3.461,1.407.977,2.782,1.998,4.11,2.986l.885.657-6.706,9.054-.9-.668c-1.316-.978-2.558-1.901-3.841-2.792-1.632-1.146-3.264-2.272-4.877-3.365-1.48-.999-3.049-2.001-4.566-2.97l-2.7-1.701-2.477-1.489c-4.654-2.797-9.6-5.491-14.759-8.039-2.584,5.336-5.248,10.3-8.077,15.056l-1.45,2.432-1.588,2.54c-.922,1.453-1.876,2.956-2.877,4.442-1.022,1.512-2.061,3.02-3.094,4.488-.89,1.28-1.841,2.552-2.76,3.782l-.459.614Z" fill="#47422f"/>
        <path d="m810.921,287.74l-7.524-8.387.273-.244c.538-.482,1.08-.968,1.61-1.458l1.904-1.794c1.314-1.255,2.521-2.411,3.707-3.602,2.167-2.198,4.733-4.839,7.192-7.618l.04-.045c2.059-2.277,4.197-4.796,6.931-8.168,1.035-1.28,2.032-2.582,3.086-3.961l1.909-2.528c.408-.55.827-1.135,1.249-1.724l3.627-5.057,4.999,3.64c.652.474,1.308.952,1.951,1.435l2.635,2.019c1.411,1.095,2.871,2.228,4.303,3.401,3.688,3.03,6.466,5.416,9.009,7.737,3.142,2.809,6.065,5.659,8.757,8.32,1.471,1.468,2.893,2.956,4.268,4.395l2.137,2.264c.599.645,1.184,1.294,1.773,1.948l.312.346-8.369,7.544-.315-.35c-.545-.605-1.086-1.206-1.639-1.803l-2.06-2.182c-1.375-1.439-2.689-2.813-4.047-4.17-2.574-2.545-5.382-5.283-8.346-7.932l-.045-.041c-2.399-2.19-5.045-4.462-8.581-7.367-1.31-1.074-2.71-2.16-4.063-3.21l-.246-.191-.268.351c-1.054,1.378-2.143,2.802-3.279,4.206-2.863,3.53-5.118,6.186-7.312,8.613-2.646,2.988-5.453,5.875-7.605,8.057-1.297,1.303-2.611,2.562-3.957,3.847l-1.986,1.871c-.579.536-1.173,1.069-1.762,1.597l-.269.241Z" fill="#47422f"/>
        <path d="m862.079,335.437c-4.254-7.07-8.49-13.399-12.95-19.349-3.556-4.731-7.05-9.049-10.589-13.081-4.138,3.683-8.555,7.309-13.188,10.823-5.685,4.303-11.838,8.438-18.293,12.294l-5.779-9.672c6.104-3.647,11.913-7.55,17.268-11.603,5.928-4.496,11.48-9.182,16.497-13.922l4.124-3.897,3.867,4.152c5.114,5.491,10.055,11.426,15.103,18.143,4.695,6.265,9.139,12.904,13.592,20.303l-9.654,5.81Z" fill="#47422f"/>
        <path d="m847.87,382.867c-2.647-7.427-5.639-14.67-8.893-21.527-2.537-5.287-5.118-10.204-7.822-14.891-4.814,2.822-9.855,5.513-15.044,8.031-6.628,3.183-13.473,6.025-20.364,8.456l-3.749-10.625c6.508-2.296,12.973-4.98,19.215-7.978,6.607-3.205,12.969-6.713,18.888-10.416l4.81-3.01,2.975,4.832c3.978,6.461,7.661,13.248,11.26,20.749,3.425,7.219,6.563,14.814,9.337,22.596l-10.613,3.783Z" fill="#47422f"/>
        <path d="m824.639,426.578c-1.168-7.937-2.684-15.621-4.506-22.838-1.45-5.691-3.016-11.02-4.746-16.144-5.272,1.821-10.744,3.47-16.333,4.921-7.001,1.802-14.272,3.251-21.625,4.31l-1.606-11.152c6.949-1.001,13.817-2.369,20.412-4.066,7.128-1.85,14.055-4.041,20.579-6.508l5.307-2.006,1.969,5.321c2.631,7.112,4.909,14.489,6.964,22.554,1.917,7.597,3.508,15.656,4.732,23.968l-11.147,1.641Z" fill="#47422f"/>
        <path d="m804.611,465.456l-11.252-.579c.7-13.586.196-27.02-1.497-40.018-13.12,1.807-26.228,2.369-39.044,1.671l.613-11.25c13.852.755,28.075-.052,42.28-2.398l5.598-.924.885,5.604c2.444,15.476,3.257,31.59,2.418,47.895Z" fill="#47422f"/>
        <path d="m766.168,499.152l-10.918-2.78c.578-2.27.997-4.024,1.359-5.685.409-1.843.837-3.8,1.227-5.755.592-3.08,1.356-7.192,1.939-11.338l.008-.057c.578-3.828,1.001-7.805,1.338-11.195.145-1.703.297-3.564.427-5.502-2.082-.125-4.031-.271-5.7-.403l-.077-.007c-3.526-.327-7.324-.708-11.212-1.275-3.194-.434-6.566-.998-10.929-1.831-1.966-.39-3.827-.798-5.394-1.146-1.544-.337-3.242-.746-5.326-1.283l2.81-10.911c1.946.501,3.516.879,4.941,1.191,1.525.339,3.308.73,5.122,1.09,4.128.787,7.322,1.323,10.316,1.729l.059.008c3.627.53,7.244.893,10.615,1.206,3.015.237,6.964.522,10.846.626l5.673.152-.193,5.671c-.142,4.159-.461,8.238-.755,11.68l-.007.078c-.351,3.532-.793,7.692-1.408,11.776-.617,4.385-1.411,8.666-2.035,11.909-.419,2.098-.862,4.123-1.279,6.005-.386,1.774-.834,3.645-1.445,6.046Z" fill="#47422f"/>
        <path d="m721.86,524.749l-10.151-4.889c1.466-3.046,2.985-6.453,4.778-10.724.746-1.792,1.486-3.7,2.139-5.382l1.012-2.659.972-2.72c1.848-5.177,3.519-10.557,4.988-16.052-5.666-1.471-11.145-3.134-16.347-4.964l-2.672-.944-2.545-.958c-1.862-.716-3.508-1.353-5.171-2.042-3.954-1.655-7.129-3.072-10.007-4.469l4.919-10.137c2.686,1.304,5.679,2.639,9.419,4.204,1.521.63,3.096,1.24,4.847,1.913l2.452.923,2.5.882c6.5,2.286,13.477,4.301,20.734,5.988l5.526,1.284-1.323,5.517c-1.864,7.773-4.122,15.391-6.71,22.644l-1.032,2.884-1.046,2.748c-.69,1.776-1.456,3.751-2.26,5.684-1.878,4.47-3.471,8.045-5.024,11.268Z" fill="#47422f"/>
        <path d="m673.395,541.119l-9.053-6.707.655-.882c.982-1.321,1.909-2.569,2.805-3.859,1.137-1.62,2.264-3.252,3.366-4.878.996-1.474,1.994-3.038,2.96-4.551l1.71-2.715,1.489-2.476c2.797-4.652,5.49-9.599,8.039-14.759-5.336-2.583-10.299-5.247-15.056-8.077l-2.433-1.45-2.521-1.576c-1.459-.926-2.969-1.884-4.461-2.889-1.508-1.019-3.016-2.058-4.487-3.094-1.284-.893-2.558-1.845-3.791-2.767l-.606-.453,6.737-9.03.615.459c1.157.865,2.352,1.759,3.502,2.558,1.438,1.012,2.887,2.01,4.33,2.985,1.358.915,2.737,1.79,4.197,2.716l2.402,1.501,2.278,1.357c5.906,3.513,12.173,6.765,19.156,9.941l5.163,2.348-2.384,5.147c-3.41,7.362-7.119,14.389-11.025,20.887l-1.578,2.622-1.781,2.826c-1.004,1.573-2.042,3.199-3.124,4.801-1.142,1.685-2.305,3.37-3.461,5.016-.981,1.413-2.007,2.793-2.999,4.127l-.645.868Z" fill="#47422f"/>
        <path d="m622.687,547.724l-7.544-8.369.353-.317c.604-.544,1.205-1.085,1.802-1.639l2.179-2.058c1.367-1.306,2.805-2.681,4.171-4.048,2.542-2.57,5.277-5.376,7.931-8.346l.041-.045c2.191-2.4,4.463-5.046,7.367-8.58,1.078-1.315,2.167-2.719,3.22-4.076l.18-.233-.352-.269c-1.377-1.053-2.801-2.142-4.204-3.278-3.528-2.861-6.184-5.115-8.613-7.311-2.99-2.647-5.876-5.455-8.058-7.606-1.311-1.305-2.567-2.616-3.847-3.957l-1.871-1.985c-.533-.577-1.063-1.167-1.588-1.753l-.25-.279,8.387-7.524.253.283c.479.535.962,1.074,1.449,1.6l1.795,1.905c1.203,1.26,2.405,2.514,3.602,3.707,2.197,2.166,4.837,4.732,7.617,7.192l.045.04c2.279,2.061,4.799,4.199,8.169,6.932,1.28,1.035,2.582,2.031,3.96,3.085l2.529,1.91c.559.415,1.151.839,1.749,1.267l5.032,3.609-3.623,4.977c-.479.659-.962,1.323-1.451,1.973l-2.01,2.622c-1.099,1.416-2.234,2.88-3.412,4.317-3.028,3.686-5.414,6.464-7.737,9.008-2.815,3.149-5.662,6.07-8.32,8.757-1.478,1.48-2.965,2.901-4.403,4.275l-2.256,2.13c-.644.599-1.293,1.183-1.945,1.771l-.349.314Z" fill="#47422f"/>
        <path d="m571.718,544.387l-5.81-9.654c7.07-4.254,13.399-8.49,19.349-12.95,4.731-3.555,9.048-7.049,13.081-10.589-3.684-4.138-7.31-8.556-10.823-13.188-4.301-5.683-8.437-11.837-12.294-18.293l9.672-5.779c3.648,6.105,7.552,11.915,11.603,17.268,4.495,5.928,9.181,11.48,13.922,16.498l3.897,4.124-4.152,3.867c-5.492,5.115-11.427,10.055-18.143,15.103-6.264,4.695-12.904,9.139-20.303,13.592Z" fill="#47422f"/>
        <path d="m522.262,531.136l-3.783-10.613c7.429-2.648,14.672-5.64,21.526-8.893,5.288-2.537,10.204-5.118,14.891-7.822-2.822-4.814-5.513-9.854-8.031-15.044-3.182-6.626-6.023-13.47-8.456-20.363l10.625-3.75c2.298,6.511,4.982,12.976,7.978,19.216,3.206,6.608,6.714,12.97,10.417,18.888l3.01,4.81-4.832,2.975c-6.46,3.977-13.248,7.66-20.75,11.26-7.216,3.425-14.811,6.563-22.595,9.337Z" fill="#47422f"/>
        <path d="m476.408,508.44l-1.641-11.147c7.937-1.168,15.621-2.684,22.839-4.506,5.691-1.45,11.019-3.016,16.144-4.746-1.821-5.272-3.47-10.744-4.921-16.333-1.801-6.999-3.25-14.27-4.309-21.625l11.152-1.606c1.001,6.951,2.37,13.819,4.066,20.412,1.85,7.128,4.041,14.055,6.507,20.579l2.007,5.307-5.322,1.969c-7.111,2.631-14.489,4.909-22.554,6.964-7.597,1.917-15.656,3.508-23.967,4.732Z" fill="#47422f"/>
        <path d="m448.29,477.585c-4.117,0-8.252-.107-12.401-.32l.58-11.252c13.585.699,27.02.196,40.018-1.497-1.807-13.12-2.37-26.228-1.671-39.044l11.25.613c-.755,13.85.052,28.075,2.398,42.28l.924,5.598-5.604.885c-11.538,1.822-23.433,2.738-35.495,2.738Z" fill="#47422f"/>
        <path d="m455.359,445.945l-5.671-.193c-4.159-.142-8.238-.461-11.681-.755l-.078-.007c-3.532-.351-7.691-.793-11.774-1.408-4.384-.617-8.667-1.412-11.911-2.036-2.096-.419-4.122-.862-6.005-1.279-1.777-.387-3.648-.834-6.046-1.445l2.78-10.918c2.267.577,4.02.996,5.685,1.359,1.843.409,3.801.837,5.755,1.227,3.08.592,7.193,1.356,11.338,1.938l.057.008c3.828.578,7.805,1.001,11.196,1.338,1.703.145,3.563.297,5.502.427.125-2.082.271-4.031.402-5.7l.007-.077c.328-3.531.709-7.332,1.276-11.215.564-4.151,1.315-8.223,1.831-10.927.39-1.966.798-3.827,1.146-5.394.339-1.554.749-3.253,1.283-5.327l10.911,2.812c-.499,1.936-.877,3.506-1.191,4.94-.339,1.525-.729,3.308-1.09,5.122-.786,4.12-1.322,7.314-1.729,10.317l-.008.058c-.529,3.621-.893,7.241-1.206,10.615-.238,3.015-.522,6.964-.626,10.847l-.152,5.673Z" fill="#47422f"/>
        <path d="m427.341,411.908l-5.517-1.323c-7.772-1.864-15.391-4.122-22.644-6.71l-2.884-1.032-2.748-1.046c-1.778-.69-3.754-1.457-5.684-2.26-4.473-1.878-8.048-3.472-11.268-5.023l4.889-10.151c3.043,1.466,6.45,2.984,10.724,4.778,1.789.744,3.698,1.485,5.382,2.139l2.66,1.012,2.719.972c5.177,1.848,10.557,3.519,16.052,4.988,1.471-5.667,3.134-11.145,4.963-16.347l.944-2.672.958-2.545c.714-1.857,1.35-3.499,2.041-5.169,1.656-3.957,3.073-7.131,4.47-10.008l10.136,4.919c-1.321,2.723-2.618,5.628-4.204,9.419-.633,1.529-1.241,3.1-1.913,4.847l-.923,2.452-.883,2.501c-2.286,6.498-4.301,13.476-5.988,20.733l-1.284,5.526Z" fill="#47422f"/>
        <path d="m406.522,373.045l-5.147-2.384c-7.36-3.409-14.387-7.118-20.887-11.025l-2.623-1.579-2.826-1.781c-1.573-1.004-3.199-2.042-4.801-3.124-1.683-1.141-3.368-2.304-5.016-3.461-1.414-.982-2.794-2.007-4.129-2.999l-.867-.644,6.707-9.053.881.654c1.321.982,2.569,1.91,3.859,2.806,1.622,1.139,3.254,2.265,4.878,3.366,1.474.996,3.038,1.994,4.551,2.96l2.714,1.71,2.477,1.49c4.653,2.797,9.6,5.491,14.76,8.039,2.583-5.335,5.247-10.298,8.077-15.056l1.45-2.433,1.566-2.504c.929-1.465,1.89-2.98,2.899-4.477,1.021-1.511,2.06-3.019,3.094-4.488.889-1.279,1.838-2.549,2.756-3.777l.462-.618,9.031,6.736-.469.628c-.861,1.152-1.752,2.344-2.548,3.489-1.011,1.437-2.009,2.885-2.986,4.33-.918,1.363-1.796,2.747-2.725,4.212l-1.492,2.387-1.356,2.278c-3.514,5.908-6.766,12.175-9.941,19.156l-2.348,5.163Z" fill="#47422f"/>
        <path d="m393.766,330.847l-4.984-3.627c-.658-.478-1.32-.959-1.968-1.447l-2.6-1.993c-1.423-1.104-2.894-2.245-4.338-3.429-3.685-3.028-6.464-5.413-9.008-7.736-3.15-2.816-6.071-5.663-8.757-8.321-1.48-1.478-2.901-2.965-4.275-4.403l-2.131-2.256c-.585-.63-1.156-1.264-1.731-1.902l-.351-.39,8.366-7.546.356.395c.532.591,1.061,1.178,1.602,1.761l2.058,2.179c1.306,1.367,2.681,2.805,4.048,4.171,2.569,2.541,5.374,5.276,8.346,7.931l.045.041c2.4,2.192,5.047,4.464,8.581,7.367,1.321,1.083,2.732,2.177,4.096,3.235l.213.165.269-.352c1.053-1.377,2.143-2.801,3.278-4.204,2.859-3.526,5.114-6.182,7.312-8.614,2.648-2.991,5.454-5.876,7.605-8.056,1.295-1.301,2.558-2.511,3.957-3.847l1.985-1.871c.585-.541,1.184-1.078,1.778-1.61l.255-.229,7.523,8.388-.258.232c-.542.486-1.09.976-1.624,1.47l-1.905,1.795c-1.317,1.257-2.525,2.414-3.707,3.602-2.165,2.196-4.73,4.835-7.192,7.617l-.04.045c-2.064,2.282-4.202,4.801-6.932,8.169-1.035,1.28-2.031,2.582-3.085,3.96l-1.91,2.529c-.42.566-.85,1.168-1.284,1.773l-3.59,5.008Z" fill="#47422f"/>
      </g>
    </g>
    <g>
      <path d="m335.344,435.735l1.255-14.387h40.213l1.255,14.387h-2.802c-.156-1.673-.292-2.957-.409-3.852-.117-.895-.384-1.931-.802-3.108-.418-1.177-.948-2.043-1.59-2.597-.642-.555-1.542-1.031-2.7-1.431-1.158-.398-2.573-.598-4.246-.598h-4.523v34.727h9.134v2.802c-2.159-.117-6.624-.175-13.395-.175s-11.235.058-13.395.175v-2.802h9.163v-34.727h-4.611c-1.673,0-3.098.209-4.275.627-1.177.419-2.082.905-2.714,1.459-.632.555-1.148,1.411-1.546,2.568-.399,1.158-.671,2.185-.817,3.079s-.277,2.179-.394,3.852h-2.801Z" fill="#47422f"/>
      <path d="m373.751,461.679v-2.802h1.255c2.062,0,3.375-.102,3.94-.307.564-.205.943-.562,1.138-1.069l14.825-35.978c.156-.447.292-.759.409-.934s.326-.325.627-.452c.301-.127.734-.189,1.299-.189.447,0,.768.024.963.072.194.049.433.19.715.424.282.233.521.594.715,1.079l15.292,37.354h5.807v2.802c-1.401-.117-4.65-.175-9.747-.175-5.506,0-9.017.058-10.535.175v-2.802h5.69l-3.589-8.755h-16.021l-2.977,7.262c-.156.156-.234.391-.234.703,0,.526,1.771.79,5.312.79v2.802c-1.479-.117-4.105-.175-7.879-.175-.136,0-2.471.058-7.004.175Zm13.979-14.357h13.628l-6.8-16.605-6.829,16.605Z" fill="#47422f"/>
      <path d="m421.527,441.192c0-6.264,2.184-11.356,6.552-15.276,4.367-3.92,10.17-5.881,17.407-5.881,4.426,0,8.364,1.353,11.815,4.057l3.935-3.531c.389-.35.768-.525,1.137-.525.477,0,.773.107.888.321.114.214.172.661.172,1.343v12.84c0,.798-.082,1.279-.244,1.444-.162.166-.616.248-1.361.248-.669,0-1.08-.062-1.233-.189-.153-.126-.268-.481-.344-1.065-.649-3.696-2.233-6.644-4.752-8.842-2.52-2.198-5.42-3.298-8.701-3.298-2.782,0-5.287.477-7.514,1.43-2.228.954-3.964,2.209-5.209,3.765-2.276,2.996-3.415,7.354-3.415,13.074,0,5.787,1.119,10.123,3.356,13.006,1.401,1.793,3.283,3.147,5.647,4.063s4.888,1.374,7.573,1.374c2.159,0,3.949-.42,5.37-1.259,1.556-.916,2.334-2.33,2.334-4.241v-6.057h-8.609v-2.802c2.167.117,6.266.176,12.297.176,4.998,0,8.194-.059,9.589-.176v2.802h-4.786v12.023c0,1.108-.277,1.663-.832,1.663-.272,0-1.108-.351-2.508-1.051s-2.517-1.41-3.353-2.13c-2.066,2.549-5.779,3.832-11.138,3.852-7.49,0-13.375-1.994-17.655-5.982-4.28-3.987-6.42-9.046-6.42-15.175Z" fill="#47422f"/>
      <path d="m471.958,441.44c0-6.386,1.984-11.549,5.953-15.491,3.969-3.942,9.319-5.914,16.051-5.914,6.614,0,11.921,1.952,15.919,5.855s5.997,9.087,5.997,15.55c0,6.202-1.97,11.237-5.91,15.106s-9.294,5.803-16.065,5.803c-6.693,0-12.023-1.919-15.992-5.759-3.969-3.84-5.953-8.89-5.953-15.15Zm9.134-.904c0,5.657.817,10.021,2.451,13.093,1.148,2.119,2.67,3.685,4.567,4.695,1.896,1.011,3.827,1.516,5.792,1.516,4.377,0,7.743-1.895,10.097-5.686,1.829-3.032,2.743-7.571,2.743-13.618,0-5.501-.837-9.661-2.51-12.48-1.148-1.865-2.651-3.27-4.509-4.213s-3.799-1.414-5.822-1.414c-1.907,0-3.76.433-5.559,1.297-1.8.866-3.273,2.153-4.421,3.864-1.887,2.896-2.831,7.212-2.831,12.946Zm5.457-27.388c0-.953.326-1.819.978-2.598.652-.777,1.435-1.167,2.349-1.167.525,0,1.089.16,1.693.481.603.321,2.198,1.299,4.786,2.933,1.518.954,2.772,1.751,3.765,2.394l-1.021,2.626c-.953-.111-2.267-.303-3.939-.573-1.673-.271-3.366-.537-5.078-.798-2.354-.331-3.531-1.431-3.531-3.298Z" fill="#47422f"/>
      <path d="m518.507,461.679v-2.802h1.488c1.187,0,2.266-.059,3.239-.175.836-.077,1.332-.189,1.488-.336.155-.146.233-.559.233-1.24v-33.647h-6.449v-2.801h13.278c.525,0,.905.02,1.138.058.233.04.486.171.759.395.272.224.515.569.729,1.036l14.329,31.634,14.358-31.634c.311-.681.637-1.1.978-1.255.34-.156.89-.233,1.649-.233h13.19v2.801h-6.274v35.398h6.274v2.802c-1.428-.117-4.803-.175-10.127-.175-5.285,0-8.64.058-10.067.175v-2.802h6.274v-35.398h-.058l-16.663,36.771c-.448.953-1.09,1.43-1.926,1.43s-1.469-.496-1.897-1.488l-16.254-35.924h-.059v32.859c0,.682.078,1.095.234,1.24.155.146.671.259,1.546.336,1.07.116,2.13.175,3.181.175h1.488v2.802c-1.634-.117-4.329-.175-8.083-.175-3.813,0-6.479.058-7.996.175Z" fill="#47422f"/>
      <path d="m335.286,533.397v-2.802h1.255c2.062,0,3.375-.102,3.94-.307.564-.205.943-.562,1.138-1.069l14.825-35.978c.156-.447.292-.759.409-.934s.326-.325.627-.452c.301-.127.734-.189,1.299-.189.447,0,.768.024.963.072.194.049.433.19.715.424.282.233.521.594.715,1.079l15.292,37.354h5.807v2.802c-1.401-.117-4.65-.175-9.747-.175-5.506,0-9.017.058-10.535.175v-2.802h5.69l-3.589-8.755h-16.021l-2.977,7.262c-.156.156-.234.391-.234.703,0,.526,1.771.79,5.312.79v2.802c-1.479-.117-4.105-.175-7.879-.175-.136,0-2.471.058-7.004.175Zm13.979-14.357h13.628l-6.8-16.605-6.829,16.605Z" fill="#47422f"/>
      <path d="m383.499,533.397v-2.802h6.449v-35.398h-6.449v-2.801h25.71c6.05,0,11.026,1.872,14.927,5.617,3.9,3.745,5.851,8.828,5.851,15.248,0,6.265-1.941,11.187-5.822,14.767-3.881,3.579-8.848,5.369-14.898,5.369h-25.768Zm14.591-2.802h8.726c5.505,0,9.426-1.673,11.761-5.02.953-1.361,1.629-2.957,2.028-4.785.398-1.829.598-4.358.598-7.588,0-5.934-.856-10.155-2.568-12.665-2.471-3.541-6.411-5.321-11.819-5.341h-8.726v35.398Z" fill="#47422f"/>
      <path d="m451.063,495.197v-2.801c1.4.116,4.552.175,9.455.175,5.544,0,9.065-.059,10.564-.175v2.801h-5.603l12.724,28.628,12.082-27.197c0-.039.029-.107.087-.205.058-.097.097-.185.117-.262.019-.078.029-.156.029-.234,0-.485-1.751-.729-5.253-.729v-2.801c1.556.116,4.163.175,7.821.175.486,0,1.104-.01,1.853-.029s1.625-.048,2.626-.088c1.002-.038,1.755-.058,2.262-.058v2.801h-1.109c-1.401,0-2.461.063-3.181.19-.72.126-1.158.268-1.313.423-.156.156-.312.39-.467.7l-15.905,35.924c-.272.642-.588,1.04-.948,1.196-.36.155-.842.233-1.444.233-.759,0-1.28-.107-1.562-.321-.282-.214-.56-.622-.832-1.226l-16.488-37.12h-5.515Z" fill="#47422f"/>
      <path d="m492.651,533.397v-2.802h1.255c2.062,0,3.375-.102,3.94-.307.564-.205.943-.562,1.138-1.069l14.825-35.978c.156-.447.292-.759.409-.934s.326-.325.627-.452c.301-.127.734-.189,1.299-.189.447,0,.768.024.963.072.194.049.433.19.715.424.282.233.521.594.715,1.079l15.292,37.354h5.807v2.802c-1.401-.117-4.65-.175-9.747-.175-5.506,0-9.017.058-10.535.175v-2.802h5.69l-3.589-8.755h-16.021l-2.977,7.262c-.156.156-.234.391-.234.703,0,.526,1.771.79,5.312.79v2.802c-1.479-.117-4.105-.175-7.879-.175-.136,0-2.471.058-7.004.175Zm13.979-14.357h13.628l-6.8-16.605-6.829,16.605Z" fill="#47422f"/>
      <path d="m540.426,512.911c0-6.264,2.184-11.356,6.552-15.276,4.367-3.92,10.17-5.881,17.407-5.881,4.426,0,8.364,1.353,11.815,4.057l3.935-3.531c.389-.35.768-.525,1.137-.525.477,0,.773.107.888.321.114.214.172.661.172,1.343v12.84c0,.798-.082,1.279-.244,1.444-.162.166-.616.248-1.361.248-.669,0-1.08-.062-1.233-.189-.153-.126-.268-.481-.344-1.065-.649-3.696-2.233-6.644-4.752-8.842-2.52-2.198-5.42-3.298-8.701-3.298-2.782,0-5.287.477-7.514,1.43-2.228.954-3.964,2.209-5.209,3.765-2.276,2.996-3.415,7.354-3.415,13.074,0,5.787,1.119,10.123,3.356,13.006,1.401,1.793,3.283,3.147,5.647,4.063s4.888,1.374,7.573,1.374c2.159,0,3.949-.42,5.37-1.259,1.556-.916,2.334-2.33,2.334-4.241v-6.057h-8.609v-2.802c2.167.117,6.266.176,12.297.176,4.998,0,8.194-.059,9.589-.176v2.802h-4.786v12.023c0,1.108-.277,1.663-.832,1.663-.272,0-1.108-.351-2.508-1.051s-2.517-1.41-3.353-2.13c-2.066,2.549-5.779,3.832-11.138,3.852-7.49,0-13.375-1.994-17.655-5.982-4.28-3.987-6.42-9.046-6.42-15.175Z" fill="#47422f"/>
      <path d="m590.857,513.159c0-6.386,1.984-11.549,5.953-15.491,3.969-3.942,9.319-5.914,16.051-5.914,6.614,0,11.921,1.952,15.919,5.855s5.997,9.087,5.997,15.55c0,6.202-1.97,11.237-5.91,15.106s-9.294,5.803-16.065,5.803c-6.693,0-12.023-1.919-15.992-5.759-3.969-3.84-5.953-8.89-5.953-15.15Zm9.134-.904c0,5.657.817,10.021,2.451,13.093,1.148,2.119,2.67,3.685,4.567,4.695,1.896,1.011,3.827,1.516,5.792,1.516,4.377,0,7.743-1.895,10.097-5.686,1.829-3.032,2.743-7.571,2.743-13.618,0-5.501-.837-9.661-2.51-12.48-1.148-1.865-2.651-3.27-4.509-4.213s-3.799-1.414-5.822-1.414c-1.907,0-3.76.433-5.559,1.297-1.8.866-3.273,2.153-4.421,3.864-1.887,2.896-2.831,7.212-2.831,12.946Zm5.457-27.388c0-.953.326-1.819.978-2.598.652-.777,1.435-1.167,2.349-1.167.525,0,1.089.16,1.693.481.603.321,2.198,1.299,4.786,2.933,1.518.954,2.772,1.751,3.765,2.394l-1.021,2.626c-.953-.111-2.267-.303-3.939-.573-1.673-.271-3.366-.537-5.078-.798-2.354-.331-3.531-1.431-3.531-3.298Z" fill="#47422f"/>
      <path d="m637.407,533.397v-2.802h1.488c1.187,0,2.266-.059,3.239-.175.836-.077,1.332-.189,1.488-.336.155-.146.233-.559.233-1.24v-33.647h-6.449v-2.801h13.278c.525,0,.905.02,1.138.058.233.04.486.171.759.395.272.224.515.569.729,1.036l14.329,31.634,14.358-31.634c.311-.681.637-1.1.978-1.255.34-.156.89-.233,1.649-.233h13.19v2.801h-6.274v35.398h6.274v2.802c-1.428-.117-4.804-.175-10.127-.175-5.285,0-8.64.058-10.067.175v-2.802h6.274v-35.398h-.058l-16.663,36.771c-.448.953-1.09,1.43-1.926,1.43s-1.469-.496-1.897-1.488l-16.254-35.924h-.059v32.859c0,.682.078,1.095.234,1.24.155.146.671.259,1.546.336,1.07.116,2.13.175,3.181.175h1.488v2.802c-1.634-.117-4.329-.175-8.083-.175-3.813,0-6.479.058-7.996.175Z" fill="#47422f"/>
    </g>
    <g>
      <path d="m244.729,152.45h-1.093v-2.516h-13.673v2.516h-1.093v-14.481l5.624-.717v1.093c-.639.076-1.166.165-1.581.268-.415.103-.824.262-1.227.479-.403.216-.723.487-.959.813s-.422.756-.559,1.287c-.137.531-.206,1.161-.206,1.89v3.54h6v-1.286c0-1.04-.211-1.711-.632-2.015-.421-.304-1.122-.456-2.101-.456v-1.093h6.558v1.093c-.979,0-1.679.152-2.101.456s-.632.975-.632,2.015v1.286h6.581v-3.539c0-.698-.051-1.316-.154-1.855s-.273-.994-.512-1.366c-.239-.371-.496-.687-.769-.944-.273-.258-.632-.473-1.076-.644s-.869-.295-1.273-.374c-.405-.078-.908-.177-1.51-.294v-1.104l6.387,1.08v14.87Z" fill="#47422f"/>
      <path d="m244.729,134.85h-1.093v-2.516h-13.81v2.516h-1.093c.045-.592.068-2.015.068-4.269,0-2.46-.023-4.026-.068-4.702h1.093v3.142h13.81v-2.401c0-.577-.074-1.103-.222-1.577s-.326-.861-.535-1.161c-.208-.3-.489-.575-.842-.825-.353-.251-.661-.438-.922-.563-.262-.126-.604-.237-1.024-.336-.421-.099-.732-.16-.934-.183s-.473-.062-.814-.118v-1.157l6.387.771v13.38Z" fill="#47422f"/>
      <path d="m244.729,118.877h-1.093v-2.652h-13.81v2.652h-1.093c.045-.638.068-2.073.068-4.309s-.023-3.672-.068-4.31h1.093v2.652h13.81v-2.652h1.093c-.045.638-.068,2.074-.068,4.31s.023,3.671.068,4.309Z" fill="#47422f"/>
      <path d="m244.729,108.585h-1.093v-2.516h-13.673v2.516h-1.093v-14.105l5.624-.717v1.093c-.624.076-1.134.161-1.529.256s-.805.243-1.227.444-.75.461-.981.779c-.232.319-.422.742-.571,1.27s-.223,1.156-.223,1.885v3.267h6.285v-1.161c0-1.039-.211-1.707-.632-2.003-.421-.297-1.122-.444-2.101-.444v-1.104h6.546v1.104c-.979,0-1.677.147-2.095.444-.417.296-.626.964-.626,2.003v1.161h6.296v-3.142h1.093c-.045.683-.068,2.25-.068,4.702,0,2.254.023,3.677.068,4.269Z" fill="#47422f"/>
      <path d="m244.729,94.673h-1.093v-.49c0-.804-.04-1.316-.12-1.536-.08-.221-.219-.368-.417-.444l-14.036-5.783c-.174-.061-.296-.114-.364-.16-.068-.045-.127-.127-.176-.244-.049-.118-.074-.286-.074-.507,0-.175.01-.3.028-.376.019-.075.074-.169.165-.278.091-.11.232-.203.421-.279l14.573-5.966v-2.266h1.093c-.045.547-.068,1.814-.068,3.803,0,2.148.023,3.518.068,4.11h-1.093v-2.221l-3.416,1.4v6.251l2.833,1.161c.061.061.152.091.274.091.206,0,.309-.69.309-2.072h1.093c-.045.577-.068,1.602-.068,3.074,0,.053.023.964.068,2.732Zm-5.601-5.453v-5.317l-6.478,2.653,6.478,2.664Z" fill="#47422f"/>
      <path d="m244.729,74.579h-1.093v-.672c0-.479-.023-.952-.068-1.423-.03-.356-.07-.587-.12-.688-.049-.103-.143-.207-.279-.313l-6.182-4.713-7.161,5.18v2.288h-1.093c.045-.546.068-1.806.068-3.779,0-2.179-.023-3.587-.068-4.224h1.093v1.935l4.6-3.335-4.087-3.074c-.015-.015-.057-.046-.125-.091-.068-.046-.11-.076-.125-.092-.175.547-.262,1.261-.262,2.141h-1.093c.045-.562.068-1.741.068-3.54,0-1.428-.023-2.471-.068-3.131h1.093v.683c0,.531.023.979.068,1.344.031.402.066.654.108.757.042.103.146.218.313.348l5.157,3.916,8.163-5.897v-2.288h1.093c-.045.546-.068,1.807-.068,3.779,0,2.179.023,3.583.068,4.213h-1.093v-1.936l-5.624,4.064,5.111,3.848c.016.016.057.046.125.091.068.046.11.076.125.092.175-.547.262-1.26.262-2.141h1.093c-.045.562-.068,1.742-.068,3.541,0,1.427.023,2.467.068,3.119Z" fill="#47422f"/>
      <path d="m244.729,54.166h-1.093v-.49c0-.804-.04-1.316-.12-1.536-.08-.221-.219-.368-.417-.444l-14.035-5.783c-.174-.061-.296-.114-.364-.16-.068-.045-.127-.127-.176-.244-.049-.118-.074-.286-.074-.507,0-.175.01-.3.028-.376.019-.075.074-.169.165-.278.091-.11.232-.203.421-.279l14.573-5.966v-2.266h1.093c-.045.547-.068,1.814-.068,3.803,0,2.148.023,3.518.068,4.11h-1.093v-2.221l-3.416,1.4v6.251s2.833,1.161,2.833,1.161c.061.061.152.091.274.091.206,0,.309-.69.309-2.072h1.093c-.045.577-.068,1.602-.068,3.074,0,.053.023.964.068,2.732Zm-5.601-5.453v-5.317s-6.478,2.653-6.478,2.653l6.478,2.664Z" fill="#47422f"/>
      <path d="m244.331,33.378h-4.247c-.296,0-.482-.026-.558-.08-.076-.053-.114-.212-.114-.478,0-.122.008-.219.023-.291.016-.071.046-.127.091-.165.046-.038.097-.061.154-.068.057-.007.146-.011.268-.011.807-.046,1.495-.268,2.066-.666s.981-.905,1.233-1.521c.251-.614.422-1.186.513-1.713.092-.527.137-1.064.137-1.611,0-1.085-.279-1.861-.838-2.328-.559-.467-1.188-.7-1.887-.7-.73,0-1.41.312-2.042.935-.235.25-.392.528-.469.834-.077.306-.255,1.014-.536,2.125-.312,1.412-.569,2.38-.771,2.903-.202.523-.565,1.047-1.091,1.571-.89.842-1.929,1.264-3.117,1.264-1.316,0-2.423-.454-3.32-1.361-.897-.907-1.345-2.203-1.345-3.889,0-1.593.417-2.928,1.253-4.003l-1.007-1.104c-.164-.192-.246-.353-.246-.48v-.012c0-.2.042-.324.125-.372s.258-.072.523-.072h4.27c.281,0,.459.029.535.087.076.059.114.231.114.521,0,.256-.027.413-.08.472-.054.058-.229.111-.526.161-1,.17-1.812.519-2.437,1.047-.625.528-1.04,1.089-1.242,1.68-.202.591-.303,1.227-.303,1.906,0,1.027.251,1.768.752,2.222.502.455,1.062.682,1.68.682.648,0,1.18-.208,1.595-.625.415-.417.687-.873.814-1.368l.707-3.383c.239-1.182.813-2.186,1.725-3.014.912-.827,1.998-1.241,3.259-1.241,1.335,0,2.502.458,3.5,1.375.998.918,1.496,2.297,1.496,4.139,0,1.896-.425,3.401-1.275,4.519l1.061,1.169c.136.166.207.328.214.485,0,.208-.043.336-.131.386s-.264.075-.529.075Z" fill="#47422f"/>
      <path d="m272.708,442.637h-1.093v-2.516h-13.81v2.516h-1.093v-10.029c0-2.36.73-4.302,2.191-5.823,1.461-1.522,3.444-2.283,5.949-2.283,2.444,0,4.364.757,5.761,2.271,1.396,1.514,2.095,3.451,2.095,5.812v10.053Zm-1.093-5.692v-3.403c0-2.148-.653-3.678-1.958-4.589-.531-.371-1.153-.635-1.867-.791-.713-.155-1.7-.233-2.96-.233-2.314,0-3.962.334-4.941,1.002-1.381.964-2.076,2.501-2.083,4.611v3.403h13.81Z" fill="#47422f"/>
      <path d="m259.638,420.619c-.349.334-.78.501-1.292.501s-.943-.171-1.292-.513c-.349-.342-.523-.777-.523-1.31,0-.637.279-1.161.837-1.57.558-.41,1.25-.615,2.078-.615.592,0,1.174.086,1.748.256.573.171,1.062.38,1.469.627.406.246.763.506,1.07.779.308.273.539.515.695.724.155.208.233.36.233.455s-.042.193-.125.296-.18.153-.29.153-.273-.113-.49-.341c-.216-.229-.461-.48-.734-.758-.273-.276-.713-.552-1.321-.825-.607-.273-1.305-.44-2.095-.501.372.418.558.858.558,1.32,0,.547-.175.987-.524,1.321Z" fill="#47422f"/>
      <path d="m272.708,414.664h-1.093v-2.516h-13.673v2.516h-1.093v-14.481l5.624-.717v1.093c-.639.076-1.166.165-1.581.268-.415.103-.824.262-1.227.479-.403.216-.723.487-.959.813s-.422.756-.559,1.287c-.137.531-.206,1.161-.206,1.89v3.54h6v-1.286c0-1.04-.211-1.711-.632-2.015-.421-.304-1.122-.456-2.101-.456v-1.093h6.558v1.093c-.979,0-1.679.152-2.101.456s-.632.975-.632,2.015v1.286h6.581v-3.539c0-.698-.051-1.316-.154-1.855s-.273-.994-.512-1.366c-.239-.371-.496-.687-.769-.944-.273-.258-.632-.473-1.076-.644s-.869-.295-1.273-.374c-.405-.078-.908-.177-1.51-.294v-1.104l6.387,1.08v14.87Z" fill="#47422f"/>
      <path d="m272.708,397.063h-1.093v-2.516h-13.81v2.516h-1.093v-8.857c0-2.132.411-3.823,1.234-5.071.822-1.249,1.848-1.873,3.075-1.873.828,0,1.579.326,2.255.979.676.651,1.177,1.622,1.503,2.91.562-1.505,1.471-2.384,2.726-2.637.03,0,.343-.045.939-.136.596-.09.939-.142,1.029-.155.345-.053.632-.097.861-.131.229-.035.503-.108.822-.22.32-.112.562-.28.725-.503.164-.224.246-.496.246-.816,0-.374-.141-.702-.421-.984s-.679-.454-1.195-.515c-.121-.016-.212-.03-.273-.046-.061-.016-.119-.062-.176-.143s-.085-.195-.085-.348c0-.371.171-.558.512-.558.106,0,.243.016.41.046s.374.104.62.223c.247.118.477.271.689.457s.393.463.541.828c.148.365.222.784.222,1.256,0,1.456-.206,2.579-.618,3.37-.19.381-.402.686-.634.913-.233.228-.521.388-.864.481-.343.093-1.223.19-2.64.293,0,0-.286.021-.86.062-.574.042-1.054.247-1.438.617-.527.485-.79,1.187-.79,2.104v2.762h6.489v-2.516h1.093c-.045.562-.068,1.93-.068,4.104s.023,3.542.068,4.104Zm-8.425-5.692v-2.698c0-.729-.078-1.351-.233-1.867-.155-.516-.326-.9-.511-1.155-.186-.254-.455-.447-.807-.58-.352-.133-.632-.207-.841-.223-.208-.015-.491-.022-.847-.022-.372,0-.67.012-.898.034s-.508.101-.841.233c-.333.133-.593.322-.779.569-.186.247-.352.624-.5,1.133-.147.509-.222,1.119-.222,1.833v2.743h6.478Z" fill="#47422f"/>
      <path d="m272.708,376.925h-1.093v-.49c0-.804-.04-1.316-.12-1.536-.08-.221-.219-.368-.417-.444l-14.036-5.783c-.174-.061-.296-.114-.364-.16-.068-.045-.127-.127-.176-.244-.049-.118-.074-.286-.074-.507,0-.175.01-.3.028-.376.019-.075.074-.169.165-.278.091-.11.232-.203.421-.279l14.573-5.966v-2.266h1.093c-.045.547-.068,1.814-.068,3.803,0,2.148.023,3.518.068,4.11h-1.093v-2.221l-3.416,1.4v6.251l2.833,1.161c.061.061.152.091.274.091.206,0,.309-.69.309-2.072h1.093c-.045.577-.068,1.602-.068,3.074,0,.053.023.964.068,2.732Zm-5.601-5.453v-5.317l-6.478,2.653,6.478,2.664Z" fill="#47422f"/>
      <path d="m272.708,356.83h-1.093v-.672c0-.479-.023-.952-.068-1.423-.03-.356-.07-.587-.12-.688-.049-.103-.143-.207-.279-.313l-6.182-4.713-7.161,5.18v2.288h-1.093c.045-.546.068-1.806.068-3.779,0-2.179-.023-3.587-.068-4.224h1.093v1.935l4.6-3.335-4.087-3.074c-.015-.015-.057-.046-.125-.091-.068-.046-.11-.076-.125-.092-.175.547-.262,1.261-.262,2.141h-1.093c.045-.562.068-1.741.068-3.54,0-1.428-.023-2.471-.068-3.131h1.093v.683c0,.531.023.979.068,1.344.031.402.066.654.108.757.042.103.146.218.313.348l5.157,3.916,8.163-5.897v-2.288h1.093c-.045.546-.068,1.807-.068,3.779,0,2.179.023,3.583.068,4.213h-1.093v-1.936l-5.624,4.064,5.111,3.848c.016.016.057.046.125.091.068.046.11.076.125.092.175-.547.262-1.26.262-2.141h1.093c-.045.562-.068,1.742-.068,3.541,0,1.427.023,2.467.068,3.119Z" fill="#47422f"/>
      <path d="m272.708,336.462h-1.093v-2.516h-13.673v2.516h-1.093v-14.481l5.624-.717v1.093c-.639.076-1.166.165-1.581.268-.415.103-.824.262-1.227.479-.403.216-.723.487-.959.813s-.422.756-.559,1.287c-.137.531-.206,1.161-.206,1.89v3.54h6v-1.286c0-1.04-.211-1.711-.632-2.015-.421-.304-1.122-.456-2.101-.456v-1.093h6.558v1.093c-.979,0-1.679.152-2.101.456s-.632.975-.632,2.015v1.286h6.581v-3.539c0-.698-.051-1.316-.154-1.855s-.273-.994-.512-1.366c-.239-.371-.496-.687-.769-.944-.273-.258-.632-.473-1.076-.644s-.869-.295-1.273-.374c-.405-.078-.908-.177-1.51-.294v-1.104l6.387,1.08v14.87Z" fill="#47422f"/>
      <path d="m272.708,318.861h-1.093v-.58c0-.463-.023-.885-.068-1.264-.03-.326-.074-.52-.131-.581-.057-.061-.218-.091-.484-.091h-13.127v2.516h-1.093v-5.339c0-.235.015-.391.045-.467.031-.076.118-.175.262-.296l10.906-9.29h-9.438c-.266,0-.425.032-.478.096-.053.064-.099.267-.137.606-.045.416-.068.824-.068,1.225v.589h-1.093c.045-.637.068-1.686.068-3.147,0-1.493-.023-2.53-.068-3.114h1.093v.578c0,.461.023.881.068,1.258.031.325.074.518.131.578.057.061.218.091.484.091h13.468c.312,0,.514.031.609.092.095.062.142.241.142.54,0,.19-.015.312-.045.364-.03.054-.118.141-.262.263l-13.662,11.617h12.193c.266,0,.427-.03.484-.091.057-.061.101-.262.131-.604.045-.417.068-.831.068-1.241v-.58h1.093c-.045.638-.068,1.688-.068,3.153,0,1.487.023,2.527.068,3.119Z" fill="#47422f"/>
      <path d="m272.708,298.017h-1.093v-2.652h-13.81v2.652h-1.093c.045-.638.068-2.073.068-4.309s-.023-3.672-.068-4.31h1.093v2.652h13.81v-2.652h1.093c-.045.638-.068,2.074-.068,4.31s.023,3.671.068,4.309Z" fill="#47422f"/>
      <path d="m272.708,287.725h-1.093v-2.516h-13.81v2.516h-1.093c.045-.592.068-2.015.068-4.269,0-2.46-.023-4.026-.068-4.702h1.093v3.142h13.81v-2.401c0-.577-.074-1.103-.222-1.577s-.326-.861-.535-1.161c-.208-.3-.489-.575-.842-.825-.353-.251-.661-.438-.922-.563-.262-.126-.604-.237-1.024-.336-.421-.099-.732-.16-.934-.183s-.473-.062-.814-.118v-1.157l6.387.771v13.38Z" fill="#47422f"/>
      <path d="m257.805,271.615h-1.093c.045-.592.068-1.982.068-4.172s-.023-3.581-.068-4.173h1.093v2.516h9.708c.387,0,.714-.011.98-.034.266-.022.632-.107,1.099-.256.467-.147.849-.354,1.146-.62.296-.266.56-.674.792-1.224.232-.551.348-1.213.348-1.987,0-.668-.082-1.294-.245-1.878-.163-.585-.416-1.122-.757-1.611-.342-.489-.821-.878-1.436-1.167-.615-.288-1.333-.433-2.153-.433h-8.796c-.266,0-.425.032-.479.097-.053.064-.099.267-.137.606-.045.415-.068.823-.068,1.224v.578h-1.093c.045-.637.068-1.682.068-3.137,0-1.492-.023-2.534-.068-3.125h1.093v.589c0,.461.023.877.068,1.247.031.325.074.52.131.584.057.064.218.096.484.096h8.888c1.554,0,2.875.548,3.962,1.643,1.088,1.095,1.631,2.688,1.631,4.779,0,2.314-.533,4.117-1.6,5.407-1.066,1.29-2.415,1.936-4.047,1.936h-9.518v2.516Z" fill="#47422f"/>
      <path d="m272.708,251.146h-1.093v-2.652h-13.81v2.652h-1.093c.045-.638.068-2.073.068-4.309s-.023-3.672-.068-4.31h1.093v2.652h13.81v-2.652h1.093c-.045.638-.068,2.074-.068,4.31s.023,3.671.068,4.309Z" fill="#47422f"/>
      <path d="m272.708,240.854h-1.093v-.58c0-.463-.023-.885-.068-1.264-.03-.326-.074-.52-.131-.581-.057-.061-.218-.091-.484-.091h-13.127v2.516h-1.093v-5.339c0-.235.015-.391.045-.467.031-.076.118-.175.262-.296l10.906-9.29h-9.438c-.266,0-.425.032-.478.096-.053.064-.099.267-.137.606-.045.416-.068.824-.068,1.225v.589h-1.093c.045-.637.068-1.686.068-3.147,0-1.493-.023-2.53-.068-3.114h1.093v.578c0,.461.023.881.068,1.258.031.325.074.518.131.578.057.061.218.091.484.091h13.468c.312,0,.514.031.609.092.095.062.142.241.142.54,0,.19-.015.312-.045.364-.03.054-.118.141-.262.263l-13.662,11.617h12.193c.266,0,.427-.03.484-.091.057-.061.101-.262.131-.604.045-.417.068-.831.068-1.241v-.58h1.093c-.045.638-.068,1.688-.068,3.153,0,1.487.023,2.527.068,3.119Z" fill="#47422f"/>
      <path d="m272.309,219.291h-4.247c-.296,0-.482-.026-.558-.08-.076-.053-.114-.212-.114-.478,0-.122.008-.219.023-.291.016-.071.046-.127.091-.165.046-.038.097-.061.154-.068.057-.007.146-.011.268-.011.807-.046,1.495-.268,2.066-.666s.981-.905,1.233-1.521c.251-.614.422-1.186.513-1.713.092-.527.137-1.064.137-1.611,0-1.085-.279-1.861-.838-2.328-.559-.467-1.188-.7-1.887-.7-.73,0-1.41.312-2.042.935-.235.25-.392.528-.469.834-.077.306-.255,1.014-.536,2.125-.312,1.412-.569,2.38-.771,2.903-.202.523-.565,1.047-1.091,1.571-.89.842-1.929,1.264-3.117,1.264-1.316,0-2.423-.454-3.32-1.361-.897-.907-1.345-2.203-1.345-3.889,0-1.593.417-2.928,1.253-4.003l-1.007-1.104c-.164-.192-.246-.353-.246-.48v-.012c0-.2.042-.324.125-.372s.258-.072.523-.072h4.27c.281,0,.459.029.535.087.076.059.114.231.114.521,0,.256-.027.413-.08.472-.054.058-.229.111-.526.161-1,.17-1.812.519-2.437,1.047-.625.528-1.04,1.089-1.242,1.68-.202.591-.303,1.227-.303,1.906,0,1.027.251,1.768.752,2.222.502.455,1.062.682,1.68.682.648,0,1.18-.208,1.595-.625.415-.417.687-.873.814-1.368l.707-3.383c.239-1.182.813-2.186,1.725-3.014.912-.827,1.998-1.241,3.259-1.241,1.335,0,2.502.458,3.5,1.375.998.918,1.496,2.297,1.496,4.139,0,1.896-.425,3.401-1.275,4.519l1.061,1.169c.136.166.207.328.214.485,0,.208-.043.336-.131.386s-.264.075-.529.075Z" fill="#47422f"/>
      <path d="m272.708,196.077h-1.093v-2.516h-13.81v2.516h-1.093v-10.029c0-2.36.73-4.302,2.191-5.823,1.461-1.522,3.444-2.283,5.949-2.283,2.444,0,4.364.757,5.761,2.271,1.396,1.514,2.095,3.451,2.095,5.812v10.053Zm-1.093-5.692v-3.403c0-2.148-.653-3.678-1.958-4.589-.531-.371-1.153-.635-1.867-.791-.713-.155-1.7-.233-2.96-.233-2.314,0-3.962.334-4.941,1.002-1.381.964-2.076,2.501-2.083,4.611v3.403h13.81Z" fill="#47422f"/>
      <path d="m254.583,168.731c-1.396-2.209-2.125-3.382-2.186-3.518-.045-.137-.068-.285-.068-.444v-.022c0-.357.15-.664.45-.923.3-.258.64-.387,1.019-.387.122,0,.241.012.359.034s.214.066.29.131c.076.064.149.119.22.165.071.046.128.127.173.245.044.117.082.199.111.244.03.046.06.146.089.302.03.156.048.249.056.279s.026.133.056.308l.022.25c.089.562.234,1.549.434,2.96l-1.024.376Zm18.125,6.808h-1.093v-2.516h-13.673v2.516h-1.093v-14.481l5.624-.717v1.093c-.639.076-1.166.165-1.581.268-.415.103-.824.262-1.227.479-.403.216-.723.487-.959.813s-.422.756-.559,1.287c-.137.531-.206,1.161-.206,1.89v3.54h6v-1.286c0-1.04-.211-1.711-.632-2.015-.421-.304-1.122-.456-2.101-.456v-1.093h6.558v1.093c-.979,0-1.679.152-2.101.456s-.632.975-.632,2.015v1.286h6.581v-3.539c0-.698-.051-1.316-.154-1.855s-.273-.994-.512-1.366c-.239-.371-.496-.687-.769-.944-.273-.258-.632-.473-1.076-.644s-.869-.295-1.273-.374c-.405-.078-.908-.177-1.51-.294v-1.104l6.387,1.08v14.87Z" fill="#47422f"/>
      <path d="m272.104,148.433c-.22,0-.421-.061-.603-.183l-13.696-9.335v3.039c0,1.632.366,2.853,1.099,3.66.733.809,1.877,1.259,3.433,1.35v1.093l-5.624-.273v-11.988c0-.204.008-.349.023-.433.015-.083.066-.157.153-.222.087-.064.224-.097.41-.097s.37.064.552.193l13.673,9.302v-3.268c0-.668-.059-1.266-.176-1.793s-.262-.966-.433-1.315c-.171-.349-.412-.656-.723-.922-.311-.266-.6-.469-.865-.609-.266-.14-.611-.26-1.036-.358-.425-.099-.781-.165-1.07-.199s-.668-.066-1.139-.097v-1.093l6.626.421v12.375c0,.205-.007.352-.023.438-.015.088-.064.161-.148.223-.083.061-.228.091-.433.091Z" fill="#47422f"/>
      <path d="m272.708,132.607h-1.093v-.49c0-.804-.04-1.316-.12-1.536-.08-.221-.219-.368-.417-.444l-14.036-5.783c-.174-.061-.296-.114-.364-.16-.068-.045-.127-.127-.176-.244-.049-.118-.074-.286-.074-.507,0-.175.01-.3.028-.376.019-.075.074-.169.165-.278.091-.11.232-.203.421-.279l14.573-5.966v-2.266h1.093c-.045.547-.068,1.814-.068,3.803,0,2.148.023,3.518.068,4.11h-1.093v-2.221l-3.416,1.4v6.251l2.833,1.161c.061.061.152.091.274.091.206,0,.309-.69.309-2.072h1.093c-.045.577-.068,1.602-.068,3.074,0,.053.023.964.068,2.732Zm-5.601-5.453v-5.317l-6.478,2.653,6.478,2.664Z" fill="#47422f"/>
      <path d="m272.309,111.818h-4.247c-.296,0-.482-.026-.558-.08-.076-.053-.114-.212-.114-.478,0-.122.008-.219.023-.291.016-.071.046-.127.091-.165.046-.038.097-.061.154-.068.057-.007.146-.011.268-.011.807-.046,1.495-.268,2.066-.666s.981-.905,1.233-1.521c.251-.614.422-1.186.513-1.713.092-.527.137-1.064.137-1.611,0-1.085-.279-1.861-.838-2.328-.559-.467-1.188-.7-1.887-.7-.73,0-1.41.312-2.042.935-.235.25-.392.528-.469.834-.077.306-.255,1.014-.536,2.125-.312,1.412-.569,2.38-.771,2.903-.202.523-.565,1.047-1.091,1.571-.89.842-1.929,1.264-3.117,1.264-1.316,0-2.423-.454-3.32-1.361-.897-.907-1.345-2.203-1.345-3.889,0-1.593.417-2.928,1.253-4.003l-1.007-1.104c-.164-.192-.246-.353-.246-.48v-.012c0-.2.042-.324.125-.372s.258-.072.523-.072h4.27c.281,0,.459.029.535.087.076.059.114.231.114.521,0,.256-.027.413-.08.472-.054.058-.229.111-.526.161-1,.17-1.812.519-2.437,1.047-.625.528-1.04,1.089-1.242,1.68-.202.591-.303,1.227-.303,1.906,0,1.027.251,1.768.752,2.222.502.455,1.062.682,1.68.682.648,0,1.18-.208,1.595-.625.415-.417.687-.873.814-1.368l.707-3.383c.239-1.182.813-2.186,1.725-3.014.912-.827,1.998-1.241,3.259-1.241,1.335,0,2.502.458,3.5,1.375.998.918,1.496,2.297,1.496,4.139,0,1.896-.425,3.401-1.275,4.519l1.061,1.169c.136.166.207.328.214.485,0,.208-.043.336-.131.386s-.264.075-.529.075Z" fill="#47422f"/>
      <path d="m264.812,96.95c-2.491,0-4.505-.774-6.043-2.322-1.538-1.549-2.307-3.636-2.307-6.262,0-2.581.762-4.651,2.284-6.211,1.523-1.56,3.545-2.339,6.066-2.339,2.419,0,4.384.768,5.894,2.305,1.509,1.537,2.264,3.626,2.264,6.268,0,2.611-.749,4.69-2.247,6.239-1.498,1.548-3.468,2.322-5.911,2.322Zm-.353-3.563c2.207,0,3.91-.319,5.108-.956.827-.448,1.437-1.042,1.832-1.782.394-.74.591-1.493.591-2.26,0-1.708-.739-3.021-2.218-3.939-1.183-.713-2.954-1.07-5.312-1.07-2.146,0-3.77.327-4.869.979-.728.448-1.276,1.034-1.644,1.759s-.552,1.482-.552,2.271c0,.744.169,1.467.506,2.169s.84,1.277,1.507,1.725c1.13.736,2.813,1.104,5.051,1.104Z" fill="#47422f"/>
      <path d="m264.811,76.833c-2.491,0-4.505-.774-6.042-2.322-1.538-1.549-2.307-3.636-2.307-6.262,0-2.581.761-4.651,2.284-6.211,1.523-1.56,3.544-2.339,6.065-2.339.698,0,1.381.077,2.048.232.667.156,1.354.401,2.06.734.706.335,1.354.831,1.946,1.492.591.66,1.065,1.449,1.422,2.367.327-.22.59-.431.792-.632.201-.2.341-.399.421-.598.08-.197.127-.353.143-.467.015-.113.023-.266.023-.455,0-1.229-.304-1.89-.911-1.98-.311-.046-.467-.187-.467-.422,0-.28.201-.421.604-.421.607,0,1.222.095,1.844.284.623.19,1.193.541,1.713,1.054.52.512.78,1.133.78,1.861,0,.417-.082.789-.245,1.115-.163.327-.345.587-.546.78s-.531.385-.99.575c-.459.189-.856.33-1.19.421s-.835.224-1.503.398c.137.698.209,1.435.216,2.209,0,2.656-.755,4.751-2.264,6.284-1.51,1.533-3.475,2.3-5.895,2.3Zm-.022-3.427c.637,0,1.197-.023,1.679-.068.482-.046,1.083-.15,1.804-.313.721-.163,1.362-.463,1.924-.899s1.005-.988,1.332-1.656c-.105.046-.279.068-.521.068-.548,0-1.003-.226-1.364-.678-.362-.451-.542-.98-.542-1.588,0-.479.127-.928.382-1.349.255-.422.497-.726.725-.911.229-.186.529-.404.902-.654-1.017-1.488-3.108-2.231-6.274-2.231-2.207,0-3.867.318-4.982.956-1.63.918-2.449,2.314-2.457,4.189,0,.312.032.63.097.956.064.327.182.693.353,1.099.171.406.438.807.802,1.201.364.395.812.732,1.342,1.014,1.107.576,2.707.865,4.8.865Zm6.217-3.712c.136,0,.272-.026.408-.079.136-.054.274-.197.414-.433s.209-.547.209-.934c0-.714-.125-1.352-.374-1.913-1.147.357-1.721.994-1.721,1.913,0,.387.1.725.3,1.013.2.289.455.433.764.433Z" fill="#47422f"/>
      <path d="m257.805,57.297h-1.093c.045-.592.068-1.982.068-4.172s-.023-3.581-.068-4.173h1.093v2.516h9.708c.387,0,.714-.011.98-.034.266-.022.632-.107,1.099-.256.467-.147.849-.354,1.146-.62.296-.266.56-.674.792-1.224.232-.551.348-1.213.348-1.987,0-.668-.081-1.294-.245-1.878-.163-.585-.416-1.122-.757-1.611-.342-.489-.821-.878-1.436-1.167-.615-.288-1.333-.433-2.153-.433h-8.796c-.266,0-.425.032-.479.097-.053.064-.099.267-.137.606-.045.415-.068.823-.068,1.224v.578h-1.093c.045-.637.068-1.682.068-3.137,0-1.492-.023-2.534-.068-3.125h1.093v.589c0,.461.023.877.068,1.247.031.325.074.52.131.584.057.064.218.096.484.096h8.888c1.554,0,2.875.548,3.962,1.643,1.088,1.095,1.631,2.688,1.631,4.779,0,2.314-.533,4.117-1.6,5.407-1.066,1.29-2.415,1.936-4.047,1.936h-9.518v2.516Z" fill="#47422f"/>
      <path d="m272.708,36.69h-1.093v-2.516h-13.673v2.516h-1.093v-14.481l5.624-.717v1.093c-.639.076-1.166.165-1.581.268-.415.103-.824.262-1.227.479-.403.216-.723.487-.959.813s-.422.756-.559,1.287c-.137.531-.206,1.161-.206,1.89v3.54h6v-1.286c0-1.04-.211-1.711-.632-2.015-.421-.304-1.122-.456-2.101-.456v-1.093h6.558v1.093c-.979,0-1.679.152-2.101.456s-.632.975-.632,2.015v1.286h6.581v-3.539c0-.698-.051-1.316-.154-1.855s-.273-.994-.512-1.366c-.239-.371-.496-.687-.769-.944-.273-.258-.632-.473-1.076-.644s-.869-.295-1.273-.374c-.405-.078-.908-.177-1.51-.294v-1.104l6.387,1.08v14.87Z" fill="#47422f"/>
    </g>
    <g>
      <path d="m123.665,408.516h-41.829c-23.102,0-41.829,18.728-41.829,41.829h0s41.829,0,41.829,0h.004c23.099,0,41.825,18.726,41.825,41.825h0s-41.829,0-41.829,0h0c-23.102,0-41.829,18.728-41.829,41.829h0s41.829,0,41.829,0h41.829c23.102,0,41.829-18.728,41.829-41.829h0s-41.747,0-41.747,0c23.063-.045,41.746-18.752,41.747-41.825h0v-.002h0v-41.827h-41.829Z" fill="#c1b88b"/>
      <path d="m123.665,536.5H37.506v-2.5c0-24.443,19.886-44.329,44.33-44.329h39.25c-1.293-20.524-18.402-36.825-39.247-36.825h-44.333v-2.5c0-24.443,19.886-44.329,44.33-44.329h86.159v44.327c0,17.064-9.713,31.923-23.9,39.327h23.9v2.5c0,24.443-19.886,44.329-44.33,44.329Zm-81.08-5h81.08c20.847,0,37.958-16.303,39.251-36.829h-81.08c-20.847,0-37.958,16.303-39.251,36.829Zm0-83.654h39.251c23.581,0,42.918,18.503,44.255,41.751,20.553-1.259,36.902-18.397,36.903-39.251v-39.329h-81.159c-20.847,0-37.958,16.303-39.251,36.829Z" fill="url(#d)"/>
    </g>
    <g>
      <g>
        <polygon points="172.253 82.469 172.871 75.01 168.777 68.745 166.94 61.49 161.034 56.893 156.941 50.628 149.862 48.198 143.956 43.601 136.472 43.601 129.393 41.171 122.315 43.601 114.831 43.601 108.925 48.198 107.045 48.843 105.165 48.198 99.259 43.601 91.775 43.601 84.697 41.171 77.618 43.601 70.134 43.601 64.228 48.198 57.149 50.628 53.056 56.893 47.15 61.49 45.313 68.745 41.219 75.01 41.837 82.469 40 89.724 43.006 96.578 43.624 104.036 48.693 109.543 51.7 116.396 58.282 119.958 63.351 125.465 70.733 126.697 77.315 130.259 84.697 129.027 92.079 130.259 98.661 126.697 106.043 125.465 107.045 124.376 108.047 125.465 115.429 126.697 122.011 130.259 129.393 129.027 136.775 130.259 143.358 126.697 150.74 125.465 155.808 119.958 162.391 116.396 165.397 109.543 170.466 104.036 171.084 96.578 174.09 89.724 172.253 82.469" fill="#2c2c2c"/>
        <path d="m136.862,130.78l-7.469-1.247-7.469,1.247-6.66-3.604-7.469-1.246-.751-.815-.75.815-7.469,1.246-6.66,3.604-7.469-1.247-7.469,1.247-6.66-3.604-7.469-1.246-5.129-5.571-6.66-3.604-3.042-6.935-5.128-5.572-.625-7.546-3.042-6.935,1.859-7.341-.625-7.546,4.142-6.339,1.859-7.341,5.976-4.652,4.142-6.338,7.162-2.46,5.975-4.65h7.573l7.162-2.458,7.162,2.458h7.572l5.976,4.651,1.638.562,1.639-.563,5.975-4.65h7.573l7.162-2.458,7.162,2.458h7.572l5.976,4.65,7.162,2.46,4.142,6.338,5.976,4.652,1.859,7.34,4.142,6.34-.625,7.546,1.858,7.341-3.042,6.935-.625,7.546-5.128,5.572-3.042,6.935-6.66,3.604-5.129,5.571-7.469,1.246-6.66,3.604Zm-28.563-5.78l7.368,1.257,6.431,3.48,7.295-1.218,7.295,1.218,6.587-3.534,7.213-1.203,5.083-5.481,6.431-3.48,3.028-6.834,4.952-5.38.644-7.447,2.938-6.697-1.815-7.169.611-7.37-4.066-6.272-1.794-7.089-5.882-4.613-4-6.121-7.061-2.453-5.771-4.491-7.474-.027-6.917-2.374-7.079,2.401h-7.312l-5.915,4.569-2.042.701-2.187-.779-5.771-4.491-7.474-.027-6.917-2.374-7.079,2.401h-7.312l-5.915,4.569-6.917,2.375-4.111,6.242-5.771,4.492-1.861,7.239-3.999,6.122.611,7.37-1.816,7.169,2.978,6.857.604,7.287,5.043,5.518,2.938,6.696,6.561,3.581,4.953,5.381,7.368,1.257,6.431,3.48,7.295-1.218,7.295,1.218,6.587-3.534,7.213-1.203,1.253-1.362,1.254,1.362Z" fill="#fdde59"/>
      </g>
      <path d="m91.427,126.326l-6.73-1.124-6.731,1.124-6.001-3.248-6.73-1.124-4.622-5.02-6.001-3.248-2.741-6.249-4.622-5.021-.563-6.801-2.741-6.248,1.675-6.615-.563-6.801,3.732-5.713,1.676-6.615,5.385-4.191,3.732-5.712,6.454-2.217,5.385-4.19h6.824l6.454-2.216,6.454,2.216h6.824l5.385,4.19,6.454,2.217,3.732,5.712,5.385,4.191,1.676,6.615,3.732,5.713-.564,6.801,1.675,6.615-2.742,6.248-.563,6.801-4.622,5.021-2.741,6.249-6.001,3.248-4.622,5.02-6.73,1.124-6.002,3.248Zm-6.73-2.138l6.557,1.095,5.929-3.178,6.475-1.081,4.576-4.93,5.772-3.125,2.727-6.148,4.446-4.829.582-6.702,2.637-6.011-1.632-6.443.549-6.625-3.656-5.646-1.611-6.364-5.292-4.152-3.59-5.495-6.353-2.21-5.18-4.031-6.727-.027-6.208-2.132-6.371,2.159h-6.564l-5.325,4.109-6.208,2.132-3.702,5.616-5.18,4.031-1.678,6.515-3.59,5.495.549,6.625-1.632,6.443,2.677,6.171.542,6.542,4.536,4.967,2.637,6.011,5.902,3.226,4.446,4.829,6.63,1.135,5.773,3.124,6.557-1.095Z" fill="#fdde59"/>
      <path d="m136.124,126.326l-6.73-1.124-6.731,1.124-6.001-3.248-6.731-1.124-4.622-5.02-6.001-3.248-2.741-6.249-4.622-5.021-.563-6.801-2.741-6.248,1.675-6.615-.563-6.801,3.732-5.712,1.675-6.616,5.385-4.191,3.732-5.712,6.455-2.217,5.385-4.19h6.824l6.455-2.216,6.454,2.216h6.824l5.385,4.19,6.454,2.217,3.732,5.712,5.385,4.191,1.675,6.616,3.732,5.712-.563,6.801,1.675,6.615-2.742,6.248-.563,6.801-4.622,5.021-2.741,6.249-6.001,3.248-4.622,5.02-6.731,1.124-6.001,3.248Zm-6.73-2.138l6.557,1.095,5.928-3.178,6.475-1.081,4.576-4.93,5.772-3.125,2.727-6.148,4.446-4.829.582-6.702,2.637-6.011-1.632-6.443.549-6.625-3.656-5.646-1.611-6.364-5.292-4.152-3.59-5.495-6.353-2.21-5.18-4.031-6.727-.027-6.208-2.132-6.371,2.159h-6.563l-5.325,4.109-6.209,2.132-3.702,5.616-5.18,4.031-1.677,6.515-3.59,5.495.549,6.625-1.632,6.443,2.677,6.171.542,6.542,4.536,4.967,2.637,6.011,5.902,3.226,4.446,4.829,6.63,1.135,5.773,3.124,6.557-1.095Z" fill="#fdde59"/>
    </g>
    <g>
      <path d="m1045.663,521.756l.672-7.703h21.531l.672,7.703h-1.5c-.083-.896-.156-1.583-.219-2.062-.062-.479-.206-1.033-.43-1.664-.224-.63-.508-1.094-.852-1.391s-.825-.552-1.445-.766c-.62-.213-1.378-.32-2.273-.32h-2.422v18.594h4.891v1.5c-1.156-.062-3.547-.094-7.172-.094s-6.016.031-7.172.094v-1.5h4.906v-18.594h-2.469c-.896,0-1.659.112-2.289.336-.63.225-1.114.484-1.453.781s-.614.756-.828,1.375c-.214.62-.359,1.17-.438,1.648-.078.479-.148,1.167-.211,2.062h-1.5Z" fill="#47422f"/>
      <path d="m1069.243,535.647v-1.5h3.453v-18.766h-3.453v-1.5h19.875l.984,7.719h-1.5c-.104-.877-.227-1.601-.367-2.17-.141-.568-.359-1.13-.656-1.684-.297-.553-.669-.992-1.117-1.315-.448-.324-1.036-.58-1.766-.768-.729-.188-1.594-.282-2.594-.282h-4.859v8.234h1.766c1.427,0,2.349-.289,2.766-.867s.625-1.539.625-2.883h1.5v9h-1.5c0-1.344-.208-2.305-.625-2.883s-1.339-.867-2.766-.867h-1.766v9.031h4.858c.958,0,1.807-.07,2.546-.211s1.364-.375,1.875-.703c.51-.328.942-.68,1.296-1.055.354-.375.648-.867.883-1.477s.406-1.192.514-1.748c.108-.556.242-1.246.403-2.072h1.516l-1.481,8.766h-20.409Z" fill="#47422f"/>
      <path d="m1091.479,535.647v-1.5h3.453v-18.953h-3.453v-1.5h12.156c2.927,0,5.247.564,6.961,1.693s2.57,2.535,2.57,4.221c0,1.136-.447,2.168-1.343,3.095-.895.927-2.227,1.615-3.994,2.063,2.065.771,3.271,2.019,3.618,3.74,0,.042.062.472.187,1.289.124.818.195,1.289.214,1.412.072.475.132.868.18,1.182.048.314.147.69.302,1.129.153.439.383.771.69.995.307.225.681.337,1.12.337.513,0,.963-.192,1.351-.578.388-.385.623-.932.706-1.641.021-.166.042-.291.063-.375.021-.083.086-.164.195-.242s.269-.117.477-.117c.511,0,.766.234.766.703,0,.146-.021.334-.062.562-.042.229-.144.514-.306.852-.162.339-.371.654-.627.945-.256.292-.635.539-1.137.742s-1.076.305-1.725.305c-1.997,0-3.539-.283-4.625-.848-.522-.262-.939-.552-1.252-.871s-.533-.714-.661-1.186c-.128-.471-.263-1.678-.402-3.623,0,0-.028-.393-.085-1.181s-.34-1.446-.847-1.973c-.666-.724-1.629-1.085-2.887-1.085h-3.791v8.906h3.453v1.5c-.771-.062-2.648-.094-5.633-.094s-4.862.031-5.633.094Zm7.812-11.562h3.703c1,0,1.854-.106,2.562-.319.708-.214,1.237-.447,1.586-.702s.614-.624.797-1.107.284-.868.305-1.154.031-.674.031-1.162c0-.51-.016-.92-.047-1.232-.031-.312-.138-.696-.32-1.154-.183-.457-.442-.813-.781-1.068-.339-.254-.856-.483-1.555-.686-.698-.203-1.536-.305-2.516-.305h-3.766v8.891Z" fill="#47422f"/>
      <path d="m1116.903,524.811c0-3.419,1.062-6.184,3.188-8.295,2.125-2.11,4.989-3.166,8.594-3.166,3.542,0,6.383,1.045,8.523,3.135s3.211,4.865,3.211,8.326c0,3.32-1.055,6.017-3.164,8.088-2.109,2.072-4.977,3.107-8.602,3.107-3.583,0-6.438-1.027-8.562-3.084-2.125-2.056-3.188-4.76-3.188-8.111Zm4.891-.484c0,3.029.438,5.366,1.312,7.011.614,1.134,1.43,1.972,2.445,2.514,1.016.541,2.05.812,3.102.812,2.344,0,4.146-1.015,5.406-3.045.979-1.623,1.469-4.054,1.469-7.291,0-2.945-.448-5.173-1.344-6.682-.614-1-1.419-1.752-2.414-2.256-.995-.506-2.034-.758-3.117-.758-1.021,0-2.013.231-2.977.695-.964.463-1.753,1.152-2.367,2.068-1.011,1.551-1.516,3.861-1.516,6.932Z" fill="#47422f"/>
      <path d="m1152.125,535.647v-1.5h3.453v-18.953h-3.453v-1.5h12.156c2.928,0,5.248.564,6.961,1.693,1.714,1.129,2.57,2.535,2.57,4.221,0,1.136-.447,2.168-1.342,3.095s-2.227,1.615-3.995,2.063c2.065.771,3.272,2.019,3.618,3.74,0,.042.062.472.188,1.289.123.818.195,1.289.213,1.412.072.475.133.868.18,1.182.048.314.148.69.303,1.129.152.439.383.771.689.995s.681.337,1.121.337c.512,0,.963-.192,1.35-.578.388-.385.623-.932.707-1.641.021-.166.041-.291.062-.375.021-.083.086-.164.195-.242s.269-.117.477-.117c.511,0,.766.234.766.703,0,.146-.021.334-.062.562-.041.229-.144.514-.305.852-.162.339-.371.654-.627.945-.257.292-.636.539-1.137.742-.502.203-1.076.305-1.725.305-1.998,0-3.539-.283-4.625-.848-.523-.262-.94-.552-1.253-.871s-.532-.714-.661-1.186c-.127-.471-.262-1.678-.402-3.623,0,0-.027-.393-.084-1.181-.058-.788-.34-1.446-.848-1.973-.666-.724-1.629-1.085-2.887-1.085h-3.791v8.906h3.453v1.5c-.771-.062-2.648-.094-5.633-.094s-4.861.031-5.633.094Zm7.812-11.562h3.703c1,0,1.854-.106,2.562-.319.709-.214,1.237-.447,1.586-.702.35-.255.615-.624.797-1.107.183-.483.284-.868.305-1.154.021-.286.031-.674.031-1.162,0-.51-.016-.92-.047-1.232-.031-.312-.138-.696-.32-1.154-.182-.457-.442-.813-.781-1.068-.338-.254-.856-.483-1.555-.686-.697-.203-1.536-.305-2.516-.305h-3.766v8.891Z" fill="#47422f"/>
      <path d="m1177.549,524.811c0-3.419,1.062-6.184,3.188-8.295,2.125-2.11,4.99-3.166,8.594-3.166,3.542,0,6.383,1.045,8.523,3.135s3.211,4.865,3.211,8.326c0,3.32-1.055,6.017-3.164,8.088-2.109,2.072-4.977,3.107-8.602,3.107-3.583,0-6.438-1.027-8.562-3.084-2.125-2.056-3.188-4.76-3.188-8.111Zm4.891-.484c0,3.029.438,5.366,1.312,7.011.615,1.134,1.43,1.972,2.445,2.514,1.016.541,2.05.812,3.102.812,2.344,0,4.146-1.015,5.406-3.045.979-1.623,1.469-4.054,1.469-7.291,0-2.945-.447-5.173-1.344-6.682-.614-1-1.419-1.752-2.414-2.256-.994-.506-2.033-.758-3.117-.758-1.021,0-2.013.231-2.977.695-.963.463-1.752,1.152-2.367,2.068-1.01,1.551-1.516,3.861-1.516,6.932Z" fill="#47422f"/>
      <path d="m1200.77,515.193v-1.5c.75.062,2.511.094,5.281.094,3.031,0,4.984-.031,5.859-.094v1.5h-2.719l6.498,9.516,5.986-8.812c.042-.062.12-.188.234-.375-.552-.208-1.364-.317-2.438-.328v-1.5c.792.062,2.198.094,4.219.094.261,0,.594-.005,1-.016.406-.01.875-.025,1.406-.047.531-.021.948-.031,1.25-.031v1.5h-.672c-.552,0-1.109.031-1.672.094-.594.084-.963.203-1.109.359-.041.062-.088.125-.141.188l-7.516,11.047v7.266h3.469v1.5c-.811-.062-2.693-.094-5.648-.094-2.984,0-4.863.031-5.633.094v-1.5h3.453v-7.266l-7.969-11.688h-3.141Z" fill="#47422f"/>
      <path d="m1238.195,535.647v-.578c0-.344.021-.562.062-.656s.154-.234.338-.422l6.387-6.562c2.309-2.344,3.463-4.562,3.463-6.656,0-1.281-.373-2.364-1.119-3.25-.748-.885-1.784-1.328-3.111-1.328-1.293,0-2.385.37-3.275,1.109.236.062.467.154.693.273.227.12.468.362.725.727.257.365.385.803.385,1.312,0,.75-.238,1.32-.717,1.711-.477.391-.998.586-1.564.586-.523,0-1.032-.185-1.525-.555-.493-.369-.74-.971-.74-1.805,0-1.427.651-2.594,1.953-3.5s2.924-1.359,4.865-1.359c2.266,0,4.131.555,5.596,1.664,1.463,1.109,2.195,2.57,2.195,4.383,0,.75-.105,1.412-.316,1.984-.211.573-.613,1.175-1.207,1.805-.592.631-1.141,1.148-1.646,1.555-.505.406-1.33,1.031-2.474,1.875-1.003.729-2.542,1.959-4.618,3.688h4.676c1.927,0,3.01-.062,3.248-.188.279-.146.559-1.119.838-2.922h1.5l-1,7.109h-13.609Z" fill="#47422f"/>
      <path d="m1264.418,535.647v-1.5h3.453v-18.953h-3.453v-1.5c.812.062,2.766.094,5.859.094,3.375,0,5.525-.031,6.453-.094v1.5h-4.312v18.953h3.297c.791,0,1.513-.102,2.164-.305.65-.203,1.182-.447,1.594-.734.411-.286.789-.672,1.133-1.156s.602-.906.773-1.266.325-.828.461-1.406c.135-.578.219-1.005.25-1.281.031-.275.086-.648.162-1.117h1.588l-1.059,8.766h-18.363Z" fill="#47422f"/>
      <path d="m1284.607,535.647v-1.5h3.453v-18.766h-3.453v-1.5h19.875l.984,7.719h-1.5c-.104-.877-.227-1.601-.367-2.17-.141-.568-.359-1.13-.656-1.684-.297-.553-.67-.992-1.117-1.315-.448-.324-1.037-.58-1.766-.768-.729-.188-1.594-.282-2.594-.282h-4.859v8.234h1.766c1.427,0,2.349-.289,2.766-.867.416-.578.625-1.539.625-2.883h1.5v9h-1.5c0-1.344-.209-2.305-.625-2.883-.417-.578-1.339-.867-2.766-.867h-1.766v9.031h4.858c.958,0,1.807-.07,2.546-.211s1.364-.375,1.875-.703c.51-.328.942-.68,1.297-1.055.354-.375.647-.867.882-1.477s.405-1.192.514-1.748.243-1.246.403-2.072h1.516l-1.481,8.766h-20.409Z" fill="#47422f"/>
      <path d="m1307.641,535.1v-5.828c0-.406.036-.661.109-.766.072-.104.291-.156.656-.156.166,0,.299.011.398.031.099.021.174.062.227.125.052.063.083.134.094.212.01.078.016.201.016.368.062,1.107.367,2.052.914,2.835s1.242,1.348,2.086,1.692,1.627.579,2.352.705c.724.125,1.461.188,2.211.188,1.489,0,2.555-.383,3.195-1.15.641-.767.961-1.63.961-2.59,0-1.002-.428-1.936-1.282-2.802-.344-.323-.726-.538-1.145-.644s-1.392-.352-2.917-.736c-1.938-.428-3.266-.781-3.984-1.058s-1.438-.775-2.156-1.497c-1.156-1.222-1.734-2.647-1.734-4.277,0-1.807.623-3.326,1.867-4.557,1.246-1.23,3.024-1.846,5.338-1.846,2.187,0,4.018.573,5.493,1.72l1.517-1.382c.264-.225.483-.338.659-.338h.017c.274,0,.444.058.511.172.065.115.099.354.099.719v5.859c0,.386-.04.631-.119.734-.08.104-.318.156-.715.156-.353,0-.568-.037-.647-.109-.08-.074-.153-.314-.222-.723-.233-1.371-.713-2.486-1.438-3.345s-1.493-1.427-2.305-1.704-1.684-.416-2.616-.416c-1.409,0-2.427.344-3.05,1.033-.624.688-.936,1.457-.936,2.305,0,.891.286,1.62.858,2.189s1.198.942,1.877,1.118l4.644.971c1.621.327,3,1.116,4.136,2.367s1.704,2.741,1.704,4.473c0,1.833-.629,3.434-1.888,4.803s-3.152,2.054-5.681,2.054c-2.602,0-4.668-.584-6.2-1.75l-1.605,1.455c-.228.187-.45.285-.666.295-.284,0-.461-.061-.529-.18-.068-.12-.103-.361-.103-.727Z" fill="#47422f"/>
    </g>
    <g>
      <g>
        <g>
          <path d="m1325.996,344.917c0,23.105-18.729,41.834-41.825,41.834h-41.834c-11.548,0-22.009-4.682-29.572-12.254-7.571-7.571-12.254-18.023-12.254-29.58s4.682-22.009,12.254-29.572c7.563-7.571,18.023-12.254,29.572-12.254h0c0,23.099,18.726,41.825,41.825,41.825h41.834Z" fill="#edebe4"/>
          <path d="m1284.171,389.251h-41.834c-11.845,0-22.975-4.612-31.34-12.987-8.373-8.373-12.985-19.506-12.985-31.347s4.612-22.975,12.987-31.34c8.363-8.373,19.493-12.985,31.338-12.985h2.5v2.5c0,21.684,17.642,39.325,39.325,39.325h44.334v2.5c0,24.446-19.884,44.334-44.325,44.334Zm-44.26-83.586c-9.596.579-18.53,4.593-25.377,11.447-7.431,7.423-11.522,17.297-11.522,27.805s4.092,20.383,11.521,27.812c7.422,7.43,17.296,11.521,27.804,11.521h41.834c20.845,0,37.954-16.305,39.247-36.834h-39.256c-23.577,0-42.914-18.504-44.251-41.752Z" fill="url(#e)"/>
        </g>
        <g>
          <path d="m1325.996,261.267c0,11.548-4.682,22.009-12.254,29.572-7.571,7.571-18.023,12.254-29.572,12.254h-83.659c0-11.548,4.682-22.009,12.254-29.572,7.563-7.571,18.023-12.254,29.572-12.254h83.659Z" fill="#edebe4"/>
          <path d="m1284.171,305.592h-86.159v-2.5c0-11.845,4.612-22.975,12.987-31.34,8.363-8.373,19.493-12.985,31.338-12.985h86.159v2.5c0,11.845-4.612,22.975-12.987,31.341-8.372,8.373-19.502,12.984-31.338,12.984Zm-81.082-5h81.082c10.5,0,20.374-4.092,27.804-11.521,6.838-6.831,10.848-15.738,11.444-25.305h-81.082c-10.508,0-20.382,4.092-27.803,11.521-6.839,6.831-10.849,15.738-11.445,25.305Z" fill="url(#f)"/>
        </g>
      </g>
      <g>
        <path d="m1259.213,40h-66.787c-36.885,0-66.787,29.902-66.787,66.787h0s66.787,0,66.787,0h.007c36.882,0,66.78,29.899,66.78,66.78h0s-66.787,0-66.787,0h0c-36.885,0-66.787,29.902-66.787,66.787h0s66.787,0,66.787,0h66.787c36.885,0,66.787-29.902,66.787-66.787h0s-66.656,0-66.656,0c36.824-.071,66.654-29.94,66.656-66.78h0v-.003h0V40h-66.787Z" fill="#edebe4"/>
        <path d="m1259.213,242.855h-136.074v-2.5c0-38.205,31.082-69.287,69.287-69.287h64.239c-1.318-34.29-29.625-61.78-64.232-61.78h-69.294v-2.5c0-38.205,31.082-69.287,69.287-69.287h136.074v69.283c-.002,29.055-18.013,54.015-43.454,64.284h43.454v2.5c0,38.205-31.082,69.287-69.287,69.287Zm-131.026-5h131.026c34.61,0,62.921-27.493,64.239-61.787h-131.026c-34.61,0-62.921,27.493-64.239,61.787Zm0-133.567h64.239c37.354,0,67.896,29.709,69.241,66.734,34.302-1.297,61.831-29.638,61.833-64.234V42.5h-131.074c-34.61,0-62.921,27.493-64.239,61.787Z" fill="url(#g)"/>
      </g>
    </g>
    <path d="m503.68,375.293c.085.164.647.09.987.106.355.016.711.005,1.061.005,1.067.547,1.496,1.942,2.802,2.139q1.969-1.045,5.397-1.199c.35-.541.923-1.433,1.289-2.001,2.107,0,3.699-.005,5.29.011.149,0,.292.138.578.281.069.398.016.971.265,1.348.382.578.971,1.019,1.671,1.719.196-1.746,1.963-.923,2.802-1.974.621-.78,1.305-.398,1.799.663.478,1.04.695,2.452,1.507,3.03,1.332.95,2.218-1.104,3.561-1.162.26-.016.504-.467.769-.738,1.518.18,3.343-.647,4.542.43,1.39,1.252,3.126-.064,4.479,1.146,0,1.136.149,2.383-.042,3.577-.212,1.284-1.592,2.282-1.019,3.81.6,1.024,2.043,1.401,2.139,2.834.021.297.329.849.435.833,2.043-.318,2.34,2.664,4.378,2.287.467.706,1.221,1.098,1.592,1.995.86,2.091.982,2.043,1.035,4.893,1.013.515,1.995,1.311,3.072,1.475,1.295.207,2.85.531,3.789-.987h3.81c.34.515.929,1.406,1.406,2.123,1.512,0,2.754-.016,3.99.005,1.576.021,3.147.08,4.723.117.801,1.762,3.088.18,4.065,1.841.313.531,1.157-.005,1.772-.43.929-.642,1.995-1.178,3.078-1.486.817-.233,1.756-.048,2.637-.042.753,1.332,2.075,1.008,3.247,1.125.743,1.624,2.531.594,3.656,1.459,1.311,1.014,2.956,1.045,4.245-.016,1.279-1.051,1.852-.17,2.621.584h6.346c2.563-2.361,3.083-2.568,7.137-3.184.563-.09,1.067-.547,1.603-.833.69,1.502,2.425.292,3.205,1.162.881.982,1.889.69,2.892.759,1.231-.727,1.677-2.022,2.335-3.253,2.17.61,3.9-.562,5.678-1.518,1.788-.96,3.523-1.985,5.71-1.624.86.143,1.794-.111,2.643.069.775.159,1.465.876,2.223.945.552.053,1.157-.562,1.905-.976h3.996c.754.7,1.412,1.847,2.568.578.525-.578,1.236-.907,1.783-.398.7.653,1.38,1.04,2.308.86,1.157-.218,1.55,1.475,2.744,1.067,1.231-.425,1.767.828,2.727,1.114,1.268.377,2.314,1.406,3.826,1.04.663-.159,1.401-.027,2.016-.027.462.393.833.971,1.258,1.014,1.226.133,2.515.255,3.699-.005,1.565-.345,2.329,1.502,3.815,1.12,1.3-.334,2.229.499,3.285,1.035,1.337.679,2.696,1.332,4.33,1.141.547-.069,1.173.531,2.107,1.003h3.285c1.236,0,2.483.106,3.709-.027,1.454-.159,2.298,1.226,3.81,1.205,1.183-.021,2.266,1.454,3.805.801.706-.706,1.486-1.427,2.197-2.218.552-.616.451-1.518,1.056-2.245.552-.658.435-1.873.6-2.77,1.215-.17,2.165.053,3.163-.706.876-.669,2.032-.902,2.123-2.266,1.263-.18,2.101-.982,2.956-1.857.838-.854,1.03-.764,2.547.456.594-.483,1.305-.87,1.465-1.661-.287-.382-.536-.716-.987-1.316,1.581-.085,2.77-.154,3.921-.218.658-.658,1.284-1.284,2.043-2.043,1.019-.048,2.356.324,3.152-1.056,2.075,0,4.187-.027,6.299.011.738.016,1.247-.287,1.873-.637,1.268-.722,2.871-.918,3.821.016,1.146,1.13,2.972-.223,3.704,1.417,1.38.085,2.802.414,4.129.196,2.191-.356,3.778,1.443,5.863,1.385.233,0,.403,1.581.764,1.656,2.298.472,3.173,2.6,4.797,3.826.037,2.69,2.611,2.478,3.895,3.709.414-.414.663-.663.945-.939h6.309c.775-.738,1.528-1.454,2.314-2.202,3.041.377,5.758-.249,7.896-2.674,0-2.107-.005-4.224.016-6.336,0-.127.234-.255.361-.377.478-.111.96-.223,1.656-.382.228-1.629-.255-3.401.334-5.068,2.202.769,3.486-1.502,5.582-1.114,2.054.382,4.229.085,6.697.085.493-.647,1.13-1.48,1.327-1.74,2.775-1.13,1.549,1.146,2.648,1.703.387-.589.971-1.199,1.878-1.024.78,1.629,2.696.509,3.63,1.433.918.913,1.926.568,2.913.711,1.412,1.884,1.236,5.046,4.431,5.513.122.016.329.276.303.382-.398,1.693,1.098,1.369,2.038,1.863.058,1.109.122,2.298.186,3.444.663.669,1.289,1.289,1.963,1.963.058,1.141.122,2.329.175,3.364.775.775,1.401,1.396,2.027,2.016,0,2.839,0,5.667-.005,8.496,2.213,1.47.239,4.028,1.39,5.704.6.133,1.083.239,1.735.382v4.574c.907.515,1.152,1.523,2.234,1.571,1.183.042,1.55,1.3,2.393,1.878.133.096.313.233.435.202,1.316-.292,2.245.499,3.29,1.061,1.12.605,2.314,1.077,3.311,1.534.08,1.311-.239,2.643.287,3.332,1.051,1.369,1.316,3.035,2.197,4.415.356.552,1.168,1.374,1.518,1.268,1.618-.509,2.483,1.268,3.826,1.104,1.565-.191,2.42.796,2.775,1.857.371,1.114-.159,2.515.154,3.667.292,1.093,1.279,1.974,1.024,3.301-.042.207.419.754.557.727,1.703-.377,1.401,1.088,1.863,2.043,1.47.074,3.014.154,4.558.228,1.083,1.725,2.934.515,4.309,1.125.308,1.289,1.056,2.414,1.597,3.577.6,1.279,2.176,2.043,2.377,3.863.96-1.534,2.223-1.433,3.38-1.077.578.18.918,1.051,1.751.891.95-.191.732-.966.865-1.613.042-.218.531-.34.817-.509,1.523-.913,3.582-1.029,4.314-2.712v-3.295c-1.438-.955-1.878-2.494-2.759-3.72-.594-.838-.419-1.756-.255-2.515.297-1.417-1.703-1.852-1.167-3.306.133-.356-.138-1.051-.456-1.348-.764-.738-.494-1.947-1.443-2.632-.61-.446-1.183-.536-1.863-.679-1.242-.26-1.629,1.396-2.749,1.083-.939-.26-1.528-1.284-2.754-1.083-1.014.17-1.937.074-2.839.934-.753.716-1.544-.196-2.16-.891-.318,0-.669.042-1.008-.011-.838-.133-1.841.44-2.499-.334-.812-.955-2.239-.685-3.003-1.825-.674-.992-1.756-1.709-2.409-2.308-.308-1.189.239-2.096-.525-2.865-.329-.329-.685-.913-.616-1.3.297-1.65-.414-3.046-1.151-4.314-.753-1.279-1.146-2.77-2.351-3.831-1.024-.897-.881-1.496.446-3.194-.822-.573-1.687-1.173-2.287-1.592v-9.997c0-.881-.133-1.794.042-2.643.127-.605.812-1.088.976-1.698.218-.796.042-1.587.6-2.43.806-1.226.966-2.934.117-3.821-1.342-1.422-.408-2.117.356-2.993v-5.285c-.287-.281-.738-.52-.754-.785-.101-1.889-.111-3.783-.154-5.678,1.496-.998.409-2.754,1.029-3.799.759-1.284.998-2.473,1.003-3.863,0-.446.345-.907.6-1.327.711-1.162.615-2.107-.207-3.29-.796-1.151-.807-2.722.021-3.847.738-1.008.547-1.921.547-3.391-.594-.398-1.465-.992-2.054-1.396v-13.728c0-.706-.303-1.682.048-2.08,1.618-1.831.647-4.001,1.061-5.959.371-1.735-1.624-2.674-1.136-4.351.074-.26-.133-.647-.313-.913-.191-.281-.499-.483-.764-.727,1.279-.844,1.449-2.139.95-3.248-.334-.748-1.024-1.289-.934-2.276.101-1.035.027-2.085.027-3.279-1.767-1.703-3.545-3.412-5.349-5.158v-2.531c-.621-.409-1.502-.992-1.963-1.3-.377-2.218.563-4.097-1.077-5.476.005-1.502-.711-3.157.96-4.335v-1.019c0-1.061-.186-2.16.042-3.173.287-1.279-1.215-1.672-1.093-2.749.037-.313.255-.6.387-.902.849.218,1.374,1.783,2.563.626.934-2.34-.393-4.134-1.422-6.007-.26.255-.472.578-.769.743-.934.531-1.369.313-1.841-.748-.265-.594-.626-1.146-.955-1.735.435-.44.934-.939,1.465-1.47h2.191c.494-.616,1.072-1.247,1.523-1.958.122-.191-.027-.706-.223-.923-.191-.212-.647-.382-.897-.297-.456.159-.828.541-1.263.78-.982.541-1.714.228-1.825-.78-.053-.525.212-1.337-.042-1.544-1.534-1.231-.945-2.855-.998-4.765.626-.451,1.48-1.067,2.25-1.629-.35-1.088.228-2.064-.7-2.69-.626.621-1.38,1.162-1.847,1.889-.711,1.12-2.112,1.003-2.913,1.878.191,1.767-1.518,2.213-2.33,3.274-.605.796-1.327,1.443-2.515,1.624-.552.085-1.56.854-1.523,1.921.042,1.088-1.072,1.305-1.465,2.038-1.226.09-2.425.34-3.624-.18-.446-.488-.907-.998-1.374-1.512v-6.315c-.695-.292-1.406-.414-1.878-.817-.759-.658-1.348-.918-2.234-.191-.478.398-1.194.504-1.783.785-.515.244-.52,1.725,0,1.756,1.343.096,2.069.886,2.69,1.942-2.08,1.47.021,4.059-1.475,5.651-.403,0-.87.143-1.077-.027-.685-.552-1.268-1.226-1.9-1.847-.966-.96-.807-2.664-2.239-3.332-.271-.127-.483-.493-.61-.791-.451-1.051-.668-2.255-1.321-3.152-.817-1.13-1.969-2.011-2.945-2.966v-2.011c-1.274-2.016-3.662-2.908-4.282-5.317-.08-.308-.812-.7-1.173-.642-1.189.191-1.868-.902-2.765-1.019-1.284-.164-1.65-1.141-2.383-1.794,0-.891-.191-1.831.037-2.648.409-1.433-1.125-2.054-1.114-3.29.011-1.38-1.401-.541-1.99-1.178-.531-.562-1.417-.791-2.192-1.194v-2.069c-.732-.769-1.454-1.528-2.186-2.303v-1.926c-1.12-1.279-2.489-2.308-3.083-3.672-.748-1.725-2.388-2.51-3.279-3.953-.902-1.449-2.674-1.443-3.736-2.59-1.199-1.284-2.531-2.452-3.619-3.492-.244-1.114.313-2.059-.483-2.77-1.422-.456-3.237.605-4.319-1.125-.52.552-1.321.886-1.417,1.762.653.653,1.279,1.279,1.873,1.873-1.231,1.258-2.462,2.521-3.651,3.736h-2.181c-.844-1.093-2.186-1.756-2.924-3.529,1.374-.504,1.422-1.687,1.369-2.919-.048-1.029-.77-.971-1.9-.966-.738.822-1.65,1.889-2.621,2.903-.472.493-.982,1.008-1.576,1.316-1.008.525-2.457.61-3.067,1.39-.69.881-1.093,2.006-1.942,2.897-1.438,1.512-3.157,2.462-5.275,3.242-1.778-1.778-3.624-3.624-5.381-5.381-2.117,0-4.065-.011-6.007.005-1.878.016-3.37-1.836-5.413-1.098-.186.064-.61-.287-.801-.536-.494-.631-.743-.127-1.151.111-1.019.594-1.279.732-1.741.101-.626-.854-1.687-.387-2.239-1.082-.547-.685-1.061-1.396-1.316-1.73-1.894-.223-2.451,1.406-3.911,1.136-.823-.149-1.783.791-2.733.929-1.21.175-2.563-.249-3.683.117-1.401.462-2.77,1.014-4.224,1.305-1.12,1.587-2.011.467-2.94-.249-.276.318-.557.573-.849.759h-.005c-.722.462-1.496.504-2.335.027-.143-.08-.287-.17-.43-.281-.143-1.008.329-2.133-.738-2.919-.218-.159-.318-.589-.334-.902-.069-1.353.265-2.807-1.072-3.799.631-1.725-.881-2.839-1.337-4.235-.244-.743-.876-1.39-.801-2.319.058-.7-.005-1.411.016-2.117.042-1.067,0-2.001-.934-2.839-.361-.324-.122-1.332-.18-2.457-.536-.472-1.263-1.268-2.139-1.825-1.003-.637-.807-1.836-1.481-2.595-1.167-1.316-.844-2.499.329-3.64.191-.186.111-.647.175-1.104-.43-.44-.87-.982-1.401-1.417-.228-.191-.631-.17-1.406-.35-.43.674-1.003,1.56-1.396,2.181h-3.767c-1.82-1.581-3.433-3.582-5.386-5.222-.753.876-1.311,1.3-2.356.769-1.634-.833-1.104-2.399-1.475-3.651-.382-.377-.711-.822-1.141-1.114-1.343-.913-1.889-2.404-2.552-3.73-.43-.86-.271-2.011-.361-3.03-.042-.52.159-1.226-.112-1.528-1.682-1.9-1.65-4.903-4.134-6.161,0-.998-.202-1.937.042-2.738.393-1.263,1.465-2.324,1.035-3.815,1.804-1.311,1.21-3.311.918-4.845-.287-1.523-.95-3.454-2.637-4.059-.876-.308-1.518-.685-2.133-1.274-.488-.478-.902-.976-1.73-.998-.409-.011-.764-.716-1.215-.844-.653-.18-1.401-.011-2.048-.202-.451-.138-.753-.807-1.199-.918-.658-.164-1.385-.042-2.054-.042-.807-.764-1.56-1.486-2.335-2.218h-2.197c-.218-.61-.276-1.385-.695-1.799-.414-.414-1.189-.472-1.794-.685,0-.637.048-1.167-.016-1.687-.074-.663.324-1.412-.318-1.974-1.725-.499-1.73-.499-1.788-1.831-.016-.35,0-.695,0-1.029-2.006-1.242-4.41-1.767-5.938-3.699-3.179-.318-3.179-3.757-5.184-5.28h-7.365c-.403-.371-.78-.722-1.167-1.077-.626,1.889-2.584.483-3.635,1.486-1.438,1.374-3.364.175-4.961.759-1.077.706-1.332,1.921-1.894,2.95-1.141.18-2.494-.212-3.258,1.162h-5.269c-.589-.971-1.746-.934-2.77-1.555v-6.4c-.233-.302-.493-.557-.753-.801-.748-.69-1.459-1.252-1.316-2.372-.886-.769-2.16-.822-2.966-1.852-.971-1.247-2.213-2.282-3.338-3.407-.053-.838-.106-1.672-.154-2.42-.838-.287-1.454-.499-2.16-.738,1.799-1.215,1.04-2.903,1.136-4.383-1.889-1.889-3.683-3.852-5.657-5.62-2.314-2.064-2.754-2.6-2.781-4.606-.016-1.22,0-2.441,0-3.582-1.258-.727-2.839-.722-3.205-2.43-.345-1.64-1.608-2.733-2.993-3.279-1.587-.621-2.271-2.128-3.582-2.892-1.411-.822-3.094-1.157-4.351-2.292-.265-.233-.483-.525-.759-.738-.207-.154-.483-.218-.706-.313-.663.669-1.289,1.289-1.916,1.916-.823-.18-1.756.371-2.473-.34-.573-.886.414-2.165-.791-2.839-.35.021-.817-.096-1.024.085-.923.817-1.677,1.852-2.669,2.563-.117.085-.218.17-.303.271-.626.69-.584,1.666-1.173,2.33-1.512-.212-2.016,1.157-2.934,1.873-.573.451-.769,1.024-.913,1.762-.111.584-.807,1.39-1.353,1.486-2.128.382-2.94,2.319-4.495,3.433h-6.134c-1.358,1.3-2.637,2.515-3.842,3.667v6.431c.525.525,1.024,1.024,1.571,1.571.302,0,.669.08.992-.016,1.502-.419,2.552.801,3.821,1.003,1.571.249.594,1.905,1.634,2.287.149.058.249.244.642.637-.791.658-1.571,1.332-2.377,1.974-.196.149-.483.18-.7.255-.292-.297-.546-.547-.764-.764-1.634.807-1.682,2.393-1.836,3.826-.695.69-1.321,1.316-1.947,1.942q-.048,1.963-.96,3.173c1.051,1.565,3.104,2.335,3.332,4.5,1.098.78,1.65,2.192,3.237,2.452,1.337.218,1.597,2.276,3.375,2.16.472-.032,1.008.897,1.507,1.39,1.491,1.486,2.977,2.977,4.165,4.166.409,1.199-.159,2.144.706,2.839,1.008.807.642,1.995.499,2.94-.17,1.093-.695,2.202-1.316,3.136-.292.435-1.178.467-1.783.679v3.072c-1.364,2.563-4.25,3.03-5.885,4.983-.371-.318-.738-.631-1.098-.939-.303.302-.552.557-.833.833-.966-.562-1.963-1.109-3.163-.891-.971.175-1.687-.228-2.213-.987-.196-.027-.361-.069-.531-.074h-9.562c-.722-.891-1.693-2.08-2.68-3.295-1.666,1.438-1.926,3.555-3.55,4.68-1.258.87-1.618,2.314-2.123,3.614.308.313.563.563.823.823v3.03c-1.661,1.687-3.264,3.317-4.903,4.983h-5.147c-.435.361-.796.658-1.146.955-.318-.318-.573-.568-.854-.849-.754.143-1.125,1.067-2.112.987-.531-.042-1.077.812-1.688.95-.812.186-1.741-.164-2.361.738-.504.727-1.305.297-1.963.35-.881.069-1.762.016-2.595.016-.409-.361-.775-.69-.998-.891-.982.504-1.863.955-2.743,1.412v1.077c-.876.86-1.756,1.725-2.674,2.627h-3.088c-.791.732-1.47,1.82-2.356,2.038-.96.239-1.528.727-2.117,1.327-.706.722-1.624,1.279-1.592,2.558,0,.233-1.125.499-1.916.828v5.317c-.838,1.252-2.255,1.608-2.255,3.168,0,.52-.759,1.3-1.327,1.496-.998.34-1.979.653-2.521,1.571-.249.414-.605.6-.992.722-.563.18-1.189.239-1.629.727-.637.716-1.963.504-2.542,1.496h-3.364c-.684.058-1.459-.069-2.027.218-.584.297-.976,1.061-1.772.833-1.889-.547-3.29.754-4.685,1.48-1.03.536-1.926.573-2.812.642-1.236,1.104-2.319,2.266-3.598,3.152-.918.642-2.229.727-3.11,1.39-1.109.833-1.958,2.011-2.754,2.871h-5.556q-1.656-1.353-2.966-.159c-.26.233-.483.504-.876.913.647,1.21-.037,2.197-.907,3.12.674,1.555-.849,2.494-1.024,3.534,1.215,1.215,2.319,2.319,2.855,2.855.812,2.759-.631,4.028-1.205,5.625h-1.953c-1.571.945-2.324,2.722-3.985,3.295-1.725-.923-3.508-1.555-4.622-3.141-1.56.478-1.39,2.176-2.308,3.099h-2.197c-1.852,2.759-5.343,3.688-7.371,6.346-.069.085-.34.005-.52.011-1.045.016-1.295,1.093-2.022,1.518-.706.414-1.496.7-2.17,1.152-.738.493-1.024,1.231-1.199,2.154-.17.897-2.255.016-1.995,1.725-1.401,1.698-2.515,3.73-4.94,4.229-.446,1.263-3.03.387-2.563,2.558-2.287.674-3.555,2.632-5.179,4.123-.525,1.496.7,2.542.939,3.805.287,1.534.069,3.163.069,4.744-1.698,1.141-.929,2.823-.987,4.319,1.549,1.189.876,2.807.881,4.346-1.39,1.358-2.775,2.717-4.155,4.065v2.738c-.817.812-1.926,1.916-3.279,3.248v2.574c-.807,1.077-2.202,1.555-2.006,3.12.716.716,1.502,1.433,2.197,2.223.637.716,1.597,1.183,1.91,2.436-2.16-.159-2.812,1.767-4.134,2.828v2.728c-.462.95-.854,1.512-1.024,2.139-.435,1.608.87,2.908.944,4.33.074,1.502.918,2.144,1.836,2.982h5.211c1.104,1.783,2.94.631,4.335,1.162.621.626,1.247,1.252,1.836,1.836.876.143,1.841.053,2.505.462,1.427.87,3.157,1.337,3.996,2.871.663,0,1.226.117,1.714-.021,1.555-.435,2.409,1.029,3.725,1.332.801.186,1.756,1.178,1.528,2.457,1.077.515.69,2.282,1.518,2.478,2.292.541,3.125,2.669,4.781,3.73.106,1.104-.143,2.07.695,3.035.568.658.483,1.873.716,2.982.509-.446.876-.769,1.274-1.12.355.706.658,1.459,1.093,2.133.536.833,1.603,1.215,1.629,2.542.016.669,1.316,1.183.96,2.213-.425,1.252,1.279,1.645,1.061,2.743-.239,1.215.377,1.974,1.199,2.706.371.329.663.769.929,1.199,1.486,2.377,3.242,4.505,5.237,5.492,1.178.578,1.868,1.141,2.271,2.452.34,1.098,1.221,2.064,2.749,1.873,1.374-.17,2.186,1.624,3.821,1.109.679-.212,1.146,1.279,2.191.992.907.929,1.99,1.189,3.279,1.088,1.199-.101,2.436.186,3.322-1.045.143-.202.955-.202,1.412.308.308.34.865.451,1.279.716,2.234,1.422,5.02,1.953,6.755,4.181.249-.212.483-.456.759-.621.276-.17.594-.361.902-.366,1.942-.032,3.89-.016,5.805-.016.387.35.753.69,1.12,1.019,1.014-.685,5.089-2.069,6.076-2.08q2.245-.021,5.593,2.123c2.207,0,4.505.064,6.792-.042.594-.027,1.162-.578,1.767-.902.939,1.167,2.112,1.422,3.545.509.541-.345,1.305-.387,1.778-.791,1.072-.918,2.022-1.974,3.035-2.982.371.334.743.669,1.098.992.371-.329.738-.658.95-.844.976.854,1.905,1.666,2.791,2.441v2.176c.525.525,1.024,1.029,1.528,1.528,1.47.228,3.21-.578,4.314,1.098,3.136-.594,5.439,1.406,7.88,2.728,1.205.653,2.892-.164,3.699,1.406Zm343.389,66.41c.945-.828,1.841-.329,2.828-.536.509,1.093.382,1.661-.191,2.186-.616.568-1.109,1.348-2.165.966-.143-.244-.419-.509-.451-.801-.074-.653-.021-1.321-.021-1.815Zm-88.628-198.959h2.091c1.072.923,2.128,1.847,1.465,3.985-.61.43-1.603,1.125-2.733,1.921-.849-.775-3.094-.594-3.518-2.94.573-1.22,1.852-1.91,2.696-2.966Zm-228.07-122.149h-2.542c-.095-.552-.18-1.024-.271-1.544,1.491-.833,2.897-.403,4.643-.281-.823.822-1.311,1.311-1.831,1.825Zm-10.225,67.954c.281-.955,1.518-1.48,1.114-2.712-.334-1.029.738-1.443,1.051-2.197.371-.897.722-1.804,1.077-2.701-.196-.292-.345-.61-.578-.833-.578-.552-.748-1.189-.244-1.799,1.098-1.337,2.69-2.08,4.272-2.34,1.343-.223,2.648-.212,3.794-1.104.191-.149.807.244,1.072.34-.345.732-.897,1.353-.833,1.905.09.764.642,1.47.998,2.202-1.183.971-.732,2.563-1.348,3.651-.817,1.427-1.252,3.216-2.881,3.969-.18,1.284.398,2.558-.398,3.64-.785,1.072-.971,2.462-2.186,3.343-1.252.907-2.25,2.17-3.274,3.2-.865-.011-1.39-.021-1.64-.982-.329-1.263-1.12-2.298-1.114-3.794.005-1.486.748-2.531,1.12-3.789Zm-.478,10.841c.483.271,1.013.775,1.608.865,1.311.196,1.083.96.812,2.16h-3.566c-.35-.435-.78-.96-1.337-1.645.775-.43,1.656-.923,2.483-1.38Z" fill="#47422f" opacity=".2"/>
    <g>
      <line x1="868.465" y1=".739" x2="868.465" y2="574.739" fill="none" opacity=".2" stroke="#4c4c4c" stroke-miterlimit="10" stroke-width="30"/>
      <line x1="868.465" y1=".739" x2="868.465" y2="574.739" fill="none" stroke="#4c4c4c" stroke-dasharray="0 0 60 50" stroke-miterlimit="10" stroke-width="30"/>
    </g>
    <g>
      <path d="m1139.256,492.107c-1.674,0-3.145-.424-4.414-1.271-1.27-.849-2.26-2.131-2.971-3.849s-1.066-3.878-1.066-6.482c0-1.947.258-3.646.771-5.095.514-1.45,1.205-2.656,2.076-3.619.869-.962,1.848-1.682,2.938-2.157,1.088-.477,2.201-.714,3.34-.714,1.422,0,2.592.196,3.512.591.918.394,1.82.995,2.707,1.805l-1.395,1.444c-1.336-1.27-2.965-1.903-4.891-1.903-.832,0-1.65.161-2.453.483-.805.323-1.529.851-2.174,1.584-.646.733-1.164,1.718-1.551,2.954-.389,1.236-.584,2.772-.584,4.611,0,3.369.553,5.825,1.658,7.368,1.105,1.542,2.713,2.313,4.824,2.313,1.686,0,3.26-.404,4.727-1.215v-7.384h-4.906l-.297-1.953h7.369v10.617c-.984.504-2.029.941-3.135,1.312-1.105.372-2.467.559-4.086.559Z" fill="#701616"/>
      <path d="m1178.311,468.92c2.354,0,4.133.995,5.342,2.986s1.814,4.857,1.814,8.599-.605,6.625-1.814,8.615c-1.209,1.992-2.988,2.987-5.342,2.987-2.34,0-4.117-.995-5.332-2.987-1.215-1.99-1.822-4.862-1.822-8.615s.607-6.607,1.822-8.599,2.992-2.986,5.332-2.986Zm0,1.771c-1.455,0-2.623.77-3.502,2.306-.881,1.538-1.322,4.04-1.322,7.508,0,2.626.24,4.71.723,6.253l7.285-14.507c-.766-1.039-1.826-1.56-3.184-1.56Zm4.842,9.813c0-2.822-.268-5.01-.805-6.563l-7.285,14.671c.777,1.138,1.859,1.706,3.248,1.706,1.479,0,2.654-.776,3.529-2.33s1.312-4.048,1.312-7.483Z" fill="#701616"/>
      <path d="m1198.002,468.92c2.354,0,4.133.995,5.342,2.986s1.814,4.857,1.814,8.599-.605,6.625-1.814,8.615c-1.209,1.992-2.988,2.987-5.342,2.987-2.34,0-4.117-.995-5.332-2.987-1.215-1.99-1.822-4.862-1.822-8.615s.607-6.607,1.822-8.599,2.992-2.986,5.332-2.986Zm0,1.771c-1.455,0-2.623.77-3.502,2.306-.881,1.538-1.322,4.04-1.322,7.508,0,2.626.24,4.71.723,6.253l7.285-14.507c-.766-1.039-1.826-1.56-3.184-1.56Zm4.842,9.813c0-2.822-.268-5.01-.805-6.563l-7.285,14.671c.777,1.138,1.859,1.706,3.248,1.706,1.479,0,2.654-.776,3.529-2.33s1.312-4.048,1.312-7.483Z" fill="#701616"/>
      <path d="m1217.695,468.92c2.352,0,4.133.995,5.342,2.986s1.812,4.857,1.812,8.599-.604,6.625-1.812,8.615c-1.209,1.992-2.99,2.987-5.342,2.987s-4.119-.995-5.334-2.987c-1.213-1.99-1.82-4.862-1.82-8.615s.607-6.607,1.82-8.599c1.215-1.991,2.992-2.986,5.334-2.986Zm0,1.771c-1.455,0-2.623.77-3.504,2.306-.881,1.538-1.32,4.04-1.32,7.508,0,2.626.24,4.71.721,6.253l7.287-14.507c-.766-1.039-1.828-1.56-3.184-1.56Zm4.842,9.813c0-2.822-.27-5.01-.805-6.563l-7.287,14.671c.777,1.138,1.861,1.706,3.25,1.706,1.477,0,2.652-.776,3.527-2.33s1.314-4.048,1.314-7.483Z" fill="#701616"/>
      <path d="m1237.387,468.92c2.354,0,4.133.995,5.342,2.986s1.814,4.857,1.814,8.599-.605,6.625-1.814,8.615c-1.209,1.992-2.988,2.987-5.342,2.987-2.34,0-4.117-.995-5.332-2.987-1.215-1.99-1.822-4.862-1.822-8.615s.607-6.607,1.822-8.599,2.992-2.986,5.332-2.986Zm0,1.771c-1.455,0-2.623.77-3.502,2.306-.881,1.538-1.322,4.04-1.322,7.508,0,2.626.24,4.71.723,6.253l7.285-14.507c-.766-1.039-1.826-1.56-3.184-1.56Zm4.842,9.813c0-2.822-.268-5.01-.805-6.563l-7.285,14.671c.777,1.138,1.859,1.706,3.248,1.706,1.479,0,2.654-.776,3.529-2.33s1.312-4.048,1.312-7.483Z" fill="#701616"/>
      <path d="m1257.078,468.92c2.354,0,4.133.995,5.342,2.986s1.814,4.857,1.814,8.599-.605,6.625-1.814,8.615c-1.209,1.992-2.988,2.987-5.342,2.987-2.34,0-4.117-.995-5.332-2.987-1.215-1.99-1.822-4.862-1.822-8.615s.607-6.607,1.822-8.599,2.992-2.986,5.332-2.986Zm0,1.771c-1.455,0-2.623.77-3.502,2.306-.881,1.538-1.322,4.04-1.322,7.508,0,2.626.24,4.71.723,6.253l7.285-14.507c-.766-1.039-1.826-1.56-3.184-1.56Zm4.842,9.813c0-2.822-.268-5.01-.805-6.563l-7.285,14.671c.777,1.138,1.859,1.706,3.248,1.706,1.479,0,2.654-.776,3.529-2.33s1.312-4.048,1.312-7.483Z" fill="#701616"/>
      <path d="m1276.77,468.92c2.354,0,4.133.995,5.342,2.986s1.814,4.857,1.814,8.599-.605,6.625-1.814,8.615c-1.209,1.992-2.988,2.987-5.342,2.987-2.34,0-4.117-.995-5.332-2.987-1.215-1.99-1.822-4.862-1.822-8.615s.607-6.607,1.822-8.599,2.992-2.986,5.332-2.986Zm0,1.771c-1.455,0-2.623.77-3.502,2.306-.881,1.538-1.322,4.04-1.322,7.508,0,2.626.24,4.71.723,6.253l7.285-14.507c-.766-1.039-1.826-1.56-3.184-1.56Zm4.842,9.813c0-2.822-.268-5.01-.805-6.563l-7.285,14.671c.777,1.138,1.859,1.706,3.248,1.706,1.479,0,2.654-.776,3.529-2.33s1.312-4.048,1.312-7.483Z" fill="#701616"/>
      <path d="m1296.463,468.92c2.352,0,4.133.995,5.342,2.986s1.812,4.857,1.812,8.599-.604,6.625-1.812,8.615c-1.209,1.992-2.99,2.987-5.342,2.987s-4.119-.995-5.334-2.987c-1.213-1.99-1.82-4.862-1.82-8.615s.607-6.607,1.82-8.599c1.215-1.991,2.992-2.986,5.334-2.986Zm0,1.771c-1.455,0-2.623.77-3.504,2.306-.881,1.538-1.32,4.04-1.32,7.508,0,2.626.24,4.71.721,6.253l7.287-14.507c-.766-1.039-1.828-1.56-3.184-1.56Zm4.842,9.813c0-2.822-.27-5.01-.805-6.563l-7.287,14.671c.777,1.138,1.861,1.706,3.25,1.706,1.477,0,2.652-.776,3.527-2.33s1.314-4.048,1.314-7.483Z" fill="#701616"/>
      <path d="m1316.154,468.92c2.354,0,4.133.995,5.342,2.986s1.814,4.857,1.814,8.599-.605,6.625-1.814,8.615c-1.209,1.992-2.988,2.987-5.342,2.987-2.34,0-4.117-.995-5.332-2.987-1.215-1.99-1.822-4.862-1.822-8.615s.607-6.607,1.822-8.599,2.992-2.986,5.332-2.986Zm0,1.771c-1.455,0-2.623.77-3.502,2.306-.881,1.538-1.322,4.04-1.322,7.508,0,2.626.24,4.71.723,6.253l7.285-14.507c-.766-1.039-1.826-1.56-3.184-1.56Zm4.842,9.813c0-2.822-.268-5.01-.805-6.563l-7.285,14.671c.777,1.138,1.859,1.706,3.248,1.706,1.479,0,2.654-.776,3.529-2.33s1.312-4.048,1.312-7.483Z" fill="#701616"/>
    </g>
  </g>
</svg>