<?xml version="1.0" encoding="UTF-8"?>
<svg xmlns="http://www.w3.org/2000/svg" width="1242.974" height="574" xmlns:xlink="http://www.w3.org/1999/xlink" viewBox="0 0 1242.974 574">
  <defs>
    <linearGradient id="b" data-name="무제 그라디언트 139" x1="-123.026" y1="287" x2="1119.948" y2="287" gradientTransform="translate(123.026)" gradientUnits="userSpaceOnUse">
      <stop offset="0" stop-color="#869ead"/>
      <stop offset=".39" stop-color="#869bab"/>
      <stop offset=".624" stop-color="#8693a6"/>
      <stop offset=".818" stop-color="#87849f"/>
      <stop offset=".988" stop-color="#877093"/>
      <stop offset="1" stop-color="#886f93"/>
    </linearGradient>
    <linearGradient id="d" data-name="무제 그라디언트 63" x1="36.399" y1="472.75" x2="144.73" y2="472.75" gradientUnits="userSpaceOnUse">
      <stop offset="0" stop-color="#6e4851"/>
      <stop offset="1" stop-color="#56356d"/>
    </linearGradient>
    <linearGradient id="e" data-name="무제 그라디언트 63" x1="1039.785" y1="141.668" x2="1208.499" y2="141.668" xlink:href="#d"/>
    <linearGradient id="f" data-name="무제 그라디언트 63" x1="1096.206" y1="324.168" x2="1214.202" y2="324.168" xlink:href="#d"/>
  </defs>
  <g id="a" data-name="레이어 2">
    <rect width="1242.974" height="574" transform="translate(1242.974 574) rotate(180)" fill="url(#b)" stroke-width="0"/>
    <rect width="292.835" height="574" fill="#e4ebef" stroke-width="0"/>
  </g>
  <g id="c" data-name="레이어 1">
    <g opacity=".2">
      <g>
        <path d="M389.521,286.97l-3.867-4.152c-5.115-5.492-10.056-11.427-15.104-18.143-4.694-6.263-9.139-12.902-13.592-20.302l9.654-5.81c4.255,7.07,8.491,13.4,12.95,19.349,3.555,4.731,7.049,9.048,10.589,13.081,4.138-3.684,8.557-7.31,13.188-10.823,5.684-4.302,11.837-8.437,18.293-12.294l5.779,9.672c-6.104,3.647-11.914,7.551-17.268,11.603-5.928,4.495-11.479,9.181-16.497,13.922l-4.124,3.897Z" fill="#2f4047" stroke-width="0"/>
        <path d="M393.78,243.092l-2.975-4.832c-3.979-6.463-7.662-13.25-11.259-20.75-3.424-7.215-6.562-14.81-9.337-22.595l10.613-3.783c2.648,7.43,5.64,14.673,8.893,21.526,2.536,5.287,5.117,10.203,7.822,14.892,4.813-2.822,9.854-5.513,15.044-8.031,6.626-3.182,13.47-6.023,20.364-8.456l3.749,10.625c-6.511,2.298-12.976,4.982-19.216,7.978-6.608,3.206-12.97,6.714-18.888,10.417l-4.81,3.01Z" fill="#2f4047" stroke-width="0"/>
        <path d="M406.569,200.905l-1.968-5.322c-2.63-7.11-4.908-14.488-6.964-22.554-1.917-7.596-3.508-15.655-4.732-23.968l11.147-1.641c1.169,7.938,2.685,15.622,4.506,22.839,1.451,5.692,3.016,11.02,4.746,16.144,5.272-1.821,10.744-3.47,16.333-4.921,6.998-1.801,14.27-3.25,21.625-4.309l1.606,11.152c-6.951,1.001-13.819,2.37-20.411,4.066-7.127,1.85-14.055,4.04-20.58,6.508l-5.308,2.007Z" fill="#2f4047" stroke-width="0"/>
        <path d="M427.383,162.042l-.885-5.604c-2.444-15.475-3.257-31.589-2.417-47.895l11.252.579c-.7,13.586-.196,27.021,1.497,40.018,13.12-1.807,26.228-2.369,39.044-1.671l-.613,11.25c-13.849-.755-28.074.053-42.28,2.398l-5.597.924Z" fill="#2f4047" stroke-width="0"/>
        <path d="M502.971,134.014c-1.937-.499-3.506-.878-4.94-1.191-1.525-.339-3.308-.73-5.122-1.09-4.12-.786-7.314-1.322-10.317-1.729l-.058-.008c-3.623-.529-7.242-.893-10.616-1.206-3.014-.238-6.963-.522-10.846-.626l-5.672-.152.193-5.671c.141-4.151.461-8.234.755-11.68l.007-.078c.35-3.526.791-7.681,1.409-11.774.615-4.376,1.41-8.662,2.035-11.91.422-2.109.864-4.13,1.28-6.006.386-1.77.832-3.64,1.444-6.045l10.919,2.778c-.579,2.275-.998,4.028-1.359,5.686-.407,1.837-.834,3.789-1.228,5.757-.593,3.083-1.357,7.2-1.938,11.336l-.008.058c-.58,3.839-1.002,7.812-1.338,11.197-.145,1.703-.296,3.564-.427,5.501,2.081.125,4.031.271,5.7.402l.078.007c3.529.328,7.33.709,11.214,1.276,3.202.435,6.573,1,10.927,1.831,1.966.39,3.827.798,5.394,1.146,1.553.339,3.252.748,5.327,1.283l-2.812,10.911Z" fill="#2f4047" stroke-width="0"/>
        <path d="M534.914,115.19c-2.722-1.321-5.627-2.618-9.419-4.204-1.525-.632-3.098-1.24-4.847-1.913l-2.452-.923-2.501-.883c-6.498-2.286-13.475-4.301-20.733-5.988l-5.525-1.284,1.323-5.516c1.863-7.769,4.12-15.388,6.71-22.644l1.032-2.883,1.046-2.748c.689-1.775,1.454-3.745,2.26-5.684,1.879-4.473,3.473-8.048,5.024-11.269l10.151,4.889c-1.466,3.044-2.985,6.452-4.779,10.724-.747,1.796-1.486,3.701-2.139,5.382l-1.012,2.66-.973,2.72c-1.848,5.178-3.519,10.558-4.988,16.051,5.667,1.471,11.145,3.134,16.347,4.963l2.672.944,2.545.958c1.859.715,3.502,1.351,5.169,2.041,3.956,1.656,7.13,3.073,10.008,4.47l-4.919,10.136Z" fill="#2f4047" stroke-width="0"/>
        <path d="M569.944,103.041l-.636-.475c-1.15-.859-2.338-1.748-3.48-2.542-1.434-1.009-2.882-2.007-4.331-2.986-1.356-.913-2.734-1.787-4.193-2.713l-2.406-1.504-2.278-1.356c-5.906-3.513-12.173-6.765-19.156-9.941l-5.163-2.348,2.383-5.147c3.407-7.357,7.116-14.385,11.025-20.887l1.578-2.623,1.772-2.812c1.007-1.577,2.049-3.208,3.133-4.815,1.132-1.671,2.294-3.356,3.461-5.016.978-1.408,1.999-2.782,2.987-4.112l.656-.884,9.054,6.707-.667.898c-.978,1.316-1.901,2.558-2.793,3.842-1.147,1.633-2.274,3.266-3.365,4.877-.999,1.48-2.001,3.048-2.97,4.566l-1.702,2.7-1.489,2.476c-2.798,4.655-5.492,9.601-8.039,14.76,5.336,2.584,10.299,5.247,15.056,8.077l2.433,1.45,2.524,1.578c1.459.925,2.966,1.882,4.458,2.886,1.515,1.024,3.023,2.063,4.488,3.094,1.275.886,2.543,1.834,3.768,2.75l.627.468-6.736,9.032Z" fill="#2f4047" stroke-width="0"/>
        <path d="M606.698,97.947l-.222-.247c-.489-.546-.983-1.097-1.48-1.635l-1.794-1.905c-1.261-1.321-2.423-2.532-3.602-3.707-2.197-2.166-4.837-4.731-7.617-7.192l-.046-.041c-2.28-2.062-4.799-4.199-8.168-6.931-1.28-1.036-2.582-2.032-3.961-3.086l-2.528-1.91c-.558-.414-1.15-.838-1.747-1.265l-5.034-3.61,3.644-5.005c.473-.65.949-1.305,1.432-1.946l2.003-2.613c1.1-1.419,2.238-2.885,3.417-4.324,3.029-3.687,5.415-6.465,7.737-9.009,2.81-3.144,5.66-6.067,8.321-8.757,1.468-1.471,2.956-2.892,4.395-4.268l2.264-2.138c.631-.586,1.266-1.158,1.905-1.734l.387-.349,7.546,8.366-.393.354c-.592.533-1.179,1.062-1.763,1.604l-2.18,2.058c-1.438,1.375-2.813,2.689-4.17,4.048-2.544,2.573-5.281,5.38-7.931,8.346l-.041.045c-2.19,2.399-4.463,5.045-7.367,8.581-1.079,1.317-2.17,2.723-3.225,4.083l-.175.226.351.268c1.378,1.054,2.802,2.144,4.206,3.279,3.527,2.86,6.183,5.114,8.612,7.31,2.99,2.647,5.876,5.454,8.058,7.606,1.292,1.287,2.506,2.552,3.846,3.956l1.872,1.986c.544.588,1.084,1.19,1.619,1.787l.219.244-8.388,7.523Z" fill="#2f4047" stroke-width="0"/>
        <path d="M643.798,100.064c-3.646-6.102-7.55-11.912-11.603-17.268-4.496-5.929-9.182-11.481-13.922-16.497l-3.897-4.124,4.152-3.868c5.491-5.115,11.426-10.055,18.143-15.104,6.263-4.694,12.903-9.139,20.303-13.592l5.81,9.654c-7.07,4.255-13.399,8.491-19.349,12.95-4.731,3.556-9.049,7.05-13.082,10.589,3.683,4.137,7.31,8.556,10.823,13.188,4.303,5.686,8.438,11.839,12.294,18.293l-9.672,5.778Z" fill="#2f4047" stroke-width="0"/>
        <path d="M679.657,109.347c-2.297-6.509-4.98-12.974-7.978-19.215-3.205-6.606-6.713-12.968-10.417-18.888l-3.009-4.81,4.832-2.975c6.463-3.979,13.25-7.662,20.749-11.259,7.217-3.425,14.812-6.563,22.596-9.337l3.782,10.613c-7.428,2.648-14.671,5.64-21.526,8.893-5.286,2.536-10.203,5.117-14.891,7.822,2.822,4.814,5.513,9.855,8.031,15.044,3.183,6.628,6.025,13.473,8.456,20.364l-10.625,3.749Z" fill="#2f4047" stroke-width="0"/>
        <path d="M713.021,125.522c-1.001-6.95-2.369-13.817-4.066-20.412-1.85-7.127-4.04-14.055-6.508-20.58l-2.006-5.308,5.322-1.968c7.11-2.63,14.487-4.908,22.554-6.964,7.596-1.917,15.655-3.508,23.968-4.732l1.641,11.147c-7.938,1.169-15.622,2.685-22.838,4.506-5.692,1.451-11.02,3.016-16.144,4.746,1.821,5.272,3.47,10.744,4.921,16.333,1.801,7,3.251,14.272,4.31,21.625l-11.152,1.606Z" fill="#2f4047" stroke-width="0"/>
        <path d="M753.876,148.527l-11.25-.613c.754-13.85-.052-28.075-2.398-42.28l-.924-5.598,5.604-.885c15.475-2.443,31.589-3.257,47.895-2.417l-.579,11.252c-13.587-.698-27.021-.196-40.018,1.497,1.807,13.12,2.37,26.228,1.671,39.044Z" fill="#2f4047" stroke-width="0"/>
        <path d="M778.242,178.436l-10.911-2.809c.501-1.947.88-3.517,1.191-4.941.339-1.525.73-3.308,1.09-5.122.788-4.129,1.323-7.323,1.729-10.316l.008-.059c.53-3.628.893-7.245,1.206-10.615.238-3.014.522-6.963.627-10.846l.152-5.672,5.671.193c4.152.141,8.234.461,11.68.755l.078.007c3.526.35,7.681.791,11.775,1.409,4.377.615,8.663,1.411,11.91,2.035,2.111.422,4.131.864,6.006,1.28,1.767.385,3.637.832,6.045,1.444l-2.778,10.919c-2.278-.58-4.031-.999-5.686-1.359-1.836-.407-3.788-.834-5.757-1.228-3.082-.593-7.199-1.357-11.336-1.938l-.058-.008c-3.839-.58-7.812-1.002-11.196-1.338-1.703-.145-3.564-.296-5.501-.427-.125,2.081-.271,4.031-.403,5.7l-.007.077c-.327,3.526-.708,7.324-1.276,11.214-.433,3.193-.998,6.565-1.83,10.927-.39,1.966-.798,3.827-1.146,5.394-.337,1.543-.746,3.241-1.283,5.326Z" fill="#2f4047" stroke-width="0"/>
        <path d="M796.292,212.487l-10.137-4.919c1.304-2.686,2.639-5.679,4.204-9.419.631-1.521,1.215-3.032,1.913-4.847l.923-2.452.882-2.501c2.286-6.5,4.301-13.477,5.988-20.733l1.284-5.525,5.516,1.323c7.77,1.863,15.388,4.12,22.644,6.71l2.884,1.033,2.748,1.046c1.773.688,3.742,1.452,5.684,2.26,4.47,1.877,8.044,3.471,11.269,5.024l-4.888,10.151c-3.047-1.467-6.455-2.986-10.725-4.779-1.799-.748-3.703-1.487-5.382-2.139l-2.66-1.012-2.72-.973c-5.178-1.848-10.558-3.519-16.051-4.988-1.471,5.667-3.134,11.144-4.964,16.347l-.944,2.672-.958,2.545c-.717,1.864-1.354,3.511-2.042,5.171-1.655,3.954-3.072,7.128-4.469,10.007Z" fill="#2f4047" stroke-width="0"/>
        <path d="M807.335,249.334l-9.031-6.737.466-.624c.862-1.154,1.754-2.346,2.551-3.493,1.01-1.436,2.009-2.884,2.986-4.331.91-1.352,1.781-2.725,2.704-4.178l1.513-2.42,1.357-2.278c3.512-5.904,6.764-12.171,9.941-19.155l2.348-5.163,5.147,2.383c7.359,3.408,14.387,7.117,20.887,11.025l2.623,1.578,2.812,1.772c1.577,1.007,3.208,2.049,4.815,3.133,1.672,1.133,3.358,2.296,5.016,3.461,1.407.977,2.782,1.998,4.11,2.986l.885.657-6.706,9.054-.9-.668c-1.316-.978-2.558-1.901-3.841-2.792-1.632-1.146-3.264-2.272-4.877-3.365-1.48-.999-3.049-2.001-4.566-2.97l-2.7-1.701-2.477-1.489c-4.654-2.797-9.6-5.491-14.759-8.039-2.584,5.336-5.248,10.3-8.077,15.056l-1.45,2.432-1.588,2.54c-.922,1.453-1.876,2.956-2.877,4.442-1.022,1.512-2.061,3.02-3.094,4.488-.89,1.28-1.841,2.552-2.76,3.782l-.459.614Z" fill="#2f4047" stroke-width="0"/>
        <path d="M810.921,287.74l-7.524-8.387.273-.244c.538-.482,1.08-.968,1.61-1.458l1.904-1.794c1.314-1.255,2.521-2.411,3.707-3.602,2.167-2.198,4.733-4.839,7.192-7.618l.04-.045c2.059-2.277,4.197-4.796,6.931-8.168,1.035-1.28,2.032-2.582,3.086-3.961l1.909-2.528c.408-.55.827-1.135,1.249-1.724l3.627-5.057,4.999,3.64c.652.474,1.308.952,1.951,1.435l2.635,2.019c1.411,1.095,2.871,2.228,4.303,3.401,3.688,3.03,6.466,5.416,9.009,7.737,3.142,2.809,6.065,5.659,8.757,8.32,1.471,1.468,2.893,2.956,4.268,4.395l2.137,2.264c.599.645,1.184,1.294,1.773,1.948l.312.346-8.369,7.544-.315-.35c-.545-.605-1.086-1.206-1.639-1.803l-2.06-2.182c-1.375-1.439-2.689-2.813-4.047-4.17-2.574-2.545-5.382-5.283-8.346-7.932l-.045-.041c-2.399-2.19-5.045-4.462-8.581-7.367-1.31-1.074-2.71-2.16-4.063-3.21l-.246-.191-.268.351c-1.054,1.378-2.143,2.802-3.279,4.206-2.863,3.53-5.118,6.186-7.312,8.613-2.646,2.988-5.453,5.875-7.605,8.057-1.297,1.303-2.611,2.562-3.957,3.847l-1.986,1.871c-.579.536-1.173,1.069-1.762,1.597l-.269.241Z" fill="#2f4047" stroke-width="0"/>
        <path d="M862.079,335.437c-4.254-7.07-8.49-13.399-12.95-19.349-3.556-4.731-7.05-9.049-10.589-13.081-4.138,3.683-8.555,7.309-13.188,10.823-5.685,4.303-11.838,8.438-18.293,12.294l-5.779-9.672c6.104-3.647,11.913-7.55,17.268-11.603,5.928-4.496,11.48-9.182,16.497-13.922l4.124-3.897,3.867,4.152c5.114,5.491,10.055,11.426,15.103,18.143,4.695,6.265,9.139,12.904,13.592,20.303l-9.654,5.81Z" fill="#2f4047" stroke-width="0"/>
        <path d="M847.87,382.867c-2.647-7.427-5.639-14.67-8.893-21.527-2.537-5.287-5.118-10.204-7.822-14.891-4.814,2.822-9.855,5.513-15.044,8.031-6.628,3.183-13.473,6.025-20.364,8.456l-3.749-10.625c6.508-2.296,12.973-4.98,19.215-7.978,6.607-3.205,12.969-6.713,18.888-10.416l4.81-3.01,2.975,4.832c3.978,6.461,7.661,13.248,11.26,20.749,3.425,7.219,6.563,14.814,9.337,22.596l-10.613,3.783Z" fill="#2f4047" stroke-width="0"/>
        <path d="M824.639,426.578c-1.168-7.937-2.684-15.621-4.506-22.838-1.45-5.691-3.016-11.02-4.746-16.144-5.272,1.821-10.744,3.47-16.333,4.921-7.001,1.802-14.272,3.251-21.625,4.31l-1.606-11.152c6.949-1.001,13.817-2.369,20.412-4.066,7.128-1.85,14.055-4.041,20.579-6.508l5.307-2.006,1.969,5.321c2.631,7.112,4.909,14.489,6.964,22.554,1.917,7.597,3.508,15.656,4.732,23.968l-11.147,1.641Z" fill="#2f4047" stroke-width="0"/>
        <path d="M804.611,465.456l-11.252-.579c.7-13.586.196-27.02-1.497-40.018-13.12,1.807-26.228,2.369-39.044,1.671l.613-11.25c13.852.755,28.075-.052,42.28-2.398l5.598-.924.885,5.604c2.444,15.476,3.257,31.59,2.418,47.895Z" fill="#2f4047" stroke-width="0"/>
        <path d="M766.168,499.152l-10.918-2.78c.578-2.27.997-4.024,1.359-5.685.409-1.843.837-3.8,1.227-5.755.592-3.08,1.356-7.192,1.939-11.338l.008-.057c.578-3.828,1.001-7.805,1.338-11.195.145-1.703.297-3.564.427-5.502-2.082-.125-4.031-.271-5.7-.403l-.077-.007c-3.526-.327-7.324-.708-11.212-1.275-3.194-.434-6.566-.998-10.929-1.831-1.966-.39-3.827-.798-5.394-1.146-1.544-.337-3.242-.746-5.326-1.283l2.81-10.911c1.946.501,3.516.879,4.941,1.191,1.525.339,3.308.73,5.122,1.09,4.128.787,7.322,1.323,10.316,1.729l.059.008c3.627.53,7.244.893,10.615,1.206,3.015.237,6.964.522,10.846.626l5.673.152-.193,5.671c-.142,4.159-.461,8.238-.755,11.68l-.007.078c-.351,3.532-.793,7.692-1.408,11.776-.617,4.385-1.411,8.666-2.035,11.909-.419,2.098-.862,4.123-1.279,6.005-.386,1.774-.834,3.645-1.445,6.046Z" fill="#2f4047" stroke-width="0"/>
        <path d="M721.86,524.749l-10.151-4.889c1.466-3.046,2.985-6.453,4.778-10.724.746-1.792,1.486-3.7,2.139-5.382l1.012-2.659.972-2.72c1.848-5.177,3.519-10.557,4.988-16.052-5.666-1.471-11.145-3.134-16.347-4.964l-2.672-.944-2.545-.958c-1.862-.716-3.508-1.353-5.171-2.042-3.954-1.655-7.129-3.072-10.007-4.469l4.919-10.137c2.686,1.304,5.679,2.639,9.419,4.204,1.521.63,3.096,1.24,4.847,1.913l2.452.923,2.5.882c6.5,2.286,13.477,4.301,20.734,5.988l5.526,1.284-1.323,5.517c-1.864,7.773-4.122,15.391-6.71,22.644l-1.032,2.884-1.046,2.748c-.69,1.776-1.456,3.751-2.26,5.684-1.878,4.47-3.471,8.045-5.024,11.268Z" fill="#2f4047" stroke-width="0"/>
        <path d="M673.395,541.119l-9.053-6.707.655-.882c.982-1.321,1.909-2.569,2.805-3.859,1.137-1.62,2.264-3.252,3.366-4.878.996-1.474,1.994-3.038,2.96-4.551l1.71-2.715,1.489-2.476c2.797-4.652,5.49-9.599,8.039-14.759-5.336-2.583-10.299-5.247-15.056-8.077l-2.433-1.45-2.521-1.576c-1.459-.926-2.969-1.884-4.461-2.889-1.508-1.019-3.016-2.058-4.487-3.094-1.284-.893-2.558-1.845-3.791-2.767l-.606-.453,6.737-9.03.615.459c1.157.865,2.352,1.759,3.502,2.558,1.438,1.012,2.887,2.01,4.33,2.985,1.358.915,2.737,1.79,4.197,2.716l2.402,1.501,2.278,1.357c5.906,3.513,12.173,6.765,19.156,9.941l5.163,2.348-2.384,5.147c-3.41,7.362-7.119,14.389-11.025,20.887l-1.578,2.622-1.781,2.826c-1.004,1.573-2.042,3.199-3.124,4.801-1.142,1.685-2.305,3.37-3.461,5.016-.981,1.413-2.007,2.793-2.999,4.127l-.645.868Z" fill="#2f4047" stroke-width="0"/>
        <path d="M622.687,547.724l-7.544-8.369.353-.317c.604-.544,1.205-1.085,1.802-1.639l2.179-2.058c1.367-1.306,2.805-2.681,4.171-4.048,2.542-2.57,5.277-5.376,7.931-8.346l.041-.045c2.191-2.4,4.463-5.046,7.367-8.58,1.078-1.315,2.167-2.719,3.22-4.076l.18-.233-.352-.269c-1.377-1.053-2.801-2.142-4.204-3.278-3.528-2.861-6.184-5.115-8.613-7.311-2.99-2.647-5.876-5.455-8.058-7.606-1.311-1.305-2.567-2.616-3.847-3.957l-1.871-1.985c-.533-.577-1.063-1.167-1.588-1.753l-.25-.279,8.387-7.524.253.283c.479.535.962,1.074,1.449,1.6l1.795,1.905c1.203,1.26,2.405,2.514,3.602,3.707,2.197,2.166,4.837,4.732,7.617,7.192l.045.04c2.279,2.061,4.799,4.199,8.169,6.932,1.28,1.035,2.582,2.031,3.96,3.085l2.529,1.91c.559.415,1.151.839,1.749,1.267l5.032,3.609-3.623,4.977c-.479.659-.962,1.323-1.451,1.973l-2.01,2.622c-1.099,1.416-2.234,2.88-3.412,4.317-3.028,3.686-5.414,6.464-7.737,9.008-2.815,3.149-5.662,6.07-8.32,8.757-1.478,1.48-2.965,2.901-4.403,4.275l-2.256,2.13c-.644.599-1.293,1.183-1.945,1.771l-.349.314Z" fill="#2f4047" stroke-width="0"/>
        <path d="M571.718,544.387l-5.81-9.654c7.07-4.254,13.399-8.49,19.349-12.95,4.731-3.555,9.048-7.049,13.081-10.589-3.684-4.138-7.31-8.556-10.823-13.188-4.301-5.683-8.437-11.837-12.294-18.293l9.672-5.779c3.648,6.105,7.552,11.915,11.603,17.268,4.495,5.928,9.181,11.48,13.922,16.498l3.897,4.124-4.152,3.867c-5.492,5.115-11.427,10.055-18.143,15.103-6.264,4.695-12.904,9.139-20.303,13.592Z" fill="#2f4047" stroke-width="0"/>
        <path d="M522.262,531.136l-3.783-10.613c7.429-2.648,14.672-5.64,21.526-8.893,5.288-2.537,10.204-5.118,14.891-7.822-2.822-4.814-5.513-9.854-8.031-15.044-3.182-6.626-6.023-13.47-8.456-20.363l10.625-3.75c2.298,6.511,4.982,12.976,7.978,19.216,3.206,6.608,6.714,12.97,10.417,18.888l3.01,4.81-4.832,2.975c-6.46,3.977-13.248,7.66-20.75,11.26-7.216,3.425-14.811,6.563-22.595,9.337Z" fill="#2f4047" stroke-width="0"/>
        <path d="M476.408,508.44l-1.641-11.147c7.937-1.168,15.621-2.684,22.839-4.506,5.691-1.45,11.019-3.016,16.144-4.746-1.821-5.272-3.47-10.744-4.921-16.333-1.801-6.999-3.25-14.27-4.309-21.625l11.152-1.606c1.001,6.951,2.37,13.819,4.066,20.412,1.85,7.128,4.041,14.055,6.507,20.579l2.007,5.307-5.322,1.969c-7.111,2.631-14.489,4.909-22.554,6.964-7.597,1.917-15.656,3.508-23.967,4.732Z" fill="#2f4047" stroke-width="0"/>
        <path d="M448.29,477.585c-4.117,0-8.252-.107-12.401-.32l.58-11.252c13.585.699,27.02.196,40.018-1.497-1.807-13.12-2.37-26.228-1.671-39.044l11.25.613c-.755,13.85.052,28.075,2.398,42.28l.924,5.598-5.604.885c-11.538,1.822-23.433,2.738-35.495,2.738Z" fill="#2f4047" stroke-width="0"/>
        <path d="M455.359,445.945l-5.671-.193c-4.159-.142-8.238-.461-11.681-.755l-.078-.007c-3.532-.351-7.691-.793-11.774-1.408-4.384-.617-8.667-1.412-11.911-2.036-2.096-.419-4.122-.862-6.005-1.279-1.777-.387-3.648-.834-6.046-1.445l2.78-10.918c2.267.577,4.02.996,5.685,1.359,1.843.409,3.801.837,5.755,1.227,3.08.592,7.193,1.356,11.338,1.938l.057.008c3.828.578,7.805,1.001,11.196,1.338,1.703.145,3.563.297,5.502.427.125-2.082.271-4.031.402-5.7l.007-.077c.328-3.531.709-7.332,1.276-11.215.564-4.151,1.315-8.223,1.831-10.927.39-1.966.798-3.827,1.146-5.394.339-1.554.749-3.253,1.283-5.327l10.911,2.812c-.499,1.936-.877,3.506-1.191,4.94-.339,1.525-.729,3.308-1.09,5.122-.786,4.12-1.322,7.314-1.729,10.317l-.008.058c-.529,3.621-.893,7.241-1.206,10.615-.238,3.015-.522,6.964-.626,10.847l-.152,5.673Z" fill="#2f4047" stroke-width="0"/>
        <path d="M427.341,411.908l-5.517-1.323c-7.772-1.864-15.391-4.122-22.644-6.71l-2.884-1.032-2.748-1.046c-1.778-.69-3.754-1.457-5.684-2.26-4.473-1.878-8.048-3.472-11.268-5.023l4.889-10.151c3.043,1.466,6.45,2.984,10.724,4.778,1.789.744,3.698,1.485,5.382,2.139l2.66,1.012,2.719.972c5.177,1.848,10.557,3.519,16.052,4.988,1.471-5.667,3.134-11.145,4.963-16.347l.944-2.672.958-2.545c.714-1.857,1.35-3.499,2.041-5.169,1.656-3.957,3.073-7.131,4.47-10.008l10.136,4.919c-1.321,2.723-2.618,5.628-4.204,9.419-.633,1.529-1.241,3.1-1.913,4.847l-.923,2.452-.883,2.501c-2.286,6.498-4.301,13.476-5.988,20.733l-1.284,5.526Z" fill="#2f4047" stroke-width="0"/>
        <path d="M406.522,373.045l-5.147-2.384c-7.36-3.409-14.387-7.118-20.887-11.025l-2.623-1.579-2.826-1.781c-1.573-1.004-3.199-2.042-4.801-3.124-1.683-1.141-3.368-2.304-5.016-3.461-1.414-.982-2.794-2.007-4.129-2.999l-.867-.644,6.707-9.053.881.654c1.321.982,2.569,1.91,3.859,2.806,1.622,1.139,3.254,2.265,4.878,3.366,1.474.996,3.038,1.994,4.551,2.96l2.714,1.71,2.477,1.49c4.653,2.797,9.6,5.491,14.76,8.039,2.583-5.335,5.247-10.298,8.077-15.056l1.45-2.433,1.566-2.504c.929-1.465,1.89-2.98,2.899-4.477,1.021-1.511,2.06-3.019,3.094-4.488.889-1.279,1.838-2.549,2.756-3.777l.462-.618,9.031,6.736-.469.628c-.861,1.152-1.752,2.344-2.548,3.489-1.011,1.437-2.009,2.885-2.986,4.33-.918,1.363-1.796,2.747-2.725,4.212l-1.492,2.387-1.356,2.278c-3.514,5.908-6.766,12.175-9.941,19.156l-2.348,5.163Z" fill="#2f4047" stroke-width="0"/>
        <path d="M393.766,330.847l-4.984-3.627c-.658-.478-1.32-.959-1.968-1.447l-2.6-1.993c-1.423-1.104-2.894-2.245-4.338-3.429-3.685-3.028-6.464-5.413-9.008-7.736-3.15-2.816-6.071-5.663-8.757-8.321-1.48-1.478-2.901-2.965-4.275-4.403l-2.131-2.256c-.585-.63-1.156-1.264-1.731-1.902l-.351-.39,8.366-7.546.356.395c.532.591,1.061,1.178,1.602,1.761l2.058,2.179c1.306,1.367,2.681,2.805,4.048,4.171,2.569,2.541,5.374,5.276,8.346,7.931l.045.041c2.4,2.192,5.047,4.464,8.581,7.367,1.321,1.083,2.732,2.177,4.096,3.235l.213.165.269-.352c1.053-1.377,2.143-2.801,3.278-4.204,2.859-3.526,5.114-6.182,7.312-8.614,2.648-2.991,5.454-5.876,7.605-8.056,1.295-1.301,2.558-2.511,3.957-3.847l1.985-1.871c.585-.541,1.184-1.078,1.778-1.61l.255-.229,7.523,8.388-.258.232c-.542.486-1.09.976-1.624,1.47l-1.905,1.795c-1.317,1.257-2.525,2.414-3.707,3.602-2.165,2.196-4.73,4.835-7.192,7.617l-.04.045c-2.064,2.282-4.202,4.801-6.932,8.169-1.035,1.28-2.031,2.582-3.085,3.96l-1.91,2.529c-.42.566-.85,1.168-1.284,1.773l-3.59,5.008Z" fill="#2f4047" stroke-width="0"/>
      </g>
    </g>
    <g>
      <path d="M335.344,435.151l1.255-14.387h40.213l1.255,14.387h-2.802c-.156-1.673-.292-2.957-.409-3.852-.117-.895-.384-1.931-.802-3.108-.418-1.177-.948-2.043-1.59-2.597-.642-.555-1.542-1.031-2.7-1.431-1.158-.398-2.573-.598-4.246-.598h-4.523v34.727h9.134v2.802c-2.159-.117-6.624-.175-13.395-.175s-11.235.058-13.395.175v-2.802h9.163v-34.727h-4.611c-1.673,0-3.098.209-4.275.627-1.177.419-2.082.905-2.714,1.459-.632.555-1.148,1.411-1.546,2.568-.399,1.158-.671,2.185-.817,3.079s-.277,2.179-.394,3.852h-2.801Z" fill="#2f4047" stroke-width="0"/>
      <path d="M373.751,461.094v-2.802h1.255c2.062,0,3.375-.102,3.94-.307.564-.205.943-.562,1.138-1.069l14.825-35.978c.156-.447.292-.759.409-.934s.326-.325.627-.452c.301-.127.734-.189,1.299-.189.447,0,.768.024.963.072.194.049.433.19.715.424.282.233.521.594.715,1.079l15.292,37.354h5.807v2.802c-1.401-.117-4.65-.175-9.747-.175-5.506,0-9.017.058-10.535.175v-2.802h5.69l-3.589-8.755h-16.021l-2.977,7.262c-.156.156-.234.391-.234.703,0,.526,1.771.79,5.312.79v2.802c-1.479-.117-4.105-.175-7.879-.175-.136,0-2.471.058-7.004.175ZM387.73,446.736h13.628l-6.8-16.605-6.829,16.605Z" fill="#2f4047" stroke-width="0"/>
      <path d="M421.527,440.608c0-6.264,2.184-11.356,6.552-15.276,4.367-3.92,10.17-5.881,17.407-5.881,4.426,0,8.364,1.353,11.815,4.057l3.935-3.531c.388-.35.767-.525,1.137-.525.477,0,.773.107.888.321.114.214.172.661.172,1.343v12.84c0,.798-.081,1.279-.244,1.444-.162.166-.616.248-1.361.248-.669,0-1.08-.062-1.233-.189-.153-.126-.268-.481-.344-1.065-.649-3.696-2.233-6.644-4.752-8.842-2.52-2.198-5.42-3.298-8.701-3.298-2.782,0-5.287.477-7.514,1.43-2.228.954-3.964,2.209-5.209,3.765-2.276,2.996-3.415,7.354-3.415,13.074,0,5.787,1.119,10.123,3.356,13.006,1.401,1.793,3.283,3.147,5.647,4.063s4.888,1.374,7.573,1.374c2.159,0,3.949-.42,5.37-1.259,1.556-.916,2.334-2.33,2.334-4.241v-6.057h-8.609v-2.802c2.167.117,6.266.176,12.297.176,4.998,0,8.194-.059,9.589-.176v2.802h-4.786v12.023c0,1.108-.277,1.663-.832,1.663-.272,0-1.108-.351-2.508-1.051s-2.517-1.41-3.353-2.13c-2.066,2.549-5.779,3.832-11.138,3.852-7.49,0-13.375-1.994-17.655-5.982-4.28-3.987-6.42-9.046-6.42-15.175Z" fill="#2f4047" stroke-width="0"/>
      <path d="M471.957,440.856c0-6.386,1.984-11.549,5.953-15.491,3.969-3.942,9.319-5.914,16.051-5.914,6.614,0,11.921,1.952,15.919,5.855s5.997,9.087,5.997,15.55c0,6.202-1.97,11.237-5.91,15.106s-9.294,5.803-16.065,5.803c-6.693,0-12.023-1.919-15.992-5.759-3.969-3.84-5.953-8.89-5.953-15.15ZM481.092,439.951c0,5.657.817,10.021,2.451,13.093,1.148,2.119,2.67,3.685,4.567,4.695,1.896,1.011,3.827,1.516,5.792,1.516,4.377,0,7.743-1.895,10.097-5.686,1.829-3.032,2.743-7.571,2.743-13.618,0-5.501-.837-9.661-2.51-12.48-1.148-1.865-2.651-3.27-4.509-4.213s-3.799-1.414-5.822-1.414c-1.907,0-3.76.433-5.559,1.297-1.8.866-3.273,2.153-4.421,3.864-1.887,2.896-2.831,7.212-2.831,12.946ZM486.549,412.564c0-.953.326-1.819.978-2.598.652-.777,1.435-1.167,2.349-1.167.525,0,1.089.16,1.693.481.603.321,2.198,1.299,4.786,2.933,1.518.954,2.772,1.751,3.765,2.394l-1.021,2.626c-.953-.111-2.267-.303-3.939-.573-1.673-.271-3.366-.537-5.078-.798-2.354-.331-3.531-1.431-3.531-3.298Z" fill="#2f4047" stroke-width="0"/>
      <path d="M518.507,461.094v-2.802h1.488c1.187,0,2.266-.059,3.239-.175.836-.077,1.332-.189,1.488-.336.155-.146.233-.559.233-1.24v-33.647h-6.449v-2.801h13.278c.525,0,.905.02,1.138.058.233.04.486.171.759.395.272.224.515.569.729,1.036l14.329,31.634,14.358-31.634c.312-.681.637-1.1.978-1.255.34-.156.891-.233,1.649-.233h13.19v2.801h-6.274v35.398h6.274v2.802c-1.428-.117-4.804-.175-10.127-.175-5.285,0-8.641.058-10.068.175v-2.802h6.274v-35.398h-.058l-16.664,36.771c-.448.953-1.09,1.43-1.926,1.43s-1.469-.496-1.897-1.488l-16.254-35.924h-.059v32.859c0,.682.078,1.095.234,1.24.155.146.671.259,1.546.336,1.07.116,2.13.175,3.181.175h1.488v2.802c-1.634-.117-4.329-.175-8.083-.175-3.813,0-6.479.058-7.996.175Z" fill="#2f4047" stroke-width="0"/>
      <path d="M335.285,532.813v-2.802h1.255c2.062,0,3.375-.102,3.94-.307.564-.205.943-.562,1.138-1.069l14.825-35.978c.156-.447.292-.759.409-.934s.326-.325.627-.452c.301-.127.734-.189,1.299-.189.447,0,.768.024.963.072.194.049.433.19.715.424.282.233.521.594.715,1.079l15.292,37.354h5.807v2.802c-1.401-.117-4.65-.175-9.747-.175-5.506,0-9.017.058-10.535.175v-2.802h5.69l-3.589-8.755h-16.021l-2.977,7.262c-.156.156-.234.391-.234.703,0,.526,1.771.79,5.312.79v2.802c-1.479-.117-4.105-.175-7.879-.175-.136,0-2.471.058-7.004.175ZM349.264,518.455h13.628l-6.8-16.605-6.829,16.605Z" fill="#2f4047" stroke-width="0"/>
      <path d="M383.498,532.813v-2.802h6.449v-35.398h-6.449v-2.801h25.71c6.05,0,11.026,1.872,14.927,5.617,3.9,3.745,5.851,8.828,5.851,15.248,0,6.265-1.941,11.187-5.822,14.767-3.881,3.579-8.848,5.369-14.898,5.369h-25.768ZM398.09,530.011h8.726c5.505,0,9.426-1.673,11.761-5.02.953-1.361,1.629-2.957,2.028-4.785.398-1.829.598-4.358.598-7.588,0-5.934-.856-10.155-2.568-12.665-2.471-3.541-6.411-5.321-11.819-5.341h-8.726v35.398Z" fill="#2f4047" stroke-width="0"/>
      <path d="M451.063,494.612v-2.801c1.4.116,4.552.175,9.455.175,5.544,0,9.065-.059,10.564-.175v2.801h-5.603l12.724,28.628,12.082-27.197c0-.039.029-.107.087-.205.058-.097.097-.185.117-.262.019-.078.029-.156.029-.234,0-.485-1.751-.729-5.253-.729v-2.801c1.556.116,4.163.175,7.821.175.486,0,1.104-.01,1.853-.029s1.625-.048,2.626-.088c1.002-.038,1.755-.058,2.262-.058v2.801h-1.109c-1.401,0-2.461.063-3.181.19-.72.126-1.158.268-1.313.423-.156.156-.312.39-.467.7l-15.905,35.924c-.272.642-.588,1.04-.948,1.196-.36.155-.842.233-1.444.233-.759,0-1.28-.107-1.562-.321-.282-.214-.56-.622-.832-1.226l-16.488-37.12h-5.515Z" fill="#2f4047" stroke-width="0"/>
      <path d="M492.651,532.813v-2.802h1.255c2.062,0,3.375-.102,3.94-.307.564-.205.943-.562,1.138-1.069l14.825-35.978c.156-.447.292-.759.409-.934s.326-.325.627-.452c.301-.127.734-.189,1.299-.189.447,0,.768.024.963.072.194.049.433.19.715.424.282.233.521.594.715,1.079l15.292,37.354h5.807v2.802c-1.401-.117-4.65-.175-9.747-.175-5.506,0-9.017.058-10.535.175v-2.802h5.69l-3.589-8.755h-16.021l-2.977,7.262c-.156.156-.234.391-.234.703,0,.526,1.771.79,5.312.79v2.802c-1.479-.117-4.105-.175-7.879-.175-.136,0-2.471.058-7.004.175ZM506.63,518.455h13.628l-6.8-16.605-6.829,16.605Z" fill="#2f4047" stroke-width="0"/>
      <path d="M540.426,512.326c0-6.264,2.184-11.356,6.552-15.276,4.367-3.92,10.17-5.881,17.407-5.881,4.426,0,8.364,1.353,11.815,4.057l3.936-3.531c.388-.35.767-.525,1.137-.525.477,0,.772.107.888.321.114.214.172.661.172,1.343v12.84c0,.798-.081,1.279-.243,1.444-.162.166-.616.248-1.361.248-.669,0-1.08-.062-1.232-.189-.153-.126-.268-.481-.344-1.065-.649-3.696-2.233-6.644-4.753-8.842s-5.42-3.298-8.7-3.298c-2.782,0-5.288.477-7.515,1.43-2.228.954-3.964,2.209-5.209,3.765-2.276,2.996-3.415,7.354-3.415,13.074,0,5.787,1.119,10.123,3.356,13.006,1.401,1.793,3.283,3.147,5.647,4.063s4.888,1.374,7.573,1.374c2.159,0,3.949-.42,5.37-1.259,1.556-.916,2.334-2.33,2.334-4.241v-6.057h-8.608v-2.802c2.167.117,6.266.176,12.297.176,4.998,0,8.194-.059,9.59-.176v2.802h-4.786v12.023c0,1.108-.277,1.663-.831,1.663-.272,0-1.108-.351-2.508-1.051-1.4-.7-2.518-1.41-3.354-2.13-2.065,2.549-5.778,3.832-11.138,3.852-7.491,0-13.376-1.994-17.656-5.982-4.28-3.987-6.42-9.046-6.42-15.175Z" fill="#2f4047" stroke-width="0"/>
      <path d="M590.858,512.574c0-6.386,1.984-11.549,5.953-15.491s9.318-5.914,16.051-5.914c6.614,0,11.921,1.952,15.919,5.855s5.997,9.087,5.997,15.55c0,6.202-1.971,11.237-5.91,15.106s-9.294,5.803-16.064,5.803c-6.693,0-12.023-1.919-15.992-5.759s-5.953-8.89-5.953-15.15ZM599.991,511.67c0,5.657.817,10.021,2.451,13.093,1.148,2.119,2.671,3.685,4.567,4.695s3.827,1.516,5.793,1.516c4.377,0,7.743-1.895,10.097-5.686,1.829-3.032,2.743-7.571,2.743-13.618,0-5.501-.837-9.661-2.51-12.48-1.147-1.865-2.65-3.27-4.509-4.213-1.857-.943-3.799-1.414-5.821-1.414-1.907,0-3.76.433-5.56,1.297-1.8.866-3.273,2.153-4.421,3.864-1.888,2.896-2.831,7.212-2.831,12.946ZM605.449,484.282c0-.953.326-1.819.978-2.598.652-.777,1.435-1.167,2.35-1.167.525,0,1.089.16,1.692.481.603.321,2.198,1.299,4.786,2.933,1.518.954,2.772,1.751,3.765,2.394l-1.021,2.626c-.953-.111-2.267-.303-3.939-.573-1.674-.271-3.366-.537-5.078-.798-2.354-.331-3.531-1.431-3.531-3.298Z" fill="#2f4047" stroke-width="0"/>
      <path d="M637.407,532.813v-2.802h1.488c1.187,0,2.267-.059,3.239-.175.836-.077,1.332-.189,1.488-.336.155-.146.233-.559.233-1.24v-33.647h-6.449v-2.801h13.278c.525,0,.904.02,1.138.058.233.04.486.171.759.395s.516.569.729,1.036l14.329,31.634,14.357-31.634c.312-.681.637-1.1.978-1.255.34-.156.891-.233,1.649-.233h13.19v2.801h-6.274v35.398h6.274v2.802c-1.428-.117-4.804-.175-10.127-.175-5.285,0-8.641.058-10.067.175v-2.802h6.273v-35.398h-.058l-16.663,36.771c-.448.953-1.09,1.43-1.927,1.43s-1.469-.496-1.896-1.488l-16.255-35.924h-.059v32.859c0,.682.078,1.095.234,1.24.155.146.671.259,1.546.336,1.07.116,2.131.175,3.182.175h1.488v2.802c-1.635-.117-4.329-.175-8.084-.175-3.813,0-6.479.058-7.996.175Z" fill="#2f4047" stroke-width="0"/>
    </g>
    <g>
      <path d="M244.732,152.447h-1.093v-2.516h-13.673v2.516h-1.093v-14.481l5.624-.717v1.093c-.639.076-1.166.165-1.581.268-.415.103-.824.262-1.227.479-.403.216-.723.487-.959.813s-.422.756-.559,1.287c-.137.531-.206,1.161-.206,1.89v3.54h6v-1.286c0-1.04-.211-1.711-.632-2.015-.421-.304-1.122-.456-2.101-.456v-1.093h6.558v1.093c-.979,0-1.679.152-2.101.456s-.632.975-.632,2.015v1.286h6.581v-3.539c0-.698-.051-1.316-.154-1.855s-.273-.994-.512-1.366c-.239-.371-.496-.687-.769-.944-.273-.258-.632-.473-1.076-.644s-.869-.295-1.273-.374c-.405-.078-.908-.177-1.51-.294v-1.104l6.387,1.08v14.87Z" fill="#2f4047" stroke-width="0"/>
      <path d="M244.732,134.847h-1.093v-2.516h-13.81v2.516h-1.093c.045-.592.068-2.015.068-4.269,0-2.46-.023-4.026-.068-4.702h1.093v3.142h13.81v-2.401c0-.577-.074-1.103-.222-1.577s-.326-.861-.535-1.161c-.208-.3-.489-.575-.842-.825-.353-.251-.661-.438-.922-.563-.262-.126-.604-.237-1.024-.336-.421-.099-.732-.16-.934-.183s-.473-.062-.814-.118v-1.157l6.387.771v13.38Z" fill="#2f4047" stroke-width="0"/>
      <path d="M244.732,118.874h-1.093v-2.652h-13.81v2.652h-1.093c.045-.638.068-2.073.068-4.309s-.023-3.672-.068-4.31h1.093v2.652h13.81v-2.652h1.093c-.045.638-.068,2.074-.068,4.31s.023,3.671.068,4.309Z" fill="#2f4047" stroke-width="0"/>
      <path d="M244.732,108.582h-1.093v-2.516h-13.673v2.516h-1.093v-14.105l5.624-.717v1.093c-.624.076-1.134.161-1.529.256s-.805.243-1.227.444-.75.461-.981.779c-.232.319-.422.742-.571,1.27s-.223,1.156-.223,1.885v3.267h6.285v-1.161c0-1.039-.211-1.707-.632-2.003-.421-.297-1.122-.444-2.101-.444v-1.104h6.546v1.104c-.979,0-1.677.147-2.095.444-.417.296-.626.964-.626,2.003v1.161h6.296v-3.142h1.093c-.045.683-.068,2.25-.068,4.702,0,2.254.023,3.677.068,4.269Z" fill="#2f4047" stroke-width="0"/>
      <path d="M244.732,94.67h-1.093v-.49c0-.804-.04-1.316-.12-1.536-.08-.221-.219-.368-.417-.444l-14.036-5.783c-.174-.061-.296-.114-.364-.16-.068-.045-.127-.127-.176-.244-.049-.118-.074-.286-.074-.507,0-.175.01-.3.028-.376.019-.075.074-.169.165-.278.091-.11.232-.203.421-.279l14.573-5.966v-2.266h1.093c-.045.547-.068,1.814-.068,3.803,0,2.148.023,3.518.068,4.11h-1.093v-2.221l-3.416,1.4v6.251l2.833,1.161c.061.061.152.091.274.091.206,0,.309-.69.309-2.072h1.093c-.045.577-.068,1.602-.068,3.074,0,.053.023.964.068,2.732ZM239.131,89.217v-5.317l-6.478,2.653,6.478,2.664Z" fill="#2f4047" stroke-width="0"/>
      <path d="M244.732,74.576h-1.093v-.672c0-.479-.023-.952-.068-1.423-.03-.356-.07-.587-.12-.688-.049-.103-.143-.207-.279-.313l-6.182-4.713-7.161,5.18v2.288h-1.093c.045-.546.068-1.806.068-3.779,0-2.179-.023-3.587-.068-4.224h1.093v1.935l4.6-3.335-4.087-3.074c-.015-.015-.057-.046-.125-.091-.068-.046-.11-.076-.125-.092-.175.547-.262,1.261-.262,2.141h-1.093c.045-.562.068-1.741.068-3.54,0-1.428-.023-2.471-.068-3.131h1.093v.683c0,.531.023.979.068,1.344.031.402.066.654.108.757.042.103.146.218.313.348l5.157,3.916,8.163-5.897v-2.288h1.093c-.045.546-.068,1.807-.068,3.779,0,2.179.023,3.583.068,4.213h-1.093v-1.936l-5.624,4.064,5.111,3.848c.016.016.057.046.125.091.068.046.11.076.125.092.175-.547.262-1.26.262-2.141h1.093c-.045.562-.068,1.742-.068,3.541,0,1.427.023,2.467.068,3.119Z" fill="#2f4047" stroke-width="0"/>
      <path d="M244.732,54.163h-1.093v-.49c0-.804-.04-1.316-.12-1.536-.08-.221-.219-.368-.417-.444l-14.036-5.783c-.174-.061-.296-.114-.364-.16-.068-.045-.127-.127-.176-.244-.049-.118-.074-.286-.074-.507,0-.175.01-.3.028-.376.019-.075.074-.169.165-.278.091-.11.232-.203.421-.279l14.573-5.966v-2.266h1.093c-.045.547-.068,1.814-.068,3.803,0,2.148.023,3.518.068,4.11h-1.093v-2.221l-3.416,1.4v6.251l2.833,1.161c.061.061.152.091.274.091.206,0,.309-.69.309-2.072h1.093c-.045.577-.068,1.602-.068,3.074,0,.053.023.964.068,2.732ZM239.131,48.71v-5.317l-6.478,2.653,6.478,2.664Z" fill="#2f4047" stroke-width="0"/>
      <path d="M244.333,33.375h-4.247c-.296,0-.482-.026-.558-.08-.076-.053-.114-.212-.114-.478,0-.122.008-.219.023-.291.016-.071.046-.127.091-.165.046-.038.097-.061.154-.068.057-.007.146-.011.268-.011.807-.046,1.495-.268,2.066-.666s.981-.905,1.233-1.521c.251-.614.422-1.186.513-1.713.092-.527.137-1.064.137-1.611,0-1.085-.279-1.861-.838-2.328-.559-.467-1.188-.7-1.887-.7-.73,0-1.41.312-2.042.935-.235.25-.392.528-.469.834-.077.306-.255,1.014-.536,2.125-.312,1.412-.569,2.38-.771,2.903-.202.523-.565,1.047-1.091,1.571-.89.842-1.929,1.264-3.117,1.264-1.316,0-2.423-.454-3.32-1.361-.897-.907-1.345-2.203-1.345-3.889,0-1.593.417-2.928,1.253-4.003l-1.007-1.104c-.164-.192-.246-.353-.246-.48v-.012c0-.2.042-.324.125-.372s.258-.072.523-.072h4.27c.281,0,.459.029.535.087.076.059.114.231.114.521,0,.256-.027.413-.08.472-.054.058-.229.111-.526.161-1,.17-1.812.519-2.437,1.047-.625.528-1.04,1.089-1.242,1.68-.202.591-.303,1.227-.303,1.906,0,1.027.251,1.768.752,2.222.502.455,1.062.682,1.68.682.648,0,1.18-.208,1.595-.625.415-.417.687-.873.814-1.368l.707-3.383c.239-1.182.813-2.186,1.725-3.014.912-.827,1.998-1.241,3.259-1.241,1.335,0,2.502.458,3.5,1.375.998.918,1.496,2.297,1.496,4.139,0,1.896-.425,3.401-1.275,4.519l1.061,1.169c.136.166.207.328.214.485,0,.208-.043.336-.131.386s-.264.075-.529.075Z" fill="#2f4047" stroke-width="0"/>
      <path d="M272.711,442.634h-1.093v-2.516h-13.81v2.516h-1.093v-10.029c0-2.36.73-4.302,2.191-5.823,1.461-1.522,3.444-2.283,5.949-2.283,2.444,0,4.364.757,5.761,2.271,1.396,1.514,2.095,3.451,2.095,5.812v10.053ZM271.618,436.942v-3.403c0-2.148-.653-3.678-1.958-4.589-.531-.371-1.153-.635-1.867-.791-.713-.155-1.7-.233-2.96-.233-2.314,0-3.962.334-4.941,1.002-1.381.964-2.076,2.501-2.083,4.611v3.403h13.81Z" fill="#2f4047" stroke-width="0"/>
      <path d="M259.641,420.616c-.349.334-.78.501-1.292.501s-.943-.171-1.292-.513c-.349-.342-.523-.777-.523-1.31,0-.637.279-1.161.837-1.57.558-.41,1.25-.615,2.078-.615.592,0,1.174.086,1.748.256.573.171,1.062.38,1.469.627.406.246.763.506,1.07.779.308.273.539.515.695.724.155.208.233.36.233.455s-.042.193-.125.296-.18.153-.29.153-.273-.113-.49-.341c-.216-.229-.461-.48-.734-.758-.273-.276-.713-.552-1.321-.825-.607-.273-1.305-.44-2.095-.501.372.418.558.858.558,1.32,0,.547-.175.987-.524,1.321Z" fill="#2f4047" stroke-width="0"/>
      <path d="M272.711,414.661h-1.093v-2.516h-13.673v2.516h-1.093v-14.481l5.624-.717v1.093c-.639.076-1.166.165-1.581.268-.415.103-.824.262-1.227.479-.403.216-.723.487-.959.813s-.422.756-.559,1.287c-.137.531-.206,1.161-.206,1.89v3.54h6v-1.286c0-1.04-.211-1.711-.632-2.015-.421-.304-1.122-.456-2.101-.456v-1.093h6.558v1.093c-.979,0-1.679.152-2.101.456s-.632.975-.632,2.015v1.286h6.581v-3.539c0-.698-.051-1.316-.154-1.855s-.273-.994-.512-1.366c-.239-.371-.496-.687-.769-.944-.273-.258-.632-.473-1.076-.644s-.869-.295-1.273-.374c-.405-.078-.908-.177-1.51-.294v-1.104l6.387,1.08v14.87Z" fill="#2f4047" stroke-width="0"/>
      <path d="M272.711,397.061h-1.093v-2.516h-13.81v2.516h-1.093v-8.857c0-2.132.411-3.823,1.234-5.071.822-1.249,1.848-1.873,3.075-1.873.828,0,1.579.326,2.255.979.676.651,1.177,1.622,1.503,2.91.562-1.505,1.471-2.384,2.726-2.637.03,0,.343-.045.939-.136.596-.09.939-.142,1.029-.155.345-.053.632-.097.861-.131.229-.035.503-.108.822-.22.32-.112.562-.28.725-.503.164-.224.246-.496.246-.816,0-.374-.141-.702-.421-.984s-.679-.454-1.195-.515c-.121-.016-.212-.03-.273-.046-.061-.016-.119-.062-.176-.143s-.085-.195-.085-.348c0-.371.171-.558.512-.558.106,0,.243.016.41.046s.374.104.62.223c.247.118.477.271.689.457s.393.463.541.828c.148.365.222.784.222,1.256,0,1.456-.206,2.579-.618,3.37-.19.381-.402.686-.634.913-.233.228-.521.388-.864.481-.343.093-1.223.19-2.64.293,0,0-.286.021-.86.062-.574.042-1.054.247-1.438.617-.527.485-.79,1.187-.79,2.104v2.762h6.489v-2.516h1.093c-.045.562-.068,1.93-.068,4.104s.023,3.542.068,4.104ZM264.286,391.368v-2.698c0-.729-.078-1.351-.233-1.867-.155-.516-.326-.9-.511-1.155-.186-.254-.455-.447-.807-.58-.352-.133-.632-.207-.841-.223-.208-.015-.491-.022-.847-.022-.372,0-.67.012-.898.034s-.508.101-.841.233c-.333.133-.593.322-.779.569-.186.247-.352.624-.5,1.133-.147.509-.222,1.119-.222,1.833v2.743h6.478Z" fill="#2f4047" stroke-width="0"/>
      <path d="M272.711,376.922h-1.093v-.49c0-.804-.04-1.316-.12-1.536-.08-.221-.219-.368-.417-.444l-14.036-5.783c-.174-.061-.296-.114-.364-.16-.068-.045-.127-.127-.176-.244-.049-.118-.074-.286-.074-.507,0-.175.01-.3.028-.376.019-.075.074-.169.165-.278.091-.11.232-.203.421-.279l14.573-5.966v-2.266h1.093c-.045.547-.068,1.814-.068,3.803,0,2.148.023,3.518.068,4.11h-1.093v-2.221l-3.416,1.4v6.251l2.833,1.161c.061.061.152.091.274.091.206,0,.309-.69.309-2.072h1.093c-.045.577-.068,1.602-.068,3.074,0,.053.023.964.068,2.732ZM267.11,371.469v-5.317l-6.478,2.653,6.478,2.664Z" fill="#2f4047" stroke-width="0"/>
      <path d="M272.711,356.827h-1.093v-.672c0-.479-.023-.952-.068-1.423-.03-.356-.07-.587-.12-.688-.049-.103-.143-.207-.279-.313l-6.182-4.713-7.161,5.18v2.288h-1.093c.045-.546.068-1.806.068-3.779,0-2.179-.023-3.587-.068-4.224h1.093v1.935l4.6-3.335-4.087-3.074c-.015-.015-.057-.046-.125-.091-.068-.046-.11-.076-.125-.092-.175.547-.262,1.261-.262,2.141h-1.093c.045-.562.068-1.741.068-3.54,0-1.428-.023-2.471-.068-3.131h1.093v.683c0,.531.023.979.068,1.344.031.402.066.654.108.757.042.103.146.218.313.348l5.157,3.916,8.163-5.897v-2.288h1.093c-.045.546-.068,1.807-.068,3.779,0,2.179.023,3.583.068,4.213h-1.093v-1.936l-5.624,4.064,5.111,3.848c.016.016.057.046.125.091.068.046.11.076.125.092.175-.547.262-1.26.262-2.141h1.093c-.045.562-.068,1.742-.068,3.541,0,1.427.023,2.467.068,3.119Z" fill="#2f4047" stroke-width="0"/>
      <path d="M272.711,336.459h-1.093v-2.516h-13.673v2.516h-1.093v-14.481l5.624-.717v1.093c-.639.076-1.166.165-1.581.268-.415.103-.824.262-1.227.479-.403.216-.723.487-.959.813s-.422.756-.559,1.287c-.137.531-.206,1.161-.206,1.89v3.54h6v-1.286c0-1.04-.211-1.711-.632-2.015-.421-.304-1.122-.456-2.101-.456v-1.093h6.558v1.093c-.979,0-1.679.152-2.101.456s-.632.975-.632,2.015v1.286h6.581v-3.539c0-.698-.051-1.316-.154-1.855s-.273-.994-.512-1.366c-.239-.371-.496-.687-.769-.944-.273-.258-.632-.473-1.076-.644s-.869-.295-1.273-.374c-.405-.078-.908-.177-1.51-.294v-1.104l6.387,1.08v14.87Z" fill="#2f4047" stroke-width="0"/>
      <path d="M272.711,318.859h-1.093v-.58c0-.463-.023-.885-.068-1.264-.03-.326-.074-.52-.131-.581-.057-.061-.218-.091-.484-.091h-13.127v2.516h-1.093v-5.339c0-.235.015-.391.045-.467.031-.076.118-.175.262-.296l10.906-9.29h-9.438c-.266,0-.425.032-.478.096-.053.064-.099.267-.137.606-.045.416-.068.824-.068,1.225v.589h-1.093c.045-.637.068-1.686.068-3.147,0-1.493-.023-2.53-.068-3.114h1.093v.578c0,.461.023.881.068,1.258.031.325.074.518.131.578.057.061.218.091.484.091h13.468c.312,0,.514.031.609.092.095.062.142.241.142.54,0,.19-.015.312-.045.364-.03.054-.118.141-.262.263l-13.662,11.617h12.193c.266,0,.427-.03.484-.091.057-.061.101-.262.131-.604.045-.417.068-.831.068-1.241v-.58h1.093c-.045.638-.068,1.688-.068,3.153,0,1.487.023,2.527.068,3.119Z" fill="#2f4047" stroke-width="0"/>
      <path d="M272.711,298.014h-1.093v-2.652h-13.81v2.652h-1.093c.045-.638.068-2.073.068-4.309s-.023-3.672-.068-4.31h1.093v2.652h13.81v-2.652h1.093c-.045.638-.068,2.074-.068,4.31s.023,3.671.068,4.309Z" fill="#2f4047" stroke-width="0"/>
      <path d="M272.711,287.722h-1.093v-2.516h-13.81v2.516h-1.093c.045-.592.068-2.015.068-4.269,0-2.46-.023-4.026-.068-4.702h1.093v3.142h13.81v-2.401c0-.577-.074-1.103-.222-1.577s-.326-.861-.535-1.161c-.208-.3-.489-.575-.842-.825-.353-.251-.661-.438-.922-.563-.262-.126-.604-.237-1.024-.336-.421-.099-.732-.16-.934-.183s-.473-.062-.814-.118v-1.157l6.387.771v13.38Z" fill="#2f4047" stroke-width="0"/>
      <path d="M257.808,271.612h-1.093c.045-.592.068-1.982.068-4.172s-.023-3.581-.068-4.173h1.093v2.516h9.708c.387,0,.714-.011.98-.034.266-.022.632-.107,1.099-.256.467-.147.849-.354,1.146-.62.296-.266.56-.674.792-1.224.232-.551.348-1.213.348-1.987,0-.668-.082-1.294-.245-1.878-.163-.585-.416-1.122-.757-1.611-.342-.489-.821-.878-1.436-1.167-.615-.288-1.333-.433-2.153-.433h-8.796c-.266,0-.425.032-.479.097-.053.064-.099.267-.137.606-.045.415-.068.823-.068,1.224v.578h-1.093c.045-.637.068-1.682.068-3.137,0-1.492-.023-2.534-.068-3.125h1.093v.589c0,.461.023.877.068,1.247.031.325.074.52.131.584.057.064.218.096.484.096h8.888c1.554,0,2.875.548,3.962,1.643,1.088,1.095,1.631,2.688,1.631,4.779,0,2.314-.533,4.117-1.6,5.407-1.066,1.29-2.415,1.936-4.047,1.936h-9.518v2.516Z" fill="#2f4047" stroke-width="0"/>
      <path d="M272.711,251.143h-1.093v-2.652h-13.81v2.652h-1.093c.045-.638.068-2.073.068-4.309s-.023-3.672-.068-4.31h1.093v2.652h13.81v-2.652h1.093c-.045.638-.068,2.074-.068,4.31s.023,3.671.068,4.309Z" fill="#2f4047" stroke-width="0"/>
      <path d="M272.711,240.851h-1.093v-.58c0-.463-.023-.885-.068-1.264-.03-.326-.074-.52-.131-.581-.057-.061-.218-.091-.484-.091h-13.127v2.516h-1.093v-5.339c0-.235.015-.391.045-.467.031-.076.118-.175.262-.296l10.906-9.29h-9.438c-.266,0-.425.032-.478.096-.053.064-.099.267-.137.606-.045.416-.068.824-.068,1.225v.589h-1.093c.045-.637.068-1.686.068-3.147,0-1.493-.023-2.53-.068-3.114h1.093v.578c0,.461.023.881.068,1.258.031.325.074.518.131.578.057.061.218.091.484.091h13.468c.312,0,.514.031.609.092.095.062.142.241.142.54,0,.19-.015.312-.045.364-.03.054-.118.141-.262.263l-13.662,11.617h12.193c.266,0,.427-.03.484-.091.057-.061.101-.262.131-.604.045-.417.068-.831.068-1.241v-.58h1.093c-.045.638-.068,1.688-.068,3.153,0,1.487.023,2.527.068,3.119Z" fill="#2f4047" stroke-width="0"/>
      <path d="M272.312,219.288h-4.247c-.296,0-.482-.026-.558-.08-.076-.053-.114-.212-.114-.478,0-.122.008-.219.023-.291.016-.071.046-.127.091-.165.046-.038.097-.061.154-.068.057-.007.146-.011.268-.011.807-.046,1.495-.268,2.066-.666s.981-.905,1.233-1.521c.251-.614.422-1.186.513-1.713.092-.527.137-1.064.137-1.611,0-1.085-.279-1.861-.838-2.328-.559-.467-1.188-.7-1.887-.7-.73,0-1.41.312-2.042.935-.235.25-.392.528-.469.834-.077.306-.255,1.014-.536,2.125-.312,1.412-.569,2.38-.771,2.903-.202.523-.565,1.047-1.091,1.571-.89.842-1.929,1.264-3.117,1.264-1.316,0-2.423-.454-3.32-1.361-.897-.907-1.345-2.203-1.345-3.889,0-1.593.417-2.928,1.253-4.003l-1.007-1.104c-.164-.192-.246-.353-.246-.48v-.012c0-.2.042-.324.125-.372s.258-.072.523-.072h4.27c.281,0,.459.029.535.087.076.059.114.231.114.521,0,.256-.027.413-.08.472-.054.058-.229.111-.526.161-1,.17-1.812.519-2.437,1.047-.625.528-1.04,1.089-1.242,1.68-.202.591-.303,1.227-.303,1.906,0,1.027.251,1.768.752,2.222.502.455,1.062.682,1.68.682.648,0,1.18-.208,1.595-.625.415-.417.687-.873.814-1.368l.707-3.383c.239-1.182.813-2.186,1.725-3.014.912-.827,1.998-1.241,3.259-1.241,1.335,0,2.502.458,3.5,1.375.998.918,1.496,2.297,1.496,4.139,0,1.896-.425,3.401-1.275,4.519l1.061,1.169c.136.166.207.328.214.485,0,.208-.043.336-.131.386s-.264.075-.529.075Z" fill="#2f4047" stroke-width="0"/>
      <path d="M272.711,196.074h-1.093v-2.516h-13.81v2.516h-1.093v-10.029c0-2.36.73-4.302,2.191-5.823,1.461-1.522,3.444-2.283,5.949-2.283,2.444,0,4.364.757,5.761,2.271,1.396,1.514,2.095,3.451,2.095,5.812v10.053ZM271.618,190.382v-3.403c0-2.148-.653-3.678-1.958-4.589-.531-.371-1.153-.635-1.867-.791-.713-.155-1.7-.233-2.96-.233-2.314,0-3.962.334-4.941,1.002-1.381.964-2.076,2.501-2.083,4.611v3.403h13.81Z" fill="#2f4047" stroke-width="0"/>
      <path d="M254.586,168.729c-1.396-2.209-2.125-3.382-2.186-3.518-.045-.137-.068-.285-.068-.444v-.022c0-.357.15-.664.45-.923.3-.258.64-.387,1.019-.387.122,0,.241.012.359.034s.214.066.29.131c.076.064.149.119.22.165.071.046.128.127.173.245.044.117.082.199.111.244.03.046.06.146.089.302.03.156.048.249.056.279s.026.133.056.308l.022.25c.089.562.234,1.549.434,2.96l-1.024.376ZM272.711,175.536h-1.093v-2.516h-13.673v2.516h-1.093v-14.481l5.624-.717v1.093c-.639.076-1.166.165-1.581.268-.415.103-.824.262-1.227.479-.403.216-.723.487-.959.813s-.422.756-.559,1.287c-.137.531-.206,1.161-.206,1.89v3.54h6v-1.286c0-1.04-.211-1.711-.632-2.015-.421-.304-1.122-.456-2.101-.456v-1.093h6.558v1.093c-.979,0-1.679.152-2.101.456s-.632.975-.632,2.015v1.286h6.581v-3.539c0-.698-.051-1.316-.154-1.855s-.273-.994-.512-1.366c-.239-.371-.496-.687-.769-.944-.273-.258-.632-.473-1.076-.644s-.869-.295-1.273-.374c-.405-.078-.908-.177-1.51-.294v-1.104l6.387,1.08v14.87Z" fill="#2f4047" stroke-width="0"/>
      <path d="M272.107,148.43c-.22,0-.421-.061-.603-.183l-13.696-9.335v3.039c0,1.632.366,2.853,1.099,3.66.733.809,1.877,1.259,3.433,1.35v1.093l-5.624-.273v-11.988c0-.204.008-.349.023-.433.015-.083.066-.157.153-.222.087-.064.224-.097.41-.097s.37.064.552.193l13.673,9.302v-3.268c0-.668-.059-1.266-.176-1.793s-.262-.966-.433-1.315c-.171-.349-.412-.656-.723-.922-.311-.266-.6-.469-.865-.609-.266-.14-.611-.26-1.036-.358-.425-.099-.781-.165-1.07-.199s-.668-.066-1.139-.097v-1.093l6.626.421v12.375c0,.205-.007.352-.023.438-.015.088-.064.161-.148.223-.083.061-.228.091-.433.091Z" fill="#2f4047" stroke-width="0"/>
      <path d="M272.711,132.605h-1.093v-.49c0-.804-.04-1.316-.12-1.536-.08-.221-.219-.368-.417-.444l-14.036-5.783c-.174-.061-.296-.114-.364-.16-.068-.045-.127-.127-.176-.244-.049-.118-.074-.286-.074-.507,0-.175.01-.3.028-.376.019-.075.074-.169.165-.278.091-.11.232-.203.421-.279l14.573-5.966v-2.266h1.093c-.045.547-.068,1.814-.068,3.803,0,2.148.023,3.518.068,4.11h-1.093v-2.221l-3.416,1.4v6.251l2.833,1.161c.061.061.152.091.274.091.206,0,.309-.69.309-2.072h1.093c-.045.577-.068,1.602-.068,3.074,0,.053.023.964.068,2.732ZM267.11,127.151v-5.317l-6.478,2.653,6.478,2.664Z" fill="#2f4047" stroke-width="0"/>
      <path d="M272.312,111.816h-4.247c-.296,0-.482-.026-.558-.08-.076-.053-.114-.212-.114-.478,0-.122.008-.219.023-.291.016-.071.046-.127.091-.165.046-.038.097-.061.154-.068.057-.007.146-.011.268-.011.807-.046,1.495-.268,2.066-.666s.981-.905,1.233-1.521c.251-.614.422-1.186.513-1.713.092-.527.137-1.064.137-1.611,0-1.085-.279-1.861-.838-2.328-.559-.467-1.188-.7-1.887-.7-.73,0-1.41.312-2.042.935-.235.25-.392.528-.469.834-.077.306-.255,1.014-.536,2.125-.312,1.412-.569,2.38-.771,2.903-.202.523-.565,1.047-1.091,1.571-.89.842-1.929,1.264-3.117,1.264-1.316,0-2.423-.454-3.32-1.361-.897-.907-1.345-2.203-1.345-3.889,0-1.593.417-2.928,1.253-4.003l-1.007-1.104c-.164-.192-.246-.353-.246-.48v-.012c0-.2.042-.324.125-.372s.258-.072.523-.072h4.27c.281,0,.459.029.535.087.076.059.114.231.114.521,0,.256-.027.413-.08.472-.054.058-.229.111-.526.161-1,.17-1.812.519-2.437,1.047-.625.528-1.04,1.089-1.242,1.68-.202.591-.303,1.227-.303,1.906,0,1.027.251,1.768.752,2.222.502.455,1.062.682,1.68.682.648,0,1.18-.208,1.595-.625.415-.417.687-.873.814-1.368l.707-3.383c.239-1.182.813-2.186,1.725-3.014.912-.827,1.998-1.241,3.259-1.241,1.335,0,2.502.458,3.5,1.375.998.918,1.496,2.297,1.496,4.139,0,1.896-.425,3.401-1.275,4.519l1.061,1.169c.136.166.207.328.214.485,0,.208-.043.336-.131.386s-.264.075-.529.075Z" fill="#2f4047" stroke-width="0"/>
      <path d="M264.815,96.947c-2.491,0-4.505-.774-6.043-2.322-1.538-1.549-2.307-3.636-2.307-6.262,0-2.581.762-4.651,2.284-6.211,1.523-1.56,3.545-2.339,6.066-2.339,2.419,0,4.384.768,5.894,2.305,1.509,1.537,2.264,3.626,2.264,6.268,0,2.611-.749,4.69-2.247,6.239-1.498,1.548-3.468,2.322-5.911,2.322ZM264.463,93.384c2.207,0,3.91-.319,5.108-.956.827-.448,1.437-1.042,1.832-1.782.394-.74.591-1.493.591-2.26,0-1.708-.739-3.021-2.218-3.939-1.183-.713-2.954-1.07-5.312-1.07-2.146,0-3.77.327-4.869.979-.728.448-1.276,1.034-1.644,1.759s-.552,1.482-.552,2.271c0,.744.169,1.467.506,2.169s.84,1.277,1.507,1.725c1.13.736,2.813,1.104,5.051,1.104Z" fill="#2f4047" stroke-width="0"/>
      <path d="M264.814,76.83c-2.491,0-4.505-.774-6.042-2.322-1.538-1.549-2.307-3.636-2.307-6.262,0-2.581.761-4.651,2.284-6.211,1.523-1.56,3.544-2.339,6.065-2.339.698,0,1.381.077,2.048.232.667.156,1.354.401,2.06.734.706.335,1.354.831,1.946,1.492.591.66,1.065,1.449,1.422,2.367.327-.22.59-.431.792-.632.201-.2.341-.399.421-.598.08-.197.127-.353.143-.467.015-.113.023-.266.023-.455,0-1.229-.304-1.89-.911-1.98-.311-.046-.467-.187-.467-.422,0-.28.201-.421.604-.421.607,0,1.222.095,1.844.284.623.19,1.193.541,1.713,1.054.52.512.78,1.133.78,1.861,0,.417-.082.789-.245,1.115-.163.327-.345.587-.546.78s-.531.385-.99.575c-.459.189-.856.33-1.19.421s-.835.224-1.503.398c.137.698.209,1.435.216,2.209,0,2.656-.755,4.751-2.264,6.284-1.51,1.533-3.475,2.3-5.895,2.3ZM264.791,73.403c.637,0,1.197-.023,1.679-.068.482-.046,1.083-.15,1.804-.313.721-.163,1.362-.463,1.924-.899s1.005-.988,1.332-1.656c-.105.046-.279.068-.521.068-.548,0-1.003-.226-1.364-.678-.362-.451-.542-.98-.542-1.588,0-.479.127-.928.382-1.349.255-.422.497-.726.725-.911.229-.186.529-.404.902-.654-1.017-1.488-3.108-2.231-6.274-2.231-2.207,0-3.867.318-4.982.956-1.63.918-2.449,2.314-2.457,4.189,0,.312.032.63.097.956.064.327.182.693.353,1.099.171.406.438.807.802,1.201.364.395.812.732,1.342,1.014,1.107.576,2.707.865,4.8.865ZM271.009,69.692c.136,0,.272-.026.408-.079.136-.054.274-.197.414-.433s.209-.547.209-.934c0-.714-.125-1.352-.374-1.913-1.147.357-1.721.994-1.721,1.913,0,.387.1.725.3,1.013.2.289.455.433.764.433Z" fill="#2f4047" stroke-width="0"/>
      <path d="M257.808,57.294h-1.093c.045-.592.068-1.982.068-4.172s-.023-3.581-.068-4.173h1.093v2.516h9.708c.387,0,.714-.011.98-.034.266-.022.632-.107,1.099-.256.467-.147.849-.354,1.146-.62.296-.266.56-.674.792-1.224.232-.551.348-1.213.348-1.987,0-.668-.082-1.294-.245-1.878-.163-.585-.416-1.122-.757-1.611-.342-.489-.821-.878-1.436-1.167-.615-.288-1.333-.433-2.153-.433h-8.796c-.266,0-.425.032-.479.097-.053.064-.099.267-.137.606-.045.415-.068.823-.068,1.224v.578h-1.093c.045-.637.068-1.682.068-3.137,0-1.492-.023-2.534-.068-3.125h1.093v.589c0,.461.023.877.068,1.247.031.325.074.52.131.584.057.064.218.096.484.096h8.888c1.554,0,2.875.548,3.962,1.643,1.088,1.095,1.631,2.688,1.631,4.779,0,2.314-.533,4.117-1.6,5.407-1.066,1.29-2.415,1.936-4.047,1.936h-9.518v2.516Z" fill="#2f4047" stroke-width="0"/>
      <path d="M272.711,36.688h-1.093v-2.516h-13.673v2.516h-1.093v-14.481l5.624-.717v1.093c-.639.076-1.166.165-1.581.268-.415.103-.824.262-1.227.479-.403.216-.723.487-.959.813s-.422.756-.559,1.287c-.137.531-.206,1.161-.206,1.89v3.54h6v-1.286c0-1.04-.211-1.711-.632-2.015-.421-.304-1.122-.456-2.101-.456v-1.093h6.558v1.093c-.979,0-1.679.152-2.101.456s-.632.975-.632,2.015v1.286h6.581v-3.539c0-.698-.051-1.316-.154-1.855s-.273-.994-.512-1.366c-.239-.371-.496-.687-.769-.944-.273-.258-.632-.473-1.076-.644s-.869-.295-1.273-.374c-.405-.078-.908-.177-1.51-.294v-1.104l6.387,1.08v14.87Z" fill="#2f4047" stroke-width="0"/>
    </g>
    <g>
      <g>
        <polygon points="172.253 81.298 172.871 73.84 168.777 67.574 166.94 60.319 161.034 55.722 156.941 49.457 149.862 47.027 143.956 42.43 136.472 42.43 129.393 40 122.315 42.43 114.831 42.43 108.925 47.027 107.045 47.672 105.165 47.027 99.259 42.43 91.775 42.43 84.697 40 77.618 42.43 70.134 42.43 64.228 47.027 57.149 49.457 53.056 55.722 47.15 60.319 45.313 67.574 41.219 73.84 41.837 81.298 40 88.554 43.006 95.407 43.624 102.866 48.693 108.372 51.7 115.226 58.282 118.788 63.351 124.294 70.733 125.526 77.315 129.088 84.697 127.856 92.079 129.088 98.661 125.526 106.043 124.294 107.045 123.206 108.047 124.294 115.429 125.526 122.011 129.088 129.393 127.856 136.775 129.088 143.358 125.526 150.74 124.294 155.808 118.788 162.391 115.226 165.397 108.372 170.466 102.866 171.084 95.407 174.09 88.554 172.253 81.298" fill="#2c2c2c" stroke-width="0"/>
        <path d="M136.862,129.61l-7.469-1.246-7.469,1.246-6.66-3.604-7.469-1.247-.751-.815-.75.815-7.469,1.247-6.66,3.604-7.469-1.246-7.469,1.246-6.66-3.604-7.469-1.247-5.129-5.57-6.66-3.604-3.042-6.935-5.128-5.571-.625-7.547-3.042-6.934,1.859-7.342-.625-7.546,4.142-6.339,1.859-7.341,5.976-4.651,4.142-6.339,7.162-2.46,5.975-4.65h7.573l7.162-2.458,7.162,2.458h7.572l5.976,4.651,1.638.562,1.639-.563,5.975-4.65h7.573l7.162-2.458,7.162,2.458h7.572l5.976,4.65,7.162,2.46,4.142,6.339,5.976,4.651,1.859,7.34,4.142,6.34-.625,7.546,1.858,7.342-3.042,6.934-.625,7.547-5.128,5.571-3.042,6.935-6.66,3.604-5.129,5.57-7.469,1.247-6.66,3.604ZM108.299,123.829l7.368,1.258,6.431,3.479,7.295-1.217,7.295,1.217,6.586-3.533,7.213-1.204,5.083-5.48,6.431-3.481,3.028-6.834,4.952-5.379.644-7.448,2.938-6.696-1.815-7.17.611-7.37-4.066-6.272-1.794-7.089-5.882-4.612-4-6.122-7.061-2.453-5.771-4.491-7.474-.027-6.917-2.374-7.079,2.401h-7.312l-5.915,4.569-2.042.701-2.187-.779-5.771-4.491-7.474-.027-6.917-2.374-7.079,2.401h-7.312l-5.915,4.569-6.917,2.375-4.111,6.243-5.771,4.491-1.861,7.239-3.999,6.122.611,7.37-1.816,7.17,2.978,6.856.604,7.288,5.043,5.517,2.938,6.696,6.561,3.582,4.953,5.38,7.368,1.258,6.431,3.479,7.295-1.217,7.295,1.217,6.586-3.533,7.213-1.204,1.253-1.362,1.254,1.362Z" fill="#fdde59" stroke-width="0"/>
      </g>
      <path d="M91.427,125.155l-6.73-1.124-6.731,1.124-6.001-3.248-6.73-1.123-4.622-5.021-6.001-3.248-2.741-6.249-4.622-5.021-.563-6.8-2.741-6.249,1.675-6.615-.563-6.801,3.732-5.713,1.676-6.615,5.385-4.191,3.732-5.712,6.454-2.217,5.385-4.19h6.824l6.454-2.216,6.454,2.216h6.824l5.385,4.19,6.454,2.217,3.732,5.712,5.385,4.191,1.676,6.615,3.732,5.713-.564,6.801,1.675,6.615-2.742,6.249-.563,6.8-4.622,5.021-2.741,6.249-6.001,3.248-4.622,5.021-6.73,1.123-6.002,3.248ZM84.697,123.018l6.557,1.095,5.929-3.178,6.475-1.08,4.576-4.931,5.772-3.125,2.727-6.148,4.446-4.829.582-6.701,2.637-6.012-1.632-6.443.549-6.625-3.656-5.646-1.611-6.364-5.292-4.152-3.59-5.495-6.353-2.21-5.18-4.031-6.727-.027-6.208-2.132-6.371,2.159h-6.564l-5.325,4.109-6.208,2.132-3.702,5.616-5.18,4.031-1.678,6.515-3.59,5.495.549,6.625-1.632,6.443,2.677,6.172.542,6.541,4.536,4.967,2.637,6.011,5.902,3.226,4.446,4.83,6.63,1.134,5.773,3.124,6.557-1.095Z" fill="#fdde59" stroke-width="0"/>
      <path d="M136.124,125.155l-6.73-1.124-6.731,1.124-6.001-3.248-6.731-1.123-4.622-5.021-6.001-3.248-2.741-6.249-4.622-5.021-.563-6.8-2.741-6.249,1.675-6.615-.563-6.801,3.732-5.712,1.675-6.616,5.385-4.191,3.732-5.712,6.455-2.217,5.385-4.19h6.824l6.455-2.216,6.454,2.216h6.824l5.385,4.19,6.454,2.217,3.732,5.712,5.385,4.191,1.675,6.616,3.732,5.712-.563,6.801,1.675,6.615-2.742,6.249-.563,6.8-4.622,5.021-2.741,6.249-6.001,3.248-4.622,5.021-6.731,1.123-6.001,3.248ZM129.394,123.018l6.557,1.095,5.929-3.178,6.475-1.08,4.576-4.931,5.772-3.125,2.727-6.148,4.446-4.829.582-6.701,2.637-6.012-1.632-6.443.549-6.625-3.656-5.646-1.611-6.364-5.292-4.152-3.59-5.495-6.353-2.21-5.18-4.031-6.727-.027-6.208-2.132-6.371,2.159h-6.563l-5.325,4.109-6.209,2.132-3.702,5.616-5.18,4.031-1.677,6.515-3.59,5.495.549,6.625-1.632,6.443,2.677,6.172.542,6.541,4.536,4.967,2.637,6.011,5.902,3.226,4.446,4.83,6.63,1.134,5.773,3.124,6.557-1.095Z" fill="#fdde59" stroke-width="0"/>
    </g>
    <g>
      <path d="M922.445,524.856l.57-7.712,21.529-.284.773,7.694-1.5.02c-.096-.895-.177-1.581-.245-2.06-.069-.478-.22-1.03-.452-1.658-.232-.627-.522-1.087-.87-1.38-.348-.292-.833-.541-1.455-.746-.623-.205-1.382-.303-2.277-.291l-2.422.032.245,18.592,4.891-.064.02,1.5c-1.157-.047-3.548-.047-7.173,0-3.624.048-6.015.11-7.169.188l-.021-1.5,4.906-.064-.245-18.592-2.469.032c-.896.012-1.658.134-2.284.366-.628.232-1.108.499-1.443.8-.335.302-.604.765-.81,1.387-.206.623-.344,1.175-.416,1.654-.071.48-.133,1.169-.184,2.064l-1.5.021Z" fill="#2f4047" stroke-width="0"/>
      <path d="M946.206,538.433l-.021-1.5,3.453-.045-.248-18.764-3.452.045-.02-1.5,19.873-.262,1.086,7.705-1.5.021c-.116-.876-.247-1.598-.396-2.165-.148-.566-.374-1.125-.679-1.675-.304-.549-.683-.983-1.134-1.301-.453-.318-1.045-.566-1.776-.745s-1.597-.261-2.597-.247l-4.859.063.109,8.233,1.765-.023c1.427-.019,2.345-.319,2.754-.903s.605-1.546.587-2.89l1.5-.021.118,8.999-1.499.02c-.018-1.344-.239-2.302-.663-2.874-.425-.572-1.351-.85-2.777-.831l-1.765.023.119,9.03,4.857-.063c.958-.013,1.806-.095,2.543-.245s1.359-.393,1.865-.728.934-.691,1.283-1.071c.349-.379.636-.875.862-1.488.227-.612.39-1.197.49-1.755.102-.557.227-1.249.376-2.077l1.516-.02-1.365,8.784-20.407.269Z" fill="#2f4047" stroke-width="0"/>
      <path d="M968.441,538.14l-.021-1.5,3.453-.046-.25-18.951-3.453.046-.02-1.5,12.155-.16c2.927-.039,5.254.495,6.982,1.602s2.604,2.501,2.626,4.187c.015,1.136-.419,2.174-1.302,3.111-.883.938-2.204,1.645-3.967,2.116,2.076.744,3.298,1.976,3.667,3.692,0,.042.068.471.204,1.287.135.816.212,1.286.232,1.409.078.474.143.866.195,1.179.051.314.156.688.316,1.124.159.438.394.766.703.986s.685.328,1.125.322c.513-.007.96-.205,1.343-.596.382-.391.61-.94.685-1.649.019-.166.037-.292.058-.376.02-.083.084-.165.192-.244.108-.08.267-.121.475-.124.511-.007.77.225.775.693.002.146-.017.333-.056.562-.038.229-.137.516-.294.855-.157.341-.362.659-.614.953-.253.296-.628.548-1.127.758-.498.209-1.072.318-1.72.327-1.998.026-3.543-.236-4.637-.787-.525-.255-.947-.539-1.264-.854s-.542-.707-.676-1.177c-.135-.468-.284-1.673-.45-3.616,0,0-.034-.393-.101-1.18-.067-.788-.358-1.442-.873-1.962-.676-.715-1.643-1.063-2.9-1.047l-3.791.05.118,8.905,3.452-.045.021,1.5c-.772-.053-2.65-.06-5.634-.02-2.984.039-4.861.095-5.631.168ZM976.1,526.475l3.702-.049c1-.013,1.853-.131,2.559-.353.705-.224,1.23-.464,1.576-.724.346-.259.606-.632.782-1.117s.272-.871.29-1.158c.017-.286.021-.674.016-1.162-.007-.51-.028-.92-.063-1.231s-.147-.695-.335-1.15c-.189-.455-.454-.808-.796-1.058s-.863-.473-1.563-.666c-.701-.193-1.54-.284-2.52-.271l-3.765.05.117,8.89Z" fill="#2f4047" stroke-width="0"/>
      <path d="M993.719,526.969c-.045-3.418.98-6.196,3.078-8.336,2.097-2.138,4.946-3.231,8.551-3.279,3.541-.046,6.396.961,8.564,3.022,2.167,2.062,3.274,4.823,3.32,8.283.044,3.32-.976,6.03-3.058,8.129-2.082,2.1-4.936,3.173-8.56,3.221-3.583.047-6.45-.942-8.603-2.972-2.152-2.026-3.25-4.717-3.294-8.068ZM998.603,526.42c.04,3.029.508,5.361,1.404,6.994.63,1.125,1.456,1.951,2.479,2.48,1.022.527,2.06.784,3.112.771,2.344-.031,4.132-1.069,5.365-3.115.958-1.636,1.415-4.073,1.373-7.311-.039-2.944-.517-5.166-1.433-6.663-.628-.992-1.442-1.733-2.443-2.224-1.001-.493-2.044-.731-3.127-.717-1.021.014-2.01.258-2.967.734-.958.476-1.737,1.176-2.34,2.1-.99,1.564-1.465,3.881-1.424,6.95Z" fill="#2f4047" stroke-width="0"/>
      <path d="M1029.081,537.34l-.021-1.5,3.453-.046-.25-18.951-3.453.046-.02-1.5,12.155-.16c2.927-.039,5.254.495,6.982,1.602,1.729,1.105,2.604,2.501,2.626,4.187.015,1.136-.419,2.174-1.302,3.111-.883.938-2.205,1.645-3.967,2.116,2.075.744,3.298,1.976,3.667,3.692,0,.042.068.471.204,1.287.135.816.212,1.286.232,1.409.078.474.143.866.195,1.179.051.314.156.688.316,1.124.159.438.394.766.703.986s.685.328,1.125.322c.513-.007.96-.205,1.342-.597.383-.39.611-.939.686-1.648.019-.166.037-.292.058-.376.02-.083.084-.165.192-.245.108-.079.267-.12.475-.123.511-.007.77.225.775.693.002.146-.017.333-.056.562-.038.23-.137.516-.294.856s-.362.659-.614.953c-.253.296-.628.548-1.127.757-.499.21-1.072.319-1.72.328-1.998.026-3.543-.236-4.637-.787-.525-.255-.947-.539-1.264-.854s-.542-.707-.676-1.177c-.135-.468-.284-1.673-.45-3.617,0,0-.034-.392-.101-1.179-.067-.788-.358-1.442-.873-1.962-.676-.715-1.644-1.063-2.9-1.047l-3.791.05.117,8.905,3.453-.045.021,1.5c-.772-.053-2.65-.06-5.634-.02-2.984.039-4.861.095-5.631.168ZM1036.74,525.675l3.703-.049c1-.013,1.853-.131,2.559-.353.705-.224,1.23-.464,1.576-.724s.606-.632.782-1.118c.176-.484.272-.87.29-1.157.017-.286.021-.674.016-1.162-.007-.51-.028-.92-.063-1.231s-.147-.695-.335-1.15c-.189-.455-.454-.808-.796-1.059-.342-.249-.863-.472-1.563-.665-.701-.193-1.541-.284-2.52-.271l-3.766.05.117,8.89Z" fill="#2f4047" stroke-width="0"/>
      <path d="M1054.36,526.169c-.045-3.418.98-6.196,3.078-8.336,2.097-2.138,4.946-3.231,8.551-3.279,3.541-.047,6.396.961,8.563,3.022,2.168,2.062,3.275,4.823,3.321,8.283.044,3.32-.976,6.03-3.058,8.128-2.082,2.101-4.936,3.174-8.56,3.222-3.583.047-6.45-.942-8.603-2.972-2.152-2.026-3.25-4.717-3.294-8.068ZM1059.243,525.62c.04,3.029.508,5.36,1.404,6.994.63,1.125,1.456,1.951,2.479,2.48,1.022.527,2.06.784,3.112.771,2.343-.031,4.132-1.069,5.365-3.115.958-1.637,1.415-4.073,1.373-7.311-.039-2.944-.517-5.166-1.433-6.663-.628-.992-1.442-1.733-2.443-2.224-1.001-.493-2.044-.731-3.127-.717-1.021.013-2.01.258-2.967.734-.958.476-1.737,1.176-2.34,2.1-.99,1.563-1.465,3.881-1.424,6.95Z" fill="#2f4047" stroke-width="0"/>
      <path d="M1077.451,516.247l-.02-1.5c.75.053,2.511.061,5.281.023,3.031-.04,4.983-.097,5.858-.171l.02,1.5-2.719.036,6.623,9.429,5.869-8.891c.041-.062.117-.188.229-.378-.555-.2-1.369-.299-2.441-.296l-.02-1.5c.792.052,2.198.064,4.22.038.26-.003.593-.013.999-.028s.875-.037,1.405-.065c.531-.028.948-.044,1.25-.048l.02,1.5-.672.009c-.552.007-1.108.046-1.67.115-.593.092-.961.216-1.104.374-.041.063-.087.127-.139.189l-7.369,11.146.096,7.265,3.469-.046.02,1.5c-.812-.052-2.695-.059-5.649-.02-2.984.04-4.862.096-5.631.168l-.02-1.5,3.453-.045-.096-7.265-8.123-11.582-3.14.042Z" fill="#2f4047" stroke-width="0"/>
      <path d="M1114.998,531.112c-.008-.594.145-1.074.458-1.443.313-.368.619-.597.915-.685.296-.087.567-.132.816-.136.51-.007.996.164,1.459.512.463.347.699.889.709,1.626.009.635-.183,1.142-.573,1.521-.392.38-.883.593-1.476.643.995,1.306,2.379,1.948,4.15,1.925.531-.007,1.004-.076,1.419-.206.415-.131.757-.294,1.024-.489.269-.196.489-.459.662-.789.172-.33.307-.631.402-.901.095-.272.16-.632.196-1.08.036-.447.057-.799.064-1.054.007-.255.008-.606.002-1.054-.009-.687-.021-1.209-.036-1.568-.016-.358-.073-.82-.175-1.387-.102-.565-.251-.989-.446-1.273-.197-.282-.484-.54-.862-.769s-.844-.34-1.395-.333c-1.854.024-3.279.642-4.273,1.851-.205.264-.438.392-.698.385-.208.003-.367-.042-.478-.135-.111-.092-.178-.197-.2-.317s-.035-.294-.038-.523l-.123-9.34c-.003-.209,0-.362.01-.461.009-.099.047-.19.113-.275.066-.083.173-.127.319-.129.021,0,.156.04.407.12,1.736.57,3.396.846,4.98.825,1.707-.023,3.334-.342,4.878-.955.238-.087.399-.131.483-.132.301-.004.455.182.46.557.003.24-.18.591-.549,1.054-.369.465-.859.955-1.473,1.474s-1.417.978-2.412,1.375c-.995.399-2.039.605-3.133.62-.729.01-1.506-.053-2.331-.188l.056,4.218c1.073-.764,2.443-1.157,4.11-1.179,2.281-.03,4.07.576,5.368,1.817,1.298,1.242,1.959,2.82,1.984,4.734.026,1.981-.7,3.621-2.177,4.918-1.479,1.297-3.479,1.962-5.998,1.995-1.919.025-3.495-.506-4.727-1.594-1.232-1.088-1.857-2.345-1.876-3.772Z" fill="#2f4047" stroke-width="0"/>
      <path d="M1141.364,535.859l-.021-1.5,3.453-.046-.25-18.951-3.453.046-.02-1.5c.813.052,2.767.058,5.86.017,3.374-.045,5.524-.104,6.451-.179l.02,1.5-4.312.057.25,18.951,3.296-.044c.792-.01,1.512-.121,2.16-.333.647-.212,1.176-.463,1.584-.755.407-.292.78-.682,1.117-1.171.338-.488.59-.914.757-1.275s.314-.832.442-1.412.205-1.008.233-1.285c.027-.275.076-.649.147-1.119l1.588-.021-.943,8.778-18.361.242Z" fill="#2f4047" stroke-width="0"/>
      <path d="M1161.551,535.592l-.021-1.5,3.453-.045-.247-18.764-3.453.045-.02-1.5,19.873-.262,1.086,7.706-1.5.02c-.116-.876-.247-1.598-.396-2.165-.148-.566-.374-1.125-.679-1.675-.304-.549-.683-.983-1.134-1.301-.453-.318-1.045-.566-1.775-.744-.732-.179-1.598-.262-2.598-.248l-4.859.063.109,8.233,1.766-.023c1.426-.019,2.344-.319,2.753-.903s.605-1.546.587-2.89l1.5-.021.119,8.999-1.5.021c-.018-1.344-.239-2.303-.663-2.875-.425-.572-1.351-.85-2.776-.831l-1.766.023.119,9.03,4.857-.063c.958-.013,1.806-.095,2.543-.245s1.359-.393,1.865-.728.934-.691,1.283-1.071c.349-.379.636-.875.862-1.487.227-.613.391-1.198.491-1.755.101-.558.226-1.25.376-2.078l1.515-.02-1.365,8.784-20.407.269Z" fill="#2f4047" stroke-width="0"/>
      <path d="M1184.574,534.741l-.077-5.827c-.005-.406.028-.661.1-.767.071-.104.289-.16.654-.165.166-.002.3.007.398.026.1.02.176.06.229.121.053.063.085.133.097.211s.019.201.021.368c.077,1.106.395,2.047.951,2.823.558.775,1.26,1.33,2.108,1.663.848.334,1.635.559,2.36.675.726.115,1.464.168,2.213.158,1.489-.02,2.55-.417,3.181-1.192.63-.774.939-1.642.927-2.602-.014-1.002-.454-1.93-1.319-2.785-.349-.318-.732-.528-1.153-.628-.421-.101-1.396-.334-2.926-.698-1.943-.402-3.276-.738-3.999-1.005-.722-.268-1.447-.757-2.175-1.469-1.173-1.207-1.77-2.624-1.791-4.254-.024-1.807.578-3.334,1.808-4.581,1.229-1.247,2.999-1.886,5.312-1.916,2.187-.029,4.025.521,5.517,1.647l1.497-1.402c.261-.228.479-.344.655-.347h.016c.275-.004.446.052.514.165.067.114.104.354.108.718l.077,5.859c.005.386-.031.631-.109.736-.079.105-.316.16-.713.165-.353.005-.568-.029-.648-.101-.081-.073-.157-.312-.231-.72-.251-1.368-.745-2.477-1.481-3.326-.736-.849-1.512-1.407-2.327-1.674s-1.688-.394-2.621-.381c-1.409.019-2.422.376-3.036,1.073-.615.695-.916,1.47-.905,2.317.012.891.308,1.616.888,2.178.579.562,1.21.927,1.892,1.094l4.656.908c1.625.306,3.014,1.076,4.166,2.312s1.74,2.719,1.763,4.45c.024,1.833-.584,3.442-1.824,4.827-1.24,1.386-3.125,2.095-5.653,2.128-2.601.034-4.675-.522-6.222-1.668l-1.587,1.477c-.225.189-.445.291-.662.304-.284.004-.461-.055-.531-.173-.07-.119-.107-.36-.112-.726Z" fill="#2f4047" stroke-width="0"/>
    </g>
    <path d="M503.68,375.293c.085.164.647.09.987.106.355.016.711.005,1.061.005,1.067.547,1.496,1.942,2.802,2.139q1.969-1.045,5.397-1.199c.35-.541.923-1.433,1.289-2.001,2.107,0,3.699-.005,5.29.011.149,0,.292.138.578.281.069.398.016.971.265,1.348.382.578.971,1.019,1.671,1.719.196-1.746,1.963-.923,2.802-1.974.621-.78,1.305-.398,1.799.663.478,1.04.695,2.452,1.507,3.03,1.332.95,2.218-1.104,3.561-1.162.26-.016.504-.467.769-.738,1.518.18,3.343-.647,4.542.43,1.39,1.252,3.126-.064,4.479,1.146,0,1.136.149,2.383-.042,3.577-.212,1.284-1.592,2.282-1.019,3.81.6,1.024,2.043,1.401,2.139,2.834.021.297.329.849.435.833,2.043-.318,2.34,2.664,4.378,2.287.467.706,1.221,1.098,1.592,1.995.86,2.091.982,2.043,1.035,4.893,1.013.515,1.995,1.311,3.072,1.475,1.295.207,2.85.531,3.789-.987h3.81c.34.515.929,1.406,1.406,2.123,1.512,0,2.754-.016,3.99.005,1.576.021,3.147.08,4.723.117.801,1.762,3.088.18,4.065,1.841.313.531,1.157-.005,1.772-.43.929-.642,1.995-1.178,3.078-1.486.817-.233,1.756-.048,2.637-.042.753,1.332,2.075,1.008,3.247,1.125.743,1.624,2.531.594,3.656,1.459,1.311,1.014,2.956,1.045,4.245-.016,1.279-1.051,1.852-.17,2.621.584h6.346c2.563-2.361,3.083-2.568,7.137-3.184.563-.09,1.067-.547,1.603-.833.69,1.502,2.425.292,3.205,1.162.881.982,1.889.69,2.892.759,1.231-.727,1.677-2.022,2.335-3.253,2.17.61,3.9-.562,5.678-1.518,1.788-.96,3.523-1.985,5.71-1.624.86.143,1.794-.111,2.643.069.775.159,1.465.876,2.223.945.552.053,1.157-.562,1.905-.976h3.996c.754.7,1.412,1.847,2.568.578.525-.578,1.236-.907,1.783-.398.7.653,1.38,1.04,2.308.86,1.157-.218,1.55,1.475,2.744,1.067,1.231-.425,1.767.828,2.727,1.114,1.268.377,2.314,1.406,3.826,1.04.663-.159,1.401-.027,2.016-.027.462.393.833.971,1.258,1.014,1.226.133,2.515.255,3.699-.005,1.565-.345,2.329,1.502,3.815,1.12,1.3-.334,2.229.499,3.285,1.035,1.337.679,2.696,1.332,4.33,1.141.547-.069,1.173.531,2.107,1.003h3.285c1.236,0,2.483.106,3.709-.027,1.454-.159,2.298,1.226,3.81,1.205,1.183-.021,2.266,1.454,3.805.801.706-.706,1.486-1.427,2.197-2.218.552-.616.451-1.518,1.056-2.245.552-.658.435-1.873.6-2.77,1.215-.17,2.165.053,3.163-.706.876-.669,2.032-.902,2.123-2.266,1.263-.18,2.101-.982,2.956-1.857.838-.854,1.03-.764,2.547.456.594-.483,1.305-.87,1.465-1.661-.287-.382-.536-.716-.987-1.316,1.581-.085,2.77-.154,3.921-.218.658-.658,1.284-1.284,2.043-2.043,1.019-.048,2.356.324,3.152-1.056,2.075,0,4.187-.027,6.299.011.738.016,1.247-.287,1.873-.637,1.268-.722,2.871-.918,3.821.016,1.146,1.13,2.972-.223,3.704,1.417,1.38.085,2.802.414,4.129.196,2.191-.356,3.778,1.443,5.863,1.385.233,0,.403,1.581.764,1.656,2.298.472,3.173,2.6,4.797,3.826.037,2.69,2.611,2.478,3.895,3.709.414-.414.663-.663.945-.939h6.309c.775-.738,1.528-1.454,2.314-2.202,3.041.377,5.758-.249,7.896-2.674,0-2.107-.005-4.224.016-6.336,0-.127.234-.255.361-.377.478-.111.96-.223,1.656-.382.228-1.629-.255-3.401.334-5.068,2.202.769,3.486-1.502,5.582-1.114,2.054.382,4.229.085,6.697.085.493-.647,1.13-1.48,1.327-1.74,2.775-1.13,1.549,1.146,2.648,1.703.387-.589.971-1.199,1.878-1.024.78,1.629,2.696.509,3.63,1.433.918.913,1.926.568,2.913.711,1.412,1.884,1.236,5.046,4.431,5.513.122.016.329.276.303.382-.398,1.693,1.098,1.369,2.038,1.863.058,1.109.122,2.298.186,3.444.663.669,1.289,1.289,1.963,1.963.058,1.141.122,2.329.175,3.364.775.775,1.401,1.396,2.027,2.016,0,2.839,0,5.667-.005,8.496,2.213,1.47.239,4.028,1.39,5.704.6.133,1.083.239,1.735.382v4.574c.907.515,1.152,1.523,2.234,1.571,1.183.042,1.55,1.3,2.393,1.878.133.096.313.233.435.202,1.316-.292,2.245.499,3.29,1.061,1.12.605,2.314,1.077,3.311,1.534.08,1.311-.239,2.643.287,3.332,1.051,1.369,1.316,3.035,2.197,4.415.356.552,1.168,1.374,1.518,1.268,1.618-.509,2.483,1.268,3.826,1.104,1.565-.191,2.42.796,2.775,1.857.371,1.114-.159,2.515.154,3.667.292,1.093,1.279,1.974,1.024,3.301-.042.207.419.754.557.727,1.703-.377,1.401,1.088,1.863,2.043,1.47.074,3.014.154,4.558.228,1.083,1.725,2.934.515,4.309,1.125.308,1.289,1.056,2.414,1.597,3.577.6,1.279,2.176,2.043,2.377,3.863.96-1.534,2.223-1.433,3.38-1.077.578.18.918,1.051,1.751.891.95-.191.732-.966.865-1.613.042-.218.531-.34.817-.509,1.523-.913,3.582-1.029,4.314-2.712v-3.295c-1.438-.955-1.878-2.494-2.759-3.72-.594-.838-.419-1.756-.255-2.515.297-1.417-1.703-1.852-1.167-3.306.133-.356-.138-1.051-.456-1.348-.764-.738-.494-1.947-1.443-2.632-.61-.446-1.183-.536-1.863-.679-1.242-.26-1.629,1.396-2.749,1.083-.939-.26-1.528-1.284-2.754-1.083-1.014.17-1.937.074-2.839.934-.753.716-1.544-.196-2.16-.891-.318,0-.669.042-1.008-.011-.838-.133-1.841.44-2.499-.334-.812-.955-2.239-.685-3.003-1.825-.674-.992-1.756-1.709-2.409-2.308-.308-1.189.239-2.096-.525-2.865-.329-.329-.685-.913-.616-1.3.297-1.65-.414-3.046-1.151-4.314-.753-1.279-1.146-2.77-2.351-3.831-1.024-.897-.881-1.496.446-3.194-.822-.573-1.687-1.173-2.287-1.592v-9.997c0-.881-.133-1.794.042-2.643.127-.605.812-1.088.976-1.698.218-.796.042-1.587.6-2.43.806-1.226.966-2.934.117-3.821-1.342-1.422-.408-2.117.356-2.993v-5.285c-.287-.281-.738-.52-.754-.785-.101-1.889-.111-3.783-.154-5.678,1.496-.998.409-2.754,1.029-3.799.759-1.284.998-2.473,1.003-3.863,0-.446.345-.907.6-1.327.711-1.162.615-2.107-.207-3.29-.796-1.151-.807-2.722.021-3.847.738-1.008.547-1.921.547-3.391-.594-.398-1.465-.992-2.054-1.396v-13.728c0-.706-.303-1.682.048-2.08,1.618-1.831.647-4.001,1.061-5.959.371-1.735-1.624-2.674-1.136-4.351.074-.26-.133-.647-.313-.913-.191-.281-.499-.483-.764-.727,1.279-.844,1.449-2.139.95-3.248-.334-.748-1.024-1.289-.934-2.276.101-1.035.027-2.085.027-3.279-1.767-1.703-3.545-3.412-5.349-5.158v-2.531c-.621-.409-1.502-.992-1.963-1.3-.377-2.218.563-4.097-1.077-5.476.005-1.502-.711-3.157.96-4.335v-1.019c0-1.061-.186-2.16.042-3.173.287-1.279-1.215-1.672-1.093-2.749.037-.313.255-.6.387-.902.849.218,1.374,1.783,2.563.626.934-2.34-.393-4.134-1.422-6.007-.26.255-.472.578-.769.743-.934.531-1.369.313-1.841-.748-.265-.594-.626-1.146-.955-1.735.435-.44.934-.939,1.465-1.47h2.191c.494-.616,1.072-1.247,1.523-1.958.122-.191-.027-.706-.223-.923-.191-.212-.647-.382-.897-.297-.456.159-.828.541-1.263.78-.982.541-1.714.228-1.825-.78-.053-.525.212-1.337-.042-1.544-1.534-1.231-.945-2.855-.998-4.765.626-.451,1.48-1.067,2.25-1.629-.35-1.088.228-2.064-.7-2.69-.626.621-1.38,1.162-1.847,1.889-.711,1.12-2.112,1.003-2.913,1.878.191,1.767-1.518,2.213-2.33,3.274-.605.796-1.327,1.443-2.515,1.624-.552.085-1.56.854-1.523,1.921.042,1.088-1.072,1.305-1.465,2.038-1.226.09-2.425.34-3.624-.18-.446-.488-.907-.998-1.374-1.512v-6.315c-.695-.292-1.406-.414-1.878-.817-.759-.658-1.348-.918-2.234-.191-.478.398-1.194.504-1.783.785-.515.244-.52,1.725,0,1.756,1.343.096,2.069.886,2.69,1.942-2.08,1.47.021,4.059-1.475,5.651-.403,0-.87.143-1.077-.027-.685-.552-1.268-1.226-1.9-1.847-.966-.96-.807-2.664-2.239-3.332-.271-.127-.483-.493-.61-.791-.451-1.051-.668-2.255-1.321-3.152-.817-1.13-1.969-2.011-2.945-2.966v-2.011c-1.274-2.016-3.662-2.908-4.282-5.317-.08-.308-.812-.7-1.173-.642-1.189.191-1.868-.902-2.765-1.019-1.284-.164-1.65-1.141-2.383-1.794,0-.891-.191-1.831.037-2.648.409-1.433-1.125-2.054-1.114-3.29.011-1.38-1.401-.541-1.99-1.178-.531-.562-1.417-.791-2.192-1.194v-2.069c-.732-.769-1.454-1.528-2.186-2.303v-1.926c-1.12-1.279-2.489-2.308-3.083-3.672-.748-1.725-2.388-2.51-3.279-3.953-.902-1.449-2.674-1.443-3.736-2.59-1.199-1.284-2.531-2.452-3.619-3.492-.244-1.114.313-2.059-.483-2.77-1.422-.456-3.237.605-4.319-1.125-.52.552-1.321.886-1.417,1.762.653.653,1.279,1.279,1.873,1.873-1.231,1.258-2.462,2.521-3.651,3.736h-2.181c-.844-1.093-2.186-1.756-2.924-3.529,1.374-.504,1.422-1.687,1.369-2.919-.048-1.029-.77-.971-1.9-.966-.738.822-1.65,1.889-2.621,2.903-.472.493-.982,1.008-1.576,1.316-1.008.525-2.457.61-3.067,1.39-.69.881-1.093,2.006-1.942,2.897-1.438,1.512-3.157,2.462-5.275,3.242-1.778-1.778-3.624-3.624-5.381-5.381-2.117,0-4.065-.011-6.007.005-1.878.016-3.37-1.836-5.413-1.098-.186.064-.61-.287-.801-.536-.494-.631-.743-.127-1.151.111-1.019.594-1.279.732-1.741.101-.626-.854-1.687-.387-2.239-1.082-.547-.685-1.061-1.396-1.316-1.73-1.894-.223-2.451,1.406-3.911,1.136-.823-.149-1.783.791-2.733.929-1.21.175-2.563-.249-3.683.117-1.401.462-2.77,1.014-4.224,1.305-1.12,1.587-2.011.467-2.94-.249-.276.318-.557.573-.849.759h-.005c-.722.462-1.496.504-2.335.027-.143-.08-.287-.17-.43-.281-.143-1.008.329-2.133-.738-2.919-.218-.159-.318-.589-.334-.902-.069-1.353.265-2.807-1.072-3.799.631-1.725-.881-2.839-1.337-4.235-.244-.743-.876-1.39-.801-2.319.058-.7-.005-1.411.016-2.117.042-1.067,0-2.001-.934-2.839-.361-.324-.122-1.332-.18-2.457-.536-.472-1.263-1.268-2.139-1.825-1.003-.637-.807-1.836-1.481-2.595-1.167-1.316-.844-2.499.329-3.64.191-.186.111-.647.175-1.104-.43-.44-.87-.982-1.401-1.417-.228-.191-.631-.17-1.406-.35-.43.674-1.003,1.56-1.396,2.181h-3.767c-1.82-1.581-3.433-3.582-5.386-5.222-.753.876-1.311,1.3-2.356.769-1.634-.833-1.104-2.399-1.475-3.651-.382-.377-.711-.822-1.141-1.114-1.343-.913-1.889-2.404-2.552-3.73-.43-.86-.271-2.011-.361-3.03-.042-.52.159-1.226-.112-1.528-1.682-1.9-1.65-4.903-4.134-6.161,0-.998-.202-1.937.042-2.738.393-1.263,1.465-2.324,1.035-3.815,1.804-1.311,1.21-3.311.918-4.845-.287-1.523-.95-3.454-2.637-4.059-.876-.308-1.518-.685-2.133-1.274-.488-.478-.902-.976-1.73-.998-.409-.011-.764-.716-1.215-.844-.653-.18-1.401-.011-2.048-.202-.451-.138-.753-.807-1.199-.918-.658-.164-1.385-.042-2.054-.042-.807-.764-1.56-1.486-2.335-2.218h-2.197c-.218-.61-.276-1.385-.695-1.799-.414-.414-1.189-.472-1.794-.685,0-.637.048-1.167-.016-1.687-.074-.663.324-1.412-.318-1.974-1.725-.499-1.73-.499-1.788-1.831-.016-.35,0-.695,0-1.029-2.006-1.242-4.41-1.767-5.938-3.699-3.179-.318-3.179-3.757-5.184-5.28h-7.365c-.403-.371-.78-.722-1.167-1.077-.626,1.889-2.584.483-3.635,1.486-1.438,1.374-3.364.175-4.961.759-1.077.706-1.332,1.921-1.894,2.95-1.141.18-2.494-.212-3.258,1.162h-5.269c-.589-.971-1.746-.934-2.77-1.555v-6.4c-.233-.302-.493-.557-.753-.801-.748-.69-1.459-1.252-1.316-2.372-.886-.769-2.16-.822-2.966-1.852-.971-1.247-2.213-2.282-3.338-3.407-.053-.838-.106-1.672-.154-2.42-.838-.287-1.454-.499-2.16-.738,1.799-1.215,1.04-2.903,1.136-4.383-1.889-1.889-3.683-3.852-5.657-5.62-2.314-2.064-2.754-2.6-2.781-4.606-.016-1.22,0-2.441,0-3.582-1.258-.727-2.839-.722-3.205-2.43-.345-1.64-1.608-2.733-2.993-3.279-1.587-.621-2.271-2.128-3.582-2.892-1.411-.822-3.094-1.157-4.351-2.292-.265-.233-.483-.525-.759-.738-.207-.154-.483-.218-.706-.313-.663.669-1.289,1.289-1.916,1.916-.823-.18-1.756.371-2.473-.34-.573-.886.414-2.165-.791-2.839-.35.021-.817-.096-1.024.085-.923.817-1.677,1.852-2.669,2.563-.117.085-.218.17-.303.271-.626.69-.584,1.666-1.173,2.33-1.512-.212-2.016,1.157-2.934,1.873-.573.451-.769,1.024-.913,1.762-.111.584-.807,1.39-1.353,1.486-2.128.382-2.94,2.319-4.495,3.433h-6.134c-1.358,1.3-2.637,2.515-3.842,3.667v6.431c.525.525,1.024,1.024,1.571,1.571.302,0,.669.08.992-.016,1.502-.419,2.552.801,3.821,1.003,1.571.249.594,1.905,1.634,2.287.149.058.249.244.642.637-.791.658-1.571,1.332-2.377,1.974-.196.149-.483.18-.7.255-.292-.297-.546-.547-.764-.764-1.634.807-1.682,2.393-1.836,3.826-.695.69-1.321,1.316-1.947,1.942q-.048,1.963-.96,3.173c1.051,1.565,3.104,2.335,3.332,4.5,1.098.78,1.65,2.192,3.237,2.452,1.337.218,1.597,2.276,3.375,2.16.472-.032,1.008.897,1.507,1.39,1.491,1.486,2.977,2.977,4.165,4.166.409,1.199-.159,2.144.706,2.839,1.008.807.642,1.995.499,2.94-.17,1.093-.695,2.202-1.316,3.136-.292.435-1.178.467-1.783.679v3.072c-1.364,2.563-4.25,3.03-5.885,4.983-.371-.318-.738-.631-1.098-.939-.303.302-.552.557-.833.833-.966-.562-1.963-1.109-3.163-.891-.971.175-1.687-.228-2.213-.987-.196-.027-.361-.069-.531-.074h-9.562c-.722-.891-1.693-2.08-2.68-3.295-1.666,1.438-1.926,3.555-3.55,4.68-1.258.87-1.618,2.314-2.123,3.614.308.313.563.563.823.823v3.03c-1.661,1.687-3.264,3.317-4.903,4.983h-5.147c-.435.361-.796.658-1.146.955-.318-.318-.573-.568-.854-.849-.754.143-1.125,1.067-2.112.987-.531-.042-1.077.812-1.688.95-.812.186-1.741-.164-2.361.738-.504.727-1.305.297-1.963.35-.881.069-1.762.016-2.595.016-.409-.361-.775-.69-.998-.891-.982.504-1.863.955-2.743,1.412v1.077c-.876.86-1.756,1.725-2.674,2.627h-3.088c-.791.732-1.47,1.82-2.356,2.038-.96.239-1.528.727-2.117,1.327-.706.722-1.624,1.279-1.592,2.558,0,.233-1.125.499-1.916.828v5.317c-.838,1.252-2.255,1.608-2.255,3.168,0,.52-.759,1.3-1.327,1.496-.998.34-1.979.653-2.521,1.571-.249.414-.605.6-.992.722-.563.18-1.189.239-1.629.727-.637.716-1.963.504-2.542,1.496h-3.364c-.684.058-1.459-.069-2.027.218-.584.297-.976,1.061-1.772.833-1.889-.547-3.29.754-4.685,1.48-1.03.536-1.926.573-2.812.642-1.236,1.104-2.319,2.266-3.598,3.152-.918.642-2.229.727-3.11,1.39-1.109.833-1.958,2.011-2.754,2.871h-5.556q-1.656-1.353-2.966-.159c-.26.233-.483.504-.876.913.647,1.21-.037,2.197-.907,3.12.674,1.555-.849,2.494-1.024,3.534,1.215,1.215,2.319,2.319,2.855,2.855.812,2.759-.631,4.028-1.205,5.625h-1.953c-1.571.945-2.324,2.722-3.985,3.295-1.725-.923-3.508-1.555-4.622-3.141-1.56.478-1.39,2.176-2.308,3.099h-2.197c-1.852,2.759-5.343,3.688-7.371,6.346-.069.085-.34.005-.52.011-1.045.016-1.295,1.093-2.022,1.518-.706.414-1.496.7-2.17,1.152-.738.493-1.024,1.231-1.199,2.154-.17.897-2.255.016-1.995,1.725-1.401,1.698-2.515,3.73-4.94,4.229-.446,1.263-3.03.387-2.563,2.558-2.287.674-3.555,2.632-5.179,4.123-.525,1.496.7,2.542.939,3.805.287,1.534.069,3.163.069,4.744-1.698,1.141-.929,2.823-.987,4.319,1.549,1.189.876,2.807.881,4.346-1.39,1.358-2.775,2.717-4.155,4.065v2.738c-.817.812-1.926,1.916-3.279,3.248v2.574c-.807,1.077-2.202,1.555-2.006,3.12.716.716,1.502,1.433,2.197,2.223.637.716,1.597,1.183,1.91,2.436-2.16-.159-2.812,1.767-4.134,2.828v2.728c-.462.95-.854,1.512-1.024,2.139-.435,1.608.87,2.908.944,4.33.074,1.502.918,2.144,1.836,2.982h5.211c1.104,1.783,2.94.631,4.335,1.162.621.626,1.247,1.252,1.836,1.836.876.143,1.841.053,2.505.462,1.427.87,3.157,1.337,3.996,2.871.663,0,1.226.117,1.714-.021,1.555-.435,2.409,1.029,3.725,1.332.801.186,1.756,1.178,1.528,2.457,1.077.515.69,2.282,1.518,2.478,2.292.541,3.125,2.669,4.781,3.73.106,1.104-.143,2.07.695,3.035.568.658.483,1.873.716,2.982.509-.446.876-.769,1.274-1.12.355.706.658,1.459,1.093,2.133.536.833,1.603,1.215,1.629,2.542.016.669,1.316,1.183.96,2.213-.425,1.252,1.279,1.645,1.061,2.743-.239,1.215.377,1.974,1.199,2.706.371.329.663.769.929,1.199,1.486,2.377,3.242,4.505,5.237,5.492,1.178.578,1.868,1.141,2.271,2.452.34,1.098,1.221,2.064,2.749,1.873,1.374-.17,2.186,1.624,3.821,1.109.679-.212,1.146,1.279,2.191.992.907.929,1.99,1.189,3.279,1.088,1.199-.101,2.436.186,3.322-1.045.143-.202.955-.202,1.412.308.308.34.865.451,1.279.716,2.234,1.422,5.02,1.953,6.755,4.181.249-.212.483-.456.759-.621.276-.17.594-.361.902-.366,1.942-.032,3.89-.016,5.805-.016.387.35.753.69,1.12,1.019,1.014-.685,5.089-2.069,6.076-2.08q2.245-.021,5.593,2.123c2.207,0,4.505.064,6.792-.042.594-.027,1.162-.578,1.767-.902.939,1.167,2.112,1.422,3.545.509.541-.345,1.305-.387,1.778-.791,1.072-.918,2.022-1.974,3.035-2.982.371.334.743.669,1.098.992.371-.329.738-.658.95-.844.976.854,1.905,1.666,2.791,2.441v2.176c.525.525,1.024,1.029,1.528,1.528,1.47.228,3.21-.578,4.314,1.098,3.136-.594,5.439,1.406,7.88,2.728,1.205.653,2.892-.164,3.699,1.406ZM847.069,441.702c.945-.828,1.841-.329,2.828-.536.509,1.093.382,1.661-.191,2.186-.616.568-1.109,1.348-2.165.966-.143-.244-.419-.509-.451-.801-.074-.653-.021-1.321-.021-1.815ZM758.441,242.744h2.091c1.072.923,2.128,1.847,1.465,3.985-.61.43-1.603,1.125-2.733,1.921-.849-.775-3.094-.594-3.518-2.94.573-1.22,1.852-1.91,2.696-2.966ZM530.371,120.595h-2.542c-.095-.552-.18-1.024-.271-1.544,1.491-.833,2.897-.403,4.643-.281-.823.822-1.311,1.311-1.831,1.825ZM520.146,188.549c.281-.955,1.518-1.48,1.114-2.712-.334-1.029.738-1.443,1.051-2.197.371-.897.722-1.804,1.077-2.701-.196-.292-.345-.61-.578-.833-.578-.552-.748-1.189-.244-1.799,1.098-1.337,2.69-2.08,4.272-2.34,1.343-.223,2.648-.212,3.794-1.104.191-.149.807.244,1.072.34-.345.732-.897,1.353-.833,1.905.09.764.642,1.47.998,2.202-1.183.971-.732,2.563-1.348,3.651-.817,1.427-1.252,3.216-2.881,3.969-.18,1.284.398,2.558-.398,3.64-.785,1.072-.971,2.462-2.186,3.343-1.252.907-2.25,2.17-3.274,3.2-.865-.011-1.39-.021-1.64-.982-.329-1.263-1.12-2.298-1.114-3.794.005-1.486.748-2.531,1.12-3.789ZM519.668,199.39c.483.271,1.013.775,1.608.865,1.311.196,1.083.96.812,2.16h-3.566c-.35-.435-.78-.96-1.337-1.645.775-.43,1.656-.923,2.483-1.38Z" fill="#2f4047" opacity=".2" stroke-width="0"/>
    <g>
      <line x1="745.439" x2="745.439" y2="574" fill="none" opacity=".2" stroke="#4c4c4c" stroke-miterlimit="10" stroke-width="30"/>
      <line x1="745.439" x2="745.439" y2="574" fill="none" stroke="#4c4c4c" stroke-dasharray="0 0 60 50" stroke-miterlimit="10" stroke-width="30"/>
    </g>
    <g>
      <path d="M1014.865,489.219c-1.482-1.92-2.223-4.735-2.223-8.447,0-2.411.42-4.47,1.264-6.177.842-1.706,1.941-2.986,3.295-3.84,1.355-.853,2.811-1.28,4.369-1.28,1.322,0,2.432.182,3.328.545.896.362,1.803.96,2.719,1.792l-1.344,1.407c-1.301-1.236-2.891-1.855-4.768-1.855s-3.451.741-4.721,2.224c-1.27,1.483-1.902,3.878-1.902,7.185,0,3.221.531,5.6,1.6,7.136,1.066,1.536,2.645,2.304,4.736,2.304,1.621,0,3.156-.395,4.607-1.184v-7.2h-4.801l-.256-1.92h7.168v10.368c-1.152.597-2.256,1.051-3.311,1.359-1.057.31-2.301.464-3.729.464-2.539,0-4.551-.96-6.033-2.88Z" fill="#701616" stroke-width="0"/>
      <path d="M1064.177,472.371c1.184,1.931,1.775,4.731,1.775,8.4s-.592,6.475-1.775,8.416-2.918,2.911-5.201,2.911c-2.26,0-3.988-.97-5.184-2.911s-1.791-4.747-1.791-8.416c0-3.648.596-6.443,1.791-8.385,1.195-1.94,2.924-2.912,5.184-2.912,2.283,0,4.018.966,5.201,2.896ZM1054.976,486.883l7.105-14.176c-.748-1.003-1.781-1.504-3.105-1.504-1.471,0-2.623.784-3.455,2.352-.832,1.568-1.248,3.974-1.248,7.217,0,2.603.234,4.64.703,6.111ZM1062.464,487.987c.832-1.568,1.248-3.974,1.248-7.216,0-2.752-.266-4.886-.799-6.4l-7.105,14.304c.77,1.109,1.824,1.664,3.168,1.664,1.494,0,2.656-.784,3.488-2.352Z" fill="#701616" stroke-width="0"/>
      <path d="M1083.376,472.371c1.184,1.931,1.775,4.731,1.775,8.4s-.592,6.475-1.775,8.416-2.918,2.911-5.201,2.911c-2.26,0-3.988-.97-5.184-2.911s-1.791-4.747-1.791-8.416c0-3.648.596-6.443,1.791-8.385,1.195-1.94,2.924-2.912,5.184-2.912,2.283,0,4.018.966,5.201,2.896ZM1074.175,486.883l7.105-14.176c-.748-1.003-1.781-1.504-3.105-1.504-1.471,0-2.623.784-3.455,2.352-.832,1.568-1.248,3.974-1.248,7.217,0,2.603.234,4.64.703,6.111ZM1081.663,487.987c.832-1.568,1.248-3.974,1.248-7.216,0-2.752-.266-4.886-.799-6.4l-7.105,14.304c.77,1.109,1.824,1.664,3.168,1.664,1.494,0,2.656-.784,3.488-2.352Z" fill="#701616" stroke-width="0"/>
      <path d="M1102.575,472.371c1.186,1.931,1.777,4.731,1.777,8.4s-.592,6.475-1.777,8.416c-1.184,1.941-2.916,2.911-5.199,2.911-2.262,0-3.99-.97-5.184-2.911-1.195-1.941-1.793-4.747-1.793-8.416,0-3.648.598-6.443,1.793-8.385,1.193-1.94,2.922-2.912,5.184-2.912,2.283,0,4.016.966,5.199,2.896ZM1093.376,486.883l7.104-14.176c-.746-1.003-1.781-1.504-3.104-1.504-1.473,0-2.625.784-3.457,2.352-.832,1.568-1.246,3.974-1.246,7.217,0,2.603.234,4.64.703,6.111ZM1100.865,487.987c.832-1.568,1.248-3.974,1.248-7.216,0-2.752-.268-4.886-.801-6.4l-7.104,14.304c.768,1.109,1.824,1.664,3.168,1.664,1.492,0,2.656-.784,3.488-2.352Z" fill="#701616" stroke-width="0"/>
      <path d="M1121.777,472.371c1.184,1.931,1.775,4.731,1.775,8.4s-.592,6.475-1.775,8.416-2.918,2.911-5.201,2.911c-2.26,0-3.988-.97-5.184-2.911s-1.791-4.747-1.791-8.416c0-3.648.596-6.443,1.791-8.385,1.195-1.94,2.924-2.912,5.184-2.912,2.283,0,4.018.966,5.201,2.896ZM1112.575,486.883l7.105-14.176c-.748-1.003-1.781-1.504-3.105-1.504-1.471,0-2.623.784-3.455,2.352-.832,1.568-1.248,3.974-1.248,7.217,0,2.603.234,4.64.703,6.111ZM1120.064,487.987c.832-1.568,1.248-3.974,1.248-7.216,0-2.752-.266-4.886-.799-6.4l-7.105,14.304c.77,1.109,1.824,1.664,3.168,1.664,1.494,0,2.656-.784,3.488-2.352Z" fill="#701616" stroke-width="0"/>
      <path d="M1140.976,472.371c1.184,1.931,1.775,4.731,1.775,8.4s-.592,6.475-1.775,8.416-2.918,2.911-5.201,2.911c-2.26,0-3.988-.97-5.184-2.911s-1.791-4.747-1.791-8.416c0-3.648.596-6.443,1.791-8.385,1.195-1.94,2.924-2.912,5.184-2.912,2.283,0,4.018.966,5.201,2.896ZM1131.775,486.883l7.105-14.176c-.748-1.003-1.781-1.504-3.105-1.504-1.471,0-2.623.784-3.455,2.352-.832,1.568-1.248,3.974-1.248,7.217,0,2.603.234,4.64.703,6.111ZM1139.263,487.987c.832-1.568,1.248-3.974,1.248-7.216,0-2.752-.266-4.886-.799-6.4l-7.105,14.304c.77,1.109,1.824,1.664,3.168,1.664,1.494,0,2.656-.784,3.488-2.352Z" fill="#701616" stroke-width="0"/>
      <path d="M1160.175,472.371c1.184,1.931,1.775,4.731,1.775,8.4s-.592,6.475-1.775,8.416-2.918,2.911-5.201,2.911c-2.26,0-3.988-.97-5.184-2.911s-1.791-4.747-1.791-8.416c0-3.648.596-6.443,1.791-8.385,1.195-1.94,2.924-2.912,5.184-2.912,2.283,0,4.018.966,5.201,2.896ZM1150.974,486.883l7.105-14.176c-.748-1.003-1.781-1.504-3.105-1.504-1.471,0-2.623.784-3.455,2.352-.832,1.568-1.248,3.974-1.248,7.217,0,2.603.234,4.64.703,6.111ZM1158.462,487.987c.832-1.568,1.248-3.974,1.248-7.216,0-2.752-.266-4.886-.799-6.4l-7.105,14.304c.77,1.109,1.824,1.664,3.168,1.664,1.494,0,2.656-.784,3.488-2.352Z" fill="#701616" stroke-width="0"/>
      <path d="M1179.374,472.371c1.186,1.931,1.777,4.731,1.777,8.4s-.592,6.475-1.777,8.416c-1.184,1.941-2.916,2.911-5.199,2.911-2.262,0-3.99-.97-5.184-2.911-1.195-1.941-1.793-4.747-1.793-8.416,0-3.648.598-6.443,1.793-8.385,1.193-1.94,2.922-2.912,5.184-2.912,2.283,0,4.016.966,5.199,2.896ZM1170.175,486.883l7.104-14.176c-.746-1.003-1.781-1.504-3.104-1.504-1.473,0-2.625.784-3.457,2.352-.832,1.568-1.246,3.974-1.246,7.217,0,2.603.234,4.64.703,6.111ZM1177.663,487.987c.832-1.568,1.248-3.974,1.248-7.216,0-2.752-.268-4.886-.801-6.4l-7.104,14.304c.768,1.109,1.824,1.664,3.168,1.664,1.492,0,2.656-.784,3.488-2.352Z" fill="#701616" stroke-width="0"/>
      <path d="M1198.575,472.371c1.184,1.931,1.775,4.731,1.775,8.4s-.592,6.475-1.775,8.416-2.918,2.911-5.201,2.911c-2.26,0-3.988-.97-5.184-2.911s-1.791-4.747-1.791-8.416c0-3.648.596-6.443,1.791-8.385,1.195-1.94,2.924-2.912,5.184-2.912,2.283,0,4.018.966,5.201,2.896ZM1189.374,486.883l7.105-14.176c-.748-1.003-1.781-1.504-3.105-1.504-1.471,0-2.623.784-3.455,2.352-.832,1.568-1.248,3.974-1.248,7.217,0,2.603.234,4.64.703,6.111ZM1196.863,487.987c.832-1.568,1.248-3.974,1.248-7.216,0-2.752-.266-4.886-.799-6.4l-7.105,14.304c.77,1.109,1.824,1.664,3.168,1.664,1.494,0,2.656-.784,3.488-2.352Z" fill="#701616" stroke-width="0"/>
    </g>
    <g>
      <path d="M90.183,540.698c-10.01,0-19.14-1.833-27.136-5.446h0c-8.168-3.693-14.686-8.94-19.373-15.596-4.765-6.768-7.204-14.542-7.25-23.108l-.026-5.026h41.533l.206,4.785c.08,1.872.597,3.461,1.58,4.857,1.037,1.474,2.396,2.59,4.155,3.412,1.894.888,3.958,1.318,6.311,1.318,2.64,0,4.911-.549,6.943-1.677,1.931-1.071,3.375-2.536,4.418-4.479,1.11-2.071,1.65-4.473,1.65-7.34,0-2.828-.55-5.23-1.681-7.342-1.058-1.974-2.504-3.444-4.423-4.496-2.04-1.116-4.32-1.659-6.967-1.659-3.229,0-5.886.609-7.897,1.811-1.96,1.17-3.433,2.837-4.504,5.096l-1.355,2.857h-37.656l6.197-83.864h92.181v36.198h-56.167l-.974,10.667c2.466-1.494,5.215-2.715,8.209-3.644,3.98-1.235,8.315-1.862,12.882-1.862,8.177,0,15.695,1.963,22.346,5.833,6.68,3.891,11.974,9.377,15.736,16.31,3.722,6.858,5.609,14.659,5.609,23.186,0,9.465-2.318,18.055-6.89,25.532-4.582,7.493-11.122,13.396-19.439,17.543-8.165,4.07-17.658,6.135-28.217,6.135ZM67.167,526.139c6.692,3.025,14.437,4.56,23.017,4.56,8.997,0,16.989-1.711,23.755-5.084,6.704-3.343,11.732-7.86,15.37-13.811,3.597-5.884,5.421-12.719,5.421-20.315,0-6.842-1.479-13.038-4.398-18.416-2.916-5.373-6.834-9.441-11.979-12.438-5.102-2.969-10.928-4.475-17.314-4.475-3.561,0-6.898.476-9.919,1.413-2.958.917-5.543,2.19-7.685,3.784-2.017,1.5-3.536,3.165-4.516,4.947l-1.425,2.591h-9.161l3.459-37.896h55.296v-16.198H54.196l-4.719,63.864h20.81c1.779-2.705,4.061-4.897,6.812-6.539,3.583-2.14,7.965-3.225,13.024-3.225,4.307,0,8.267.972,11.77,2.888,3.624,1.985,6.461,4.86,8.436,8.545,1.902,3.551,2.867,7.609,2.867,12.064,0,4.493-.955,8.553-2.836,12.064-1.951,3.638-4.77,6.496-8.379,8.499-3.506,1.946-7.475,2.933-11.795,2.933-3.798,0-7.348-.761-10.551-2.262-3.331-1.558-6.055-3.817-8.093-6.714-1.169-1.661-2.042-3.466-2.611-5.397h-22.11c.707,4.514,2.371,8.597,5.033,12.377,3.644,5.175,8.797,9.294,15.315,12.24h0Z" fill="url(#d)" stroke-width="0"/>
      <path d="M65.107,530.695c-7.379-3.336-13.16-7.976-17.344-13.918-4.185-5.943-6.297-12.694-6.337-20.256h31.717c.122,2.831.95,5.337,2.487,7.521,1.536,2.183,3.578,3.872,6.125,5.063,2.547,1.193,5.356,1.789,8.429,1.789,3.477,0,6.6-.768,9.37-2.305,2.769-1.536,4.902-3.699,6.398-6.488,1.495-2.79,2.244-6.024,2.244-9.703,0-3.639-.758-6.873-2.274-9.703s-3.66-5.003-6.428-6.52c-2.77-1.516-5.893-2.274-9.37-2.274-4.165,0-7.651.84-10.461,2.518-2.811,1.678-4.963,4.093-6.458,7.246h-29.109l5.458-73.864h82.537v26.198h-55.732l-2.547,27.896h.728c1.334-2.426,3.305-4.609,5.913-6.55,2.608-1.94,5.67-3.457,9.188-4.548,3.518-1.092,7.317-1.638,11.401-1.638,7.317,0,13.927,1.719,19.831,5.154,5.902,3.438,10.522,8.229,13.857,14.373,3.335,6.146,5.003,13.079,5.003,20.801,0,8.572-2.052,16.213-6.155,22.924-4.104,6.712-9.906,11.938-17.405,15.677-7.5,3.739-16.162,5.609-25.986,5.609-9.339,0-17.698-1.668-25.076-5.003Z" fill="#869ead" stroke-width="0"/>
    </g>
    <g>
      <path d="M1123.519,248.282c-15.72,0-30.032-2.866-42.539-8.521h0c-12.681-5.732-22.782-13.855-30.026-24.144-7.323-10.402-11.072-22.363-11.142-35.55l-.026-5.026h61.017l.204,4.786c.155,3.627,1.172,6.727,3.106,9.475,1.99,2.829,4.58,4.962,7.918,6.524,3.425,1.604,7.289,2.416,11.488,2.416,4.796,0,8.949-1.012,12.699-3.092,3.647-2.023,6.377-4.792,8.348-8.466,2.009-3.749,3.028-8.225,3.028-13.3,0-5.014-1.036-9.489-3.078-13.302-1.998-3.729-4.736-6.51-8.371-8.5-3.758-2.057-7.92-3.057-12.724-3.057-5.774,0-10.594,1.129-14.324,3.355-3.7,2.21-6.472,5.333-8.471,9.548l-1.355,2.857h-55.534l9.549-129.235h142.879v52.29h-90.4l-2.43,26.601c.483-.39.979-.774,1.487-1.152,4.646-3.457,10.142-6.184,16.334-8.106,6.132-1.902,12.823-2.867,19.887-2.867,12.65,0,24.267,3.027,34.526,8.999,10.287,5.989,18.445,14.446,24.249,25.137,5.761,10.616,8.682,22.716,8.682,35.964,0,14.704-3.59,28.032-10.671,39.612-7.092,11.598-17.229,20.74-30.131,27.172-12.746,6.357-27.61,9.581-44.179,9.581ZM1085.099,230.651c11.203,5.063,24.13,7.632,38.42,7.632,15.006,0,28.368-2.87,39.717-8.53,11.196-5.582,19.964-13.468,26.062-23.439,6.106-9.986,9.202-21.559,9.202-34.396,0-11.563-2.514-22.059-7.471-31.193-4.917-9.057-11.811-16.211-20.49-21.265-8.712-5.07-18.637-7.642-29.496-7.642-6.058,0-11.752.813-16.923,2.418-5.108,1.586-9.593,3.799-13.328,6.578-3.61,2.687-6.352,5.706-8.148,8.972l-1.425,2.59h-9.608l5.025-55.032h89.529v-32.29h-123.59l-8.072,109.235h38.604c2.73-4.622,6.374-8.311,10.864-10.991,5.303-3.165,11.847-4.77,19.45-4.77,6.434,0,12.33,1.441,17.525,4.285,5.315,2.91,9.481,7.132,12.384,12.549,2.829,5.281,4.264,11.346,4.264,18.024,0,6.741-1.418,12.806-4.215,18.024-2.866,5.344-7.008,9.544-12.31,12.485-5.199,2.885-11.104,4.348-17.551,4.348-5.676,0-10.968-1.13-15.728-3.359-4.889-2.288-8.878-5.594-11.855-9.824-2.127-3.021-3.576-6.376-4.333-10.018h-41.548c.846,9.123,3.889,17.452,9.075,24.819,6.201,8.807,14.939,15.802,25.969,20.789h0Z" fill="url(#e)" stroke-width="0"/>
      <path d="M1083.039,235.206c-11.911-5.385-21.243-12.873-27.998-22.467-6.754-9.594-10.165-20.492-10.229-32.697h51.199c.195,4.569,1.532,8.615,4.014,12.14,2.479,3.523,5.775,6.25,9.887,8.174,4.112,1.926,8.647,2.888,13.607,2.888,5.612,0,10.654-1.239,15.125-3.72,4.47-2.479,7.913-5.972,10.328-10.475,2.413-4.503,3.622-9.724,3.622-15.663,0-5.874-1.224-11.095-3.671-15.663-2.447-4.567-5.907-8.077-10.377-10.524-4.472-2.447-9.513-3.671-15.125-3.671-6.723,0-12.352,1.355-16.887,4.062-4.537,2.709-8.012,6.608-10.426,11.698h-46.989l8.811-119.235h133.234v42.29h-89.965l-4.112,45.032h1.175c2.154-3.916,5.336-7.44,9.545-10.573,4.21-3.132,9.153-5.579,14.831-7.342,5.678-1.762,11.812-2.643,18.404-2.643,11.812,0,22.482,2.774,32.012,8.32,9.528,5.548,16.984,13.282,22.369,23.201,5.384,9.921,8.076,21.113,8.076,33.578,0,13.837-3.313,26.172-9.937,37.004-6.625,10.835-15.99,19.271-28.096,25.306-12.106,6.038-26.089,9.056-41.948,9.056-15.075,0-28.569-2.692-40.479-8.076Z" fill="#e4ebef" stroke-width="0"/>
    </g>
    <g>
      <path d="M1176.432,391.753h-42.454v-48.283h-16.563v-27.725h16.563v-22.576h-37.771v-36.587h117.996v36.587h-37.771v22.576h16.074v27.725h-16.074v48.283ZM1143.978,381.753h22.454v-38.283h-22.454v38.283ZM1176.432,333.47h6.074v-7.725h-6.074v7.725ZM1143.978,333.47h22.454v-7.725h-22.454v7.725ZM1127.414,333.47h6.563v-7.725h-6.563v7.725ZM1143.978,315.745h22.454v-32.576h37.771v-16.587h-97.996v16.587h37.771v32.576Z" fill="url(#f)" stroke-width="0"/>
      <path d="M1101.206,261.582h107.996v26.587h-37.771v98.584h-32.454v-98.584h-37.771v-26.587ZM1122.414,320.745h65.092v17.725h-65.092v-17.725Z" fill="#e4ebef" stroke-width="0"/>
    </g>
  </g>
</svg>