<?xml version="1.0" encoding="UTF-8"?>
<svg xmlns="http://www.w3.org/2000/svg" width="1366" height="574" xmlns:xlink="http://www.w3.org/1999/xlink" viewBox="0 0 1366 574">
  <defs>
    <linearGradient id="b" data-name="무제 그라디언트 155" x1="0" y1="287" x2="1366" y2="287" gradientUnits="userSpaceOnUse">
      <stop offset="0" stop-color="#bc8e8e"/>
      <stop offset=".368" stop-color="#b98f8d"/>
      <stop offset=".59" stop-color="#b1948d"/>
      <stop offset=".773" stop-color="#a29c8c"/>
      <stop offset=".934" stop-color="#8ea88b"/>
      <stop offset="1" stop-color="#84af8b"/>
    </linearGradient>
    <linearGradient id="d" data-name="무제 그라디언트 109" x1="37.508" y1="471.258" x2="168.001" y2="471.258" gradientUnits="userSpaceOnUse">
      <stop offset="0" stop-color="#776b41"/>
      <stop offset="1" stop-color="#4c6f53"/>
    </linearGradient>
    <linearGradient id="e" data-name="무제 그라디언트 109" x1="176.794" x2="307.278" xlink:href="#d"/>
    <linearGradient id="f" data-name="무제 그라디언트 109" x1="1198.016" y1="344.921" x2="1328.5" y2="344.921" xlink:href="#d"/>
    <linearGradient id="g" data-name="무제 그라디언트 109" x1="1198.016" y1="282.179" x2="1328.5" y2="282.179" xlink:href="#d"/>
    <linearGradient id="h" data-name="무제 그라디언트 109" x1="900.754" y1="140.177" x2="1106.122" y2="140.177" xlink:href="#d"/>
    <linearGradient id="i" data-name="무제 그라디언트 109" x1="1123.146" y1="140.177" x2="1328.5" y2="140.177" xlink:href="#d"/>
  </defs>
  <g id="a" data-name="레이어 2">
    <rect width="1366" height="574" transform="translate(1366 574) rotate(180)" fill="url(#b)"/>
    <rect width="292.835" height="574" fill="#f4e4e4"/>
  </g>
  <g id="c" data-name="레이어 1">
    <g opacity=".2">
      <g>
        <path d="m389.521,286.97l-3.867-4.152c-5.115-5.492-10.056-11.427-15.104-18.143-4.694-6.263-9.139-12.902-13.592-20.302l9.654-5.81c4.255,7.07,8.491,13.4,12.95,19.349,3.555,4.731,7.049,9.048,10.589,13.081,4.138-3.684,8.557-7.31,13.188-10.823,5.684-4.302,11.837-8.437,18.293-12.294l5.779,9.672c-6.104,3.647-11.914,7.551-17.268,11.603-5.928,4.495-11.479,9.181-16.497,13.922l-4.124,3.897Z" fill="#472f2f"/>
        <path d="m393.78,243.092l-2.975-4.832c-3.979-6.463-7.662-13.25-11.259-20.75-3.424-7.215-6.562-14.81-9.337-22.595l10.613-3.783c2.648,7.43,5.64,14.673,8.893,21.526,2.536,5.287,5.117,10.203,7.822,14.892,4.813-2.822,9.854-5.513,15.044-8.031,6.626-3.182,13.47-6.023,20.364-8.456l3.749,10.625c-6.511,2.298-12.976,4.982-19.216,7.978-6.608,3.206-12.97,6.714-18.888,10.417l-4.81,3.01Z" fill="#472f2f"/>
        <path d="m406.569,200.905l-1.968-5.322c-2.63-7.11-4.908-14.488-6.964-22.554-1.917-7.596-3.508-15.655-4.732-23.968l11.147-1.641c1.169,7.938,2.685,15.622,4.506,22.839,1.451,5.692,3.016,11.02,4.746,16.144,5.272-1.821,10.744-3.47,16.333-4.921,6.998-1.801,14.27-3.25,21.625-4.309l1.606,11.152c-6.951,1.001-13.819,2.37-20.411,4.066-7.127,1.85-14.055,4.04-20.58,6.508l-5.308,2.007Z" fill="#472f2f"/>
        <path d="m427.383,162.042l-.885-5.604c-2.444-15.475-3.257-31.589-2.417-47.895l11.252.579c-.7,13.586-.196,27.021,1.497,40.018,13.12-1.807,26.228-2.369,39.044-1.671l-.613,11.25c-13.849-.755-28.074.053-42.28,2.398l-5.597.924Z" fill="#472f2f"/>
        <path d="m502.971,134.014c-1.937-.499-3.506-.878-4.94-1.191-1.525-.339-3.308-.73-5.122-1.09-4.12-.786-7.314-1.322-10.317-1.729l-.058-.008c-3.623-.529-7.242-.893-10.616-1.206-3.014-.238-6.963-.522-10.846-.626l-5.672-.152.193-5.671c.141-4.151.461-8.234.755-11.68l.007-.078c.35-3.526.791-7.681,1.409-11.774.615-4.376,1.41-8.662,2.035-11.91.422-2.109.864-4.13,1.28-6.006.386-1.77.832-3.64,1.444-6.045l10.919,2.778c-.579,2.275-.998,4.028-1.359,5.686-.407,1.837-.834,3.789-1.228,5.757-.593,3.083-1.357,7.2-1.938,11.336l-.008.058c-.58,3.839-1.002,7.812-1.338,11.197-.145,1.703-.296,3.564-.427,5.501,2.081.125,4.031.271,5.7.402l.078.007c3.529.328,7.33.709,11.214,1.276,3.202.435,6.573,1,10.927,1.831,1.966.39,3.827.798,5.394,1.146,1.553.339,3.252.748,5.327,1.283l-2.812,10.911Z" fill="#472f2f"/>
        <path d="m534.914,115.19c-2.722-1.321-5.627-2.618-9.419-4.204-1.525-.632-3.098-1.24-4.847-1.913l-2.452-.923-2.501-.883c-6.498-2.286-13.475-4.301-20.733-5.988l-5.525-1.284,1.323-5.516c1.863-7.769,4.12-15.388,6.71-22.644l1.032-2.883,1.046-2.748c.689-1.775,1.454-3.745,2.26-5.684,1.879-4.473,3.473-8.048,5.024-11.269l10.151,4.889c-1.466,3.044-2.985,6.452-4.779,10.724-.747,1.796-1.486,3.701-2.139,5.382l-1.012,2.66-.973,2.72c-1.848,5.178-3.519,10.558-4.988,16.051,5.667,1.471,11.145,3.134,16.347,4.963l2.672.944,2.545.958c1.859.715,3.502,1.351,5.169,2.041,3.956,1.656,7.13,3.073,10.008,4.47l-4.919,10.136Z" fill="#472f2f"/>
        <path d="m569.944,103.041l-.636-.475c-1.15-.859-2.338-1.748-3.48-2.542-1.434-1.009-2.882-2.007-4.331-2.986-1.356-.913-2.734-1.787-4.193-2.713l-2.406-1.504-2.278-1.356c-5.906-3.513-12.173-6.765-19.156-9.941l-5.163-2.348,2.383-5.147c3.407-7.357,7.116-14.385,11.025-20.887l1.578-2.623,1.772-2.812c1.007-1.577,2.049-3.208,3.133-4.815,1.132-1.671,2.294-3.356,3.461-5.016.978-1.408,1.999-2.782,2.987-4.112l.656-.884,9.054,6.707-.667.898c-.978,1.316-1.901,2.558-2.793,3.842-1.147,1.633-2.274,3.266-3.365,4.877-.999,1.48-2.001,3.048-2.97,4.566l-1.702,2.7-1.489,2.476c-2.798,4.655-5.492,9.601-8.039,14.76,5.336,2.584,10.299,5.247,15.056,8.077l2.433,1.45,2.524,1.578c1.459.925,2.966,1.882,4.458,2.886,1.515,1.024,3.023,2.063,4.488,3.094,1.275.886,2.543,1.834,3.768,2.75l.627.468-6.736,9.032Z" fill="#472f2f"/>
        <path d="m606.698,97.947l-.222-.247c-.489-.546-.983-1.097-1.48-1.635l-1.794-1.905c-1.261-1.321-2.423-2.532-3.602-3.707-2.197-2.166-4.837-4.731-7.617-7.192l-.046-.041c-2.28-2.062-4.799-4.199-8.168-6.931-1.28-1.036-2.582-2.032-3.961-3.086l-2.528-1.91c-.558-.414-1.15-.838-1.747-1.265l-5.034-3.61,3.644-5.005c.473-.65.949-1.305,1.432-1.946l2.003-2.613c1.1-1.419,2.238-2.885,3.417-4.324,3.029-3.687,5.415-6.465,7.737-9.009,2.81-3.144,5.66-6.067,8.321-8.757,1.468-1.471,2.956-2.892,4.395-4.268l2.264-2.138c.631-.586,1.266-1.158,1.905-1.734l.387-.349,7.546,8.366-.393.354c-.592.533-1.179,1.062-1.763,1.604l-2.18,2.058c-1.438,1.375-2.813,2.689-4.17,4.048-2.544,2.573-5.281,5.38-7.931,8.346l-.041.045c-2.19,2.399-4.463,5.045-7.367,8.581-1.079,1.317-2.17,2.723-3.225,4.083l-.175.226.351.268c1.378,1.054,2.802,2.144,4.206,3.279,3.527,2.86,6.183,5.114,8.612,7.31,2.99,2.647,5.876,5.454,8.058,7.606,1.292,1.287,2.506,2.552,3.846,3.956l1.872,1.986c.544.588,1.084,1.19,1.619,1.787l.219.244-8.388,7.523Z" fill="#472f2f"/>
        <path d="m643.798,100.064c-3.646-6.102-7.55-11.912-11.603-17.268-4.496-5.929-9.182-11.481-13.922-16.497l-3.897-4.124,4.152-3.868c5.491-5.115,11.426-10.055,18.143-15.104,6.263-4.694,12.903-9.139,20.303-13.592l5.81,9.654c-7.07,4.255-13.399,8.491-19.349,12.95-4.731,3.556-9.049,7.05-13.082,10.589,3.683,4.137,7.31,8.556,10.823,13.188,4.303,5.686,8.438,11.839,12.294,18.293l-9.672,5.778Z" fill="#472f2f"/>
        <path d="m679.657,109.347c-2.297-6.509-4.98-12.974-7.978-19.215-3.205-6.606-6.713-12.968-10.417-18.888l-3.009-4.81,4.832-2.975c6.463-3.979,13.25-7.662,20.749-11.259,7.217-3.425,14.812-6.563,22.596-9.337l3.782,10.613c-7.428,2.648-14.671,5.64-21.526,8.893-5.286,2.536-10.203,5.117-14.891,7.822,2.822,4.814,5.513,9.855,8.031,15.044,3.183,6.628,6.025,13.473,8.456,20.364l-10.625,3.749Z" fill="#472f2f"/>
        <path d="m713.021,125.522c-1.001-6.95-2.369-13.817-4.066-20.412-1.85-7.127-4.04-14.055-6.508-20.58l-2.006-5.308,5.322-1.968c7.11-2.63,14.487-4.908,22.554-6.964,7.596-1.917,15.655-3.508,23.968-4.732l1.641,11.147c-7.938,1.169-15.622,2.685-22.838,4.506-5.692,1.451-11.02,3.016-16.144,4.746,1.821,5.272,3.47,10.744,4.921,16.333,1.801,7,3.251,14.272,4.31,21.625l-11.152,1.606Z" fill="#472f2f"/>
        <path d="m753.876,148.527l-11.25-.613c.754-13.85-.052-28.075-2.398-42.28l-.924-5.598,5.604-.885c15.475-2.443,31.589-3.257,47.895-2.417l-.579,11.252c-13.587-.698-27.021-.196-40.018,1.497,1.807,13.12,2.37,26.228,1.671,39.044Z" fill="#472f2f"/>
        <path d="m778.242,178.436l-10.911-2.809c.501-1.947.88-3.517,1.191-4.941.339-1.525.73-3.308,1.09-5.122.788-4.129,1.323-7.323,1.729-10.316l.008-.059c.53-3.628.893-7.245,1.206-10.615.238-3.014.522-6.963.627-10.846l.152-5.672,5.671.193c4.152.141,8.234.461,11.68.755l.078.007c3.526.35,7.681.791,11.775,1.409,4.377.615,8.663,1.411,11.91,2.035,2.111.422,4.131.864,6.006,1.28,1.767.385,3.637.832,6.045,1.444l-2.778,10.919c-2.278-.58-4.031-.999-5.686-1.359-1.836-.407-3.788-.834-5.757-1.228-3.082-.593-7.199-1.357-11.336-1.938l-.058-.008c-3.839-.58-7.812-1.002-11.196-1.338-1.703-.145-3.564-.296-5.501-.427-.125,2.081-.271,4.031-.403,5.7l-.007.077c-.327,3.526-.708,7.324-1.276,11.214-.433,3.193-.998,6.565-1.83,10.927-.39,1.966-.798,3.827-1.146,5.394-.337,1.543-.746,3.241-1.283,5.326Z" fill="#472f2f"/>
        <path d="m796.292,212.487l-10.137-4.919c1.304-2.686,2.639-5.679,4.204-9.419.631-1.521,1.215-3.032,1.913-4.847l.923-2.452.882-2.501c2.286-6.5,4.301-13.477,5.988-20.733l1.284-5.525,5.516,1.323c7.77,1.863,15.388,4.12,22.644,6.71l2.884,1.033,2.748,1.046c1.773.688,3.742,1.452,5.684,2.26,4.47,1.877,8.044,3.471,11.269,5.024l-4.888,10.151c-3.047-1.467-6.455-2.986-10.725-4.779-1.799-.748-3.703-1.487-5.382-2.139l-2.66-1.012-2.72-.973c-5.178-1.848-10.558-3.519-16.051-4.988-1.471,5.667-3.134,11.144-4.964,16.347l-.944,2.672-.958,2.545c-.717,1.864-1.354,3.511-2.042,5.171-1.655,3.954-3.072,7.128-4.469,10.007Z" fill="#472f2f"/>
        <path d="m807.335,249.334l-9.031-6.737.466-.624c.862-1.154,1.754-2.346,2.551-3.493,1.01-1.436,2.009-2.884,2.986-4.331.91-1.352,1.781-2.725,2.704-4.178l1.513-2.42,1.357-2.278c3.512-5.904,6.764-12.171,9.941-19.155l2.348-5.163,5.147,2.383c7.359,3.408,14.387,7.117,20.887,11.025l2.623,1.578,2.812,1.772c1.577,1.007,3.208,2.049,4.815,3.133,1.672,1.133,3.358,2.296,5.016,3.461,1.407.977,2.782,1.998,4.11,2.986l.885.657-6.706,9.054-.9-.668c-1.316-.978-2.558-1.901-3.841-2.792-1.632-1.146-3.264-2.272-4.877-3.365-1.48-.999-3.049-2.001-4.566-2.97l-2.7-1.701-2.477-1.489c-4.654-2.797-9.6-5.491-14.759-8.039-2.584,5.336-5.248,10.3-8.077,15.056l-1.45,2.432-1.588,2.54c-.922,1.453-1.876,2.956-2.877,4.442-1.022,1.512-2.061,3.02-3.094,4.488-.89,1.28-1.841,2.552-2.76,3.782l-.459.614Z" fill="#472f2f"/>
        <path d="m810.921,287.74l-7.524-8.387.273-.244c.538-.482,1.08-.968,1.61-1.458l1.904-1.794c1.314-1.255,2.521-2.411,3.707-3.602,2.167-2.198,4.733-4.839,7.192-7.618l.04-.045c2.059-2.277,4.197-4.796,6.931-8.168,1.035-1.28,2.032-2.582,3.086-3.961l1.909-2.528c.408-.55.827-1.135,1.249-1.724l3.627-5.057,4.999,3.64c.652.474,1.308.952,1.951,1.435l2.635,2.019c1.411,1.095,2.871,2.228,4.303,3.401,3.688,3.03,6.466,5.416,9.009,7.737,3.142,2.809,6.065,5.659,8.757,8.32,1.471,1.468,2.893,2.956,4.268,4.395l2.137,2.264c.599.645,1.184,1.294,1.773,1.948l.312.346-8.369,7.544-.315-.35c-.545-.605-1.086-1.206-1.639-1.803l-2.06-2.182c-1.375-1.439-2.689-2.813-4.047-4.17-2.574-2.545-5.382-5.283-8.346-7.932l-.045-.041c-2.399-2.19-5.045-4.462-8.581-7.367-1.31-1.074-2.71-2.16-4.063-3.21l-.246-.191-.268.351c-1.054,1.378-2.143,2.802-3.279,4.206-2.863,3.53-5.118,6.186-7.312,8.613-2.646,2.988-5.453,5.875-7.605,8.057-1.297,1.303-2.611,2.562-3.957,3.847l-1.986,1.871c-.579.536-1.173,1.069-1.762,1.597l-.269.241Z" fill="#472f2f"/>
        <path d="m862.079,335.437c-4.254-7.07-8.49-13.399-12.95-19.349-3.556-4.731-7.05-9.049-10.589-13.081-4.138,3.683-8.555,7.309-13.188,10.823-5.685,4.303-11.838,8.438-18.293,12.294l-5.779-9.672c6.104-3.647,11.913-7.55,17.268-11.603,5.928-4.496,11.48-9.182,16.497-13.922l4.124-3.897,3.867,4.152c5.114,5.491,10.055,11.426,15.103,18.143,4.695,6.265,9.139,12.904,13.592,20.303l-9.654,5.81Z" fill="#472f2f"/>
        <path d="m847.87,382.867c-2.647-7.427-5.639-14.67-8.893-21.527-2.537-5.287-5.118-10.204-7.822-14.891-4.814,2.822-9.855,5.513-15.044,8.031-6.628,3.183-13.473,6.025-20.364,8.456l-3.749-10.625c6.508-2.296,12.973-4.98,19.215-7.978,6.607-3.205,12.969-6.713,18.888-10.416l4.81-3.01,2.975,4.832c3.978,6.461,7.661,13.248,11.26,20.749,3.425,7.219,6.563,14.814,9.337,22.596l-10.613,3.783Z" fill="#472f2f"/>
        <path d="m824.639,426.578c-1.168-7.937-2.684-15.621-4.506-22.838-1.45-5.691-3.016-11.02-4.746-16.144-5.272,1.821-10.744,3.47-16.333,4.921-7.001,1.802-14.272,3.251-21.625,4.31l-1.606-11.152c6.949-1.001,13.817-2.369,20.412-4.066,7.128-1.85,14.055-4.041,20.579-6.508l5.307-2.006,1.969,5.321c2.631,7.112,4.909,14.489,6.964,22.554,1.917,7.597,3.508,15.656,4.732,23.968l-11.147,1.641Z" fill="#472f2f"/>
        <path d="m804.611,465.456l-11.252-.579c.7-13.586.196-27.02-1.497-40.018-13.12,1.807-26.228,2.369-39.044,1.671l.613-11.25c13.852.755,28.075-.052,42.28-2.398l5.598-.924.885,5.604c2.444,15.476,3.257,31.59,2.418,47.895Z" fill="#472f2f"/>
        <path d="m766.168,499.152l-10.918-2.78c.578-2.27.997-4.024,1.359-5.685.409-1.843.837-3.8,1.227-5.755.592-3.08,1.356-7.192,1.939-11.338l.008-.057c.578-3.828,1.001-7.805,1.338-11.195.145-1.703.297-3.564.427-5.502-2.082-.125-4.031-.271-5.7-.403l-.077-.007c-3.526-.327-7.324-.708-11.212-1.275-3.194-.434-6.566-.998-10.929-1.831-1.966-.39-3.827-.798-5.394-1.146-1.544-.337-3.242-.746-5.326-1.283l2.81-10.911c1.946.501,3.516.879,4.941,1.191,1.525.339,3.308.73,5.122,1.09,4.128.787,7.322,1.323,10.316,1.729l.059.008c3.627.53,7.244.893,10.615,1.206,3.015.237,6.964.522,10.846.626l5.673.152-.193,5.671c-.142,4.159-.461,8.238-.755,11.68l-.007.078c-.351,3.532-.793,7.692-1.408,11.776-.617,4.385-1.411,8.666-2.035,11.909-.419,2.098-.862,4.123-1.279,6.005-.386,1.774-.834,3.645-1.445,6.046Z" fill="#472f2f"/>
        <path d="m721.86,524.749l-10.151-4.889c1.466-3.046,2.985-6.453,4.778-10.724.746-1.792,1.486-3.7,2.139-5.382l1.012-2.659.972-2.72c1.848-5.177,3.519-10.557,4.988-16.052-5.666-1.471-11.145-3.134-16.347-4.964l-2.672-.944-2.545-.958c-1.862-.716-3.508-1.353-5.171-2.042-3.954-1.655-7.129-3.072-10.007-4.469l4.919-10.137c2.686,1.304,5.679,2.639,9.419,4.204,1.521.63,3.096,1.24,4.847,1.913l2.452.923,2.5.882c6.5,2.286,13.477,4.301,20.734,5.988l5.526,1.284-1.323,5.517c-1.864,7.773-4.122,15.391-6.71,22.644l-1.032,2.884-1.046,2.748c-.69,1.776-1.456,3.751-2.26,5.684-1.878,4.47-3.471,8.045-5.024,11.268Z" fill="#472f2f"/>
        <path d="m673.395,541.119l-9.053-6.707.655-.882c.982-1.321,1.909-2.569,2.805-3.859,1.137-1.62,2.264-3.252,3.366-4.878.996-1.474,1.994-3.038,2.96-4.551l1.71-2.715,1.489-2.476c2.797-4.652,5.49-9.599,8.039-14.759-5.336-2.583-10.299-5.247-15.056-8.077l-2.433-1.45-2.521-1.576c-1.459-.926-2.969-1.884-4.461-2.889-1.508-1.019-3.016-2.058-4.487-3.094-1.284-.893-2.558-1.845-3.791-2.767l-.606-.453,6.737-9.03.615.459c1.157.865,2.352,1.759,3.502,2.558,1.438,1.012,2.887,2.01,4.33,2.985,1.358.915,2.737,1.79,4.197,2.716l2.402,1.501,2.278,1.357c5.906,3.513,12.173,6.765,19.156,9.941l5.163,2.348-2.384,5.147c-3.41,7.362-7.119,14.389-11.025,20.887l-1.578,2.622-1.781,2.826c-1.004,1.573-2.042,3.199-3.124,4.801-1.142,1.685-2.305,3.37-3.461,5.016-.981,1.413-2.007,2.793-2.999,4.127l-.645.868Z" fill="#472f2f"/>
        <path d="m622.687,547.724l-7.544-8.369.353-.317c.604-.544,1.205-1.085,1.802-1.639l2.179-2.058c1.367-1.306,2.805-2.681,4.171-4.048,2.542-2.57,5.277-5.376,7.931-8.346l.041-.045c2.191-2.4,4.463-5.046,7.367-8.58,1.078-1.315,2.167-2.719,3.22-4.076l.18-.233-.352-.269c-1.377-1.053-2.801-2.142-4.204-3.278-3.528-2.861-6.184-5.115-8.613-7.311-2.99-2.647-5.876-5.455-8.058-7.606-1.311-1.305-2.567-2.616-3.847-3.957l-1.871-1.985c-.533-.577-1.063-1.167-1.588-1.753l-.25-.279,8.387-7.524.253.283c.479.535.962,1.074,1.449,1.6l1.795,1.905c1.203,1.26,2.405,2.514,3.602,3.707,2.197,2.166,4.837,4.732,7.617,7.192l.045.04c2.279,2.061,4.799,4.199,8.169,6.932,1.28,1.035,2.582,2.031,3.96,3.085l2.529,1.91c.559.415,1.151.839,1.749,1.267l5.032,3.609-3.623,4.977c-.479.659-.962,1.323-1.451,1.973l-2.01,2.622c-1.099,1.416-2.234,2.88-3.412,4.317-3.028,3.686-5.414,6.464-7.737,9.008-2.815,3.149-5.662,6.07-8.32,8.757-1.478,1.48-2.965,2.901-4.403,4.275l-2.256,2.13c-.644.599-1.293,1.183-1.945,1.771l-.349.314Z" fill="#472f2f"/>
        <path d="m571.718,544.387l-5.81-9.654c7.07-4.254,13.399-8.49,19.349-12.95,4.731-3.555,9.048-7.049,13.081-10.589-3.684-4.138-7.31-8.556-10.823-13.188-4.301-5.683-8.437-11.837-12.294-18.293l9.672-5.779c3.648,6.105,7.552,11.915,11.603,17.268,4.495,5.928,9.181,11.48,13.922,16.498l3.897,4.124-4.152,3.867c-5.492,5.115-11.427,10.055-18.143,15.103-6.264,4.695-12.904,9.139-20.303,13.592Z" fill="#472f2f"/>
        <path d="m522.262,531.136l-3.783-10.613c7.429-2.648,14.672-5.64,21.526-8.893,5.288-2.537,10.204-5.118,14.891-7.822-2.822-4.814-5.513-9.854-8.031-15.044-3.182-6.626-6.023-13.47-8.456-20.363l10.625-3.75c2.298,6.511,4.982,12.976,7.978,19.216,3.206,6.608,6.714,12.97,10.417,18.888l3.01,4.81-4.832,2.975c-6.46,3.977-13.248,7.66-20.75,11.26-7.216,3.425-14.811,6.563-22.595,9.337Z" fill="#472f2f"/>
        <path d="m476.408,508.44l-1.641-11.147c7.937-1.168,15.621-2.684,22.839-4.506,5.691-1.45,11.019-3.016,16.144-4.746-1.821-5.272-3.47-10.744-4.921-16.333-1.801-6.999-3.25-14.27-4.309-21.625l11.152-1.606c1.001,6.951,2.37,13.819,4.066,20.412,1.85,7.128,4.041,14.055,6.507,20.579l2.007,5.307-5.322,1.969c-7.111,2.631-14.489,4.909-22.554,6.964-7.597,1.917-15.656,3.508-23.967,4.732Z" fill="#472f2f"/>
        <path d="m448.29,477.585c-4.117,0-8.252-.107-12.401-.32l.58-11.252c13.585.699,27.02.196,40.018-1.497-1.807-13.12-2.37-26.228-1.671-39.044l11.25.613c-.755,13.85.052,28.075,2.398,42.28l.924,5.598-5.604.885c-11.538,1.822-23.433,2.738-35.495,2.738Z" fill="#472f2f"/>
        <path d="m455.359,445.945l-5.671-.193c-4.159-.142-8.238-.461-11.681-.755l-.078-.007c-3.532-.351-7.691-.793-11.774-1.408-4.384-.617-8.667-1.412-11.911-2.036-2.096-.419-4.122-.862-6.005-1.279-1.777-.387-3.648-.834-6.046-1.445l2.78-10.918c2.267.577,4.02.996,5.685,1.359,1.843.409,3.801.837,5.755,1.227,3.08.592,7.193,1.356,11.338,1.938l.057.008c3.828.578,7.805,1.001,11.196,1.338,1.703.145,3.563.297,5.502.427.125-2.082.271-4.031.402-5.7l.007-.077c.328-3.531.709-7.332,1.276-11.215.564-4.151,1.315-8.223,1.831-10.927.39-1.966.798-3.827,1.146-5.394.339-1.554.749-3.253,1.283-5.327l10.911,2.812c-.499,1.936-.877,3.506-1.191,4.94-.339,1.525-.729,3.308-1.09,5.122-.786,4.12-1.322,7.314-1.729,10.317l-.008.058c-.529,3.621-.893,7.241-1.206,10.615-.238,3.015-.522,6.964-.626,10.847l-.152,5.673Z" fill="#472f2f"/>
        <path d="m427.341,411.908l-5.517-1.323c-7.772-1.864-15.391-4.122-22.644-6.71l-2.884-1.032-2.748-1.046c-1.778-.69-3.754-1.457-5.684-2.26-4.473-1.878-8.048-3.472-11.268-5.023l4.889-10.151c3.043,1.466,6.45,2.984,10.724,4.778,1.789.744,3.698,1.485,5.382,2.139l2.66,1.012,2.719.972c5.177,1.848,10.557,3.519,16.052,4.988,1.471-5.667,3.134-11.145,4.963-16.347l.944-2.672.958-2.545c.714-1.857,1.35-3.499,2.041-5.169,1.656-3.957,3.073-7.131,4.47-10.008l10.136,4.919c-1.321,2.723-2.618,5.628-4.204,9.419-.633,1.529-1.241,3.1-1.913,4.847l-.923,2.452-.883,2.501c-2.286,6.498-4.301,13.476-5.988,20.733l-1.284,5.526Z" fill="#472f2f"/>
        <path d="m406.522,373.045l-5.147-2.384c-7.36-3.409-14.387-7.118-20.887-11.025l-2.623-1.579-2.826-1.781c-1.573-1.004-3.199-2.042-4.801-3.124-1.683-1.141-3.368-2.304-5.016-3.461-1.414-.982-2.794-2.007-4.129-2.999l-.867-.644,6.707-9.053.881.654c1.321.982,2.569,1.91,3.859,2.806,1.622,1.139,3.254,2.265,4.878,3.366,1.474.996,3.038,1.994,4.551,2.96l2.714,1.71,2.477,1.49c4.653,2.797,9.6,5.491,14.76,8.039,2.583-5.335,5.247-10.298,8.077-15.056l1.45-2.433,1.566-2.504c.929-1.465,1.89-2.98,2.899-4.477,1.021-1.511,2.06-3.019,3.094-4.488.889-1.279,1.838-2.549,2.756-3.777l.462-.618,9.031,6.736-.469.628c-.861,1.152-1.752,2.344-2.548,3.489-1.011,1.437-2.009,2.885-2.986,4.33-.918,1.363-1.796,2.747-2.725,4.212l-1.492,2.387-1.356,2.278c-3.514,5.908-6.766,12.175-9.941,19.156l-2.348,5.163Z" fill="#472f2f"/>
        <path d="m393.766,330.847l-4.984-3.627c-.658-.478-1.32-.959-1.968-1.447l-2.6-1.993c-1.423-1.104-2.894-2.245-4.338-3.429-3.685-3.028-6.464-5.413-9.008-7.736-3.15-2.816-6.071-5.663-8.757-8.321-1.48-1.478-2.901-2.965-4.275-4.403l-2.131-2.256c-.585-.63-1.156-1.264-1.731-1.902l-.351-.39,8.366-7.546.356.395c.532.591,1.061,1.178,1.602,1.761l2.058,2.179c1.306,1.367,2.681,2.805,4.048,4.171,2.569,2.541,5.374,5.276,8.346,7.931l.045.041c2.4,2.192,5.047,4.464,8.581,7.367,1.321,1.083,2.732,2.177,4.096,3.235l.213.165.269-.352c1.053-1.377,2.143-2.801,3.278-4.204,2.859-3.526,5.114-6.182,7.312-8.614,2.648-2.991,5.454-5.876,7.605-8.056,1.295-1.301,2.558-2.511,3.957-3.847l1.985-1.871c.585-.541,1.184-1.078,1.778-1.61l.255-.229,7.523,8.388-.258.232c-.542.486-1.09.976-1.624,1.47l-1.905,1.795c-1.317,1.257-2.525,2.414-3.707,3.602-2.165,2.196-4.73,4.835-7.192,7.617l-.04.045c-2.064,2.282-4.202,4.801-6.932,8.169-1.035,1.28-2.031,2.582-3.085,3.96l-1.91,2.529c-.42.566-.85,1.168-1.284,1.773l-3.59,5.008Z" fill="#472f2f"/>
      </g>
    </g>
    <g>
      <path d="m335.344,436.676l1.255-14.387h40.213l1.255,14.387h-2.802c-.156-1.674-.292-2.957-.409-3.852-.117-.895-.384-1.932-.802-3.109-.418-1.176-.948-2.043-1.59-2.596-.642-.555-1.542-1.031-2.7-1.432-1.158-.398-2.573-.598-4.246-.598h-4.523v34.727h9.134v2.803c-2.159-.117-6.624-.176-13.395-.176s-11.235.059-13.395.176v-2.803h9.163v-34.727h-4.611c-1.673,0-3.098.209-4.275.627-1.177.42-2.082.906-2.714,1.459-.632.555-1.148,1.412-1.546,2.568-.399,1.158-.671,2.186-.817,3.08s-.277,2.178-.394,3.852h-2.801Z" fill="#472f2f"/>
      <path d="m373.751,462.619v-2.803h1.255c2.062,0,3.375-.102,3.94-.307.564-.205.943-.561,1.138-1.068l14.825-35.979c.156-.447.292-.758.409-.934.117-.174.326-.324.627-.451.301-.127.734-.189,1.299-.189.447,0,.768.023.963.072.194.049.433.189.715.424.282.232.521.594.715,1.078l15.292,37.354h5.807v2.803c-1.401-.117-4.65-.176-9.747-.176-5.506,0-9.017.059-10.535.176v-2.803h5.69l-3.589-8.754h-16.021l-2.977,7.262c-.156.156-.234.391-.234.703,0,.525,1.771.789,5.312.789v2.803c-1.479-.117-4.105-.176-7.879-.176-.136,0-2.471.059-7.004.176Zm13.979-14.357h13.628l-6.8-16.605-6.829,16.605Z" fill="#472f2f"/>
      <path d="m421.527,442.133c0-6.264,2.184-11.357,6.552-15.277,4.367-3.92,10.17-5.881,17.407-5.881,4.426,0,8.364,1.354,11.815,4.057l3.935-3.531c.389-.35.768-.525,1.137-.525.477,0,.773.107.888.322.114.213.172.66.172,1.342v12.84c0,.799-.082,1.279-.244,1.445s-.616.248-1.361.248c-.669,0-1.08-.062-1.233-.189s-.268-.482-.344-1.066c-.649-3.695-2.233-6.643-4.752-8.842-2.52-2.197-5.42-3.297-8.701-3.297-2.782,0-5.287.477-7.514,1.43-2.228.953-3.964,2.209-5.209,3.764-2.276,2.996-3.415,7.355-3.415,13.074,0,5.787,1.119,10.123,3.356,13.006,1.401,1.793,3.283,3.148,5.647,4.064s4.888,1.373,7.573,1.373c2.159,0,3.949-.42,5.37-1.258,1.556-.916,2.334-2.33,2.334-4.242v-6.057h-8.609v-2.801c2.167.117,6.266.176,12.297.176,4.998,0,8.194-.059,9.589-.176v2.801h-4.786v12.023c0,1.109-.277,1.664-.832,1.664-.272,0-1.108-.352-2.508-1.051-1.4-.701-2.517-1.41-3.353-2.131-2.066,2.549-5.779,3.832-11.138,3.852-7.49,0-13.375-1.994-17.655-5.982-4.28-3.986-6.42-9.045-6.42-15.174Z" fill="#472f2f"/>
      <path d="m471.958,442.381c0-6.387,1.984-11.549,5.953-15.492,3.969-3.941,9.319-5.914,16.051-5.914,6.614,0,11.921,1.953,15.919,5.855,3.998,3.904,5.997,9.088,5.997,15.551,0,6.201-1.97,11.236-5.91,15.105s-9.294,5.803-16.065,5.803c-6.693,0-12.023-1.918-15.992-5.758-3.969-3.84-5.953-8.891-5.953-15.15Zm9.134-.904c0,5.656.817,10.021,2.451,13.092,1.148,2.119,2.67,3.686,4.567,4.695,1.896,1.012,3.827,1.516,5.792,1.516,4.377,0,7.743-1.895,10.097-5.686,1.829-3.031,2.743-7.57,2.743-13.617,0-5.502-.837-9.662-2.51-12.48-1.148-1.865-2.651-3.27-4.509-4.213s-3.799-1.414-5.822-1.414c-1.907,0-3.76.432-5.559,1.297-1.8.865-3.273,2.152-4.421,3.863-1.887,2.896-2.831,7.213-2.831,12.947Zm5.457-27.389c0-.953.326-1.818.978-2.598.652-.777,1.435-1.166,2.349-1.166.525,0,1.089.16,1.693.48.603.322,2.198,1.299,4.786,2.934,1.518.953,2.772,1.75,3.765,2.393l-1.021,2.627c-.953-.111-2.267-.303-3.939-.574-1.673-.271-3.366-.537-5.078-.797-2.354-.332-3.531-1.432-3.531-3.299Z" fill="#472f2f"/>
      <path d="m518.507,462.619v-2.803h1.488c1.187,0,2.266-.059,3.239-.174.836-.078,1.332-.189,1.488-.336.155-.146.233-.559.233-1.24v-33.648h-6.449v-2.801h13.278c.525,0,.905.02,1.138.059s.486.17.759.395c.272.223.515.568.729,1.035l14.329,31.635,14.358-31.635c.311-.68.637-1.1.978-1.254.34-.156.89-.234,1.649-.234h13.19v2.801h-6.274v35.398h6.274v2.803c-1.428-.117-4.803-.176-10.127-.176-5.285,0-8.64.059-10.067.176v-2.803h6.274v-35.398h-.058l-16.663,36.771c-.448.953-1.09,1.43-1.926,1.43s-1.469-.496-1.897-1.488l-16.254-35.924h-.059v32.859c0,.682.078,1.094.234,1.24.155.146.671.258,1.546.336,1.07.115,2.13.174,3.181.174h1.488v2.803c-1.634-.117-4.329-.176-8.083-.176-3.813,0-6.479.059-7.996.176Z" fill="#472f2f"/>
      <path d="m335.286,534.338v-2.803h1.255c2.062,0,3.375-.102,3.94-.307.564-.205.943-.561,1.138-1.068l14.825-35.979c.156-.447.292-.758.409-.934.117-.174.326-.324.627-.451.301-.127.734-.189,1.299-.189.447,0,.768.023.963.072.194.049.433.189.715.424.282.232.521.594.715,1.078l15.292,37.354h5.807v2.803c-1.401-.117-4.65-.176-9.747-.176-5.506,0-9.017.059-10.535.176v-2.803h5.69l-3.589-8.754h-16.021l-2.977,7.262c-.156.156-.234.391-.234.703,0,.525,1.771.789,5.312.789v2.803c-1.479-.117-4.105-.176-7.879-.176-.136,0-2.471.059-7.004.176Zm13.979-14.357h13.628l-6.8-16.605-6.829,16.605Z" fill="#472f2f"/>
      <path d="m383.499,534.338v-2.803h6.449v-35.398h-6.449v-2.801h25.71c6.05,0,11.026,1.873,14.927,5.617,3.9,3.746,5.851,8.828,5.851,15.248,0,6.266-1.941,11.188-5.822,14.768-3.881,3.578-8.848,5.369-14.898,5.369h-25.768Zm14.591-2.803h8.726c5.505,0,9.426-1.672,11.761-5.02.953-1.361,1.629-2.957,2.028-4.785.398-1.828.598-4.357.598-7.588,0-5.934-.856-10.154-2.568-12.664-2.471-3.541-6.411-5.322-11.819-5.342h-8.726v35.398Z" fill="#472f2f"/>
      <path d="m451.063,496.137v-2.801c1.4.117,4.552.176,9.455.176,5.544,0,9.065-.059,10.564-.176v2.801h-5.603l12.724,28.629,12.082-27.197c0-.039.029-.107.087-.205.058-.098.097-.186.117-.262.019-.078.029-.156.029-.234,0-.486-1.751-.73-5.253-.73v-2.801c1.556.117,4.163.176,7.821.176.486,0,1.104-.01,1.853-.029s1.625-.049,2.626-.088,1.755-.059,2.262-.059v2.801h-1.109c-1.401,0-2.461.064-3.181.191-.72.125-1.158.268-1.313.422-.156.156-.312.391-.467.701l-15.905,35.924c-.272.641-.588,1.039-.948,1.195-.36.156-.842.234-1.444.234-.759,0-1.28-.107-1.562-.322-.282-.213-.56-.621-.832-1.225l-16.488-37.121h-5.515Z" fill="#472f2f"/>
      <path d="m492.651,534.338v-2.803h1.255c2.062,0,3.375-.102,3.94-.307.564-.205.943-.561,1.138-1.068l14.825-35.979c.156-.447.292-.758.409-.934.117-.174.326-.324.627-.451.301-.127.734-.189,1.299-.189.447,0,.768.023.963.072.194.049.433.189.715.424.282.232.521.594.715,1.078l15.292,37.354h5.807v2.803c-1.401-.117-4.65-.176-9.747-.176-5.506,0-9.017.059-10.535.176v-2.803h5.69l-3.589-8.754h-16.021l-2.977,7.262c-.156.156-.234.391-.234.703,0,.525,1.771.789,5.312.789v2.803c-1.479-.117-4.105-.176-7.879-.176-.136,0-2.471.059-7.004.176Zm13.979-14.357h13.628l-6.8-16.605-6.829,16.605Z" fill="#472f2f"/>
      <path d="m540.426,513.852c0-6.264,2.184-11.357,6.552-15.277,4.367-3.92,10.17-5.881,17.407-5.881,4.426,0,8.364,1.354,11.815,4.057l3.935-3.531c.389-.35.768-.525,1.137-.525.477,0,.773.107.888.322.114.213.172.66.172,1.342v12.84c0,.799-.082,1.279-.244,1.445s-.616.248-1.361.248c-.669,0-1.08-.062-1.233-.189s-.268-.482-.344-1.066c-.649-3.695-2.233-6.643-4.752-8.842-2.52-2.197-5.42-3.297-8.701-3.297-2.782,0-5.287.477-7.514,1.43-2.228.953-3.964,2.209-5.209,3.764-2.276,2.996-3.415,7.355-3.415,13.074,0,5.787,1.119,10.123,3.356,13.006,1.401,1.793,3.283,3.148,5.647,4.064s4.888,1.373,7.573,1.373c2.159,0,3.949-.42,5.37-1.258,1.556-.916,2.334-2.33,2.334-4.242v-6.057h-8.609v-2.801c2.167.117,6.266.176,12.297.176,4.998,0,8.194-.059,9.589-.176v2.801h-4.786v12.023c0,1.109-.277,1.664-.832,1.664-.272,0-1.108-.352-2.508-1.051-1.4-.701-2.517-1.41-3.353-2.131-2.066,2.549-5.779,3.832-11.138,3.852-7.49,0-13.375-1.994-17.655-5.982-4.28-3.986-6.42-9.045-6.42-15.174Z" fill="#472f2f"/>
      <path d="m590.857,514.1c0-6.387,1.984-11.549,5.953-15.492,3.969-3.941,9.319-5.914,16.051-5.914,6.614,0,11.921,1.953,15.919,5.855,3.998,3.904,5.997,9.088,5.997,15.551,0,6.201-1.97,11.236-5.91,15.105s-9.294,5.803-16.065,5.803c-6.693,0-12.023-1.918-15.992-5.758-3.969-3.84-5.953-8.891-5.953-15.15Zm9.134-.904c0,5.656.817,10.021,2.451,13.092,1.148,2.119,2.67,3.686,4.567,4.695,1.896,1.012,3.827,1.516,5.792,1.516,4.377,0,7.743-1.895,10.097-5.686,1.829-3.031,2.743-7.57,2.743-13.617,0-5.502-.837-9.662-2.51-12.48-1.148-1.865-2.651-3.27-4.509-4.213s-3.799-1.414-5.822-1.414c-1.907,0-3.76.432-5.559,1.297-1.8.865-3.273,2.152-4.421,3.863-1.887,2.896-2.831,7.213-2.831,12.947Zm5.457-27.389c0-.953.326-1.818.978-2.598.652-.777,1.435-1.166,2.349-1.166.525,0,1.089.16,1.693.48.603.322,2.198,1.299,4.786,2.934,1.518.953,2.772,1.75,3.765,2.393l-1.021,2.627c-.953-.111-2.267-.303-3.939-.574-1.673-.271-3.366-.537-5.078-.797-2.354-.332-3.531-1.432-3.531-3.299Z" fill="#472f2f"/>
      <path d="m637.407,534.338v-2.803h1.488c1.187,0,2.266-.059,3.239-.174.836-.078,1.332-.189,1.488-.336.155-.146.233-.559.233-1.24v-33.648h-6.449v-2.801h13.278c.525,0,.905.02,1.138.059s.486.17.759.395c.272.223.515.568.729,1.035l14.329,31.635,14.358-31.635c.311-.68.637-1.1.978-1.254.34-.156.89-.234,1.649-.234h13.19v2.801h-6.274v35.398h6.274v2.803c-1.428-.117-4.804-.176-10.127-.176-5.285,0-8.64.059-10.067.176v-2.803h6.274v-35.398h-.058l-16.663,36.771c-.448.953-1.09,1.43-1.926,1.43s-1.469-.496-1.897-1.488l-16.254-35.924h-.059v32.859c0,.682.078,1.094.234,1.24.155.146.671.258,1.546.336,1.07.115,2.13.174,3.181.174h1.488v2.803c-1.634-.117-4.329-.176-8.083-.176-3.813,0-6.479.059-7.996.176Z" fill="#472f2f"/>
    </g>
    <g>
      <path d="m244.729,152.451h-1.093v-2.516h-13.673v2.516h-1.093v-14.482l5.624-.717v1.094c-.639.076-1.166.164-1.581.268-.415.102-.824.262-1.227.479-.403.215-.723.486-.959.812s-.422.756-.559,1.287c-.137.531-.206,1.162-.206,1.891v3.539h6v-1.285c0-1.041-.211-1.711-.632-2.016-.421-.303-1.122-.455-2.101-.455v-1.094h6.558v1.094c-.979,0-1.679.152-2.101.455-.421.305-.632.975-.632,2.016v1.285h6.581v-3.539c0-.697-.051-1.316-.154-1.855s-.273-.994-.512-1.365c-.239-.371-.496-.688-.769-.945-.273-.258-.632-.473-1.076-.643-.444-.172-.869-.295-1.273-.375-.405-.078-.908-.176-1.51-.293v-1.105l6.387,1.08v14.871Z" fill="#472f2f"/>
      <path d="m244.729,134.85h-1.093v-2.516h-13.81v2.516h-1.093c.045-.592.068-2.014.068-4.268,0-2.461-.023-4.027-.068-4.703h1.093v3.143h13.81v-2.402c0-.576-.074-1.102-.222-1.576s-.326-.861-.535-1.162c-.208-.299-.489-.574-.842-.824-.353-.252-.661-.439-.922-.564s-.604-.236-1.024-.336c-.421-.098-.732-.16-.934-.182-.201-.023-.473-.062-.814-.119v-1.156l6.387.771v13.379Z" fill="#472f2f"/>
      <path d="m244.729,118.877h-1.093v-2.652h-13.81v2.652h-1.093c.045-.637.068-2.072.068-4.309s-.023-3.672-.068-4.309h1.093v2.652h13.81v-2.652h1.093c-.045.637-.068,2.074-.068,4.309s.023,3.672.068,4.309Z" fill="#472f2f"/>
      <path d="m244.729,108.586h-1.093v-2.516h-13.673v2.516h-1.093v-14.105l5.624-.717v1.092c-.624.076-1.134.162-1.529.256-.396.096-.805.244-1.227.445s-.75.461-.981.779-.422.742-.571,1.27-.223,1.156-.223,1.885v3.266h6.285v-1.16c0-1.039-.211-1.707-.632-2.004-.421-.297-1.122-.443-2.101-.443v-1.105h6.546v1.105c-.979,0-1.677.146-2.095.443-.417.297-.626.965-.626,2.004v1.16h6.296v-3.141h1.093c-.045.682-.068,2.25-.068,4.701,0,2.254.023,3.678.068,4.27Z" fill="#472f2f"/>
      <path d="m244.729,94.674h-1.093v-.49c0-.805-.04-1.316-.12-1.537-.08-.221-.219-.367-.417-.443l-14.036-5.783c-.174-.061-.296-.115-.364-.16s-.127-.127-.176-.244c-.049-.119-.074-.287-.074-.508,0-.174.01-.299.028-.375.019-.076.074-.17.165-.279.091-.109.232-.203.421-.279l14.573-5.965v-2.266h1.093c-.045.547-.068,1.814-.068,3.803,0,2.148.023,3.518.068,4.109h-1.093v-2.221l-3.416,1.4v6.252l2.833,1.16c.061.061.152.092.274.092.206,0,.309-.691.309-2.072h1.093c-.045.576-.068,1.602-.068,3.074,0,.053.023.963.068,2.732Zm-5.601-5.453v-5.318l-6.478,2.654,6.478,2.664Z" fill="#472f2f"/>
      <path d="m244.729,74.58h-1.093v-.672c0-.479-.023-.953-.068-1.424-.03-.355-.07-.586-.12-.688-.049-.104-.143-.207-.279-.314l-6.182-4.713-7.161,5.18v2.289h-1.093c.045-.547.068-1.807.068-3.779,0-2.18-.023-3.588-.068-4.225h1.093v1.936l4.6-3.336-4.087-3.074c-.015-.014-.057-.045-.125-.09-.068-.047-.11-.076-.125-.092-.175.547-.262,1.26-.262,2.141h-1.093c.045-.562.068-1.742.068-3.541,0-1.428-.023-2.471-.068-3.131h1.093v.684c0,.531.023.979.068,1.344.031.402.066.654.108.756.042.104.146.219.313.348l5.157,3.916,8.163-5.896v-2.289h1.093c-.045.547-.068,1.807-.068,3.779,0,2.18.023,3.584.068,4.213h-1.093v-1.936l-5.624,4.064,5.111,3.848c.016.016.057.047.125.092s.11.076.125.092c.175-.547.262-1.26.262-2.141h1.093c-.045.561-.068,1.742-.068,3.541,0,1.426.023,2.467.068,3.119Z" fill="#472f2f"/>
      <path d="m244.729,54.166h-1.093v-.49c0-.803-.04-1.316-.12-1.535-.08-.221-.219-.369-.417-.445l-14.035-5.783c-.174-.061-.296-.113-.364-.16-.068-.045-.127-.127-.176-.244s-.074-.285-.074-.506c0-.176.01-.301.028-.377.019-.074.074-.168.165-.277.091-.111.232-.203.421-.279l14.573-5.967v-2.266h1.093c-.045.547-.068,1.814-.068,3.803,0,2.148.023,3.518.068,4.111h-1.093v-2.221l-3.416,1.4v6.25s2.833,1.162,2.833,1.162c.061.061.152.09.274.09.206,0,.309-.689.309-2.072h1.093c-.045.578-.068,1.602-.068,3.074,0,.053.023.965.068,2.732Zm-5.601-5.453v-5.316s-6.478,2.652-6.478,2.652l6.478,2.664Z" fill="#472f2f"/>
      <path d="m244.331,33.379h-4.247c-.296,0-.482-.027-.558-.08-.076-.053-.114-.213-.114-.479,0-.121.008-.219.023-.291.016-.07.046-.127.091-.164.046-.039.097-.061.154-.068s.146-.012.268-.012c.807-.045,1.495-.268,2.066-.666s.981-.904,1.233-1.52c.251-.615.422-1.186.513-1.713.092-.527.137-1.064.137-1.611,0-1.086-.279-1.861-.838-2.328-.559-.467-1.188-.701-1.887-.701-.73,0-1.41.312-2.042.936-.235.25-.392.527-.469.834-.077.305-.255,1.014-.536,2.125-.312,1.412-.569,2.379-.771,2.902-.202.523-.565,1.047-1.091,1.572-.89.842-1.929,1.264-3.117,1.264-1.316,0-2.423-.455-3.32-1.361-.897-.908-1.345-2.203-1.345-3.889,0-1.594.417-2.928,1.253-4.004l-1.007-1.104c-.164-.193-.246-.354-.246-.48v-.012c0-.201.042-.324.125-.373.083-.047.258-.072.523-.072h4.27c.281,0,.459.029.535.088.076.059.114.23.114.521,0,.256-.027.412-.08.471-.054.059-.229.111-.526.162-1,.17-1.812.518-2.437,1.047-.625.527-1.04,1.088-1.242,1.68-.202.59-.303,1.227-.303,1.906,0,1.027.251,1.768.752,2.221.502.455,1.062.682,1.68.682.648,0,1.18-.207,1.595-.625.415-.416.687-.873.814-1.367l.707-3.383c.239-1.182.813-2.186,1.725-3.014.912-.828,1.998-1.242,3.259-1.242,1.335,0,2.502.459,3.5,1.375.998.918,1.496,2.297,1.496,4.139,0,1.896-.425,3.402-1.275,4.52l1.061,1.168c.136.166.207.328.214.486,0,.207-.043.336-.131.385-.087.051-.264.076-.529.076Z" fill="#472f2f"/>
      <path d="m272.708,442.637h-1.093v-2.516h-13.81v2.516h-1.093v-10.029c0-2.359.73-4.301,2.191-5.822,1.461-1.523,3.444-2.283,5.949-2.283,2.444,0,4.364.756,5.761,2.271,1.396,1.514,2.095,3.451,2.095,5.811v10.053Zm-1.093-5.691v-3.404c0-2.148-.653-3.678-1.958-4.588-.531-.371-1.153-.635-1.867-.791-.713-.156-1.7-.234-2.96-.234-2.314,0-3.962.334-4.941,1.002-1.381.965-2.076,2.502-2.083,4.611v3.404h13.81Z" fill="#472f2f"/>
      <path d="m259.638,420.619c-.349.334-.78.502-1.292.502s-.943-.172-1.292-.514c-.349-.342-.523-.777-.523-1.309,0-.637.279-1.162.837-1.57.558-.41,1.25-.615,2.078-.615.592,0,1.174.086,1.748.256s1.062.379,1.469.627c.406.246.763.506,1.07.779.308.273.539.514.695.723.155.209.233.361.233.455,0,.096-.042.193-.125.297-.083.102-.18.152-.29.152s-.273-.113-.49-.34c-.216-.229-.461-.48-.734-.758s-.713-.553-1.321-.826c-.607-.273-1.305-.439-2.095-.5.372.418.558.857.558,1.32,0,.547-.175.986-.524,1.32Z" fill="#472f2f"/>
      <path d="m272.708,414.664h-1.093v-2.516h-13.673v2.516h-1.093v-14.48l5.624-.717v1.092c-.639.076-1.166.166-1.581.268-.415.104-.824.262-1.227.479s-.723.488-.959.814-.422.756-.559,1.287c-.137.531-.206,1.16-.206,1.889v3.541h6v-1.287c0-1.039-.211-1.711-.632-2.014-.421-.305-1.122-.457-2.101-.457v-1.092h6.558v1.092c-.979,0-1.679.152-2.101.457-.421.303-.632.975-.632,2.014v1.287h6.581v-3.539c0-.699-.051-1.316-.154-1.855s-.273-.994-.512-1.367c-.239-.371-.496-.686-.769-.943-.273-.258-.632-.473-1.076-.645-.444-.17-.869-.295-1.273-.373s-.908-.178-1.51-.295v-1.104l6.387,1.08v14.869Z" fill="#472f2f"/>
      <path d="m272.708,397.064h-1.093v-2.516h-13.81v2.516h-1.093v-8.857c0-2.133.411-3.824,1.234-5.072.822-1.248,1.848-1.873,3.075-1.873.828,0,1.579.326,2.255.979s1.177,1.623,1.503,2.91c.562-1.504,1.471-2.383,2.726-2.637.03,0,.343-.045.939-.135s.939-.143,1.029-.156c.345-.053.632-.096.861-.131.229-.035.503-.107.822-.219.32-.113.562-.281.725-.504s.246-.496.246-.816c0-.373-.141-.701-.421-.984-.281-.281-.679-.453-1.195-.514-.121-.016-.212-.031-.273-.047-.061-.016-.119-.062-.176-.143s-.085-.195-.085-.348c0-.371.171-.557.512-.557.106,0,.243.016.41.045.167.031.374.105.62.223.247.119.477.271.689.457.212.188.393.463.541.828.148.365.222.785.222,1.256,0,1.457-.206,2.58-.618,3.371-.19.381-.402.686-.634.912-.233.229-.521.389-.864.482-.343.092-1.223.189-2.64.293,0,0-.286.02-.86.061-.574.043-1.054.248-1.438.617-.527.486-.79,1.188-.79,2.104v2.762h6.489v-2.516h1.093c-.045.562-.068,1.93-.068,4.105s.023,3.541.068,4.104Zm-8.425-5.693v-2.697c0-.729-.078-1.352-.233-1.867s-.326-.9-.511-1.156c-.186-.254-.455-.447-.807-.58-.352-.133-.632-.207-.841-.223-.208-.014-.491-.021-.847-.021-.372,0-.67.012-.898.033-.228.023-.508.102-.841.234-.333.133-.593.322-.779.568-.186.248-.352.625-.5,1.133-.147.51-.222,1.119-.222,1.834v2.742h6.478Z" fill="#472f2f"/>
      <path d="m272.708,376.926h-1.093v-.49c0-.805-.04-1.316-.12-1.537-.08-.221-.219-.367-.417-.443l-14.036-5.783c-.174-.061-.296-.115-.364-.16s-.127-.127-.176-.244c-.049-.119-.074-.287-.074-.508,0-.174.01-.299.028-.375.019-.076.074-.17.165-.279.091-.109.232-.203.421-.279l14.573-5.965v-2.266h1.093c-.045.547-.068,1.814-.068,3.803,0,2.148.023,3.518.068,4.109h-1.093v-2.221l-3.416,1.4v6.252l2.833,1.16c.061.061.152.092.274.092.206,0,.309-.691.309-2.072h1.093c-.045.576-.068,1.602-.068,3.074,0,.053.023.963.068,2.732Zm-5.601-5.453v-5.318l-6.478,2.654,6.478,2.664Z" fill="#472f2f"/>
      <path d="m272.708,356.83h-1.093v-.672c0-.479-.023-.951-.068-1.422-.03-.357-.07-.588-.12-.689s-.143-.207-.279-.312l-6.182-4.713-7.161,5.18v2.287h-1.093c.045-.545.068-1.805.068-3.779,0-2.178-.023-3.586-.068-4.223h1.093v1.934l4.6-3.334-4.087-3.074c-.015-.016-.057-.047-.125-.092s-.11-.076-.125-.092c-.175.547-.262,1.262-.262,2.141h-1.093c.045-.561.068-1.74.068-3.539,0-1.428-.023-2.471-.068-3.131h1.093v.682c0,.531.023.98.068,1.344.031.402.066.654.108.758.042.102.146.217.313.348l5.157,3.916,8.163-5.898v-2.287h1.093c-.045.545-.068,1.807-.068,3.779,0,2.178.023,3.582.068,4.213h-1.093v-1.936l-5.624,4.064,5.111,3.848c.016.016.057.045.125.09.068.047.11.076.125.092.175-.547.262-1.26.262-2.141h1.093c-.045.562-.068,1.742-.068,3.541,0,1.428.023,2.467.068,3.119Z" fill="#472f2f"/>
      <path d="m272.708,336.463h-1.093v-2.516h-13.673v2.516h-1.093v-14.482l5.624-.717v1.094c-.639.076-1.166.164-1.581.268-.415.102-.824.262-1.227.479-.403.215-.723.486-.959.812s-.422.756-.559,1.287c-.137.531-.206,1.162-.206,1.891v3.539h6v-1.285c0-1.041-.211-1.711-.632-2.016-.421-.303-1.122-.455-2.101-.455v-1.094h6.558v1.094c-.979,0-1.679.152-2.101.455-.421.305-.632.975-.632,2.016v1.285h6.581v-3.539c0-.697-.051-1.316-.154-1.855s-.273-.994-.512-1.365c-.239-.371-.496-.688-.769-.945-.273-.258-.632-.473-1.076-.643-.444-.172-.869-.295-1.273-.375-.405-.078-.908-.176-1.51-.293v-1.105l6.387,1.08v14.871Z" fill="#472f2f"/>
      <path d="m272.708,318.861h-1.093v-.58c0-.463-.023-.885-.068-1.264-.03-.326-.074-.52-.131-.58-.057-.061-.218-.092-.484-.092h-13.127v2.516h-1.093v-5.338c0-.236.015-.391.045-.467.031-.076.118-.176.262-.297l10.906-9.289h-9.438c-.266,0-.425.031-.478.096s-.099.266-.137.605c-.045.416-.068.824-.068,1.225v.59h-1.093c.045-.637.068-1.686.068-3.148,0-1.492-.023-2.529-.068-3.113h1.093v.578c0,.461.023.881.068,1.258.031.324.074.518.131.578.057.061.218.09.484.09h13.468c.312,0,.514.031.609.092.095.062.142.242.142.541,0,.189-.015.311-.045.363-.03.055-.118.141-.262.264l-13.662,11.617h12.193c.266,0,.427-.031.484-.092.057-.061.101-.262.131-.604.045-.416.068-.83.068-1.24v-.58h1.093c-.045.637-.068,1.688-.068,3.152,0,1.488.023,2.527.068,3.119Z" fill="#472f2f"/>
      <path d="m272.708,298.018h-1.093v-2.652h-13.81v2.652h-1.093c.045-.639.068-2.074.068-4.309s-.023-3.672-.068-4.311h1.093v2.652h13.81v-2.652h1.093c-.045.639-.068,2.074-.068,4.311s.023,3.67.068,4.309Z" fill="#472f2f"/>
      <path d="m272.708,287.725h-1.093v-2.516h-13.81v2.516h-1.093c.045-.592.068-2.014.068-4.268,0-2.461-.023-4.027-.068-4.703h1.093v3.143h13.81v-2.402c0-.576-.074-1.102-.222-1.576s-.326-.861-.535-1.162c-.208-.299-.489-.574-.842-.824-.353-.252-.661-.439-.922-.564s-.604-.236-1.024-.336c-.421-.098-.732-.16-.934-.182-.201-.023-.473-.062-.814-.119v-1.156l6.387.771v13.379Z" fill="#472f2f"/>
      <path d="m257.805,271.615h-1.093c.045-.592.068-1.982.068-4.172s-.023-3.58-.068-4.172h1.093v2.516h9.708c.387,0,.714-.012.98-.035.266-.021.632-.107,1.099-.256.467-.146.849-.354,1.146-.619.296-.266.56-.674.792-1.225.232-.551.348-1.213.348-1.986,0-.668-.082-1.295-.245-1.879-.163-.584-.416-1.121-.757-1.611-.342-.488-.821-.877-1.436-1.166-.615-.289-1.333-.434-2.153-.434h-8.796c-.266,0-.425.033-.479.098-.053.064-.099.266-.137.605-.045.416-.068.824-.068,1.225v.578h-1.093c.045-.637.068-1.682.068-3.137,0-1.492-.023-2.535-.068-3.125h1.093v.588c0,.461.023.877.068,1.248.031.324.074.52.131.584.057.064.218.096.484.096h8.888c1.554,0,2.875.547,3.962,1.643,1.088,1.094,1.631,2.688,1.631,4.779,0,2.314-.533,4.117-1.6,5.406-1.066,1.291-2.415,1.936-4.047,1.936h-9.518v2.516Z" fill="#472f2f"/>
      <path d="m272.708,251.147h-1.093v-2.652h-13.81v2.652h-1.093c.045-.639.068-2.074.068-4.309s-.023-3.672-.068-4.311h1.093v2.652h13.81v-2.652h1.093c-.045.639-.068,2.074-.068,4.311s.023,3.67.068,4.309Z" fill="#472f2f"/>
      <path d="m272.708,240.854h-1.093v-.58c0-.463-.023-.885-.068-1.264-.03-.326-.074-.52-.131-.58-.057-.061-.218-.092-.484-.092h-13.127v2.516h-1.093v-5.338c0-.236.015-.391.045-.467.031-.076.118-.176.262-.297l10.906-9.289h-9.438c-.266,0-.425.031-.478.096s-.099.266-.137.605c-.045.416-.068.824-.068,1.225v.59h-1.093c.045-.637.068-1.686.068-3.148,0-1.492-.023-2.529-.068-3.113h1.093v.578c0,.461.023.881.068,1.258.031.324.074.518.131.578.057.061.218.09.484.09h13.468c.312,0,.514.031.609.092.095.062.142.242.142.541,0,.189-.015.311-.045.363-.03.055-.118.141-.262.264l-13.662,11.617h12.193c.266,0,.427-.031.484-.092.057-.061.101-.262.131-.604.045-.416.068-.83.068-1.24v-.58h1.093c-.045.637-.068,1.688-.068,3.152,0,1.488.023,2.527.068,3.119Z" fill="#472f2f"/>
      <path d="m272.309,219.291h-4.247c-.296,0-.482-.025-.558-.08-.076-.053-.114-.211-.114-.477,0-.123.008-.219.023-.291.016-.072.046-.127.091-.166.046-.037.097-.061.154-.068.057-.006.146-.01.268-.01.807-.047,1.495-.268,2.066-.666s.981-.906,1.233-1.521c.251-.613.422-1.186.513-1.713.092-.527.137-1.064.137-1.611,0-1.084-.279-1.861-.838-2.328-.559-.467-1.188-.699-1.887-.699-.73,0-1.41.311-2.042.934-.235.25-.392.529-.469.834-.077.307-.255,1.014-.536,2.125-.312,1.412-.569,2.381-.771,2.904-.202.523-.565,1.047-1.091,1.57-.89.842-1.929,1.264-3.117,1.264-1.316,0-2.423-.453-3.32-1.361-.897-.906-1.345-2.203-1.345-3.889,0-1.592.417-2.928,1.253-4.002l-1.007-1.105c-.164-.191-.246-.352-.246-.48v-.012c0-.199.042-.324.125-.371.083-.049.258-.072.523-.072h4.27c.281,0,.459.029.535.086.076.059.114.232.114.521,0,.256-.027.414-.08.473-.054.057-.229.111-.526.16-1,.17-1.812.52-2.437,1.047-.625.529-1.04,1.09-1.242,1.68-.202.592-.303,1.227-.303,1.906,0,1.027.251,1.768.752,2.223.502.455,1.062.682,1.68.682.648,0,1.18-.209,1.595-.625.415-.418.687-.873.814-1.369l.707-3.383c.239-1.182.813-2.186,1.725-3.014.912-.826,1.998-1.24,3.259-1.24,1.335,0,2.502.457,3.5,1.375s1.496,2.297,1.496,4.139c0,1.895-.425,3.4-1.275,4.518l1.061,1.17c.136.166.207.328.214.484,0,.209-.043.336-.131.387-.087.049-.264.074-.529.074Z" fill="#472f2f"/>
      <path d="m272.708,196.078h-1.093v-2.516h-13.81v2.516h-1.093v-10.029c0-2.361.73-4.303,2.191-5.824,1.461-1.521,3.444-2.283,5.949-2.283,2.444,0,4.364.758,5.761,2.271s2.095,3.451,2.095,5.812v10.053Zm-1.093-5.693v-3.402c0-2.148-.653-3.678-1.958-4.59-.531-.371-1.153-.635-1.867-.791-.713-.154-1.7-.232-2.96-.232-2.314,0-3.962.334-4.941,1.002-1.381.963-2.076,2.5-2.083,4.611v3.402h13.81Z" fill="#472f2f"/>
      <path d="m254.583,168.732c-1.396-2.209-2.125-3.383-2.186-3.518-.045-.137-.068-.285-.068-.445v-.021c0-.357.15-.664.45-.924.3-.258.64-.387,1.019-.387.122,0,.241.012.359.035.118.021.214.066.29.131.076.064.149.119.22.164.071.047.128.127.173.246.044.117.082.199.111.244s.06.146.089.301c.03.156.048.25.056.279.007.031.026.133.056.309l.022.25c.089.561.234,1.549.434,2.959l-1.024.377Zm18.125,6.807h-1.093v-2.516h-13.673v2.516h-1.093v-14.48l5.624-.717v1.092c-.639.076-1.166.166-1.581.268-.415.104-.824.262-1.227.479s-.723.488-.959.814-.422.756-.559,1.287c-.137.531-.206,1.16-.206,1.889v3.541h6v-1.287c0-1.039-.211-1.711-.632-2.014-.421-.305-1.122-.457-2.101-.457v-1.092h6.558v1.092c-.979,0-1.679.152-2.101.457-.421.303-.632.975-.632,2.014v1.287h6.581v-3.539c0-.699-.051-1.316-.154-1.855s-.273-.994-.512-1.367c-.239-.371-.496-.686-.769-.943-.273-.258-.632-.473-1.076-.645-.444-.17-.869-.295-1.273-.373s-.908-.178-1.51-.295v-1.104l6.387,1.08v14.869Z" fill="#472f2f"/>
      <path d="m272.104,148.434c-.22,0-.421-.061-.603-.184l-13.696-9.334v3.039c0,1.631.366,2.852,1.099,3.66.733.809,1.877,1.258,3.433,1.35v1.092l-5.624-.273v-11.988c0-.203.008-.348.023-.432s.066-.158.153-.223c.087-.064.224-.096.41-.096s.37.064.552.193l13.673,9.301v-3.268c0-.668-.059-1.266-.176-1.793s-.262-.965-.433-1.314c-.171-.35-.412-.656-.723-.922-.311-.266-.6-.469-.865-.609s-.611-.26-1.036-.359c-.425-.098-.781-.164-1.07-.199-.289-.033-.668-.066-1.139-.096v-1.094l6.626.422v12.375c0,.205-.007.352-.023.438-.015.088-.064.162-.148.223s-.228.092-.433.092Z" fill="#472f2f"/>
      <path d="m272.708,132.607h-1.093v-.49c0-.803-.04-1.316-.12-1.535-.08-.221-.219-.369-.417-.445l-14.036-5.783c-.174-.061-.296-.113-.364-.16-.068-.045-.127-.127-.176-.244s-.074-.285-.074-.506c0-.176.01-.301.028-.377.019-.074.074-.168.165-.277.091-.111.232-.203.421-.279l14.573-5.967v-2.266h1.093c-.045.547-.068,1.814-.068,3.803,0,2.148.023,3.518.068,4.111h-1.093v-2.221l-3.416,1.4v6.25l2.833,1.162c.061.061.152.09.274.09.206,0,.309-.689.309-2.072h1.093c-.045.578-.068,1.602-.068,3.074,0,.053.023.965.068,2.732Zm-5.601-5.453v-5.316l-6.478,2.652,6.478,2.664Z" fill="#472f2f"/>
      <path d="m272.309,111.818h-4.247c-.296,0-.482-.025-.558-.08-.076-.053-.114-.211-.114-.477,0-.123.008-.219.023-.291.016-.072.046-.127.091-.166.046-.037.097-.061.154-.068.057-.006.146-.01.268-.01.807-.047,1.495-.268,2.066-.666s.981-.906,1.233-1.521c.251-.613.422-1.186.513-1.713.092-.527.137-1.064.137-1.611,0-1.084-.279-1.861-.838-2.328-.559-.467-1.188-.699-1.887-.699-.73,0-1.41.311-2.042.934-.235.25-.392.529-.469.834-.077.307-.255,1.014-.536,2.125-.312,1.412-.569,2.381-.771,2.904-.202.523-.565,1.047-1.091,1.57-.89.842-1.929,1.264-3.117,1.264-1.316,0-2.423-.453-3.32-1.361-.897-.906-1.345-2.203-1.345-3.889,0-1.592.417-2.928,1.253-4.002l-1.007-1.105c-.164-.191-.246-.352-.246-.48v-.012c0-.199.042-.324.125-.371.083-.049.258-.072.523-.072h4.27c.281,0,.459.029.535.086.076.059.114.232.114.521,0,.256-.027.414-.08.473-.054.057-.229.111-.526.16-1,.17-1.812.52-2.437,1.047-.625.529-1.04,1.09-1.242,1.68-.202.592-.303,1.227-.303,1.906,0,1.027.251,1.768.752,2.223.502.455,1.062.682,1.68.682.648,0,1.18-.209,1.595-.625.415-.418.687-.873.814-1.369l.707-3.383c.239-1.182.813-2.186,1.725-3.014.912-.826,1.998-1.24,3.259-1.24,1.335,0,2.502.457,3.5,1.375s1.496,2.297,1.496,4.139c0,1.895-.425,3.4-1.275,4.518l1.061,1.17c.136.166.207.328.214.484,0,.209-.043.336-.131.387-.087.049-.264.074-.529.074Z" fill="#472f2f"/>
      <path d="m264.812,96.951c-2.491,0-4.505-.775-6.043-2.322-1.538-1.549-2.307-3.637-2.307-6.262,0-2.582.762-4.652,2.284-6.211,1.523-1.561,3.545-2.34,6.066-2.34,2.419,0,4.384.768,5.894,2.305,1.509,1.537,2.264,3.627,2.264,6.268,0,2.611-.749,4.691-2.247,6.24-1.498,1.547-3.468,2.322-5.911,2.322Zm-.353-3.564c2.207,0,3.91-.318,5.108-.955.827-.449,1.437-1.043,1.832-1.783.394-.74.591-1.492.591-2.26,0-1.707-.739-3.02-2.218-3.939-1.183-.713-2.954-1.07-5.312-1.07-2.146,0-3.77.328-4.869.98-.728.447-1.276,1.033-1.644,1.758s-.552,1.482-.552,2.271c0,.744.169,1.467.506,2.17.337.701.84,1.277,1.507,1.725,1.13.736,2.813,1.104,5.051,1.104Z" fill="#472f2f"/>
      <path d="m264.811,76.834c-2.491,0-4.505-.775-6.042-2.322-1.538-1.549-2.307-3.637-2.307-6.262,0-2.582.761-4.652,2.284-6.211,1.523-1.561,3.544-2.34,6.065-2.34.698,0,1.381.078,2.048.232.667.156,1.354.402,2.06.734.706.336,1.354.832,1.946,1.492.591.66,1.065,1.449,1.422,2.367.327-.219.59-.43.792-.631.201-.201.341-.4.421-.598.08-.197.127-.354.143-.467s.023-.266.023-.455c0-1.23-.304-1.891-.911-1.98-.311-.047-.467-.188-.467-.422,0-.281.201-.422.604-.422.607,0,1.222.096,1.844.285.623.189,1.193.541,1.713,1.053s.78,1.133.78,1.861c0,.418-.082.789-.245,1.115-.163.328-.345.588-.546.781s-.531.385-.99.574c-.459.189-.856.33-1.19.422-.334.09-.835.223-1.503.398.137.697.209,1.434.216,2.209,0,2.656-.755,4.75-2.264,6.283-1.51,1.533-3.475,2.301-5.895,2.301Zm-.022-3.428c.637,0,1.197-.023,1.679-.068.482-.045,1.083-.15,1.804-.312.721-.164,1.362-.463,1.924-.9.562-.436,1.005-.988,1.332-1.656-.105.047-.279.068-.521.068-.548,0-1.003-.225-1.364-.678-.362-.451-.542-.98-.542-1.588,0-.479.127-.928.382-1.348.255-.422.497-.727.725-.912.229-.186.529-.404.902-.654-1.017-1.488-3.108-2.23-6.274-2.23-2.207,0-3.867.318-4.982.955-1.63.918-2.449,2.314-2.457,4.189,0,.312.032.631.097.957s.182.693.353,1.098c.171.406.438.807.802,1.201.364.395.812.732,1.342,1.014,1.107.576,2.707.865,4.8.865Zm6.217-3.711c.136,0,.272-.027.408-.08s.274-.197.414-.432c.14-.236.209-.547.209-.934,0-.715-.125-1.352-.374-1.914-1.147.357-1.721.994-1.721,1.914,0,.387.1.725.3,1.012.2.289.455.434.764.434Z" fill="#472f2f"/>
      <path d="m257.805,57.297h-1.093c.045-.592.068-1.982.068-4.172s-.023-3.58-.068-4.172h1.093v2.516h9.708c.387,0,.714-.012.98-.035.266-.021.632-.107,1.099-.256.467-.146.849-.354,1.146-.619.296-.266.56-.674.792-1.225.232-.551.348-1.213.348-1.986,0-.668-.081-1.295-.245-1.879-.163-.584-.416-1.121-.757-1.611-.342-.488-.821-.877-1.436-1.166-.615-.289-1.333-.434-2.153-.434h-8.796c-.266,0-.425.033-.479.098-.053.064-.099.266-.137.605-.045.416-.068.824-.068,1.225v.578h-1.093c.045-.637.068-1.682.068-3.137,0-1.492-.023-2.535-.068-3.125h1.093v.588c0,.461.023.877.068,1.248.031.324.074.52.131.584.057.064.218.096.484.096h8.888c1.554,0,2.875.547,3.962,1.643,1.088,1.094,1.631,2.688,1.631,4.779,0,2.314-.533,4.117-1.6,5.406-1.066,1.291-2.415,1.936-4.047,1.936h-9.518v2.516Z" fill="#472f2f"/>
      <path d="m272.708,36.691h-1.093v-2.516h-13.673v2.516h-1.093v-14.482l5.624-.717v1.094c-.639.076-1.166.164-1.581.268-.415.102-.824.262-1.227.479-.403.215-.723.486-.959.812s-.422.756-.559,1.287c-.137.531-.206,1.162-.206,1.891v3.539h6v-1.285c0-1.041-.211-1.711-.632-2.016-.421-.303-1.122-.455-2.101-.455v-1.094h6.558v1.094c-.979,0-1.679.152-2.101.455-.421.305-.632.975-.632,2.016v1.285h6.581v-3.539c0-.697-.051-1.316-.154-1.855s-.273-.994-.512-1.365c-.239-.371-.496-.688-.769-.945-.273-.258-.632-.473-1.076-.643-.444-.172-.869-.295-1.273-.375-.405-.078-.908-.176-1.51-.293v-1.105l6.387,1.08v14.871Z" fill="#472f2f"/>
    </g>
    <g>
      <g>
        <path d="m123.667,450.341h41.834v41.834c0,11.548-4.682,22-12.254,29.572-7.571,7.571-18.023,12.254-29.58,12.254H40.008c0-11.548,4.682-22.009,12.254-29.58,7.512-7.512,17.862-12.177,29.308-12.245h.272v-.009c-.093,0-.178,0-.272.009-22.977-.144-41.562-18.822-41.562-41.834v-41.825h125.492c0,11.557-4.682,22.009-12.254,29.58-7.571,7.563-18.023,12.245-29.58,12.245Z" fill="#bc8e8e"/>
        <path d="m123.667,536.5H37.508v-2.5c0-11.841,4.612-22.975,12.986-31.348,4.771-4.771,10.446-8.323,16.638-10.493-17.226-6.097-29.624-22.575-29.624-41.818v-44.324h130.493v2.5c0,11.84-4.612,22.973-12.985,31.348-3.242,3.238-6.897,5.913-10.845,7.977h23.831v44.334c0,11.835-4.612,22.965-12.986,31.339-8.375,8.374-19.508,12.986-31.348,12.986Zm-81.081-5h81.081c10.505,0,20.382-4.092,27.813-11.521,7.429-7.43,11.521-17.304,11.521-27.804v-39.334h-39.334v-5c10.502,0,20.38-4.089,27.814-11.513,6.836-6.838,10.847-15.747,11.442-25.312H42.508v39.324c0,21.521,17.479,39.146,38.984,39.333.116-.006.229-.008.35-.008h2.5v5l-2.625.012-.156-.003c-10.389.064-20.171,4.153-27.531,11.513-6.837,6.837-10.848,15.747-11.444,25.312Z" fill="url(#d)"/>
      </g>
      <g>
        <path d="m221.12,408.516c-11.548,0-22,4.682-29.572,12.254-7.571,7.563-12.254,18.023-12.254,29.572v83.659h83.659c11.557,0,22.009-4.682,29.58-12.254,7.563-7.571,12.245-18.023,12.245-29.572v-83.659h-83.659Zm.009,83.65h-.009c0-23.099,18.726-41.825,41.825-41.825h.009c0,23.099-18.726,41.825-41.825,41.825Z" fill="#bc8e8e"/>
        <path d="m262.953,536.5h-86.159v-86.159c0-11.845,4.612-22.976,12.987-31.34,8.373-8.373,19.503-12.984,31.338-12.984h86.159v86.158c0,11.832-4.608,22.961-12.977,31.338-8.375,8.375-19.508,12.987-31.349,12.987Zm-81.159-5h81.159c10.505,0,20.382-4.092,27.812-11.521,7.424-7.433,11.513-17.307,11.513-27.804v-81.158h-81.159c-10.5,0-20.375,4.092-27.804,11.521-7.43,7.422-11.521,17.295-11.521,27.804v81.159Zm39.334-36.834h-2.509v-2.5c0-24.441,19.884-44.325,44.325-44.325h2.5l.008,2.5c0,24.441-19.884,44.325-44.325,44.325Zm39.241-41.742c-19.633,1.276-35.386,17.026-36.666,36.659,19.633-1.276,35.386-17.027,36.666-36.659Z" fill="url(#e)"/>
      </g>
    </g>
    <g>
      <g>
        <polygon points="172.253 81.298 172.871 73.84 168.777 67.574 166.94 60.319 161.034 55.722 156.941 49.457 149.862 47.027 143.956 42.43 136.472 42.43 129.393 40 122.315 42.43 114.831 42.43 108.925 47.027 107.045 47.672 105.165 47.027 99.259 42.43 91.775 42.43 84.697 40 77.618 42.43 70.134 42.43 64.228 47.027 57.149 49.457 53.056 55.722 47.15 60.319 45.313 67.574 41.219 73.84 41.837 81.298 40 88.554 43.006 95.407 43.624 102.866 48.693 108.372 51.7 115.226 58.282 118.788 63.351 124.294 70.733 125.526 77.315 129.088 84.697 127.856 92.079 129.088 98.661 125.526 106.043 124.294 107.045 123.206 108.047 124.294 115.429 125.526 122.011 129.088 129.393 127.856 136.775 129.088 143.358 125.526 150.74 124.294 155.808 118.788 162.391 115.226 165.397 108.372 170.466 102.866 171.084 95.407 174.09 88.554 172.253 81.298" fill="#2c2c2c"/>
        <path d="m136.862,129.609l-7.469-1.246-7.469,1.246-6.66-3.604-7.469-1.247-.751-.815-.75.815-7.469,1.247-6.66,3.604-7.469-1.246-7.469,1.246-6.66-3.604-7.469-1.247-5.129-5.57-6.66-3.604-3.042-6.935-5.128-5.571-.625-7.547-3.042-6.934,1.859-7.341-.625-7.547,4.142-6.339,1.859-7.341,5.976-4.651,4.142-6.339,7.162-2.459,5.975-4.651h7.573l7.162-2.458,7.162,2.458h7.572l5.976,4.651,1.638.562,1.639-.562,5.975-4.651h7.573l7.162-2.458,7.162,2.458h7.572l5.976,4.651,7.162,2.459,4.142,6.339,5.976,4.651,1.859,7.34,4.142,6.34-.625,7.547,1.858,7.341-3.042,6.934-.625,7.547-5.128,5.571-3.042,6.935-6.66,3.604-5.129,5.57-7.469,1.247-6.66,3.604Zm-28.563-5.78l7.368,1.258,6.431,3.479,7.295-1.217,7.295,1.217,6.586-3.533,7.213-1.204,5.083-5.48,6.431-3.481,3.028-6.834,4.952-5.379.644-7.448,2.938-6.696-1.815-7.169.611-7.371-4.066-6.272-1.794-7.089-5.882-4.612-4-6.122-7.061-2.452-5.771-4.492-7.474-.027-6.917-2.374-7.079,2.401h-7.312l-5.916,4.57-2.042.7-2.187-.778-5.771-4.492-7.474-.027-6.917-2.374-7.079,2.401h-7.312l-5.916,4.57-6.916,2.374-4.111,6.243-5.771,4.491-1.861,7.239-3.999,6.122.611,7.371-1.816,7.169,2.978,6.856.604,7.288,5.043,5.517,2.938,6.696,6.561,3.582,4.953,5.38,7.368,1.258,6.431,3.479,7.295-1.217,7.295,1.217,6.586-3.533,7.213-1.204,1.253-1.362,1.254,1.362Z" fill="#fdde59"/>
      </g>
      <path d="m91.427,125.155l-6.73-1.123-6.731,1.123-6.001-3.248-6.73-1.123-4.622-5.021-6.001-3.248-2.741-6.249-4.622-5.021-.563-6.8-2.741-6.249,1.675-6.615-.563-6.801,3.732-5.713,1.676-6.614,5.385-4.192,3.732-5.712,6.454-2.217,5.385-4.19h6.824l6.454-2.216,6.454,2.216h6.824l5.385,4.19,6.454,2.217,3.732,5.712,5.385,4.192,1.676,6.614,3.732,5.713-.564,6.801,1.675,6.615-2.742,6.249-.563,6.8-4.622,5.021-2.741,6.249-6.001,3.248-4.622,5.021-6.73,1.123-6.002,3.248Zm-6.73-2.137l6.557,1.094,5.929-3.178,6.475-1.08,4.576-4.931,5.772-3.125,2.727-6.148,4.446-4.829.582-6.701,2.637-6.012-1.632-6.443.549-6.625-3.656-5.646-1.611-6.363-5.292-4.153-3.59-5.495-6.353-2.21-5.18-4.031-6.727-.027-6.208-2.132-6.371,2.159h-6.564l-5.325,4.109-6.208,2.132-3.702,5.616-5.18,4.032-1.678,6.514-3.59,5.495.549,6.625-1.632,6.443,2.677,6.172.542,6.541,4.536,4.967,2.637,6.011,5.902,3.226,4.446,4.83,6.63,1.134,5.773,3.124,6.557-1.094Z" fill="#fdde59"/>
      <path d="m136.124,125.155l-6.73-1.123-6.731,1.123-6.001-3.248-6.731-1.123-4.622-5.021-6.001-3.248-2.741-6.249-4.622-5.021-.563-6.8-2.741-6.249,1.675-6.615-.563-6.801,3.732-5.713,1.675-6.614,5.385-4.192,3.732-5.712,6.455-2.217,5.385-4.19h6.824l6.455-2.216,6.454,2.216h6.824l5.385,4.19,6.454,2.217,3.732,5.712,5.385,4.192,1.675,6.614,3.732,5.713-.563,6.801,1.675,6.615-2.742,6.249-.563,6.8-4.622,5.021-2.741,6.249-6.001,3.248-4.622,5.021-6.731,1.123-6.001,3.248Zm-25.691-5.301l6.63,1.134,5.773,3.124,6.557-1.094,6.557,1.094,5.929-3.178,6.475-1.08,4.576-4.931,5.772-3.125,2.727-6.148,4.446-4.829.582-6.701,2.637-6.012-1.632-6.443.549-6.625-3.656-5.646-1.611-6.363-5.292-4.153-3.59-5.495-6.353-2.21-5.18-4.031-6.727-.027-6.208-2.132-6.371,2.159h-6.563l-5.325,4.109-6.209,2.132-3.702,5.616-5.18,4.032-1.677,6.514-3.59,5.495.549,6.625-1.632,6.443,2.677,6.172.542,6.541,4.536,4.967,2.637,6.011,5.902,3.226,4.446,4.83Z" fill="#fdde59"/>
    </g>
    <g>
      <path d="m1029.192,522.695l.672-7.703h21.531l.672,7.703h-1.5c-.083-.895-.156-1.582-.219-2.062-.062-.479-.206-1.033-.43-1.664-.224-.629-.508-1.094-.852-1.391s-.825-.551-1.445-.766c-.62-.213-1.378-.32-2.273-.32h-2.422v18.594h4.891v1.5c-1.156-.062-3.547-.094-7.172-.094s-6.016.031-7.172.094v-1.5h4.906v-18.594h-2.469c-.896,0-1.659.113-2.289.336-.63.225-1.114.484-1.453.781s-.614.756-.828,1.375c-.214.621-.359,1.17-.438,1.648-.078.48-.148,1.168-.211,2.062h-1.5Z" fill="#472f2f"/>
      <path d="m1052.772,536.586v-1.5h3.453v-18.766h-3.453v-1.5h19.875l.984,7.719h-1.5c-.104-.877-.227-1.6-.367-2.17-.141-.568-.359-1.129-.656-1.684-.297-.553-.669-.992-1.117-1.314-.448-.324-1.036-.58-1.766-.768-.729-.189-1.594-.283-2.594-.283h-4.859v8.234h1.766c1.427,0,2.349-.289,2.766-.867s.625-1.539.625-2.883h1.5v9h-1.5c0-1.344-.208-2.305-.625-2.883s-1.339-.867-2.766-.867h-1.766v9.031h4.858c.958,0,1.807-.07,2.546-.211s1.364-.375,1.875-.703c.51-.328.942-.68,1.296-1.055.354-.375.648-.867.883-1.477s.406-1.191.514-1.748c.108-.555.242-1.246.403-2.072h1.516l-1.481,8.766h-20.409Z" fill="#472f2f"/>
      <path d="m1075.009,536.586v-1.5h3.453v-18.953h-3.453v-1.5h12.156c2.927,0,5.247.564,6.961,1.693s2.57,2.535,2.57,4.221c0,1.137-.447,2.168-1.343,3.096-.895.926-2.227,1.615-3.994,2.062,2.065.771,3.271,2.02,3.618,3.74,0,.043.062.473.187,1.289.124.818.195,1.289.214,1.412.072.475.132.869.18,1.182.048.314.147.691.302,1.129.153.439.383.771.69.996.307.225.681.336,1.12.336.513,0,.963-.191,1.351-.578.388-.385.623-.932.706-1.641.021-.166.042-.291.063-.375.021-.082.086-.164.195-.242s.269-.117.477-.117c.511,0,.766.234.766.703,0,.146-.021.334-.062.562-.042.23-.144.514-.306.852-.162.34-.371.654-.627.945-.256.293-.635.539-1.137.742s-1.076.305-1.725.305c-1.997,0-3.539-.283-4.625-.848-.522-.262-.939-.551-1.252-.871-.312-.318-.533-.713-.661-1.186-.128-.471-.263-1.678-.402-3.623,0,.002-.028-.393-.085-1.18-.057-.789-.34-1.447-.847-1.973-.666-.725-1.629-1.086-2.887-1.086h-3.791v8.906h3.453v1.5c-.771-.062-2.648-.094-5.633-.094s-4.862.031-5.633.094Zm7.812-11.562h3.703c1,0,1.854-.105,2.562-.318.708-.215,1.237-.447,1.586-.703.349-.254.614-.623.797-1.107.183-.482.284-.867.305-1.154.021-.285.031-.674.031-1.162,0-.51-.016-.92-.047-1.232-.031-.311-.138-.695-.32-1.154-.183-.457-.442-.812-.781-1.068-.339-.254-.856-.482-1.555-.686s-1.536-.305-2.516-.305h-3.766v8.891Z" fill="#472f2f"/>
      <path d="m1100.433,525.75c0-3.418,1.062-6.184,3.188-8.295,2.125-2.109,4.989-3.166,8.594-3.166,3.542,0,6.383,1.045,8.523,3.135s3.211,4.865,3.211,8.326c0,3.32-1.055,6.018-3.164,8.088-2.109,2.072-4.977,3.107-8.602,3.107-3.583,0-6.438-1.027-8.562-3.084-2.125-2.055-3.188-4.76-3.188-8.111Zm4.891-.484c0,3.029.438,5.367,1.312,7.012.614,1.133,1.43,1.971,2.445,2.514,1.016.541,2.05.811,3.102.811,2.344,0,4.146-1.014,5.406-3.045.979-1.623,1.469-4.053,1.469-7.291,0-2.945-.448-5.172-1.344-6.682-.614-1-1.419-1.752-2.414-2.256-.995-.506-2.034-.758-3.117-.758-1.021,0-2.013.232-2.977.695s-1.753,1.152-2.367,2.068c-1.011,1.551-1.516,3.861-1.516,6.932Z" fill="#472f2f"/>
      <path d="m1135.654,536.586v-1.5h3.453v-18.953h-3.453v-1.5h12.156c2.928,0,5.248.564,6.961,1.693,1.714,1.129,2.57,2.535,2.57,4.221,0,1.137-.447,2.168-1.342,3.096-.895.926-2.227,1.615-3.995,2.062,2.065.771,3.272,2.02,3.618,3.74,0,.043.062.473.188,1.289.123.818.195,1.289.213,1.412.072.475.133.869.18,1.182.048.314.148.691.303,1.129.152.439.383.771.689.996s.681.336,1.121.336c.512,0,.963-.191,1.35-.578.388-.385.623-.932.707-1.641.021-.166.041-.291.062-.375.021-.082.086-.164.195-.242s.269-.117.477-.117c.511,0,.766.234.766.703,0,.146-.021.334-.062.562-.041.23-.144.514-.305.852-.162.34-.371.654-.627.945-.257.293-.636.539-1.137.742-.502.203-1.076.305-1.725.305-1.998,0-3.539-.283-4.625-.848-.523-.262-.94-.551-1.253-.871-.312-.318-.532-.713-.661-1.186-.127-.471-.262-1.678-.402-3.623,0,.002-.027-.393-.084-1.18-.058-.789-.34-1.447-.848-1.973-.666-.725-1.629-1.086-2.887-1.086h-3.791v8.906h3.453v1.5c-.771-.062-2.648-.094-5.633-.094s-4.861.031-5.633.094Zm7.812-11.562h3.703c1,0,1.854-.105,2.562-.318.709-.215,1.237-.447,1.586-.703.35-.254.615-.623.797-1.107.183-.482.284-.867.305-1.154.021-.285.031-.674.031-1.162,0-.51-.016-.92-.047-1.232-.031-.311-.138-.695-.32-1.154-.182-.457-.442-.812-.781-1.068-.338-.254-.856-.482-1.555-.686-.697-.203-1.536-.305-2.516-.305h-3.766v8.891Z" fill="#472f2f"/>
      <path d="m1161.078,525.75c0-3.418,1.062-6.184,3.188-8.295,2.125-2.109,4.99-3.166,8.594-3.166,3.542,0,6.383,1.045,8.523,3.135s3.211,4.865,3.211,8.326c0,3.32-1.055,6.018-3.164,8.088-2.109,2.072-4.977,3.107-8.602,3.107-3.583,0-6.438-1.027-8.562-3.084-2.125-2.055-3.188-4.76-3.188-8.111Zm4.891-.484c0,3.029.438,5.367,1.312,7.012.615,1.133,1.43,1.971,2.445,2.514,1.016.541,2.05.811,3.102.811,2.344,0,4.146-1.014,5.406-3.045.979-1.623,1.469-4.053,1.469-7.291,0-2.945-.447-5.172-1.344-6.682-.614-1-1.419-1.752-2.414-2.256-.994-.506-2.033-.758-3.117-.758-1.021,0-2.013.232-2.977.695-.963.463-1.752,1.152-2.367,2.068-1.01,1.551-1.516,3.861-1.516,6.932Z" fill="#472f2f"/>
      <path d="m1184.299,516.133v-1.5c.75.062,2.511.094,5.281.094,3.031,0,4.984-.031,5.859-.094v1.5h-2.719l6.498,9.516,5.986-8.812c.042-.062.12-.188.234-.375-.552-.207-1.364-.316-2.438-.328v-1.5c.792.062,2.198.094,4.219.094.261,0,.594-.004,1-.016.406-.01.875-.025,1.406-.047.531-.02.948-.031,1.25-.031v1.5h-.672c-.552,0-1.109.031-1.672.094-.594.084-.963.203-1.109.359-.041.062-.088.125-.141.188l-7.516,11.047v7.266h3.469v1.5c-.811-.062-2.693-.094-5.648-.094-2.984,0-4.863.031-5.633.094v-1.5h3.453v-7.266l-7.969-11.688h-3.141Z" fill="#472f2f"/>
      <path d="m1221.646,531.492c0-.594.16-1.072.479-1.438.318-.363.626-.588.923-.672.297-.082.569-.125.817-.125.511,0,.995.178,1.453.531.459.352.688.898.688,1.635,0,.635-.197,1.139-.594,1.514-.396.373-.891.58-1.484.623.979,1.318,2.354,1.979,4.125,1.979.531,0,1.006-.062,1.422-.188.417-.125.761-.283,1.031-.475.271-.193.495-.453.672-.781.178-.326.315-.627.414-.896.1-.271.17-.629.211-1.076.042-.447.068-.799.078-1.053.011-.256.016-.607.016-1.055,0-.686-.005-1.209-.016-1.568-.01-.357-.062-.82-.156-1.389-.094-.566-.236-.992-.43-1.279-.192-.285-.477-.545-.852-.779s-.838-.352-1.391-.352c-1.854,0-3.286.598-4.297,1.795-.208.26-.442.385-.703.375-.208,0-.367-.047-.477-.141s-.174-.201-.195-.32c-.021-.121-.031-.295-.031-.523v-9.342c0-.209.006-.361.016-.461.011-.098.05-.189.117-.273.068-.082.175-.125.32-.125.021,0,.156.043.406.125,1.729.594,3.386.891,4.969.891,1.709,0,3.339-.297,4.891-.891.24-.082.401-.125.484-.125.303,0,.453.188.453.562,0,.24-.188.59-.562,1.047-.375.459-.872.943-1.492,1.453-.619.512-1.43.959-2.43,1.344-1,.387-2.047.578-3.141.578-.729,0-1.505-.072-2.328-.219v4.219c1.084-.75,2.459-1.125,4.125-1.125,2.281,0,4.062.631,5.344,1.889,1.281,1.26,1.922,2.846,1.922,4.76,0,1.982-.747,3.611-2.242,4.889-1.494,1.277-3.502,1.916-6.023,1.916-1.918,0-3.486-.551-4.705-1.656-1.217-1.104-1.826-2.369-1.826-3.797Z" fill="#472f2f"/>
      <path d="m1237.82,527.977c-.011-.426-.016-.961-.016-1.602s.005-1.174.016-1.602c.01-.428.07-1.051.18-1.871.109-.818.255-1.518.438-2.098.182-.578.463-1.221.844-1.924.38-.705.833-1.275,1.359-1.715.525-.438,1.208-.805,2.047-1.102.838-.299,1.791-.447,2.859-.447s2.023.154,2.867.463c.844.307,1.525.674,2.047,1.102.521.428.974,1,1.359,1.715.385.715.669,1.355.852,1.924.182.57.325,1.264.43,2.082.104.82.161,1.443.172,1.871.01.428.016.961.016,1.602s-.006,1.18-.016,1.617c-.011.438-.068,1.059-.172,1.859-.104.803-.248,1.484-.43,2.047-.183.562-.467,1.186-.852,1.867-.386.684-.844,1.238-1.375,1.664-.531.428-1.219.787-2.062,1.078s-1.787.438-2.828.438c-1.062,0-2.016-.15-2.859-.453-.844-.301-1.529-.66-2.055-1.078-.526-.416-.979-.971-1.359-1.664-.381-.691-.662-1.314-.844-1.867-.183-.551-.328-1.234-.438-2.047s-.17-1.432-.18-1.859Zm4.078-1.984c0,3.396.099,5.646.297,6.75.188,1.043.617,1.811,1.289,2.305.672.496,1.361.742,2.07.742.427,0,.844-.07,1.25-.211s.838-.48,1.297-1.023c.458-.541.75-1.27.875-2.188.146-1.104.219-3.229.219-6.375,0-4.01-.183-6.41-.547-7.203-.281-.656-.709-1.156-1.281-1.5-.573-.344-1.178-.516-1.812-.516-.386,0-.776.055-1.172.164-.396.109-.839.426-1.328.945-.49.521-.787,1.209-.891,2.062-.178,1.105-.266,3.121-.266,6.047Z" fill="#472f2f"/>
      <path d="m1264.418,536.586v-1.5h3.453v-18.953h-3.453v-1.5c.812.062,2.766.094,5.859.094,3.375,0,5.525-.031,6.453-.094v1.5h-4.312v18.953h3.297c.791,0,1.513-.102,2.164-.305.65-.203,1.182-.447,1.594-.734.411-.285.789-.672,1.133-1.156s.602-.906.773-1.266.325-.828.461-1.406c.135-.578.219-1.004.25-1.281.031-.275.086-.648.162-1.117h1.588l-1.059,8.766h-18.363Z" fill="#472f2f"/>
      <path d="m1284.607,536.586v-1.5h3.453v-18.766h-3.453v-1.5h19.875l.984,7.719h-1.5c-.104-.877-.227-1.6-.367-2.17-.141-.568-.359-1.129-.656-1.684-.297-.553-.67-.992-1.117-1.314-.448-.324-1.037-.58-1.766-.768-.729-.189-1.594-.283-2.594-.283h-4.859v8.234h1.766c1.427,0,2.349-.289,2.766-.867.416-.578.625-1.539.625-2.883h1.5v9h-1.5c0-1.344-.209-2.305-.625-2.883-.417-.578-1.339-.867-2.766-.867h-1.766v9.031h4.858c.958,0,1.807-.07,2.546-.211s1.364-.375,1.875-.703c.51-.328.942-.68,1.297-1.055.354-.375.647-.867.882-1.477s.405-1.191.514-1.748c.108-.555.243-1.246.403-2.072h1.516l-1.481,8.766h-20.409Z" fill="#472f2f"/>
      <path d="m1307.641,536.039v-5.828c0-.406.036-.66.109-.766.072-.104.291-.156.656-.156.166,0,.299.012.398.031.099.021.174.062.227.125.052.064.083.135.094.213.01.078.016.201.016.367.062,1.107.367,2.053.914,2.836s1.242,1.348,2.086,1.691c.844.346,1.627.58,2.352.705.724.125,1.461.188,2.211.188,1.489,0,2.555-.383,3.195-1.15.641-.766.961-1.629.961-2.59,0-1.002-.428-1.936-1.282-2.801-.344-.324-.726-.539-1.145-.645s-1.392-.352-2.917-.736c-1.938-.428-3.266-.781-3.984-1.057-.719-.277-1.438-.775-2.156-1.498-1.156-1.221-1.734-2.646-1.734-4.277,0-1.807.623-3.326,1.867-4.557,1.246-1.23,3.024-1.846,5.338-1.846,2.187,0,4.018.574,5.493,1.721l1.517-1.383c.264-.225.483-.338.659-.338h.017c.274,0,.444.059.511.172.065.115.099.355.099.719v5.859c0,.387-.04.631-.119.734-.08.105-.318.156-.715.156-.353,0-.568-.037-.647-.109-.08-.074-.153-.314-.222-.723-.233-1.371-.713-2.486-1.438-3.344-.725-.859-1.493-1.428-2.305-1.705s-1.684-.416-2.616-.416c-1.409,0-2.427.344-3.05,1.033-.624.688-.936,1.457-.936,2.305,0,.891.286,1.621.858,2.189.572.57,1.198.943,1.877,1.119l4.644.971c1.621.326,3,1.115,4.136,2.367,1.136,1.25,1.704,2.74,1.704,4.473,0,1.832-.629,3.434-1.888,4.803s-3.152,2.053-5.681,2.053c-2.602,0-4.668-.584-6.2-1.75l-1.605,1.455c-.228.188-.45.285-.666.295-.284,0-.461-.061-.529-.18s-.103-.361-.103-.727Z" fill="#472f2f"/>
    </g>
    <g>
      <g>
        <g>
          <path d="m1326,344.917c0,23.105-18.729,41.834-41.825,41.834h-41.834c-11.548,0-22.009-4.682-29.572-12.254-7.571-7.571-12.254-18.023-12.254-29.58s4.682-22.009,12.254-29.572c7.563-7.571,18.023-12.254,29.572-12.254h0c0,23.099,18.726,41.825,41.825,41.825h41.834Z" fill="#f4e4e4"/>
          <path d="m1284.175,389.251h-41.834c-11.845,0-22.975-4.612-31.34-12.987-8.373-8.373-12.985-19.506-12.985-31.347s4.612-22.975,12.987-31.34c8.363-8.373,19.493-12.985,31.338-12.985h2.5v2.5c0,21.684,17.642,39.325,39.325,39.325h44.334v2.5c0,24.446-19.884,44.334-44.325,44.334Zm-44.26-83.586c-9.596.579-18.53,4.593-25.377,11.447-7.431,7.423-11.522,17.297-11.522,27.805s4.092,20.383,11.521,27.812c7.422,7.43,17.296,11.521,27.804,11.521h41.834c20.845,0,37.954-16.305,39.247-36.834h-39.256c-23.577,0-42.914-18.504-44.251-41.752Z" fill="url(#f)"/>
        </g>
        <g>
          <path d="m1326,261.267c0,11.548-4.682,22.009-12.254,29.572-7.571,7.571-18.023,12.254-29.572,12.254h-83.659c0-11.548,4.682-22.009,12.254-29.572,7.563-7.571,18.023-12.254,29.572-12.254h83.659Z" fill="#f4e4e4"/>
          <path d="m1284.175,305.592h-86.159v-2.5c0-11.845,4.612-22.975,12.987-31.34,8.363-8.373,19.493-12.985,31.338-12.985h86.159v2.5c0,11.845-4.612,22.975-12.987,31.341-8.372,8.373-19.502,12.984-31.338,12.984Zm-81.082-5h81.082c10.5,0,20.374-4.092,27.804-11.521,6.838-6.831,10.848-15.738,11.444-25.305h-81.082c-10.508,0-20.382,4.092-27.803,11.521-6.839,6.831-10.849,15.738-11.445,25.305Z" fill="url(#g)"/>
        </g>
      </g>
      <g>
        <g>
          <path d="m1036.828,106.78h66.794v66.794c0,18.438-7.476,35.127-19.565,47.216-12.089,12.089-28.777,19.565-47.229,19.565h-133.574c0-18.438,7.476-35.14,19.565-47.229,11.994-11.994,28.519-19.442,46.795-19.551h.434v-.014c-.149,0-.285,0-.434.014-36.687-.231-66.36-30.053-66.36-66.794V40h200.368c0,18.452-7.476,35.14-19.565,47.229-12.089,12.075-28.777,19.551-47.229,19.551Z" fill="#f4e4e4"/>
          <path d="m1036.828,242.855h-136.074v-2.5c0-18.508,7.208-35.909,20.297-48.997,8.595-8.595,19.064-14.657,30.484-17.801-29.227-8.141-50.781-35.057-50.781-66.776V37.5h205.368v2.5c0,18.507-7.209,35.908-20.298,48.997-6.699,6.692-14.525,11.846-23.049,15.283h43.347v69.294c0,18.498-7.209,35.895-20.298,48.983-13.088,13.089-30.489,20.297-48.996,20.297Zm-131.026-5h131.026c17.172,0,33.316-6.688,45.461-18.832,12.145-12.145,18.833-28.285,18.833-45.448v-64.294h-64.294v-5c17.167,0,33.312-6.684,45.462-18.819,11.552-11.553,18.168-26.728,18.784-42.961h-195.32v64.28c0,35.196,28.601,64.017,63.774,64.293.174-.011.34-.013.52-.013h2.5v5l-2.828.015h-.109c-16.994.101-32.989,6.784-45.024,18.817-11.553,11.553-18.168,26.728-18.784,42.962Z" fill="url(#h)"/>
        </g>
        <g>
          <path d="m1192.426,40c-18.439,0-35.127,7.476-47.216,19.565-12.089,12.075-19.565,28.777-19.565,47.216v133.574h133.574c18.452,0,35.14-7.476,47.229-19.565,12.075-12.089,19.551-28.777,19.551-47.216V40h-133.574Zm.014,133.561h-.014c0-36.882,29.899-66.78,66.78-66.78h.014c0,36.882-29.899,66.78-66.78,66.78Z" fill="#f4e4e4"/>
          <path d="m1259.22,242.855h-136.074V106.78c0-18.514,7.209-35.91,20.298-48.984,13.087-13.088,30.483-20.296,48.982-20.296h136.074v136.074c0,18.493-7.203,35.889-20.282,48.982-13.089,13.09-30.49,20.298-48.998,20.298Zm-131.074-5h131.074c17.172,0,33.317-6.688,45.462-18.832,12.135-12.148,18.818-28.29,18.818-45.448V42.5h-131.074c-17.163,0-33.304,6.688-45.448,18.832-12.145,12.131-18.832,28.271-18.832,45.448v131.074Zm64.294-61.794h-2.514v-2.5c0-38.201,31.079-69.28,69.28-69.28h2.5l.014,2.5c0,38.201-31.079,69.28-69.28,69.28Zm64.23-66.73c-33.433,1.312-60.383,28.262-61.694,61.681,33.426-1.305,60.383-28.257,61.694-61.681Z" fill="url(#i)"/>
        </g>
      </g>
    </g>
    <path d="m503.68,375.293c.085.164.647.09.987.106.355.016.711.005,1.061.005,1.067.547,1.496,1.942,2.802,2.139q1.969-1.045,5.397-1.199c.35-.541.923-1.433,1.289-2.001,2.107,0,3.699-.005,5.29.011.149,0,.292.138.578.281.069.398.016.971.265,1.348.382.578.971,1.019,1.671,1.719.196-1.746,1.963-.923,2.802-1.974.621-.78,1.305-.398,1.799.663.478,1.04.695,2.452,1.507,3.03,1.332.95,2.218-1.104,3.561-1.162.26-.016.504-.467.769-.738,1.518.18,3.343-.647,4.542.43,1.39,1.252,3.126-.064,4.479,1.146,0,1.136.149,2.383-.042,3.577-.212,1.284-1.592,2.282-1.019,3.81.6,1.024,2.043,1.401,2.139,2.834.021.297.329.849.435.833,2.043-.318,2.34,2.664,4.378,2.287.467.706,1.221,1.098,1.592,1.995.86,2.091.982,2.043,1.035,4.893,1.013.515,1.995,1.311,3.072,1.475,1.295.207,2.85.531,3.789-.987h3.81c.34.515.929,1.406,1.406,2.123,1.512,0,2.754-.016,3.99.005,1.576.021,3.147.08,4.723.117.801,1.762,3.088.18,4.065,1.841.313.531,1.157-.005,1.772-.43.929-.642,1.995-1.178,3.078-1.486.817-.233,1.756-.048,2.637-.042.753,1.332,2.075,1.008,3.247,1.125.743,1.624,2.531.594,3.656,1.459,1.311,1.014,2.956,1.045,4.245-.016,1.279-1.051,1.852-.17,2.621.584h6.346c2.563-2.361,3.083-2.568,7.137-3.184.563-.09,1.067-.547,1.603-.833.69,1.502,2.425.292,3.205,1.162.881.982,1.889.69,2.892.759,1.231-.727,1.677-2.022,2.335-3.253,2.17.61,3.9-.562,5.678-1.518,1.788-.96,3.523-1.985,5.71-1.624.86.143,1.794-.111,2.643.069.775.159,1.465.876,2.223.945.552.053,1.157-.562,1.905-.976h3.996c.754.7,1.412,1.847,2.568.578.525-.578,1.236-.907,1.783-.398.7.653,1.38,1.04,2.308.86,1.157-.218,1.55,1.475,2.744,1.067,1.231-.425,1.767.828,2.727,1.114,1.268.377,2.314,1.406,3.826,1.04.663-.159,1.401-.027,2.016-.027.462.393.833.971,1.258,1.014,1.226.133,2.515.255,3.699-.005,1.565-.345,2.329,1.502,3.815,1.12,1.3-.334,2.229.499,3.285,1.035,1.337.679,2.696,1.332,4.33,1.141.547-.069,1.173.531,2.107,1.003h3.285c1.236,0,2.483.106,3.709-.027,1.454-.159,2.298,1.226,3.81,1.205,1.183-.021,2.266,1.454,3.805.801.706-.706,1.486-1.427,2.197-2.218.552-.616.451-1.518,1.056-2.245.552-.658.435-1.873.6-2.77,1.215-.17,2.165.053,3.163-.706.876-.669,2.032-.902,2.123-2.266,1.263-.18,2.101-.982,2.956-1.857.838-.854,1.03-.764,2.547.456.594-.483,1.305-.87,1.465-1.661-.287-.382-.536-.716-.987-1.316,1.581-.085,2.77-.154,3.921-.218.658-.658,1.284-1.284,2.043-2.043,1.019-.048,2.356.324,3.152-1.056,2.075,0,4.187-.027,6.299.011.738.016,1.247-.287,1.873-.637,1.268-.722,2.871-.918,3.821.016,1.146,1.13,2.972-.223,3.704,1.417,1.38.085,2.802.414,4.129.196,2.191-.356,3.778,1.443,5.863,1.385.233,0,.403,1.581.764,1.656,2.298.472,3.173,2.6,4.797,3.826.037,2.69,2.611,2.478,3.895,3.709.414-.414.663-.663.945-.939h6.309c.775-.738,1.528-1.454,2.314-2.202,3.041.377,5.758-.249,7.896-2.674,0-2.107-.005-4.224.016-6.336,0-.127.234-.255.361-.377.478-.111.96-.223,1.656-.382.228-1.629-.255-3.401.334-5.068,2.202.769,3.486-1.502,5.582-1.114,2.054.382,4.229.085,6.697.085.493-.647,1.13-1.48,1.327-1.74,2.775-1.13,1.549,1.146,2.648,1.703.387-.589.971-1.199,1.878-1.024.78,1.629,2.696.509,3.63,1.433.918.913,1.926.568,2.913.711,1.412,1.884,1.236,5.046,4.431,5.513.122.016.329.276.303.382-.398,1.693,1.098,1.369,2.038,1.863.058,1.109.122,2.298.186,3.444.663.669,1.289,1.289,1.963,1.963.058,1.141.122,2.329.175,3.364.775.775,1.401,1.396,2.027,2.016,0,2.839,0,5.667-.005,8.496,2.213,1.47.239,4.028,1.39,5.704.6.133,1.083.239,1.735.382v4.574c.907.515,1.152,1.523,2.234,1.571,1.183.042,1.55,1.3,2.393,1.878.133.096.313.233.435.202,1.316-.292,2.245.499,3.29,1.061,1.12.605,2.314,1.077,3.311,1.534.08,1.311-.239,2.643.287,3.332,1.051,1.369,1.316,3.035,2.197,4.415.356.552,1.168,1.374,1.518,1.268,1.618-.509,2.483,1.268,3.826,1.104,1.565-.191,2.42.796,2.775,1.857.371,1.114-.159,2.515.154,3.667.292,1.093,1.279,1.974,1.024,3.301-.042.207.419.754.557.727,1.703-.377,1.401,1.088,1.863,2.043,1.47.074,3.014.154,4.558.228,1.083,1.725,2.934.515,4.309,1.125.308,1.289,1.056,2.414,1.597,3.577.6,1.279,2.176,2.043,2.377,3.863.96-1.534,2.223-1.433,3.38-1.077.578.18.918,1.051,1.751.891.95-.191.732-.966.865-1.613.042-.218.531-.34.817-.509,1.523-.913,3.582-1.029,4.314-2.712v-3.295c-1.438-.955-1.878-2.494-2.759-3.72-.594-.838-.419-1.756-.255-2.515.297-1.417-1.703-1.852-1.167-3.306.133-.356-.138-1.051-.456-1.348-.764-.738-.494-1.947-1.443-2.632-.61-.446-1.183-.536-1.863-.679-1.242-.26-1.629,1.396-2.749,1.083-.939-.26-1.528-1.284-2.754-1.083-1.014.17-1.937.074-2.839.934-.753.716-1.544-.196-2.16-.891-.318,0-.669.042-1.008-.011-.838-.133-1.841.44-2.499-.334-.812-.955-2.239-.685-3.003-1.825-.674-.992-1.756-1.709-2.409-2.308-.308-1.189.239-2.096-.525-2.865-.329-.329-.685-.913-.616-1.3.297-1.65-.414-3.046-1.151-4.314-.753-1.279-1.146-2.77-2.351-3.831-1.024-.897-.881-1.496.446-3.194-.822-.573-1.687-1.173-2.287-1.592v-9.997c0-.881-.133-1.794.042-2.643.127-.605.812-1.088.976-1.698.218-.796.042-1.587.6-2.43.806-1.226.966-2.934.117-3.821-1.342-1.422-.408-2.117.356-2.993v-5.285c-.287-.281-.738-.52-.754-.785-.101-1.889-.111-3.783-.154-5.678,1.496-.998.409-2.754,1.029-3.799.759-1.284.998-2.473,1.003-3.863,0-.446.345-.907.6-1.327.711-1.162.615-2.107-.207-3.29-.796-1.151-.807-2.722.021-3.847.738-1.008.547-1.921.547-3.391-.594-.398-1.465-.992-2.054-1.396v-13.728c0-.706-.303-1.682.048-2.08,1.618-1.831.647-4.001,1.061-5.959.371-1.735-1.624-2.674-1.136-4.351.074-.26-.133-.647-.313-.913-.191-.281-.499-.483-.764-.727,1.279-.844,1.449-2.139.95-3.248-.334-.748-1.024-1.289-.934-2.276.101-1.035.027-2.085.027-3.279-1.767-1.703-3.545-3.412-5.349-5.158v-2.531c-.621-.409-1.502-.992-1.963-1.3-.377-2.218.563-4.097-1.077-5.476.005-1.502-.711-3.157.96-4.335v-1.019c0-1.061-.186-2.16.042-3.173.287-1.279-1.215-1.672-1.093-2.749.037-.313.255-.6.387-.902.849.218,1.374,1.783,2.563.626.934-2.34-.393-4.134-1.422-6.007-.26.255-.472.578-.769.743-.934.531-1.369.313-1.841-.748-.265-.594-.626-1.146-.955-1.735.435-.44.934-.939,1.465-1.47h2.191c.494-.616,1.072-1.247,1.523-1.958.122-.191-.027-.706-.223-.923-.191-.212-.647-.382-.897-.297-.456.159-.828.541-1.263.78-.982.541-1.714.228-1.825-.78-.053-.525.212-1.337-.042-1.544-1.534-1.231-.945-2.855-.998-4.765.626-.451,1.48-1.067,2.25-1.629-.35-1.088.228-2.064-.7-2.69-.626.621-1.38,1.162-1.847,1.889-.711,1.12-2.112,1.003-2.913,1.878.191,1.767-1.518,2.213-2.33,3.274-.605.796-1.327,1.443-2.515,1.624-.552.085-1.56.854-1.523,1.921.042,1.088-1.072,1.305-1.465,2.038-1.226.09-2.425.34-3.624-.18-.446-.488-.907-.998-1.374-1.512v-6.315c-.695-.292-1.406-.414-1.878-.817-.759-.658-1.348-.918-2.234-.191-.478.398-1.194.504-1.783.785-.515.244-.52,1.725,0,1.756,1.343.096,2.069.886,2.69,1.942-2.08,1.47.021,4.059-1.475,5.651-.403,0-.87.143-1.077-.027-.685-.552-1.268-1.226-1.9-1.847-.966-.96-.807-2.664-2.239-3.332-.271-.127-.483-.493-.61-.791-.451-1.051-.668-2.255-1.321-3.152-.817-1.13-1.969-2.011-2.945-2.966v-2.011c-1.274-2.016-3.662-2.908-4.282-5.317-.08-.308-.812-.7-1.173-.642-1.189.191-1.868-.902-2.765-1.019-1.284-.164-1.65-1.141-2.383-1.794,0-.891-.191-1.831.037-2.648.409-1.433-1.125-2.054-1.114-3.29.011-1.38-1.401-.541-1.99-1.178-.531-.562-1.417-.791-2.192-1.194v-2.069c-.732-.769-1.454-1.528-2.186-2.303v-1.926c-1.12-1.279-2.489-2.308-3.083-3.672-.748-1.725-2.388-2.51-3.279-3.953-.902-1.449-2.674-1.443-3.736-2.59-1.199-1.284-2.531-2.452-3.619-3.492-.244-1.114.313-2.059-.483-2.77-1.422-.456-3.237.605-4.319-1.125-.52.552-1.321.886-1.417,1.762.653.653,1.279,1.279,1.873,1.873-1.231,1.258-2.462,2.521-3.651,3.736h-2.181c-.844-1.093-2.186-1.756-2.924-3.529,1.374-.504,1.422-1.687,1.369-2.919-.048-1.029-.77-.971-1.9-.966-.738.822-1.65,1.889-2.621,2.903-.472.493-.982,1.008-1.576,1.316-1.008.525-2.457.61-3.067,1.39-.69.881-1.093,2.006-1.942,2.897-1.438,1.512-3.157,2.462-5.275,3.242-1.778-1.778-3.624-3.624-5.381-5.381-2.117,0-4.065-.011-6.007.005-1.878.016-3.37-1.836-5.413-1.098-.186.064-.61-.287-.801-.536-.494-.631-.743-.127-1.151.111-1.019.594-1.279.732-1.741.101-.626-.854-1.687-.387-2.239-1.082-.547-.685-1.061-1.396-1.316-1.73-1.894-.223-2.451,1.406-3.911,1.136-.823-.149-1.783.791-2.733.929-1.21.175-2.563-.249-3.683.117-1.401.462-2.77,1.014-4.224,1.305-1.12,1.587-2.011.467-2.94-.249-.276.318-.557.573-.849.759h-.005c-.722.462-1.496.504-2.335.027-.143-.08-.287-.17-.43-.281-.143-1.008.329-2.133-.738-2.919-.218-.159-.318-.589-.334-.902-.069-1.353.265-2.807-1.072-3.799.631-1.725-.881-2.839-1.337-4.235-.244-.743-.876-1.39-.801-2.319.058-.7-.005-1.411.016-2.117.042-1.067,0-2.001-.934-2.839-.361-.324-.122-1.332-.18-2.457-.536-.472-1.263-1.268-2.139-1.825-1.003-.637-.807-1.836-1.481-2.595-1.167-1.316-.844-2.499.329-3.64.191-.186.111-.647.175-1.104-.43-.44-.87-.982-1.401-1.417-.228-.191-.631-.17-1.406-.35-.43.674-1.003,1.56-1.396,2.181h-3.767c-1.82-1.581-3.433-3.582-5.386-5.222-.753.876-1.311,1.3-2.356.769-1.634-.833-1.104-2.399-1.475-3.651-.382-.377-.711-.822-1.141-1.114-1.343-.913-1.889-2.404-2.552-3.73-.43-.86-.271-2.011-.361-3.03-.042-.52.159-1.226-.112-1.528-1.682-1.9-1.65-4.903-4.134-6.161,0-.998-.202-1.937.042-2.738.393-1.263,1.465-2.324,1.035-3.815,1.804-1.311,1.21-3.311.918-4.845-.287-1.523-.95-3.454-2.637-4.059-.876-.308-1.518-.685-2.133-1.274-.488-.478-.902-.976-1.73-.998-.409-.011-.764-.716-1.215-.844-.653-.18-1.401-.011-2.048-.202-.451-.138-.753-.807-1.199-.918-.658-.164-1.385-.042-2.054-.042-.807-.764-1.56-1.486-2.335-2.218h-2.197c-.218-.61-.276-1.385-.695-1.799-.414-.414-1.189-.472-1.794-.685,0-.637.048-1.167-.016-1.687-.074-.663.324-1.412-.318-1.974-1.725-.499-1.73-.499-1.788-1.831-.016-.35,0-.695,0-1.029-2.006-1.242-4.41-1.767-5.938-3.699-3.179-.318-3.179-3.757-5.184-5.28h-7.365c-.403-.371-.78-.722-1.167-1.077-.626,1.889-2.584.483-3.635,1.486-1.438,1.374-3.364.175-4.961.759-1.077.706-1.332,1.921-1.894,2.95-1.141.18-2.494-.212-3.258,1.162h-5.269c-.589-.971-1.746-.934-2.77-1.555v-6.4c-.233-.302-.493-.557-.753-.801-.748-.69-1.459-1.252-1.316-2.372-.886-.769-2.16-.822-2.966-1.852-.971-1.247-2.213-2.282-3.338-3.407-.053-.838-.106-1.672-.154-2.42-.838-.287-1.454-.499-2.16-.738,1.799-1.215,1.04-2.903,1.136-4.383-1.889-1.889-3.683-3.852-5.657-5.62-2.314-2.064-2.754-2.6-2.781-4.606-.016-1.22,0-2.441,0-3.582-1.258-.727-2.839-.722-3.205-2.43-.345-1.64-1.608-2.733-2.993-3.279-1.587-.621-2.271-2.128-3.582-2.892-1.411-.822-3.094-1.157-4.351-2.292-.265-.233-.483-.525-.759-.738-.207-.154-.483-.218-.706-.313-.663.669-1.289,1.289-1.916,1.916-.823-.18-1.756.371-2.473-.34-.573-.886.414-2.165-.791-2.839-.35.021-.817-.096-1.024.085-.923.817-1.677,1.852-2.669,2.563-.117.085-.218.17-.303.271-.626.69-.584,1.666-1.173,2.33-1.512-.212-2.016,1.157-2.934,1.873-.573.451-.769,1.024-.913,1.762-.111.584-.807,1.39-1.353,1.486-2.128.382-2.94,2.319-4.495,3.433h-6.134c-1.358,1.3-2.637,2.515-3.842,3.667v6.431c.525.525,1.024,1.024,1.571,1.571.302,0,.669.08.992-.016,1.502-.419,2.552.801,3.821,1.003,1.571.249.594,1.905,1.634,2.287.149.058.249.244.642.637-.791.658-1.571,1.332-2.377,1.974-.196.149-.483.18-.7.255-.292-.297-.546-.547-.764-.764-1.634.807-1.682,2.393-1.836,3.826-.695.69-1.321,1.316-1.947,1.942q-.048,1.963-.96,3.173c1.051,1.565,3.104,2.335,3.332,4.5,1.098.78,1.65,2.192,3.237,2.452,1.337.218,1.597,2.276,3.375,2.16.472-.032,1.008.897,1.507,1.39,1.491,1.486,2.977,2.977,4.165,4.166.409,1.199-.159,2.144.706,2.839,1.008.807.642,1.995.499,2.94-.17,1.093-.695,2.202-1.316,3.136-.292.435-1.178.467-1.783.679v3.072c-1.364,2.563-4.25,3.03-5.885,4.983-.371-.318-.738-.631-1.098-.939-.303.302-.552.557-.833.833-.966-.562-1.963-1.109-3.163-.891-.971.175-1.687-.228-2.213-.987-.196-.027-.361-.069-.531-.074h-9.562c-.722-.891-1.693-2.08-2.68-3.295-1.666,1.438-1.926,3.555-3.55,4.68-1.258.87-1.618,2.314-2.123,3.614.308.313.563.563.823.823v3.03c-1.661,1.687-3.264,3.317-4.903,4.983h-5.147c-.435.361-.796.658-1.146.955-.318-.318-.573-.568-.854-.849-.754.143-1.125,1.067-2.112.987-.531-.042-1.077.812-1.688.95-.812.186-1.741-.164-2.361.738-.504.727-1.305.297-1.963.35-.881.069-1.762.016-2.595.016-.409-.361-.775-.69-.998-.891-.982.504-1.863.955-2.743,1.412v1.077c-.876.86-1.756,1.725-2.674,2.627h-3.088c-.791.732-1.47,1.82-2.356,2.038-.96.239-1.528.727-2.117,1.327-.706.722-1.624,1.279-1.592,2.558,0,.233-1.125.499-1.916.828v5.317c-.838,1.252-2.255,1.608-2.255,3.168,0,.52-.759,1.3-1.327,1.496-.998.34-1.979.653-2.521,1.571-.249.414-.605.6-.992.722-.563.18-1.189.239-1.629.727-.637.716-1.963.504-2.542,1.496h-3.364c-.684.058-1.459-.069-2.027.218-.584.297-.976,1.061-1.772.833-1.889-.547-3.29.754-4.685,1.48-1.03.536-1.926.573-2.812.642-1.236,1.104-2.319,2.266-3.598,3.152-.918.642-2.229.727-3.11,1.39-1.109.833-1.958,2.011-2.754,2.871h-5.556q-1.656-1.353-2.966-.159c-.26.233-.483.504-.876.913.647,1.21-.037,2.197-.907,3.12.674,1.555-.849,2.494-1.024,3.534,1.215,1.215,2.319,2.319,2.855,2.855.812,2.759-.631,4.028-1.205,5.625h-1.953c-1.571.945-2.324,2.722-3.985,3.295-1.725-.923-3.508-1.555-4.622-3.141-1.56.478-1.39,2.176-2.308,3.099h-2.197c-1.852,2.759-5.343,3.688-7.371,6.346-.069.085-.34.005-.52.011-1.045.016-1.295,1.093-2.022,1.518-.706.414-1.496.7-2.17,1.152-.738.493-1.024,1.231-1.199,2.154-.17.897-2.255.016-1.995,1.725-1.401,1.698-2.515,3.73-4.94,4.229-.446,1.263-3.03.387-2.563,2.558-2.287.674-3.555,2.632-5.179,4.123-.525,1.496.7,2.542.939,3.805.287,1.534.069,3.163.069,4.744-1.698,1.141-.929,2.823-.987,4.319,1.549,1.189.876,2.807.881,4.346-1.39,1.358-2.775,2.717-4.155,4.065v2.738c-.817.812-1.926,1.916-3.279,3.248v2.574c-.807,1.077-2.202,1.555-2.006,3.12.716.716,1.502,1.433,2.197,2.223.637.716,1.597,1.183,1.91,2.436-2.16-.159-2.812,1.767-4.134,2.828v2.728c-.462.95-.854,1.512-1.024,2.139-.435,1.608.87,2.908.944,4.33.074,1.502.918,2.144,1.836,2.982h5.211c1.104,1.783,2.94.631,4.335,1.162.621.626,1.247,1.252,1.836,1.836.876.143,1.841.053,2.505.462,1.427.87,3.157,1.337,3.996,2.871.663,0,1.226.117,1.714-.021,1.555-.435,2.409,1.029,3.725,1.332.801.186,1.756,1.178,1.528,2.457,1.077.515.69,2.282,1.518,2.478,2.292.541,3.125,2.669,4.781,3.73.106,1.104-.143,2.07.695,3.035.568.658.483,1.873.716,2.982.509-.446.876-.769,1.274-1.12.355.706.658,1.459,1.093,2.133.536.833,1.603,1.215,1.629,2.542.016.669,1.316,1.183.96,2.213-.425,1.252,1.279,1.645,1.061,2.743-.239,1.215.377,1.974,1.199,2.706.371.329.663.769.929,1.199,1.486,2.377,3.242,4.505,5.237,5.492,1.178.578,1.868,1.141,2.271,2.452.34,1.098,1.221,2.064,2.749,1.873,1.374-.17,2.186,1.624,3.821,1.109.679-.212,1.146,1.279,2.191.992.907.929,1.99,1.189,3.279,1.088,1.199-.101,2.436.186,3.322-1.045.143-.202.955-.202,1.412.308.308.34.865.451,1.279.716,2.234,1.422,5.02,1.953,6.755,4.181.249-.212.483-.456.759-.621.276-.17.594-.361.902-.366,1.942-.032,3.89-.016,5.805-.016.387.35.753.69,1.12,1.019,1.014-.685,5.089-2.069,6.076-2.08q2.245-.021,5.593,2.123c2.207,0,4.505.064,6.792-.042.594-.027,1.162-.578,1.767-.902.939,1.167,2.112,1.422,3.545.509.541-.345,1.305-.387,1.778-.791,1.072-.918,2.022-1.974,3.035-2.982.371.334.743.669,1.098.992.371-.329.738-.658.95-.844.976.854,1.905,1.666,2.791,2.441v2.176c.525.525,1.024,1.029,1.528,1.528,1.47.228,3.21-.578,4.314,1.098,3.136-.594,5.439,1.406,7.88,2.728,1.205.653,2.892-.164,3.699,1.406Zm343.389,66.41c.945-.828,1.841-.329,2.828-.536.509,1.093.382,1.661-.191,2.186-.616.568-1.109,1.348-2.165.966-.143-.244-.419-.509-.451-.801-.074-.653-.021-1.321-.021-1.815Zm-88.628-198.959h2.091c1.072.923,2.128,1.847,1.465,3.985-.61.43-1.603,1.125-2.733,1.921-.849-.775-3.094-.594-3.518-2.94.573-1.22,1.852-1.91,2.696-2.966Zm-228.07-122.149h-2.542c-.095-.552-.18-1.024-.271-1.544,1.491-.833,2.897-.403,4.643-.281-.823.822-1.311,1.311-1.831,1.825Zm-10.225,67.954c.281-.955,1.518-1.48,1.114-2.712-.334-1.029.738-1.443,1.051-2.197.371-.897.722-1.804,1.077-2.701-.196-.292-.345-.61-.578-.833-.578-.552-.748-1.189-.244-1.799,1.098-1.337,2.69-2.08,4.272-2.34,1.343-.223,2.648-.212,3.794-1.104.191-.149.807.244,1.072.34-.345.732-.897,1.353-.833,1.905.09.764.642,1.47.998,2.202-1.183.971-.732,2.563-1.348,3.651-.817,1.427-1.252,3.216-2.881,3.969-.18,1.284.398,2.558-.398,3.64-.785,1.072-.971,2.462-2.186,3.343-1.252.907-2.25,2.17-3.274,3.2-.865-.011-1.39-.021-1.64-.982-.329-1.263-1.12-2.298-1.114-3.794.005-1.486.748-2.531,1.12-3.789Zm-.478,10.841c.483.271,1.013.775,1.608.865,1.311.196,1.083.96.812,2.16h-3.566c-.35-.435-.78-.96-1.337-1.645.775-.43,1.656-.923,2.483-1.38Z" fill="#472f2f" opacity=".2"/>
    <g>
      <line x1="868.465" y1=".739" x2="868.465" y2="574.739" fill="none" opacity=".2" stroke="#4c4c4c" stroke-miterlimit="10" stroke-width="30"/>
      <line x1="868.465" y1=".739" x2="868.465" y2="574.739" fill="none" stroke="#4c4c4c" stroke-dasharray="0 0 60 50" stroke-miterlimit="10" stroke-width="30"/>
    </g>
    <g>
      <path d="m1139.256,492.107c-1.674,0-3.145-.424-4.414-1.271-1.27-.849-2.26-2.131-2.971-3.85-.711-1.717-1.066-3.877-1.066-6.481,0-1.947.258-3.646.771-5.095.514-1.45,1.205-2.656,2.076-3.619.869-.963,1.848-1.682,2.938-2.158,1.088-.476,2.201-.713,3.34-.713,1.422,0,2.592.196,3.512.59.918.395,1.82.996,2.707,1.806l-1.395,1.444c-1.336-1.27-2.965-1.904-4.891-1.904-.832,0-1.65.162-2.453.484-.805.322-1.529.851-2.174,1.584-.646.732-1.164,1.717-1.551,2.953-.389,1.236-.584,2.773-.584,4.611,0,3.37.553,5.826,1.658,7.369,1.105,1.542,2.713,2.312,4.824,2.312,1.686,0,3.26-.404,4.727-1.214v-7.384h-4.906l-.297-1.953h7.369v10.617c-.984.504-2.029.941-3.135,1.312-1.105.372-2.467.559-4.086.559Z" fill="#701616"/>
      <path d="m1178.311,468.92c2.354,0,4.133.995,5.342,2.986s1.814,4.857,1.814,8.599-.605,6.624-1.814,8.615-2.988,2.987-5.342,2.987c-2.34,0-4.117-.996-5.332-2.987s-1.822-4.862-1.822-8.615.607-6.607,1.822-8.599,2.992-2.986,5.332-2.986Zm0,1.771c-1.455,0-2.623.77-3.502,2.306-.881,1.538-1.322,4.04-1.322,7.508,0,2.626.24,4.71.723,6.253l7.285-14.508c-.766-1.039-1.826-1.559-3.184-1.559Zm4.842,9.813c0-2.822-.268-5.011-.805-6.563l-7.285,14.67c.777,1.139,1.859,1.707,3.248,1.707,1.479,0,2.654-.777,3.529-2.33.875-1.554,1.312-4.048,1.312-7.483Z" fill="#701616"/>
      <path d="m1198.002,468.92c2.354,0,4.133.995,5.342,2.986s1.814,4.857,1.814,8.599-.605,6.624-1.814,8.615-2.988,2.987-5.342,2.987c-2.34,0-4.117-.996-5.332-2.987s-1.822-4.862-1.822-8.615.607-6.607,1.822-8.599,2.992-2.986,5.332-2.986Zm0,1.771c-1.455,0-2.623.77-3.502,2.306-.881,1.538-1.322,4.04-1.322,7.508,0,2.626.24,4.71.723,6.253l7.285-14.508c-.766-1.039-1.826-1.559-3.184-1.559Zm4.842,9.813c0-2.822-.268-5.011-.805-6.563l-7.285,14.67c.777,1.139,1.859,1.707,3.248,1.707,1.479,0,2.654-.777,3.529-2.33.875-1.554,1.312-4.048,1.312-7.483Z" fill="#701616"/>
      <path d="m1217.695,468.92c2.352,0,4.133.995,5.342,2.986s1.812,4.857,1.812,8.599-.604,6.624-1.812,8.615-2.99,2.987-5.342,2.987-4.119-.996-5.334-2.987c-1.213-1.991-1.82-4.862-1.82-8.615s.607-6.607,1.82-8.599c1.215-1.991,2.992-2.986,5.334-2.986Zm0,1.771c-1.455,0-2.623.77-3.504,2.306-.881,1.538-1.32,4.04-1.32,7.508,0,2.626.24,4.71.721,6.253l7.287-14.508c-.766-1.039-1.828-1.559-3.184-1.559Zm4.842,9.813c0-2.822-.27-5.011-.805-6.563l-7.287,14.67c.777,1.139,1.861,1.707,3.25,1.707,1.477,0,2.652-.777,3.527-2.33.875-1.554,1.314-4.048,1.314-7.483Z" fill="#701616"/>
      <path d="m1237.387,468.92c2.354,0,4.133.995,5.342,2.986s1.814,4.857,1.814,8.599-.605,6.624-1.814,8.615-2.988,2.987-5.342,2.987c-2.34,0-4.117-.996-5.332-2.987s-1.822-4.862-1.822-8.615.607-6.607,1.822-8.599,2.992-2.986,5.332-2.986Zm0,1.771c-1.455,0-2.623.77-3.502,2.306-.881,1.538-1.322,4.04-1.322,7.508,0,2.626.24,4.71.723,6.253l7.285-14.508c-.766-1.039-1.826-1.559-3.184-1.559Zm4.842,9.813c0-2.822-.268-5.011-.805-6.563l-7.285,14.67c.777,1.139,1.859,1.707,3.248,1.707,1.479,0,2.654-.777,3.529-2.33.875-1.554,1.312-4.048,1.312-7.483Z" fill="#701616"/>
      <path d="m1257.078,468.92c2.354,0,4.133.995,5.342,2.986s1.814,4.857,1.814,8.599-.605,6.624-1.814,8.615-2.988,2.987-5.342,2.987c-2.34,0-4.117-.996-5.332-2.987s-1.822-4.862-1.822-8.615.607-6.607,1.822-8.599,2.992-2.986,5.332-2.986Zm0,1.771c-1.455,0-2.623.77-3.502,2.306-.881,1.538-1.322,4.04-1.322,7.508,0,2.626.24,4.71.723,6.253l7.285-14.508c-.766-1.039-1.826-1.559-3.184-1.559Zm4.842,9.813c0-2.822-.268-5.011-.805-6.563l-7.285,14.67c.777,1.139,1.859,1.707,3.248,1.707,1.479,0,2.654-.777,3.529-2.33.875-1.554,1.312-4.048,1.312-7.483Z" fill="#701616"/>
      <path d="m1276.77,468.92c2.354,0,4.133.995,5.342,2.986s1.814,4.857,1.814,8.599-.605,6.624-1.814,8.615-2.988,2.987-5.342,2.987c-2.34,0-4.117-.996-5.332-2.987s-1.822-4.862-1.822-8.615.607-6.607,1.822-8.599,2.992-2.986,5.332-2.986Zm0,1.771c-1.455,0-2.623.77-3.502,2.306-.881,1.538-1.322,4.04-1.322,7.508,0,2.626.24,4.71.723,6.253l7.285-14.508c-.766-1.039-1.826-1.559-3.184-1.559Zm4.842,9.813c0-2.822-.268-5.011-.805-6.563l-7.285,14.67c.777,1.139,1.859,1.707,3.248,1.707,1.479,0,2.654-.777,3.529-2.33.875-1.554,1.312-4.048,1.312-7.483Z" fill="#701616"/>
      <path d="m1296.463,468.92c2.352,0,4.133.995,5.342,2.986s1.812,4.857,1.812,8.599-.604,6.624-1.812,8.615-2.99,2.987-5.342,2.987-4.119-.996-5.334-2.987c-1.213-1.991-1.82-4.862-1.82-8.615s.607-6.607,1.82-8.599c1.215-1.991,2.992-2.986,5.334-2.986Zm0,1.771c-1.455,0-2.623.77-3.504,2.306-.881,1.538-1.32,4.04-1.32,7.508,0,2.626.24,4.71.721,6.253l7.287-14.508c-.766-1.039-1.828-1.559-3.184-1.559Zm4.842,9.813c0-2.822-.27-5.011-.805-6.563l-7.287,14.67c.777,1.139,1.861,1.707,3.25,1.707,1.477,0,2.652-.777,3.527-2.33.875-1.554,1.314-4.048,1.314-7.483Z" fill="#701616"/>
      <path d="m1316.154,468.92c2.354,0,4.133.995,5.342,2.986s1.814,4.857,1.814,8.599-.605,6.624-1.814,8.615-2.988,2.987-5.342,2.987c-2.34,0-4.117-.996-5.332-2.987s-1.822-4.862-1.822-8.615.607-6.607,1.822-8.599,2.992-2.986,5.332-2.986Zm0,1.771c-1.455,0-2.623.77-3.502,2.306-.881,1.538-1.322,4.04-1.322,7.508,0,2.626.24,4.71.723,6.253l7.285-14.508c-.766-1.039-1.826-1.559-3.184-1.559Zm4.842,9.813c0-2.822-.268-5.011-.805-6.563l-7.285,14.67c.777,1.139,1.859,1.707,3.248,1.707,1.479,0,2.654-.777,3.529-2.33.875-1.554,1.312-4.048,1.312-7.483Z" fill="#701616"/>
    </g>
  </g>
</svg>