<?xml version="1.0" encoding="UTF-8"?><svg xmlns="http://www.w3.org/2000/svg" viewBox="0 0 1026 304.22" width="1026" height="304.22"><g id="a"/><g id="b"><g id="c"><polygon points="1026 304.22 984.24 304.22 984.24 41.76 960.38 41.76 960.38 304.22 853.01 304.22 853.01 41.76 829.15 41.76 829.15 304.22 721.78 304.22 721.78 41.76 697.92 41.76 697.92 304.22 590.55 304.22 590.55 41.76 566.69 41.76 566.69 304.22 459.31 304.22 459.31 41.76 435.45 41.76 435.45 304.22 328.08 304.22 328.08 41.76 304.22 41.76 304.22 304.22 196.85 304.22 196.85 41.76 172.99 41.76 172.99 304.22 65.62 304.22 65.62 41.76 41.76 41.76 41.76 304.22 0 304.22 0 0 107.37 0 107.37 262.46 131.23 262.46 131.23 0 238.6 0 238.6 262.46 262.47 262.46 262.47 0 369.84 0 369.84 262.46 393.7 262.46 393.7 0 501.07 0 501.07 262.46 524.93 262.46 524.93 0 632.3 0 632.3 262.46 656.16 262.46 656.16 0 763.53 0 763.53 262.46 787.4 262.46 787.4 0 894.77 0 894.77 262.46 918.63 262.46 918.63 0 1026 0 1026 304.22"/></g></g></svg>