<?xml version="1.0" encoding="UTF-8"?><svg xmlns="http://www.w3.org/2000/svg" viewBox="0 0 1012 412.56"><g id="a"/><g id="b"><g id="c"><g><path d="M78.18,412.08v-23.66l-11-32.3h8.49l6.44,22.24h.16l6.44-22.24h8.49l-11,32.3v23.66h-8.02Z"/><path d="M150.41,412.08v-55.96h7.7l10.3,29.63h.16l10.22-29.63h7.78v55.96h-8.02v-34.03h-.16l-7.94,24.05h-4.01l-7.86-24.05h-.16v34.03h-8.02Z"/><path d="M207.78,412.08l12.5-55.96h6.68l12.5,55.96h-8.02l-2.36-12.02h-10.92l-2.36,12.02h-8.02Zm19.8-19.57l-3.93-20.28h-.16l-3.93,20.28h8.02Z"/><path d="M260.35,412.08v-55.96h7.7l12.1,33.71h.16v-33.71h8.02v55.96h-7.54l-12.26-33.64h-.16v33.64h-8.02Z"/><path d="M312.85,412.08v-55.96h23.89v7.54h-15.88v16.43h13.83v7.54h-13.83v16.42h15.88v8.02h-23.89Z"/><path d="M359.22,412.08v-55.96h8.02v47.94h15.88v8.02h-23.89Z"/><path d="M405.59,412.08v-55.96h23.89v7.54h-15.88v16.43h13.83v7.54h-13.83v16.42h15.88v8.02h-23.89Z"/><path d="M451.96,412.08v-55.96h7.7l10.3,29.63h.16l10.22-29.63h7.78v55.96h-8.02v-34.03h-.16l-7.94,24.05h-4.01l-7.86-24.05h-.16v34.03h-8.02Z"/><path d="M544.85,412.08v-55.96h11.87c4.61,0,8.11,1.26,10.49,3.77,2.38,2.51,3.58,6.08,3.58,10.69v26.17c0,5.24-1.27,9.1-3.81,11.59-2.54,2.49-6.2,3.73-10.96,3.73h-11.16Zm8.02-48.41v40.87h3.69c2.25,0,3.85-.56,4.79-1.69,.94-1.13,1.42-2.89,1.42-5.3v-26.96c0-2.2-.45-3.9-1.34-5.11-.89-1.2-2.51-1.81-4.87-1.81h-3.69Z"/><path d="M595.85,412.08v-55.96h8.02v55.96h-8.02Z"/><path d="M625.32,412.08l12.5-55.96h6.68l12.5,55.96h-8.02l-2.36-12.02h-10.92l-2.36,12.02h-8.02Zm19.8-19.57l-3.93-20.28h-.16l-3.93,20.28h8.02Z"/><path d="M678.21,412.08v-55.96h23.89v7.54h-15.88v16.98h13.83v7.54h-13.83v23.89h-8.02Z"/><path d="M717.04,412.08l12.5-55.96h6.68l12.5,55.96h-8.02l-2.36-12.02h-10.92l-2.36,12.02h-8.02Zm19.8-19.57l-3.93-20.28h-.16l-3.93,20.28h8.02Z"/><path d="M767.34,412.08v-7.07l15.09-41.34h-14.3v-7.54h23.03v6.37l-15.4,42.05h15.4v7.54h-23.81Z"/><path d="M809.77,412.08l12.5-55.96h6.68l12.5,55.96h-8.02l-2.36-12.02h-10.92l-2.36,12.02h-8.02Zm19.8-19.57l-3.93-20.28h-.16l-3.93,20.28h8.02Z"/><path d="M888.13,396.13v3.46c0,1.73-.33,3.37-.98,4.91-.66,1.55-1.56,2.92-2.71,4.13-1.15,1.21-2.5,2.16-4.05,2.87-1.55,.71-3.21,1.06-4.99,1.06-1.52,0-3.07-.21-4.64-.63-1.57-.42-2.99-1.15-4.24-2.2-1.26-1.05-2.29-2.4-3.1-4.05s-1.22-3.76-1.22-6.33v-30.81c0-1.83,.31-3.54,.94-5.11,.63-1.57,1.52-2.93,2.67-4.09s2.53-2.06,4.13-2.71c1.6-.65,3.37-.98,5.3-.98,3.77,0,6.84,1.23,9.2,3.69,1.15,1.21,2.06,2.63,2.71,4.28s.98,3.45,.98,5.38v3.14h-8.02v-2.67c0-1.57-.45-2.93-1.34-4.09-.89-1.15-2.1-1.73-3.62-1.73-1.99,0-3.31,.62-3.97,1.85-.66,1.23-.98,2.79-.98,4.68v28.61c0,1.62,.35,2.99,1.06,4.09,.71,1.1,1.98,1.65,3.81,1.65,.52,0,1.09-.09,1.69-.27s1.17-.48,1.69-.9c.47-.42,.86-.99,1.18-1.73,.31-.73,.47-1.65,.47-2.75v-2.75h8.02Z"/><path d="M911.94,412.08v-55.96h8.02v23.97h9.9v-23.97h8.02v55.96h-8.02v-24.91h-9.9v24.91h-8.02Z"/></g><polygon points="1012 289.7 981.46 289.7 981.46 30 946.53 30 946.53 289.7 850.53 289.7 850.53 30 815.6 30 815.6 289.7 719.59 289.7 719.59 30 684.67 30 684.67 289.7 588.66 289.7 588.66 30 553.73 30 553.73 289.7 457.73 289.7 457.73 30 422.8 30 422.8 289.7 326.79 289.7 326.79 30 291.87 30 291.87 289.7 195.86 289.7 195.86 30 160.93 30 160.93 289.7 64.93 289.7 64.93 30 30 30 30 289.7 0 289.7 0 0 94.93 0 94.93 259.7 130.93 259.7 130.93 0 225.86 0 225.86 259.7 261.87 259.7 261.87 0 356.79 0 356.79 259.7 392.8 259.7 392.8 0 487.73 0 487.73 259.7 523.73 259.7 523.73 0 618.66 0 618.66 259.7 654.67 259.7 654.67 0 749.59 0 749.59 259.7 785.6 259.7 785.6 0 880.53 0 880.53 259.7 916.53 259.7 916.53 0 1011.46 0 1011.46 259.7 1012 259.7 1012 289.7"/></g></g></svg>