<?xml version="1.0" encoding="UTF-8"?><svg xmlns="http://www.w3.org/2000/svg" viewBox="0 0 1012 289.7"><g id="a"/><g id="b"><g id="c"><polygon points="1012 289.7 981.46 289.7 981.46 30 946.53 30 946.53 289.7 850.53 289.7 850.53 30 815.6 30 815.6 289.7 719.59 289.7 719.59 30 684.67 30 684.67 289.7 588.66 289.7 588.66 30 553.73 30 553.73 289.7 457.73 289.7 457.73 30 422.8 30 422.8 289.7 326.79 289.7 326.79 30 291.87 30 291.87 289.7 195.86 289.7 195.86 30 160.93 30 160.93 289.7 64.93 289.7 64.93 30 30 30 30 289.7 0 289.7 0 0 94.93 0 94.93 259.7 130.93 259.7 130.93 0 225.86 0 225.86 259.7 261.87 259.7 261.87 0 356.79 0 356.79 259.7 392.8 259.7 392.8 0 487.73 0 487.73 259.7 523.73 259.7 523.73 0 618.66 0 618.66 259.7 654.67 259.7 654.67 0 749.59 0 749.59 259.7 785.6 259.7 785.6 0 880.53 0 880.53 259.7 916.53 259.7 916.53 0 1011.46 0 1011.46 259.7 1012 259.7 1012 289.7"/></g></g></svg>