<svg xmlns="http://www.w3.org/2000/svg" width="1440" height="456" viewBox="0 0 1440 456">
  <g>
    <g>
      <g>
        <path d="M266.86,368.958H229.245V341.242H266.86a9.911,9.911,0,0,0,9.9-9.9v-9.9h-9.9a37.658,37.658,0,0,1-37.615-37.615V236.315a9.911,9.911,0,0,0-9.9-9.9h-9.9v9.9A37.615,37.615,0,1,1,171.832,198.7h9.9v-9.9a37.658,37.658,0,0,1,37.615-37.616H266.86A37.658,37.658,0,0,1,304.475,188.8V293.728h9.9a9.911,9.911,0,0,0,9.9-9.9V141.287a9.911,9.911,0,0,0-9.9-9.9H171.832a9.911,9.911,0,0,0-9.9,9.9A37.658,37.658,0,0,1,124.318,178.9a9.911,9.911,0,0,0-9.9,9.9v95.366a9.939,9.939,0,0,0,9.758,9.9l48.193.689a37.769,37.769,0,0,1,37.077,37.612v36.593H181.731V332.365a9.939,9.939,0,0,0-9.757-9.9l-48.194-.689A37.77,37.77,0,0,1,86.7,284.167V188.8a37.658,37.658,0,0,1,37.615-37.616,9.91,9.91,0,0,0,9.9-9.9,37.658,37.658,0,0,1,37.615-37.615H314.374a37.657,37.657,0,0,1,37.615,37.615V283.829a37.657,37.657,0,0,1-37.615,37.615h-9.9v9.9A37.658,37.658,0,0,1,266.86,368.958ZM209.447,198.7h9.9a37.658,37.658,0,0,1,37.615,37.615v47.514a9.911,9.911,0,0,0,9.9,9.9h9.9V188.8a9.911,9.911,0,0,0-9.9-9.9H219.346a9.911,9.911,0,0,0-9.9,9.9Zm-37.615,27.716a9.9,9.9,0,1,0,9.9,9.9v-9.9Z" fill="#12afa7"/>
        <path d="M227.661.34C101.928.34,0,102.267,0,228s101.927,227.66,227.66,227.66S455.321,353.733,455.321,228,353.394.34,227.661.34Zm0,411.377A183.717,183.717,0,1,1,411.378,228,183.715,183.715,0,0,1,227.661,411.717Z" fill="#12afa7"/>
      </g>
      <path d="M227.661,408.278A180.278,180.278,0,0,1,100.185,100.524,180.278,180.278,0,0,1,355.137,355.476,179.1,179.1,0,0,1,227.661,408.278Zm0-356.986C130.224,51.292,50.953,130.563,50.953,228s79.271,176.708,176.708,176.708S404.369,325.437,404.369,228,325.1,51.292,227.661,51.292Z" fill="#12afa7"/>
      <g>
        <path d="M36.58,261.5l-1.308.168-.387-3.012-16.528,2.124.387,3.012-1.308.168q-.055-1.074-.575-5.12-.567-4.414-.8-5.617l1.308-.168.484,3.761,16.527-2.124-.369-2.875a6.374,6.374,0,0,0-.508-1.853,5.131,5.131,0,0,0-.819-1.308,4.121,4.121,0,0,0-1.136-.858,7.769,7.769,0,0,0-1.19-.532,6.068,6.068,0,0,0-1.278-.245,11.2,11.2,0,0,0-1.145-.075c-.244,0-.575,0-.992-.016l-.178-1.384,7.762-.06Z" fill="#fff"/>
        <path d="M34.04,237.257l-1.319.026-.066-3.2L16,234.427l.066,3.2-1.318.026q.059-1.154-.025-5.2t-.19-5.2l1.319-.027.066,3.2,16.66-.343-.066-3.2,1.319-.027q-.059,1.155.025,5.2T34.04,237.257Z" fill="#fff"/>
        <path d="M15.814,218.35l-1.312-.13q.18-.977.52-4.422.387-3.9.408-4.957l1.313.13-.26,2.625,14-4.633L18.3,200.042a.239.239,0,0,1-.092-.05.483.483,0,0,0-.117-.067.469.469,0,0,0-.108-.025q-.342-.033-.586,2.427l-1.312-.13q.191-1.085.445-3.655.033-.342.072-.87t.081-1.234q.042-.706.077-1.063l1.313.13-.052.52a9.318,9.318,0,0,0-.059,1.5,1.4,1.4,0,0,0,.138.635,1.268,1.268,0,0,0,.306.251L34.5,207.526a1,1,0,0,1,.516.5,1.742,1.742,0,0,1,.043.687,1.29,1.29,0,0,1-.223.717,1.5,1.5,0,0,1-.613.333l-18.154,6Z" fill="#fff"/>
        <path d="M37.414,190.665l-1.288-.288.7-3.124-16.264-3.63-.7,3.124-1.287-.288q.331-1.108,1.213-5.057t1.052-5.092l1.288.287-.7,3.124L37.7,183.352l.7-3.124,1.287.287q-.332,1.108-1.213,5.057T37.414,190.665Z" fill="#fff"/>
        <path d="M41.306,173.582l-1.243-.442.2-.557a7.1,7.1,0,0,0,.484-1.795.849.849,0,0,0-.295-.674L26.825,157.871a2.118,2.118,0,0,1-.35-.329.643.643,0,0,1-.1-.349,1.655,1.655,0,0,1,.121-.606,2.046,2.046,0,0,1,.184-.416.933.933,0,0,1,.3-.25,1.252,1.252,0,0,1,.591-.147l18.98-.9.914-2.577,1.243.442q-.408.9-1.613,4.3-1.3,3.665-1.581,4.7l-1.243-.441.9-2.525-4.449.214-2.523,7.107,2.752,2.464a.455.455,0,0,0,.275.215q.351.124,1.187-2.232l1.243.441q-.426.957-1.318,3.468Q42.3,170.537,41.306,173.582Zm-4.168-8.463,2.147-6.046-8.437.4Z" fill="#fff"/>
        <path d="M51.759,146.159l-1.169-.61,1.4-2.692-14.775-7.706-1.4,2.692-1.169-.61q.569-.912,2.455-4.529,2.06-3.947,2.551-5.069l1.169.61-1.753,3.362,14.775,7.706,1.34-2.57a6.387,6.387,0,0,0,.643-1.811,5.137,5.137,0,0,0,.075-1.541,4.13,4.13,0,0,0-.441-1.353,7.76,7.76,0,0,0-.672-1.118,6.193,6.193,0,0,0-.909-.931,10.933,10.933,0,0,0-.9-.716q-.3-.2-.8-.581l.645-1.237,6.4,4.389Z" fill="#fff"/>
        <path d="M56.009,118.54a9.827,9.827,0,0,1-4.312-6.516,11.6,11.6,0,0,1,8.714-12.27,9.766,9.766,0,0,1,7.6,1.95,9.528,9.528,0,0,1,4.176,6.393,10.327,10.327,0,0,1-2.165,7.744,10.368,10.368,0,0,1-6.578,4.556A9.471,9.471,0,0,1,56.009,118.54Zm2.149-3.749a13.351,13.351,0,0,0,5.689,2.638,5.252,5.252,0,0,0,3.048-.468,5.746,5.746,0,0,0,2.164-1.806,5.284,5.284,0,0,0,.579-5.424,12.657,12.657,0,0,0-4.471-4.773A11.707,11.707,0,0,0,59.7,102.51a5.257,5.257,0,0,0-2.847.577,5.937,5.937,0,0,0-3.155,4.331,5.171,5.171,0,0,0,.273,2.75A11.261,11.261,0,0,0,58.158,114.791Z" fill="#fff"/>
        <path d="M80.831,101.231l-.956-.908,2.089-2.2L70,86.765l-2.089,2.2-.957-.907L78.664,75.712l5.519,4.043-.908.957a16.993,16.993,0,0,0-1.551-1.046,7.47,7.47,0,0,0-1.443-.63,3.035,3.035,0,0,0-1.507-.133,4.819,4.819,0,0,0-1.554.637A8.525,8.525,0,0,0,75.46,81l-2.713,2.861,5.5,5.219.964-1.016q1.3-1.365,1.111-2.279a4.54,4.54,0,0,0-1.469-2.133l.917-.967,5.73,5.437-.917.967a4.493,4.493,0,0,0-2.2-1.351q-.917-.132-2.212,1.234l-.964,1.016,5.511,5.229,2.609-2.751.957.908q-.91.84-3.965,4.059Q81.509,100.4,80.831,101.231Z" fill="#fff"/>
        <path d="M95.951,85.448l-.839-1.018.456-.376a7.085,7.085,0,0,0,1.339-1.291A.848.848,0,0,0,97,82.034L91.612,64.526a2.15,2.15,0,0,1-.131-.461.643.643,0,0,1,.093-.353,1.662,1.662,0,0,1,.415-.457,2.105,2.105,0,0,1,.371-.262.935.935,0,0,1,.387-.06,1.25,1.25,0,0,1,.583.178l16.739,8.99,2.11-1.74.839,1.018q-.816.566-3.593,2.855-3,2.474-3.775,3.218l-.838-1.017,2.066-1.7-3.925-2.105-5.819,4.8,1.093,3.53a.45.45,0,0,0,.125.325q.237.287,2.166-1.3l.839,1.017q-.858.6-2.914,2.3Q98.368,83.349,95.951,85.448Zm.778-9.4,4.951-4.081-7.442-4Z" fill="#fff"/>
        <path d="M119.011,67.279l-.687-1.125,2.59-1.584-8.6-14.077-2.591,1.583-.688-1.125,14.523-8.877,4.278,5.339-1.125.688a16.741,16.741,0,0,0-1.227-1.413,7.482,7.482,0,0,0-1.229-.984,3.044,3.044,0,0,0-1.42-.52,4.823,4.823,0,0,0-1.666.211,8.453,8.453,0,0,0-2.081.957l-3.363,2.056,3.954,6.47,1.2-.731q1.605-.981,1.665-1.911a4.534,4.534,0,0,0-.865-2.442l1.138-.7,4.119,6.74-1.137.7a4.514,4.514,0,0,0-1.775-1.878q-.852-.364-2.457.616l-1.2.731,3.962,6.482,3.235-1.977.688,1.125q-1.1.574-4.884,2.889Q119.883,66.649,119.011,67.279Z" fill="#fff"/>
        <path d="M137.7,55.976l-.545-1.2.538-.244a7.013,7.013,0,0,0,1.63-.9.845.845,0,0,0,.28-.679l-.632-18.307a2.153,2.153,0,0,1-.006-.48.638.638,0,0,1,.181-.316,1.647,1.647,0,0,1,.52-.333,2.093,2.093,0,0,1,.427-.156.938.938,0,0,1,.389.042,1.255,1.255,0,0,1,.516.325l13.814,13.046,2.49-1.128.544,1.2q-.934.333-4.213,1.819-3.541,1.6-4.484,2.121l-.544-1.2,2.44-1.106-3.24-3.056-6.87,3.112.135,3.692a.447.447,0,0,0,.036.347q.153.339,2.431-.693l.544,1.2q-.984.355-3.412,1.456Q140.585,54.579,137.7,55.976Zm3.2-8.872,5.844-2.648-6.141-5.8Z" fill="#fff"/>
        <path d="M165.275,43.845l-1.462-4.911a1.434,1.434,0,0,1-.1-.673q.054-.159.514-.3a1.8,1.8,0,0,1,.344-.073.34.34,0,0,1,.222.049.358.358,0,0,1,.132.154,2.654,2.654,0,0,1,.106.307,4.727,4.727,0,0,0,1.481,2.16,4.1,4.1,0,0,0,2.182.9,10.043,10.043,0,0,0,2.159,0,11.4,11.4,0,0,0,1.91-.4,3.292,3.292,0,0,0,.781-6.234,2.271,2.271,0,0,0-1.126-.255l-2.643.111a28.773,28.773,0,0,1-3.623.109,5.581,5.581,0,0,1-2.192-.72,5.306,5.306,0,0,1-2.535-3.17,5.413,5.413,0,0,1,.431-4.308,6.4,6.4,0,0,1,4.034-2.895,7.645,7.645,0,0,1,5.061.071l.931-1.545a1,1,0,0,1,.471-.449l.014-.005q.347-.1.473.017a1.49,1.49,0,0,1,.264.581l1.47,4.937a1.247,1.247,0,0,1,.083.649c-.041.108-.228.211-.563.311a1,1,0,0,1-.573.07,1.41,1.41,0,0,1-.368-.553,6.028,6.028,0,0,0-2.05-2.458,4.7,4.7,0,0,0-2.37-.857,7.043,7.043,0,0,0-2.309.3,3.467,3.467,0,0,0-2.311,1.635,2.947,2.947,0,0,0-.21,2.178,2.6,2.6,0,0,0,1.273,1.629,3.606,3.606,0,0,0,1.862.471l4.157-.346a6.546,6.546,0,0,1,4.078.957,5.656,5.656,0,0,1,2.559,3.341,6.046,6.046,0,0,1-.387,4.521,6.457,6.457,0,0,1-4.271,3.156,8.787,8.787,0,0,1-5.664.08l-.988,1.63a1.011,1.011,0,0,1-.487.415q-.36.106-.492-.019A1.5,1.5,0,0,1,165.275,43.845Z" fill="#fff"/>
        <path d="M186.761,38.2l-.2-1.3,3-.458L187.05,19.968l-3,.457-.2-1.3q1.071-.081,4.989-.678T193.8,17.6l.2,1.3-3,.457,1.1,7.212,8.922-1.362L199.924,18l-3,.458-.2-1.3q1.071-.079,4.99-.678t4.964-.841l.2,1.3-3,.458,2.514,16.473,3-.458.2,1.3q-1.073.079-4.989.678t-4.965.841l-.2-1.3,3-.458-1.214-7.958L192.3,27.879l1.215,7.958,3-.457.2,1.3q-1.072.08-4.99.677T186.761,38.2Z" fill="#fff"/>
        <path d="M216.714,34.052l.021-1.319.591.01a7.018,7.018,0,0,0,1.857-.115.848.848,0,0,0,.544-.494l7.252-16.821a2.213,2.213,0,0,1,.2-.437.649.649,0,0,1,.3-.208,1.633,1.633,0,0,1,.613-.079,2.094,2.094,0,0,1,.452.041.95.95,0,0,1,.334.205,1.251,1.251,0,0,1,.328.514l6.913,17.7,2.733.045-.021,1.319q-.989-.1-4.587-.157-3.888-.065-4.96,0l.022-1.319,2.678.043-1.623-4.147-7.541-.123L221.362,32.1a.449.449,0,0,0-.115.329q-.006.372,2.494.413l-.022,1.319q-1.042-.1-3.707-.143Q219.916,34.021,216.714,34.052ZM223.4,27.4l6.414.1-3.073-7.867Z" fill="#fff"/>
        <path d="M246.925,34.561l.689-5.078a1.428,1.428,0,0,1,.186-.654q.114-.123.59-.058a1.8,1.8,0,0,1,.344.074.348.348,0,0,1,.183.136.371.371,0,0,1,.056.2,2.625,2.625,0,0,1-.03.322,4.737,4.737,0,0,0,.461,2.578,4.1,4.1,0,0,0,1.617,1.721,10.026,10.026,0,0,0,1.966.892,11.277,11.277,0,0,0,1.9.425,3.291,3.291,0,0,0,3.277-5.359,2.268,2.268,0,0,0-.921-.7l-2.454-.987a28.51,28.51,0,0,1-3.346-1.392,5.585,5.585,0,0,1-1.7-1.559,5.3,5.3,0,0,1-1-3.932,5.414,5.414,0,0,1,2.166-3.749,6.391,6.391,0,0,1,4.868-.977,7.634,7.634,0,0,1,4.583,2.148l1.484-1.025a1,1,0,0,1,.615-.216l.014,0q.358.048.425.21a1.493,1.493,0,0,1,0,.638l-.693,5.105a1.237,1.237,0,0,1-.191.625c-.082.082-.3.1-.641.052a1.006,1.006,0,0,1-.551-.172,1.4,1.4,0,0,1-.108-.656,6.028,6.028,0,0,0-.857-3.084,4.7,4.7,0,0,0-1.806-1.757,7.076,7.076,0,0,0-2.23-.672,3.466,3.466,0,0,0-2.779.539,2.947,2.947,0,0,0-1.088,1.9,2.6,2.6,0,0,0,.489,2.008,3.613,3.613,0,0,0,1.5,1.2l3.931,1.4A6.555,6.555,0,0,1,261.2,27.25a5.654,5.654,0,0,1,.956,4.1,6.046,6.046,0,0,1-2.213,3.961,6.456,6.456,0,0,1-5.191,1.117,8.78,8.78,0,0,1-5.2-2.258l-1.571,1.079a1.01,1.01,0,0,1-.615.177c-.247-.033-.394-.107-.44-.219A1.489,1.489,0,0,1,246.925,34.561Z" fill="#fff"/>
        <path d="M284.355,42.311l.458-1.237,2.847,1.054L293.447,26.5,290.6,25.447l.458-1.237,11.35,4.2a9.731,9.731,0,0,1,5.671,4.92,9.485,9.485,0,0,1,.09,7.688,8.983,8.983,0,0,1-4.984,5.567,9.937,9.937,0,0,1-7.454-.065Zm6.9,1.148,3.851,1.427q3.646,1.35,6.013-.294a6.179,6.179,0,0,0,1.678-1.781,17.709,17.709,0,0,0,1.5-3.251q1.455-3.93.937-6.012-.768-2.949-4.345-4.289l-3.851-1.426Z" fill="#fff"/>
        <path d="M311.88,53.364l.606-1.171,2.843,1.469,7.65-14.8-2.843-1.469.6-1.172q.987.6,4.582,2.461t4.657,2.313l-.605,1.172-2.844-1.47L318.881,55.5l2.844,1.469-.606,1.172q-.987-.6-4.581-2.461T311.88,53.364Z" fill="#fff"/>
        <path d="M327.36,61.542l.734-1.1,2.523,1.688,9.175-13.713-2.524-1.688.733-1.1,14.524,9.717-3.054,6.121-1.1-.733a16.385,16.385,0,0,0,.792-1.765,6.4,6.4,0,0,0,.344-1.551,3.36,3.36,0,0,0-.174-1.508,4.6,4.6,0,0,0-.915-1.424,9.206,9.206,0,0,0-1.757-1.474l-3.551-2.376-4.026,6.017,1.29.863q1.565,1.047,2.445.719a4.442,4.442,0,0,0,1.866-1.8l1.1.733-4.4,6.577-1.1-.733a4.459,4.459,0,0,0,.952-2.413q-.033-.939-1.6-1.985l-1.29-.864-4.416,6.6,3.551,2.375a12.046,12.046,0,0,0,1.964,1.091,4.612,4.612,0,0,0,1.713.4,6.109,6.109,0,0,0,1.463-.138A3.924,3.924,0,0,0,344,67.441a9.253,9.253,0,0,0,1.23-1.026l1.308-1.317,1.107.741-5.368,5.681Z" fill="#fff"/>
        <path d="M361.959,87.083a1.286,1.286,0,0,1,.677-.347l19.713-3.38L379.8,80.718a6.4,6.4,0,0,0-4.023-2.256,5.817,5.817,0,0,0-4.11,1.707l-.916-.948,5.11-4.478,10.051,10.4a3.344,3.344,0,0,1,.342.395.429.429,0,0,1,.053.321.832.832,0,0,1-.274.428,1.15,1.15,0,0,1-.642.3l-19.664,3.39,2.739,2.836a10.017,10.017,0,0,0,1.656,1.408A7.243,7.243,0,0,0,371.6,95a3.464,3.464,0,0,0,1.4.194,5.86,5.86,0,0,0,1.262-.2,5.258,5.258,0,0,0,1.2-.557,12.114,12.114,0,0,0,1.1-.725q.417-.318,1.069-.87l.916.948-6.1,5.19L362.066,88.241a3.557,3.557,0,0,1-.348-.4.414.414,0,0,1-.057-.317A.919.919,0,0,1,361.959,87.083Z" fill="#fff"/>
        <path d="M377.913,105.139l1.066-.776.348.477a7.083,7.083,0,0,0,1.208,1.415.851.851,0,0,0,.722.137l17.8-4.325a2.107,2.107,0,0,1,.468-.1.639.639,0,0,1,.346.113,1.663,1.663,0,0,1,.432.442,2.1,2.1,0,0,1,.239.387.933.933,0,0,1,.037.389,1.252,1.252,0,0,1-.213.571l-9.98,16.169,1.609,2.21-1.067.776q-.514-.847-2.633-3.758-2.287-3.144-2.985-3.961l1.066-.777,1.576,2.166,2.338-3.791-4.438-6.1-3.589.879a.452.452,0,0,0-.332.106q-.3.219,1.171,2.24l-1.067.777q-.548-.894-2.116-3.048Q379.863,107.678,377.913,105.139Zm9.337,1.342,3.776,5.187,4.436-7.188Z" fill="#fff"/>
        <path d="M394.75,129.2l1.171-.606.271.525a7.1,7.1,0,0,0,.981,1.58.846.846,0,0,0,.694.244l18.231-1.622a2.13,2.13,0,0,1,.479-.032.646.646,0,0,1,.326.167,1.668,1.668,0,0,1,.362.5,2.131,2.131,0,0,1,.177.417.937.937,0,0,1-.023.389,1.249,1.249,0,0,1-.3.531l-12.307,14.476,1.257,2.428-1.171.606q-.382-.916-2.036-4.112-1.788-3.453-2.354-4.366l1.172-.607,1.2,2.327,2.9-3.362-3.434-6.634-3.68.327a.449.449,0,0,0-.344.055q-.332.169.813,2.38l-1.171.606q-.407-.965-1.632-3.332Q396.294,132,394.75,129.2Zm9.03,2.742,2.925,5.65,5.476-6.426Zm12.9-6.91a2.2,2.2,0,0,1,2.761-1.444,2.054,2.054,0,0,1,1.245,1.035,2.129,2.129,0,0,1,.158,1.644,2.1,2.1,0,0,1-1.106,1.291,2.192,2.192,0,0,1-1.637.159,1.991,1.991,0,0,1-1.294-1.055A2.088,2.088,0,0,1,416.683,125.027Zm3.942,4.233a2.181,2.181,0,0,1,1.631-.14,2,2,0,0,1,1.3,1.042,2.189,2.189,0,0,1-.958,2.917,2.127,2.127,0,0,1-1.664.15,2.041,2.041,0,0,1-1.267-1.046,2.143,2.143,0,0,1,.954-2.923Z" fill="#fff"/>
        <path d="M416.79,152.187a9.214,9.214,0,0,1,7.8.606,11.81,11.81,0,0,1,5.257,6.869,8.771,8.771,0,0,1-.018,5.88l2.169,1.22a.816.816,0,0,1,.407.426c.072.213.069.362-.009.445a1.567,1.567,0,0,1-.572.28l-5.723,1.945a1.172,1.172,0,0,1-.681.11q-.147-.071-.317-.569a1.121,1.121,0,0,1-.1-.578c.033-.088.174-.192.423-.315a6.908,6.908,0,0,0,3.221-3.457,6.044,6.044,0,0,0,.152-4.378,8.9,8.9,0,0,0-1.775-3.132,6.162,6.162,0,0,0-2.467-1.752,10.046,10.046,0,0,0-6.345.458q-3.869,1.316-5.289,3.466a6.064,6.064,0,0,0-.955,3.132,9.778,9.778,0,0,0,.534,3.584,4.917,4.917,0,0,0,1.374,2.2,2.158,2.158,0,0,0,2.245.4l2.7-.917-1.3-3.837,1.248-.424q.414,1.476,1.784,5.507,1.137,3.342,1.531,4.248l-1.249.425-.725-2.133-5.358,1.82q-.743.252-.868-.118a4.8,4.8,0,0,1,.089-1.277,7.755,7.755,0,0,1,.441-1.818q-2.174-.8-3.4-4.38-1.7-5.008-.007-8.776A9.339,9.339,0,0,1,416.79,152.187Z" fill="#fff"/>
        <path d="M426.133,182.584a9.827,9.827,0,0,1,7.666,1.506,11.6,11.6,0,0,1,2.619,14.82,9.768,9.768,0,0,1-6.725,4.041,9.525,9.525,0,0,1-7.484-1.516,11.822,11.822,0,0,1-2.619-14.862A9.474,9.474,0,0,1,426.133,182.584Zm1.16,4.163a13.35,13.35,0,0,0-5.873,2.2,5.25,5.25,0,0,0-1.807,2.5,5.742,5.742,0,0,0-.234,2.809,5.287,5.287,0,0,0,3.455,4.222,12.658,12.658,0,0,0,6.538.168,11.714,11.714,0,0,0,5.584-2.175,5.267,5.267,0,0,0,1.588-2.432,5.943,5.943,0,0,0-.868-5.287,5.173,5.173,0,0,0-2.15-1.738A11.273,11.273,0,0,0,427.293,186.747Z" fill="#fff"/>
        <path d="M421.482,213.151l5.121-.2a1.438,1.438,0,0,1,.676.069c.094.061.147.251.159.572a1.744,1.744,0,0,1-.014.351.343.343,0,0,1-.1.2.36.36,0,0,1-.182.09,2.793,2.793,0,0,1-.324.026,4.72,4.72,0,0,0-2.459.9,4.094,4.094,0,0,0-1.415,1.89,10.024,10.024,0,0,0-.539,2.091,11.363,11.363,0,0,0-.09,1.948,3.292,3.292,0,0,0,5.846,2.3,2.285,2.285,0,0,0,.527-1.028q.117-.558.546-2.588a28.6,28.6,0,0,1,.793-3.536,5.572,5.572,0,0,1,1.242-1.946,5.3,5.3,0,0,1,3.7-1.67,5.415,5.415,0,0,1,4.068,1.485,6.4,6.4,0,0,1,1.8,4.626,7.637,7.637,0,0,1-1.323,4.885l1.265,1.285a1,1,0,0,1,.32.568v.014q.013.361-.134.455a1.471,1.471,0,0,1-.628.111l-5.148.2a1.239,1.239,0,0,1-.649-.079c-.095-.067-.148-.274-.162-.623a1,1,0,0,1,.075-.573,1.4,1.4,0,0,1,.627-.219,6.03,6.03,0,0,0,2.889-1.377,4.708,4.708,0,0,0,1.418-2.083,7.059,7.059,0,0,0,.276-2.313,3.465,3.465,0,0,0-1.011-2.644,2.95,2.95,0,0,0-2.058-.743,2.6,2.6,0,0,0-1.894.829,3.615,3.615,0,0,0-.918,1.688l-.694,4.112a6.549,6.549,0,0,1-1.938,3.714,5.65,5.65,0,0,1-3.872,1.65A6.035,6.035,0,0,1,423,226.1a6.454,6.454,0,0,1-2-4.92,8.787,8.787,0,0,1,1.326-5.508l-1.334-1.36a1.015,1.015,0,0,1-.281-.575c-.01-.25.037-.407.139-.471A1.462,1.462,0,0,1,421.482,213.151Z" fill="#fff"/>
        <path d="M421.634,235.388l1.313.127-.293,3.022,16.586,1.6.293-3.022,1.313.127q-.186,1.059-.568,5t-.4,5.019l-1.312-.127.292-3.022-7.26-.7-.87,8.984,7.261.7.292-3.021,1.313.127q-.184,1.059-.567,5t-.4,5.019l-1.312-.127.292-3.021-16.586-1.6-.293,3.022-1.312-.128q.185-1.057.567-5t.4-5.019l1.313.127L421.4,251.5l8.014.775.869-8.984-8.013-.775-.292,3.022-1.313-.127q.186-1.059.567-5T421.634,235.388Z" fill="#fff"/>
      </g>
      <g>
        <path d="M355.412,386.245a10.259,10.259,0,0,1,2.079,7.4,8.622,8.622,0,0,1-10.477,7.706,10.783,10.783,0,0,1-8.484-9.594,9.319,9.319,0,0,1,1.116-5.333,6.431,6.431,0,0,0-2.125-.991,1.989,1.989,0,0,0-1.622.387,2.531,2.531,0,0,0-.982,1.5,2.449,2.449,0,0,0,.33,1.874c.169.29.188.484.057.58q-.25.186-.6-.284a7.591,7.591,0,0,1-.724-1.223,10.087,10.087,0,0,1-.589-1.6,3.429,3.429,0,0,1-.037-1.8,2.8,2.8,0,0,1,2.263-1.993,3.111,3.111,0,0,1,1.12.049,3.722,3.722,0,0,1,1.191.636,11.288,11.288,0,0,1,1.095.882q.39.369,1.157,1.115a8.7,8.7,0,0,1,1.865-1.895,8.6,8.6,0,0,1,6.973-1.52A10.024,10.024,0,0,1,355.412,386.245Zm-2.235,1.645a14.763,14.763,0,0,0-2.75-2.916,7.553,7.553,0,0,0-2.635-1.429,8.92,8.92,0,0,0-2.066-.337,5.044,5.044,0,0,0-1.547.2,2.879,2.879,0,0,1,1.092.843,2.351,2.351,0,0,1,.45,1.686,2.109,2.109,0,0,1-.9,1.537q-1.581,1.163-4.259-.511-1.209,3.88,2.241,8.567a14.362,14.362,0,0,0,3.129,3.2,7.728,7.728,0,0,0,3.068,1.43,6.954,6.954,0,0,0,2.588.028,4.811,4.811,0,0,0,3.426-2.506,6.929,6.929,0,0,0,.751-2.436,7.7,7.7,0,0,0-.444-3.361A14.281,14.281,0,0,0,353.177,387.89Zm-8.4-3.28a2.343,2.343,0,0,0-.457-.461,1.545,1.545,0,0,0-.813-.259,1.519,1.519,0,0,0-1.052.329,4.9,4.9,0,0,0-1.584,1.957q2.068,1.92,3.584.805a1.519,1.519,0,0,0,.658-1.138A1.771,1.771,0,0,0,344.78,384.61Z" fill="#fff"/>
        <path d="M339.958,407.9l.426.754q-.888.41-3.61,1.947-2.7,1.524-3.507,2.074l-.426-.754.577-.326a3.984,3.984,0,0,0,1.486-1.127,1.246,1.246,0,0,0-.215-1.082L329.5,400.2a8.383,8.383,0,0,0-1.988-2.473,4.02,4.02,0,0,0-2.051-.961,5.4,5.4,0,0,0-1.649.038,4.207,4.207,0,0,0-1.228.453,4.993,4.993,0,0,0-2.41,3.287,6.206,6.206,0,0,0,.805,4.686l4.729,8.372a3.165,3.165,0,0,0,.374.549,2.15,2.15,0,0,0,.567.395,1.519,1.519,0,0,0,1.061.053,6.242,6.242,0,0,0,1.56-.663l.426.753q-2.675,1.419-2.949,1.573-.238.135-2.837,1.7l-.426-.754a6.682,6.682,0,0,0,1.38-.982,1.407,1.407,0,0,0,.5-.933,2.351,2.351,0,0,0-.069-.729,3.417,3.417,0,0,0-.308-.673l-4.363-7.724a15.471,15.471,0,0,1-.87-1.7,7.038,7.038,0,0,1-.22-4.559,5.516,5.516,0,0,1,2.675-3.424,6.8,6.8,0,0,1,5.273-.668,6.616,6.616,0,0,1,4.22,3.274l5.134,9.09q.393.694.822.739a4,4,0,0,0,1.726-.687Z" fill="#fff"/>
        <path d="M313.925,412.2a10.276,10.276,0,0,1,.252,7.693,8.615,8.615,0,0,1-12.016,4.975,10.291,10.291,0,0,1-5.263-5.608,9.985,9.985,0,0,1-.2-7.584,8.715,8.715,0,0,1,11.984-4.984A9.94,9.94,0,0,1,313.925,412.2Zm-2.487,1.456a15.492,15.492,0,0,0-2.3-3.967,7.916,7.916,0,0,0-2.635-2.2,6.9,6.9,0,0,0-2.489-.684,4.832,4.832,0,0,0-2.172.342,4.759,4.759,0,0,0-1.739,1.265,6.956,6.956,0,0,0-1.272,2.214,7.858,7.858,0,0,0-.326,3.422,15.377,15.377,0,0,0,1.186,4.482,14.319,14.319,0,0,0,1.8,3.221,8.548,8.548,0,0,0,2.029,2,6.816,6.816,0,0,0,2.06.922,5.608,5.608,0,0,0,1.907.184,5.382,5.382,0,0,0,1.565-.377,5.047,5.047,0,0,0,1.672-1.163,7.14,7.14,0,0,0,1.349-2.063,6.884,6.884,0,0,0,.459-3.257A13.565,13.565,0,0,0,311.438,413.659Z" fill="#fff"/>
        <path d="M288.8,412.158l.233.835-.638.178a3.98,3.98,0,0,0-1.712.738,1.264,1.264,0,0,0-.047,1.115l3.927,14.053q.214.769.62.915a3.981,3.981,0,0,0,1.84-.254l.639-.178.233.834-8.381,2.341a8.673,8.673,0,0,1-5.332-.048,4.259,4.259,0,0,1-2.972-2.817,3.643,3.643,0,0,1,.57-3.04,8.07,8.07,0,0,1,2.88-2.617,4.8,4.8,0,0,1-4.122-2.179l-.936-2.043q-.32-.74-.5-1.11c-.121-.248-.27-.538-.448-.873a3.868,3.868,0,0,0-.461-.721,4.3,4.3,0,0,0-.452-.436.947.947,0,0,0-.524-.24,1.651,1.651,0,0,0-.592.067,1.608,1.608,0,0,0-.981.864,3.077,3.077,0,0,0-.116,2c.045.3-.023.47-.206.521-.226.063-.379-.048-.459-.335a3.693,3.693,0,0,1-.123-.844,4.59,4.59,0,0,1,.094-1.045,2.236,2.236,0,0,1,.563-1.078,2.415,2.415,0,0,1,1.168-.7,5.1,5.1,0,0,1,3.676.182,2.977,2.977,0,0,1,1.085.891,4.2,4.2,0,0,1,.594,1.043q.177.484.483,1.579a11.048,11.048,0,0,0,.786,2.183,2.953,2.953,0,0,0,1.229,1.1,3.546,3.546,0,0,0,2.744.217l3.063-.856-1.883-6.741q-.215-.768-.616-.922a3.918,3.918,0,0,0-1.849.25l-.638.179-.233-.834q.987-.191,3.919-1.01T288.8,412.158Zm-2.411,10.834-2.959.826a7.369,7.369,0,0,0-2.282,1.01A3.024,3.024,0,0,0,280,426.194a3.96,3.96,0,0,0-.274,1.433,5.752,5.752,0,0,0,.229,1.475,6.025,6.025,0,0,0,.667,1.584,2.509,2.509,0,0,0,.978.935,5.707,5.707,0,0,0,1.1.43,3.366,3.366,0,0,0,1.264.047q.732-.093,1.222-.2t1.259-.323a13.438,13.438,0,0,0,1.563-.493.6.6,0,0,0,.369-.285.662.662,0,0,0,.058-.347,3.952,3.952,0,0,0-.125-.548Z" fill="#fff"/>
        <path d="M266.3,418.071l.927,5.471a4.183,4.183,0,0,1,.056.416.313.313,0,0,1-.061.2.33.33,0,0,1-.227.121.3.3,0,0,1-.381-.223,5.742,5.742,0,0,0-2.412-3.906,6.208,6.208,0,0,0-4.578-.745,3.405,3.405,0,0,0-2.467,1.631,4.1,4.1,0,0,0-.556,2.9,3.859,3.859,0,0,0,1.291,2.371,3.537,3.537,0,0,0,.946.627,3.418,3.418,0,0,0,.8.269c.195.031.476.062.842.091q3.528.238,3.756.3a5.188,5.188,0,0,1,2.922,1.49,5.267,5.267,0,0,1,1.5,2.911,5.371,5.371,0,0,1-4.454,6.2,5.937,5.937,0,0,1-2.132,0,4.97,4.97,0,0,1-1.448-.447q-.442-.253-1.144-.725l-.692,1.722c-.1.265-.222.408-.356.431s-.241,0-.287-.082a1.857,1.857,0,0,1-.136-.519l-.931-5.5c-.035-.2-.053-.342-.057-.416a.251.251,0,0,1,.073-.19.415.415,0,0,1,.24-.11c.182-.03.313.057.4.263q1.726,5.583,6.291,4.81a3.576,3.576,0,0,0,3-4.172,3.578,3.578,0,0,0-1.1-2.048,3.466,3.466,0,0,0-2.2-.947l-3.639-.245a5.261,5.261,0,0,1-3.316-1.465,5.777,5.777,0,0,1-1.8-3.373,5.844,5.844,0,0,1,.852-4.27,5.129,5.129,0,0,1,3.634-2.347,7.591,7.591,0,0,1,3.088.056,5.73,5.73,0,0,1,2.238,1.018q.408-1.01.693-1.582l.06-.149c.105-.266.227-.412.364-.434s.241,0,.284.089A2.179,2.179,0,0,1,266.3,418.071Z" fill="#fff"/>
        <path d="M249.506,420.6l.077.862-.728.066a4.274,4.274,0,0,0-1.884.421,1.238,1.238,0,0,0-.262,1.089l1.311,14.532q.072.8.458,1.012a4.272,4.272,0,0,0,1.923.077l.728-.065.078.862q-.978.007-4.24.3-3.234.293-4.185.459l-.077-.862.714-.065a4.266,4.266,0,0,0,1.885-.421,1.217,1.217,0,0,0,.263-1.076l-1.311-14.532a1.24,1.24,0,0,0-.452-1.019,4.187,4.187,0,0,0-1.93-.084l-.715.065-.077-.863q.977,0,4.226-.3Q248.542,420.766,249.506,420.6Z" fill="#fff"/>
        <path d="M237.016,421.923l-.014.866a5.641,5.641,0,0,0-1.641.169,1.483,1.483,0,0,0-.875.554,2.32,2.32,0,0,0-.3.617,2.984,2.984,0,0,0-.072.669l-.234,14.454c0,.261.027.424.094.488a1.248,1.248,0,0,0,.572.158c.55.044,1.01.071,1.38.077l.8.012-.014.867L232,440.777a1.435,1.435,0,0,1-.5-.062,1.088,1.088,0,0,1-.292-.316l-9.551-14.532-.192,11.831a3.249,3.249,0,0,0,.044.663,2.141,2.141,0,0,0,.281.627,1.466,1.466,0,0,0,.863.582,5.885,5.885,0,0,0,1.635.216l-.015.866q-2.907-.129-3.239-.133t-3.242.028l.014-.866a5.868,5.868,0,0,0,1.64-.163,1.436,1.436,0,0,0,.875-.554,2.4,2.4,0,0,0,.3-.624,2.858,2.858,0,0,0,.071-.654l.248-15.295a1.976,1.976,0,0,1,.064-.59c.037-.092.146-.136.327-.133q.189,0,.467.379l11.044,16.8a2.7,2.7,0,0,0,.265.342l.233-14.4a3.291,3.291,0,0,0-.043-.67,2.024,2.024,0,0,0-.281-.627,1.518,1.518,0,0,0-.864-.582,5.672,5.672,0,0,0-1.634-.222l.014-.867q2.909.13,3.24.135T237.016,421.923Z" fill="#fff"/>
        <path d="M213.969,421.479l-.1.86-.659-.075a3.969,3.969,0,0,0-1.864.04q-.37.209-.463,1.015l-1.639,14.417a1.23,1.23,0,0,0,.231,1.081,3.962,3.962,0,0,0,1.8.456l.659.076-.1.86-15.5-1.763-.063-6.286.687.078a18.227,18.227,0,0,0,.155,2.531,4.141,4.141,0,0,0,.665,1.7,3.16,3.16,0,0,0,1.462,1.153,9.662,9.662,0,0,0,2.516.565l3.549.4a1.991,1.991,0,0,0,1.165-.065,1.366,1.366,0,0,0,.3-.884l.751-6.6-2.474-.281a3.2,3.2,0,0,0-2.509.382,4.3,4.3,0,0,0-.829,2.494l-.685-.078.828-7.289.686.079a4.312,4.312,0,0,0,.249,2.6q.462.732,2.357.949l2.474.282.836-7.344a1.324,1.324,0,0,0-.106-.931,2,2,0,0,0-1.114-.323l-3.673-.418a11.934,11.934,0,0,0-2.069-.079,4.072,4.072,0,0,0-1.534.368,5.054,5.054,0,0,0-1.109.708,3.65,3.65,0,0,0-.84,1.159,10.218,10.218,0,0,0-.61,1.5q-.231.733-.6,1.9l-.68-.133,1.949-6.915Zm-9.751,20.234q-4.408,2.086-4.686,2.137a.861.861,0,0,1-.854-.4,1.082,1.082,0,0,1-.191-.723q.09-.8,1.274-.877,3.872-.732,4.261-.809Z" fill="#fff"/>
        <path d="M193.02,418.918l-.2.844a5.663,5.663,0,0,0-1.64-.179,1.481,1.481,0,0,0-.972.358,2.3,2.3,0,0,0-.423.54,2.913,2.913,0,0,0-.211.639l-3.26,14.084a.731.731,0,0,0-.01.5,1.231,1.231,0,0,0,.526.276q.793.238,1.333.363l.778.181-.2.843-4.588-1.062a1.408,1.408,0,0,1-.475-.165,1.089,1.089,0,0,1-.22-.37l-6.291-16.212-2.669,11.528a3.218,3.218,0,0,0-.1.657,2.161,2.161,0,0,0,.143.672,1.477,1.477,0,0,0,.722.75,5.886,5.886,0,0,0,1.553.554l-.2.844q-2.817-.737-3.14-.81t-3.176-.652l.2-.844a5.9,5.9,0,0,0,1.637.185,1.447,1.447,0,0,0,.973-.358,2.4,2.4,0,0,0,.425-.547,2.875,2.875,0,0,0,.207-.625l3.449-14.9a1.981,1.981,0,0,1,.186-.564q.084-.121.348-.06.184.042.377.468l7.277,18.738a2.672,2.672,0,0,0,.187.39l3.248-14.031a3.333,3.333,0,0,0,.1-.665,2.08,2.08,0,0,0-.143-.671,1.519,1.519,0,0,0-.723-.751,5.682,5.682,0,0,0-1.551-.559l.2-.844q2.815.735,3.139.811T193.02,418.918Z" fill="#fff"/>
        <path d="M170.685,413.5l-.3.814q-2.335-.786-3.547.694l-11.029,13.622a1.057,1.057,0,0,1-.368.342.666.666,0,0,1-.444-.046,1,1,0,0,1-.238-.116.3.3,0,0,1-.118-.171,1.286,1.286,0,0,1-.039-.172c0-.04-.009-.133-.014-.28l.264-18.316a1.365,1.365,0,0,0-.319-1.068,4.638,4.638,0,0,0-1.533-.777l-.458-.165.3-.814q1.612.671,3.383,1.31,2.813,1.019,3.782,1.281l-.3.814q-2.163-.781-2.447,0a3.038,3.038,0,0,0-.057.395l-.059,4.46,6.44,2.33,2.436-2.956a1.067,1.067,0,0,0,.193-.374,1.23,1.23,0,0,0-.17-1.123,2.491,2.491,0,0,0-1.309-.917l.295-.814q2.48.984,2.975,1.164Q168.863,412.929,170.685,413.5Zm-7.671,4.853-5.867-2.122-.126,9.539Z" fill="#fff"/>
        <path d="M149.046,405.4l-.388.775-.593-.3a3.983,3.983,0,0,0-1.763-.605c-.281.044-.542.31-.785.793L138.968,419.1a1.227,1.227,0,0,0-.156,1.094,3.994,3.994,0,0,0,1.532,1.05l.593.3-.389.773-7.776-3.905a8.666,8.666,0,0,1-3.912-3.624,4.257,4.257,0,0,1-.305-4.083,3.64,3.64,0,0,1,2.467-1.865,8.055,8.055,0,0,1,3.892,0,4.8,4.8,0,0,1-1.584-4.385l.682-2.142q.263-.761.377-1.158c.077-.263.163-.58.256-.946a3.853,3.853,0,0,0,.144-.845,4.21,4.21,0,0,0-.041-.626.943.943,0,0,0-.227-.53,1.662,1.662,0,0,0-.483-.349,1.608,1.608,0,0,0-1.307-.02,3.078,3.078,0,0,0-1.431,1.4q-.249.375-.5.247c-.21-.105-.248-.291-.114-.556a3.588,3.588,0,0,1,.477-.707,4.51,4.51,0,0,1,.773-.71,2.225,2.225,0,0,1,1.141-.419,2.417,2.417,0,0,1,1.334.268,5.108,5.108,0,0,1,2.6,2.608,2.984,2.984,0,0,1,.2,1.389,4.2,4.2,0,0,1-.262,1.171q-.195.478-.705,1.493a11.076,11.076,0,0,0-.888,2.145,2.942,2.942,0,0,0,.167,1.642,3.543,3.543,0,0,0,1.885,2.007l2.842,1.428,3.141-6.254a1.266,1.266,0,0,0,.165-1.1,3.9,3.9,0,0,0-1.536-1.058l-.593-.3.389-.774q.858.523,3.579,1.89T149.046,405.4Zm-9.072,6.393-2.745-1.379a7.382,7.382,0,0,0-2.368-.788,3.021,3.021,0,0,0-1.765.242,3.96,3.96,0,0,0-1.166.876,5.687,5.687,0,0,0-.823,1.245,6.018,6.018,0,0,0-.572,1.621,2.509,2.509,0,0,0,.094,1.35,5.694,5.694,0,0,0,.528,1.06,3.348,3.348,0,0,0,.9.885q.6.426,1.039.674c.291.166.673.368,1.149.608a13.332,13.332,0,0,0,1.488.686.607.607,0,0,0,.466.037.672.672,0,0,0,.276-.218,4.122,4.122,0,0,0,.276-.489Z" fill="#fff"/>
        <path d="M129.1,394.916l-.457.735-.62-.385a4.284,4.284,0,0,0-1.759-.8q-.437.023-.865.713l-7.7,12.391a1.2,1.2,0,0,0-.243,1.083,4.267,4.267,0,0,0,1.489,1.22l.62.386L119.1,411q-.784-.585-3.566-2.312-2.758-1.716-3.618-2.154l.458-.735.608.379a4.291,4.291,0,0,0,1.759.8q.436-.024.858-.7l7.7-12.392a1.236,1.236,0,0,0,.252-1.085,4.155,4.155,0,0,0-1.491-1.23l-.608-.377.457-.737q.785.585,3.554,2.307T129.1,394.916Z" fill="#fff"/>
        <path d="M117.9,387.893l-3.286,4.469a3.834,3.834,0,0,1-.26.33.32.32,0,0,1-.189.1.331.331,0,0,1-.244-.079.293.293,0,0,1-.1-.429,5.737,5.737,0,0,0,1.129-4.449,6.209,6.209,0,0,0-2.649-3.808,3.4,3.4,0,0,0-2.887-.638A4.1,4.1,0,0,0,106.945,385a3.855,3.855,0,0,0-.8,2.577,3.5,3.5,0,0,0,.207,1.116,3.442,3.442,0,0,0,.361.76q.169.243.521.668,2.28,2.7,2.4,2.906a5.2,5.2,0,0,1,.962,3.136,5.278,5.278,0,0,1-1.048,3.1,5.185,5.185,0,0,1-3.513,2.126,5.24,5.24,0,0,1-4.04-1.015,5.959,5.959,0,0,1-1.48-1.534,5.016,5.016,0,0,1-.686-1.352q-.126-.495-.274-1.326l-1.719.7c-.262.111-.448.125-.558.044s-.165-.175-.14-.264a1.915,1.915,0,0,1,.278-.459l3.3-4.492c.123-.167.209-.277.259-.33a.252.252,0,0,1,.188-.08.411.411,0,0,1,.245.1.341.341,0,0,1,.086.466q-2.809,5.124.92,7.865a3.575,3.575,0,0,0,5.083-.745,3.584,3.584,0,0,0,.7-2.218,3.462,3.462,0,0,0-.849-2.238L105,391.728a5.252,5.252,0,0,1-1.255-3.4,5.766,5.766,0,0,1,1.17-3.642,5.837,5.837,0,0,1,3.66-2.357,5.126,5.126,0,0,1,4.214.979,7.563,7.563,0,0,1,2.107,2.257,5.733,5.733,0,0,1,.825,2.316q1.01-.41,1.619-.6l.148-.06c.266-.11.454-.123.566-.04s.164.177.134.265A2.169,2.169,0,0,1,117.9,387.893Z" fill="#fff"/>
      </g>
    </g>
    <g>
      <g>
        <path d="M655.61,274.752A60.526,60.526,0,0,1,595.152,214.3V150.806a60.458,60.458,0,1,1,120.916,0V214.3A60.526,60.526,0,0,1,655.61,274.752Zm0-164.533a40.632,40.632,0,0,0-40.586,40.587V214.3a40.587,40.587,0,0,0,81.173,0V150.806A40.633,40.633,0,0,0,655.61,110.219Z" fill="#12afa7"/>
        <path d="M706.132,274.752V254.88A40.632,40.632,0,0,0,746.719,214.3V150.806a40.633,40.633,0,0,0-40.587-40.587H655.61V90.347h50.522a60.527,60.527,0,0,1,60.458,60.459V214.3A60.526,60.526,0,0,1,706.132,274.752Z" fill="#12afa7"/>
      </g>
      <g>
        <path d="M832.438,274.752A60.526,60.526,0,0,1,771.98,214.3V150.806a60.458,60.458,0,1,1,120.916,0V214.3A60.526,60.526,0,0,1,832.438,274.752Zm0-164.533a40.632,40.632,0,0,0-40.586,40.587V214.3a40.586,40.586,0,0,0,81.172,0V150.806A40.632,40.632,0,0,0,832.438,110.219Z" fill="#12afa7"/>
        <path d="M832.438,325.275a60.527,60.527,0,0,1-60.458-60.459h19.872a40.586,40.586,0,1,0,81.172,0V214.3H892.9v50.521A60.527,60.527,0,0,1,832.438,325.275Z" fill="#12afa7"/>
      </g>
      <path d="M1085.049,274.752V254.88a40.632,40.632,0,0,0,40.587-40.585V150.806a40.587,40.587,0,1,0-81.173,0h-19.872a60.458,60.458,0,1,1,120.916,0V214.3A60.526,60.526,0,0,1,1085.049,274.752Z" fill="#12afa7"/>
      <path d="M1211.355,274.752A60.526,60.526,0,0,1,1150.9,214.3h19.872a40.586,40.586,0,0,0,81.172,0V150.806a40.586,40.586,0,1,0-81.172,0H1150.9a60.458,60.458,0,1,1,120.916,0V214.3A60.526,60.526,0,0,1,1211.355,274.752Z" fill="#12afa7"/>
      <rect x="1277.203" y="150.806" width="19.872" height="63.489" fill="#12afa7"/>
      <g>
        <g>
          <path d="M1398.119,150.806h-19.872a60.528,60.528,0,0,1,60.459-60.459v19.872A40.633,40.633,0,0,0,1398.119,150.806Z" fill="#12afa7"/>
          <path d="M1438.706,274.752a60.527,60.527,0,0,1-60.459-60.457h19.872a40.632,40.632,0,0,0,40.587,40.585Z" fill="#12afa7"/>
          <rect x="1378.247" y="150.806" width="19.872" height="63.489" fill="#12afa7"/>
        </g>
        <path d="M1337.66,274.752A60.525,60.525,0,0,1,1277.2,214.3h19.872a40.586,40.586,0,0,0,81.172,0V150.806a40.586,40.586,0,1,0-81.172,0H1277.2a60.458,60.458,0,1,1,120.916,0V214.3A60.527,60.527,0,0,1,1337.66,274.752Z" fill="#12afa7"/>
      </g>
      <g>
        <g>
          <path d="M958.744,274.752A60.526,60.526,0,0,1,898.286,214.3V150.806a60.458,60.458,0,1,1,120.916,0V214.3A60.526,60.526,0,0,1,958.744,274.752Zm0-164.533a40.632,40.632,0,0,0-40.586,40.587V214.3a40.586,40.586,0,0,0,81.172,0V150.806A40.632,40.632,0,0,0,958.744,110.219Z" fill="#12afa7"/>
          <path d="M958.744,325.275a60.527,60.527,0,0,1-60.458-60.459h19.872a40.586,40.586,0,1,0,81.172,0V214.3H1019.2v50.521A60.527,60.527,0,0,1,958.744,325.275Z" fill="#12afa7"/>
        </g>
        <path d="M958.744,110.219a35.2,35.2,0,1,1,35.2-35.2A35.237,35.237,0,0,1,958.744,110.219Zm0-50.523a15.326,15.326,0,1,0,15.325,15.326A15.343,15.343,0,0,0,958.744,59.7Z" fill="#12afa7"/>
      </g>
    </g>
    <g>
      <path d="M598.4,363.61h3.644v26.143h13.631V393H598.4Z" fill="#12afa7"/>
      <path d="M632.505,393H628.86V363.61h3.645Z" fill="#12afa7"/>
      <path d="M657.288,388.261h.344L666.3,363.61h3.846L659.382,393h-3.845L644.775,363.61h3.875Z" fill="#12afa7"/>
      <path d="M686.059,393h-3.644V363.61h3.644Z" fill="#12afa7"/>
      <path d="M698.33,393l10.761-29.386h3.846L723.7,393h-3.845l-8.724-24.651h-.23L702.175,393Zm20.232-11.478v3.213H703.5v-3.213Z" fill="#12afa7"/>
      <path d="M735.969,363.61h3.644v26.143h13.631V393H735.969Z" fill="#12afa7"/>
      <path d="M788.474,386.281a12.518,12.518,0,0,1-4.621,5.266,13.126,13.126,0,0,1-13.438,0,12.513,12.513,0,0,1-4.612-5.266,19.98,19.98,0,0,1,0-15.97,12.508,12.508,0,0,1,22.671,0,19.991,19.991,0,0,1,0,15.97Zm-3.129-14.3a9.254,9.254,0,0,0-3.371-4,9.259,9.259,0,0,0-9.671,0,9.236,9.236,0,0,0-3.372,4,16.794,16.794,0,0,0,0,12.642,9.225,9.225,0,0,0,3.372,4,9.265,9.265,0,0,0,9.671,0,9.243,9.243,0,0,0,3.371-4,16.806,16.806,0,0,0,0-12.642Z" fill="#12afa7"/>
      <path d="M803.786,363.61h17.677v3.243H807.431v9.814h12.713v3.215H807.431V393h-3.645Z" fill="#12afa7"/>
      <path d="M829.028,393l10.761-29.386h3.846L854.4,393h-3.845l-8.724-24.651H841.6L832.873,393Zm20.232-11.478v3.213H834.193v-3.213Z" fill="#12afa7"/>
      <path d="M866.667,363.61h17.677v3.243H870.312v9.814h12.712v3.215H870.312V393h-3.645Z" fill="#12afa7"/>
      <path d="M891.909,393,902.67,363.61h3.846L917.277,393h-3.845l-8.724-24.651h-.229L895.754,393Zm20.232-11.478v3.213H897.074v-3.213Z" fill="#12afa7"/>
      <path d="M944.535,368.553a5.339,5.339,0,0,0-2.3-1.571,9.1,9.1,0,0,0-3.192-.531,8.567,8.567,0,0,0-3.365.617,5.244,5.244,0,0,0-2.26,1.722,4.115,4.115,0,0,0-.8,2.482,3.5,3.5,0,0,0,1.651,3.128,13.571,13.571,0,0,0,4,1.694l2.957.8a21.9,21.9,0,0,1,3.874,1.385,8.606,8.606,0,0,1,3.114,2.519,6.581,6.581,0,0,1,1.3,4.189,7.78,7.78,0,0,1-1.262,4.356,8.58,8.58,0,0,1-3.666,3.049,15.135,15.135,0,0,1-11.171.1,8.742,8.742,0,0,1-3.659-2.855,8.078,8.078,0,0,1-1.506-4.277h3.759a4.572,4.572,0,0,0,1.09,2.677,5.811,5.811,0,0,0,2.454,1.628,10.324,10.324,0,0,0,6.945-.114,5.93,5.93,0,0,0,2.539-1.859,4.414,4.414,0,0,0,.919-2.761,3.437,3.437,0,0,0-.761-2.268,5.526,5.526,0,0,0-2-1.485,20.721,20.721,0,0,0-3.063-1.069l-3.587-1A12.994,12.994,0,0,1,931,376.2a6.333,6.333,0,0,1-1.937-4.757,7.217,7.217,0,0,1,1.335-4.3,8.752,8.752,0,0,1,3.629-2.906,13.28,13.28,0,0,1,10.2-.028A8.505,8.505,0,0,1,947.764,367a7.119,7.119,0,0,1,1.355,4.01h-3.558A4.537,4.537,0,0,0,944.535,368.553Z" fill="#12afa7"/>
      <path d="M963.056,363.61H966.7v13.057h15.554V363.61h3.673V393h-3.673V379.882H966.7V393h-3.644Z" fill="#12afa7"/>
      <path d="M998.2,393l10.761-29.386h3.846L1023.566,393h-3.845L1011,368.345h-.229L1002.043,393Zm20.232-11.478v3.213h-15.067v-3.213Z" fill="#12afa7"/>
      <path d="M1050.824,368.553a5.339,5.339,0,0,0-2.3-1.571,9.1,9.1,0,0,0-3.192-.531,8.567,8.567,0,0,0-3.365.617,5.244,5.244,0,0,0-2.26,1.722,4.115,4.115,0,0,0-.8,2.482,3.5,3.5,0,0,0,1.651,3.128,13.566,13.566,0,0,0,4,1.694l2.956.8a21.843,21.843,0,0,1,3.874,1.385,8.606,8.606,0,0,1,3.114,2.519,6.582,6.582,0,0,1,1.306,4.189,7.781,7.781,0,0,1-1.263,4.356,8.58,8.58,0,0,1-3.666,3.049,15.135,15.135,0,0,1-11.171.1,8.742,8.742,0,0,1-3.659-2.855,8.078,8.078,0,0,1-1.506-4.277h3.759a4.566,4.566,0,0,0,1.091,2.677,5.8,5.8,0,0,0,2.453,1.628,10.324,10.324,0,0,0,6.945-.114,5.93,5.93,0,0,0,2.539-1.859,4.414,4.414,0,0,0,.919-2.761,3.437,3.437,0,0,0-.761-2.268,5.526,5.526,0,0,0-2-1.485,20.721,20.721,0,0,0-3.063-1.069l-3.587-1a12.994,12.994,0,0,1-5.553-2.9,6.333,6.333,0,0,1-1.937-4.757,7.217,7.217,0,0,1,1.335-4.3,8.752,8.752,0,0,1,3.629-2.906,13.28,13.28,0,0,1,10.2-.028,8.505,8.505,0,0,1,3.537,2.791,7.119,7.119,0,0,1,1.355,4.01h-3.558A4.537,4.537,0,0,0,1050.824,368.553Z" fill="#12afa7"/>
      <path d="M1091.716,393h-3.645V363.61h3.645Zm-1.608,0v-3.243h6.859a11.723,11.723,0,0,0,5.933-1.377,8.537,8.537,0,0,0,3.566-3.946,16.759,16.759,0,0,0,.014-12.3,8.529,8.529,0,0,0-3.465-3.91,10.979,10.979,0,0,0-5.675-1.363h-7.4V363.61h7.632a14.529,14.529,0,0,1,7.326,1.75,11.5,11.5,0,0,1,4.684,5.051,19.825,19.825,0,0,1-.014,15.74,11.512,11.512,0,0,1-4.785,5.08A15.286,15.286,0,0,1,1097.2,393Z" fill="#12afa7"/>
      <path d="M1128.494,393h-3.644V363.61h3.644Z" fill="#12afa7"/>
      <path d="M1143.29,363.61h17.82v3.243h-14.175v9.814h13.229v3.215h-13.229v9.871h14.377V393H1143.29Z" fill="#12afa7"/>
      <path d="M1192.94,390.355l15.785-23.5h-15.956V363.61h20.346v2.64l-15.783,23.5h15.955V393H1192.94Z" fill="#12afa7"/>
      <path d="M1224.41,393l10.761-29.386h3.846L1249.778,393h-3.845l-8.724-24.651h-.23L1228.255,393Zm20.232-11.478v3.213h-15.067v-3.213Z" fill="#12afa7"/>
      <path d="M1259.524,393l10.761-29.386h3.846L1284.893,393h-3.846l-8.724-24.651h-.229L1263.369,393Zm20.232-11.478v3.213h-15.067v-3.213Zm-12.814-21.882a2.646,2.646,0,0,1-.861-.862,2.106,2.106,0,0,1-.33-1.133,2.223,2.223,0,0,1,.33-1.184,2.393,2.393,0,0,1,.855-.839,2.24,2.24,0,0,1,1.14-.3,2.37,2.37,0,0,1,1.191.3,2.18,2.18,0,0,1,.832.832,2.369,2.369,0,0,1,.3,1.191,2.245,2.245,0,0,1-.3,1.141,2.42,2.42,0,0,1-.832.854,2.219,2.219,0,0,1-1.191.33A2.12,2.12,0,0,1,1266.942,359.636Zm8.294,0a2.637,2.637,0,0,1-.861-.862,2.1,2.1,0,0,1-.33-1.133,2.215,2.215,0,0,1,.33-1.184,2.382,2.382,0,0,1,.854-.839,2.245,2.245,0,0,1,1.14-.3,2.381,2.381,0,0,1,1.184.3,2.151,2.151,0,0,1,.84.839,2.383,2.383,0,0,1,.3,1.184,2.245,2.245,0,0,1-.3,1.141,2.4,2.4,0,0,1-.84.854,2.23,2.23,0,0,1-1.184.33A2.119,2.119,0,0,1,1275.236,359.636Z" fill="#12afa7"/>
      <path d="M1314.044,369.5a7.789,7.789,0,0,0-2.805-2.131,8.929,8.929,0,0,0-3.716-.746,8.571,8.571,0,0,0-4.75,1.363,9.3,9.3,0,0,0-3.342,4,16.694,16.694,0,0,0,.013,12.635,9.276,9.276,0,0,0,3.409,4,8.989,8.989,0,0,0,4.9,1.362,8.889,8.889,0,0,0,4.419-1.076,7.472,7.472,0,0,0,2.984-3.049,9.549,9.549,0,0,0,1.062-4.6l1.091.229h-8.782v-3.214h11.249v3.157a12.563,12.563,0,0,1-1.535,6.3,10.611,10.611,0,0,1-4.268,4.19,13.811,13.811,0,0,1-13.093-.358,12.194,12.194,0,0,1-4.607-5.252,20.4,20.4,0,0,1,0-16.006,11.991,11.991,0,0,1,11.25-7.1,13.022,13.022,0,0,1,5.618,1.206,11.4,11.4,0,0,1,4.24,3.379,11.666,11.666,0,0,1,2.223,5h-3.788A9.773,9.773,0,0,0,1314.044,369.5Z" fill="#12afa7"/>
      <path d="M1356.728,386.281a12.514,12.514,0,0,1-4.622,5.266,13.125,13.125,0,0,1-13.437,0,12.513,12.513,0,0,1-4.612-5.266,19.98,19.98,0,0,1,0-15.97,12.508,12.508,0,0,1,22.671,0,19.991,19.991,0,0,1,0,15.97Zm-3.129-14.3a9.254,9.254,0,0,0-3.371-4,9.259,9.259,0,0,0-9.671,0,9.236,9.236,0,0,0-3.372,4,16.794,16.794,0,0,0,0,12.642,9.225,9.225,0,0,0,3.372,4,9.265,9.265,0,0,0,9.671,0,9.243,9.243,0,0,0,3.371-4,16.806,16.806,0,0,0,0-12.642Z" fill="#12afa7"/>
      <path d="M1387.056,368.553a5.339,5.339,0,0,0-2.3-1.571,9.1,9.1,0,0,0-3.193-.531,8.574,8.574,0,0,0-3.365.617,5.25,5.25,0,0,0-2.26,1.722,4.114,4.114,0,0,0-.8,2.482,3.5,3.5,0,0,0,1.65,3.128,13.589,13.589,0,0,0,4,1.694l2.956.8a21.843,21.843,0,0,1,3.874,1.385,8.606,8.606,0,0,1,3.114,2.519,6.582,6.582,0,0,1,1.306,4.189,7.781,7.781,0,0,1-1.263,4.356,8.569,8.569,0,0,1-3.666,3.049,15.135,15.135,0,0,1-11.171.1,8.755,8.755,0,0,1-3.659-2.855,8.1,8.1,0,0,1-1.506-4.277h3.759a4.573,4.573,0,0,0,1.091,2.677,5.807,5.807,0,0,0,2.453,1.628,9.667,9.667,0,0,0,3.315.546,9.569,9.569,0,0,0,3.63-.66,5.93,5.93,0,0,0,2.539-1.859,4.408,4.408,0,0,0,.919-2.761,3.442,3.442,0,0,0-.76-2.268,5.526,5.526,0,0,0-2-1.485,20.737,20.737,0,0,0-3.064-1.069l-3.587-1a12.989,12.989,0,0,1-5.552-2.9,6.334,6.334,0,0,1-1.938-4.757,7.217,7.217,0,0,1,1.335-4.3,8.761,8.761,0,0,1,3.63-2.906,13.278,13.278,0,0,1,10.2-.028,8.5,8.5,0,0,1,3.537,2.791,7.112,7.112,0,0,1,1.356,4.01h-3.559A4.529,4.529,0,0,0,1387.056,368.553Z" fill="#12afa7"/>
      <path d="M1405.575,363.61h3.645v13.057h15.553V363.61h3.673V393h-3.673V379.882H1409.22V393h-3.645Z" fill="#12afa7"/>
    </g>
  </g>
</svg>
