<svg xmlns="http://www.w3.org/2000/svg" width="1440" height="1440" viewBox="0 0 1440 1440">
  <g>
    <circle cx="720" cy="720" r="634.143" fill="#fff"/>
    <g>
      <g>
        <path d="M843.972,1165.8H725.009v-87.657H843.972a31.342,31.342,0,0,0,31.306-31.306v-31.3H843.972A119.1,119.1,0,0,1,725.009,896.566V746.3A31.342,31.342,0,0,0,693.7,714.991H662.4V746.3A118.962,118.962,0,1,1,543.434,627.334H574.74V596.028A119.1,119.1,0,0,1,693.7,477.065H843.972A119.1,119.1,0,0,1,962.935,596.028V927.872h31.306a31.341,31.341,0,0,0,31.3-31.306v-450.8a31.341,31.341,0,0,0-31.3-31.306H543.434a31.34,31.34,0,0,0-31.3,31.3A119.1,119.1,0,0,1,393.167,564.722a31.342,31.342,0,0,0-31.306,31.306V897.633a31.435,31.435,0,0,0,30.859,31.3l152.416,2.18c64.658.923,117.261,54.283,117.261,118.95V1165.8H574.74V1050.065a31.431,31.431,0,0,0-30.855-31.3l-152.419-2.18C326.807,1015.657,274.2,962.3,274.2,897.633v-301.6A119.1,119.1,0,0,1,393.167,477.065a31.341,31.341,0,0,0,31.306-31.3A119.1,119.1,0,0,1,543.434,326.8H994.241A119.1,119.1,0,0,1,1113.2,445.761V896.566a119.1,119.1,0,0,1-118.961,118.963H962.935v31.3A119.1,119.1,0,0,1,843.972,1165.8ZM662.4,627.334H693.7A119.1,119.1,0,0,1,812.666,746.3V896.566a31.342,31.342,0,0,0,31.306,31.306h31.306V596.028a31.342,31.342,0,0,0-31.306-31.306H693.7A31.342,31.342,0,0,0,662.4,596.028ZM543.434,714.991A31.306,31.306,0,1,0,574.74,746.3V714.991Z" fill="#12afa7"/>
        <path d="M720,0C322.356,0,0,322.356,0,720s322.356,720,720,720,720-322.356,720-720S1117.644,0,720,0Zm0,1301.027c-320.9,0-581.026-260.129-581.026-581.027S399.1,138.974,720,138.974,1301.026,399.1,1301.026,720,1040.9,1301.027,720,1301.027Z" fill="#12afa7"/>
      </g>
      <path d="M720,1290.15c-152.292,0-295.469-59.306-403.156-166.992S149.851,872.293,149.851,720s59.306-295.47,166.993-403.157S567.708,149.85,720,149.85s295.47,59.306,403.157,166.993S1290.15,567.707,1290.15,720s-59.306,295.47-166.993,403.158S872.293,1290.15,720,1290.15Zm0-1129.01c-308.156,0-558.859,250.7-558.859,558.86S411.844,1278.86,720,1278.86s558.86-250.7,558.86-558.86S1028.157,161.14,720,161.14Z" fill="#12afa7"/>
      <g>
        <path d="M115.742,826.226l-4.137.534-1.229-9.524-52.268,6.743,1.229,9.524-4.136.533q-.175-3.394-1.826-16.191-1.8-13.962-2.555-17.763l4.137-.534,1.534,11.892,52.268-6.743-1.173-9.092a20.15,20.15,0,0,0-1.61-5.859,16.229,16.229,0,0,0-2.593-4.134,13.064,13.064,0,0,0-3.591-2.713,24.816,24.816,0,0,0-3.766-1.682,19.568,19.568,0,0,0-4.042-.771,34.4,34.4,0,0,0-3.622-.234q-1.158.02-3.139-.051l-.565-4.377,24.55-.2Z" fill="#fff"/>
        <path d="M107.666,749.523l-4.17.088-.213-10.121L50.594,740.6l.212,10.121-4.17.088q.184-3.655-.084-16.448t-.606-16.435l4.17-.088.213,10.121,52.689-1.105-.212-10.121,4.17-.087q-.185,3.654.084,16.446T107.666,749.523Z" fill="#fff"/>
        <path d="M50,689.777l-4.15-.409q.566-3.087,1.639-13.983,1.215-12.324,1.283-15.678l4.151.409-.818,8.3L96.38,653.745l-38.534-21.87a.782.782,0,0,1-.29-.16,1.479,1.479,0,0,0-.372-.212,1.514,1.514,0,0,0-.341-.077Q55.763,631.32,55,639.1l-4.151-.409q.6-3.433,1.4-11.563.107-1.08.227-2.749t.254-3.9q.133-2.236.244-3.36l4.151.409-.163,1.643a29.6,29.6,0,0,0-.183,4.741,4.4,4.4,0,0,0,.435,2.007,4.039,4.039,0,0,0,.97.794l50.9,28.808a3.155,3.155,0,0,1,1.635,1.58,5.548,5.548,0,0,1,.135,2.174,4.061,4.061,0,0,1-.7,2.267,4.739,4.739,0,0,1-1.937,1.053l-57.4,19.011Z" fill="#fff"/>
        <path d="M118.273,602.186l-4.071-.907,2.2-9.881-51.44-11.46-2.2,9.881-4.071-.907q1.048-3.505,3.83-16t3.322-16.107l4.071.906-2.2,9.882,51.441,11.459,2.2-9.881,4.071.907q-1.049,3.505-3.83,16T118.273,602.186Z" fill="#fff"/>
        <path d="M130.584,548.064l-3.931-1.395.625-1.76a22.41,22.41,0,0,0,1.53-5.681,2.686,2.686,0,0,0-.933-2.129l-43.1-38.708a6.736,6.736,0,0,1-1.106-1.038,2.027,2.027,0,0,1-.323-1.105,5.194,5.194,0,0,1,.38-1.917,6.661,6.661,0,0,1,.582-1.315,2.964,2.964,0,0,1,.949-.792,3.942,3.942,0,0,1,1.872-.466l60.023-2.865,2.89-8.148,3.931,1.394q-1.291,2.861-5.1,13.589-4.11,11.589-5,14.869l-3.932-1.394,2.833-7.985-14.071.679-7.974,22.48,8.707,7.791a1.424,1.424,0,0,0,.87.677q1.11.393,3.753-7.058l3.931,1.394q-1.35,3.025-4.167,10.968Q133.723,538.437,130.584,548.064ZM117.4,521.3l6.783-19.122L97.5,503.458Z" fill="#fff"/>
        <path d="M163.632,461.3l-3.7-1.928,4.439-8.515L117.64,426.5l-4.439,8.514-3.7-1.928q1.8-2.885,7.763-14.327,6.507-12.483,8.063-16.032l3.7,1.928-5.543,10.633,46.733,24.361,4.238-8.129a20.157,20.157,0,0,0,2.03-5.727,16.2,16.2,0,0,0,.238-4.875,13.072,13.072,0,0,0-1.4-4.279A24.829,24.829,0,0,0,173.2,413.1a19.7,19.7,0,0,0-2.875-2.943,34.684,34.684,0,0,0-2.838-2.264q-.96-.647-2.546-1.836l2.04-3.915,20.253,13.876Z" fill="#fff"/>
        <path d="M177.019,374q-11.614-8.274-13.643-20.6t6.694-24.571q8.57-12.032,20.85-14.246t24.036,6.16q11.282,8.035,13.214,20.214t-6.84,24.493q-8.672,12.174-20.8,14.418T177.019,374Zm6.794-11.857q10.29,7.331,17.994,8.337a16.6,16.6,0,0,0,9.638-1.483,18.151,18.151,0,0,0,6.842-5.714q5.672-7.962,1.827-17.156-3.147-7.254-14.144-15.089-10.006-7.128-17.3-7.737a16.633,16.633,0,0,0-9,1.828,18.8,18.8,0,0,0-9.973,13.7,16.363,16.363,0,0,0,.867,8.7Q173.382,354.711,183.813,362.14Z" fill="#fff"/>
        <path d="M255.58,319.143l-3.027-2.871,6.608-6.966L221.3,273.4l-6.608,6.967-3.026-2.871,37.046-39.055,17.455,12.784-2.87,3.026a53.668,53.668,0,0,0-4.907-3.307,23.973,23.973,0,0,0-4.563-1.993,9.641,9.641,0,0,0-4.767-.419,15.268,15.268,0,0,0-4.913,2.016,26.779,26.779,0,0,0-5.565,4.633L230,264.224l17.4,16.5,3.05-3.215q4.1-4.318,3.513-7.207t-4.65-6.746l2.9-3.058,18.126,17.192-2.9,3.058q-4.067-3.857-6.966-4.272t-7,3.9l-3.05,3.216,17.432,16.534,8.252-8.7,3.027,2.87q-2.882,2.658-12.538,12.84Q257.723,316.5,255.58,319.143Z" fill="#fff"/>
        <path d="M303.391,269.222,300.737,266l1.441-1.188a22.351,22.351,0,0,0,4.235-4.085,2.683,2.683,0,0,0,.3-2.305L289.66,203.058a6.787,6.787,0,0,1-.415-1.46,2.031,2.031,0,0,1,.292-1.114,5.216,5.216,0,0,1,1.312-1.448,6.7,6.7,0,0,1,1.175-.828,2.967,2.967,0,0,1,1.223-.191,3.941,3.941,0,0,1,1.843.563L348.035,227l6.671-5.5,2.653,3.218q-2.579,1.789-11.361,9.03-9.488,7.823-11.936,10.18l-2.653-3.218,6.536-5.39-12.415-6.656-18.4,15.174L310.585,255a1.428,1.428,0,0,0,.4,1.028q.749.909,6.85-4.122l2.653,3.218q-2.713,1.9-9.216,7.262Q311.035,262.581,303.391,269.222Zm2.457-29.732L321.5,226.582l-23.538-12.634Z" fill="#fff"/>
        <path d="M376.29,211.765l-2.176-3.558,8.191-5.01-27.222-44.516-8.191,5.009-2.176-3.558,45.925-28.083,13.532,16.883-3.558,2.175a54,54,0,0,0-3.879-4.469,24.012,24.012,0,0,0-3.888-3.111,9.641,9.641,0,0,0-4.494-1.643,15.255,15.255,0,0,0-5.269.669,26.783,26.783,0,0,0-6.577,3.027l-10.638,6.5,12.511,20.461,3.781-2.312q5.078-3.105,5.266-6.046t-2.736-7.723l3.595-2.2,13.033,21.313-3.595,2.2q-2.925-4.782-5.617-5.936t-7.77,1.95l-3.78,2.312,12.533,20.5,10.231-6.256L405.5,193.9q-3.473,1.818-15.445,9.139Q379.045,209.775,376.29,211.765Z" fill="#fff"/>
        <path d="M435.424,175.993l-1.721-3.8,1.7-.771a22.37,22.37,0,0,0,5.154-2.838,2.687,2.687,0,0,0,.886-2.149l-2.008-57.9a6.752,6.752,0,0,1-.02-1.518,2.017,2.017,0,0,1,.573-1,5.186,5.186,0,0,1,1.644-1.055,6.637,6.637,0,0,1,1.351-.493,2.95,2.95,0,0,1,1.229.134,3.953,3.953,0,0,1,1.634,1.025l43.692,41.255,7.875-3.569,1.722,3.8q-2.957,1.053-13.325,5.753-11.2,5.074-14.178,6.712l-1.722-3.8,7.717-3.5-10.248-9.665-21.725,9.846.426,11.676a1.422,1.422,0,0,0,.115,1.1q.486,1.073,7.688-2.192l1.722,3.8q-3.115,1.127-10.792,4.6Q444.537,171.577,435.424,175.993Zm10.131-28.06,18.481-8.376L444.61,121.219Z" fill="#fff"/>
        <path d="M522.614,137.616l-4.626-15.532a4.516,4.516,0,0,1-.316-2.127q.167-.5,1.624-.937a5.543,5.543,0,0,1,1.087-.232,1.078,1.078,0,0,1,.7.153,1.138,1.138,0,0,1,.418.49,8.42,8.42,0,0,1,.334.968,14.947,14.947,0,0,0,4.686,6.83,12.961,12.961,0,0,0,6.9,2.854,31.812,31.812,0,0,0,6.826.011,35.822,35.822,0,0,0,6.041-1.254q5.955-1.773,7.6-5.6a10.631,10.631,0,0,0-5.135-14.114,7.192,7.192,0,0,0-3.562-.807q-1.8.078-8.358.353a90.181,90.181,0,0,1-11.458.345,17.6,17.6,0,0,1-6.934-2.277,16.765,16.765,0,0,1-8.017-10.023,17.113,17.113,0,0,1,1.36-13.625q3.513-6.4,12.758-9.155,8.742-2.606,16,.222l2.944-4.887a3.154,3.154,0,0,1,1.488-1.423l.044-.013q1.1-.327,1.5.052a4.67,4.67,0,0,1,.834,1.837l4.651,15.615a3.932,3.932,0,0,1,.265,2.052q-.195.511-1.782.984a3.177,3.177,0,0,1-1.812.221,4.438,4.438,0,0,1-1.164-1.75,19.058,19.058,0,0,0-6.485-7.772,14.881,14.881,0,0,0-7.494-2.711,22.331,22.331,0,0,0-7.3.968Q520.6,79.01,518.932,82.5a9.318,9.318,0,0,0-.663,6.888,8.216,8.216,0,0,0,4.025,5.152,11.448,11.448,0,0,0,5.89,1.489l13.146-1.1a20.73,20.73,0,0,1,12.9,3.025,17.876,17.876,0,0,1,8.091,10.568,19.11,19.11,0,0,1-1.219,14.3q-3.4,6.972-13.507,9.982-10.4,3.1-17.913.257l-3.123,5.154a3.2,3.2,0,0,1-1.541,1.313q-1.139.339-1.554-.058A4.678,4.678,0,0,1,522.614,137.616Z" fill="#fff"/>
        <path d="M590.679,119.736l-.629-4.124,9.492-1.447-7.947-52.1L582.1,63.514l-.629-4.123q3.388-.253,15.78-2.144t15.7-2.659l.628,4.123-9.492,1.448,3.479,22.807,28.219-4.3-3.479-22.806L622.82,57.3l-.63-4.123q3.39-.253,15.781-2.144t15.7-2.659L654.3,52.5l-9.492,1.448,7.947,52.1,9.493-1.448.628,4.123q-3.389.254-15.78,2.144t-15.7,2.658l-.629-4.123,9.492-1.448-3.84-25.168-28.218,4.3,3.84,25.169,9.492-1.448.629,4.123q-3.39.253-15.781,2.144T590.679,119.736Z" fill="#fff"/>
        <path d="M685.441,106.617l.068-4.171,1.867.031a22.374,22.374,0,0,0,5.873-.363,2.684,2.684,0,0,0,1.72-1.563l22.936-53.2a6.748,6.748,0,0,1,.631-1.38,2.02,2.02,0,0,1,.945-.658,5.176,5.176,0,0,1,1.937-.251,6.647,6.647,0,0,1,1.433.132,2.943,2.943,0,0,1,1.053.647,3.944,3.944,0,0,1,1.038,1.624l21.863,55.974,8.644.141-.067,4.17q-3.125-.312-14.506-.5-12.292-.2-15.687.006l.069-4.17,8.471.137L728.6,90.109l-23.85-.386-4.606,10.737a1.425,1.425,0,0,0-.365,1.04q-.018,1.177,7.888,1.306l-.068,4.17q-3.3-.314-11.725-.451Q695.567,106.521,685.441,106.617ZM706.6,85.581l20.287.329-9.721-24.882Z" fill="#fff"/>
        <path d="M780.927,108.227l2.179-16.059a4.523,4.523,0,0,1,.587-2.069q.36-.389,1.868-.185a5.6,5.6,0,0,1,1.085.236,1.08,1.08,0,0,1,.578.43,1.144,1.144,0,0,1,.179.617,8.782,8.782,0,0,1-.094,1.021,14.938,14.938,0,0,0,1.458,8.154,12.94,12.94,0,0,0,5.115,5.441,31.684,31.684,0,0,0,6.215,2.822,35.928,35.928,0,0,0,6.022,1.344q6.156.837,9.235-1.974a10.628,10.628,0,0,0,1.13-14.975,7.157,7.157,0,0,0-2.913-2.2l-7.761-3.12a90.127,90.127,0,0,1-10.583-4.4,17.613,17.613,0,0,1-5.382-4.93,16.764,16.764,0,0,1-3.179-12.435,17.111,17.111,0,0,1,6.85-11.856q5.837-4.387,15.395-3.091,9.041,1.227,14.494,6.793l4.7-3.241a3.16,3.16,0,0,1,1.943-.684l.045.006q1.136.154,1.344.665a4.7,4.7,0,0,1,0,2.017l-2.192,16.145a3.939,3.939,0,0,1-.6,1.979q-.389.386-2.03.163a3.183,3.183,0,0,1-1.742-.545,4.444,4.444,0,0,1-.34-2.073,19.057,19.057,0,0,0-2.71-9.754,14.877,14.877,0,0,0-5.713-5.556,22.353,22.353,0,0,0-7.052-2.125q-5.827-.79-8.79,1.705a9.323,9.323,0,0,0-3.44,6,8.223,8.223,0,0,0,1.546,6.353,11.447,11.447,0,0,0,4.755,3.782l12.432,4.412a20.723,20.723,0,0,1,10.509,8.068,17.873,17.873,0,0,1,3.022,12.961,19.106,19.106,0,0,1-7,12.528q-5.97,4.953-16.418,3.534-10.752-1.46-16.43-7.142l-4.969,3.411a3.207,3.207,0,0,1-1.945.563q-1.176-.159-1.391-.693A4.665,4.665,0,0,1,780.927,108.227Z" fill="#fff"/>
        <path d="M899.389,132.763l1.448-3.911,9,3.335,18.308-49.419-9-3.335,1.448-3.912,35.893,13.3q12.671,4.695,17.934,15.563T974.7,128.7q-4.86,13.118-15.765,17.6t-23.576-.209Zm21.819,3.635,12.182,4.513q11.528,4.271,19.014-.925a19.56,19.56,0,0,0,5.307-5.632,55.776,55.776,0,0,0,4.759-10.284q4.6-12.426,2.966-19.009-2.429-9.333-13.739-13.569l-12.181-4.513Z" fill="#fff"/>
        <path d="M986.407,167.719l1.915-3.7,8.992,4.648,24.2-46.817-8.993-4.648,1.915-3.706q3.123,1.908,14.489,7.783t14.728,7.319l-1.915,3.705-8.993-4.648-24.2,46.817,8.993,4.648-1.915,3.706q-3.123-1.908-14.489-7.783T986.407,167.719Z" fill="#fff"/>
        <path d="M1035.409,193.617l2.32-3.466,7.979,5.34,29.023-43.363-7.978-5.34,2.319-3.467L1115,174.061l-9.663,19.358-3.467-2.319a50.963,50.963,0,0,0,2.507-5.581,20.056,20.056,0,0,0,1.088-4.906,10.6,10.6,0,0,0-.546-4.769,14.549,14.549,0,0,0-2.893-4.5,29.185,29.185,0,0,0-5.557-4.663l-11.23-7.515L1072.5,178.188l4.08,2.731q4.947,3.31,7.732,2.274t5.9-5.7l3.467,2.32-13.92,20.8-3.467-2.32q3.118-4.657,3.014-7.628t-5.049-6.282l-4.079-2.73-13.969,20.869,11.226,7.514a38.243,38.243,0,0,0,6.21,3.45,14.6,14.6,0,0,0,5.419,1.275,19.271,19.271,0,0,0,4.628-.432,12.376,12.376,0,0,0,4.323-2.047,28.99,28.99,0,0,0,3.891-3.245l4.136-4.165,3.5,2.344-16.982,17.964Z" fill="#fff"/>
        <path d="M1144.863,274.454a4.076,4.076,0,0,1,2.14-1.1l62.348-10.67-8.058-8.346q-6.487-6.721-12.718-7.137t-13,5.394l-2.9-3,16.165-14.156,31.775,32.914a10.606,10.606,0,0,1,1.085,1.248,1.374,1.374,0,0,1,.166,1.017,2.65,2.65,0,0,1-.869,1.352,3.623,3.623,0,0,1-2.028.932l-62.195,10.7,8.66,8.971a31.578,31.578,0,0,0,5.238,4.455,22.8,22.8,0,0,0,4.673,2.464,10.9,10.9,0,0,0,4.429.615,18.613,18.613,0,0,0,3.991-.621,16.606,16.606,0,0,0,3.794-1.761,39.009,39.009,0,0,0,3.466-2.29q1.325-1,3.383-2.751l2.9,3L1178,312.093l-32.8-33.977a10.914,10.914,0,0,1-1.1-1.263,1.31,1.31,0,0,1-.183-1A2.91,2.91,0,0,1,1144.863,274.454Z" fill="#fff"/>
        <path d="M1195.319,331.6l3.373-2.453,1.1,1.511a22.3,22.3,0,0,0,3.82,4.473,2.685,2.685,0,0,0,2.284.435l56.3-13.66a6.8,6.8,0,0,1,1.483-.326,2.025,2.025,0,0,1,1.094.36,5.189,5.189,0,0,1,1.366,1.4,6.688,6.688,0,0,1,.755,1.223,2.988,2.988,0,0,1,.117,1.232,3.956,3.956,0,0,1-.674,1.806l-31.581,51.124,5.086,6.992-3.373,2.454q-1.629-2.683-8.325-11.889-7.235-9.944-9.437-12.53l3.373-2.454,4.984,6.852,7.4-11.989-14.031-19.289-11.349,2.775a1.426,1.426,0,0,0-1.051.335q-.951.692,3.7,7.087l-3.373,2.453q-1.732-2.825-6.69-9.639Q1201.486,339.627,1195.319,331.6Zm29.529,4.256,11.935,16.408,14.037-22.729Z" fill="#fff"/>
        <path d="M1248.528,407.669l3.7-1.917.859,1.66a22.4,22.4,0,0,0,3.1,5,2.69,2.69,0,0,0,2.193.774l57.661-5.116a6.65,6.65,0,0,1,1.514-.1,2.053,2.053,0,0,1,1.03.527,5.246,5.246,0,0,1,1.145,1.6,6.609,6.609,0,0,1,.56,1.318,2.969,2.969,0,0,1-.072,1.231,3.958,3.958,0,0,1-.942,1.68l-38.933,45.77,3.972,7.679-3.7,1.917q-1.206-2.9-6.436-13.008-5.65-10.922-7.439-13.811l3.7-1.916,3.808,7.359,9.175-10.631L1272.571,416.7l-11.637,1.031a1.426,1.426,0,0,0-1.089.172q-1.047.541,2.57,7.529l-3.7,1.917q-1.285-3.054-5.159-10.539Q1253.412,416.54,1248.528,407.669Zm28.557,8.676,9.246,17.873,17.323-20.317Zm40.813-21.84a6.976,6.976,0,0,1,8.733-4.566,6.5,6.5,0,0,1,3.937,3.275,6.722,6.722,0,0,1,.5,5.2,6.625,6.625,0,0,1-3.5,4.079,6.93,6.93,0,0,1-5.176.5,6.3,6.3,0,0,1-4.093-3.34A6.613,6.613,0,0,1,1317.9,394.505Zm12.465,13.392a6.891,6.891,0,0,1,5.158-.443,6.313,6.313,0,0,1,4.122,3.3,6.923,6.923,0,0,1-3.032,9.224,6.735,6.735,0,0,1-5.264.475,6.462,6.462,0,0,1-4-3.311,6.776,6.776,0,0,1,3.021-9.243Z" fill="#fff"/>
        <path d="M1318.237,480.462q13.246-4.5,24.673,1.928t16.618,21.728a27.745,27.745,0,0,1-.065,18.6l6.861,3.858a2.571,2.571,0,0,1,1.284,1.351q.344,1.011-.027,1.407a5.023,5.023,0,0,1-1.81.884l-18.1,6.143a3.739,3.739,0,0,1-2.153.349q-.467-.225-1-1.8a3.535,3.535,0,0,1-.323-1.828q.159-.415,1.338-1a21.866,21.866,0,0,0,10.192-10.931,19.124,19.124,0,0,0,.486-13.843,28.177,28.177,0,0,0-5.611-9.911,19.512,19.512,0,0,0-7.8-5.543q-7.971-2.662-20.066,1.442-12.239,4.154-16.732,10.954a19.182,19.182,0,0,0-3.025,9.906,30.883,30.883,0,0,0,1.686,11.333,15.5,15.5,0,0,0,4.343,6.968,6.822,6.822,0,0,0,7.1,1.262l8.539-2.9-4.119-12.137,3.949-1.341q1.308,4.667,5.636,17.421,3.588,10.569,4.835,13.436l-3.949,1.34-2.29-6.747-16.95,5.753q-2.344.795-2.743-.377a15.279,15.279,0,0,1,.281-4.038,24.419,24.419,0,0,1,1.4-5.746q-6.873-2.541-10.76-13.86-5.375-15.84-.013-27.754T1318.237,480.462Z" fill="#fff"/>
        <path d="M1347.75,576.614q14.048-2.45,24.243,4.77t12.778,22.028q2.538,14.552-4.516,24.845t-21.273,12.773q-13.644,2.379-23.667-4.8t-12.62-22.079q-2.568-14.723,4.357-24.927T1347.75,576.614Zm3.661,13.166q-12.446,2.17-18.576,6.944a16.605,16.605,0,0,0-5.717,7.9,18.137,18.137,0,0,0-.742,8.884q1.678,9.63,10.922,13.355,7.372,2.859,20.674.54,12.1-2.111,17.663-6.873a16.626,16.626,0,0,0,5.026-7.69,18.792,18.792,0,0,0-2.739-16.722,16.342,16.342,0,0,0-6.8-5.5Q1364.028,587.579,1351.411,589.78Z" fill="#fff"/>
        <path d="M1333,673.283l16.194-.624a4.519,4.519,0,0,1,2.139.222q.446.287.5,1.807a5.619,5.619,0,0,1-.044,1.11,1.085,1.085,0,0,1-.324.643,1.146,1.146,0,0,1-.577.283,8.721,8.721,0,0,1-1.022.083,14.951,14.951,0,0,0-7.78,2.843,12.948,12.948,0,0,0-4.478,5.977,31.822,31.822,0,0,0-1.707,6.609,35.883,35.883,0,0,0-.285,6.164q.238,6.209,3.537,8.755a10.629,10.629,0,0,0,14.946-1.469,7.181,7.181,0,0,0,1.667-3.249q.372-1.766,1.734-8.185a89.822,89.822,0,0,1,2.513-11.183,17.616,17.616,0,0,1,3.926-6.152,16.766,16.766,0,0,1,11.7-5.276,17.116,17.116,0,0,1,12.862,4.7q5.328,4.992,5.7,14.632.351,9.114-4.19,15.448l4,4.066a3.157,3.157,0,0,1,1.009,1.795v.046q.046,1.145-.423,1.438a4.674,4.674,0,0,1-1.986.351l-16.28.627a3.922,3.922,0,0,1-2.054-.253q-.447-.315-.51-1.97a3.157,3.157,0,0,1,.236-1.81,4.433,4.433,0,0,1,1.983-.693,19.052,19.052,0,0,0,9.14-4.352,14.882,14.882,0,0,0,4.487-6.586,22.331,22.331,0,0,0,.877-7.313q-.226-5.876-3.2-8.364a9.317,9.317,0,0,0-6.506-2.353,8.219,8.219,0,0,0-5.991,2.619,11.455,11.455,0,0,0-2.906,5.336l-2.2,13.007a20.728,20.728,0,0,1-6.135,11.744,17.877,17.877,0,0,1-12.245,5.213,19.112,19.112,0,0,1-13.547-4.732q-5.908-5.027-6.314-15.563-.417-10.842,4.2-17.416l-4.217-4.305a3.2,3.2,0,0,1-.889-1.819q-.047-1.186.442-1.49A4.677,4.677,0,0,1,1333,673.283Z" fill="#fff"/>
        <path d="M1333.449,743.7l4.152.4-.93,9.557,52.453,5.106.93-9.557,4.151.4q-.588,3.349-1.8,15.824t-1.283,15.874l-4.15-.4.929-9.556-22.961-2.235-2.765,28.41,22.962,2.235.929-9.557,4.152.4q-.588,3.35-1.8,15.824t-1.283,15.874l-4.152-.405.931-9.556-52.454-5.105-.93,9.557-4.151-.4q.588-3.348,1.8-15.824t1.283-15.874l4.151.4-.93,9.556,25.34,2.466,2.765-28.41-25.34-2.466-.93,9.557-4.152-.4q.59-3.346,1.8-15.823T1333.449,743.7Z" fill="#fff"/>
      </g>
      <g>
        <path d="M1123.934,1220.542a32.434,32.434,0,0,1,6.572,23.408q-1.368,12.618-10.986,19.7-9.687,7.13-22.155,4.666a34.1,34.1,0,0,1-26.823-30.345,29.491,29.491,0,0,1,3.529-16.866,20.337,20.337,0,0,0-6.717-3.135,6.294,6.294,0,0,0-5.13,1.224,8.012,8.012,0,0,0-3.108,4.733,7.766,7.766,0,0,0,1.042,5.929q.8,1.375.181,1.834-.792.582-1.884-.9a24.133,24.133,0,0,1-2.289-3.868,31.846,31.846,0,0,1-1.863-5.06,10.833,10.833,0,0,1-.115-5.68,8.85,8.85,0,0,1,7.157-6.305,9.913,9.913,0,0,1,3.543.156,11.821,11.821,0,0,1,3.765,2.012,35.691,35.691,0,0,1,3.463,2.792q1.233,1.167,3.658,3.526a27.413,27.413,0,0,1,27.954-10.795A31.683,31.683,0,0,1,1123.934,1220.542Zm-7.068,5.2a46.713,46.713,0,0,0-8.695-9.224,23.959,23.959,0,0,0-8.335-4.522,28.091,28.091,0,0,0-6.532-1.064,15.851,15.851,0,0,0-4.893.625,9.082,9.082,0,0,1,3.451,2.668,7.427,7.427,0,0,1,1.425,5.329,6.667,6.667,0,0,1-2.851,4.862q-5,3.678-13.469-1.62-3.827,12.273,7.083,27.1a45.417,45.417,0,0,0,9.892,10.124,24.476,24.476,0,0,0,9.7,4.525,22.029,22.029,0,0,0,8.185.087,15.2,15.2,0,0,0,10.839-7.924,21.9,21.9,0,0,0,2.375-7.7,24.4,24.4,0,0,0-1.4-10.634A45.157,45.157,0,0,0,1116.866,1225.743Zm-26.554-10.376a7.423,7.423,0,0,0-1.447-1.46,4.885,4.885,0,0,0-2.569-.819,4.793,4.793,0,0,0-3.327,1.04,15.517,15.517,0,0,0-5.012,6.186q6.544,6.076,11.336,2.551a4.806,4.806,0,0,0,2.079-3.6A5.581,5.581,0,0,0,1090.312,1215.367Z" fill="#fff"/>
        <path d="M1075.02,1289.044l1.346,2.385q-2.81,1.291-11.42,6.152-8.533,4.82-11.092,6.558l-1.346-2.386,1.826-1.031q4.137-2.335,4.7-3.561t-.678-3.423l-16.4-29.05a26.6,26.6,0,0,0-6.284-7.823,12.771,12.771,0,0,0-6.485-3.042,17.2,17.2,0,0,0-5.216.12,13.414,13.414,0,0,0-3.885,1.433,15.794,15.794,0,0,0-7.624,10.395q-1.809,7.11,2.543,14.821l14.949,26.479a9.794,9.794,0,0,0,1.185,1.739,6.723,6.723,0,0,0,1.791,1.247,4.791,4.791,0,0,0,3.354.169,19.611,19.611,0,0,0,4.933-2.1l1.347,2.386q-8.46,4.48-9.327,4.97-.756.428-8.973,5.361l-1.347-2.385a21.051,21.051,0,0,0,4.365-3.1,4.452,4.452,0,0,0,1.57-2.949,7.5,7.5,0,0,0-.217-2.308,10.931,10.931,0,0,0-.973-2.127l-13.793-24.432a48.579,48.579,0,0,1-2.75-5.386,22.242,22.242,0,0,1-.694-14.419,17.464,17.464,0,0,1,8.463-10.83,21.512,21.512,0,0,1,16.677-2.106,20.91,20.91,0,0,1,13.342,10.356l16.233,28.752q1.241,2.2,2.6,2.34t5.458-2.173Z" fill="#fff"/>
        <path d="M992.737,1302.607a32.5,32.5,0,0,1,.794,24.33q-4.341,11.937-15.373,16.508-11.111,4.607-22.633-.78a32.519,32.519,0,0,1-16.64-17.737,31.563,31.563,0,0,1-.628-23.985q4.428-11.784,15.5-16.372,10.911-4.522,22.4.617A31.434,31.434,0,0,1,992.737,1302.607Zm-7.867,4.607a48.788,48.788,0,0,0-7.285-12.548,25.047,25.047,0,0,0-8.33-6.964,21.883,21.883,0,0,0-7.871-2.166,15.281,15.281,0,0,0-6.871,1.084,15.044,15.044,0,0,0-5.5,4,22.11,22.11,0,0,0-4.025,7,24.855,24.855,0,0,0-1.029,10.819,48.573,48.573,0,0,0,3.745,14.178,45.333,45.333,0,0,0,5.705,10.187,27.028,27.028,0,0,0,6.417,6.318,21.59,21.59,0,0,0,6.514,2.914,17.78,17.78,0,0,0,6.033.585,17.142,17.142,0,0,0,4.95-1.193,15.934,15.934,0,0,0,5.287-3.676,22.616,22.616,0,0,0,4.269-6.525,21.816,21.816,0,0,0,1.453-10.3A42.848,42.848,0,0,0,984.87,1307.214Z" fill="#fff"/>
        <path d="M913.329,1302.434l.736,2.638-2.019.564q-4.577,1.278-5.414,2.334t-.149,3.527l12.416,44.444q.679,2.431,1.963,2.894t5.82-.805l2.02-.564.736,2.638-26.5,7.4q-9.192,2.568-16.865-.155t-9.4-8.908q-1.324-4.74,1.8-9.613a25.517,25.517,0,0,1,9.109-8.277q-9.174-.549-13.035-6.891l-2.96-6.461q-1.01-2.34-1.581-3.514t-1.416-2.759a12.326,12.326,0,0,0-1.459-2.282,13.708,13.708,0,0,0-1.43-1.378,2.991,2.991,0,0,0-1.656-.759,5.218,5.218,0,0,0-1.874.213,5.09,5.09,0,0,0-3.1,2.732q-1.164,2.193-.366,6.324.216,1.407-.65,1.649-1.073.3-1.452-1.062a11.514,11.514,0,0,1-.39-2.668,14.543,14.543,0,0,1,.3-3.305,7.049,7.049,0,0,1,1.78-3.409,7.631,7.631,0,0,1,3.693-2.209q6.6-1.842,11.626.575a9.422,9.422,0,0,1,3.432,2.818,13.275,13.275,0,0,1,1.877,3.3q.561,1.53,1.528,4.994a35.025,35.025,0,0,0,2.485,6.9,9.314,9.314,0,0,0,3.885,3.492,11.231,11.231,0,0,0,8.68.686l9.688-2.706-5.955-21.318q-.679-2.43-1.949-2.917t-5.844.79l-2.021.564-.736-2.639q3.122-.6,12.395-3.191T913.329,1302.434Zm-7.628,34.26-9.357,2.615a23.207,23.207,0,0,0-7.218,3.193,9.533,9.533,0,0,0-3.615,4.32,12.552,12.552,0,0,0-.867,4.532,18.085,18.085,0,0,0,.724,4.663,19.045,19.045,0,0,0,2.111,5.009,7.89,7.89,0,0,0,3.092,2.958,17.839,17.839,0,0,0,3.491,1.359,10.6,10.6,0,0,0,4,.15q2.318-.293,3.866-.636t3.98-1.023a42.635,42.635,0,0,0,4.943-1.558,1.914,1.914,0,0,0,1.169-.9,2.1,2.1,0,0,0,.183-1.1,12.971,12.971,0,0,0-.4-1.734Z" fill="#fff"/>
        <path d="M842.193,1321.121l2.93,17.3a13.183,13.183,0,0,1,.179,1.315,1,1,0,0,1-.2.641,1.046,1.046,0,0,1-.716.382.928.928,0,0,1-1.2-.706q-1.7-8.5-7.628-12.352-5.835-3.821-14.479-2.356a10.754,10.754,0,0,0-7.8,5.156,12.967,12.967,0,0,0-1.761,9.16,12.2,12.2,0,0,0,4.083,7.5,11.1,11.1,0,0,0,3,1.985,10.978,10.978,0,0,0,2.518.852q.925.147,2.663.286,11.157.759,11.88.941a16.415,16.415,0,0,1,9.241,4.711,16.661,16.661,0,0,1,4.75,9.208,16.372,16.372,0,0,1-2.9,12.66,16.547,16.547,0,0,1-11.191,6.949,18.841,18.841,0,0,1-6.743-.009,15.822,15.822,0,0,1-4.58-1.415q-1.4-.8-3.617-2.295l-2.188,5.448q-.489,1.254-1.127,1.363-.689.116-.908-.259a5.928,5.928,0,0,1-.431-1.642l-2.945-17.386a13.165,13.165,0,0,1-.178-1.316.793.793,0,0,1,.229-.6,1.32,1.32,0,0,1,.76-.346q.861-.146,1.248.831,5.465,17.655,19.9,15.21a11.308,11.308,0,0,0,9.486-13.192,11.32,11.32,0,0,0-3.487-6.479,10.952,10.952,0,0,0-6.955-2.995l-11.506-.776a16.617,16.617,0,0,1-10.489-4.631,18.271,18.271,0,0,1-5.706-10.67,18.474,18.474,0,0,1,2.7-13.5,16.23,16.23,0,0,1,11.493-7.425,23.943,23.943,0,0,1,9.764.181,18.084,18.084,0,0,1,7.078,3.215q1.293-3.189,2.193-5l.189-.47q.5-1.264,1.153-1.374c.465-.079.763.015.9.282A6.75,6.75,0,0,1,842.193,1321.121Z" fill="#fff"/>
        <path d="M789.025,1329.118l.246,2.729-2.3.207q-4.9.442-5.961,1.332t-.828,3.445l4.141,45.96q.226,2.513,1.449,3.2t6.081.246l2.3-.207.245,2.729q-3.092.021-13.408.95-10.23.921-13.234,1.45l-.246-2.728,2.26-.2q4.9-.442,5.96-1.332t.832-3.4l-4.14-45.96q-.227-2.514-1.43-3.22t-6.1-.266l-2.26.2-.245-2.728q3.091-.016,13.366-.943Q785.979,1329.655,789.025,1329.118Z" fill="#fff"/>
        <path d="M749.864,1333.3l-.044,2.738a17.993,17.993,0,0,0-5.188.536,4.681,4.681,0,0,0-2.769,1.752,7.291,7.291,0,0,0-.952,1.952,9.282,9.282,0,0,0-.226,2.114l-.742,45.712q-.02,1.24.3,1.544a3.911,3.911,0,0,0,1.812.5q2.607.213,4.362.243l2.525.041-.044,2.738L734,1392.932a4.446,4.446,0,0,1-1.581-.2,3.46,3.46,0,0,1-.926-1l-30.2-45.959-.607,37.416a10.111,10.111,0,0,0,.137,2.1,6.8,6.8,0,0,0,.888,1.981,4.653,4.653,0,0,0,2.731,1.841,18.561,18.561,0,0,0,5.169.684l-.045,2.738q-9.2-.4-10.245-.423t-10.254.091l.045-2.739a18.59,18.59,0,0,0,5.188-.515,4.548,4.548,0,0,0,2.768-1.752,7.531,7.531,0,0,0,.952-1.972,9.121,9.121,0,0,0,.227-2.071l.784-48.371a6.331,6.331,0,0,1,.2-1.867q.178-.432,1.034-.418.6.011,1.479,1.2l34.925,53.117a8.83,8.83,0,0,0,.839,1.083l.738-45.542a10.345,10.345,0,0,0-.137-2.119,6.451,6.451,0,0,0-.887-1.981,4.785,4.785,0,0,0-2.732-1.841,17.956,17.956,0,0,0-5.168-.7l.044-2.739q9.2.409,10.245.427T749.864,1333.3Z" fill="#fff"/>
        <path d="M676.759,1331.9l-.309,2.722-2.084-.237q-4.72-.537-5.894.127t-1.464,3.212l-5.181,45.6q-.284,2.506.732,3.419t5.694,1.443l2.084.237-.309,2.722L621,1385.573l-.2-19.882,2.175.247a56.991,56.991,0,0,0,.49,8,13.105,13.105,0,0,0,2.1,5.386,9.989,9.989,0,0,0,4.624,3.649,30.7,30.7,0,0,0,7.959,1.788l11.225,1.275q2.976.338,3.684-.206t.964-2.8l2.373-20.881-7.826-.888q-6-.681-7.934,1.209t-2.619,7.886l-2.169-.246,2.619-23.05,2.169.247q-.67,5.91.788,8.231t7.456,3l7.825.889,2.639-23.225q.255-2.251-.334-2.942t-3.525-1.024l-11.615-1.319a37.925,37.925,0,0,0-6.544-.251,12.961,12.961,0,0,0-4.851,1.165,16.059,16.059,0,0,0-3.509,2.24,11.544,11.544,0,0,0-2.657,3.667,32.412,32.412,0,0,0-1.927,4.732q-.726,2.316-1.885,6l-2.149-.419,6.161-21.869Zm-30.834,64q-13.939,6.6-14.818,6.759a2.416,2.416,0,0,1-.731,0,2.627,2.627,0,0,1-1.971-1.279,3.441,3.441,0,0,1-.6-2.287q.285-2.511,4.03-2.774,12.241-2.315,13.475-2.56Z" fill="#fff"/>
        <path d="M610.562,1323.821l-.618,2.668a17.972,17.972,0,0,0-5.185-.562,4.673,4.673,0,0,0-3.074,1.133,7.227,7.227,0,0,0-1.34,1.71,9.316,9.316,0,0,0-.664,2.018l-10.3,44.544a2.336,2.336,0,0,0-.034,1.571,3.9,3.9,0,0,0,1.666.868q2.507.754,4.215,1.151l2.461.569-.618,2.669-14.511-3.356a4.46,4.46,0,0,1-1.5-.524,3.45,3.45,0,0,1-.7-1.171l-19.906-51.266-8.431,36.46a10.13,10.13,0,0,0-.306,2.08,6.83,6.83,0,0,0,.454,2.123,4.65,4.65,0,0,0,2.285,2.372,18.591,18.591,0,0,0,4.911,1.751l-.617,2.669q-8.909-2.323-9.93-2.56t-10.045-2.059l.617-2.669a18.592,18.592,0,0,0,5.181.583,4.55,4.55,0,0,0,3.074-1.133,7.524,7.524,0,0,0,1.344-1.731,9.043,9.043,0,0,0,.655-1.976l10.9-47.134a6.354,6.354,0,0,1,.589-1.783q.266-.386,1.1-.191.585.133,1.195,1.48l23.024,59.255a8.663,8.663,0,0,0,.593,1.235l10.262-44.377a10.452,10.452,0,0,0,.31-2.1,6.451,6.451,0,0,0-.453-2.124,4.782,4.782,0,0,0-2.286-2.372,17.981,17.981,0,0,0-4.9-1.772l.617-2.669q8.907,2.328,9.928,2.565T610.562,1323.821Z" fill="#fff"/>
        <path d="M539.889,1306.7l-.931,2.575q-7.383-2.487-11.216,2.2l-34.873,43.086a3.33,3.33,0,0,1-1.164,1.08,2.085,2.085,0,0,1-1.4-.144,3.36,3.36,0,0,1-.756-.364.959.959,0,0,1-.372-.544,4.09,4.09,0,0,1-.122-.544q-.021-.19-.045-.881l.826-57.93a4.317,4.317,0,0,0-1.009-3.377,14.608,14.608,0,0,0-4.847-2.454l-1.45-.524.932-2.576q5.1,2.122,10.7,4.144,8.9,3.217,11.963,4.048l-.931,2.576q-6.843-2.474-7.74.009a10.007,10.007,0,0,0-.179,1.249l-.185,14.109,20.368,7.363,7.7-9.352a3.369,3.369,0,0,0,.61-1.183,3.889,3.889,0,0,0-.539-3.546,7.843,7.843,0,0,0-4.14-2.9l.932-2.576q7.841,3.112,9.41,3.679Q534.127,1304.89,539.889,1306.7Zm-24.255,15.353-18.556-6.709-.393,30.169Z" fill="#fff"/>
        <path d="M471.479,1281.091l-1.229,2.448-1.874-.941q-4.246-2.131-5.576-1.914t-2.482,2.51l-20.7,41.241q-1.132,2.255-.492,3.461t4.847,3.319l1.874.941-1.229,2.448-24.6-12.348q-8.529-4.283-12.375-11.457t-.965-12.912q2.208-4.4,7.8-5.9a25.523,25.523,0,0,1,12.308,0q-6.42-6.574-5.012-13.866l2.155-6.772q.828-2.412,1.193-3.663t.809-3a12.3,12.3,0,0,0,.454-2.668,13.374,13.374,0,0,0-.131-1.982,2.985,2.985,0,0,0-.715-1.676,5.243,5.243,0,0,0-1.529-1.1,5.093,5.093,0,0,0-4.135-.065q-2.336.84-4.524,4.434-.786,1.187-1.59.782-.995-.5-.361-1.762a11.521,11.521,0,0,1,1.506-2.236,14.563,14.563,0,0,1,2.445-2.245,7.041,7.041,0,0,1,3.61-1.325,7.614,7.614,0,0,1,4.219.849q6.12,3.073,8.217,8.245a9.418,9.418,0,0,1,.644,4.393,13.3,13.3,0,0,1-.83,3.7q-.613,1.511-2.228,4.724a35.051,35.051,0,0,0-2.805,6.781,9.317,9.317,0,0,0,.527,5.2,11.229,11.229,0,0,0,5.962,6.346l8.989,4.514,9.931-19.782q1.132-2.255.52-3.469T449.25,1273l-1.874-.941,1.229-2.448q2.715,1.655,11.32,5.975T471.479,1281.091Zm-28.687,20.223-8.683-4.359a23.235,23.235,0,0,0-7.49-2.491,9.537,9.537,0,0,0-5.581.766,12.578,12.578,0,0,0-3.689,2.77,18.14,18.14,0,0,0-2.6,3.938,19.071,19.071,0,0,0-1.808,5.127,7.909,7.909,0,0,0,.3,4.27,17.91,17.91,0,0,0,1.67,3.352,10.608,10.608,0,0,0,2.857,2.8q1.912,1.344,3.289,2.13t3.633,1.92a42.637,42.637,0,0,0,4.706,2.171,1.917,1.917,0,0,0,1.473.117,2.1,2.1,0,0,0,.872-.687,12.578,12.578,0,0,0,.874-1.549Z" fill="#fff"/>
        <path d="M408.378,1247.952l-1.445,2.327-1.963-1.219q-4.181-2.6-5.562-2.525t-2.735,2.253l-24.356,39.195q-1.331,2.144-.767,3.426t4.708,3.857l1.963,1.219-1.446,2.327q-2.481-1.843-11.279-7.311-8.726-5.421-11.442-6.807l1.446-2.327,1.927,1.2q4.18,2.6,5.561,2.525t2.713-2.217l24.355-39.2q1.332-2.145.8-3.432t-4.716-3.887l-1.927-1.2,1.446-2.327q2.48,1.848,11.241,7.292Q405.623,1246.547,408.378,1247.952Z" fill="#fff"/>
        <path d="M373,1225.76l-10.391,14.14q-.584.793-.82,1.044a1,1,0,0,1-.6.305,1.044,1.044,0,0,1-.773-.249.929.929,0,0,1-.331-1.356q4.928-7.139,3.568-14.073-1.314-6.847-8.379-12.04a10.754,10.754,0,0,0-9.131-2.017,12.972,12.972,0,0,0-7.807,5.106,12.215,12.215,0,0,0-2.546,8.151,11.153,11.153,0,0,0,.657,3.532,10.961,10.961,0,0,0,1.14,2.4q.539.766,1.648,2.112,7.215,8.543,7.589,9.189a16.424,16.424,0,0,1,3.043,9.917,16.664,16.664,0,0,1-3.311,9.817,16.374,16.374,0,0,1-11.108,6.726,16.555,16.555,0,0,1-12.779-3.2,18.843,18.843,0,0,1-4.683-4.85,15.854,15.854,0,0,1-2.17-4.275q-.4-1.566-.867-4.195l-5.436,2.218q-1.24.522-1.763.138-.562-.414-.444-.832a5.9,5.9,0,0,1,.878-1.452l10.443-14.209a13,13,0,0,1,.82-1.044.794.794,0,0,1,.593-.255,1.316,1.316,0,0,1,.777.306,1.081,1.081,0,0,1,.271,1.473q-8.882,16.206,2.914,24.875a11.308,11.308,0,0,0,16.076-2.362,11.316,11.316,0,0,0,2.229-7.013,10.955,10.955,0,0,0-2.686-7.078l-7.447-8.808a16.609,16.609,0,0,1-3.97-10.755,18.274,18.274,0,0,1,3.7-11.522,18.478,18.478,0,0,1,11.575-7.456,16.23,16.23,0,0,1,13.33,3.092,23.99,23.99,0,0,1,6.662,7.14,18.063,18.063,0,0,1,2.613,7.322q3.192-1.292,5.12-1.906l.468-.19q1.257-.519,1.79-.128c.38.278.519.56.422.841A6.757,6.757,0,0,1,373,1225.76Z" fill="#fff"/>
      </g>
    </g>
  </g>
</svg>
