<?xml version="1.0" encoding="UTF-8"?><svg xmlns="http://www.w3.org/2000/svg" viewBox="0 0 843.55 285.45" width="843.55" height="285.45"><defs><style>.d{fill:#12afa7;}</style></defs><g id="a"/><g id="b"><g id="c"><g><path class="d" d="M110.98,50.52H60.46C27.12,50.52,0,77.64,0,110.98v63.49c0,33.34,27.12,60.46,60.46,60.46s60.46-27.12,60.46-60.46v-63.49c0-15.61-5.94-29.85-15.69-40.59h5.75c22.38,0,40.59,18.21,40.59,40.59v63.49c0,22.38-18.21,40.59-40.59,40.59v19.87c33.34,0,60.46-27.12,60.46-60.46v-63.49c0-33.34-27.12-60.46-60.46-60.46Zm-9.94,123.95c0,22.38-18.21,40.59-40.59,40.59s-40.59-18.21-40.59-40.59v-63.49c0-22.38,18.21-40.59,40.59-40.59s40.59,18.21,40.59,40.59v63.49Z"/><path class="d" d="M237.29,50.52c-33.34,0-60.46,27.12-60.46,60.46v63.49c0,33.34,27.12,60.46,60.46,60.46,15.61,0,29.85-5.94,40.59-15.69v5.75c0,22.38-18.21,40.59-40.59,40.59s-40.59-18.21-40.59-40.59h-19.87c0,33.34,27.12,60.46,60.46,60.46s60.46-27.12,60.46-60.46V110.98c0-33.34-27.12-60.46-60.46-60.46Zm40.59,123.95c0,22.38-18.21,40.59-40.59,40.59s-40.59-18.21-40.59-40.59v-63.49c0-22.38,18.21-40.59,40.59-40.59s40.59,18.21,40.59,40.59v63.49Z"/><path class="d" d="M489.9,234.93v-19.87c22.38,0,40.59-18.21,40.59-40.59v-63.49c0-22.38-18.21-40.59-40.59-40.59s-40.59,18.21-40.59,40.59h-19.87c0-33.34,27.12-60.46,60.46-60.46s60.46,27.12,60.46,60.46v63.49c0,33.34-27.12,60.46-60.46,60.46Z"/><path class="d" d="M616.2,234.93c-33.34,0-60.46-27.12-60.46-60.46h19.87c0,22.38,18.21,40.59,40.59,40.59s40.59-18.21,40.59-40.59v-63.49c0-22.38-18.21-40.59-40.59-40.59s-40.59,18.21-40.59,40.59h-19.87c0-33.34,27.12-60.46,60.46-60.46s60.46,27.12,60.46,60.46v63.49c0,33.34-27.12,60.46-60.46,60.46Z"/><path class="d" d="M843.55,70.39v-19.87c-21.1,0-39.7,10.88-50.52,27.31-10.82-16.43-29.42-27.31-50.52-27.31-33.34,0-60.46,27.12-60.46,60.46v63.49c0,33.34,27.12,60.46,60.46,60.46,21.1,0,39.7-10.88,50.52-27.31,10.82,16.43,29.42,27.31,50.52,27.31v-19.87c-22.38,0-40.59-18.21-40.59-40.59v-63.49c0-22.38,18.21-40.59,40.59-40.59Zm-60.46,104.08c0,22.38-18.21,40.59-40.59,40.59s-40.59-18.21-40.59-40.59v-63.49c0-22.38,18.21-40.59,40.59-40.59s40.59,18.21,40.59,40.59v63.49Z"/><path class="d" d="M391.07,57.16c4.82-6.02,7.72-13.66,7.72-21.96,0-19.41-15.79-35.2-35.2-35.2s-35.2,15.79-35.2,35.2c0,8.3,2.89,15.93,7.72,21.96-19.56,10.02-32.98,30.38-32.98,53.83v63.49c0,33.34,27.12,60.46,60.46,60.46,15.61,0,29.85-5.94,40.59-15.69v5.75c0,22.38-18.21,40.59-40.59,40.59s-40.59-18.21-40.59-40.59h-19.87c0,33.34,27.12,60.46,60.46,60.46s60.46-27.12,60.46-60.46V110.98c0-23.45-13.42-43.8-32.98-53.83Zm-42.8-21.96c0-8.45,6.87-15.33,15.33-15.33s15.33,6.87,15.33,15.33-6.87,15.33-15.33,15.33-15.33-6.87-15.33-15.33Zm15.33,179.86c-22.38,0-40.59-18.21-40.59-40.59v-63.49c0-22.38,18.21-40.59,40.59-40.59s40.59,18.21,40.59,40.59v63.49c0,22.38-18.21,40.59-40.59,40.59Z"/></g></g></g></svg>