<?xml version="1.0" encoding="utf-8"?>
<!-- Generator: Adobe Illustrator 26.2.1, SVG Export Plug-In . SVG Version: 6.00 Build 0)  -->
<svg version="1.1" id="레이어_1" xmlns="http://www.w3.org/2000/svg" xmlns:xlink="http://www.w3.org/1999/xlink" x="0px"
	 y="0px" viewBox="0 0 36 36" style="enable-background:new 0 0 36 36;" xml:space="preserve">
<style type="text/css">
	.st0{fill:#FDDE59;}
	.st1{fill:#6CCCCC;}
	.st2{fill:#2C2C2C;}
</style>
<path class="st0" d="M36,9v18c0,2.2-1.8,4-4,4H4c-2.2,0-4-1.8-4-4V9c0-2.2,1.8-4,4-4h28C34.2,5,36,6.8,36,9z"/>
<g>
	<path class="st1" d="M36,9v18c0,2.2-1.8,4-4,4H4c-2.2,0-4-1.8-4-4V9c0-2.2,1.8-4,4-4h28C34.2,5,36,6.8,36,9z"/>
	<path class="st2" d="M17.9,17c0-0.3-0.3-0.4-0.5-0.4h-0.7c-0.2,0-0.4-0.1-0.5-0.3c0-0.1-0.1-0.3-0.2-0.4c-0.1-0.2,0-0.4,0.1-0.6
		l0.5-0.5c0.2-0.2,0.2-0.5,0.1-0.7c-0.4-0.5-0.9-1-1.4-1.4c-0.2-0.2-0.5-0.1-0.7,0.1l-0.5,0.5c-0.2,0.2-0.4,0.2-0.6,0.1
		c-0.1-0.1-0.3-0.1-0.4-0.2c-0.2-0.1-0.3-0.3-0.3-0.5v-0.7c0-0.3-0.2-0.5-0.4-0.5c-0.3,0-0.6-0.1-1-0.1s-0.7,0-1,0.1
		c-0.3,0-0.4,0.3-0.4,0.5v0.7c0,0.2-0.1,0.4-0.3,0.5c-0.1,0-0.3,0.1-0.4,0.2c-0.2,0.1-0.4,0-0.6-0.1l-0.5-0.5
		c-0.2-0.2-0.5-0.2-0.7-0.1c-0.5,0.4-1,0.9-1.4,1.4c-0.2,0.2-0.1,0.5,0.1,0.7l0.5,0.5c0.2,0.2,0.2,0.4,0.1,0.6
		c-0.1,0.1-0.1,0.3-0.2,0.4c-0.1,0.2-0.3,0.3-0.5,0.3H5.6c-0.3,0-0.5,0.2-0.5,0.4C5,17.3,5,17.7,5,18s0,0.7,0.1,1
		c0,0.3,0.3,0.4,0.5,0.4h0.7c0.2,0,0.4,0.1,0.5,0.3c0,0.1,0.1,0.3,0.2,0.4c0.1,0.2,0,0.4-0.1,0.6l-0.5,0.5c-0.2,0.2-0.2,0.5-0.1,0.7
		c0.4,0.5,0.9,1,1.4,1.4c0.2,0.2,0.5,0.1,0.7-0.1l0.5-0.5c0.2-0.2,0.4-0.2,0.6-0.1c0.1,0.1,0.3,0.1,0.4,0.2c0.2,0.1,0.3,0.3,0.3,0.5
		v0.7c0,0.3,0.2,0.5,0.4,0.5c0.3,0,0.6,0.1,1,0.1c0.3,0,0.7,0,1-0.1c0.3,0,0.4-0.3,0.4-0.5v-0.7c0-0.2,0.1-0.4,0.3-0.5
		c0.1,0,0.3-0.1,0.4-0.2c0.2-0.1,0.4,0,0.6,0.1l0.5,0.5c0.2,0.2,0.5,0.2,0.7,0.1c0.5-0.4,1-0.9,1.4-1.4c0.2-0.2,0.1-0.5-0.1-0.7
		l-0.5-0.5c-0.2-0.2-0.2-0.4-0.1-0.6c0.1-0.1,0.1-0.3,0.2-0.4c0.1-0.2,0.3-0.3,0.5-0.3h0.7c0.3,0,0.5-0.2,0.5-0.4
		c0-0.3,0.1-0.6,0.1-1S18,17.3,17.9,17L17.9,17z M13.6,18.1c0,0.5-0.2,0.9-0.5,1.3c-0.1,0.1-0.1,0.1-0.2,0.2
		c-0.3,0.3-0.8,0.5-1.3,0.5c0,0-0.1,0-0.1,0c0,0-0.1,0-0.1,0c-0.5,0-0.9-0.2-1.3-0.5c-0.1-0.1-0.1-0.1-0.2-0.2
		c-0.3-0.3-0.5-0.8-0.5-1.3c0,0,0-0.1,0-0.1s0-0.1,0-0.1c0-0.5,0.2-0.9,0.5-1.3c0.1-0.1,0.1-0.1,0.2-0.2c0.3-0.3,0.8-0.5,1.3-0.5
		c0,0,0.1,0,0.1,0c0,0,0.1,0,0.1,0c0.5,0,0.9,0.2,1.3,0.5c0.1,0.1,0.1,0.1,0.2,0.2c0.3,0.3,0.5,0.8,0.5,1.3c0,0,0,0.1,0,0.1
		S13.6,18.1,13.6,18.1z"/>
</g>
</svg>
