<?xml version="1.0" encoding="UTF-8"?>
<svg id="a" data-name="레이어 1" xmlns="http://www.w3.org/2000/svg" width="1920" height="1280" viewBox="0 0 1920 1280">
  <rect width="1920" height="1280" fill="#6ccccc"/>
  <path d="M956.442,592.137c-1.865-12.428-12.588-21.597-25.155-21.597h-32.452c-10.69,0-20.328-6.607-24.008-16.643-2.388-6.511-5.038-12.895-7.94-19.139-4.478-9.634-2.363-21.052,5.149-28.564l23.034-23.034c8.89-8.89,9.975-22.957,2.507-33.071-19.046-25.791-41.875-48.62-67.666-67.666-10.114-7.469-24.181-6.384-33.071,2.507l-23.034,23.034c-7.512,7.512-18.93,9.627-28.564,5.149-6.244-2.902-12.628-5.553-19.139-7.94-10.037-3.68-16.643-13.318-16.643-24.008v-32.452c0-12.567-9.169-23.29-21.597-25.154-15.614-2.343-31.598-3.558-47.862-3.558s-32.248,1.215-47.863,3.558c-12.428,1.865-21.597,12.587-21.597,25.154v32.452c0,10.69-6.607,20.328-16.643,24.008-6.511,2.387-12.895,5.038-19.139,7.94-9.634,4.478-21.052,2.363-28.564-5.149l-23.034-23.034c-8.89-8.89-22.958-9.975-33.071-2.507-25.791,19.045-48.62,41.875-67.666,67.666-7.469,10.114-6.384,24.181,2.507,33.071l23.033,23.034c7.512,7.512,9.627,18.93,5.149,28.564-2.902,6.244-5.553,12.628-7.94,19.139-3.68,10.037-13.318,16.643-24.008,16.643h-32.452c-12.567,0-23.29,9.169-25.154,21.597-2.343,15.614-3.558,31.598-3.558,47.863s1.215,32.248,3.558,47.863c1.865,12.428,12.587,21.597,25.154,21.597h32.452c10.69,0,20.328,6.607,24.008,16.643,2.387,6.511,5.038,12.895,7.94,19.139,4.478,9.634,2.363,21.052-5.149,28.564l-23.033,23.034c-8.89,8.89-9.975,22.957-2.507,33.071,19.046,25.791,41.875,48.62,67.666,67.666,10.114,7.469,24.181,6.384,33.071-2.507l23.033-23.034c7.512-7.512,18.93-9.627,28.564-5.149,6.244,2.902,12.628,5.553,19.139,7.94,10.036,3.68,16.643,13.318,16.643,24.008v32.452c0,12.567,9.169,23.29,21.597,25.154,15.614,2.343,31.598,3.558,47.863,3.558s32.248-1.215,47.862-3.558c12.428-1.865,21.597-12.587,21.597-25.154v-32.452c0-10.69,6.607-20.328,16.643-24.008,6.511-2.387,12.895-5.038,19.139-7.94,9.634-4.478,21.052-2.363,28.564,5.149l23.034,23.034c8.89,8.89,22.957,9.975,33.071,2.507,25.791-19.046,48.62-41.875,67.666-67.666,7.469-10.114,6.383-24.181-2.507-33.071l-23.034-23.034c-7.512-7.512-9.627-18.93-5.149-28.564,2.902-6.244,5.553-12.628,7.94-19.139,3.68-10.036,13.318-16.643,24.008-16.643h32.452c12.567,0,23.29-9.169,25.155-21.597,2.343-15.614,3.558-31.598,3.558-47.863s-1.215-32.248-3.558-47.863Zm-211.6,54.475c-1.495,24.031-11.069,45.878-26.042,62.848-2.91,3.31-6.031,6.431-9.341,9.341-16.969,14.973-38.816,24.547-62.847,26.042-2.185,.131-4.391,.203-6.612,.203s-4.427-.073-6.612-.203c-24.032-1.495-45.878-11.069-62.848-26.042-3.31-2.91-6.431-6.031-9.341-9.341-14.973-16.969-24.547-38.816-26.042-62.848-.131-2.185-.203-4.391-.203-6.612s.073-4.427,.203-6.612c1.495-24.031,11.069-45.878,26.042-62.847,2.911-3.31,6.032-6.431,9.341-9.341,16.969-14.973,38.816-24.547,62.848-26.042,2.185-.131,4.391-.203,6.612-.203s4.427,.073,6.612,.203c24.031,1.495,45.878,11.068,62.847,26.042,3.31,2.91,6.431,6.031,9.341,9.341,14.973,16.969,24.547,38.816,26.042,62.847,.131,2.185,.203,4.391,.203,6.612s-.073,4.427-.203,6.612Z" fill="#2c2c2c"/>
</svg>