<?xml version="1.0" encoding="utf-8"?>
<!-- Generator: Adobe Illustrator 28.1.0, SVG Export Plug-In . SVG Version: 6.00 Build 0)  -->
<svg version="1.1" id="a" xmlns="http://www.w3.org/2000/svg" xmlns:xlink="http://www.w3.org/1999/xlink" x="0px" y="0px"
	 width="1440px" height="1440px" viewBox="0 0 1440 1440" style="enable-background:new 0 0 1440 1440;" xml:space="preserve">
<style type="text/css">
	.st0{fill:#123E84;}
	.st1{fill:#FFFFFF;}
	.st2{fill:#E25A34;}
</style>
<rect x="0.9" class="st0" width="1440" height="1440"/>
<g>
	<path class="st1" d="M273.5,810.4c-20.3-2.4-37-6.1-50.2-11.2c-13.2-5.1-24.1-12.2-32.8-21.2c-8.7-9.1-17.3-21.2-26-36.6
		c-5.5-9.1-11.4-17.6-17.7-25.7c-6.3-8.1-12-14.9-17.1-20.4c-25.6-3.5-49.7-11.6-72.3-24.2c-22.6-12.6-42.5-28.3-59.6-47.2
		s-30.6-40.5-40.4-64.9c-9.8-24.4-14.8-50.2-14.8-77.3c0-33.4,6.8-63.7,20.4-90.9c13.6-27.2,31-50.4,52.2-69.6
		c21.2-19.3,45.1-34.1,71.4-44.6c26.4-10.4,52.1-15.6,77.3-15.6c27.2,0,54,5.1,80.6,15.3c26.6,10.2,50.2,24.8,70.8,43.7
		c20.7,18.9,37.4,41.8,50.2,68.8c12.8,27,19.2,57.4,19.2,91.2c0,29.5-6,57.5-18,84.1c-12,26.6-28.1,49.9-48.4,69.9
		c-20.3,20.1-43.7,35.9-70.2,47.5s-54.6,17.4-84.1,17.4c-7.5,0-14.2-0.6-20.1-1.8c3.9,4.3,7.8,7.9,11.5,10.6c3.7,2.7,8.5,5,14.2,6.8
		c5.7,1.8,12.5,3.2,20.4,4.4c7.9,1.2,17.9,2.4,30.1,3.5c19.7,2,34.5,7.5,44.6,16.5c10,9,18.8,20.3,26.3,33.6
		c3.9,7.1,7.4,12.9,10.3,17.4c3,4.5,6.5,8.2,10.6,10.9c4.1,2.7,9.2,4.6,15.3,5.6c6.1,1,14.3,1.5,24.5,1.5v8.3
		C319.8,814.7,293.7,812.7,273.5,810.4L273.5,810.4z M45.9,583.4c4.7,27,12.1,48.4,22.1,64.3s23,27.1,39,33.3
		c15.9,6.3,34.9,9.4,57,9.4c29.1,0,51.9-5.4,68.5-16.2c16.5-10.8,28.9-25.8,37.2-44.9c8.3-19.1,13.5-41.7,15.6-67.9
		c2.2-26.2,3.2-54.6,3.2-85.3c0-27.5-0.9-53.8-2.7-78.8c-1.8-25-6.8-47-15.1-66.1c-8.3-19.1-20.8-34.2-37.5-45.4
		c-16.7-11.2-39.8-16.8-69.4-16.8c-27.5,0-49.6,5.2-66.1,15.6c-16.5,10.4-29.1,25.1-37.8,44C51.4,347.6,45.7,370,43,396
		c-2.8,26-4.1,54.5-4.1,85.6C38.8,522.5,41.2,556.5,45.9,583.4L45.9,583.4z"/>
	<path class="st1" d="M485.5,705.5v8.3h-54.3v265c0,18.5,0.9,36.5,2.7,54c1.8,17.5,5.9,33.2,12.4,46.9c6.5,13.8,16.1,24.9,28.9,33.3
		c12.8,8.5,30,12.7,51.6,12.7c21.2,0,39-2.5,53.4-7.4c14.4-4.9,26.3-11.4,35.7-19.5c9.4-8.1,16.7-17.1,21.8-27.2
		c5.1-10,8.9-20.1,11.2-30.1c2.4-10,3.7-19.5,4.1-28.3c0.4-8.9,0.6-16.2,0.6-22.1V713.8H600v-8.3h118v8.3h-54.9v276.8
		c0,6.3-0.2,14.3-0.6,23.9c-0.4,9.6-2,19.8-4.7,30.4c-2.8,10.6-6.9,21.2-12.4,31.9c-5.5,10.6-13.6,20.2-24.2,28.6
		c-10.6,8.5-24,15.3-40.1,20.7c-16.1,5.3-36,8-59.6,8c-38.2,0-68.9-4.2-92.1-12.7c-23.2-8.5-41-19.5-53.4-33.1
		c-12.4-13.6-20.6-29-24.5-46.3c-3.9-17.3-5.9-34.8-5.9-52.5V713.8h-54.9v-8.3L485.5,705.5L485.5,705.5z"/>
	<path class="st1" d="M692.7,637.5c13.6-27.2,31-50.4,52.2-69.6c21.2-19.3,45.1-34.1,71.4-44.6c26.4-10.4,52.1-15.6,77.3-15.6
		c27.2,0,54,5.1,80.6,15.3c26.6,10.2,50.2,24.8,70.8,43.7c20.7,18.9,37.4,41.8,50.2,68.8c12.8,27,19.2,57.4,19.2,91.2
		c0,29.5-6,57.5-18,84.1c-12,26.6-28.1,49.9-48.4,69.9c-20.3,20.1-43.7,35.9-70.2,47.5c-26.6,11.6-54.6,17.4-84.1,17.4
		c-29.1,0-57.1-5.6-83.8-16.8c-26.8-11.2-50.3-26.6-70.5-46c-20.3-19.5-36.5-42.4-48.7-68.8c-12.2-26.4-18.3-54.9-18.3-85.6
		C672.3,695,679.1,664.7,692.7,637.5L692.7,637.5z M775.6,830.2c4.7,27,12.1,48.4,22.1,64.3s23,27.1,39,33.3
		c15.9,6.3,34.9,9.4,57,9.4c29.1,0,51.9-5.4,68.5-16.2c16.5-10.8,28.9-25.8,37.2-44.9c8.3-19.1,13.5-41.7,15.6-67.9
		c2.2-26.2,3.2-54.6,3.2-85.3c0-27.5-0.9-53.8-2.7-78.8c-1.8-25-6.8-47-15.1-66.1c-8.3-19.1-20.8-34.2-37.5-45.4
		c-16.7-11.2-39.8-16.8-69.4-16.8c-27.5,0-49.6,5.2-66.1,15.6c-16.5,10.4-29.1,25.1-37.8,44c-8.7,18.9-14.4,41.3-17.1,67.3
		c-2.8,26-4.1,54.5-4.1,85.6C768.6,769.4,770.9,803.3,775.6,830.2L775.6,830.2z M915.5,371.3l63.7,116.3h-7.1l-78.5-75l-78.5,75
		h-7.1l64.3-116.3H915.5L915.5,371.3z"/>
	<path class="st1" d="M1238.2,853.2v8.3h-46.6l120.4,206l108.6-206h-51.4v-8.3h112.7v8.3h-51.4l-113.9,216.6v187.1h54.9v8.3h-194.8
		v-8.3h54.3v-164.7l-136.9-239h-46v-8.3H1238.2L1238.2,853.2z"/>
</g>
<g>
	<rect x="623.5" class="st2" width="192.7" height="437.9"/>
	<path class="st1" d="M677.2,287.6c0.1,0.4,0.5,1,0.7,0.9c0,0,0,0,0-0.1c0.1,0-0.1,0-0.2,0c-8.5,5.5-21.1,26.9-14.8,36.5
		c2.8,4.7,10.9,7.4,16.1,9.7c8.9,3.9,16.8,10,22.6,17.7c3.1,4,5.5,8.8,5.3,14.2c-0.1,6.1-6.2,10.5-12,9.3c-8-1.3-12.1-8.8-15.6-15.2
		c-3.1-5.3-1.3-10.5,3-14.2c12-11.7,29.4-13.9,43.4-22c11.7-6.9-0.9-20.4-9.1-24.2c-8.3-3.6-12-3.4-7.9,5c3.1,6.2,8,11,11.5,17.2
		c2.4,4.2,4.3,9.1,3.8,14.4c0,5.2-6.2,13.4,0.3,16.1c6,1.5,13.5-0.7,19.6-1.5l13.7-2.2c12.1-1.6,29-5.1,29.7-19.9
		c-0.3-12.3-4.2-29.1-17.1-33.8l1.1-1.2c2.2,5,8.3,7.5,9.6,13.3c2.4,11-13.1,19-20.1,25.2l-13,10.1l-0.1,0.1l-0.3-1.6
		c12.7,3.3,26.1,7.1,38.7,10.9c9.7,2.2,6.3,9.7,1.3,15.1c-5.2,5.8-12,9.8-18.9,12.9c-10.1,4.4-20.4,8-31,10.7
		c-5.2,1.5-13,2.5-18.5-0.1l-4.8-2c-12.5-4.5-24.6,5.5-34.6,13.1c-0.1,0.1-0.2,0.2-0.3,0.2c-0.5,0.4-1.4,0-1.4-0.7
		c0.4-20.6-4.6-44.4-22.9-56.5c-1.3-0.9-1.6-0.2-2.2,1.3c-2,7.4,5,12.5,11.1,15.5c1.6,0.8,2.2,2.8,1.3,4.4c-0.9,1.8-3.4,2.3-4.9,0.9
		c-3-2.5-6.4-5.3-8.8-9c-2.4-3.8-3.5-8.7-1.7-13c1.1-2.8,3.7-4.6,6.6-2.5c4.9,3.6,8.9,8.2,12.1,13.3c4.2,6.7,7,14.3,8.6,22
		c1.6,7.7,2.2,15.6,2.5,23.4l-1.5-0.6c4-6.1,8.6-12,15.2-16.5c8.8-6,19.4-6.8,29-1.9c4.5,1.8,8,1.1,13-0.1
		c6.8-1.7,13.5-3.7,20.1-5.9c11.1-4,22.7-7.7,29.7-17.4c0.3-0.4,0.5-1,0.5-0.8c0,0.1,0.1,0.4,0.3,0.6c0.2,0.2,0.3,0.3,0.2,0.2
		c-11.8-4.6-27.9-10.9-39.4-15.9c-0.8-0.2-0.8-1.3-0.1-1.6c4.2-3.3,15.3-12,19.4-15.2c5.6-4.6,14.4-10,13-18.3
		c-1.4-5.3-7.4-7.8-9.6-13c-0.4-0.7,0.5-1.6,1.2-1.2c4.7,1.3,8.7,4.6,11.5,8.5c4.2,5.9,6.4,12.8,7.7,19.9
		c4.5,21.8-13.8,28.9-31.7,31.1c-4.6,0.8-16.1,2.7-20.5,3.5c-4.9,0.8-9.7,1.8-14.8,0.4c-2.9-0.7-5.5-3.7-5.8-6.7
		c-1.1-5.2,2.1-9.6,2.5-14.1c0.4-4-1-8.2-3.1-12c-3.8-7-10.1-13.3-12.5-21.2c-0.9-2.7-0.6-6.9,2.6-8.2c4.1-1.2,7.8,0.9,11.3,2.4
		c10.1,4.8,22.7,21,9.1,29c-13.8,8-31.2,10.6-42.6,22.2c-1.6,1.5-2.9,3.2-3.3,5c-0.4,1.7,0.1,3.6,1.2,5.5c2.1,3.6,4.6,7.8,7.8,10.5
		c4.1,3.8,12.4,3.5,12.6-3.3c0.1-6.4-4.8-11.8-9.2-16c-3.2-3-6.8-5.7-10.7-7.8c-5.9-3.4-13.1-4.9-19.2-8.6
		c-13.3-7.6-9.8-24-4.1-35.4c2.2-4.4,4.9-8.6,8.1-12.5c2.5-2.9,5.3-6.2,9.8-6.6c3.8-0.3,7.9,2,8.8,6
		C687.3,291.7,678.7,293.5,677.2,287.6L677.2,287.6L677.2,287.6z"/>
</g>
</svg>
