<?xml version="1.0" encoding="UTF-8"?>
<svg id="a" data-name="레이어 1" xmlns="http://www.w3.org/2000/svg" width="1500" height="500" viewBox="0 0 1500 500">
  <rect width="1500" height="500" fill="#fff"/>
  <g>
    <g>
      <rect x="686.904" y="57.076" width="126.192" height="189.288" fill="#123e84"/>
      <g>
        <path d="M703.913,140.591c2.74-1.197,5.154-2.831,7.245-4.9,2.09-2.07,3.753-4.475,4.992-7.214,1.237-2.739,1.856-5.631,1.856-8.675,0-3.49-.66-6.626-1.978-9.406-1.32-2.78-3.044-5.144-5.175-7.092-2.131-1.948-4.566-3.449-7.305-4.505-2.739-1.055-5.51-1.583-8.31-1.583-2.597,0-5.256,.538-7.975,1.613-.12,.047-.24,.096-.359,.145v1.878c.464-.436,.968-.826,1.516-1.172,1.704-1.074,3.977-1.613,6.818-1.613,3.044,0,5.428,.578,7.154,1.735,1.725,1.157,3.013,2.72,3.866,4.688,.853,1.969,1.37,4.241,1.552,6.819,.183,2.577,.274,5.287,.274,8.127,0,3.165-.112,6.098-.335,8.797-.223,2.699-.761,5.033-1.613,7.001-.853,1.969-2.13,3.511-3.835,4.626-1.705,1.117-4.059,1.675-7.062,1.675-2.273,0-4.231-.324-5.874-.974-.914-.361-1.734-.875-2.46-1.545v1.761c1.541,.601,3.142,1.016,4.803,1.245,.527,.568,1.116,1.268,1.766,2.101,.648,.832,1.258,1.714,1.826,2.648,.892,1.583,1.785,2.84,2.678,3.774,.892,.933,2.019,1.663,3.379,2.192,1.359,.527,3.084,.913,5.175,1.157,1.956,.228,4.438,.42,7.444,.577,.205,.011,.413,.021,.622,.032v-.852c-.216,0-.424-.003-.622-.006-.77-.018-1.404-.067-1.904-.146-.629-.102-1.157-.294-1.583-.578-.426-.284-.791-.66-1.095-1.126-.305-.467-.661-1.066-1.066-1.796-.771-1.38-1.674-2.537-2.709-3.47-1.035-.934-2.568-1.502-4.596-1.704-1.258-.122-2.293-.244-3.105-.365-.812-.122-1.513-.273-2.101-.457-.589-.182-1.075-.416-1.461-.7-.386-.284-.782-.649-1.187-1.095,.609,.122,1.299,.182,2.07,.182,3.044,0,5.935-.599,8.675-1.796Z" fill="#fff"/>
        <path d="M728.403,143.08v.852h-5.601v27.334c0,1.908,.091,3.765,.274,5.57,.183,1.806,.609,3.42,1.278,4.84,.67,1.421,1.664,2.567,2.983,3.44,1.318,.873,3.094,1.309,5.327,1.309,2.192,0,4.027-.253,5.509-.761,1.481-.507,2.709-1.177,3.683-2.009,.974-.831,1.725-1.765,2.252-2.8,.527-1.035,.913-2.07,1.157-3.105s.385-2.009,.426-2.922c.04-.913,.061-1.674,.061-2.283v-28.612h-5.54v-.852h12.175v.852h-5.662v28.551c0,.65-.021,1.472-.061,2.466-.041,.995-.204,2.039-.487,3.135-.284,1.096-.711,2.192-1.278,3.287-.569,1.096-1.4,2.08-2.496,2.952-1.096,.873-2.476,1.583-4.14,2.131-1.665,.548-3.714,.822-6.149,.822-3.937,0-7.103-.437-9.497-1.309-2.395-.872-4.231-2.009-5.509-3.409s-2.121-2.992-2.526-4.779c-.406-1.785-.609-3.592-.609-5.418v-28.43h-5.662v-.852h20.089Z" fill="#fff"/>
        <path d="M749.774,136.067c1.4-2.8,3.196-5.195,5.388-7.184,2.192-1.988,4.647-3.52,7.366-4.596,2.719-1.075,5.377-1.613,7.975-1.613,2.8,0,5.57,.528,8.31,1.583,2.739,1.056,5.175,2.557,7.305,4.505,2.131,1.948,3.855,4.313,5.175,7.092,1.318,2.78,1.979,5.916,1.979,9.406,0,3.044-.619,5.936-1.857,8.675-1.239,2.739-2.902,5.144-4.992,7.214-2.091,2.07-4.505,3.704-7.244,4.901-2.739,1.197-5.631,1.796-8.675,1.796-3.004,0-5.885-.578-8.645-1.735-2.76-1.157-5.185-2.739-7.275-4.748-2.091-2.009-3.765-4.373-5.022-7.092-1.258-2.719-1.887-5.662-1.887-8.827,0-3.449,.7-6.575,2.1-9.375Zm8.553,19.876c.487,2.78,1.248,4.992,2.283,6.636,1.035,1.644,2.374,2.791,4.018,3.44,1.644,.65,3.601,.974,5.875,.974,3.003,0,5.357-.557,7.062-1.674,1.704-1.116,2.983-2.658,3.835-4.627,.852-1.968,1.39-4.301,1.613-7.001,.223-2.699,.335-5.631,.335-8.797,0-2.84-.091-5.549-.274-8.127-.183-2.577-.7-4.849-1.552-6.818-.852-1.968-2.141-3.531-3.866-4.688-1.726-1.157-4.109-1.735-7.153-1.735-2.841,0-5.114,.538-6.818,1.613-1.705,1.076-3.004,2.587-3.896,4.535-.893,1.948-1.482,4.261-1.765,6.94-.284,2.679-.426,5.622-.426,8.827,0,4.221,.243,7.722,.731,10.501Zm14.428-47.332l6.575,11.993h-.731l-8.097-7.731-8.097,7.731h-.731l6.636-11.993h4.444Z" fill="#fff"/>
        <path d="M801.224,159.162h4.809v-.853h-19.603v.853h4.748l14.124,24.656v16.984h-5.601v.853h13.394v-22.183l-11.872-20.31Z" fill="#fff"/>
      </g>
      <rect x="741.541" y="57.076" width="16.889" height="38.374" fill="#e25a34"/>
      <path d="M746.253,82.28c.008,.037,.041,.084,.065,.083,0-.002-.004-.004-.003-.005,.007-.003-.005-.003-.021,.002-.743,.482-1.853,2.354-1.296,3.199,.246,.408,.956,.649,1.413,.852,.777,.34,1.468,.88,1.982,1.554,.27,.355,.481,.774,.462,1.243-.008,.538-.54,.918-1.05,.811-.697-.11-1.056-.771-1.367-1.328-.269-.466-.115-.924,.264-1.249,1.048-1.025,2.577-1.22,3.802-1.932,1.029-.608-.075-1.788-.794-2.117-.725-.319-1.051-.3-.69,.435,.275,.547,.697,.96,1.011,1.51,.206,.367,.373,.799,.335,1.266-.004,.455-.544,1.179,.024,1.414,.524,.134,1.182-.064,1.719-.128,0,0,1.202-.19,1.202-.19,1.063-.136,2.542-.445,2.599-1.746-.023-1.079-.371-2.548-1.501-2.962,0,0,.095-.106,.095-.106,.192,.436,.724,.66,.846,1.164,.213,.964-1.149,1.666-1.759,2.207,0,0-1.135,.889-1.135,.889l-.01,.008-.023-.136c1.114,.286,2.291,.623,3.395,.953,.85,.195,.548,.851,.113,1.322-.453,.51-1.048,.856-1.655,1.126-.882,.388-1.784,.699-2.717,.937-.455,.135-1.142,.219-1.622-.011,0,0-.421-.177-.421-.177-1.092-.396-2.153,.486-3.031,1.146-.007,.005-.02,.014-.027,.019-.048,.036-.124-.002-.121-.063,.032-1.81-.402-3.889-2.004-4.949-.117-.075-.144-.017-.193,.117-.178,.645,.437,1.094,.971,1.36,.138,.073,.19,.245,.116,.382-.081,.158-.297,.199-.431,.083-.266-.223-.56-.463-.77-.792-.21-.333-.304-.759-.145-1.135,.094-.246,.328-.405,.581-.218,.429,.319,.783,.715,1.062,1.165,.372,.591,.61,1.254,.753,1.929,.14,.677,.194,1.367,.217,2.055l-.135-.053c.35-.534,.754-1.054,1.332-1.446,.768-.526,1.702-.595,2.537-.166,.392,.16,.697,.095,1.14-.009,.595-.146,1.183-.324,1.765-.518,.97-.348,1.993-.673,2.605-1.522,.03-.039,.044-.083,.043-.068,0,.006,.006,.037,.023,.055,.017,.022,.031,.024,.021,.017-1.036-.405-2.448-.955-3.453-1.39-.066-.021-.07-.112-.013-.144,.369-.289,1.344-1.053,1.702-1.334,.491-.406,1.266-.874,1.136-1.602-.122-.465-.645-.684-.837-1.139-.034-.064,.045-.136,.107-.102,.414,.115,.764,.403,1.01,.745,.365,.519,.561,1.125,.671,1.74,.394,1.908-1.207,2.534-2.778,2.727-.405,.069-1.411,.238-1.801,.304-.425,.069-.851,.155-1.295,.032-.253-.058-.481-.327-.512-.584-.092-.452,.18-.842,.222-1.239,.037-.35-.088-.718-.272-1.055-.329-.61-.881-1.162-1.097-1.855-.079-.24-.054-.606,.225-.717,.358-.109,.679,.075,.99,.207,.882,.416,1.99,1.844,.794,2.543-1.205,.702-2.736,.93-3.729,1.943-.139,.135-.256,.285-.293,.437-.038,.149,.013,.315,.103,.48,.187,.319,.399,.686,.684,.922,.36,.329,1.089,.305,1.102-.286,.007-.559-.422-1.032-.807-1.401-.283-.266-.599-.495-.937-.681-.513-.295-1.147-.427-1.679-.754-1.164-.67-.858-2.099-.361-3.101,.189-.39,.427-.757,.708-1.091,.216-.257,.468-.543,.855-.576,.337-.028,.691,.175,.772,.528,.098,.524-.664,.683-.787,.169h0Z" fill="#fff"/>
    </g>
    <g>
      <path d="M296.228,303.56v-1.166h7.663c2.832,0,5.664-.042,8.496-.125s5.664-.125,8.496-.125c2.499,0,5.135,.167,7.913,.5,2.776,.333,5.525,.931,8.246,1.791,2.72,.861,5.302,2.013,7.746,3.456,2.443,1.445,4.608,3.277,6.497,5.498,1.887,2.221,3.386,4.859,4.498,7.912,1.11,3.055,1.666,6.637,1.666,10.745,0,4.054-.556,7.608-1.666,10.661-1.111,3.055-2.596,5.693-4.456,7.913-1.861,2.222-3.985,4.054-6.372,5.497-2.388,1.445-4.873,2.597-7.455,3.457-2.582,.861-5.137,1.458-7.663,1.791-2.527,.333-4.873,.5-7.038,.5-3.165,0-6.317-.029-9.454-.084-3.138-.056-6.289-.083-9.454-.083h-7.663v-1.166h7.663v-56.973h-7.663Zm24.155,57.223c3.609,0,6.691-.43,9.246-1.291,2.553-.86,4.706-2.026,6.455-3.499,1.75-1.47,3.137-3.15,4.165-5.039,1.027-1.887,1.804-3.873,2.333-5.955,.527-2.082,.875-4.165,1.041-6.247s.25-4.04,.25-5.872c0-4.498-.278-8.565-.833-12.202-.556-3.637-1.653-6.747-3.29-9.329-1.639-2.582-3.943-4.567-6.914-5.955-2.971-1.388-6.872-2.083-11.703-2.083-1.111,0-2.111,.015-2.999,.042-.889,.028-1.611,.098-2.166,.208v56.973c1.61,.166,3.082,.25,4.415,.25Z" fill="#123e84"/>
      <path d="M377.687,325.966v34.566h5.581v1.166h-21.323v-1.166h5.581v-33.4h-5.581v-1.166h15.742Zm-9.245-22.073c1.166-1.166,2.553-1.749,4.165-1.749s2.999,.583,4.165,1.749,1.749,2.555,1.749,4.165-.583,2.998-1.749,4.164c-1.166,1.167-2.555,1.75-4.165,1.75s-2.999-.583-4.165-1.75c-1.167-1.166-1.75-2.553-1.75-4.164s.583-2.999,1.75-4.165Z" fill="#123e84"/>
      <path d="M413.877,326.34c2.47,1.028,4.623,2.403,6.455,4.123,1.833,1.723,3.262,3.735,4.29,6.039,1.027,2.305,1.541,4.734,1.541,7.288,0,2.611-.514,5.068-1.541,7.372-1.028,2.305-2.457,4.317-4.29,6.038-1.833,1.722-3.985,3.082-6.455,4.082-2.472,.999-5.151,1.499-8.038,1.499s-5.567-.5-8.038-1.499c-2.472-1-4.623-2.36-6.455-4.082-1.833-1.721-3.263-3.733-4.29-6.038-1.028-2.304-1.541-4.761-1.541-7.372,0-2.554,.513-4.983,1.541-7.288,1.027-2.304,2.457-4.316,4.29-6.039,1.833-1.72,3.983-3.095,6.455-4.123,2.47-1.026,5.15-1.54,8.038-1.54s5.566,.514,8.038,1.54Zm-2.957,33.817c1.221-1.026,2.124-2.374,2.707-4.04,.583-1.665,.943-3.581,1.083-5.747,.138-2.165,.208-4.358,.208-6.58s-.07-4.4-.208-6.538c-.14-2.138-.5-4.04-1.083-5.706s-1.486-3.012-2.707-4.039c-1.222-1.027-2.915-1.541-5.081-1.541s-3.86,.514-5.081,1.541c-1.222,1.027-2.124,2.373-2.707,4.039s-.945,3.568-1.083,5.706c-.139,2.138-.208,4.318-.208,6.538s.069,4.415,.208,6.58c.138,2.166,.5,4.082,1.083,5.747,.583,1.666,1.485,3.014,2.707,4.04,1.221,1.028,2.915,1.541,5.081,1.541s3.859-.513,5.081-1.541Z" fill="#123e84"/>
      <path d="M445.32,325.966v6.996h.167c1-2.109,2.345-3.928,4.04-5.455,1.693-1.527,3.928-2.291,6.705-2.291,2.332,0,4.219,.625,5.664,1.874,1.443,1.249,2.166,2.985,2.166,5.206,0,1.666-.404,2.971-1.208,3.915-.806,.944-2.097,1.416-3.873,1.416-1.278,0-2.444-.264-3.499-.792-1.055-.526-1.583-1.512-1.583-2.957,0-.166,.027-.458,.083-.874,.055-.417,.125-.86,.208-1.333,.083-.471,.152-.901,.208-1.291,.055-.388,.083-.61,.083-.666-.056-.444-.139-.791-.25-1.041-.112-.25-.292-.472-.542-.667-.25-.193-.625-.291-1.125-.291-.556,0-1.25,.264-2.083,.791-.833,.528-1.611,1.291-2.332,2.291-.722,.999-1.347,2.207-1.874,3.623-.528,1.416-.792,3.013-.792,4.789v21.323h6.58v1.166h-22.156v-1.166h5.414v-33.4h-5.414v-1.166h15.409Z" fill="#123e84"/>
      <path d="M469.974,360.532v-33.4h-5.497v-1.166h15.492v8.329h.167c.222-.5,.61-1.263,1.167-2.291,.554-1.026,1.36-2.04,2.416-3.04,1.054-.999,2.415-1.874,4.081-2.624,1.666-.749,3.748-1.124,6.247-1.124,3.665,0,6.51,1.056,8.538,3.165,2.026,2.111,3.04,4.998,3.04,8.663v23.488h5.581v1.166h-20.906v-1.166h5.164v-26.32c0-2.333-.473-4.04-1.416-5.123-.945-1.083-2.222-1.624-3.832-1.624-1.333,0-2.611,.32-3.832,.958-1.222,.639-2.291,1.597-3.207,2.873-.917,1.278-1.653,2.861-2.208,4.748-.556,1.889-.833,4.11-.833,6.663v17.825h5.248v1.166h-20.906v-1.166h5.497Z" fill="#123e84"/>
      <path d="M549.81,362.448c-1.472,.221-2.847,.333-4.123,.333-2.832,0-4.929-.5-6.289-1.499-1.361-1-2.208-2.388-2.541-4.165h-.167c-.889,2.222-2.111,3.721-3.665,4.498-1.555,.776-3.804,1.166-6.747,1.166-1.333,0-2.694-.14-4.082-.417-1.389-.278-2.666-.721-3.832-1.332-1.166-.61-2.111-1.458-2.832-2.541-.722-1.083-1.083-2.401-1.083-3.956,0-1.61,.319-2.957,.958-4.04,.638-1.083,1.471-1.999,2.499-2.748,1.027-.75,2.193-1.36,3.498-1.833,1.304-.471,2.651-.929,4.04-1.374,2.276-.667,4.123-1.235,5.539-1.708,1.416-.471,2.512-.971,3.29-1.499,.777-.527,1.318-1.124,1.624-1.791,.305-.666,.458-1.526,.458-2.582v-5.081c0-1.499-.362-2.859-1.083-4.081-.723-1.221-2.083-1.832-4.082-1.832-1.278,0-2.388,.291-3.332,.874-.945,.583-1.416,1.653-1.416,3.207,0,.167,.027,.458,.083,.875,.055,.416,.111,.874,.167,1.374,.055,.5,.111,.972,.167,1.416,.055,.445,.083,.749,.083,.916,0,.833-.195,1.486-.583,1.957-.389,.473-.847,.82-1.375,1.042-.528,.222-1.083,.347-1.666,.374-.583,.029-1.07,.042-1.458,.042-.556,0-1.125-.042-1.708-.125-.583-.083-1.097-.277-1.541-.583-.445-.305-.82-.735-1.125-1.291-.306-.555-.458-1.304-.458-2.249,0-1.443,.402-2.734,1.208-3.873,.804-1.138,1.874-2.082,3.207-2.832,1.333-.75,2.845-1.318,4.539-1.707,1.693-.389,3.457-.583,5.29-.583,2.109,0,4.094,.166,5.955,.499,1.86,.333,3.47,.945,4.831,1.833,1.36,.889,2.443,2.097,3.249,3.623,.804,1.528,1.208,3.457,1.208,5.789v20.656c0,1.056,.152,1.986,.458,2.791,.304,.805,1.068,1.207,2.291,1.207,.721,0,1.318-.138,1.791-.416,.471-.277,.929-.667,1.375-1.166l.75,.749c-.778,1.166-1.903,1.86-3.373,2.083Zm-13.619-21.406c-.112,.333-.32,.653-.625,.957-.306,.307-.848,.653-1.625,1.042-1.055,.499-2.111,.986-3.165,1.457-1.056,.473-1.999,1.07-2.832,1.791-.833,.723-1.514,1.611-2.041,2.665-.528,1.056-.792,2.416-.792,4.082,0,.666,.042,1.444,.125,2.332,.083,.889,.305,1.749,.667,2.582,.36,.833,.902,1.541,1.624,2.124,.721,.583,1.721,.874,2.999,.874,.721,0,1.429-.166,2.124-.499,.694-.334,1.318-.847,1.874-1.541,.555-.694,1-1.61,1.333-2.749,.333-1.138,.5-2.512,.5-4.123v-10.994h-.167Z" fill="#123e84"/>
      <path d="M556.515,349.621c.667,1.555,1.346,3.054,2.041,4.497,.694,1.445,1.512,2.722,2.457,3.832,.944,1.111,2.083,2.014,3.415,2.707,1.333,.695,2.97,1.041,4.915,1.041,.5,0,1.166-.027,1.999-.083,.833-.055,1.651-.292,2.457-.708,.804-.417,1.5-1.055,2.083-1.916,.583-.86,.875-2.096,.875-3.706,0-.5-.07-1.013-.208-1.541-.139-.527-.431-1.069-.875-1.625-.445-.554-1.097-1.096-1.957-1.624-.862-.527-2.041-1.068-3.54-1.624l-6.747-2.499c-.778-.277-1.611-.651-2.499-1.124-.889-.472-1.708-1.096-2.457-1.874-.75-.777-1.375-1.708-1.875-2.791-.5-1.082-.75-2.373-.75-3.873,0-1.609,.333-3.136,1-4.581,.667-1.443,1.596-2.707,2.791-3.79,1.193-1.082,2.637-1.942,4.331-2.582,1.693-.638,3.54-.957,5.539-.957,1.054,0,2.041,.111,2.957,.333,.916,.223,1.749,.458,2.499,.708,.75,.25,1.416,.486,1.999,.708,.583,.223,1.042,.333,1.375,.333,.61,0,1-.11,1.166-.333,.167-.222,.305-.472,.417-.75h1.166v10.162h-1.083c-.556-1.333-1.125-2.609-1.708-3.832-.583-1.221-1.278-2.29-2.083-3.206-.806-.917-1.791-1.638-2.957-2.166-1.166-.527-2.61-.791-4.331-.791-1.833,0-3.513,.486-5.039,1.457-1.528,.973-2.291,2.402-2.291,4.29,0,.389,.054,.833,.167,1.333,.11,.499,.36,1.014,.75,1.54,.388,.528,1,1.056,1.833,1.583,.833,.528,1.943,1.041,3.332,1.541l7.08,2.415c2.999,1.056,5.275,2.444,6.83,4.165,1.554,1.722,2.332,3.915,2.332,6.58,0,1.832-.403,3.485-1.208,4.956-.806,1.472-1.861,2.722-3.166,3.748-1.305,1.028-2.819,1.819-4.539,2.374-1.722,.555-3.499,.833-5.331,.833-1,0-2.082-.112-3.249-.333-1.166-.223-2.291-.487-3.373-.792-1.083-.304-2.069-.568-2.957-.791-.889-.221-1.583-.333-2.083-.333-.445,0-.764,.083-.958,.25-.195,.166-.375,.473-.542,.916h-1.166v-12.077h1.166Z" fill="#123e84"/>
      <path d="M587.249,327.132v-1.166h15.493v6.163h.167c1.721-4.886,4.998-7.329,9.829-7.329,3.22,0,5.968,.624,8.246,1.874,2.276,1.249,4.15,2.818,5.622,4.706,1.471,1.888,2.554,3.943,3.249,6.163,.694,2.222,1.041,4.304,1.041,6.247,0,2.499-.445,4.887-1.333,7.163-.889,2.278-2.124,4.29-3.707,6.039s-3.485,3.152-5.706,4.206c-2.222,1.055-4.693,1.583-7.413,1.583-2.555,0-4.61-.695-6.164-2.083-1.555-1.387-2.722-3.053-3.499-4.997h-.167v28.069h5.664v1.167h-21.323v-1.167h5.498v-56.639h-5.498Zm15.867,22.447c.138,2.082,.542,4.026,1.208,5.83,.667,1.806,1.651,3.305,2.957,4.498,1.304,1.195,3.124,1.791,5.456,1.791,1.554,0,2.79-.416,3.707-1.249,.916-.833,1.61-2.026,2.083-3.582,.471-1.554,.777-3.428,.916-5.622,.138-2.193,.208-4.65,.208-7.372,0-3.331-.125-6.148-.375-8.454-.25-2.304-.681-4.15-1.291-5.539-.612-1.387-1.389-2.387-2.333-2.998-.945-.61-2.138-.916-3.582-.916-2.055,0-3.693,.583-4.914,1.749-1.222,1.166-2.138,2.638-2.749,4.414-.611,1.778-1.014,3.721-1.208,5.831-.195,2.11-.292,4.081-.292,5.913,0,1.723,.069,3.624,.208,5.706Z" fill="#123e84"/>
      <path d="M650.301,325.966v34.566h5.581v1.166h-21.323v-1.166h5.581v-33.4h-5.581v-1.166h15.742Zm-9.245-22.073c1.166-1.166,2.553-1.749,4.165-1.749s2.999,.583,4.165,1.749,1.749,2.555,1.749,4.165-.583,2.998-1.749,4.164c-1.166,1.167-2.555,1.75-4.165,1.75s-2.999-.583-4.165-1.75c-1.167-1.166-1.75-2.553-1.75-4.164s.583-2.999,1.75-4.165Z" fill="#123e84"/>
      <path d="M673.872,301.644v39.731h.417l15.493-14.243h-6.081v-1.166h13.077v1.166h-5.331l-9.329,8.829,19.074,24.571h3.249v1.166h-22.073v-1.166h5.997l-14.077-17.991h-.417v17.991h5.165v1.166h-20.824v-1.166h5.498v-57.723h-5.498v-1.166h15.659Z" fill="#123e84"/>
      <path d="M741.047,362.448c-1.472,.221-2.847,.333-4.123,.333-2.832,0-4.929-.5-6.289-1.499-1.361-1-2.208-2.388-2.541-4.165h-.167c-.889,2.222-2.111,3.721-3.665,4.498-1.555,.776-3.804,1.166-6.747,1.166-1.333,0-2.694-.14-4.082-.417-1.389-.278-2.666-.721-3.832-1.332-1.166-.61-2.111-1.458-2.832-2.541-.722-1.083-1.083-2.401-1.083-3.956,0-1.61,.319-2.957,.958-4.04,.638-1.083,1.471-1.999,2.499-2.748,1.027-.75,2.193-1.36,3.498-1.833,1.304-.471,2.651-.929,4.04-1.374,2.276-.667,4.123-1.235,5.539-1.708,1.416-.471,2.512-.971,3.29-1.499,.777-.527,1.318-1.124,1.624-1.791,.305-.666,.458-1.526,.458-2.582v-5.081c0-1.499-.362-2.859-1.083-4.081-.723-1.221-2.083-1.832-4.082-1.832-1.278,0-2.388,.291-3.332,.874-.945,.583-1.416,1.653-1.416,3.207,0,.167,.027,.458,.083,.875,.055,.416,.111,.874,.167,1.374,.055,.5,.111,.972,.167,1.416,.055,.445,.083,.749,.083,.916,0,.833-.195,1.486-.583,1.957-.389,.473-.847,.82-1.375,1.042-.528,.222-1.083,.347-1.666,.374-.583,.029-1.07,.042-1.458,.042-.556,0-1.125-.042-1.708-.125-.583-.083-1.097-.277-1.541-.583-.445-.305-.82-.735-1.125-1.291-.306-.555-.458-1.304-.458-2.249,0-1.443,.402-2.734,1.208-3.873,.804-1.138,1.874-2.082,3.207-2.832,1.333-.75,2.845-1.318,4.539-1.707,1.693-.389,3.457-.583,5.29-.583,2.109,0,4.094,.166,5.955,.499,1.86,.333,3.47,.945,4.831,1.833,1.36,.889,2.443,2.097,3.249,3.623,.804,1.528,1.208,3.457,1.208,5.789v20.656c0,1.056,.152,1.986,.458,2.791,.304,.805,1.068,1.207,2.291,1.207,.721,0,1.318-.138,1.791-.416,.471-.277,.929-.667,1.375-1.166l.75,.749c-.778,1.166-1.903,1.86-3.373,2.083Zm-13.619-21.406c-.112,.333-.32,.653-.625,.957-.306,.307-.848,.653-1.625,1.042-1.055,.499-2.111,.986-3.165,1.457-1.056,.473-1.999,1.07-2.832,1.791-.833,.723-1.514,1.611-2.041,2.665-.528,1.056-.792,2.416-.792,4.082,0,.666,.042,1.444,.125,2.332,.083,.889,.305,1.749,.667,2.582,.36,.833,.902,1.541,1.624,2.124,.721,.583,1.721,.874,2.999,.874,.721,0,1.429-.166,2.124-.499,.694-.334,1.318-.847,1.874-1.541,.555-.694,1-1.61,1.333-2.749,.333-1.138,.5-2.512,.5-4.123v-10.994h-.167Z" fill="#123e84"/>
      <path d="M761.662,301.644v58.889h5.58v1.166h-21.323v-1.166h5.581v-57.723h-5.581v-1.166h15.743Z" fill="#123e84"/>
      <path d="M785.399,325.966v34.566h5.58v1.166h-21.322v-1.166h5.58v-33.4h-5.58v-1.166h15.742Zm-9.246-22.073c1.166-1.166,2.554-1.749,4.165-1.749s2.998,.583,4.165,1.749c1.166,1.166,1.749,2.555,1.749,4.165s-.583,2.998-1.749,4.164-2.556,1.75-4.165,1.75-2.999-.583-4.165-1.75c-1.166-1.166-1.749-2.553-1.749-4.164s.583-2.999,1.749-4.165Z" fill="#123e84"/>
      <path d="M811.052,325.966v1.166h-5.997l10.245,23.072,9.079-23.072h-6.413v-1.166h11.661v1.166h-3.832l-14.743,36.815h-.666l-16.575-36.815h-4.498v-1.166h21.739Z" fill="#123e84"/>
      <path d="M845.202,325.966v34.566h5.58v1.166h-21.322v-1.166h5.58v-33.4h-5.58v-1.166h15.742Zm-9.246-22.073c1.166-1.166,2.554-1.749,4.165-1.749s2.998,.583,4.165,1.749c1.166,1.166,1.749,2.555,1.749,4.165s-.583,2.998-1.749,4.164-2.556,1.75-4.165,1.75-2.999-.583-4.165-1.75c-1.166-1.166-1.749-2.553-1.749-4.164s.583-2.999,1.749-4.165Z" fill="#123e84"/>
      <path d="M889.055,362.448c-1.472,.221-2.847,.333-4.123,.333-2.832,0-4.929-.5-6.289-1.499-1.361-1-2.207-2.388-2.54-4.165h-.167c-.889,2.222-2.11,3.721-3.665,4.498-1.555,.776-3.804,1.166-6.746,1.166-1.333,0-2.694-.14-4.082-.417-1.389-.278-2.665-.721-3.831-1.332-1.166-.61-2.111-1.458-2.832-2.541-.723-1.083-1.083-2.401-1.083-3.956,0-1.61,.319-2.957,.958-4.04,.638-1.083,1.471-1.999,2.499-2.748,1.026-.75,2.192-1.36,3.498-1.833,1.305-.471,2.651-.929,4.04-1.374,2.276-.667,4.123-1.235,5.539-1.708,1.416-.471,2.512-.971,3.29-1.499,.776-.527,1.318-1.124,1.624-1.791,.305-.666,.458-1.526,.458-2.582v-5.081c0-1.499-.361-2.859-1.083-4.081-.722-1.221-2.082-1.832-4.081-1.832-1.278,0-2.388,.291-3.332,.874s-1.416,1.653-1.416,3.207c0,.167,.027,.458,.084,.875,.055,.416,.11,.874,.166,1.374,.055,.5,.11,.972,.167,1.416,.055,.445,.083,.749,.083,.916,0,.833-.195,1.486-.583,1.957-.389,.473-.848,.82-1.374,1.042-.528,.222-1.083,.347-1.666,.374-.583,.029-1.07,.042-1.458,.042-.556,0-1.124-.042-1.707-.125s-1.098-.277-1.541-.583c-.445-.305-.82-.735-1.125-1.291-.306-.555-.458-1.304-.458-2.249,0-1.443,.402-2.734,1.208-3.873,.805-1.138,1.874-2.082,3.207-2.832,1.332-.75,2.845-1.318,4.539-1.707,1.693-.389,3.457-.583,5.289-.583,2.11,0,4.095,.166,5.956,.499,1.859,.333,3.47,.945,4.831,1.833,1.359,.889,2.442,2.097,3.248,3.623,.805,1.528,1.208,3.457,1.208,5.789v20.656c0,1.056,.152,1.986,.458,2.791,.305,.805,1.068,1.207,2.29,1.207,.722,0,1.318-.138,1.791-.416,.472-.277,.93-.667,1.374-1.166l.75,.749c-.778,1.166-1.902,1.86-3.373,2.083Zm-13.618-21.406c-.112,.333-.32,.653-.625,.957-.306,.307-.848,.653-1.624,1.042-1.056,.499-2.111,.986-3.165,1.457-1.056,.473-1.999,1.07-2.832,1.791-.833,.723-1.514,1.611-2.041,2.665-.528,1.056-.791,2.416-.791,4.082,0,.666,.041,1.444,.125,2.332,.083,.889,.304,1.749,.666,2.582,.36,.833,.901,1.541,1.624,2.124,.721,.583,1.721,.874,2.999,.874,.721,0,1.429-.166,2.124-.499,.693-.334,1.318-.847,1.874-1.541,.554-.694,.999-1.61,1.332-2.749,.334-1.138,.5-2.512,.5-4.123v-10.994h-.166Z" fill="#123e84"/>
      <path d="M909.67,301.644v58.889h5.58v1.166h-21.322v-1.166h5.58v-57.723h-5.58v-1.166h15.742Z" fill="#123e84"/>
      <path d="M945.859,326.34c2.47,1.028,4.623,2.403,6.455,4.123,1.832,1.723,3.262,3.735,4.29,6.039,1.026,2.305,1.54,4.734,1.54,7.288,0,2.611-.514,5.068-1.54,7.372-1.028,2.305-2.458,4.317-4.29,6.038-1.832,1.722-3.985,3.082-6.455,4.082-2.472,.999-5.151,1.499-8.038,1.499s-5.567-.5-8.037-1.499c-2.472-1-4.623-2.36-6.456-4.082-1.832-1.721-3.263-3.733-4.289-6.038-1.028-2.304-1.541-4.761-1.541-7.372,0-2.554,.513-4.983,1.541-7.288,1.026-2.304,2.457-4.316,4.289-6.039,1.833-1.72,3.984-3.095,6.456-4.123,2.47-1.026,5.149-1.54,8.037-1.54s5.566,.514,8.038,1.54Zm-2.957,33.817c1.221-1.026,2.124-2.374,2.707-4.04,.583-1.665,.943-3.581,1.083-5.747,.138-2.165,.208-4.358,.208-6.58s-.07-4.4-.208-6.538c-.14-2.138-.5-4.04-1.083-5.706s-1.486-3.012-2.707-4.039c-1.222-1.027-2.915-1.541-5.081-1.541s-3.86,.514-5.081,1.541c-1.222,1.027-2.124,2.373-2.707,4.039s-.944,3.568-1.082,5.706c-.14,2.138-.209,4.318-.209,6.538s.069,4.415,.209,6.58c.138,2.166,.499,4.082,1.082,5.747,.583,1.666,1.485,3.014,2.707,4.04,1.221,1.028,2.916,1.541,5.081,1.541s3.859-.513,5.081-1.541Z" fill="#123e84"/>
      <path d="M967.141,325.966c0-1.833,.027-3.72,.084-5.664,.055-1.943,.235-3.832,.541-5.664,.305-1.832,.791-3.567,1.458-5.206,.666-1.637,1.609-3.082,2.832-4.331,1.221-1.249,2.775-2.234,4.664-2.957,1.887-.721,4.22-1.083,6.997-1.083,1.276,0,2.525,.154,3.748,.458,1.221,.307,2.332,.778,3.331,1.416,1,.64,1.804,1.473,2.416,2.499,.61,1.028,.916,2.264,.916,3.707,0,1.277-.473,2.36-1.416,3.248-.944,.889-2.055,1.333-3.332,1.333-2.943,0-4.414-1.416-4.414-4.248,0-.167,.042-.458,.125-.875,.083-.416,.166-.86,.25-1.332,.083-.472,.152-.902,.208-1.291,.055-.389,.083-.667,.083-.833,0-1-.361-1.735-1.083-2.208-.722-.471-1.555-.708-2.498-.708-1.166,0-2.083,.292-2.749,.875s-1.139,1.374-1.416,2.374c-.278,.999-.445,2.152-.5,3.456-.056,1.306-.083,2.68-.083,4.123v12.911h6.913v1.166h-6.913v33.4h6.414v1.166h-22.073v-1.166h5.497v-33.4h-5.497v-1.166h5.497Z" fill="#123e84"/>
      <path d="M1024.154,362.448c-1.472,.221-2.847,.333-4.123,.333-2.832,0-4.929-.5-6.289-1.499-1.361-1-2.207-2.388-2.54-4.165h-.167c-.889,2.222-2.11,3.721-3.665,4.498-1.555,.776-3.804,1.166-6.746,1.166-1.333,0-2.694-.14-4.082-.417-1.389-.278-2.665-.721-3.831-1.332-1.166-.61-2.111-1.458-2.832-2.541-.723-1.083-1.083-2.401-1.083-3.956,0-1.61,.319-2.957,.958-4.04,.638-1.083,1.471-1.999,2.499-2.748,1.026-.75,2.192-1.36,3.498-1.833,1.305-.471,2.651-.929,4.04-1.374,2.276-.667,4.123-1.235,5.539-1.708,1.416-.471,2.512-.971,3.29-1.499,.776-.527,1.318-1.124,1.624-1.791,.305-.666,.458-1.526,.458-2.582v-5.081c0-1.499-.361-2.859-1.083-4.081-.722-1.221-2.082-1.832-4.081-1.832-1.278,0-2.388,.291-3.332,.874s-1.416,1.653-1.416,3.207c0,.167,.027,.458,.084,.875,.055,.416,.11,.874,.166,1.374,.055,.5,.11,.972,.167,1.416,.055,.445,.083,.749,.083,.916,0,.833-.195,1.486-.583,1.957-.389,.473-.848,.82-1.374,1.042-.528,.222-1.083,.347-1.666,.374-.583,.029-1.07,.042-1.458,.042-.556,0-1.124-.042-1.707-.125s-1.098-.277-1.541-.583c-.445-.305-.82-.735-1.125-1.291-.306-.555-.458-1.304-.458-2.249,0-1.443,.402-2.734,1.208-3.873,.805-1.138,1.874-2.082,3.207-2.832,1.332-.75,2.845-1.318,4.539-1.707,1.693-.389,3.457-.583,5.289-.583,2.11,0,4.095,.166,5.956,.499,1.859,.333,3.47,.945,4.831,1.833,1.359,.889,2.442,2.097,3.248,3.623,.805,1.528,1.208,3.457,1.208,5.789v20.656c0,1.056,.152,1.986,.458,2.791,.305,.805,1.068,1.207,2.29,1.207,.722,0,1.318-.138,1.791-.416,.472-.277,.93-.667,1.374-1.166l.75,.749c-.778,1.166-1.902,1.86-3.373,2.083Zm-13.618-21.406c-.112,.333-.32,.653-.625,.957-.306,.307-.848,.653-1.624,1.042-1.056,.499-2.111,.986-3.165,1.457-1.056,.473-1.999,1.07-2.832,1.791-.833,.723-1.514,1.611-2.041,2.665-.528,1.056-.791,2.416-.791,4.082,0,.666,.041,1.444,.125,2.332,.083,.889,.304,1.749,.666,2.582,.36,.833,.901,1.541,1.624,2.124,.721,.583,1.721,.874,2.999,.874,.721,0,1.429-.166,2.124-.499,.693-.334,1.318-.847,1.874-1.541,.554-.694,.999-1.61,1.332-2.749,.334-1.138,.5-2.512,.5-4.123v-10.994h-.166Z" fill="#123e84"/>
      <path d="M1034.689,325.966c0-1.833,.027-3.72,.084-5.664,.055-1.943,.235-3.832,.541-5.664,.305-1.832,.791-3.567,1.458-5.206,.666-1.637,1.609-3.082,2.832-4.331,1.221-1.249,2.775-2.234,4.664-2.957,1.887-.721,4.22-1.083,6.997-1.083,1.276,0,2.525,.154,3.748,.458,1.221,.307,2.332,.778,3.331,1.416,1,.64,1.804,1.473,2.416,2.499,.61,1.028,.916,2.264,.916,3.707,0,1.277-.473,2.36-1.416,3.248-.944,.889-2.055,1.333-3.332,1.333-2.943,0-4.414-1.416-4.414-4.248,0-.167,.042-.458,.125-.875,.083-.416,.166-.86,.25-1.332,.083-.472,.152-.902,.208-1.291,.055-.389,.083-.667,.083-.833,0-1-.361-1.735-1.083-2.208-.722-.471-1.555-.708-2.498-.708-1.166,0-2.083,.292-2.749,.875s-1.139,1.374-1.416,2.374c-.278,.999-.445,2.152-.5,3.456-.056,1.306-.083,2.68-.083,4.123v12.911h6.913v1.166h-6.913v33.4h6.414v1.166h-22.073v-1.166h5.497v-33.4h-5.497v-1.166h5.497Z" fill="#123e84"/>
      <path d="M1091.704,362.448c-1.472,.221-2.847,.333-4.123,.333-2.832,0-4.929-.5-6.289-1.499-1.361-1-2.207-2.388-2.54-4.165h-.167c-.889,2.222-2.11,3.721-3.665,4.498-1.555,.776-3.804,1.166-6.746,1.166-1.333,0-2.694-.14-4.082-.417-1.389-.278-2.665-.721-3.831-1.332-1.166-.61-2.111-1.458-2.832-2.541-.723-1.083-1.083-2.401-1.083-3.956,0-1.61,.319-2.957,.958-4.04,.638-1.083,1.471-1.999,2.499-2.748,1.026-.75,2.192-1.36,3.498-1.833,1.305-.471,2.651-.929,4.04-1.374,2.276-.667,4.123-1.235,5.539-1.708,1.416-.471,2.512-.971,3.29-1.499,.776-.527,1.318-1.124,1.624-1.791,.305-.666,.458-1.526,.458-2.582v-5.081c0-1.499-.361-2.859-1.083-4.081-.722-1.221-2.082-1.832-4.081-1.832-1.278,0-2.388,.291-3.332,.874s-1.416,1.653-1.416,3.207c0,.167,.027,.458,.084,.875,.055,.416,.11,.874,.166,1.374,.055,.5,.11,.972,.167,1.416,.055,.445,.083,.749,.083,.916,0,.833-.195,1.486-.583,1.957-.389,.473-.848,.82-1.374,1.042-.528,.222-1.083,.347-1.666,.374-.583,.029-1.07,.042-1.458,.042-.556,0-1.124-.042-1.707-.125s-1.098-.277-1.541-.583c-.445-.305-.82-.735-1.125-1.291-.306-.555-.458-1.304-.458-2.249,0-1.443,.402-2.734,1.208-3.873,.805-1.138,1.874-2.082,3.207-2.832,1.332-.75,2.845-1.318,4.539-1.707,1.693-.389,3.457-.583,5.289-.583,2.11,0,4.095,.166,5.956,.499,1.859,.333,3.47,.945,4.831,1.833,1.359,.889,2.442,2.097,3.248,3.623,.805,1.528,1.208,3.457,1.208,5.789v20.656c0,1.056,.152,1.986,.458,2.791,.305,.805,1.068,1.207,2.29,1.207,.722,0,1.318-.138,1.791-.416,.472-.277,.93-.667,1.374-1.166l.75,.749c-.778,1.166-1.902,1.86-3.373,2.083Zm-13.618-21.406c-.112,.333-.32,.653-.625,.957-.306,.307-.848,.653-1.624,1.042-1.056,.499-2.111,.986-3.165,1.457-1.056,.473-1.999,1.07-2.832,1.791-.833,.723-1.514,1.611-2.041,2.665-.528,1.056-.791,2.416-.791,4.082,0,.666,.041,1.444,.125,2.332,.083,.889,.304,1.749,.666,2.582,.36,.833,.901,1.541,1.624,2.124,.721,.583,1.721,.874,2.999,.874,.721,0,1.429-.166,2.124-.499,.693-.334,1.318-.847,1.874-1.541,.554-.694,.999-1.61,1.332-2.749,.334-1.138,.5-2.512,.5-4.123v-10.994h-.166Z" fill="#123e84"/>
      <path d="M1115.649,325.966v1.166h-5.08l7.079,11.661,8.496-11.661h-5.58v-1.166h11.744v1.166h-4.665l-9.162,12.743,13.077,20.657h3.415v1.166h-21.239v-1.166h5.747l-8.246-12.91-9.245,12.91h6.413v1.166h-13.577v-1.166h5.581l10.078-13.993-12.41-19.407h-4.248v-1.166h21.822Z" fill="#123e84"/>
      <path d="M1171.582,362.448c-1.472,.221-2.847,.333-4.123,.333-2.832,0-4.929-.5-6.289-1.499-1.361-1-2.207-2.388-2.54-4.165h-.167c-.889,2.222-2.11,3.721-3.665,4.498-1.555,.776-3.804,1.166-6.746,1.166-1.333,0-2.694-.14-4.082-.417-1.389-.278-2.665-.721-3.831-1.332-1.166-.61-2.111-1.458-2.832-2.541-.723-1.083-1.083-2.401-1.083-3.956,0-1.61,.319-2.957,.958-4.04,.638-1.083,1.471-1.999,2.499-2.748,1.026-.75,2.192-1.36,3.498-1.833,1.305-.471,2.651-.929,4.04-1.374,2.276-.667,4.123-1.235,5.539-1.708,1.416-.471,2.512-.971,3.29-1.499,.776-.527,1.318-1.124,1.624-1.791,.305-.666,.458-1.526,.458-2.582v-5.081c0-1.499-.361-2.859-1.083-4.081-.722-1.221-2.082-1.832-4.081-1.832-1.278,0-2.388,.291-3.332,.874s-1.416,1.653-1.416,3.207c0,.167,.027,.458,.084,.875,.055,.416,.11,.874,.166,1.374,.055,.5,.11,.972,.167,1.416,.055,.445,.083,.749,.083,.916,0,.833-.195,1.486-.583,1.957-.389,.473-.848,.82-1.374,1.042-.528,.222-1.083,.347-1.666,.374-.583,.029-1.07,.042-1.458,.042-.556,0-1.124-.042-1.707-.125s-1.098-.277-1.541-.583c-.445-.305-.82-.735-1.125-1.291-.306-.555-.458-1.304-.458-2.249,0-1.443,.402-2.734,1.208-3.873,.805-1.138,1.874-2.082,3.207-2.832,1.332-.75,2.845-1.318,4.539-1.707,1.693-.389,3.457-.583,5.289-.583,2.11,0,4.095,.166,5.956,.499,1.859,.333,3.47,.945,4.831,1.833,1.359,.889,2.442,2.097,3.248,3.623,.805,1.528,1.208,3.457,1.208,5.789v20.656c0,1.056,.152,1.986,.458,2.791,.305,.805,1.068,1.207,2.29,1.207,.722,0,1.318-.138,1.791-.416,.472-.277,.93-.667,1.374-1.166l.75,.749c-.778,1.166-1.902,1.86-3.373,2.083Zm-13.618-21.406c-.112,.333-.32,.653-.625,.957-.306,.307-.848,.653-1.624,1.042-1.056,.499-2.111,.986-3.165,1.457-1.056,.473-1.999,1.07-2.832,1.791-.833,.723-1.514,1.611-2.041,2.665-.528,1.056-.791,2.416-.791,4.082,0,.666,.041,1.444,.125,2.332,.083,.889,.304,1.749,.666,2.582,.36,.833,.901,1.541,1.624,2.124,.721,.583,1.721,.874,2.999,.874,.721,0,1.429-.166,2.124-.499,.693-.334,1.318-.847,1.874-1.541,.554-.694,.999-1.61,1.332-2.749,.334-1.138,.5-2.512,.5-4.123v-10.994h-.166Z" fill="#123e84"/>
      <path d="M1178.286,349.621c.666,1.555,1.346,3.054,2.041,4.497,.693,1.445,1.512,2.722,2.457,3.832,.943,1.111,2.082,2.014,3.415,2.707,1.332,.695,2.97,1.041,4.914,1.041,.5,0,1.166-.027,1.999-.083,.833-.055,1.651-.292,2.457-.708,.805-.417,1.499-1.055,2.082-1.916,.583-.86,.875-2.096,.875-3.706,0-.5-.07-1.013-.208-1.541-.14-.527-.431-1.069-.875-1.625-.445-.554-1.097-1.096-1.957-1.624-.861-.527-2.041-1.068-3.54-1.624l-6.747-2.499c-.778-.277-1.611-.651-2.499-1.124-.889-.472-1.707-1.096-2.457-1.874-.749-.777-1.374-1.708-1.874-2.791-.5-1.082-.749-2.373-.749-3.873,0-1.609,.333-3.136,.999-4.581,.666-1.443,1.596-2.707,2.79-3.79,1.193-1.082,2.637-1.942,4.332-2.582,1.692-.638,3.54-.957,5.539-.957,1.054,0,2.04,.111,2.956,.333,.917,.223,1.75,.458,2.499,.708,.75,.25,1.416,.486,1.999,.708,.583,.223,1.041,.333,1.374,.333,.611,0,1-.11,1.167-.333,.166-.222,.304-.472,.416-.75h1.166v10.162h-1.083c-.556-1.333-1.124-2.609-1.707-3.832-.583-1.221-1.278-2.29-2.082-3.206-.806-.917-1.791-1.638-2.957-2.166-1.166-.527-2.611-.791-4.332-.791-1.832,0-3.512,.486-5.039,1.457-1.527,.973-2.29,2.402-2.29,4.29,0,.389,.055,.833,.166,1.333,.111,.499,.361,1.014,.75,1.54,.388,.528,.999,1.056,1.832,1.583,.833,.528,1.943,1.041,3.332,1.541l7.08,2.415c2.998,1.056,5.274,2.444,6.83,4.165,1.554,1.722,2.332,3.915,2.332,6.58,0,1.832-.403,3.485-1.208,4.956-.806,1.472-1.86,2.722-3.165,3.748-1.305,1.028-2.818,1.819-4.539,2.374-1.722,.555-3.498,.833-5.331,.833-.999,0-2.082-.112-3.248-.333-1.166-.223-2.291-.487-3.374-.792-1.082-.304-2.069-.568-2.956-.791-.89-.221-1.583-.333-2.083-.333-.445,0-.764,.083-.958,.25-.195,.166-.374,.473-.541,.916h-1.166v-12.077h1.166Z" fill="#123e84"/>
      <path d="M613.41,398.416h7.112v30.85h3.36v.611h-7.025v-3.796h-.087c-.117,.349-.291,.771-.523,1.265-.233,.495-.575,.976-1.025,1.44-.452,.466-1.019,.866-1.702,1.2-.684,.334-1.521,.502-2.509,.502-1.28,0-2.495-.277-3.644-.829-1.149-.553-2.16-1.295-3.032-2.226-.873-.931-1.564-2-2.073-3.207-.509-1.207-.764-2.479-.764-3.818,0-1.309,.247-2.56,.742-3.753,.494-1.192,1.163-2.231,2.007-3.119,.843-.888,1.817-1.6,2.923-2.139,1.105-.538,2.283-.807,3.535-.807,1.599,0,2.894,.393,3.883,1.178,.989,.785,1.687,1.745,2.094,2.88h.087v-15.621h-3.36v-.611Zm-7.549,21.469c0,1.513,.044,2.888,.131,4.123,.087,1.237,.306,2.291,.655,3.164,.349,.872,.873,1.542,1.571,2.007,.698,.466,1.643,.698,2.836,.698,1.222,0,2.203-.262,2.945-.785,.742-.523,1.315-1.2,1.723-2.029,.407-.829,.684-1.752,.829-2.771s.218-2.008,.218-2.968c0-1.134-.022-2.116-.065-2.945s-.124-1.563-.24-2.203c-.117-.64-.277-1.192-.48-1.658-.204-.465-.452-.901-.742-1.309-.436-.582-1.003-1.062-1.702-1.44-.698-.378-1.586-.567-2.662-.567-1.019,0-1.854,.204-2.509,.611-.655,.407-1.164,.989-1.527,1.745-.364,.757-.619,1.666-.764,2.728-.146,1.062-.218,2.262-.218,3.6Z" fill="#123e84"/>
      <path d="M640.201,419.056c0,.291-.007,.589-.022,.895s-.021,.691-.021,1.156c0,.96,.058,1.964,.174,3.011,.116,1.047,.371,1.993,.764,2.836,.393,.845,.974,1.543,1.746,2.095,.77,.553,1.795,.829,3.076,.829s2.334-.188,3.164-.567c.829-.378,1.483-.836,1.963-1.374s.836-1.084,1.069-1.637c.232-.552,.407-1.004,.524-1.353l.654,.131c-.087,.32-.255,.778-.502,1.374-.247,.597-.64,1.193-1.178,1.789-.539,.597-1.266,1.12-2.182,1.571-.916,.45-2.102,.677-3.556,.677s-2.8-.233-4.036-.698c-1.237-.466-2.306-1.135-3.207-2.008-.902-.872-1.6-1.912-2.094-3.119-.495-1.207-.742-2.553-.742-4.037,0-1.279,.254-2.522,.764-3.73,.509-1.207,1.207-2.275,2.095-3.207,.887-.931,1.927-1.68,3.12-2.247,1.192-.567,2.472-.851,3.84-.851,.814,0,1.687,.146,2.618,.436,.931,.292,1.796,.764,2.596,1.419,.8,.654,1.469,1.521,2.007,2.596,.538,1.077,.807,2.415,.807,4.015h-13.439Zm8.989-.611c.058-.406,.087-.785,.087-1.134v-1.091c0-.989-.095-1.804-.284-2.444-.189-.639-.452-1.148-.786-1.526-.334-.378-.742-.647-1.222-.808-.48-.159-.997-.24-1.549-.24-.989,0-1.804,.196-2.444,.589-.64,.394-1.149,.924-1.527,1.593-.378,.67-.662,1.44-.851,2.312-.189,.873-.313,1.789-.371,2.749h8.945Zm-1.134-18.938c.582-.697,.996-1.163,1.243-1.396s.574-.35,.982-.35,.756,.153,1.047,.458c.291,.306,.436,.662,.436,1.069,0,.32-.095,.567-.283,.742-.19,.174-.357,.32-.502,.436l-7.461,5.324h-.611l5.149-6.284Z" fill="#123e84"/>
      <path d="M689.813,398.81h20.814l-18.283,30.456h9.6c1.455,0,2.575-.21,3.36-.632,.786-.422,1.484-.924,2.095-1.506,.639-.581,1.294-1.469,1.963-2.662,.669-1.192,1.163-2.574,1.483-4.145h.48v9.556h-24.13l18.196-30.457h-6.763c-2.356,0-4.189,.618-5.498,1.854-1.309,1.237-2.255,2.945-2.836,5.127h-.48v-7.592Z" fill="#123e84"/>
      <path d="M743.091,429.397c-.378,.291-.829,.545-1.353,.763-.523,.219-1.164,.328-1.92,.328-1.396,0-2.407-.299-3.032-.895-.626-.597-1.055-1.433-1.287-2.51h-.087c-.117,.262-.277,.59-.48,.982-.204,.393-.517,.771-.938,1.134-.422,.364-.981,.67-1.68,.917-.698,.246-1.586,.371-2.662,.371-1.222,0-2.197-.139-2.924-.415s-1.294-.617-1.702-1.025c-.408-.407-.676-.865-.807-1.374s-.196-.982-.196-1.419c0-1.018,.203-1.832,.611-2.443,.407-.61,.938-1.098,1.593-1.462,.654-.363,1.381-.661,2.182-.895,.8-.232,1.607-.479,2.422-.741,.96-.32,1.752-.596,2.378-.829,.625-.232,1.113-.517,1.462-.851,.349-.335,.589-.757,.72-1.266s.196-1.2,.196-2.073c0-.697-.043-1.323-.131-1.876-.087-.552-.248-1.025-.48-1.418-.233-.393-.567-.69-1.003-.895-.437-.203-1.019-.306-1.746-.306-.96,0-1.753,.168-2.378,.502-.626,.335-.938,.88-.938,1.637,0,.494,.043,.981,.131,1.461,.087,.48,.131,.837,.131,1.069,0,.408-.146,.749-.437,1.025-.291,.277-.713,.415-1.265,.415-.96,0-1.557-.175-1.789-.524-.233-.349-.349-.799-.349-1.353,0-.64,.145-1.25,.436-1.832,.291-.582,.72-1.098,1.288-1.549,.567-.451,1.28-.808,2.138-1.069s1.84-.393,2.946-.393c1.337,0,2.458,.167,3.36,.502,.901,.334,1.628,.785,2.182,1.353,.552,.566,.945,1.207,1.178,1.92,.232,.713,.349,1.461,.349,2.247v10.865c0,.844,.131,1.411,.393,1.701,.262,.291,.639,.437,1.134,.437,.32,0,.655-.058,1.003-.175,.349-.116,.684-.29,1.004-.523l.349,.48Zm-7.636-10.211h-.087c-.059,.378-.539,.757-1.44,1.135l-3.272,1.309c-.931,.379-1.644,.909-2.138,1.593s-.742,1.535-.742,2.553c0,.437,.044,.888,.131,1.353,.087,.466,.247,.88,.48,1.243,.232,.364,.56,.662,.982,.895,.421,.233,.967,.35,1.636,.35,.96,0,1.738-.203,2.334-.611,.596-.406,1.047-.916,1.353-1.526s.509-1.272,.611-1.986c.102-.712,.153-1.359,.153-1.941v-4.363Z" fill="#123e84"/>
      <path d="M754.392,423.769h.48c.203,.697,.465,1.403,.785,2.116,.319,.713,.749,1.367,1.287,1.963,.538,.597,1.2,1.084,1.985,1.462,.785,.379,1.73,.567,2.836,.567,.931,0,1.76-.283,2.487-.851,.727-.567,1.091-1.49,1.091-2.771,0-1.104-.283-1.883-.851-2.334s-1.229-.808-1.985-1.069l-3.403-1.178c-.437-.146-.91-.327-1.418-.546-.51-.218-.982-.523-1.419-.916-.436-.393-.792-.895-1.068-1.506-.277-.61-.415-1.396-.415-2.355,0-.814,.16-1.571,.48-2.27,.319-.698,.756-1.309,1.309-1.832,.553-.524,1.215-.931,1.985-1.223,.771-.29,1.607-.436,2.509-.436,.64,0,1.157,.051,1.55,.152,.393,.103,.734,.204,1.025,.306,.29,.103,.552,.204,.785,.306,.232,.102,.509,.152,.829,.152s.552-.116,.698-.349h.479v4.974h-.479c-.204-.64-.437-1.258-.698-1.854-.262-.596-.575-1.127-.938-1.593-.364-.465-.814-.829-1.353-1.091s-1.171-.393-1.898-.393c-1.396,0-2.479,.313-3.25,.938-.771,.626-1.156,1.462-1.156,2.509,0,.932,.327,1.637,.981,2.116,.654,.48,1.621,.924,2.901,1.331l3.186,1.047c1.367,.466,2.487,1.106,3.36,1.92,.872,.815,1.309,1.892,1.309,3.229,0,.785-.152,1.557-.458,2.312-.306,.757-.757,1.418-1.353,1.985-.597,.567-1.324,1.025-2.182,1.374-.858,.35-1.841,.524-2.945,.524-.641,0-1.229-.065-1.768-.197-.539-.131-1.033-.269-1.483-.414-.451-.146-.866-.283-1.244-.414-.378-.132-.728-.197-1.047-.197s-.553,.065-.698,.197c-.146,.131-.262,.269-.349,.414h-.48v-6.108Z" fill="#123e84"/>
      <path d="M781.227,420.539c0-1.425,.312-2.749,.938-3.971s1.425-2.275,2.4-3.163c.974-.888,2.065-1.578,3.272-2.073,1.207-.494,2.393-.741,3.557-.741s2.349,.247,3.556,.741c1.207,.495,2.298,1.186,3.272,2.073s1.774,1.941,2.4,3.163c.625,1.222,.938,2.546,.938,3.971,0,1.368-.291,2.655-.872,3.861-.582,1.208-1.346,2.263-2.291,3.164-.945,.902-2.029,1.614-3.251,2.138s-2.473,.786-3.752,.786-2.531-.263-3.753-.786-2.306-1.235-3.251-2.138c-.945-.901-1.709-1.956-2.291-3.164-.582-1.206-.872-2.493-.872-3.861Zm4.363,0c0,2.066,.159,3.709,.479,4.931s.742,2.16,1.266,2.814,1.135,1.084,1.833,1.287c.698,.204,1.439,.306,2.226,.306s1.526-.102,2.225-.306c.698-.203,1.31-.633,1.833-1.287s.945-1.593,1.266-2.814c.319-1.222,.479-2.864,.479-4.931,0-1.745-.116-3.207-.349-4.385-.233-1.179-.589-2.139-1.069-2.88-.479-.742-1.084-1.272-1.811-1.593-.728-.32-1.586-.48-2.574-.48s-1.848,.16-2.575,.48-1.33,.851-1.811,1.593c-.479,.741-.837,1.701-1.069,2.88-.232,1.178-.349,2.64-.349,4.385Z" fill="#123e84"/>
      <path d="M826.433,441.483h3.359v-15.229h-.087c-.088,.292-.248,.677-.48,1.156-.233,.48-.567,.946-1.003,1.396-.437,.451-.997,.845-1.681,1.179s-1.521,.502-2.509,.502c-1.28,0-2.494-.277-3.644-.829-1.149-.553-2.16-1.295-3.032-2.226-.873-.931-1.564-2-2.073-3.207s-.764-2.479-.764-3.818c0-1.309,.247-2.56,.742-3.753,.494-1.192,1.163-2.231,2.007-3.119s1.818-1.6,2.924-2.139c1.105-.538,2.283-.807,3.534-.807,1.6,0,2.902,.393,3.905,1.178,1.004,.785,1.724,1.804,2.16,3.055h.087v-3.665h7.025v.61h-3.359v29.715h3.359v.611h-10.472v-.611Zm-7.549-21.599c0,1.513,.043,2.888,.131,4.123,.087,1.237,.305,2.291,.654,3.164,.349,.872,.873,1.542,1.57,2.007,.698,.466,1.644,.698,2.837,.698,1.222,0,2.203-.262,2.945-.785,.741-.523,1.315-1.2,1.724-2.029,.407-.829,.683-1.752,.829-2.771,.145-1.019,.218-2.008,.218-2.968,0-1.134-.021-2.116-.065-2.945s-.124-1.563-.24-2.203-.276-1.192-.479-1.658c-.204-.465-.451-.901-.742-1.309-.437-.582-1.003-1.062-1.701-1.44-.698-.378-1.586-.567-2.662-.567-1.019,0-1.854,.204-2.509,.611s-1.164,.989-1.527,1.745c-.364,.757-.618,1.666-.764,2.728s-.218,2.262-.218,3.6Z" fill="#123e84"/>
      <path d="M871.681,429.877h-7.025v-4.407h-.087c-.262,.582-.575,1.172-.938,1.768-.364,.597-.814,1.134-1.353,1.614-.539,.479-1.164,.873-1.876,1.178-.714,.306-1.55,.459-2.51,.459-1.163,0-2.109-.132-2.836-.394-.728-.262-1.295-.537-1.701-.829-.204-.145-.43-.327-.677-.545s-.474-.517-.677-.895-.378-.865-.523-1.462c-.146-.596-.218-1.331-.218-2.203v-12.393h-3.36v-.61h7.112v13.396c0,.757,.051,1.455,.153,2.095,.102,.64,.298,1.199,.589,1.68,.29,.479,.669,.858,1.135,1.135,.465,.276,1.075,.414,1.832,.414,.64,0,1.302-.188,1.985-.567,.684-.378,1.31-.916,1.877-1.614s1.039-1.534,1.418-2.509c.378-.975,.567-2.073,.567-3.295v-10.123h-3.316v-.61h7.068v18.107h3.36v.611Z" fill="#123e84"/>
      <path d="M887.825,419.056c0,.291-.008,.589-.022,.895s-.021,.691-.021,1.156c0,.96,.058,1.964,.175,3.011,.115,1.047,.37,1.993,.764,2.836,.393,.845,.974,1.543,1.745,2.095,.771,.553,1.796,.829,3.076,.829s2.334-.188,3.163-.567c.829-.378,1.483-.836,1.964-1.374,.479-.538,.836-1.084,1.069-1.637,.232-.552,.406-1.004,.523-1.353l.654,.131c-.087,.32-.255,.778-.502,1.374-.247,.597-.64,1.193-1.178,1.789-.539,.597-1.266,1.12-2.182,1.571-.917,.45-2.103,.677-3.557,.677s-2.8-.233-4.036-.698c-1.236-.466-2.306-1.135-3.207-2.008-.902-.872-1.601-1.912-2.095-3.119-.495-1.207-.741-2.553-.741-4.037,0-1.279,.254-2.522,.764-3.73,.508-1.207,1.206-2.275,2.094-3.207,.888-.931,1.927-1.68,3.12-2.247,1.192-.567,2.473-.851,3.84-.851,.814,0,1.687,.146,2.618,.436,.931,.292,1.796,.764,2.597,1.419,.799,.654,1.468,1.521,2.007,2.596,.538,1.077,.808,2.415,.808,4.015h-13.439Zm8.988-.611c.058-.406,.087-.785,.087-1.134v-1.091c0-.989-.095-1.804-.283-2.444-.189-.639-.451-1.148-.785-1.526-.335-.378-.742-.647-1.222-.808-.48-.159-.997-.24-1.55-.24-.989,0-1.804,.196-2.443,.589-.64,.394-1.149,.924-1.527,1.593-.378,.67-.662,1.44-.851,2.312-.189,.873-.312,1.789-.371,2.749h8.945Z" fill="#123e84"/>
    </g>
  </g>
</svg>