<?xml version="1.0" encoding="UTF-8"?>
<svg id="a" data-name="레이어 1" xmlns="http://www.w3.org/2000/svg" width="1440" height="2160" viewBox="0 0 1440 2160">
  <rect width="1440" height="2160" fill="#123e84"/>
  <g>
    <path d="M223.968,1104.799c-23.858-2.779-43.537-7.186-59.048-13.199-15.522-6.023-28.374-14.36-38.555-25.008-10.192-10.659-20.385-25.009-30.566-43.07-6.491-10.659-13.438-20.732-20.841-30.219-7.413-9.498-14.132-17.486-20.146-23.966-30.11-4.168-58.473-13.655-85.099-28.482-26.637-14.816-50.017-33.345-70.163-55.575-20.146-22.23-36.015-47.694-47.586-76.415-11.582-28.71-17.367-59.048-17.367-91.003,0-39.358,7.989-75.026,23.966-106.981,15.978-31.956,36.471-59.276,61.479-81.973,25.008-22.686,53.023-40.172,84.056-52.448,31.022-12.266,61.36-18.409,91.003-18.409,31.956,0,63.563,6.024,94.824,18.062,31.26,12.048,59.048,29.177,83.362,51.407,24.313,22.229,43.993,49.214,59.048,80.93,15.044,31.728,22.577,67.503,22.577,107.328,0,34.734-7.066,67.731-21.188,98.992-14.132,31.261-33.117,58.701-56.964,82.32-23.858,23.619-51.406,42.267-82.667,55.922s-64.258,20.493-98.992,20.493c-8.803,0-16.672-.695-23.619-2.084,4.624,5.091,9.139,9.259,13.546,12.504,4.396,3.234,9.953,5.905,16.672,7.989,6.708,2.084,14.697,3.821,23.966,5.21,9.259,1.389,21.068,2.779,35.429,4.168,23.152,2.312,40.639,8.792,52.449,19.451,11.81,10.648,22.11,23.847,30.913,39.597,4.624,8.336,8.684,15.164,12.157,20.493,3.473,5.318,7.641,9.606,12.504,12.852,4.863,3.234,10.876,5.439,18.062,6.6,7.175,1.15,16.781,1.736,28.829,1.736v9.727c-37.513-1.855-68.198-4.168-92.045-6.947ZM-43.831,837.694c5.557,31.727,14.241,56.964,26.05,75.72s27.093,31.847,45.849,39.25c18.756,7.414,41.095,11.115,67.037,11.115,34.267,0,61.132-6.361,80.583-19.104,19.451-12.732,34.04-30.328,43.765-52.796,9.726-22.458,15.858-49.083,18.409-79.889,2.54-30.794,3.821-64.258,3.821-100.381,0-32.411-1.042-63.325-3.126-92.74-2.084-29.405-7.989-55.336-17.714-77.805-9.726-22.458-24.433-40.292-44.112-53.49-19.69-13.199-46.891-19.798-81.625-19.798-32.422,0-58.353,6.144-77.804,18.409-19.451,12.276-34.278,29.524-44.46,51.753-10.192,22.23-16.911,48.628-20.146,79.194-3.246,30.566-4.863,64.149-4.863,100.729,0,48.171,2.779,88.116,8.336,119.833Z" fill="#fff"/>
    <path d="M473.557,981.408v9.726h-63.911v311.912c0,21.773,1.042,42.963,3.126,63.564,2.084,20.611,6.947,39.021,14.588,55.227,7.642,16.217,18.984,29.297,34.04,39.25,15.044,9.963,35.309,14.936,60.785,14.936,25.008,0,45.958-2.889,62.869-8.684,16.9-5.785,30.913-13.428,42.028-22.926,11.115-9.486,19.679-20.145,25.704-31.955,6.013-11.809,10.42-23.619,13.199-35.428,2.779-11.811,4.396-22.926,4.863-33.346,.456-10.42,.695-19.104,.695-26.051v-326.5h-63.216v-9.726h138.937v9.726h-64.605v325.806c0,7.412-.239,16.791-.695,28.135-.467,11.354-2.323,23.271-5.557,35.775-3.246,12.504-8.108,25.008-14.588,37.514-6.491,12.504-15.978,23.738-28.482,33.691-12.504,9.965-28.254,18.061-47.238,24.314-18.995,6.252-42.375,9.377-70.163,9.377-44.926,0-81.05-4.982-108.37-14.936-27.332-9.953-48.28-22.924-62.869-38.902-14.588-15.977-24.206-34.146-28.829-54.531-4.635-20.375-6.947-40.986-6.947-61.828v-324.416h-64.605v-9.726h229.245Z" fill="#fff"/>
    <path d="M717.425,901.387c15.978-31.956,36.471-59.276,61.479-81.973,25.009-22.686,53.024-40.172,84.057-52.448,31.022-12.266,61.36-18.409,91.004-18.409,31.955,0,63.562,6.024,94.823,18.062,31.261,12.048,59.048,29.177,83.362,51.407,24.313,22.229,43.992,49.214,59.048,80.93,15.044,31.728,22.577,67.503,22.577,107.328,0,34.734-7.066,67.731-21.188,98.992-14.133,31.262-33.117,58.701-56.964,82.32-23.858,23.619-51.407,42.266-82.668,55.922-31.26,13.654-64.258,20.492-98.991,20.492-34.278,0-67.156-6.6-98.646-19.799-31.499-13.197-59.167-31.26-83.014-54.184-23.858-22.926-42.962-49.898-57.312-80.932-14.36-31.021-21.535-64.605-21.535-100.728,0-39.358,7.989-75.026,23.966-106.981Zm97.603,226.812c5.558,31.729,14.241,56.965,26.051,75.721s27.092,31.848,45.849,39.25c18.756,7.414,41.095,11.115,67.037,11.115,34.267,0,61.132-6.361,80.583-19.104,19.45-12.732,34.039-30.328,43.765-52.797,9.726-22.457,15.858-49.084,18.409-79.889,2.54-30.793,3.82-64.257,3.82-100.381,0-32.411-1.042-63.325-3.126-92.74-2.084-29.405-7.989-55.336-17.714-77.805-9.726-22.458-24.434-40.292-44.112-53.49-19.69-13.199-46.892-19.798-81.625-19.798-32.423,0-58.354,6.144-77.805,18.409-19.451,12.276-34.278,29.524-44.46,51.753-10.192,22.23-16.911,48.628-20.146,79.194-3.245,30.566-4.862,64.149-4.862,100.729,0,48.171,2.778,88.116,8.336,119.832Zm164.64-540.114l75.025,136.852h-8.336l-92.393-88.225-92.394,88.225h-8.336l75.721-136.852h50.712Z" fill="#fff"/>
    <path d="M1359.41,1155.195v9.725h-54.88l141.715,242.445,127.821-242.445h-60.438v-9.725h132.685v9.725h-60.438l-134.073,254.949v220.213h64.605v9.727h-229.245v-9.727h63.91v-193.816l-161.166-281.346h-54.185v-9.725h223.688Z" fill="#fff"/>
  </g>
  <rect x="623.478" width="192.719" height="437.894" fill="#e25a34"/>
  <path d="M677.246,287.614c.087,.427,.473,.954,.743,.945,.005-.022-.046-.049-.039-.061,.079-.03-.062-.031-.245,.025-8.474,5.505-21.141,26.86-14.794,36.506,2.804,4.655,10.912,7.407,16.122,9.723,8.867,3.88,16.752,10.042,22.62,17.731,3.082,4.046,5.488,8.837,5.268,14.186-.09,6.142-6.165,10.471-11.984,9.252-7.957-1.258-12.051-8.794-15.604-15.158-3.068-5.321-1.307-10.55,3.01-14.25,11.964-11.7,29.402-13.918,43.386-22.049,11.738-6.939-.859-20.407-9.064-24.152-8.273-3.637-11.991-3.422-7.878,4.969,3.136,6.236,7.958,10.958,11.533,17.229,2.355,4.194,4.259,9.121,3.817,14.446-.043,5.191-6.211,13.449,.278,16.139,5.979,1.531,13.488-.732,19.62-1.466,0,0,13.722-2.17,13.722-2.17,12.132-1.557,29.007-5.083,29.662-19.929-.258-12.31-4.231-29.075-17.127-33.8,0,0,1.08-1.21,1.08-1.21,2.192,4.974,8.263,7.536,9.649,13.277,2.428,11.002-13.112,19.007-20.069,25.19,0,0-12.952,10.145-12.952,10.145l-.117,.093-.264-1.555c12.717,3.267,26.143,7.113,38.74,10.872,9.697,2.226,6.252,9.71,1.289,15.082-5.167,5.818-11.959,9.771-18.883,12.85-10.063,4.427-20.357,7.973-30.999,10.688-5.187,1.541-13.027,2.494-18.508-.127,0,0-4.806-2.019-4.806-2.019-12.459-4.52-24.563,5.545-34.585,13.077-.077,.057-.226,.159-.302,.215-.55,.412-1.416-.024-1.384-.721,.365-20.649-4.591-44.374-22.862-56.47-1.334-.86-1.647-.19-2.203,1.331-2.028,7.365,4.982,12.488,11.085,15.525,1.571,.838,2.166,2.792,1.328,4.363-.93,1.798-3.391,2.267-4.922,.949-3.031-2.546-6.395-5.286-8.786-9.04-2.397-3.797-3.473-8.666-1.659-12.956,1.069-2.809,3.746-4.62,6.634-2.482,4.892,3.636,8.94,8.161,12.116,13.294,4.239,6.748,6.957,14.313,8.59,22.017,1.597,7.73,2.21,15.6,2.472,23.447l-1.544-.607c3.997-6.093,8.606-12.025,15.203-16.504,8.765-6.004,19.424-6.785,28.951-1.899,4.476,1.826,7.955,1.082,13.003-.097,6.786-1.666,13.499-3.693,20.143-5.906,11.07-3.973,22.746-7.68,29.724-17.367,.347-.446,.503-.952,.496-.776,.01,.07,.073,.421,.257,.626,.191,.246,.348,.276,.235,.2-11.819-4.624-27.933-10.903-39.399-15.865-.751-.238-.802-1.275-.145-1.646,4.205-3.301,15.34-12.012,19.427-15.218,5.6-4.636,14.443-9.973,12.959-18.279-1.397-5.305-7.36-7.808-9.556-12.999-.393-.735,.51-1.552,1.218-1.164,4.73,1.307,8.719,4.6,11.521,8.5,4.167,5.919,6.401,12.836,7.653,19.859,4.497,21.776-13.768,28.915-31.695,31.12-4.617,.783-16.103,2.716-20.547,3.468-4.855,.785-9.711,1.77-14.781,.361-2.888-.665-5.491-3.732-5.842-6.669-1.052-5.163,2.06-9.609,2.532-14.142,.419-3.996-1.008-8.198-3.101-12.034-3.754-6.964-10.051-13.257-12.523-21.166-.898-2.734-.616-6.918,2.57-8.182,4.081-1.247,7.754,.859,11.302,2.359,10.069,4.752,22.704,21.039,9.059,29.02-13.755,8.013-31.218,10.618-42.551,22.168-1.586,1.545-2.927,3.248-3.346,4.988-.431,1.699,.149,3.591,1.173,5.479,2.136,3.641,4.555,7.828,7.81,10.52,4.103,3.755,12.432,3.486,12.577-3.268,.081-6.378-4.815-11.775-9.204-15.989-3.228-3.033-6.834-5.652-10.696-7.775-5.855-3.37-13.094-4.871-19.158-8.601-13.282-7.644-9.785-23.955-4.12-35.39,2.161-4.449,4.876-8.643,8.084-12.455,2.468-2.934,5.337-6.197,9.752-6.573,3.846-.32,7.889,1.993,8.81,6.028,1.122,5.978-7.574,7.793-8.979,1.927h0Z" fill="#fff"/>
</svg>