<?xml version="1.0" encoding="UTF-8"?>
<svg id="a" data-name="레이어 1" xmlns="http://www.w3.org/2000/svg" width="2160" height="1440" viewBox="0 0 2160 1440">
  <path d="M329.613,.224C936.069,.224,1542.525,.247,2148.981,0c8.993-.004,11.024,2.024,11.019,11.017-.257,442.894-.257,975.073,0,1417.967,.005,8.992-2.026,11.019-11.019,11.016-712.396-.243-1424.792-.243-2137.188,0-8.993,.003-11.025-2.024-11.019-11.016,.263-377.739,.225-844.763,.225-1222.502,2.095-1.099,4.273-2.064,6.272-3.315,83.112-51.974,166.292-103.843,249.257-156.051,24.494-15.414,49.933-29.379,73.085-46.892Zm750.71,1429.169c351.764,0,703.527-.046,1055.291,.221,10.657,.008,14.066-2.229,14.057-13.638-.32-434.055-.305-957.394-.067-1391.449,.006-10.415-1.827-14.21-13.486-14.203-562.822,.323-1125.643,.295-1688.465,.153-7.972-.002-14.54,2.043-21.242,6.243C291.761,101.098,157.049,185.377,22.152,269.358c-8.145,5.07-10.996,10.499-10.989,20.031,.252,345.325,.285,779.935-.089,1125.26-.013,12.307,3.115,15.037,15.159,15.025,351.363-.348,702.727-.281,1054.091-.281Z" fill="#fefefd"/>
  <path d="M329.613,.224c-23.151,17.512-48.591,31.478-73.085,46.892C173.563,99.324,90.384,151.192,7.272,203.167c-2,1.251-4.178,2.216-6.272,3.315,0-65.807,.168-131.615-.223-197.42C.73,1.24,2.967,.042,10.112,.058c106.5,.24,213.001,.166,319.502,.166Z" fill="#febe01"/>
  <path d="M1080.323,1429.393c-351.364,0-702.728-.066-1054.091,.281-12.043,.012-15.172-2.718-15.159-15.025,.375-345.325,.341-779.935,.089-1125.26-.007-9.532,2.844-14.961,10.989-20.031C157.049,185.377,291.761,101.098,426.411,16.721c6.702-4.2,13.27-6.245,21.242-6.243,562.822,.142,1125.643,.17,1688.465-.153,11.66-.007,13.492,3.789,13.486,14.203-.238,434.055-.253,957.394,.067,1391.449,.008,11.409-3.4,13.646-14.057,13.638-351.763-.267-703.527-.221-1055.291-.221Zm.066-22.47c344.204,0,688.408-.037,1032.612,.183,10.155,.006,14.278-1.509,14.268-13.333-.353-419.309-.342-927.904-.04-1347.213,.008-11.144-3.086-13.718-13.895-13.712-553.285,.261-1106.57,.243-1659.855,.096-7.991-.002-14.588,2.077-21.261,6.26C303.32,120.015,174.386,200.77,45.231,281.171c-8.497,5.289-11.681,10.709-11.672,20.815,.297,333.369,.241,756.023,.286,1089.392,.002,17.403-2.09,15.514,15.13,15.516,343.804,.039,687.609,.029,1031.413,.029Z" fill="#ce8916"/>
  <path d="M1080.389,1406.923c-343.804,0-687.609,.01-1031.413-.029-17.221-.002-15.128,1.887-15.13-15.516-.045-333.369,.011-756.023-.286-1089.392-.009-10.106,3.175-15.525,11.672-20.815C174.386,200.77,303.32,120.015,432.218,39.204c6.673-4.183,13.27-6.263,21.261-6.26,553.285,.147,1106.57,.165,1659.855-.096,10.809-.005,13.903,2.568,13.895,13.712-.302,419.31-.312,927.904,.04,1347.213,.01,11.824-4.113,13.34-14.268,13.333-344.204-.221-688.408-.183-1032.612-.183Zm-.546-20.921c337.379,0,674.758-.063,1012.136,.265,11.715,.011,14.349-3.23,14.34-14.621-.316-404.485-.333-898.254-.003-1302.739,.01-12.038-2.741-15.171-15.012-15.164-543.244,.338-1086.488,.307-1629.733,.158-8.756-.002-16.172,1.937-23.602,6.596-124.117,77.843-248.292,155.596-372.686,232.997-8.305,5.168-10.744,10.776-10.737,20.144,.222,322.549,.174,734.382,.165,1056.931q0,15.425,15.392,15.432c336.579,.001,673.159,.001,1009.738,.001Z" fill="#fefefd"/>
  <path d="M1079.843,1386.002c-336.579,0-673.159,0-1009.738-.001q-15.389,0-15.392-15.432c.008-322.549,.056-734.382-.165-1056.931-.006-9.369,2.432-14.977,10.737-20.144,124.394-77.401,248.568-155.153,372.686-232.997,7.429-4.659,14.846-6.598,23.602-6.596,543.244,.149,1086.488,.18,1629.733-.158,12.27-.008,15.021,3.125,15.012,15.164-.33,404.485-.313,898.254,.003,1302.739,.009,11.391-2.624,14.633-14.34,14.621-337.379-.328-674.757-.265-1012.136-.265Zm.639-261.865c25.461-71.388,49.833-139.262,73.713-207.308,2.803-7.987,5.111-9.594,13.081-5.752,62.515,30.133,125.237,59.84,187.966,89.527,2.501,1.183,4.966,4.495,8.769,1.776-.937-2.21-1.782-4.419-2.791-6.552-29.684-62.71-59.199-125.501-89.29-188.015-4.262-8.853-2.54-11.64,6.287-14.586,27.604-9.213,54.913-19.312,82.33-29.082,40.509-14.436,81.014-28.884,123.284-43.956-5.003-1.917-8.178-3.207-11.402-4.358-64.202-22.927-128.3-46.154-192.72-68.451-11.152-3.86-11.378-7.702-6.81-17.186,29.241-60.711,57.954-121.677,86.812-182.573,1.707-3.603,3.172-7.32,4.996-11.556-1.998,.132-2.452,.042-2.788,.201-64.123,30.466-128.368,60.679-192.216,91.709-10.166,4.941-13.059,2.841-16.397-6.959-12.723-37.352-26.243-74.433-39.485-111.608-10.745-30.166-21.519-60.322-32.256-90.418-3.669,1.052-3.29,3.393-3.913,5.143-23.388,65.715-46.913,131.382-69.984,197.208-3.137,8.95-5.599,11.831-15.527,6.957-46.537-22.85-93.525-44.782-140.357-67.03-17.822-8.466-35.659-16.899-53.78-25.486-1.435,5.109,1.486,7.855,2.919,10.885,29.496,62.355,59.008,124.703,88.858,186.888,3.334,6.945,3.225,9.936-4.824,12.554-21.596,7.024-42.911,14.916-64.311,22.539-47.293,16.845-94.57,33.737-143.513,51.202,6.065,2.325,10.46,4.115,14.927,5.706,63.846,22.737,127.654,45.581,191.611,68.003,8.38,2.938,9.764,5.446,5.654,13.927-27.48,56.697-54.27,113.729-81.262,170.662-3.842,8.103-7.563,16.264-11.513,24.768,4.705,1.091,7.14-1.34,9.821-2.608,62.016-29.338,124.136-58.463,185.84-88.444,9.896-4.809,12.332-2.475,15.419,6.651,11.108,32.845,22.936,65.447,34.546,98.122,12.353,34.766,24.767,69.51,38.306,107.497Z" fill="#c97e01"/>
  <path d="M1080.482,1124.137c-13.54-37.987-25.953-72.731-38.306-107.497-11.61-32.675-23.438-65.277-34.546-98.122-3.087-9.126-5.523-11.46-15.419-6.651-61.704,29.982-123.824,59.106-185.84,88.444-2.681,1.268-5.116,3.7-9.821,2.608,3.949-8.504,7.671-16.665,11.513-24.768,26.992-56.934,53.782-113.965,81.262-170.662,4.111-8.481,2.726-10.99-5.654-13.927-63.957-22.421-127.765-45.265-191.611-68.003-4.467-1.591-8.862-3.381-14.927-5.706,48.943-17.465,96.22-34.356,143.513-51.202,21.4-7.622,42.715-15.514,64.311-22.539,8.049-2.618,8.158-5.61,4.824-12.554-29.85-62.186-59.362-124.533-88.858-186.888-1.433-3.03-4.354-5.776-2.919-10.885,18.122,8.586,35.959,17.02,53.78,25.486,46.833,22.248,93.82,44.18,140.357,67.03,9.928,4.874,12.39,1.992,15.527-6.957,23.071-65.826,46.595-131.493,69.984-197.208,.623-1.75,.244-4.091,3.913-5.143,10.738,30.095,21.511,60.251,32.256,90.418,13.242,37.175,26.762,74.256,39.485,111.608,3.338,9.8,6.231,11.9,16.397,6.959,63.849-31.03,128.094-61.243,192.216-91.709,.336-.159,.79-.069,2.788-.201-1.824,4.236-3.289,7.953-4.996,11.556-28.858,60.895-57.571,121.861-86.812,182.573-4.568,9.484-4.342,13.326,6.81,17.186,64.42,22.298,128.518,45.524,192.72,68.451,3.224,1.151,6.399,2.441,11.402,4.358-42.269,15.071-82.774,29.52-123.284,43.956-27.418,9.77-54.726,19.869-82.33,29.082-8.828,2.946-10.549,5.732-6.287,14.586,30.091,62.514,59.606,125.305,89.29,188.015,1.009,2.132,1.854,4.342,2.791,6.552-3.803,2.719-6.268-.593-8.769-1.776-62.729-29.687-125.451-59.394-187.966-89.527-7.97-3.842-10.278-2.235-13.081,5.752-23.88,68.046-48.253,135.92-73.713,207.308Zm156.279-403.726c.107-86.942-70.041-157.42-156.472-157.207-85.945,.212-156.041,70.426-156.2,156.462-.16,86.73,70.071,157.132,156.653,157.036,86.213-.095,155.912-69.916,156.018-156.291Zm-117.177,198.227h-78.025c12.822,36.054,25.356,71.298,38.995,109.649,13.565-38.11,25.993-73.024,39.029-109.649Zm-78.114-396.98c24.041,0,46.413-.363,68.763,.185,8.54,.209,8.976-2.136,6.326-9.341-11.153-30.319-21.735-60.848-32.745-91.22-.75-2.069,.3-6.056-4.527-5.998-12.372,34.801-24.764,69.658-37.817,106.374Zm151.504,366.321c35.336,16.773,68.889,32.699,105.328,49.995-16.704-35.225-32.097-67.45-47.223-99.799-2.711-5.797-4.749-3.283-7.581-.453-16.356,16.339-32.775,32.616-50.524,50.257Zm-281.267-53.168c-15.81,33.317-31.747,66.901-48.967,103.189,36.512-17.338,70.166-33.318,103.297-49.05-18.115-18.051-35.848-35.722-54.33-54.138Zm281.45-282.689c16.822,16.768,33.173,32.404,48.675,48.84,6.365,6.749,8.033,3.815,10.923-2.403,13.564-29.188,27.451-58.227,41.072-87.389,.961-2.057,4.206-4.271,.707-7.317-33.253,15.833-66.574,31.698-101.376,48.269Zm-226.422-.606c-33.96-16.135-67.563-32.101-103.973-49.401,17.359,36.521,33.426,70.323,49.267,103.65,18.472-18.318,36.001-35.701,54.706-54.249Zm-84.933,207.405c0-24.73-.073-47.807,.06-70.883,.028-4.8-1.261-6.594-6.222-4.808-33.527,12.068-67.091,24.035-103.003,36.879,37.526,13.342,72.663,25.834,109.165,38.812Zm506.49-38.845c-35.548-12.725-68.924-24.624-102.252-36.655-5.086-1.836-7.124-1.034-7.053,4.911,.252,21.177,.173,42.359,.043,63.537-.028,4.499,.799,6.954,5.99,5.094,33.733-12.086,67.488-24.113,103.272-36.887Z" fill="#fcfbfa"/>
  <path d="M1236.761,720.412c-.106,86.375-69.805,156.196-156.018,156.291-86.583,.096-156.813-70.306-156.653-157.036,.159-86.036,70.254-156.25,156.2-156.462,86.431-.213,156.579,70.264,156.472,157.207Zm-156.235,145.024c80.703-.043,145.596-64.773,145.773-145.406,.176-80.087-65.345-145.521-145.767-145.575-80.228-.054-145.854,65.447-145.872,145.593-.017,80.274,65.354,145.432,145.866,145.388Z" fill="#101010"/>
  <path d="M1119.584,918.639c-13.036,36.624-25.464,71.539-39.029,109.649-13.639-38.351-26.173-73.595-38.995-109.649h78.025Zm-38.922,76.956c8.37-23.854,15.562-44.351,23.182-66.066-14.349,0-27.028,.116-39.704-.062-4.584-.064-6.853,.952-5.016,6.039,6.832,18.914,13.579,37.859,21.538,60.089Z" fill="#141414"/>
  <path d="M1041.47,521.659c13.053-36.716,25.445-71.573,37.817-106.374,4.828-.058,3.777,3.929,4.527,5.998,11.01,30.373,21.592,60.901,32.745,91.22,2.65,7.205,2.214,9.55-6.326,9.341-22.35-.548-44.723-.185-68.763-.185Zm39.184-76.927c-4.518,12.35-8.295,21.764-11.398,31.395-3.509,10.89-14.222,25.771-9.325,31.52,6.707,7.874,22.857,1.657,34.892,2.735,7.265,.651,8.976-1.465,6.279-8.568-6.758-17.797-12.888-35.832-20.449-57.082Z" fill="#121212"/>
  <path d="M1192.975,887.98c17.749-17.641,34.167-33.918,50.524-50.257,2.832-2.829,4.87-5.344,7.581,.453,15.126,32.349,30.519,64.574,47.223,99.799-36.438-17.296-69.992-33.223-105.328-49.995Zm53.67-33.416c-10.927,10.401-21.73,20.683-32.77,31.191,18.956,8.991,38.157,18.098,57.357,27.204,.718-.546,1.437-1.091,2.155-1.637-9.194-19.514-18.388-39.028-26.742-56.758Z" fill="#121212"/>
  <path d="M911.707,834.812c18.482,18.417,36.215,36.087,54.33,54.138-33.132,15.732-66.785,31.713-103.297,49.05,17.22-36.288,33.157-69.872,48.967-103.189Zm-25.924,80.076c22.856-10.853,42.372-20.121,60.634-28.793-10.688-10.825-21.127-21.397-31.651-32.056-8.833,18.544-18.078,37.953-28.984,60.849Z" fill="#121212"/>
  <path d="M1193.157,552.123c34.803-16.571,68.123-32.436,101.376-48.269,3.499,3.046,.254,5.261-.707,7.317-13.621,29.162-27.507,58.201-41.072,87.389-2.89,6.218-4.558,9.152-10.923,2.403-15.502-16.436-31.853-32.072-48.675-48.84Zm51.754,37.348c10.272-21.916,19.396-41.384,28.52-60.852-20.117,6.973-37.961,15.674-55.991,23.969-5.694,2.619-3.455,4.707-.605,7.637,8.886,9.134,17.659,18.377,28.075,29.247Z" fill="#0e0e0e"/>
  <path d="M966.736,551.517c-18.705,18.549-36.234,35.932-54.706,54.249-15.841-33.327-31.908-67.129-49.267-103.65,36.41,17.3,70.013,33.266,103.973,49.401Zm-50.69,37.487c10.559-10.77,19.682-20.161,28.916-29.441,2.801-2.816,3.876-4.607-.857-6.789-18.537-8.544-36.921-17.421-58.267-27.553,10.725,22.645,19.993,42.213,30.209,63.783Z" fill="#0e0e0e"/>
  <path d="M881.802,758.922c-36.502-12.978-71.64-25.471-109.165-38.812,35.912-12.844,69.476-24.811,103.003-36.879,4.961-1.786,6.25,.008,6.222,4.808-.133,23.076-.06,46.153-.06,70.883Zm-10.496-62.472c-22.268,7.928-43.118,15.351-66.224,23.577,21.487,7.689,40.929,14.536,60.275,21.642,5.353,1.966,6.051-.359,6-4.859-.146-12.736-.051-25.476-.051-40.361Z" fill="#0c0c0c"/>
  <path d="M1388.292,720.077c-35.785,12.774-69.539,24.801-103.272,36.887-5.192,1.86-6.018-.595-5.99-5.094,.13-21.179,.209-42.361-.043-63.537-.071-5.945,1.967-6.747,7.053-4.911,33.328,12.031,66.704,23.93,102.252,36.655Zm-98.663-23.5c0,14.186-.022,26.886,.015,39.585,.01,3.48-.846,7.942,5.344,5.719,19.52-7.009,39.038-14.021,60.987-21.905-23.68-8.351-44.537-15.707-66.346-23.399Z" fill="#0c0c0c"/>
  <path d="M1080.526,865.436c-80.512,.043-145.883-65.114-145.866-145.388,.017-80.145,65.644-145.646,145.872-145.593,80.422,.054,145.943,65.488,145.767,145.575-.177,80.633-65.07,145.362-145.773,145.406Zm134.475-145.712c-.121-74.494-60.835-135.151-134.82-134.694-74.363,.46-134.642,61.198-134.327,135.349,.317,74.542,60.655,134.7,134.971,134.568,74.383-.131,134.297-60.513,134.176-135.223Z" fill="#eee"/>
  <path d="M1080.662,995.595c-7.959-22.229-14.706-41.174-21.538-60.089-1.837-5.087,.431-6.103,5.016-6.039,12.676,.178,25.356,.062,39.704,.062-7.619,21.715-14.811,42.211-23.182,66.066Zm.033-32.35c2.316-6.507,3.919-10.097,4.828-13.855,.719-2.972,5.306-6.706,.121-9.006-2.948-1.307-7.51-1.317-10.384,.073-4.906,2.373-.315,6.079,.352,9.05,.833,3.711,2.603,7.211,5.084,13.738Z" fill="#f0f0f0"/>
  <path d="M1080.654,444.732c7.56,21.251,13.691,39.285,20.449,57.082,2.697,7.103,.986,9.219-6.279,8.568-12.035-1.078-28.185,5.14-34.892-2.735-4.897-5.749,5.816-20.63,9.325-31.52,3.103-9.631,6.88-19.046,11.398-31.395Zm7.119,54.469c-1.272-7.058-3.206-13.711-7.528-20.449q-9.363,22.201,7.528,20.449Z" fill="#f0f0f0"/>
  <path d="M1246.644,854.564c8.354,17.731,17.548,37.244,26.742,56.758-.718,.546-1.437,1.091-2.155,1.637-19.2-9.107-38.401-18.213-57.357-27.204,11.04-10.508,21.843-20.79,32.77-31.191Zm-14.129,27.473c4.423,3.84,11.13,5.791,20.083,10.093-4.278-8.907-7.116-14.816-10.502-21.866-3.465,4.258-6.39,7.853-9.581,11.773Z" fill="#f0f0f0"/>
  <path d="M885.783,914.887c10.906-22.896,20.151-42.305,28.984-60.849,10.524,10.659,20.962,21.23,31.651,32.056-18.263,8.672-37.779,17.94-60.634,28.793Zm27.147-25.506c6.049-1.796,11.79-4.169,16.74-8.317q-10.65-11.673-17.046,2.253c-.663,1.446-1.197,2.951-1.785,4.43l-.244,2.741c.778-.369,1.557-.738,2.335-1.107Z" fill="#f0f0f0"/>
  <path d="M1244.911,589.471c-10.416-10.87-19.19-20.113-28.075-29.247-2.85-2.929-5.089-5.017,.605-7.637,18.03-8.295,35.874-16.996,55.991-23.969-9.124,19.468-18.249,38.936-28.52,60.852Zm-15.279-30.592c5.496,3.155,8.619,10.715,11.821,8.976,5.854-3.18,6.795-11.134,10.593-19.718-8.684,4.162-14.806,7.095-22.414,10.741Z" fill="#ececec"/>
  <path d="M916.046,589.003c-10.216-21.57-19.484-41.139-30.209-63.783,21.346,10.132,39.73,19.009,58.267,27.553,4.733,2.181,3.658,3.973,.857,6.789-9.234,9.281-18.357,18.671-28.916,29.441Zm-7.362-41.067c4.357,8.945,5.127,16.88,10.891,19.796,3.14,1.588,6.908-5.139,10.72-9.43-6.616-3.173-12.625-6.056-21.611-10.366Z" fill="#ececec"/>
  <path d="M871.306,696.45c0,14.885-.095,27.624,.051,40.361,.051,4.5-.647,6.825-6,4.859-19.346-7.107-38.788-13.953-60.275-21.642,23.106-8.226,43.955-15.649,66.224-23.577Zm-33.464,23.511c5.731,2.277,9.246,4.379,12.991,4.934,2.923,.433,6.488,5.497,8.865,.506,1.376-2.888,1.471-7.516,.072-10.333-2.186-4.402-6.034-.653-9.02,.169-3.756,1.034-7.351,2.653-12.908,4.724Z" fill="#ececec"/>
  <path d="M1289.63,696.577c21.809,7.691,42.666,15.048,66.346,23.399-21.949,7.884-41.468,14.896-60.987,21.905-6.19,2.223-5.334-2.24-5.344-5.719-.037-12.699-.015-25.398-.015-39.585Zm11.681,31.358c5.618-1.865,10.482-3.383,15.266-5.119,1.773-.643,3.359-1.8,5.313-2.879q-21.726-9.642-20.579,7.998Z" fill="#ececec"/>
  <path d="M1215.001,719.724c.121,74.711-59.793,135.092-134.176,135.223-74.317,.131-134.654-60.026-134.971-134.568-.315-74.151,59.964-134.889,134.327-135.349,73.986-.458,134.7,60.199,134.82,134.694Z" fill="#010101"/>
  <path d="M1080.694,963.244c-2.481-6.527-4.251-10.027-5.084-13.738-.667-2.97-5.257-6.677-.352-9.05,2.875-1.39,7.437-1.381,10.384-.073,5.185,2.3,.598,6.034-.121,9.006-.909,3.758-2.512,7.348-4.828,13.855Z" fill="#1c1c1c"/>
  <path d="M1087.773,499.201q-16.892,1.753-7.528-20.449c4.322,6.738,6.257,13.391,7.528,20.449Z" fill="#1c1c1c"/>
  <path d="M1232.516,882.037c3.19-3.92,6.115-7.514,9.581-11.773,3.386,7.05,6.224,12.959,10.502,21.866-8.953-4.302-15.659-6.253-20.083-10.093Z" fill="#141414"/>
  <path d="M910.833,887.746c.594-1.478,1.127-2.983,1.79-4.428q6.39-13.93,17.046-2.253c-4.95,4.148-10.691,6.521-16.74,8.317-.699-.545-1.398-1.09-2.096-1.636Z" fill="#121212"/>
  <path d="M912.93,889.382c-.778,.369-1.557,.738-2.335,1.107,.081-.914,.163-1.828,.242-2.742,.696,.545,1.395,1.09,2.094,1.635Z" fill="#121212"/>
  <path d="M1229.632,558.879c7.608-3.646,13.73-6.58,22.414-10.741-3.798,8.584-4.738,16.538-10.593,19.718-3.202,1.739-6.326-5.822-11.821-8.976Z" fill="#1c1c1c"/>
  <path d="M908.684,547.937c8.986,4.31,14.995,7.192,21.611,10.366-3.813,4.291-7.581,11.019-10.72,9.43-5.764-2.916-6.533-10.852-10.891-19.796Z" fill="#141414"/>
  <path d="M837.842,719.961c5.557-2.072,9.152-3.69,12.908-4.724,2.986-.822,6.834-4.571,9.02-.169,1.399,2.817,1.304,7.445-.072,10.333-2.377,4.991-5.942-.073-8.865-.506-3.744-.555-7.259-2.657-12.991-4.934Z" fill="#1c1c1c"/>
  <path d="M1301.311,727.935q-1.147-17.64,20.579-7.998c-1.954,1.079-3.54,2.235-5.313,2.879-4.784,1.736-9.648,3.254-15.266,5.119Z" fill="#1c1c1c"/>
</svg>