<?xml version="1.0" encoding="utf-8"?>
<!-- Generator: Adobe Illustrator 26.5.0, SVG Export Plug-In . SVG Version: 6.00 Build 0)  -->
<svg version="1.1" id="레이어_1" xmlns="http://www.w3.org/2000/svg" xmlns:xlink="http://www.w3.org/1999/xlink" x="0px"
	 y="0px" viewBox="0 0 36 36" style="enable-background:new 0 0 36 36;" xml:space="preserve">
<style type="text/css">
	.st0{fill:#B5EDE3;}
	.st1{fill:#FBCFED;}
	.st2{fill:#F6F6F6;}
	.st3{fill:#353434;}
	.st4{fill:#302F30;}
	.st5{fill:#232323;}
	.st6{fill:#191919;}
	.st7{fill:#313131;}
	.st8{fill:#F8CDEA;}
	.st9{fill:#F8CEEA;}
	.st10{fill:#F7CEEA;}
	.st11{fill:#EEEFCB;}
	.st12{fill:#EDE1CB;}
	.st13{fill:#E9DEC9;}
</style>
<g>
	<path class="st0" d="M36,22.3V27c0,1.8-1.2,3.2-2.7,3.8c-0.2,0.1-0.4,0.1-0.5,0.1C32.5,31,32.2,31,32,31H4c-2.2,0-4-1.8-4-4v-4.7
		h15.8c0.1,0,0.2,0,0.3,0c0.1,0,0.3,0,0.4,0c0.1,0,0.2,0,0.3,0H36z"/>
	<path class="st1" d="M36,9v4.7H18.9c-0.1,0-0.2,0-0.3,0v0H0V9c0-0.3,0-0.5,0.1-0.8c0-0.1,0.1-0.2,0.1-0.4c0,0,0,0,0,0
		c0.2-0.5,0.4-0.9,0.7-1.3C1,6.4,1,6.3,1.1,6.2C1.2,6.2,1.3,6.1,1.4,6C2.1,5.4,3,5,4,5h28C34.2,5,36,6.8,36,9z"/>
	<path class="st2" d="M36,13.7v8.7H16.8c-0.1,0-0.2,0-0.3,0c0.6-0.1,1.1-0.4,1.4-1c0,0,0,0,0,0c0.1,0,0.2,0,0.2,0
		c0,0.1,0.1,0.1,0.1,0.1c0.3,0.6,0.9,0.8,1.5,0.8c0.4,0,0.5-0.1,0.6-0.5c0-0.3,0.1-0.3,0.3-0.3c0.4,0.1,0.6,0,0.7-0.5
		c0.2-0.7,0-1.3-0.5-1.8c0-0.1,0-0.2,0.1-0.2c0.7-0.1,1.1-0.5,1.3-1.1c0.2-0.6,0.1-0.7-0.3-0.9c-0.2-0.1-0.2-0.2-0.1-0.3
		c0,0,0.1-0.1,0.1-0.2c0.1-0.2,0.1-0.4-0.1-0.5c-0.3-0.3-0.8-0.5-1.2-0.4c-0.3,0-0.6,0.1-0.8,0.2c-0.1,0-0.2-0.1-0.2-0.2
		c0-0.1,0-0.2,0-0.3c-0.1-0.7-0.6-1.4-1.2-1.5c0.1,0,0.2,0,0.3,0H36z"/>
	<path class="st2" d="M17,13.8c-0.2,0.1-0.3,0.3-0.5,0.4c-0.3,0.4-0.4,0.9-0.3,1.4c0,0,0,0,0,0.1c0,0-0.1,0-0.1,0.1
		c-0.1,0-0.3-0.1-0.4-0.1c-0.6-0.2-1.1,0-1.6,0.4c-0.3,0.2-0.3,0.4-0.1,0.7c0.2,0.3,0.2,0.3-0.1,0.5c-0.3,0.2-0.4,0.3-0.3,0.6
		c0.2,0.7,0.7,1.2,1.5,1.3c0,0,0.1,0,0.1,0c0,0,0,0,0,0.1c0,0,0,0.1,0,0.1c-0.3,0.3-0.5,0.6-0.5,1.1c0,0.3,0,0.6,0.2,0.9
		c0.1,0.3,0.4,0.3,0.6,0.2c0.2,0,0.3,0.2,0.3,0.4c0,0.2,0.1,0.4,0.4,0.4c-0.1,0-0.2,0-0.3,0H0v-8.7h17C17,13.7,17,13.8,17,13.8z"/>
	<path class="st3" d="M16.2,15.7c-0.1-0.5,0-1,0.3-1.4c0.1-0.2,0.3-0.3,0.5-0.4c0.3-0.2,0.4-0.1,0.7,0.1c0.1,0.1,0.3,0.2,0.4,0l0,0
		c0.1-0.1,0.2-0.2,0.4-0.3c0,0,0,0,0,0c0.6,0.1,1.1,0.8,1.2,1.5c0,0.1,0,0.2,0,0.3c0,0.1,0,0.2,0.2,0.2c0,0,0,0,0,0
		c-0.2,0-0.2-0.2-0.3-0.3c0-0.1,0-0.2,0-0.2c0-0.6-0.3-1.1-0.9-1.4c-0.2-0.1-0.3-0.1-0.5,0.1c-0.1,0.1-0.2,0.3-0.3,0.3
		c-0.1,0-0.2-0.2-0.3-0.3c-0.1-0.1-0.3-0.2-0.5-0.1c-0.2,0.1-0.4,0.2-0.5,0.4C16.3,14.7,16.3,15.2,16.2,15.7
		C16.3,15.7,16.3,15.7,16.2,15.7z"/>
	<path class="st2" d="M18.1,14c-0.1,0.2-0.3,0.1-0.4,0c-0.3-0.3-0.4-0.3-0.7-0.1c0-0.1,0-0.1,0-0.2c0.2,0,0.4,0,0.6,0
		C17.8,13.9,17.9,13.9,18.1,14z"/>
	<path class="st2" d="M18.1,14c-0.2,0-0.4-0.1-0.4-0.3c0.2,0,0.3,0,0.5,0C18.2,13.8,18,13.8,18.1,14L18.1,14z"/>
	<path class="st2" d="M18.1,14c-0.1-0.1,0.1-0.2,0.1-0.3c0.1,0,0.2,0,0.3,0C18.4,13.7,18.2,13.8,18.1,14z"/>
	<path class="st4" d="M16.1,22.3c-0.2,0-0.3-0.2-0.4-0.4c0-0.2-0.1-0.4-0.3-0.4c0,0,0,0,0,0c0.3-0.2,0.4-0.1,0.4,0.2
		c0.1,0.5,0.2,0.6,0.7,0.5c0.6-0.1,1-0.4,1.3-0.9c0,0,0.1,0,0.1,0c-0.3,0.6-0.7,0.9-1.4,1C16.4,22.3,16.3,22.3,16.1,22.3z"/>
	<path class="st5" d="M17.9,21.3C17.9,21.3,17.9,21.3,17.9,21.3c0-0.3,0.1-0.5,0.1-0.8c0-0.5,0-1,0-1.5c0-0.1,0-0.2-0.1-0.3
		c-0.1,0-0.2,0-0.3,0.1c0,0,0,0-0.1,0c0-0.1,0-0.1,0.1-0.2c0,0,0,0,0,0c0,0,0,0,0,0c-0.1-0.2-0.2-0.2-0.4-0.1
		c-0.2,0.1-0.4,0.1-0.7,0.2c0,0,0,0,0,0c0,0-0.1,0-0.1,0c0,0,0,0,0,0c0,0-0.1,0-0.1,0c0,0,0,0,0,0c-0.1,0-0.3,0.1-0.4,0.1
		c0,0,0,0,0-0.1c0,0,0,0,0,0c0.3-0.1,0.6-0.2,0.8-0.3c0,0,0,0,0,0c0,0,0.1,0,0.1,0l0,0l0,0c0,0,0.1,0,0.1,0c0,0,0,0,0,0
		c0,0,0.1,0,0.1,0c0,0,0,0,0,0c0,0,0.1,0,0.1,0c0,0,0,0,0,0c0.1,0,0.2-0.1,0.2-0.2c0-0.1-0.1-0.2-0.2-0.2c0,0-0.1,0-0.1,0
		c0,0,0,0-0.1,0c0-0.1,0-0.1,0.2,0c0,0,0.1,0,0.1,0c0.3,0,0.3-0.2,0.2-0.4c0,0,0,0,0-0.1c0.1,0.1,0.1,0.2,0.3,0.2
		c0.1,0,0.2-0.1,0.2-0.2c0-0.4,0.2-0.8-0.3-1.1c0,0,0,0,0-0.1c0.1,0.1,0.3,0.2,0.4,0.1c0,0,0,0,0.1,0.1c-0.1,0.1-0.2,0.1-0.2,0.3
		c0,0.2,0,0.4,0,0.7c0,0.2,0.2,0.3,0.4,0.2c0,0,0-0.1,0.1-0.1c0.1,0,0,0.1,0,0.1c-0.1,0.1,0,0.2-0.1,0.2c0,0-0.1-0.1-0.1-0.1
		c-0.2-0.1-0.5-0.1-0.7,0.1c-0.2,0.2-0.1,0.5,0,0.7c0.2,0.2,0.5,0.2,0.7,0.1c0.2-0.1,0.3-0.4,0.2-0.7c0,0-0.1-0.1-0.1-0.1
		c0,0,0,0,0.1,0c0.1,0.1,0.2,0.1,0.3,0.1c0.1,0,0.2-0.1,0.3-0.1c0.2-0.1,0.4-0.2,0.5-0.4c0,0,0,0.1,0,0.1c-0.1,0.2,0.1,0.3,0.1,0.4
		c-0.1,0-0.2-0.2-0.3-0.1c-0.2,0.1-0.4,0.2-0.6,0.2c-0.1,0-0.2,0.1-0.2,0.2c0,0.1,0.1,0.2,0.2,0.2c0.2,0.1,0.3,0.1,0.5,0.2
		c0,0,0.1,0,0.1,0c0,0,0,0,0,0c0,0,0,0.1,0,0.1c0,0-0.1,0-0.1,0c0,0,0,0,0,0c0,0-0.1,0-0.1,0c0,0,0,0-0.1,0c0,0-0.1,0-0.1,0
		c0,0,0,0,0,0c0,0-0.1,0-0.1,0c0,0,0,0,0,0c-0.3-0.1-0.3,0-0.3,0.3c0,0,0,0.1,0,0.1c-0.2-0.1-0.4,0-0.4,0.2c0,0.4,0,0.8,0,1.3
		c0,0.4,0.1,0.7,0.2,1c0,0,0,0.1,0,0.1c0,0-0.1-0.1-0.1-0.1C18.1,21.2,18.1,21.2,17.9,21.3C18,21.3,18,21.3,17.9,21.3z"/>
	<path class="st3" d="M18.3,21.4C18.3,21.4,18.3,21.4,18.3,21.4c0.4,0.4,0.8,0.7,1.5,0.7c0.4,0,0.5-0.1,0.6-0.5
		c0.1-0.3,0.1-0.3,0.4-0.3c0.4,0.1,0.5,0,0.6-0.4c0-0.1,0-0.1,0-0.2c0.1-0.6-0.1-1.1-0.5-1.5c0,0,0,0,0.1-0.1
		c0.5,0.5,0.7,1.1,0.5,1.8c-0.1,0.5-0.3,0.5-0.7,0.5c-0.3-0.1-0.3,0-0.3,0.3c-0.1,0.4-0.2,0.5-0.6,0.5C19.2,22.3,18.6,22,18.3,21.4z
		"/>
	<path class="st4" d="M20.7,15.5c0.5,0,0.9,0.1,1.2,0.4c0.2,0.2,0.2,0.3,0.1,0.5c0,0.1-0.1,0.1-0.1,0.2c-0.1,0.1-0.1,0.2,0.1,0.3
		c0.4,0.2,0.5,0.3,0.3,0.9c-0.2,0.6-0.7,1-1.3,1.1c0-0.1-0.1,0-0.2,0c0.1,0,0.1,0,0.2,0c0.7-0.2,1.1-0.6,1.3-1.3
		c0.1-0.2,0-0.4-0.2-0.5c-0.4-0.2-0.4-0.2-0.2-0.6c0.1-0.2,0.1-0.3-0.1-0.5C21.5,15.7,21.1,15.6,20.7,15.5
		C20.7,15.6,20.7,15.6,20.7,15.5z"/>
	<path class="st6" d="M20.9,18.9c0.1,0,0.1,0,0.2,0c-0.1,0-0.1,0.1-0.1,0.2c0,0,0,0-0.1,0.1c-0.2-0.1-0.4-0.3-0.6-0.3l0,0l0,0
		c0,0-0.1,0-0.1,0c0,0,0,0,0,0c0-0.1,0-0.1,0.1-0.1c0,0,0.1,0,0.1,0c0,0,0.1,0,0.1,0l0,0l0,0c0,0,0.1,0,0.1,0c0,0,0.1,0,0.1,0
		C20.7,19,20.8,19,20.9,18.9z"/>
	<path class="st7" d="M20.7,15.5C20.7,15.6,20.7,15.6,20.7,15.5c-0.3,0.1-0.5,0.2-0.8,0.3c0,0,0,0,0,0c0,0,0,0,0,0
		C20.1,15.6,20.4,15.5,20.7,15.5z"/>
	<path class="st3" d="M18,21.3c0.1-0.1,0.2-0.1,0.2,0C18.1,21.2,18.1,21.2,18,21.3z"/>
	<path class="st7" d="M15,19.1c-0.8-0.1-1.2-0.6-1.4-1.3c-0.1-0.3,0-0.5,0.3-0.6c0.3-0.2,0.3-0.2,0.1-0.5c-0.2-0.3-0.1-0.4,0.1-0.7
		c0.5-0.4,1-0.5,1.6-0.4c0,0,0,0-0.1,0.1c-0.5-0.1-1,0-1.4,0.4c-0.2,0.2-0.2,0.3-0.1,0.5c0.2,0.4,0.2,0.4-0.2,0.6
		c-0.2,0.1-0.3,0.2-0.2,0.5c0.2,0.6,0.6,1,1.2,1.2C14.9,19,15,19,15,19.1C15.1,19.1,15,19.1,15,19.1z"/>
	<path class="st3" d="M15.4,21.5C15.4,21.5,15.4,21.5,15.4,21.5c-0.3,0.2-0.5,0.1-0.6-0.2c-0.1-0.3-0.2-0.6-0.2-0.9c0,0,0,0,0.1,0
		c0,0.3,0,0.5,0.1,0.8C15,21.5,15.1,21.6,15.4,21.5z"/>
	<path class="st6" d="M15.6,15.7C15.6,15.7,15.7,15.7,15.6,15.7c0.2,0,0.4,0,0.5,0.1c0.1,0,0.1,0,0.1-0.1c0,0,0,0,0-0.1
		c0,0,0.1,0,0.1,0c0.1,0.2,0.1,0.3,0.2,0.5c0,0,0,0-0.1,0.1c0,0,0,0,0,0l0,0C16.2,16,15.9,15.8,15.6,15.7z"/>
	<path class="st7" d="M14.7,20.4C14.7,20.4,14.7,20.4,14.7,20.4c0-0.5,0.1-0.8,0.4-1.1c0,0,0,0,0.1,0.1C14.9,19.7,14.8,20,14.7,20.4
		z"/>
	<path class="st6" d="M15.2,19.4C15.2,19.4,15.1,19.4,15.2,19.4c0-0.1,0-0.1,0-0.2c0,0,0-0.1,0-0.1c0,0-0.1,0-0.1-0.1
		c0,0,0.1,0,0.1,0c0.2,0,0.4-0.1,0.6-0.1l0,0l0,0c0,0,0.1,0,0.1,0c0,0,0,0,0,0c0,0,0,0,0,0.1C15.6,19.1,15.4,19.2,15.2,19.4z"/>
	<path class="st7" d="M15.1,19.1C15.2,19.2,15.2,19.2,15.1,19.1C15.1,19.2,15.1,19.2,15.1,19.1z"/>
	<path class="st3" d="M16.2,15.8c0,0.1-0.1,0.1-0.1,0.1C16.1,15.8,16.2,15.8,16.2,15.8z"/>
	<path class="st8" d="M16.6,16.2c-0.1-0.2-0.1-0.3-0.2-0.5c-0.1-0.5,0-1,0.3-1.4c0.1-0.2,0.3-0.3,0.5-0.4c0.2-0.1,0.3-0.1,0.5,0.1
		c0.1,0.1,0.2,0.3,0.3,0.3c0.1,0,0.2-0.2,0.3-0.3c0.1-0.2,0.3-0.2,0.5-0.1c0.5,0.3,0.8,0.8,0.9,1.4c0,0.1,0,0.2,0,0.2
		c0,0.2-0.1,0.4-0.2,0.6c0,0-0.1,0.1,0,0.1c0,0,0,0,0,0c-0.1,0-0.1,0-0.1,0c-0.3,0.4-0.6,0.8-0.9,1.2c0,0,0,0,0,0c0,0,0,0,0,0l0,0
		c-0.1,0-0.1,0-0.1,0.1c-0.2,0.1-0.3,0-0.4-0.2c0-0.2,0-0.4,0-0.7c0-0.1,0.1-0.2,0.2-0.3c0.2-0.2,0.2-0.4,0.1-0.6
		c-0.1-0.2-0.4-0.2-0.6-0.1c-0.2,0.1-0.2,0.4-0.1,0.6c0.4,0.3,0.2,0.7,0.3,1.1c0,0.1-0.1,0.1-0.2,0.2c-0.1,0-0.2-0.1-0.3-0.2
		C17.2,17,16.9,16.6,16.6,16.2z"/>
	<path class="st6" d="M19.4,16.2C19.4,16.1,19.4,16.1,19.4,16.2c0.1-0.3,0.1-0.5,0.2-0.7c0.1,0.1,0,0.3,0.3,0.3c0,0,0,0,0,0
		C19.7,15.9,19.6,16.1,19.4,16.2z"/>
	<path class="st9" d="M15.2,19.4c0.2-0.2,0.4-0.3,0.7-0.4c0.1,0,0.3-0.1,0.4-0.1c0,0,0,0,0,0l0,0c0,0,0.1,0,0.1,0c0,0,0,0,0,0
		s0,0,0,0c0,0,0.1,0,0.1,0c0,0,0,0,0,0l0,0c0.2-0.1,0.4-0.1,0.7-0.2c0.2-0.1,0.3,0,0.4,0.1c0,0,0,0,0,0c0,0.1,0,0.1-0.1,0.2
		c0,0,0,0,0,0c-0.1,0.1-0.2,0.2-0.2,0.3c-0.1,0.2-0.2,0.3-0.5,0.3c-0.2,0-0.4,0.2-0.3,0.5c0,0.2,0.3,0.4,0.5,0.3
		c0.2,0,0.4-0.3,0.3-0.5c-0.1-0.3,0-0.4,0.1-0.6c0.1-0.1,0.1-0.2,0.2-0.3c0,0,0,0,0,0c0.1-0.1,0.2-0.1,0.3-0.1
		c0.1,0,0.1,0.2,0.1,0.3c0,0.5,0,1,0,1.5c0,0.3-0.1,0.5-0.2,0.8c-0.3,0.5-0.7,0.9-1.3,0.9c-0.5,0.1-0.6,0-0.7-0.5
		c-0.1-0.3-0.2-0.3-0.4-0.2c-0.3,0-0.5,0-0.6-0.3c-0.1-0.2-0.1-0.5-0.1-0.8C14.8,20,14.9,19.7,15.2,19.4z"/>
	<path class="st10" d="M19.4,16.2c0.2-0.1,0.3-0.3,0.5-0.3c0.2-0.1,0.5-0.2,0.8-0.2c0.4,0,0.8,0.1,1.1,0.4c0.2,0.2,0.2,0.3,0.1,0.5
		c-0.2,0.4-0.2,0.4,0.2,0.6c0.2,0.1,0.3,0.2,0.2,0.5c-0.2,0.7-0.6,1.1-1.3,1.3c-0.1,0-0.1,0-0.2,0c-0.1,0-0.2,0.1-0.2,0
		c0,0-0.1,0-0.1,0c0,0-0.1,0-0.1,0c0,0,0,0,0,0c0,0-0.1,0-0.1,0c0,0,0,0-0.1,0c-0.1,0-0.1,0-0.1,0.1c0,0,0,0,0,0l0,0
		c0.1-0.1,0-0.1-0.1-0.1c-0.2-0.1-0.4-0.1-0.6-0.2c0,0,0,0,0,0c0,0-0.1,0-0.1,0c-0.2-0.1-0.3-0.1-0.5-0.2c-0.1,0-0.2-0.1-0.2-0.2
		c0-0.1,0-0.2,0.2-0.2c0.2-0.1,0.4-0.1,0.6-0.2c0.2-0.1,0.2,0.1,0.3,0.1c0,0,0,0,0,0c0,0,0,0,0,0c0,0,0,0,0,0c0,0,0,0,0.1,0
		c0.1,0,0.1,0,0.1-0.1l0,0l0,0c0,0.1,0,0.1,0.1,0.1c0,0,0,0,0.1,0c0,0,0,0,0,0c0,0,0,0,0,0c0,0,0,0,0,0c0.1,0,0.1,0,0.1-0.1
		c0.2-0.2,0.1-0.4-0.1-0.6c-0.2-0.1-0.4-0.1-0.6,0.1c0,0.3-0.2,0.4-0.5,0.4c-0.1,0-0.2,0.1-0.3,0.1c-0.1,0.1-0.2,0-0.3-0.1
		c0-0.1,0-0.1,0-0.2c0,0,0.1-0.1,0-0.1c0,0,0,0,0,0c0,0,0,0,0,0c0.3-0.4,0.6-0.8,0.9-1.2C19.4,16.3,19.5,16.2,19.4,16.2L19.4,16.2z"
		/>
	<path class="st10" d="M15.7,19c-0.2,0-0.4,0.1-0.6,0.1C15,19,14.9,19,14.9,19c-0.6-0.2-1-0.6-1.2-1.2c-0.1-0.3,0-0.4,0.2-0.5
		c0.4-0.2,0.4-0.2,0.2-0.6c-0.1-0.3-0.1-0.3,0.1-0.5c0.4-0.4,0.9-0.5,1.4-0.4c0.3,0.1,0.6,0.2,0.8,0.5c0,0,0,0,0,0l0,0c0,0,0,0,0,0
		c0.3,0.4,0.6,0.8,1,1.3c0.2,0.3,0.1,0.4-0.2,0.4c0,0-0.1,0-0.1,0c-0.2-0.1-0.2-0.1-0.2,0c0,0,0,0,0.1,0c0,0,0.1,0,0.1,0
		c0.1,0,0.2,0.1,0.2,0.2c0,0.1-0.1,0.2-0.2,0.2c0,0,0,0,0,0c0,0-0.1,0-0.1,0c0,0,0,0,0,0c0,0-0.1,0-0.1,0c0,0,0,0,0,0l0,0
		c0,0-0.1,0-0.1,0c0,0,0,0,0,0l0,0c0,0-0.1,0-0.1,0c0,0,0,0,0,0s0,0,0,0c-0.3,0.1-0.6,0.2-0.8,0.3c0,0,0,0,0,0
		C15.8,18.9,15.7,19,15.7,19C15.7,19,15.7,19,15.7,19z M16.9,17.9c0,0,0.1,0,0.1,0c0,0,0.1,0,0-0.1C17,17.8,17,17.8,16.9,17.9
		C16.9,17.8,16.9,17.8,16.9,17.9c-0.1-0.2-0.4-0.1-0.4-0.4c0-0.2-0.2-0.3-0.4-0.3c-0.2,0-0.3,0.1-0.4,0.3c-0.1,0.2,0,0.4,0.2,0.5
		c0.2,0.1,0.4,0.1,0.5-0.1c0.1-0.1,0.2-0.1,0.3-0.1C16.7,17.9,16.8,17.9,16.9,17.9L16.9,17.9z"/>
	<path class="st9" d="M20.1,18.9C20.2,18.9,20.2,18.9,20.1,18.9l0.1,0l0,0c0.2,0.1,0.4,0.2,0.6,0.3c0.4,0.4,0.6,0.9,0.5,1.5
		c0,0.1,0,0.1,0,0.2c-0.1,0.4-0.2,0.4-0.6,0.4c-0.3,0-0.3,0-0.4,0.3c-0.1,0.4-0.1,0.5-0.6,0.5c-0.6,0-1.1-0.3-1.4-0.8
		c-0.2-0.3-0.2-0.7-0.2-1c0-0.4,0-0.8,0-1.3c0-0.3,0.1-0.3,0.4-0.2c0.1,0.2,0.3,0.4,0.4,0.5c0.1,0.1,0.1,0.2,0,0.3
		c-0.1,0.1-0.1,0.3,0,0.4c0.1,0.2,0.3,0.2,0.5,0.1c0.2-0.1,0.3-0.3,0.2-0.5c-0.1-0.2-0.2-0.3-0.4-0.3c-0.2,0-0.3-0.1-0.4-0.2
		c-0.1-0.2-0.2-0.3-0.4-0.5c0-0.3,0.1-0.3,0.3-0.3c0,0,0,0,0,0l0,0c0,0,0.1,0,0.1,0c0,0,0,0,0,0s0,0,0,0c0,0,0.1,0,0.1,0
		c0,0,0,0,0.1,0c0,0,0.1,0,0.1,0c0,0,0,0,0,0c0,0,0.1,0,0.1,0C19.6,18.7,19.9,18.8,20.1,18.9C20.1,18.9,20.1,18.9,20.1,18.9
		C20.1,18.9,20.1,18.9,20.1,18.9z"/>
	<path class="st11" d="M18.4,17.8c0,0.1,0,0.1,0.1,0.1c0.1,0.3,0,0.5-0.2,0.7c-0.2,0.1-0.5,0.1-0.7-0.1c-0.2-0.2-0.2-0.5,0-0.7
		c0.2-0.2,0.4-0.3,0.7-0.1C18.3,17.8,18.4,17.8,18.4,17.8C18.4,17.8,18.4,17.8,18.4,17.8z"/>
	<path class="st4" d="M18.5,18.8c0.1,0.2,0.2,0.3,0.4,0.5c0.1,0.2,0.2,0.2,0.4,0.2c0.2,0,0.3,0.1,0.4,0.3c0.1,0.2-0.1,0.4-0.2,0.5
		c-0.2,0.1-0.4,0-0.5-0.1c-0.1-0.1-0.1-0.3,0-0.4c0.1-0.1,0-0.2,0-0.3C18.7,19.2,18.6,19,18.5,18.8C18.5,18.8,18.5,18.8,18.5,18.8z
		 M19.6,19.8c0-0.2-0.2-0.3-0.3-0.3c-0.2,0-0.3,0.1-0.3,0.3c0,0.2,0.1,0.3,0.3,0.3C19.4,20.2,19.6,20,19.6,19.8z"/>
	<path class="st12" d="M20,17.8L20,17.8C20,17.9,19.9,17.8,20,17.8c-0.1,0-0.1-0.1-0.2,0c0,0,0,0,0,0c0-0.1-0.2-0.3-0.1-0.4
		c0.1-0.2,0.3-0.2,0.4-0.2c0.2,0.1,0.2,0.2,0.1,0.5c0,0.1-0.1,0-0.1,0.1c0,0,0,0,0,0C20.1,17.8,20,17.9,20,17.8z"/>
	<path class="st12" d="M18.1,16.4c-0.2,0.1-0.3,0-0.4-0.1c-0.1-0.2-0.1-0.3,0.1-0.4c0.1-0.1,0.3-0.1,0.4,0
		C18.3,16.1,18.3,16.2,18.1,16.4z"/>
	<path class="st7" d="M18.1,16.4c0.2-0.2,0.2-0.4,0.1-0.5c-0.1-0.1-0.3-0.1-0.4,0c-0.2,0.1-0.1,0.3-0.1,0.4c0,0,0,0,0,0.1
		c-0.1-0.2-0.1-0.4,0.1-0.6c0.2-0.1,0.4-0.1,0.6,0.1C18.4,16.1,18.4,16.3,18.1,16.4C18.2,16.5,18.2,16.4,18.1,16.4z"/>
	<path class="st7" d="M17.5,17.5c-0.3-0.4-0.6-0.8-1-1.3c0,0,0,0,0.1-0.1C16.9,16.6,17.2,17,17.5,17.5
		C17.5,17.5,17.5,17.5,17.5,17.5z"/>
	<path class="st3" d="M20.2,17.7c0.1-0.2,0-0.4-0.1-0.5c-0.2-0.1-0.3,0-0.4,0.2c0,0,0-0.1,0-0.1c0.2-0.2,0.4-0.3,0.6-0.1
		C20.4,17.3,20.4,17.6,20.2,17.7C20.2,17.8,20.2,17.7,20.2,17.7z"/>
	<path class="st3" d="M20.1,18.9c-0.2-0.1-0.5-0.1-0.7-0.2c0,0,0-0.1,0-0.1c0.2,0.1,0.4,0.1,0.6,0.2C20.1,18.8,20.2,18.8,20.1,18.9z
		"/>
	<path class="st7" d="M18.5,17.6c0,0.1,0,0.1,0,0.2c0,0,0,0-0.1,0c0,0,0,0,0,0C18.5,17.7,18.4,17.7,18.5,17.6z"/>
	<path class="st4" d="M17.2,17.9C17.2,17.9,17.3,17.9,17.2,17.9C17.3,17.9,17.2,17.9,17.2,17.9z"/>
	<path class="st3" d="M19.3,18.6C19.3,18.6,19.4,18.6,19.3,18.6C19.4,18.6,19.3,18.6,19.3,18.6z"/>
	<path class="st3" d="M19.2,18.6C19.2,18.6,19.1,18.6,19.2,18.6C19.1,18.6,19.2,18.6,19.2,18.6z"/>
	<polygon class="st7" points="16.5,18.8 16.5,18.8 16.5,18.8 	"/>
	<path class="st7" d="M16.4,18.8L16.4,18.8C16.4,18.8,16.4,18.8,16.4,18.8C16.4,18.8,16.4,18.8,16.4,18.8z"/>
	<path class="st7" d="M17.6,18.7C17.6,18.7,17.6,18.7,17.6,18.7C17.6,18.7,17.6,18.7,17.6,18.7C17.6,18.7,17.6,18.7,17.6,18.7z"/>
	<path class="st7" d="M16.3,18.8L16.3,18.8C16.3,18.9,16.3,18.8,16.3,18.8C16.3,18.8,16.3,18.8,16.3,18.8z"/>
	<path class="st7" d="M15.8,18.9C15.8,18.9,15.8,18.9,15.8,18.9C15.8,18.9,15.8,18.9,15.8,18.9C15.8,18.9,15.8,18.9,15.8,18.9z"/>
	<path class="st3" d="M19.3,18.6C19.3,18.6,19.3,18.6,19.3,18.6C19.3,18.6,19.3,18.6,19.3,18.6z"/>
	<polygon class="st7" points="16.7,18.6 16.7,18.6 16.7,18.6 	"/>
	<path class="st3" d="M19,18.5L19,18.5C19,18.5,19,18.5,19,18.5C19,18.5,19,18.5,19,18.5z"/>
	<polygon class="st7" points="16.8,18.6 16.8,18.6 16.8,18.6 16.8,18.6 	"/>
	<path class="st3" d="M18.9,18.5L18.9,18.5C18.9,18.5,18.8,18.5,18.9,18.5C18.9,18.5,18.9,18.5,18.9,18.5z"/>
	<path class="st7" d="M16.9,18.5L16.9,18.5C16.9,18.5,16.9,18.5,16.9,18.5C16.9,18.5,16.9,18.5,16.9,18.5z"/>
	<path class="st7" d="M17,18.5C17,18.5,17.1,18.5,17,18.5C17.1,18.5,17,18.5,17,18.5z"/>
	<path class="st7" d="M17.2,18.5C17.2,18.4,17.2,18.4,17.2,18.5C17.2,18.5,17.2,18.5,17.2,18.5z"/>
	<path class="st4" d="M17.1,18C17.1,17.9,17,17.9,17.1,18C17,17.9,17.1,17.9,17.1,18z"/>
	<path class="st3" d="M20.5,18.9C20.6,18.9,20.6,18.9,20.5,18.9C20.6,18.9,20.6,18.9,20.5,18.9z"/>
	<path class="st3" d="M20.1,18.8C20.2,18.8,20.2,18.8,20.1,18.8C20.2,18.8,20.2,18.8,20.1,18.8z"/>
	<path class="st3" d="M20.4,18.9C20.4,18.9,20.4,18.9,20.4,18.9L20.4,18.9L20.4,18.9z"/>
	<path class="st3" d="M20.1,18.9C20.1,18.9,20.1,18.9,20.1,18.9C20.1,18.9,20.1,18.9,20.1,18.9C20.1,18.9,20.1,18.9,20.1,18.9z"/>
	<polygon class="st3" points="20.2,18.9 20.2,18.9 20.2,18.9 20.2,18.9 	"/>
	<polygon class="st7" points="16.5,16.2 16.5,16.2 16.5,16.2 	"/>
	<path class="st7" d="M15.7,19C15.7,19,15.7,19,15.7,19C15.7,19,15.7,19,15.7,19L15.7,19z"/>
	<path class="st7" d="M19.4,16.3c-0.3,0.4-0.6,0.8-0.9,1.2c0,0,0,0-0.1-0.1C18.8,17,19.1,16.6,19.4,16.3
		C19.4,16.2,19.4,16.3,19.4,16.3z"/>
	<path class="st6" d="M19.4,16.3C19.4,16.3,19.4,16.2,19.4,16.3c0-0.1,0-0.2,0-0.1C19.5,16.2,19.4,16.3,19.4,16.3z"/>
	<path class="st5" d="M18.5,17.5C18.5,17.5,18.5,17.5,18.5,17.5C18.5,17.5,18.5,17.5,18.5,17.5C18.5,17.5,18.5,17.5,18.5,17.5
		C18.5,17.5,18.5,17.5,18.5,17.5z"/>
	<path class="st7" d="M17.6,18.9c-0.1,0.1-0.1,0.2-0.2,0.3c-0.1,0.2-0.2,0.3-0.1,0.6c0.1,0.2-0.1,0.4-0.3,0.5
		c-0.2,0-0.4-0.1-0.5-0.3c0-0.2,0.1-0.5,0.3-0.5c0.3,0,0.4-0.1,0.5-0.3C17.3,19.1,17.4,19,17.6,18.9C17.5,18.9,17.5,18.9,17.6,18.9z
		 M16.8,19.6c-0.2,0-0.3,0.2-0.3,0.3c0,0.2,0.2,0.3,0.3,0.3c0.2,0,0.3-0.1,0.3-0.3C17.2,19.7,17,19.6,16.8,19.6z"/>
	<path class="st5" d="M17.6,18.9C17.5,18.9,17.5,18.9,17.6,18.9C17.5,18.9,17.5,18.9,17.6,18.9C17.5,18.9,17.5,18.9,17.6,18.9
		C17.6,18.9,17.6,18.9,17.6,18.9z"/>
	<path class="st5" d="M20.2,17.7C20.2,17.7,20.2,17.8,20.2,17.7c0,0.1,0,0.2-0.1,0.1C20.1,17.8,20.2,17.8,20.2,17.7z"/>
	<path class="st5" d="M20,17.8c0.1,0,0.1-0.1,0.2,0c0,0,0,0,0,0c0,0,0,0,0,0C20.1,17.9,20.1,17.9,20,17.8C20,17.9,20,17.9,20,17.8z"
		/>
	<path class="st5" d="M19.8,17.9c0-0.1,0.1,0,0.2,0C20,17.9,19.9,17.9,19.8,17.9C19.8,17.9,19.8,17.9,19.8,17.9
		C19.8,17.9,19.8,17.9,19.8,17.9C19.8,17.9,19.8,17.9,19.8,17.9z"/>
	<path class="st3" d="M20.1,17.9C20.1,17.9,20.1,17.9,20.1,17.9C20.1,17.9,20.1,17.9,20.1,17.9z"/>
	<path class="st3" d="M19.8,17.9C19.8,17.9,19.8,17.9,19.8,17.9C19.8,17.9,19.8,17.9,19.8,17.9z"/>
	<path class="st4" d="M16.9,17.9c-0.1,0-0.2,0-0.2-0.1c-0.1,0-0.2,0-0.3,0.1c-0.2,0.1-0.3,0.2-0.5,0.1c-0.2-0.1-0.2-0.3-0.2-0.5
		c0.1-0.2,0.2-0.3,0.4-0.3c0.2,0,0.4,0.1,0.4,0.3C16.5,17.8,16.7,17.7,16.9,17.9C16.9,17.8,16.9,17.9,16.9,17.9z M16,17.3
		c-0.2,0-0.3,0.2-0.3,0.3c0,0.2,0.2,0.3,0.3,0.3c0.2,0,0.3-0.2,0.3-0.3C16.4,17.4,16.2,17.3,16,17.3z"/>
	<path class="st5" d="M16.9,17.9C16.9,17.9,16.9,17.8,16.9,17.9C16.9,17.8,16.9,17.8,16.9,17.9c0.1,0,0.1,0,0.1,0c0,0,0,0.1,0,0.1
		C16.9,17.9,16.9,17.9,16.9,17.9L16.9,17.9z"/>
	<path class="st4" d="M16.9,17.9c0,0,0.1,0,0.1,0C16.9,17.9,16.9,17.9,16.9,17.9z"/>
	<path class="st4" d="M17,17.8C17,17.9,17,17.8,17,17.8C17,17.8,17,17.8,17,17.8z"/>
	<path class="st13" d="M19.6,19.8c0,0.2-0.2,0.3-0.3,0.3c-0.2,0-0.3-0.2-0.3-0.3c0-0.2,0.2-0.3,0.3-0.3
		C19.4,19.5,19.6,19.7,19.6,19.8z"/>
	<path class="st13" d="M16.8,19.6c0.2,0,0.3,0.2,0.3,0.3c0,0.2-0.2,0.3-0.3,0.3c-0.2,0-0.3-0.2-0.3-0.3
		C16.5,19.7,16.7,19.6,16.8,19.6z"/>
	<path class="st12" d="M16,17.3c0.2,0,0.3,0.1,0.3,0.3c0,0.2-0.2,0.3-0.3,0.3c-0.2,0-0.3-0.1-0.3-0.3C15.7,17.5,15.9,17.3,16,17.3z"
		/>
</g>
</svg>
