<?xml version="1.0" encoding="UTF-8"?>
<svg id="a" data-name="레이어 1" xmlns="http://www.w3.org/2000/svg" width="1440" height="726.321" viewBox="0 0 1440 726.321">
  <g>
    <polyline points=".007 -.002 253.229 146.176 253.229 146.243 .074 292.421 .007 292.421 .007 292.355" fill="#2c2c2c"/>
    <polygon points="253.229 146.243 253.229 438.6 .007 584.779 .007 292.421 .074 292.421 253.229 146.243" fill="#6ccccc"/>
    <polyline points="0 584.776 253.222 438.598 506.444 292.419 506.444 584.839" fill="#2c2c2c"/>
    <polygon points="506.444 0 506.444 292.419 253.222 438.598 253.222 146.178 0 0 506.444 0" fill="#fdde59"/>
  </g>
  <g>
    <g>
      <path d="M1027.292,584.838h-128.79l-217.316-315.551h-3.712v315.551h-153.92V-.002h131.36l213.889,314.694h4.569V-.002h153.92V584.838Z" fill="#2c2c2c"/>
      <path d="M1047.641-.002h153.92V460.616h238.448v124.222h-392.368V-.002Z" fill="#2c2c2c"/>
    </g>
    <g>
      <path d="M66.019,678.917v5.885c0,9.358-7.612,16.97-16.97,16.97H22.074c-9.351,0-16.962-7.611-16.962-16.97v-62.386h11.77v62.386c0,2.872,2.329,5.199,5.192,5.199h26.976c2.871,0,5.2-2.335,5.2-5.199v-5.885h11.77Z" fill="#2c2c2c"/>
      <path d="M132.981,657.814v51.544c0,9.353-7.613,16.964-16.97,16.964h-26.976c-9.358,0-16.97-7.605-16.97-16.964v-5.886h11.77v5.886c0,2.865,2.335,5.192,5.2,5.192h26.976c2.87,0,5.198-2.327,5.198-5.192v-8.423c-1.641,.537-3.388,.817-5.198,.817h-26.976c-9.358,0-16.97-7.604-16.97-16.963v-26.976c0-9.351,7.612-16.964,16.97-16.964h26.976c9.357,0,16.97,7.606,16.97,16.964Zm-11.771,0c0-2.864-2.334-5.192-5.198-5.192h-26.976c-2.871,0-5.2,2.328-5.2,5.192v26.981c0,2.865,2.335,5.192,5.2,5.192h26.976c2.87,0,5.198-2.327,5.198-5.192v-26.981Z" fill="#2c2c2c"/>
      <path d="M200.046,657.56v26.976c0,9.357-7.612,16.97-16.97,16.97h-2.407c-4.257,0-8.102-1.629-11.084-4.225-2.981,2.596-6.827,4.225-11.084,4.225h-2.407c-9.358,0-16.97-7.612-16.97-16.97v-26.976c0-9.352,7.612-16.964,16.97-16.964h5.886v11.771h-5.886c-2.871,0-5.2,2.328-5.2,5.192v26.976c0,2.87,2.335,5.198,5.2,5.198h2.407c2.87,0,5.199-2.334,5.199-5.198v-32.861h11.771v32.861c0,2.87,2.335,5.198,5.199,5.198h2.407c2.87,0,5.198-2.334,5.198-5.198v-26.976c0-2.864-2.334-5.192-5.198-5.192h-5.886v-11.771h5.886c9.358,0,16.97,7.605,16.97,16.964Z" fill="#2c2c2c"/>
      <path d="M206.183,701.76v-60.909h11.77v60.909h-11.77Z" fill="#2c2c2c"/>
      <path d="M284.986,657.814v26.976c0,9.352-7.613,16.963-16.97,16.963h-26.976c-9.358,0-16.97-7.604-16.97-16.963v-5.886h11.77v5.886c0,2.863,2.335,5.192,5.2,5.192h26.976c2.87,0,5.198-2.329,5.198-5.192v-26.976c0-2.864-2.334-5.192-5.198-5.192h-26.976c-2.871,0-5.2,2.328-5.2,5.192v5.886h-11.77v-5.886c0-9.351,7.612-16.964,16.97-16.964h26.976c9.357,0,16.97,7.606,16.97,16.964Z" fill="#2c2c2c"/>
      <path d="M335.074,640.596c9.351,0,16.962,7.605,16.962,16.964v43.951h-43.945c-9.351,0-16.962-7.611-16.962-16.97v-2.406c0-9.351,7.605-16.964,16.962-16.964h26.976c1.817,0,3.544,.36,5.192,.896v-8.508c0-2.864-2.327-5.192-5.192-5.192h-24.882c-2.865,0-5.192,2.328-5.192,5.192v5.886h-11.771v-5.886c0-9.352,7.605-16.964,16.963-16.964h24.889Zm5.179,49.145v-7.605c0-2.864-2.329-5.192-5.192-5.192h-26.976c-2.864,0-5.192,2.328-5.192,5.192v2.406c0,2.872,2.328,5.199,5.192,5.199h32.168Z" fill="#2c2c2c"/>
      <path d="M418.999,657.814v51.544c0,9.353-7.613,16.964-16.97,16.964h-26.976c-9.358,0-16.97-7.605-16.97-16.964v-5.886h11.77v5.886c0,2.865,2.335,5.192,5.2,5.192h26.976c2.87,0,5.198-2.327,5.198-5.192v-8.423c-1.641,.537-3.388,.817-5.198,.817h-26.976c-9.358,0-16.97-7.604-16.97-16.963v-26.976c0-9.351,7.612-16.964,16.97-16.964h26.976c9.357,0,16.97,7.606,16.97,16.964Zm-11.771,0c0-2.864-2.334-5.192-5.198-5.192h-26.976c-2.871,0-5.2,2.328-5.2,5.192v26.981c0,2.865,2.335,5.192,5.2,5.192h26.976c2.87,0,5.198-2.327,5.198-5.192v-26.981Z" fill="#2c2c2c"/>
      <path d="M469.087,640.596c9.357,0,16.97,7.605,16.97,16.964v26.976c0,9.357-7.613,16.97-16.97,16.97h-2.407c-9.352,0-16.963-7.612-16.963-16.97v-26.976c0-2.864-2.334-5.192-5.199-5.192h-2.407c-2.871,0-5.2,2.328-5.2,5.192v26.976c0,2.87,2.335,5.198,5.2,5.198h5.886v11.771h-5.886c-9.358,0-16.97-7.612-16.97-16.97v-26.976c0-9.352,7.612-16.964,16.97-16.964h2.407c9.357,0,16.97,7.605,16.97,16.964v26.968c0,2.872,2.327,5.2,5.192,5.2h2.407c2.87,0,5.198-2.335,5.198-5.2v-26.974c0-2.865-2.334-5.192-5.198-5.192h-5.886v-11.771h5.886v.006Z" fill="#2c2c2c"/>
      <path d="M553.115,657.814v26.976c0,9.352-7.613,16.963-16.97,16.963h-26.976c-9.358,0-16.97-7.604-16.97-16.963v-5.886h11.77v5.886c0,2.863,2.335,5.192,5.2,5.192h26.976c2.87,0,5.198-2.329,5.198-5.192v-26.976c0-2.864-2.334-5.192-5.198-5.192h-26.976c-2.871,0-5.2,2.328-5.2,5.192v5.886h-11.77v-5.886c0-9.351,7.612-16.964,16.97-16.964h26.976c9.357,0,16.97,7.606,16.97,16.964Z" fill="#2c2c2c"/>
      <path d="M603.2,640.596c9.351,0,16.963,7.605,16.963,16.964v26.976c0,9.357-7.605,16.97-16.963,16.97h-5.885v-11.771h5.885c2.864,0,5.192-2.334,5.192-5.198v-26.976c0-2.864-2.328-5.192-5.192-5.192h-7.605v32.168c0,9.357-7.605,16.97-16.963,16.97h-2.407c-9.351,0-16.963-7.612-16.963-16.97v-26.976c0-9.352,7.605-16.964,16.963-16.964h7.605v-1.479c0-2.863-2.328-5.191-5.192-5.191h-5.885v-11.771h5.885c9.352,0,16.964,7.605,16.964,16.962v1.479h7.599Zm-19.364,43.945v-32.174h-7.605c-2.864,0-5.192,2.328-5.192,5.192v26.981c0,2.872,2.328,5.199,5.192,5.199h2.407c2.864,0,5.192-2.335,5.192-5.199h.006Z" fill="#2c2c2c"/>
      <path d="M687.135,657.56v26.976c0,9.357-7.612,16.97-16.97,16.97h-2.407c-4.257,0-8.102-1.629-11.084-4.225-2.981,2.596-6.827,4.225-11.084,4.225h-2.407c-9.358,0-16.97-7.612-16.97-16.97v-26.976c0-9.352,7.612-16.964,16.97-16.964h5.886v11.771h-5.886c-2.871,0-5.2,2.328-5.2,5.192v26.976c0,2.87,2.335,5.198,5.2,5.198h2.407c2.87,0,5.199-2.334,5.199-5.198v-32.861h11.771v32.861c0,2.87,2.335,5.198,5.199,5.198h2.407c2.87,0,5.198-2.334,5.198-5.198v-26.976c0-2.864-2.334-5.192-5.198-5.192h-5.886v-11.771h5.886c9.358,0,16.97,7.605,16.97,16.964Z" fill="#2c2c2c"/>
      <path d="M754.179,657.814v5.886h-11.77v-5.886c0-2.864-2.335-5.192-5.2-5.192h-26.975c-2.864,0-5.192,2.328-5.192,5.192v5.886h-11.77v-5.886c0-9.351,7.605-16.964,16.962-16.964h26.975c9.358,0,16.97,7.606,16.97,16.964Zm-11.77,21.097h11.77v5.885c0,9.353-7.611,16.964-16.97,16.964h-26.975c-9.351,0-16.962-7.605-16.962-16.964v-5.885h11.77v5.885c0,2.865,2.329,5.192,5.192,5.192h26.975c2.872,0,5.2-2.327,5.2-5.192v-5.885Z" fill="#2c2c2c"/>
      <path d="M821.134,640.596v11.771h-.896c.53,1.647,.896,3.367,.896,5.192v26.976c0,9.351-7.604,16.963-16.962,16.963h-26.976c-9.358,0-16.97-7.605-16.97-16.963v-26.976c0-9.352,7.611-16.964,16.97-16.964h43.938Zm-16.956,11.771h-26.975c-2.872,0-5.199,2.328-5.199,5.192v26.976c0,2.864,2.335,5.192,5.199,5.192h26.975c2.864,0,5.192-2.328,5.192-5.192v-26.976c0-2.864-2.328-5.192-5.192-5.192Z" fill="#2c2c2c"/>
      <path d="M888.199,657.814v26.976c0,9.352-7.612,16.963-16.97,16.963h-26.976c-9.358,0-16.97-7.604-16.97-16.963v-5.886h11.771v5.886c0,2.863,2.334,5.192,5.199,5.192h26.976c2.87,0,5.198-2.329,5.198-5.192v-26.976c0-2.864-2.334-5.192-5.198-5.192h-26.976c-2.871,0-5.199,2.328-5.199,5.192v5.886h-11.771v-5.886c0-9.351,7.611-16.964,16.97-16.964h26.976c9.357,0,16.97,7.606,16.97,16.964Z" fill="#2c2c2c"/>
      <path d="M987.142,657.56v26.968c0,8.168-5.793,15.002-13.483,16.611v.359h-30.454c-9.358,0-16.97-7.605-16.97-16.963v-24.941c0-9.353,7.611-16.964,16.97-16.964h5.886v11.771h-5.886c-2.871,0-5.199,2.327-5.199,5.192v24.941c0,2.863,2.334,5.192,5.199,5.192h8.415c-.535-1.636-.815-3.381-.815-5.192v-26.976c0-9.358,7.611-16.97,16.97-16.97h2.406c9.351,0,16.962,7.611,16.962,16.97Zm-11.77,0c0-2.871-2.328-5.198-5.192-5.198h-2.406c-2.872,0-5.2,2.334-5.2,5.198v26.976c0,2.864,2.335,5.192,5.2,5.192h2.406c2.864,0,5.192-2.328,5.192-5.192v-26.976Z" fill="#2c2c2c"/>
      <path d="M1042.333,663.7v-5.886c0-2.864-2.334-5.192-5.198-5.192h-7.606v37.366h7.606c2.87,0,5.198-2.327,5.198-5.192v-5.885h11.771v5.885c0,9.353-7.612,16.964-16.97,16.964h-26.976c-9.358,0-16.97-7.605-16.97-16.964v-5.885h11.771v5.885c0,2.865,2.334,5.192,5.199,5.192h7.605v-37.366h-7.605c-2.871,0-5.199,2.328-5.199,5.192v5.886h-11.771v-5.886c0-9.351,7.611-16.964,16.97-16.964h26.976c9.357,0,16.97,7.606,16.97,16.964v5.886h-11.771Z" fill="#2c2c2c"/>
      <path d="M1153.048,622.416v11.777h-.896c.53,1.647,.896,3.367,.896,5.192v45.41c0,9.351-7.604,16.964-16.962,16.964h-26.976c-9.358,0-16.97-7.605-16.97-16.964v-45.416c0-9.353,7.611-16.964,16.97-16.964h43.938Zm-11.764,16.97c0-2.863-2.328-5.192-5.192-5.192h-26.975c-2.872,0-5.199,2.329-5.199,5.192v45.41c0,2.864,2.335,5.192,5.199,5.192h26.975c2.864,0,5.192-2.328,5.192-5.192v-45.41Z" fill="#2c2c2c"/>
      <path d="M1159.198,701.76v-60.909h11.771v60.909h-11.771Z" fill="#2c2c2c"/>
      <path d="M1238.002,639.117v45.418c0,9.357-7.612,16.97-16.97,16.97h-26.976c-9.358,0-16.97-7.612-16.97-16.97v-26.976c0-4.996,2.209-9.45,5.656-12.557h-5.656v-5.886c0-9.351,7.611-16.962,16.97-16.962h26.976c9.357,0,16.97,7.605,16.97,16.962Zm-49.145,2.375c1.648-.537,3.374-.902,5.199-.902h26.976c1.824,0,3.55,.365,5.198,.902v-2.375c0-2.863-2.334-5.191-5.198-5.191h-26.976c-2.871,0-5.199,2.328-5.199,5.191v2.375Zm37.373,16.067c0-2.864-2.334-5.192-5.198-5.192h-26.976c-2.871,0-5.199,2.328-5.199,5.192v26.976c0,2.87,2.334,5.198,5.199,5.198h26.976c2.87,0,5.198-2.334,5.198-5.198v-26.976Z" fill="#2c2c2c"/>
      <path d="M1288.09,640.596c9.351,0,16.962,7.605,16.962,16.964v43.951h-43.944c-9.352,0-16.963-7.611-16.963-16.97v-2.406c0-9.351,7.605-16.964,16.963-16.964h26.975c1.818,0,3.545,.36,5.192,.896v-8.508c0-2.864-2.327-5.192-5.192-5.192h-24.882c-2.865,0-5.192,2.328-5.192,5.192v5.886h-11.771v-5.886c0-9.352,7.604-16.964,16.963-16.964h24.89Zm5.179,49.145v-7.605c0-2.864-2.328-5.192-5.192-5.192h-26.976c-2.863,0-5.192,2.328-5.192,5.192v2.406c0,2.872,2.329,5.199,5.192,5.199h32.168Z" fill="#2c2c2c"/>
      <path d="M1372.015,657.814v51.544c0,9.353-7.612,16.964-16.97,16.964h-26.976c-9.358,0-16.97-7.605-16.97-16.964v-5.886h11.771v5.886c0,2.865,2.334,5.192,5.199,5.192h26.976c2.87,0,5.198-2.327,5.198-5.192v-8.423c-1.641,.537-3.388,.817-5.198,.817h-26.976c-9.358,0-16.97-7.604-16.97-16.963v-26.976c0-9.351,7.611-16.964,16.97-16.964h26.976c9.357,0,16.97,7.606,16.97,16.964Zm-11.771,0c0-2.864-2.334-5.192-5.198-5.192h-26.976c-2.871,0-5.199,2.328-5.199,5.192v26.981c0,2.865,2.334,5.192,5.199,5.192h26.976c2.87,0,5.198-2.327,5.198-5.192v-26.981Z" fill="#2c2c2c"/>
      <path d="M1439.065,657.56v26.968c0,8.168-5.793,15.002-13.483,16.611v.359h-30.454c-9.358,0-16.97-7.605-16.97-16.963v-24.941c0-9.353,7.611-16.964,16.97-16.964h5.886v11.771h-5.886c-2.871,0-5.199,2.327-5.199,5.192v24.941c0,2.863,2.334,5.192,5.199,5.192h8.415c-.535-1.636-.815-3.381-.815-5.192v-26.976c0-9.358,7.611-16.97,16.97-16.97h2.406c9.351,0,16.962,7.611,16.962,16.97Zm-11.77,0c0-2.871-2.328-5.198-5.192-5.198h-2.406c-2.872,0-5.2,2.334-5.2,5.198v26.976c0,2.864,2.335,5.192,5.2,5.192h2.406c2.864,0,5.192-2.328,5.192-5.192v-26.976Z" fill="#2c2c2c"/>
    </g>
  </g>
</svg>