<?xml version="1.0" encoding="UTF-8"?>
<svg id="a" data-name="레이어 1" xmlns="http://www.w3.org/2000/svg" width="500" height="500" viewBox="0 0 500 500">
  <g>
    <path d="m166.641,353.946l-2.206-177.073c-.527-29.347-4.534-58.561-10.668-87.241-6.21-28.52-14.415-57.007-25.087-84.091,0,0,8.008-3.212,8.008-3.212,10.291,28.095,17.79,56.739,23.446,86.014,5.506,29.159,8.846,58.8,8.665,88.506l-2.158,177.097h0Z" fill="#631212"/>
    <path d="m194.403,353.946c-1.792-61.944,1.253-203.901-9.513-263.19-4.211-28.787-9.818-57.647-17.268-85.708,0,0,8.336-2.227,8.336-2.227,6.898,28.802,11.789,57.754,15.358,87.079,9.362,59.226,2.836,202.626,3.087,264.046h0Z" fill="#631212"/>
    <path d="m222.201,353.946c-1.554-103.24.301-248.571-15.584-349.44.001,0,8.554-1.142,8.554-1.142,13.44,101.185,8.042,247.494,7.03,350.583h0Z" fill="#631212"/>
    <polygon points="250 353.946 245.686 3.935 254.314 3.935 250 353.946 250 353.946" fill="#631212"/>
    <path d="m277.798,353.946c-1.005-103.688-6.429-248.869,7.032-350.583-.001,0,8.551,1.142,8.551,1.142-15.851,100.34-14.051,246.801-15.583,349.44h0Z" fill="#631212"/>
    <path d="m333.359,353.946l-2.158-177.097c-.181-29.706,3.16-59.347,8.665-88.506,5.656-29.276,13.154-57.918,23.446-86.014,0,0,8.008,3.212,8.008,3.212-10.672,27.086-18.876,55.57-25.087,84.091-6.134,28.681-10.141,57.894-10.668,87.241l-2.206,177.073h0Z" fill="#631212"/>
    <path d="m332.379,5.048c-7.451,28.062-13.058,56.92-17.268,85.708-10.728,58.582-7.75,202.189-9.514,263.191,0,0-2.154-175.941-2.154-175.941-.298-44.178,4.112-88.299,11.681-131.802,2.553-14.529,5.411-28.914,8.919-43.383l8.336,2.227h0Z" fill="#631212"/>
  </g>
  <g>
    <path d="m157.716,413.02c-.196.881-1.111,4.423-1.442,5.421h-16.566v-.991c3.12-.248,3.35-.527,3.35-3.301v-13.223c0-2.974-.376-3.147-2.859-3.377v-.998h10.42c3.232,0,4.521-.033,4.938-.067.033.8.175,3.368.309,5.207l-1.064.169c-.303-1.146-.683-1.974-1.089-2.663-.551-1.032-1.265-1.262-3.231-1.262h-3.017c-1.087,0-1.166.095-1.166,1.102v7.37h3.659c2.41,0,2.609-.506,3.031-2.813h1.093v7.04h-1.093c-.456-2.437-.726-2.785-3.065-2.785h-3.625v6.537c0,2.352.619,2.645,2.376,2.679h2.998c2.024,0,2.392-.291,3.133-1.173.676-.756,1.377-2.112,1.86-3.146l1.053.275Z" fill="#631212"/>
    <path d="m172.544,415.367c-1.494,2.002-3.751,3.478-5.777,3.478-4.344,0-6.905-3.475-6.905-7.103,0-2.63,1.169-4.877,3.407-6.57,1.863-1.429,3.902-1.949,5.252-1.949,1.473,0,2.578.453,3.102.891.472.364.557.631.557,1.025-.006.832-.866,1.582-1.267,1.582-.181,0-.333-.073-.658-.343-1.116-.992-2.262-1.476-3.419-1.476-2.06,0-3.945,1.777-3.945,5.304-.028,4.645,3.184,6.176,5.046,6.176,1.408,0,2.528-.371,4.018-1.773l.591.759Zm-4.807,3.15c-.711.799-1.111,1.417-1.111,1.641,0,.291.251.527.958.824,1.938.925,2.349,1.659,2.349,2.608,0,1.404-1.398,3.076-5.021,3.572l-.33-1.05c2.161-.526,3.009-1.197,3.009-1.81,0-.549-.558-.846-1.604-1.351-1.05-.526-1.566-1.032-1.561-1.69,0-.551.686-1.521,1.995-2.745h1.316Z" fill="#631212"/>
    <path d="m189.797,404.578c-1.728.264-2.092.545-2.934,2.446-.842,1.861-1.757,4.193-4.014,9.841-2.207,5.4-2.819,7.513-3.377,9.295-.208.713-.584.894-1.047.894-1.119,0-2.163-.812-2.163-1.714,0-.456.229-.753.771-1.19,1.12-.824,1.919-1.602,2.359-2.48.641-1.263,1.121-2.393,1.283-2.824.135-.499.123-.803-.079-1.362-1.393-4.021-3.271-8.248-4.209-10.491-.717-1.773-1.038-2.178-2.848-2.413v-.952h7.094v.952c-1.531.235-1.712.554-1.286,1.764l3.151,8.072c.907-2.238,2.229-5.861,2.919-7.94.392-1.244.12-1.626-1.785-1.896v-.952h6.163v.952Z" fill="#631212"/>
    <path d="m200.594,418.44v-.979c1.926-.202,2.149-.354,2.149-2.425v-8.108c0-1.618-.101-1.86-1.778-1.86h-4.46v9.981c0,1.996.254,2.204,2.291,2.412v.979h-7.585v-.979c2.055-.202,2.33-.389,2.33-2.412v-9.981h-2.333l-.141-.41.737-1.031h1.736c.007-3.412,1.077-5.726,3.242-7.447,1.411-1.129,3.112-1.76,4.435-1.843,2.269.007,3.443.962,3.921,1.583.231.294.306.627.306.915-.04.514-.575,1.202-1.05,1.512-.48.287-.887.263-1.31-.199-.683-.763-1.928-2.028-3.565-2.028-.971,0-1.607.41-1.987,1.181-.562.848-1.027,2.835-1.027,5.359v.968h2.843c2.5,0,4.755-.095,6.365-.432v11.842c0,2.07.235,2.223,2.382,2.425v.979h-7.501Z" fill="#631212"/>
    <path d="m225.414,417.66c-1.689.241-3.568.68-5.377,1.185v-2.539c-1.739,1.449-3.209,2.539-5.062,2.539-2.359,0-4.245-1.46-4.245-5.009v-6.612c0-1.771-.258-1.966-1.111-2.146l-.9-.175v-.912c1.496-.067,3.798-.386,5.076-.6-.096,1.139-.102,2.779-.102,4.947v4.641c0,2.823,1.471,3.647,2.926,3.647,1.191,0,2.346-.479,3.418-1.501v-7.896c0-1.77-.361-2.012-1.47-2.18l-1.065-.147v-.912c2.118-.095,4.567-.44,5.505-.6v11.227c0,1.696.258,1.956,1.501,2.029l.906.04v.974Z" fill="#631212"/>
    <path d="m243.041,417.593c-.726.135-3.354.538-5.469,1.258v-2.146c-.606.377-1.476.854-2.082,1.23-1.25.727-2.086.91-2.484.91-2.725,0-6.385-2.651-6.385-7.421,0-4.669,4.103-8.201,8.831-8.201.429,0,1.443.055,2.12.321v-4.756c0-2.089-.224-2.175-2.56-2.389v-.918c1.78-.235,4.204-.701,5.529-1.146v20.138c0,1.763.229,1.986,1.481,2.072l1.018.073v.974Zm-5.469-11.31c-.702-1.136-2.047-1.711-3.354-1.711-1.513,0-4.267,1.011-4.267,5.866,0,4.136,2.514,6.193,4.554,6.228,1.104,0,2.271-.516,3.067-1.098v-9.285Z" fill="#631212"/>
    <path d="m251.715,403.223c4.307,0,7.414,3.266,7.414,7.555,0,5.45-4.017,8.067-7.438,8.067-4.726,0-7.566-3.757-7.566-7.559,0-5.429,4.271-8.063,7.591-8.063Zm-.404,1.181c-1.944,0-3.718,1.902-3.718,5.852,0,4.258,1.795,7.375,4.44,7.375,1.942,0,3.627-1.4,3.627-6.068,0-4.074-1.544-7.158-4.35-7.158Z" fill="#631212"/>
    <path d="m260.274,418.44v-.979c2.112-.22,2.346-.389,2.346-2.593v-15.985c0-2-.175-2.202-2.257-2.489v-.912c1.909-.208,4.046-.723,5.221-1.146v20.532c0,2.223.184,2.385,2.324,2.593v.979h-7.634Z" fill="#631212"/>
    <path d="m269.812,418.44v-.979c2.066-.208,2.296-.37,2.296-2.679v-6.87c0-2.118-.112-2.253-2.055-2.565v-.863c1.818-.291,3.498-.729,5.019-1.322v11.621c0,2.29.218,2.471,2.364,2.679v.979h-7.624Zm3.581-18.355c-1.004,0-1.9-.885-1.9-1.894,0-1.133.896-1.949,1.934-1.949,1.016,0,1.845.816,1.845,1.949,0,1.009-.829,1.894-1.878,1.894Z" fill="#631212"/>
    <path d="m289.646,418.845c-.578,0-1.319-.275-1.674-.652-.444-.432-.652-.903-.82-1.467-1.335.897-2.985,2.119-3.957,2.119-2.481,0-4.193-2.035-4.193-4.179,0-1.675.892-2.703,2.731-3.355,2.042-.713,4.592-1.577,5.339-2.195v-.818c0-2.276-1.109-3.584-2.806-3.584-.738,0-1.21.352-1.54.756-.377.484-.595,1.213-.892,2.195-.181.605-.525.841-1.062.841-.682,0-1.572-.697-1.572-1.53,0-.495.432-.905,1.123-1.389,1.074-.762,3.033-1.96,4.946-2.363,1.071,0,2.134.303,2.944.921,1.228,1.011,1.742,2.204,1.742,3.949v6.378c0,1.562.566,2.021,1.16,2.021.392,0,.812-.156,1.182-.353l.343.979-2.995,1.727Zm-2.574-8.515c-.717.365-2.151,1.005-2.907,1.349-1.237.566-1.981,1.2-1.981,2.428,0,1.803,1.341,2.587,2.357,2.587.804,0,1.882-.448,2.531-1.091v-5.272Z" fill="#631212"/>
    <path d="m303.889,418.44v-.979c1.869-.208,2.107-.389,2.107-2.538v-5.596c0-2.759-1.077-4.076-3.164-4.049-1.194,0-2.457.567-3.369,1.612v8.032c0,2.122.251,2.33,2.187,2.538v.979h-7.463v-.979c1.899-.174,2.312-.33,2.312-2.562v-16.117c0-1.742-.119-2.168-2.309-2.388v-.912c1.906-.175,3.987-.674,5.272-1.146v11.296c1.206-1.2,3.021-2.409,4.822-2.409,2.792,0,4.681,1.753,4.681,5.734v5.969c0,2.205.264,2.349,2.156,2.535v.979h-7.233Z" fill="#631212"/>
    <path d="m337.362,417.593c-.726.135-3.354.538-5.469,1.258v-2.146c-.605.377-1.476.854-2.082,1.23-1.25.727-2.086.91-2.484.91-2.725,0-6.385-2.651-6.385-7.421,0-4.669,4.103-8.201,8.831-8.201.429,0,1.443.055,2.12.321v-4.756c0-2.089-.224-2.175-2.56-2.389v-.918c1.78-.235,4.205-.701,5.529-1.146v20.138c0,1.763.229,1.986,1.481,2.072l1.018.073v.974Zm-5.469-11.31c-.701-1.136-2.047-1.711-3.354-1.711-1.514,0-4.268,1.011-4.268,5.866,0,4.136,2.514,6.193,4.554,6.228,1.104,0,2.271-.516,3.067-1.098v-9.285Z" fill="#631212"/>
    <path d="m339.201,418.44v-.979c2.066-.208,2.297-.37,2.297-2.679v-6.87c0-2.118-.113-2.253-2.056-2.565v-.863c1.818-.291,3.498-.729,5.019-1.322v11.621c0,2.29.218,2.471,2.364,2.679v.979h-7.624Zm3.581-18.355c-1.004,0-1.9-.885-1.9-1.894,0-1.133.896-1.949,1.934-1.949,1.016,0,1.845.816,1.845,1.949,0,1.009-.829,1.894-1.878,1.894Z" fill="#631212"/>
    <path d="m360.397,415.499c-2.138,2.755-4.556,3.346-5.693,3.346-4.182,0-6.686-3.361-6.686-7.259,0-2.302.862-4.46,2.25-5.924,1.432-1.57,3.29-2.439,5.06-2.439,2.997,0,5.231,2.562,5.226,5.268-.028.655-.117,1.007-.632,1.136-.667.141-5.057.432-8.931.566-.059,4.343,2.563,6.189,4.961,6.189,1.368,0,2.654-.555,3.895-1.682l.551.799Zm-5.854-10.979c-1.513,0-2.961,1.472-3.384,4.188,1.795-.006,3.571-.012,5.455-.101.582-.007.784-.156.784-.674.033-1.767-1.072-3.413-2.855-3.413Z" fill="#631212"/>
  </g>
  <g>
    <path d="m75.704,436.327c-6.54.846-8.257,1.727-11.815,10.623-2.713,6.653-15.602,37.907-20.838,51.17h-3.617c-5.229-14.294-14.42-39.116-19.734-52.861-2.794-7.26-4.387-8.344-10.428-8.932v-2.898h25.758l-.018,2.898c-7.225.818-7.546,1.905-6.141,5.614,2.553,7.338,9.732,26.938,15.388,41.81,5.31-12.872,11.558-28.349,15.735-39.605,2.206-5.87,1.119-6.857-6.941-7.818v-2.898h22.651v2.898Z" fill="#631212"/>
    <path d="m127.328,481.289c-.569,2.562-3.229,12.854-4.19,15.755h-48.146v-2.881c9.066-.721,9.734-1.531,9.734-9.592v-38.43c0-8.64-1.095-9.146-8.312-9.814v-2.898h30.283c9.394,0,13.14-.098,14.35-.196.098,2.324.507,9.787.898,15.133l-3.095.489c-.881-3.327-1.982-5.735-3.165-7.737-1.601-3.001-3.676-3.668-9.39-3.668h-8.769c-3.158,0-3.389.275-3.389,3.202v21.418h10.635c7.005,0,7.583-1.468,8.81-8.176h3.175v20.46h-3.175c-1.325-7.082-2.107-8.096-8.908-8.096h-10.536v19.001c0,6.833,1.801,7.685,6.905,7.782h8.715c5.882,0,6.948-.846,9.102-3.408,1.966-2.195,4.003-6.138,5.408-9.145l3.06.801Z" fill="#631212"/>
    <path d="m165.467,497.044v-2.898c6.326-.801,6.968-1.798,5.598-5.604-1.219-3.658-3.106-8.464-5.056-14.225h-20.77c-1.479,4.158-2.929,7.957-4.229,11.794-2.136,6.326-.589,7.108,7.384,8.035v2.898h-22.89v-2.898c6.165-.783,7.731-1.504,11.139-10.206l20.277-51.241,3.413-.64c6.184,16.788,12.919,35.092,19.12,51.918,3.22,8.62,4.101,9.386,10.944,10.169v2.898h-24.932Zm-9.576-51.195c-3.078,8.17-6.301,16.653-9.148,24.279h17.809l-8.66-24.279Z" fill="#631212"/>
    <path d="m219.237,433.429c13.57,0,22.369,2.723,28.472,8.515,4.831,4.68,8.407,11.531,8.407,21.015,0,11.415-4.697,20.59-12.233,26.267-7.403,5.561-16.861,7.819-28.74,7.819h-23.624v-2.898c8.24-.748,8.72-1.469,8.72-9.512v-38.715c0-8.382-1.156-8.844-8.72-9.592v-2.898h27.719Zm-9.568,50.44c0,7.27,2.886,9.377,10.19,9.377,16.824,0,25.581-11.526,25.581-28.9,0-10.421-3.427-18.545-10.577-23.154-4.432-3.067-10.003-4.196-16.56-4.196-4.264,0-6.489.622-7.397,1.37-.881.64-1.237,1.822-1.237,5.463v40.041Z" fill="#631212"/>
    <path d="m293.55,432.059c16.982,0,31.922,12.892,31.922,32.332,0,21.007-14.396,34.121-32.491,34.121-18.932,0-32.722-14.289-32.722-32.776,0-17.378,12.341-33.677,33.291-33.677Zm-1.869,3.744c-10.785,0-20.292,9.306-20.292,27.431,0,17.904,9.366,31.454,23.141,31.454,11.384,0,19.99-8.844,19.99-27.557,0-20.341-10.282-31.328-22.839-31.328Z" fill="#631212"/>
    <path d="m376.621,480.621c-.623,3.246-3.523,13.459-4.484,16.423h-46.056v-2.898c8.853-.828,9.636-1.354,9.636-9.654v-38.572c0-8.302-.979-8.844-8.72-9.592v-2.898h27.004v2.898c-7.794.766-8.854,1.21-8.854,9.592v39.498c0,5.864.678,7.429,6.221,7.526.115.018,6.704.098,7.256.098,5.098,0,6.565-.693,8.834-3.175,2.341-2.438,4.484-6.406,6.006-10.099l3.157.854Z" fill="#631212"/>
    <path d="m441.336,436.327c-6.184.427-8.329,2.046-8.56,6.372-.134,2.374-.329,6.344-.329,14.96v10.976c0,9.7-1.21,17.493-6.868,23.445-4.583,4.778-11.291,6.352-18.079,6.352-5.817,0-11.955-1.21-16.314-4.607-5.837-4.467-8.658-11.079-8.658-22.441v-24.922c0-8.844-.8-9.448-8.56-10.134v-2.898h26.551v2.898c-7.742.524-8.542,1.29-8.542,10.134v24.749c0,13.69,6.506,21.414,18.021,21.414,13.492,0,18.02-8.612,18.02-24.577v-10.388c0-8.599-.294-12.282-.489-14.978-.312-4.422-2.65-5.963-9.822-6.354v-2.898h23.63v2.898Z" fill="#631212"/>
    <path d="m487.088,448.872c-.916-2.916-1.84-5.494-3.263-7.595-1.895-3.116-3.327-3.828-8.667-3.828h-9.909c-2.926,0-3.237.275-3.237,3.202v22.379h11.837c6.817,0,7.359-1.228,8.827-8.078h3.06v20.684h-3.157c-1.237-6.815-2.062-8.399-8.729-8.399h-11.837v17.114c0,8.603.908,9.047,9.797,9.795v2.898h-27.947v-2.898c7.839-.605,8.72-1.272,8.72-9.795v-38.264c0-8.55-.961-9.012-8.72-9.76v-2.898h31.412c8.737,0,12.347-.098,13.993-.196.098,3.188.507,10.321.996,15.213l-3.175.427Z" fill="#631212"/>
  </g>
</svg>