<?xml version="1.0" encoding="UTF-8"?>
<svg id="a" data-name="레이어 1" xmlns="http://www.w3.org/2000/svg" width="500" height="500" viewBox="0 0 500 500">
  <g>
    <path d="m333.359,2.328l2.206,177.073c.527,29.347,4.534,58.561,10.668,87.241,6.21,28.52,14.415,57.007,25.087,84.091,0,0-8.008,3.212-8.008,3.212-10.291-28.095-17.79-56.739-23.446-86.014-5.506-29.159-8.846-58.8-8.665-88.506l2.158-177.097h0Z" fill="#631212"/>
    <path d="m305.597,2.328c1.792,61.944-1.253,203.901,9.513,263.19,4.211,28.787,9.818,57.647,17.268,85.708,0,0-8.336,2.227-8.336,2.227-6.898-28.802-11.789-57.754-15.358-87.079-9.362-59.226-2.836-202.626-3.087-264.046h0Z" fill="#631212"/>
    <path d="m277.798,2.328c1.554,103.24-.301,248.571,15.584,349.44-.001,0-8.554,1.142-8.554,1.142-13.44-101.185-8.042-247.494-7.03-350.583h0Z" fill="#631212"/>
    <polygon points="250 2.328 254.314 352.34 245.686 352.34 250 2.328 250 2.328" fill="#631212"/>
    <path d="m222.201,2.328c1.005,103.688,6.429,248.869-7.032,350.583.001,0-8.551-1.142-8.551-1.142,15.851-100.34,14.051-246.801,15.583-349.44h0Z" fill="#631212"/>
    <path d="m166.641,2.328l2.158,177.097c.181,29.706-3.16,59.347-8.665,88.506-5.656,29.276-13.154,57.918-23.446,86.014,0,0-8.008-3.212-8.008-3.212,10.672-27.086,18.876-55.57,25.087-84.091,6.134-28.681,10.141-57.894,10.668-87.241l2.206-177.073h0Z" fill="#631212"/>
    <path d="m167.621,351.227c7.451-28.062,13.058-56.92,17.268-85.708,10.728-58.582,7.75-202.189,9.514-263.191,0,0,2.154,175.941,2.154,175.941.298,44.178-4.112,88.299-11.681,131.802-2.553,14.529-5.411,28.914-8.919,43.383l-8.336-2.227h0Z" fill="#631212"/>
  </g>
  <g>
    <path d="m178.073,396.079c5.844,0,10.984,4.437,10.984,11.126,0,7.228-4.953,11.74-11.18,11.74-6.514,0-11.259-4.916-11.259-11.278,0-5.979,4.247-11.588,11.455-11.588Zm-.643,1.289c-3.711,0-6.982,3.202-6.982,9.438,0,6.161,3.223,10.823,7.962,10.823,3.917,0,6.879-3.043,6.879-9.482,0-6.999-3.538-10.779-7.859-10.779Z" fill="#631212"/>
    <path d="m191.388,418.44v-.979c2.067-.208,2.297-.37,2.297-2.679v-6.87c0-2.118-.113-2.253-2.055-2.565v-.863c1.817-.291,3.498-.729,5.018-1.322v11.621c0,2.29.218,2.471,2.364,2.679v.979h-7.625Zm3.581-18.355c-1.003,0-1.9-.885-1.9-1.894,0-1.133.896-1.949,1.934-1.949,1.016,0,1.845.816,1.845,1.949,0,1.009-.829,1.894-1.879,1.894Z" fill="#631212"/>
    <path d="m216.518,417.593c-.726.135-3.354.538-5.468,1.258v-2.146c-.606.377-1.476.854-2.082,1.23-1.25.727-2.086.91-2.485.91-2.724,0-6.385-2.651-6.385-7.421,0-4.669,4.103-8.201,8.831-8.201.429,0,1.443.055,2.121.321v-4.756c0-2.089-.224-2.175-2.56-2.389v-.918c1.781-.235,4.205-.701,5.529-1.146v20.138c0,1.763.23,1.986,1.482,2.072l1.017.073v.974Zm-5.468-11.31c-.702-1.136-2.047-1.711-3.354-1.711-1.513,0-4.267,1.011-4.267,5.866,0,4.136,2.514,6.193,4.554,6.228,1.103,0,2.271-.516,3.067-1.098v-9.285Z" fill="#631212"/>
    <path d="m225.192,403.223c4.307,0,7.414,3.266,7.414,7.555,0,5.45-4.017,8.067-7.438,8.067-4.726,0-7.567-3.757-7.567-7.559,0-5.429,4.271-8.063,7.591-8.063Zm-.404,1.181c-1.945,0-3.718,1.902-3.718,5.852,0,4.258,1.795,7.375,4.441,7.375,1.942,0,3.627-1.4,3.627-6.068,0-4.074-1.543-7.158-4.35-7.158Z" fill="#631212"/>
    <path d="m233.752,418.44v-.979c2.113-.22,2.346-.389,2.346-2.593v-15.985c0-2-.174-2.202-2.257-2.489v-.912c1.909-.208,4.046-.723,5.22-1.146v20.532c0,2.223.184,2.385,2.325,2.593v.979h-7.634Z" fill="#631212"/>
    <path d="m243.289,418.44v-.979c2.067-.208,2.297-.37,2.297-2.679v-6.87c0-2.118-.113-2.253-2.055-2.565v-.863c1.817-.291,3.498-.729,5.018-1.322v11.621c0,2.29.218,2.471,2.364,2.679v.979h-7.625Zm3.581-18.355c-1.003,0-1.9-.885-1.9-1.894,0-1.133.896-1.949,1.934-1.949,1.016,0,1.845.816,1.845,1.949,0,1.009-.829,1.894-1.879,1.894Z" fill="#631212"/>
    <path d="m263.124,418.845c-.578,0-1.319-.275-1.674-.652-.444-.432-.652-.903-.82-1.467-1.335.897-2.985,2.119-3.957,2.119-2.481,0-4.193-2.035-4.193-4.179,0-1.675.892-2.703,2.731-3.355,2.042-.713,4.592-1.577,5.339-2.195v-.818c0-2.276-1.109-3.584-2.806-3.584-.738,0-1.21.352-1.54.756-.377.484-.595,1.213-.892,2.195-.181.605-.525.841-1.062.841-.682,0-1.572-.697-1.572-1.53,0-.495.432-.905,1.123-1.389,1.074-.762,3.033-1.96,4.946-2.363,1.071,0,2.134.303,2.944.921,1.228,1.011,1.741,2.204,1.741,3.949v6.378c0,1.562.567,2.021,1.161,2.021.392,0,.812-.156,1.182-.353l.343.979-2.995,1.727Zm-2.574-8.515c-.717.365-2.151,1.005-2.907,1.349-1.237.566-1.981,1.2-1.981,2.428,0,1.803,1.341,2.587,2.357,2.587.804,0,1.882-.448,2.531-1.091v-5.272Z" fill="#631212"/>
    <path d="m277.366,418.44v-.979c1.869-.208,2.107-.389,2.107-2.538v-5.596c0-2.759-1.077-4.076-3.164-4.049-1.194,0-2.457.567-3.369,1.612v8.032c0,2.122.251,2.33,2.187,2.538v.979h-7.463v-.979c1.899-.174,2.312-.33,2.312-2.562v-16.117c0-1.742-.119-2.168-2.309-2.388v-.912c1.906-.175,3.987-.674,5.272-1.146v11.296c1.206-1.2,3.021-2.409,4.822-2.409,2.792,0,4.681,1.753,4.681,5.734v5.969c0,2.205.264,2.349,2.156,2.535v.979h-7.233Z" fill="#631212"/>
    <path d="m310.84,417.593c-.726.135-3.354.538-5.469,1.258v-2.146c-.605.377-1.476.854-2.082,1.23-1.25.727-2.086.91-2.484.91-2.725,0-6.385-2.651-6.385-7.421,0-4.669,4.103-8.201,8.831-8.201.429,0,1.443.055,2.12.321v-4.756c0-2.089-.224-2.175-2.56-2.389v-.918c1.78-.235,4.204-.701,5.529-1.146v20.138c0,1.763.229,1.986,1.481,2.072l1.018.073v.974Zm-5.469-11.31c-.701-1.136-2.047-1.711-3.354-1.711-1.514,0-4.268,1.011-4.268,5.866,0,4.136,2.514,6.193,4.554,6.228,1.104,0,2.271-.516,3.067-1.098v-9.285Z" fill="#631212"/>
    <path d="m312.679,418.44v-.979c2.066-.208,2.296-.37,2.296-2.679v-6.87c0-2.118-.112-2.253-2.055-2.565v-.863c1.818-.291,3.498-.729,5.019-1.322v11.621c0,2.29.218,2.471,2.364,2.679v.979h-7.624Zm3.581-18.355c-1.004,0-1.9-.885-1.9-1.894,0-1.133.896-1.949,1.934-1.949,1.016,0,1.845.816,1.845,1.949,0,1.009-.829,1.894-1.878,1.894Z" fill="#631212"/>
    <path d="m333.875,415.499c-2.138,2.755-4.556,3.346-5.693,3.346-4.182,0-6.686-3.361-6.686-7.259,0-2.302.862-4.46,2.25-5.924,1.432-1.57,3.29-2.439,5.06-2.439,2.997,0,5.231,2.562,5.226,5.268-.028.655-.117,1.007-.631,1.136-.668.141-5.058.432-8.932.566-.059,4.343,2.563,6.189,4.961,6.189,1.368,0,2.654-.555,3.895-1.682l.551.799Zm-5.854-10.979c-1.513,0-2.961,1.472-3.384,4.188,1.795-.006,3.571-.012,5.455-.101.582-.007.784-.156.784-.674.033-1.767-1.072-3.413-2.855-3.413Z" fill="#631212"/>
  </g>
  <g>
    <path d="m75.704,436.327c-6.54.846-8.256,1.727-11.815,10.623-2.713,6.653-15.602,37.907-20.838,51.17h-3.617c-5.228-14.294-14.42-39.116-19.734-52.861-2.793-7.26-4.387-8.344-10.427-8.932v-2.898h25.757l-.018,2.898c-7.225.818-7.545,1.905-6.14,5.614,2.552,7.338,9.732,26.938,15.387,41.81,5.31-12.872,11.558-28.349,15.735-39.605,2.206-5.87,1.12-6.857-6.941-7.818v-2.898h22.651v2.898Z" fill="#631212"/>
    <path d="m127.328,481.289c-.57,2.562-3.23,12.854-4.191,15.755h-48.146v-2.881c9.066-.721,9.734-1.531,9.734-9.592v-38.43c0-8.64-1.094-9.146-8.311-9.814v-2.898h30.283c9.394,0,13.14-.098,14.35-.196.098,2.324.507,9.787.898,15.133l-3.095.489c-.881-3.327-1.983-5.735-3.165-7.737-1.601-3.001-3.676-3.668-9.39-3.668h-8.769c-3.158,0-3.389.275-3.389,3.202v21.418h10.635c7.005,0,7.583-1.468,8.81-8.176h3.175v20.46h-3.175c-1.325-7.082-2.108-8.096-8.908-8.096h-10.537v19.001c0,6.833,1.801,7.685,6.906,7.782h8.714c5.882,0,6.949-.846,9.102-3.408,1.965-2.195,4.003-6.138,5.408-9.145l3.06.801Z" fill="#631212"/>
    <path d="m165.466,497.044v-2.898c6.326-.801,6.968-1.798,5.598-5.604-1.219-3.658-3.106-8.464-5.056-14.225h-20.77c-1.478,4.158-2.928,7.957-4.228,11.794-2.136,6.326-.589,7.108,7.383,8.035v2.898h-22.89v-2.898c6.166-.783,7.731-1.504,11.139-10.206l20.277-51.241,3.414-.64c6.184,16.788,12.919,35.092,19.12,51.918,3.22,8.62,4.101,9.386,10.944,10.169v2.898h-24.932Zm-9.576-51.195c-3.079,8.17-6.301,16.653-9.149,24.279h17.809l-8.66-24.279Z" fill="#631212"/>
    <path d="m219.237,433.429c13.571,0,22.369,2.723,28.472,8.515,4.831,4.68,8.407,11.531,8.407,21.015,0,11.415-4.697,20.59-12.234,26.267-7.403,5.561-16.861,7.819-28.74,7.819h-23.624v-2.898c8.241-.748,8.72-1.469,8.72-9.512v-38.715c0-8.382-1.157-8.844-8.72-9.592v-2.898h27.719Zm-9.568,50.44c0,7.27,2.885,9.377,10.19,9.377,16.824,0,25.581-11.526,25.581-28.9,0-10.421-3.427-18.545-10.578-23.154-4.432-3.067-10.002-4.196-16.56-4.196-4.263,0-6.489.622-7.397,1.37-.881.64-1.237,1.822-1.237,5.463v40.041Z" fill="#631212"/>
    <path d="m293.55,432.059c16.982,0,31.922,12.892,31.922,32.332,0,21.007-14.396,34.121-32.491,34.121-18.932,0-32.722-14.289-32.722-32.776,0-17.378,12.341-33.677,33.291-33.677Zm-1.869,3.744c-10.785,0-20.292,9.306-20.292,27.431,0,17.904,9.366,31.454,23.141,31.454,11.384,0,19.99-8.844,19.99-27.557,0-20.341-10.282-31.328-22.839-31.328Z" fill="#631212"/>
    <path d="m376.621,480.621c-.623,3.246-3.523,13.459-4.484,16.423h-46.056v-2.898c8.853-.828,9.636-1.354,9.636-9.654v-38.572c0-8.302-.979-8.844-8.72-9.592v-2.898h27.004v2.898c-7.794.766-8.854,1.21-8.854,9.592v39.498c0,5.864.678,7.429,6.221,7.526.115.018,6.704.098,7.256.098,5.098,0,6.565-.693,8.834-3.175,2.341-2.438,4.484-6.406,6.006-10.099l3.157.854Z" fill="#631212"/>
    <path d="m441.336,436.327c-6.184.427-8.329,2.046-8.56,6.372-.134,2.374-.329,6.344-.329,14.96v10.976c0,9.7-1.21,17.493-6.868,23.445-4.583,4.778-11.291,6.352-18.079,6.352-5.817,0-11.955-1.21-16.314-4.607-5.837-4.467-8.658-11.079-8.658-22.441v-24.922c0-8.844-.8-9.448-8.56-10.134v-2.898h26.551v2.898c-7.742.524-8.542,1.29-8.542,10.134v24.749c0,13.69,6.506,21.414,18.021,21.414,13.492,0,18.02-8.612,18.02-24.577v-10.388c0-8.599-.294-12.282-.489-14.978-.312-4.422-2.65-5.963-9.822-6.354v-2.898h23.63v2.898Z" fill="#631212"/>
    <path d="m487.088,448.872c-.916-2.916-1.84-5.494-3.263-7.595-1.895-3.116-3.327-3.828-8.667-3.828h-9.909c-2.926,0-3.237.275-3.237,3.202v22.379h11.837c6.817,0,7.359-1.228,8.827-8.078h3.06v20.684h-3.157c-1.237-6.815-2.062-8.399-8.729-8.399h-11.837v17.114c0,8.603.908,9.047,9.797,9.795v2.898h-27.947v-2.898c7.839-.605,8.72-1.272,8.72-9.795v-38.264c0-8.55-.961-9.012-8.72-9.76v-2.898h31.412c8.737,0,12.347-.098,13.993-.196.098,3.188.507,10.321.996,15.213l-3.175.427Z" fill="#631212"/>
  </g>
</svg>