<?xml version="1.0" encoding="UTF-8"?>
<svg id="a" data-name="레이어 1" xmlns="http://www.w3.org/2000/svg" width="500" height="500" xmlns:xlink="http://www.w3.org/1999/xlink" viewBox="0 0 500 500">
  <defs>
    <linearGradient id="b" data-name="무제 그라디언트 6" x1="140.837" y1="117.374" x2="366.961" y2="392.1" gradientUnits="userSpaceOnUse">
      <stop offset="0" stop-color="#fff"/>
      <stop offset="1" stop-color="#f7f7f9"/>
    </linearGradient>
  </defs>
  <path d="m457.65,250c0,37.83-10.11,73.29-27.79,103.84-18.23,31.51-44.51,57.79-76.02,76.02-30.55,17.68-66.01,27.79-103.84,27.79s-73.29-10.11-103.84-27.79c-31.51-18.23-57.79-44.51-76.02-76.02-17.68-30.55-27.79-66.01-27.79-103.84s10.11-73.29,27.79-103.84c18.23-31.51,44.51-57.79,76.02-76.02,30.55-17.68,66.01-27.79,103.84-27.79s73.29,10.11,103.84,27.79c31.51,18.23,57.79,44.51,76.02,76.02,17.68,30.55,27.79,66.01,27.79,103.84Z"/>
  <path d="m457.65,250h42.35c0-45.55-12.18-88.25-33.46-125.02l-36.68,21.18c-18.23-31.51-44.51-57.79-76.02-76.02l21.18-36.68C338.25,12.18,295.55,0,250,0v42.35c-37.83,0-73.29,10.11-103.84,27.79l-21.18-36.68c-37.94,21.95-69.57,53.58-91.52,91.52l36.68,21.18c-17.68,30.55-27.79,66.01-27.79,103.84H0c0,45.55,12.18,88.25,33.46,125.02l36.68-21.18c18.23,31.51,44.51,57.79,76.02,76.02l-21.18,36.68c36.77,21.28,79.47,33.46,125.02,33.46v-42.35c37.83,0,73.29-10.11,103.84-27.79l21.18,36.68c37.94-21.95,69.57-53.58,91.52-91.52l-36.68-21.18c17.68-30.55,27.79-66.01,27.79-103.84Z" fill="#f240ae"/>
  <g>
    <path d="m500,250c0,45.55-12.18,88.25-33.46,125.02l-36.68-21.18c17.68-30.55,27.79-66.01,27.79-103.84h42.35Z" fill="#fff3fb"/>
    <path d="m466.54,124.98l-36.68,21.18c-18.23-31.51-44.51-57.79-76.02-76.02l21.18-36.68c37.94,21.95,69.57,53.58,91.52,91.52Z" fill="#fff3fb"/>
    <path d="m250,0v42.35c-37.83,0-73.29,10.11-103.84,27.79l-21.18-36.68C161.75,12.18,204.45,0,250,0Z" fill="#fff3fb"/>
    <path d="m70.14,146.16c-17.68,30.55-27.79,66.01-27.79,103.84H0c0-45.55,12.18-88.25,33.46-125.02l36.68,21.18Z" fill="#fff3fb"/>
    <path d="m146.16,429.86l-21.18,36.68c-37.94-21.95-69.57-53.58-91.52-91.52l36.68-21.18c18.23,31.51,44.51,57.79,76.02,76.02Z" fill="#fff3fb"/>
    <path d="m375.02,466.54c-36.77,21.28-79.47,33.46-125.02,33.46v-42.35c37.83,0,73.29-10.11,103.84-27.79l21.18,36.68Z" fill="#fff3fb"/>
    <circle cx="250" cy="250" r="182.596" fill="#fff3fb"/>
  </g>
  <circle cx="250" cy="250" r="166.078" fill="url(#b)"/>
  <g>
    <path d="m153.121,349.075l.742-.845,1.945,1.711,9.389-10.673-1.945-1.711.744-.845c.426.438,1.51,1.423,3.252,2.956,1.9,1.672,3.128,2.72,3.681,3.144l-.743.845-2.428-2.137-9.39,10.673,1.856,1.634c.445.392.902.692,1.369.9.468.208.889.333,1.262.376.373.042.777.013,1.211-.09s.787-.213,1.062-.33.594-.305.956-.563.621-.457.775-.598c.154-.14.37-.322.646-.549l.894.787-4.938,4.411-10.34-9.097Z"/>
    <path d="m173.602,365.677l.564-.973,2.24,1.3,7.066-12.172-2.24-1.3.565-.973,12.892,7.483-2.269,5.378-.973-.565c.263-.608.456-1.123.579-1.545s.191-.869.208-1.34c.016-.471-.061-.896-.229-1.274-.168-.378-.453-.766-.855-1.162s-.928-.783-1.576-1.16l-3.152-1.829-3.101,5.341,1.146.665c.926.537,1.632.696,2.12.479.487-.218.985-.763,1.491-1.635l.973.565-3.389,5.837-.974-.564c.507-.871.733-1.573.681-2.105-.053-.531-.542-1.066-1.468-1.604l-1.146-.665-3.4,5.857,3.151,1.83c.621.36,1.198.635,1.731.822.531.187,1.025.271,1.48.249.454-.021.867-.086,1.238-.195.37-.11.746-.318,1.128-.626.382-.307.712-.62.991-.94.279-.319.627-.717,1.042-1.191l.983.57-4.262,5.128-13.238-7.686Z"/>
    <path d="m199.463,378.562l1.418-4.135c.098-.288.186-.46.264-.517.076-.056.244-.04.503.049.118.04.21.08.274.119.066.039.109.087.131.144.021.058.027.115.016.173-.012.059-.038.146-.078.266-.226.8-.239,1.545-.041,2.233.197.688.553,1.258,1.068,1.708.515.449,1.014.807,1.496,1.071.484.266.992.489,1.523.671,1.057.362,1.906.35,2.547-.039.641-.388,1.078-.923,1.312-1.604.243-.711.167-1.478-.229-2.3-.165-.312-.384-.558-.655-.735-.271-.177-.902-.587-1.891-1.231-1.271-.774-2.127-1.348-2.57-1.719-.442-.371-.831-.9-1.166-1.586-.523-1.148-.586-2.301-.189-3.457.439-1.282,1.25-2.208,2.433-2.778s2.595-.575,4.235-.013c1.552.532,2.711,1.384,3.479,2.557l1.411-.612c.242-.096.426-.122.551-.079l.012.004c.194.066.301.148.32.246s-.016.275-.104.534l-1.425,4.157c-.094.273-.182.438-.264.492-.082.054-.264.033-.545-.063-.25-.086-.395-.164-.433-.235s-.032-.26.019-.566c.168-1.029.1-1.938-.207-2.723-.305-.785-.713-1.375-1.221-1.769-.508-.395-1.093-.705-1.755-.932-1-.343-1.805-.346-2.415-.009-.609.337-1.018.806-1.225,1.408-.216.632-.19,1.219.077,1.762s.621.96,1.06,1.25l3.06,1.817c1.07.626,1.856,1.521,2.358,2.685.502,1.164.542,2.36.121,3.588-.445,1.301-1.281,2.283-2.507,2.949-1.226.665-2.735.69-4.53.075-1.845-.632-3.17-1.549-3.973-2.749l-1.493.643c-.207.076-.388.092-.544.047-.202-.069-.312-.154-.332-.256s.016-.282.104-.541Z"/>
    <path d="m222.524,385.892l.157-1.114,2.564.36,1.959-13.938-2.565-.36.157-1.114,14.761,2.074-.075,5.836-1.113-.156c.014-.663-.002-1.213-.047-1.65-.045-.437-.148-.877-.312-1.318-.163-.442-.394-.807-.692-1.094-.299-.288-.709-.539-1.23-.755-.522-.216-1.154-.376-1.897-.48l-3.608-.507-.86,6.116,1.312.184c1.061.149,1.775.03,2.145-.355s.625-1.077.766-2.075l1.113.156-.939,6.685-1.113-.157c.14-.998.086-1.733-.164-2.206-.249-.473-.903-.783-1.963-.933l-1.312-.185-.942,6.708,3.607.507c.712.1,1.35.137,1.914.109.563-.027,1.052-.137,1.465-.327.414-.19.771-.406,1.073-.647.302-.242.572-.577.81-1.005.238-.428.426-.843.564-1.244.138-.401.311-.9.516-1.497l1.125.158-2.016,6.355-15.157-2.13Zm9.536-17.5c2.451-1.106,3.751-1.682,3.898-1.724.146-.027.301-.029.463-.007l.023.004c.363.051.655.248.875.59.221.343.303.708.249,1.095-.018.123-.046.244-.087.36-.039.117-.098.209-.174.277-.077.068-.145.135-.201.2-.056.065-.147.112-.273.142-.127.028-.215.055-.266.078-.051.024-.158.04-.32.048s-.26.014-.292.017-.14.008-.321.013l-.259-.014c-.585.011-1.612.018-3.079.02l-.236-1.099Z"/>
    <path d="m249.809,378.243l.131-5.798,16.115-1.041.875,5.732-1.123.073c-.105-.667-.193-1.178-.264-1.533s-.203-.764-.402-1.225c-.197-.461-.434-.794-.705-1-.271-.205-.645-.373-1.117-.503-.475-.13-1.047-.173-1.719-.13l-1.812.117.9,13.916,3.66-.236.072,1.123c-.869.009-2.66.101-5.373.276-2.713.175-4.5.313-5.363.417l-.072-1.123,3.672-.237-.898-13.916-1.848.119c-.67.043-1.236.164-1.697.362s-.811.416-1.049.654c-.24.239-.424.596-.555,1.069-.129.475-.212.893-.247,1.255s-.055.881-.058,1.554l-1.123.073Z"/>
    <path d="m279.47,385.478l-.303-1.084,2.494-.696-3.784-13.556-2.495.696-.302-1.083,14.356-4.009,2.269,5.377-1.084.303c-.252-.612-.486-1.11-.703-1.493-.216-.383-.487-.744-.813-1.084s-.684-.582-1.072-.726c-.389-.143-.866-.209-1.431-.198-.564.012-1.208.118-1.93.319l-3.511.98,1.661,5.948,1.275-.356c1.03-.287,1.638-.683,1.822-1.184.185-.502.142-1.238-.13-2.209l1.084-.303,1.815,6.502-1.084.303c-.271-.971-.615-1.623-1.033-1.957-.417-.333-1.142-.356-2.173-.068l-1.275.356,1.822,6.523,3.509-.979c.692-.193,1.291-.415,1.797-.666s.91-.546,1.213-.886c.302-.34.543-.682.724-1.024.18-.342.293-.757.34-1.244.046-.487.053-.943.019-1.366s-.076-.949-.127-1.578l1.095-.306.697,6.631-14.742,4.116Z"/>
    <path d="m306.213,376.832l-.525-.995,2.29-1.209-6.639-12.57-2.29,1.21-.525-.995,8.062-4.258c1.941-1.025,3.678-1.463,5.209-1.315,1.532.149,2.593.782,3.184,1.899.397.753.462,1.595.193,2.522-.269.929-.911,1.852-1.927,2.768,1.641-.212,2.877.193,3.71,1.214.015.027.206.291.575.79s.581.786.637.861c.214.289.391.529.532.721s.34.405.596.643.524.377.807.418c.282.042.569-.015.861-.169.34-.18.571-.465.692-.856.122-.391.087-.836-.105-1.335-.045-.118-.074-.208-.09-.271-.016-.062,0-.139.045-.229.045-.091.137-.172.275-.245.338-.179.59-.112.754.198.051.097.103.229.155.396.052.166.084.391.096.672.011.281-.018.563-.085.846-.067.283-.232.58-.494.891-.261.311-.606.579-1.036.806-1.325.7-2.447,1.053-3.365,1.059-.438.009-.816-.037-1.136-.14-.318-.102-.603-.287-.853-.555-.25-.267-.762-1.021-1.536-2.262,0,0-.156-.251-.47-.754-.314-.502-.731-.84-1.253-1.012-.695-.246-1.46-.148-2.294.292l-2.515,1.328,3.119,5.906,2.291-1.209.525.994c-.533.229-1.79.865-3.769,1.911-1.979,1.045-3.214,1.724-3.703,2.035Zm1.132-10.405l2.455-1.297c.664-.35,1.192-.72,1.588-1.109.396-.389.664-.729.806-1.021.143-.291.189-.629.141-1.014-.048-.385-.115-.675-.202-.872-.086-.197-.215-.458-.386-.782-.179-.338-.333-.604-.463-.801-.13-.195-.336-.413-.617-.653-.281-.239-.578-.384-.892-.435-.314-.05-.738-.021-1.271.09-.534.109-1.126.336-1.775.679l-2.497,1.319,3.114,5.896Z"/>
    <path d="m327.688,354.924c-1.663-1.952-2.4-4.048-2.214-6.286.188-2.238,1.31-4.234,3.368-5.987,2.021-1.722,4.152-2.507,6.391-2.354,2.239.152,4.199,1.217,5.882,3.192,1.615,1.896,2.324,3.949,2.127,6.157-.197,2.209-1.331,4.194-3.4,5.957-2.046,1.742-4.176,2.544-6.389,2.403s-4.135-1.168-5.765-3.082Zm2.558-2.654c1.473,1.729,2.858,2.851,4.158,3.364.902.349,1.775.431,2.618.246s1.565-.533,2.166-1.045c1.338-1.14,1.874-2.595,1.606-4.367-.23-1.403-1.133-3.029-2.707-4.877-1.433-1.683-2.771-2.736-4.017-3.162-.837-.271-1.662-.31-2.476-.114s-1.529.557-2.148,1.083c-.583.496-1.036,1.111-1.361,1.845-.325.732-.44,1.51-.346,2.332.177,1.377,1.013,2.941,2.506,4.695Z"/>
  </g>
  <g opacity=".05">
    <polygon points="261.459 192.705 284.377 192.705 284.377 169.788 261.459 169.788 238.541 169.788 215.623 169.788 215.623 192.705 238.541 192.705 261.459 192.705" fill="#19191e"/>
    <polygon points="307.295 215.623 307.295 238.541 307.295 261.459 307.295 284.377 307.295 307.295 284.377 307.295 261.459 307.295 238.541 307.295 238.541 284.377 261.459 284.377 284.377 284.377 284.377 261.459 261.459 261.459 238.541 261.459 238.541 238.541 238.541 215.623 215.623 215.623 215.623 238.541 215.623 261.459 192.705 261.459 192.705 238.541 192.705 215.623 192.705 192.705 192.705 169.788 169.788 169.788 169.788 192.705 169.788 215.623 169.788 238.541 169.788 261.459 169.788 284.377 192.705 284.377 215.623 284.377 215.623 307.295 215.623 330.212 238.541 330.212 261.459 330.212 284.377 330.212 307.295 330.212 330.212 330.212 330.212 307.295 330.212 284.377 330.212 261.459 330.212 238.541 330.212 215.623 307.295 215.623" fill="#19191e"/>
  </g>
  <g>
    <path d="m128.527,279.953c0-2.969.796-5.363,2.389-7.188,1.592-1.822,3.131-2.941,4.615-3.359,1.484-.416,2.848-.625,4.09-.625,2.551,0,4.973.884,7.266,2.65,2.291,1.766,3.438,4.493,3.438,8.182,0,3.17-.99,5.69-2.969,7.561-1.98,1.87-4.453,2.908-7.422,3.116,4.895,6.599,11.77,9.897,20.625,9.897,2.656,0,5.025-.312,7.109-.937,2.082-.624,3.801-1.417,5.156-2.379,1.354-.962,2.473-2.262,3.359-3.9.885-1.638,1.574-3.134,2.07-4.485.494-1.354.846-3.147,1.055-5.384.207-2.236.338-3.99.391-5.265.051-1.274.078-3.03.078-5.268,0-3.432-.027-6.045-.078-7.84-.053-1.794-.312-4.108-.781-6.943-.469-2.834-1.186-4.965-2.148-6.396-.965-1.43-2.383-2.73-4.258-3.9s-4.193-1.756-6.953-1.756c-9.271,0-16.434,2.99-21.484,8.971-1.043,1.302-2.215,1.926-3.516,1.873-1.043,0-1.836-.234-2.383-.703s-.873-1.002-.977-1.601c-.105-.599-.156-1.471-.156-2.617v-46.705c0-1.042.025-1.81.078-2.304.051-.494.246-.95.586-1.367.338-.416.871-.625,1.602-.625.104,0,.781.209,2.031.625,8.645,2.969,16.926,4.453,24.844,4.453,8.541,0,16.691-1.484,24.453-4.453,1.197-.416,2.004-.625,2.422-.625,1.51,0,2.266.938,2.266,2.812,0,1.199-.938,2.943-2.812,5.234-1.875,2.292-4.363,4.714-7.461,7.266-3.1,2.553-7.148,4.792-12.148,6.719-5,1.928-10.234,2.891-15.703,2.891-3.646,0-7.527-.364-11.641-1.094v21.094c5.416-3.75,12.291-5.625,20.625-5.625,11.406,0,20.312,3.148,26.719,9.442,6.406,6.295,9.609,14.229,9.609,23.8,0,9.907-3.738,18.056-11.211,24.442-7.475,6.388-17.514,9.581-30.117,9.581-9.595,0-17.436-2.76-23.524-8.281-6.089-5.52-9.132-11.848-9.132-18.984Z"/>
    <path d="m209.684,262.375c-.053-2.135-.078-4.805-.078-8.008s.025-5.874.078-8.013c.052-2.139.352-5.255.898-9.351.547-4.094,1.275-7.59,2.188-10.486.911-2.896,2.317-6.104,4.219-9.625,1.9-3.521,4.166-6.377,6.797-8.568,2.63-2.19,6.041-4.03,10.234-5.516,4.192-1.487,8.958-2.23,14.297-2.23s10.117.771,14.336,2.309c4.219,1.539,7.629,3.377,10.234,5.516,2.604,2.139,4.869,4.995,6.797,8.568,1.926,3.574,3.346,6.782,4.258,9.625.91,2.844,1.627,6.313,2.148,10.408.52,4.096.807,7.212.859,9.351.051,2.139.078,4.81.078,8.013s-.027,5.898-.078,8.086c-.053,2.188-.34,5.287-.859,9.297-.521,4.012-1.238,7.422-2.148,10.234-.912,2.812-2.332,5.926-4.258,9.336-1.928,3.412-4.219,6.186-6.875,8.32-2.656,2.137-6.094,3.934-10.312,5.391s-8.934,2.188-14.141,2.188c-5.312,0-10.078-.756-14.297-2.266s-7.644-3.307-10.273-5.391c-2.631-2.082-4.896-4.855-6.797-8.32-1.901-3.463-3.308-6.574-4.219-9.336-.912-2.76-1.641-6.172-2.188-10.234s-.847-7.16-.898-9.297Zm20.391-9.922c0,16.98.494,28.23,1.484,33.75.938,5.209,3.086,9.051,6.445,11.523,3.359,2.475,6.81,3.711,10.352,3.711,2.135,0,4.219-.352,6.25-1.055s4.191-2.408,6.484-5.117c2.291-2.707,3.75-6.354,4.375-10.938.729-5.52,1.094-16.145,1.094-31.875,0-20.051-.912-32.057-2.734-36.016-1.406-3.281-3.543-5.781-6.406-7.5-2.865-1.719-5.886-2.578-9.062-2.578-1.928,0-3.881.273-5.859.82-1.979.547-4.193,2.123-6.641,4.727-2.448,2.605-3.933,6.042-4.453,10.312-.886,5.521-1.328,15.6-1.328,30.234Z"/>
    <path d="m296.662,262.375c-.053-2.135-.078-4.805-.078-8.008s.025-5.874.078-8.013c.051-2.139.352-5.255.898-9.351.547-4.094,1.275-7.59,2.188-10.486.91-2.896,2.316-6.104,4.219-9.625,1.9-3.521,4.166-6.377,6.797-8.568,2.629-2.19,6.041-4.03,10.234-5.516,4.191-1.487,8.957-2.23,14.297-2.23s10.117.771,14.336,2.309c4.219,1.539,7.629,3.377,10.234,5.516,2.604,2.139,4.869,4.995,6.797,8.568,1.926,3.574,3.346,6.782,4.258,9.625.91,2.844,1.627,6.313,2.148,10.408.52,4.096.807,7.212.859,9.351.051,2.139.078,4.81.078,8.013s-.027,5.898-.078,8.086c-.053,2.188-.34,5.287-.859,9.297-.521,4.012-1.238,7.422-2.148,10.234-.912,2.812-2.332,5.926-4.258,9.336-1.928,3.412-4.219,6.186-6.875,8.32-2.656,2.137-6.094,3.934-10.312,5.391s-8.934,2.188-14.141,2.188c-5.312,0-10.078-.756-14.297-2.266s-7.645-3.307-10.273-5.391c-2.631-2.082-4.896-4.855-6.797-8.32-1.902-3.463-3.309-6.574-4.219-9.336-.912-2.76-1.641-6.172-2.188-10.234s-.848-7.16-.898-9.297Zm20.391-9.922c0,16.98.494,28.23,1.484,33.75.938,5.209,3.086,9.051,6.445,11.523,3.359,2.475,6.809,3.711,10.352,3.711,2.135,0,4.219-.352,6.25-1.055s4.191-2.408,6.484-5.117c2.291-2.707,3.75-6.354,4.375-10.938.729-5.52,1.094-16.145,1.094-31.875,0-20.051-.912-32.057-2.734-36.016-1.406-3.281-3.543-5.781-6.406-7.5-2.865-1.719-5.887-2.578-9.062-2.578-1.928,0-3.881.273-5.859.82-1.98.547-4.193,2.123-6.641,4.727-2.449,2.605-3.934,6.042-4.453,10.312-.887,5.521-1.328,15.6-1.328,30.234Z"/>
  </g>
  <g>
    <path d="m176.232,136.933l-.486-.858c.449-.207,1.425-.736,2.926-1.586,1.699-.961,2.767-1.59,3.205-1.885l.486.858-1.717.972,8.861,6.561-1.016-10.424c-.008-.012-.01-.038-.01-.078.002-.04-.002-.073-.01-.101s-.018-.053-.031-.077c-.084-.149-.662.08-1.734.688l-.486-.858c.496-.234,1.305-.668,2.426-1.303.148-.084.336-.194.562-.33.226-.136.488-.296.789-.482.3-.186.527-.322.682-.41l.486.858-.34.192c-.429.243-.742.446-.941.61-.198.164-.308.283-.328.357-.021.075-.028.173-.021.295l1.358,13.759c.028.244,0,.42-.083.531-.084.11-.217.217-.402.322-.232.132-.41.189-.533.173s-.279-.094-.467-.231l-11.486-8.508-1.689.956Z"/>
    <path d="m200.643,138.964l-.348-.922,2.125-.799-4.344-11.544-2.125.799-.347-.922,12.228-4.6,2.392,4.521-.923.347c-.268-.516-.51-.932-.729-1.25-.218-.318-.482-.612-.793-.884-.311-.271-.642-.455-.992-.551-.35-.096-.771-.117-1.264-.063s-1.045.195-1.66.427l-2.99,1.125,1.906,5.066,1.086-.409c.878-.33,1.378-.721,1.5-1.173.123-.452.029-1.092-.282-1.918l.923-.347,2.083,5.537-.923.347c-.311-.827-.662-1.369-1.052-1.628s-1.024-.224-1.901.106l-1.087.409,2.091,5.556,2.988-1.125c.59-.222,1.096-.461,1.518-.719s.752-.546.99-.866c.238-.32.423-.637.554-.949.132-.312.198-.684.201-1.113s-.026-.827-.089-1.194c-.062-.367-.139-.823-.23-1.368l.932-.351,1.117,5.735-12.555,4.724Z"/>
    <path d="m216.795,133.036l-.203-.965.432-.091c.71-.149,1.154-.28,1.334-.392.18-.111.285-.262.314-.451l2.497-13.465c.021-.165.046-.282.073-.351s.088-.136.184-.201c.094-.065.238-.119.434-.16.153-.032.266-.047.336-.044.07.002.163.034.277.094.113.06.223.167.324.32l7.975,11.755,2-.421.203.965c-.49.062-1.614.277-3.369.646-1.896.399-3.102.674-3.615.824l-.203-.965,1.959-.413-1.871-2.755-5.517,1.162-.499,2.717c-.042.065-.052.151-.029.259.039.182.667.144,1.887-.113l.203.965c-.518.067-1.427.237-2.727.511-.047.01-.846.2-2.398.568Zm3.772-5.958l4.692-.988-3.545-5.225-1.147,6.213Z"/>
    <path d="m236.197,129.212l-.043-.985,2.268-.099-.541-12.446-2.268.099-.043-.985,9.039-.394c2.127-.093,3.905.489,5.334,1.746,1.43,1.257,2.192,3.015,2.291,5.272.096,2.202-.511,3.963-1.82,5.281-1.311,1.318-3.029,2.023-5.156,2.116l-9.061.395Zm5.088-1.208l3.068-.134c1.936-.084,3.288-.732,4.058-1.945.313-.493.527-1.064.64-1.714.112-.649.144-1.541.094-2.677-.09-2.086-.456-3.558-1.096-4.414-.924-1.207-2.336-1.773-4.238-1.697l-3.067.134.542,12.446Z"/>
    <path d="m257.106,121.568c.256-2.232,1.157-3.958,2.703-5.178,1.546-1.219,3.495-1.693,5.849-1.423,2.312.265,4.09,1.161,5.331,2.686s1.732,3.417,1.473,5.677c-.248,2.168-1.139,3.85-2.672,5.045-1.532,1.194-3.482,1.656-5.85,1.384-2.34-.268-4.127-1.153-5.36-2.655-1.233-1.502-1.725-3.347-1.474-5.536Zm3.229.05c-.227,1.978-.116,3.537.332,4.676.316.787.786,1.395,1.409,1.825.622.429,1.277.684,1.964.762,1.53.176,2.783-.352,3.759-1.583.761-.987,1.263-2.537,1.505-4.651.221-1.923.096-3.412-.377-4.464-.326-.699-.795-1.25-1.407-1.654-.611-.404-1.271-.647-1.979-.728-.667-.076-1.332,0-1.996.231s-1.23.622-1.7,1.173c-.776.937-1.279,2.408-1.51,4.413Z"/>
    <path d="m274.503,131.029l.249-.954,2.196.574,3.148-12.054-2.196-.573.25-.954c.506.175,1.743.519,3.71,1.033,2.146.561,3.52.898,4.12,1.012l-.249.954-2.743-.717-3.148,12.054,2.097.547c.503.132.979.187,1.427.166.447-.021.826-.088,1.136-.203.309-.114.613-.296.912-.547s.533-.477.702-.676c.169-.2.345-.473.527-.818.182-.345.306-.603.371-.773.066-.17.162-.398.289-.683l1.01.264-2.129,5.398-11.679-3.051Z"/>
    <path d="m294.177,122.416l.38-.909c.478.244,1.626.748,3.448,1.51s2.987,1.229,3.496,1.397l-.381.909-2.094-.876-3.382,8.078c-.135.322-.239.598-.312.827-.074.229-.131.564-.17,1.004-.04.44,0,.83.117,1.169.117.339.365.701.742,1.085.377.385.888.712,1.532.981.556.232,1.105.383,1.648.451.543.067,1.078.044,1.604-.069s1.017-.376,1.471-.788c.455-.412.825-.958,1.11-1.641l3.064-7.319c.093-.221.122-.365.087-.432-.035-.066-.188-.175-.457-.325-.33-.183-.661-.344-.994-.483l-.481-.201.381-.91c.514.26,1.376.643,2.586,1.149,1.242.52,2.117.864,2.624,1.032l-.381.909-.49-.205c-.383-.161-.737-.287-1.061-.377-.281-.088-.458-.12-.532-.095-.073.025-.155.148-.248.37l-3.097,7.396c-.541,1.293-1.457,2.201-2.747,2.725s-2.805.421-4.544-.307c-1.927-.807-3.241-1.878-3.943-3.215s-.769-2.684-.2-4.042l3.315-7.92-2.093-.876Z"/>
    <path d="m307.454,142.96l.515-.841,1.936,1.185,6.44-10.52-1.936-1.185.515-.841,10.853,6.644-2.098,4.665-.841-.515c.235-.516.41-.948.523-1.297s.192-.734.236-1.153c.044-.42-.002-.794-.138-1.123s-.372-.674-.708-1.037c-.336-.362-.784-.715-1.345-1.059l-2.514-1.539-2.96,4.835.894.547c.8.49,1.413.643,1.839.458.426-.185.87-.653,1.331-1.407l.85.521-3.084,5.036-.85-.52c.462-.753.677-1.36.646-1.821s-.446-.936-1.247-1.426l-.893-.547-2.966,4.844,2.417,1.48-.515.841c-.504-.357-1.699-1.113-3.585-2.267-1.734-1.062-2.84-1.715-3.316-1.958Z"/>
  </g>
  <circle cx="250" cy="250" r="156.8" fill="none" stroke="#171719" stroke-dasharray="0 0 12.015 12.015" stroke-miterlimit="10" stroke-width="5"/>
</svg>