<?xml version="1.0" encoding="UTF-8"?>
<svg id="a" data-name="레이어 1" xmlns="http://www.w3.org/2000/svg" width="500" height="500" xmlns:xlink="http://www.w3.org/1999/xlink" viewBox="0 0 500 500">
  <defs>
    <linearGradient id="b" data-name="무제 그라디언트 6" x1="140.837" y1="117.374" x2="366.961" y2="392.1" gradientUnits="userSpaceOnUse">
      <stop offset="0" stop-color="#fff"/>
      <stop offset="1" stop-color="#f7f7f9"/>
    </linearGradient>
  </defs>
  <path d="M457.65,250c0,37.83-10.11,73.29-27.79,103.84-18.23,31.51-44.51,57.79-76.02,76.02-30.55,17.68-66.01,27.79-103.84,27.79s-73.29-10.11-103.84-27.79c-31.51-18.23-57.79-44.51-76.02-76.02-17.68-30.55-27.79-66.01-27.79-103.84s10.11-73.29,27.79-103.84c18.23-31.51,44.51-57.79,76.02-76.02,30.55-17.68,66.01-27.79,103.84-27.79s73.29,10.11,103.84,27.79c31.51,18.23,57.79,44.51,76.02,76.02,17.68,30.55,27.79,66.01,27.79,103.84Z" stroke-width="0"/>
  <path d="M457.65,250h42.35c0-45.55-12.18-88.25-33.46-125.02l-36.68,21.18c-18.23-31.51-44.51-57.79-76.02-76.02l21.18-36.68C338.25,12.18,295.55,0,250,0v42.35c-37.83,0-73.29,10.11-103.84,27.79l-21.18-36.68c-37.94,21.95-69.57,53.58-91.52,91.52l36.68,21.18c-17.68,30.55-27.79,66.01-27.79,103.84H0c0,45.55,12.18,88.25,33.46,125.02l36.68-21.18c18.23,31.51,44.51,57.79,76.02,76.02l-21.18,36.68c36.77,21.28,79.47,33.46,125.02,33.46v-42.35c37.83,0,73.29-10.11,103.84-27.79l21.18,36.68c37.94-21.95,69.57-53.58,91.52-91.52l-36.68-21.18c17.68-30.55,27.79-66.01,27.79-103.84Z" fill="#9700ef" stroke-width="0"/>
  <g>
    <path d="M500,250c0,45.55-12.18,88.25-33.46,125.02l-36.68-21.18c17.68-30.55,27.79-66.01,27.79-103.84h42.35Z" fill="#eed7ff" stroke-width="0"/>
    <path d="M466.54,124.98l-36.68,21.18c-18.23-31.51-44.51-57.79-76.02-76.02l21.18-36.68c37.94,21.95,69.57,53.58,91.52,91.52Z" fill="#eed7ff" stroke-width="0"/>
    <path d="M250,0v42.35c-37.83,0-73.29,10.11-103.84,27.79l-21.18-36.68C161.75,12.18,204.45,0,250,0Z" fill="#eed7ff" stroke-width="0"/>
    <path d="M70.14,146.16c-17.68,30.55-27.79,66.01-27.79,103.84H0c0-45.55,12.18-88.25,33.46-125.02l36.68,21.18Z" fill="#eed7ff" stroke-width="0"/>
    <path d="M146.16,429.86l-21.18,36.68c-37.94-21.95-69.57-53.58-91.52-91.52l36.68-21.18c18.23,31.51,44.51,57.79,76.02,76.02Z" fill="#eed7ff" stroke-width="0"/>
    <path d="M375.02,466.54c-36.77,21.28-79.47,33.46-125.02,33.46v-42.35c37.83,0,73.29-10.11,103.84-27.79l21.18,36.68Z" fill="#eed7ff" stroke-width="0"/>
    <circle cx="250" cy="250" r="182.596" fill="#eed7ff" stroke-width="0"/>
  </g>
  <circle cx="250" cy="250" r="166.078" fill="url(#b)" stroke-width="0"/>
  <g>
    <path d="M153.121,349.075l.742-.845,1.945,1.711,9.389-10.673-1.945-1.711.744-.845c.426.438,1.51,1.423,3.252,2.956,1.9,1.672,3.128,2.72,3.681,3.144l-.743.845-2.428-2.137-9.39,10.673,1.856,1.634c.445.392.902.692,1.369.9.468.208.889.333,1.262.376.373.042.777.013,1.211-.09s.787-.213,1.062-.33.594-.305.956-.563.621-.457.775-.598c.154-.14.37-.322.646-.549l.894.787-4.938,4.411-10.34-9.097Z" stroke-width="0"/>
    <path d="M173.602,365.677l.564-.973,2.24,1.3,7.066-12.172-2.24-1.3.565-.973,12.892,7.483-2.269,5.378-.973-.565c.263-.608.456-1.123.579-1.545s.191-.869.208-1.34c.016-.471-.061-.896-.229-1.274-.168-.378-.453-.766-.855-1.162s-.928-.783-1.576-1.16l-3.152-1.829-3.101,5.341,1.146.665c.926.537,1.632.696,2.12.479.487-.218.985-.763,1.491-1.635l.973.565-3.389,5.837-.974-.564c.507-.871.733-1.573.681-2.105-.053-.531-.542-1.066-1.468-1.604l-1.146-.665-3.4,5.857,3.151,1.83c.621.36,1.198.635,1.731.822.531.187,1.025.271,1.48.249.454-.021.867-.086,1.238-.195.37-.11.746-.318,1.128-.626.382-.307.712-.62.991-.94.279-.319.627-.717,1.042-1.191l.983.57-4.262,5.128-13.238-7.686Z" stroke-width="0"/>
    <path d="M199.463,378.562l1.418-4.135c.098-.288.186-.46.264-.517.076-.056.244-.04.503.049.118.04.21.08.274.119.066.039.109.087.131.144.021.058.027.115.016.173-.012.059-.038.146-.078.266-.226.8-.239,1.545-.041,2.233.197.688.553,1.258,1.068,1.708.515.449,1.014.807,1.496,1.071.484.266.992.489,1.523.671,1.057.362,1.906.35,2.547-.039.641-.388,1.078-.923,1.312-1.604.243-.711.167-1.478-.229-2.3-.165-.312-.384-.558-.655-.735-.271-.177-.902-.587-1.891-1.231-1.271-.774-2.127-1.348-2.57-1.719-.442-.371-.831-.9-1.166-1.586-.523-1.148-.586-2.301-.189-3.457.439-1.282,1.25-2.208,2.433-2.778s2.595-.575,4.235-.013c1.552.532,2.711,1.384,3.479,2.557l1.411-.612c.242-.096.426-.122.551-.079l.012.004c.194.066.301.148.32.246s-.016.275-.104.534l-1.425,4.157c-.094.273-.182.438-.264.492-.082.054-.264.033-.545-.063-.25-.086-.395-.164-.433-.235s-.032-.26.019-.566c.168-1.029.1-1.938-.207-2.723-.305-.785-.713-1.375-1.221-1.769-.508-.395-1.093-.705-1.755-.932-1-.343-1.805-.346-2.415-.009-.609.337-1.018.806-1.225,1.408-.216.632-.19,1.219.077,1.762s.621.96,1.06,1.25l3.06,1.817c1.07.626,1.856,1.521,2.358,2.685.502,1.164.542,2.36.121,3.588-.445,1.301-1.281,2.283-2.507,2.949-1.226.665-2.735.69-4.53.075-1.845-.632-3.17-1.549-3.973-2.749l-1.493.643c-.207.076-.388.092-.544.047-.202-.069-.312-.154-.332-.256s.016-.282.104-.541Z" stroke-width="0"/>
    <path d="M222.524,385.892l.157-1.114,2.564.36,1.959-13.938-2.565-.36.157-1.114,14.761,2.074-.075,5.836-1.113-.156c.014-.663-.002-1.213-.047-1.65-.045-.437-.148-.877-.312-1.318-.163-.442-.394-.807-.692-1.094-.299-.288-.709-.539-1.23-.755-.522-.216-1.154-.376-1.897-.48l-3.608-.507-.86,6.116,1.312.184c1.061.149,1.775.03,2.145-.355s.625-1.077.766-2.075l1.113.156-.939,6.685-1.113-.157c.14-.998.086-1.733-.164-2.206-.249-.473-.903-.783-1.963-.933l-1.312-.185-.942,6.708,3.607.507c.712.1,1.35.137,1.914.109.563-.027,1.052-.137,1.465-.327.414-.19.771-.406,1.073-.647.302-.242.572-.577.81-1.005.238-.428.426-.843.564-1.244.138-.401.311-.9.516-1.497l1.125.158-2.016,6.355-15.157-2.13ZM232.061,368.392c2.451-1.106,3.751-1.682,3.898-1.724.146-.027.301-.029.463-.007l.023.004c.363.051.655.248.875.59.221.343.303.708.249,1.095-.018.123-.046.244-.087.36-.039.117-.098.209-.174.277-.077.068-.145.135-.201.2-.056.065-.147.112-.273.142-.127.028-.215.055-.266.078-.051.024-.158.04-.32.048s-.26.014-.292.017-.14.008-.321.013l-.259-.014c-.585.011-1.612.018-3.079.02l-.236-1.099Z" stroke-width="0"/>
    <path d="M249.809,378.243l.131-5.798,16.115-1.041.875,5.732-1.123.073c-.105-.667-.193-1.178-.264-1.533s-.203-.764-.402-1.225c-.197-.461-.434-.794-.705-1-.271-.205-.645-.373-1.117-.503-.475-.13-1.047-.173-1.719-.13l-1.812.117.9,13.916,3.66-.236.072,1.123c-.869.009-2.66.101-5.373.276-2.713.175-4.5.313-5.363.417l-.072-1.123,3.672-.237-.898-13.916-1.848.119c-.67.043-1.236.164-1.697.362s-.811.416-1.049.654c-.24.239-.424.596-.555,1.069-.129.475-.212.893-.247,1.255s-.055.881-.058,1.554l-1.123.073Z" stroke-width="0"/>
    <path d="M279.47,385.478l-.303-1.084,2.494-.696-3.784-13.556-2.495.696-.302-1.083,14.356-4.009,2.269,5.377-1.084.303c-.252-.612-.486-1.11-.703-1.493-.216-.383-.487-.744-.813-1.084s-.684-.582-1.072-.726c-.389-.143-.866-.209-1.431-.198-.564.012-1.208.118-1.93.319l-3.511.98,1.661,5.948,1.275-.356c1.03-.287,1.638-.683,1.822-1.184.185-.502.142-1.238-.13-2.209l1.084-.303,1.815,6.502-1.084.303c-.271-.971-.615-1.623-1.033-1.957-.417-.333-1.142-.356-2.173-.068l-1.275.356,1.822,6.523,3.509-.979c.692-.193,1.291-.415,1.797-.666s.91-.546,1.213-.886c.302-.34.543-.682.724-1.024.18-.342.293-.757.34-1.244.046-.487.053-.943.019-1.366s-.076-.949-.127-1.578l1.095-.306.697,6.631-14.742,4.116Z" stroke-width="0"/>
    <path d="M306.213,376.832l-.525-.995,2.29-1.209-6.639-12.57-2.29,1.21-.525-.995,8.062-4.258c1.941-1.025,3.678-1.463,5.209-1.315,1.532.149,2.593.782,3.184,1.899.397.753.462,1.595.193,2.522-.269.929-.911,1.852-1.927,2.768,1.641-.212,2.877.193,3.71,1.214.015.027.206.291.575.79s.581.786.637.861c.214.289.391.529.532.721s.34.405.596.643.524.377.807.418c.282.042.569-.015.861-.169.34-.18.571-.465.692-.856.122-.391.087-.836-.105-1.335-.045-.118-.074-.208-.09-.271-.016-.062,0-.139.045-.229.045-.091.137-.172.275-.245.338-.179.59-.112.754.198.051.097.103.229.155.396.052.166.084.391.096.672.011.281-.018.563-.085.846-.067.283-.232.58-.494.891-.261.311-.606.579-1.036.806-1.325.7-2.447,1.053-3.365,1.059-.438.009-.816-.037-1.136-.14-.318-.102-.603-.287-.853-.555-.25-.267-.762-1.021-1.536-2.262,0,0-.156-.251-.47-.754-.314-.502-.731-.84-1.253-1.012-.695-.246-1.46-.148-2.294.292l-2.515,1.328,3.119,5.906,2.291-1.209.525.994c-.533.229-1.79.865-3.769,1.911-1.979,1.045-3.214,1.724-3.703,2.035ZM307.345,366.427l2.455-1.297c.664-.35,1.192-.72,1.588-1.109.396-.389.664-.729.806-1.021.143-.291.189-.629.141-1.014-.048-.385-.115-.675-.202-.872-.086-.197-.215-.458-.386-.782-.179-.338-.333-.604-.463-.801-.13-.195-.336-.413-.617-.653-.281-.239-.578-.384-.892-.435-.314-.05-.738-.021-1.271.09-.534.109-1.126.336-1.775.679l-2.497,1.319,3.114,5.896Z" stroke-width="0"/>
    <path d="M327.688,354.924c-1.663-1.952-2.4-4.048-2.214-6.286.188-2.238,1.31-4.234,3.368-5.987,2.021-1.722,4.152-2.507,6.391-2.354,2.239.152,4.199,1.217,5.882,3.192,1.615,1.896,2.324,3.949,2.127,6.157-.197,2.209-1.331,4.194-3.4,5.957-2.046,1.742-4.176,2.544-6.389,2.403s-4.135-1.168-5.765-3.082ZM330.245,352.27c1.473,1.729,2.858,2.851,4.158,3.364.902.349,1.775.431,2.618.246s1.565-.533,2.166-1.045c1.338-1.14,1.874-2.595,1.606-4.367-.23-1.403-1.133-3.029-2.707-4.877-1.433-1.683-2.771-2.736-4.017-3.162-.837-.271-1.662-.31-2.476-.114s-1.529.557-2.148,1.083c-.583.496-1.036,1.111-1.361,1.845-.325.732-.44,1.51-.346,2.332.177,1.377,1.013,2.941,2.506,4.695Z" stroke-width="0"/>
  </g>
  <g opacity=".05">
    <polygon points="261.459 192.705 284.377 192.705 284.377 169.788 261.459 169.788 238.541 169.788 215.623 169.788 215.623 192.705 238.541 192.705 261.459 192.705" fill="#19191e" stroke-width="0"/>
    <polygon points="307.295 215.623 307.295 238.541 307.295 261.459 307.295 284.377 307.295 307.295 284.377 307.295 261.459 307.295 238.541 307.295 238.541 284.377 261.459 284.377 284.377 284.377 284.377 261.459 261.459 261.459 238.541 261.459 238.541 238.541 238.541 215.623 215.623 215.623 215.623 238.541 215.623 261.459 192.705 261.459 192.705 238.541 192.705 215.623 192.705 192.705 192.705 169.788 169.788 169.788 169.788 192.705 169.788 215.623 169.788 238.541 169.788 261.459 169.788 284.377 192.705 284.377 215.623 284.377 215.623 307.295 215.623 330.212 238.541 330.212 261.459 330.212 284.377 330.212 307.295 330.212 330.212 330.212 330.212 307.295 330.212 284.377 330.212 261.459 330.212 238.541 330.212 215.623 307.295 215.623" fill="#19191e" stroke-width="0"/>
  </g>
  <g>
    <path d="M116.232,277.432c0-2.375.509-4.291,1.528-5.75,1.019-1.458,2.004-2.354,2.954-2.688.949-.333,1.822-.5,2.617-.5,1.633,0,3.183.707,4.65,2.12,1.466,1.413,2.199,3.595,2.199,6.546,0,2.535-.633,4.552-1.9,6.048-1.267,1.496-2.85,2.327-4.75,2.493,3.133,5.279,7.533,7.918,13.201,7.918,1.699,0,3.216-.249,4.549-.749,1.334-.499,2.434-1.134,3.301-1.903.866-.77,1.582-1.81,2.15-3.12.566-1.311,1.008-2.507,1.324-3.589s.541-2.518.676-4.307c.133-1.789.216-3.192.25-4.212.032-1.02.049-2.424.049-4.214,0-2.745-.017-4.836-.049-6.271-.034-1.436-.201-3.287-.5-5.555-.301-2.268-.76-3.973-1.375-5.117-.617-1.145-1.525-2.185-2.726-3.121-1.2-.936-2.684-1.405-4.45-1.405-5.934,0-10.518,2.393-13.75,7.177-.667,1.041-1.417,1.54-2.25,1.498-.667,0-1.175-.188-1.525-.562-.35-.375-.559-.802-.625-1.28s-.1-1.177-.1-2.094v-37.365c0-.833.017-1.447.051-1.843.032-.396.157-.76.375-1.094.216-.333.557-.5,1.024-.5.066,0,.5.167,1.3.5,5.533,2.375,10.833,3.562,15.9,3.562,5.467,0,10.683-1.188,15.65-3.562.766-.333,1.282-.5,1.549-.5.967,0,1.451.75,1.451,2.25,0,.959-.601,2.354-1.801,4.188-1.199,1.834-2.792,3.771-4.775,5.812-1.982,2.042-4.574,3.834-7.774,5.375-3.2,1.542-6.55,2.312-10.05,2.312-2.334,0-4.817-.291-7.45-.875v16.875c3.466-3,7.866-4.5,13.2-4.5,7.3,0,13,2.519,17.1,7.554,4.1,5.036,6.15,11.383,6.15,19.04,0,7.926-2.393,14.444-7.176,19.554-4.783,5.11-11.208,7.665-19.274,7.665-6.141,0-11.159-2.208-15.056-6.625-3.896-4.416-5.844-9.479-5.844-15.188Z" stroke-width="0"/>
    <path d="M168.172,263.369c-.033-1.708-.05-3.844-.05-6.406s.017-4.699.05-6.411c.033-1.711.225-4.204.575-7.48.351-3.275.816-6.072,1.399-8.389.584-2.316,1.483-4.883,2.701-7.7,1.216-2.816,2.666-5.102,4.35-6.854,1.683-1.752,3.866-3.224,6.55-4.413,2.683-1.189,5.733-1.784,9.149-1.784s6.476.616,9.176,1.847c2.699,1.231,4.883,2.702,6.55,4.413s3.116,3.996,4.351,6.854c1.232,2.859,2.141,5.426,2.725,7.7.582,2.275,1.041,5.051,1.375,8.326.332,3.276.516,5.77.55,7.48.032,1.711.05,3.848.05,6.411s-.018,4.719-.05,6.469c-.034,1.75-.218,4.229-.55,7.438-.334,3.209-.793,5.938-1.375,8.188-.584,2.25-1.492,4.74-2.725,7.469-1.234,2.729-2.701,4.948-4.4,6.656-1.7,1.709-3.9,3.146-6.6,4.312-2.701,1.166-5.718,1.75-9.051,1.75-3.4,0-6.449-.604-9.15-1.812-2.699-1.208-4.892-2.646-6.574-4.312-1.684-1.666-3.134-3.885-4.35-6.656-1.218-2.771-2.117-5.26-2.701-7.469-.583-2.208-1.049-4.938-1.399-8.188s-.542-5.729-.575-7.438ZM181.223,255.432c0,13.584.316,22.584.949,27,.6,4.167,1.975,7.24,4.125,9.219,2.15,1.979,4.357,2.969,6.625,2.969,1.367,0,2.7-.281,4-.844,1.301-.562,2.684-1.927,4.15-4.094,1.467-2.166,2.4-5.083,2.8-8.75.466-4.416.7-12.916.7-25.5,0-16.042-.584-25.646-1.75-28.813-.9-2.625-2.268-4.625-4.1-6-1.834-1.375-3.768-2.062-5.801-2.062-1.233,0-2.483.219-3.75.656-1.268.438-2.684,1.698-4.25,3.781-1.566,2.084-2.518,4.834-2.85,8.25-.567,4.417-.85,12.479-.85,24.188Z" stroke-width="0"/>
    <path d="M223.838,263.369c-.034-1.708-.051-3.844-.051-6.406s.017-4.699.051-6.411c.032-1.711.225-4.204.574-7.48.351-3.275.816-6.072,1.4-8.389.583-2.316,1.482-4.883,2.7-7.7,1.216-2.816,2.666-5.102,4.35-6.854,1.683-1.752,3.866-3.224,6.55-4.413s5.733-1.784,9.15-1.784,6.475.616,9.175,1.847c2.7,1.231,4.883,2.702,6.55,4.413s3.117,3.996,4.351,6.854c1.232,2.859,2.142,5.426,2.725,7.7.583,2.275,1.042,5.051,1.375,8.326.333,3.276.517,5.77.55,7.48.033,1.711.051,3.848.051,6.411s-.018,4.719-.051,6.469-.217,4.229-.55,7.438c-.333,3.209-.792,5.938-1.375,8.188s-1.492,4.74-2.725,7.469c-1.233,2.729-2.7,4.948-4.4,6.656-1.7,1.709-3.899,3.146-6.6,4.312s-5.717,1.75-9.05,1.75c-3.4,0-6.45-.604-9.15-1.812s-4.893-2.646-6.575-4.312c-1.684-1.666-3.134-3.885-4.35-6.656-1.218-2.771-2.117-5.26-2.7-7.469-.584-2.208-1.05-4.938-1.4-8.188-.35-3.25-.542-5.729-.574-7.438ZM236.888,255.432c0,13.584.316,22.584.95,27,.6,4.167,1.975,7.24,4.125,9.219,2.149,1.979,4.357,2.969,6.625,2.969,1.366,0,2.699-.281,4-.844,1.3-.562,2.683-1.927,4.149-4.094,1.467-2.166,2.4-5.083,2.8-8.75.467-4.416.7-12.916.7-25.5,0-16.042-.583-25.646-1.75-28.813-.899-2.625-2.267-4.625-4.1-6-1.834-1.375-3.768-2.062-5.8-2.062-1.234,0-2.484.219-3.75.656-1.268.438-2.684,1.698-4.25,3.781-1.567,2.084-2.518,4.834-2.851,8.25-.567,4.417-.85,12.479-.85,24.188Z" stroke-width="0"/>
    <path d="M279.503,263.369c-.034-1.708-.051-3.844-.051-6.406s.017-4.699.051-6.411c.032-1.711.225-4.204.574-7.48.351-3.275.816-6.072,1.4-8.389.583-2.316,1.482-4.883,2.7-7.7,1.216-2.816,2.666-5.102,4.35-6.854,1.683-1.752,3.866-3.224,6.55-4.413s5.733-1.784,9.15-1.784,6.475.616,9.175,1.847c2.7,1.231,4.883,2.702,6.55,4.413s3.117,3.996,4.351,6.854c1.232,2.859,2.142,5.426,2.725,7.7.583,2.275,1.042,5.051,1.375,8.326.333,3.276.517,5.77.55,7.48.033,1.711.051,3.848.051,6.411s-.018,4.719-.051,6.469-.217,4.229-.55,7.438c-.333,3.209-.792,5.938-1.375,8.188s-1.492,4.74-2.725,7.469c-1.233,2.729-2.7,4.948-4.4,6.656-1.7,1.709-3.899,3.146-6.6,4.312s-5.718,1.75-9.05,1.75c-3.4,0-6.45-.604-9.15-1.812s-4.893-2.646-6.575-4.312c-1.684-1.666-3.134-3.885-4.35-6.656-1.218-2.771-2.117-5.26-2.7-7.469-.584-2.208-1.05-4.938-1.4-8.188-.35-3.25-.542-5.729-.574-7.438ZM292.553,255.432c0,13.584.316,22.584.95,27,.6,4.167,1.975,7.24,4.125,9.219,2.149,1.979,4.357,2.969,6.625,2.969,1.366,0,2.699-.281,4-.844,1.3-.562,2.683-1.927,4.149-4.094,1.467-2.166,2.4-5.083,2.8-8.75.467-4.416.7-12.916.7-25.5,0-16.042-.583-25.646-1.75-28.813-.899-2.625-2.267-4.625-4.1-6-1.834-1.375-3.768-2.062-5.8-2.062-1.234,0-2.484.219-3.75.656-1.268.438-2.684,1.698-4.25,3.781-1.567,2.084-2.518,4.834-2.851,8.25-.567,4.417-.85,12.479-.85,24.188Z" stroke-width="0"/>
    <path d="M335.169,263.369c-.034-1.708-.051-3.844-.051-6.406s.017-4.699.051-6.411c.032-1.711.225-4.204.574-7.48.351-3.275.816-6.072,1.4-8.389.583-2.316,1.482-4.883,2.7-7.7,1.216-2.816,2.666-5.102,4.35-6.854,1.683-1.752,3.866-3.224,6.55-4.413s5.733-1.784,9.15-1.784,6.475.616,9.175,1.847c2.7,1.231,4.883,2.702,6.55,4.413s3.117,3.996,4.351,6.854c1.232,2.859,2.142,5.426,2.725,7.7.583,2.275,1.042,5.051,1.375,8.326.333,3.276.517,5.77.55,7.48.033,1.711.051,3.848.051,6.411s-.018,4.719-.051,6.469-.217,4.229-.55,7.438c-.333,3.209-.792,5.938-1.375,8.188s-1.492,4.74-2.725,7.469c-1.233,2.729-2.7,4.948-4.4,6.656-1.7,1.709-3.899,3.146-6.6,4.312s-5.718,1.75-9.05,1.75c-3.4,0-6.45-.604-9.15-1.812s-4.893-2.646-6.575-4.312c-1.684-1.666-3.134-3.885-4.35-6.656-1.218-2.771-2.117-5.26-2.7-7.469-.584-2.208-1.05-4.938-1.4-8.188-.35-3.25-.542-5.729-.574-7.438ZM348.219,255.432c0,13.584.316,22.584.95,27,.6,4.167,1.975,7.24,4.125,9.219,2.149,1.979,4.357,2.969,6.625,2.969,1.366,0,2.699-.281,4-.844,1.3-.562,2.683-1.927,4.149-4.094,1.467-2.166,2.4-5.083,2.8-8.75.467-4.416.7-12.916.7-25.5,0-16.042-.583-25.646-1.75-28.813-.899-2.625-2.267-4.625-4.1-6-1.834-1.375-3.768-2.062-5.8-2.062-1.234,0-2.484.219-3.75.656-1.268.438-2.684,1.698-4.25,3.781-1.567,2.084-2.518,4.834-2.851,8.25-.567,4.417-.85,12.479-.85,24.188Z" stroke-width="0"/>
  </g>
  <g>
    <path d="M176.232,136.933l-.486-.858c.449-.207,1.425-.736,2.926-1.586,1.699-.961,2.767-1.59,3.205-1.885l.486.858-1.717.972,8.861,6.561-1.016-10.424c-.008-.012-.01-.038-.01-.078.002-.04-.002-.073-.01-.101s-.018-.053-.031-.077c-.084-.149-.662.08-1.734.688l-.486-.858c.496-.234,1.305-.668,2.426-1.303.148-.084.336-.194.562-.33.226-.136.488-.296.789-.482.3-.186.527-.322.682-.41l.486.858-.34.192c-.429.243-.742.446-.941.61-.198.164-.308.283-.328.357-.021.075-.028.173-.021.295l1.358,13.759c.028.244,0,.42-.083.531-.084.11-.217.217-.402.322-.232.132-.41.189-.533.173s-.279-.094-.467-.231l-11.486-8.508-1.689.956Z" stroke-width="0"/>
    <path d="M200.643,138.964l-.348-.922,2.125-.799-4.344-11.544-2.125.799-.347-.922,12.228-4.6,2.392,4.521-.923.347c-.268-.516-.51-.932-.729-1.25-.218-.318-.482-.612-.793-.884-.311-.271-.642-.455-.992-.551-.35-.096-.771-.117-1.264-.063s-1.045.195-1.66.427l-2.99,1.125,1.906,5.066,1.086-.409c.878-.33,1.378-.721,1.5-1.173.123-.452.029-1.092-.282-1.918l.923-.347,2.083,5.537-.923.347c-.311-.827-.662-1.369-1.052-1.628s-1.024-.224-1.901.106l-1.087.409,2.091,5.556,2.988-1.125c.59-.222,1.096-.461,1.518-.719s.752-.546.99-.866c.238-.32.423-.637.554-.949.132-.312.198-.684.201-1.113s-.026-.827-.089-1.194c-.062-.367-.139-.823-.23-1.368l.932-.351,1.117,5.735-12.555,4.724Z" stroke-width="0"/>
    <path d="M216.795,133.036l-.203-.965.432-.091c.71-.149,1.154-.28,1.334-.392.18-.111.285-.262.314-.451l2.497-13.465c.021-.165.046-.282.073-.351s.088-.136.184-.201c.094-.065.238-.119.434-.16.153-.032.266-.047.336-.044.07.002.163.034.277.094.113.06.223.167.324.32l7.975,11.755,2-.421.203.965c-.49.062-1.614.277-3.369.646-1.896.399-3.102.674-3.615.824l-.203-.965,1.959-.413-1.871-2.755-5.517,1.162-.499,2.717c-.042.065-.052.151-.029.259.039.182.667.144,1.887-.113l.203.965c-.518.067-1.427.237-2.727.511-.047.01-.846.2-2.398.568ZM220.567,127.078l4.692-.988-3.545-5.225-1.147,6.213Z" stroke-width="0"/>
    <path d="M236.197,129.212l-.043-.985,2.268-.099-.541-12.446-2.268.099-.043-.985,9.039-.394c2.127-.093,3.905.489,5.334,1.746,1.43,1.257,2.192,3.015,2.291,5.272.096,2.202-.511,3.963-1.82,5.281-1.311,1.318-3.029,2.023-5.156,2.116l-9.061.395ZM241.285,128.004l3.068-.134c1.936-.084,3.288-.732,4.058-1.945.313-.493.527-1.064.64-1.714.112-.649.144-1.541.094-2.677-.09-2.086-.456-3.558-1.096-4.414-.924-1.207-2.336-1.773-4.238-1.697l-3.067.134.542,12.446Z" stroke-width="0"/>
    <path d="M257.106,121.568c.256-2.232,1.157-3.958,2.703-5.178,1.546-1.219,3.495-1.693,5.849-1.423,2.312.265,4.09,1.161,5.331,2.686s1.732,3.417,1.473,5.677c-.248,2.168-1.139,3.85-2.672,5.045-1.532,1.194-3.482,1.656-5.85,1.384-2.34-.268-4.127-1.153-5.36-2.655-1.233-1.502-1.725-3.347-1.474-5.536ZM260.336,121.618c-.227,1.978-.116,3.537.332,4.676.316.787.786,1.395,1.409,1.825.622.429,1.277.684,1.964.762,1.53.176,2.783-.352,3.759-1.583.761-.987,1.263-2.537,1.505-4.651.221-1.923.096-3.412-.377-4.464-.326-.699-.795-1.25-1.407-1.654-.611-.404-1.271-.647-1.979-.728-.667-.076-1.332,0-1.996.231s-1.23.622-1.7,1.173c-.776.937-1.279,2.408-1.51,4.413Z" stroke-width="0"/>
    <path d="M274.503,131.029l.249-.954,2.196.574,3.148-12.054-2.196-.573.25-.954c.506.175,1.743.519,3.71,1.033,2.146.561,3.52.898,4.12,1.012l-.249.954-2.743-.717-3.148,12.054,2.097.547c.503.132.979.187,1.427.166.447-.021.826-.088,1.136-.203.309-.114.613-.296.912-.547s.533-.477.702-.676c.169-.2.345-.473.527-.818.182-.345.306-.603.371-.773.066-.17.162-.398.289-.683l1.01.264-2.129,5.398-11.679-3.051Z" stroke-width="0"/>
    <path d="M294.177,122.416l.38-.909c.478.244,1.626.748,3.448,1.51s2.987,1.229,3.496,1.397l-.381.909-2.094-.876-3.382,8.078c-.135.322-.239.598-.312.827-.074.229-.131.564-.17,1.004-.04.44,0,.83.117,1.169.117.339.365.701.742,1.085.377.385.888.712,1.532.981.556.232,1.105.383,1.648.451.543.067,1.078.044,1.604-.069s1.017-.376,1.471-.788c.455-.412.825-.958,1.11-1.641l3.064-7.319c.093-.221.122-.365.087-.432-.035-.066-.188-.175-.457-.325-.33-.183-.661-.344-.994-.483l-.481-.201.381-.91c.514.26,1.376.643,2.586,1.149,1.242.52,2.117.864,2.624,1.032l-.381.909-.49-.205c-.383-.161-.737-.287-1.061-.377-.281-.088-.458-.12-.532-.095-.073.025-.155.148-.248.37l-3.097,7.396c-.541,1.293-1.457,2.201-2.747,2.725s-2.805.421-4.544-.307c-1.927-.807-3.241-1.878-3.943-3.215s-.769-2.684-.2-4.042l3.315-7.92-2.093-.876Z" stroke-width="0"/>
    <path d="M307.454,142.96l.515-.841,1.936,1.185,6.44-10.52-1.936-1.185.515-.841,10.853,6.644-2.098,4.665-.841-.515c.235-.516.41-.948.523-1.297s.192-.734.236-1.153c.044-.42-.002-.794-.138-1.123s-.372-.674-.708-1.037c-.336-.362-.784-.715-1.345-1.059l-2.514-1.539-2.96,4.835.894.547c.8.49,1.413.643,1.839.458.426-.185.87-.653,1.331-1.407l.85.521-3.084,5.036-.85-.52c.462-.753.677-1.36.646-1.821s-.446-.936-1.247-1.426l-.893-.547-2.966,4.844,2.417,1.48-.515.841c-.504-.357-1.699-1.113-3.585-2.267-1.734-1.062-2.84-1.715-3.316-1.958Z" stroke-width="0"/>
  </g>
  <circle cx="250" cy="250" r="156.8" fill="none" stroke="#171719" stroke-dasharray="0 0 12.015 12.015" stroke-miterlimit="10" stroke-width="5"/>
</svg>