<?xml version="1.0" encoding="utf-8"?>
<!-- Generator: Adobe Illustrator 26.3.1, SVG Export Plug-In . SVG Version: 6.00 Build 0)  -->
<svg version="1.1" id="레이어_1" xmlns="http://www.w3.org/2000/svg" xmlns:xlink="http://www.w3.org/1999/xlink" x="0px"
	 y="0px" viewBox="0 0 36 36" style="enable-background:new 0 0 36 36;" xml:space="preserve">
<style type="text/css">
	.st0{fill:#FFFFFF;}
	.st1{fill:#FDDE59;}
	.st2{fill:#2996CC;}
</style>
<path class="st0" d="M36,9v18c0,2.2-1.8,4-4,4H4c-2.2,0-4-1.8-4-4V9c0-2.2,1.8-4,4-4h28C34.2,5,36,6.8,36,9z"/>
<path class="st1" d="M36,9v9H18V5h14C34.2,5,36,6.8,36,9z"/>
<path class="st2" d="M18,18v13H4c-2.2,0-4-1.8-4-4v-9H18z"/>
<path class="st1" d="M27.7,21.4c-1.8,0-3.2,1.5-3.2,3.2c0,1.8,1.5,3.2,3.2,3.2c1.8,0,3.2-1.5,3.2-3.2C31,22.8,29.5,21.4,27.7,21.4z
	 M27.7,26.2c-0.9,0-1.6-0.7-1.6-1.6c0-0.9,0.7-1.6,1.6-1.6c0.9,0,1.6,0.7,1.6,1.6C29.4,25.5,28.6,26.2,27.7,26.2z"/>
<path class="st2" d="M8.3,8.3C6.5,8.3,5,9.7,5,11.5c0,1.8,1.5,3.2,3.2,3.2c1.8,0,3.2-1.5,3.2-3.2C11.5,9.7,10,8.3,8.3,8.3z
	 M8.3,13.1c-0.9,0-1.6-0.7-1.6-1.6c0-0.9,0.7-1.6,1.6-1.6c0.9,0,1.6,0.7,1.6,1.6C9.9,12.4,9.1,13.1,8.3,13.1z"/>
</svg>
