<?xml version="1.0" encoding="UTF-8"?>
<svg id="a" data-name="레이어 1" xmlns="http://www.w3.org/2000/svg" width="2160" height="1440" viewBox="0 0 2160 1440">
  <rect x="0" width="2160" height="1440" fill="#fff"/>
  <rect x="1080" y="0" width="1080" height="720" fill="#fdde59"/>
  <rect x="0" y="720" width="1080" height="720" fill="#2996cc"/>
  <path d="M1620,906.09c-99.41,0-180,80.59-180,180,0,99.41,80.59,180,180,180,99.41,0,180-80.59,180-180,0-99.41-80.59-180-180-180Zm0,270c-49.71,0-90-40.29-90-90,0-49.7,40.29-90,90-90,49.7,0,90,40.3,90,90,0,49.71-40.3,90-90,90Z" fill="#fdde59"/>
  <path d="M540,180c-99.41,0-180,80.59-180,180,0,99.41,80.59,180,180,180,99.41,0,180-80.59,180-180,0-99.41-80.59-180-180-180Zm0,270c-49.71,0-90-40.29-90-90s40.29-90,90-90c49.7,0,90,40.3,90,90s-40.3,90-90,90Z" fill="#2996cc"/>
</svg>