<?xml version="1.0" encoding="UTF-8"?>
<svg id="a" data-name="레이어 1" xmlns="http://www.w3.org/2000/svg" width="1500" height="900" viewBox="0 0 1500 900">
  <path d="M1499.97,148.13c0-1.66,0-3.33,.01-5v-.21C1498.61,64.45,1435.14,1.13,1356.61,.01h-.23c-1.34,.01-2.69,.01-4.02,.01h-.21C950.71,.06,549.29,.06,147.85,.02h-.21c-1.33,0-2.68,0-4.02-.01h-.23C64.86,1.13,1.39,64.45,.02,142.92v.23c.01,1.65,.01,3.32,.01,4.97-.01,.07,0,.13,0,.2,.03,200.6,.04,401.2,.04,601.8-.01,.03-.01,.05,0,.08v8.68c2.27,76.88,64.17,138.78,141.05,141.05h8.71c.02,.01,.03,.01,.05,0,400.83,0,801.66,.01,1202.49,.05,1.34,0,2.67,0,4.01,.01h.23c78.53-1.12,142-64.44,143.37-142.91-.01-1.74-.01-3.48-.01-5.21-.03-201.19-.03-402.36,0-603.55,0-.06,.01-.13,0-.19Zm-981.94,182.19c.34-4.85,.63-9.71,.94-14.56-.81-.79-.78-1.55,.12-2.26,.49-8.67,2.79-17,4.53-25.46,3.01-14.65,8.14-28.56,14.37-42.04,8.82-19.07,20.12-36.61,33.93-52.55,7.08-8.18,14.58-15.92,22.61-23.09,13.5-12.05,28.47-22.13,44.55-30.34,21.76-11.1,44.75-18.73,69.02-22.2,2.45-.35,4.87-.91,7.3-1.37,.46-.74,.98-.93,1.6-.17,1.99-.19,3.98-.38,5.98-.58,.43-.68,.94-.75,1.52-.18l26.25-.72c.81-.83,1.57-.8,2.28,.14,3.49,.21,6.98,.42,10.46,.64,.84-.92,1.62-.95,2.32,.15,10.38,1.65,20.75,3.28,31.02,5.64,15.05,3.47,29.47,8.72,43.36,15.32,26.96,12.8,50.46,30.38,70.53,52.46,13.11,14.42,24.05,30.35,33.02,47.69,8.7,16.83,15.14,34.46,19.42,52.87,3.09,13.3,4.96,26.81,5.64,40.47,.13,2.69-.04,3.33-2.89,1.81-3.83-2.03-8.05-3.36-12.17-4.79-1.96-.68-2.93-1.44-3.14-3.82-2.19-24.95-8.4-48.84-19.04-71.57-10.88-23.22-25.58-43.64-44.08-61.35-22.7-21.74-49-37.6-78.81-47.48-15.55-5.15-31.53-8.36-47.91-9.64-24.91-1.94-49.39,.28-73.44,7-32.18,8.98-60.62,24.7-85.13,47.44-25.74,23.89-44.25,52.51-55.72,85.67-5.69,16.46-9,33.45-10.28,50.81-.16,2.1-.83,3.09-2.76,3.75-4.17,1.42-8.39,2.81-12.35,4.69-3.25,1.54-3.21-.04-3.05-2.38Zm426.61-6.08c-8.11-.76-9.91-5.51-10.99-12.87-5.45-37.25-20.83-70.12-45.83-98.3-24.06-27.13-53.5-46.2-88.2-56.82-24.6-7.54-49.75-9.98-75.45-7.36-28.55,2.91-55.11,11.63-79.67,26.28-22.9,13.67-42.07,31.47-57.62,53.22-16.05,22.46-26.83,47.14-32.33,74.14-1.1,5.36-1.79,10.82-2.45,16.25-.3,2.49-.89,4.23-3.77,4.61-2.08,.27-4.14,.93-6.12,1.66-2.14,.79-2.64,.17-2.46-1.98,1.49-17.5,5.18-34.52,11.09-51.05,10.99-30.75,28.44-57.42,52.05-79.86,22.47-21.36,48.56-36.83,78.25-46.21,20.29-6.41,41.01-9.61,61.6-9.8,26.35,.14,51.28,4.55,75.2,14.07,34.61,13.78,63.44,35.34,86.52,64.61,21.97,27.87,35.23,59.48,40.91,94.38,.7,4.31,1.05,8.67,1.63,13,.27,2.03-.13,2.24-2.36,2.03Zm-280.17,441.78c-2.06,2.62-4.71,4.34-8.11,4.72-1.81,1.31-3.63,1.31-5.45,.01-9.67-.34-18.98-2.97-28.46-4.47-9.32-1.48-18.26-1.12-27.16,1.66-5.89,1.84-11.36,.37-16.89-1.55-7.45-2.58-13.83-7.3-21.08-10.28-2.1-.87-4.19-1.5-6.82-.81,2.31,3.1,6.5,2.75,8.99,5.12-1.67,2.44-3.85,.93-5.29,.55-13.24-3.54-26.32-7.59-38.87-13.19-16.04-7.16-31.07-16.02-44.99-26.71-8.26-6.34-16.17-13.09-23.4-20.57-9.39-9.73-17.92-20.14-25.58-31.33-9.04-13.19-16.65-27.08-22.33-41.98-2.66-6.97-5.94-13.74-7.49-21.14-1.99-9.46-5.15-18.66-6.02-28.38-.16-1.79-.81-3.57-.65-5.43-.66-.47-.69-.97-.08-1.51-.17-1.96-.34-3.93-.51-5.9-1.32-1.2-1.07-2.51-.25-3.85-.6-15.03-.27-30.04,1.47-44.99-.61-.56-.53-1.06,.13-1.52,.2-6.31,2.01-12.34,3.21-18.47,1.91-9.75,5.1-19.16,8.42-28.49,2.08-5.87,4.67-11.55,7.34-17.2,8.49-18,18.91-34.79,31.9-49.82,9.82-11.37,20.57-21.78,32.4-31.25,32.8-26.27,70.16-41.24,111.5-46.71,37.57-4.97,74.22-.71,109.62,12.83,30.01,11.47,56.34,28.72,79.05,51.52,31.5,31.64,51.64,69.37,61.21,112.9,.84,3.78,.03,5.72-3.51,7.04-3.14,1.18-6.16,2.71-9.18,4.19-1.7,.83-2.53,.83-3.05-1.38-1.65-7.04-3.37-14.06-5.39-21-8.05-27.65-21.09-52.65-39.49-74.9-19.75-23.87-43.59-42.42-71.55-55.62-22.88-10.81-46.97-17.24-72.28-19.11-30.06-2.23-59.27,1.55-87.63,11.74-24.48,8.79-46.53,21.77-65.98,39.02-38.08,33.76-61.1,75.87-68.65,126.17-5.38,35.92-1.59,71.06,12.18,104.73,19.02,46.47,50.88,81.5,95.46,104.82,6.49,3.39,13.57,2.85,20.53,2.9,3.03,.02,6.06-.29,9.26,.27-3.15,1.51-6.3,3.03-9.45,4.54,.2,.27,.4,.54,.61,.81,6.93-1.61,13.46-4.45,20.14-6.8,9.29-3.27,18.72-2.53,28.14-1.47,2.91,.33,5.25-.35,8.31-1.7-14.01-3.65-27.44,.15-40.81-.18-.05-.32-.09-.63-.13-.95,3.16-.63,6.33-1.22,9.48-1.88,9.51-2.01,19.06-3.81,28.72-4.99,2.75-.34,5.28,.01,7.58,1.27,2.83,1.55,5.62,1.29,9.25,.62-12.98-7.08-27.31-6.04-40.29-10.15,4.25,0,8.5-.08,12.75,.02,10.73,.23,21.47,.31,32.02,2.72,1.13,.26,2.48-.17,3.68-.47,9-2.31,17.78-1.37,26.5,1.55,3.74,1.25,6.94,2.17,11.46-.07,6.29-3.12,13.85-2.74,20.9-.65,2.29,.68,4.46,1.65,5.97,3.64,2.3,3.03,1.87,4.48-1.48,6.24-8.04,4.23-16.93,5.9-25.44,8.69-4.45,1.45-8.53,3.68-12.04,6.66-9.04,7.64-19.51,11.84-31,14.01-2.32,.43-4.96,.51-6.77,2.63,1.35,1.58,3.18,1.19,4.64,1.16,9.31-.21,17.94,2.51,26.33,6.02,10.67,4.46,21.67,4.95,32.92,3.55,.93-.12,1.95-.9,2.69,.24,.88,1.35-.69,1.65-1.21,2.31Zm387.88-298.97c-14.17-32.51-36.01-59.03-65.11-79.52-32.15-22.63-67.87-34.53-107.08-35.34-37.69-.78-72.83,8.61-104.98,28.54-2.11,1.31-3.66,1.8-5.31-.47-.65-.89-1.65-1.52-2.43-2.33-3.81-3.87-3.82-3.91,.98-6.87,35.67-21.95,74.5-32,116.3-30.43,39.01,1.47,74.65,13.54,106.76,35.55,31.93,21.87,55.83,50.59,71.53,86.11,13.87,31.37,19.6,64.13,16.73,98.21-3.34,39.71-17.61,75.24-42.47,106.48-12.77,16.06-27.56,30-44.68,41.22-6.92,4.53-15.22,5.73-23.62,4.1-1.06-.21-2.26,.29-3.64-.98,7.53-4.12,14.75-8.27,21.6-13.04,16.11-11.21,30.16-24.52,42.25-39.99,14.78-18.91,25.6-39.82,32.21-62.87,12.56-43.87,9.1-86.77-9.04-128.37Zm-364.41,36.61c-.7,2.11-1.19,4.36-1.31,6.58-.17,3.3-1.98,3.52-4.5,2.91-.12-.03-.24-.03-.37-.05-6.92-1.38-7.34-1.92-5.96-8.73,7.65-38,25.09-70.97,51.22-99.47,1.72-1.88,2.99-2.65,4.99-.3,1.69,1.98,4.93,3.34,5.41,5.45,.53,2.3-2.87,3.9-4.54,5.8-20.78,23.63-35.59,50.44-43.35,81.03-.72,2.86-.76,2.85-3.32,3.75,1.37,.62,2.32,1.24,1.73,3.03Zm-14.76-4.45c-.55,2.43-.97,4.9-1.45,7.34-.34,1.71-.89,2.77-3,1.71-3.99-2.02-8.08-3.86-12.15-5.73-1.26-.59-2.15-1.3-1.44-3.4,3.66-18.51,9.92-36.74,18.53-54.16,9.52-19.26,21.6-36.76,35.95-52.73,2.06-2.29,3.49-2.43,5.76-.59,2.9,2.36,5.95,4.55,9.05,6.64,2.01,1.36,1.77,2.32,.22,3.97-25.99,27.62-43.06,60-51.47,96.95Zm1.9,18.1c-11.47,3.75-22.25,2.91-32.88-3.12-22.95-13.03-43.01-29.42-59.57-49.99-17.03-21.14-29.21-44.82-36.43-71.01-1.72-6.25-3.26-12.54-4.38-18.94-.34-1.92-.02-2.9,1.94-3.64,8.81-3.33,8.7-3.37,10.52,5.75,6.83,34.07,21.95,63.95,45.41,89.62,20.66,22.6,45.38,39.15,73.97,50,.35,.13,.72,.25,1.01,.46,.17,.11,.21,.41,.41,.87Zm44.48-128.97c-21.68-15.15-45.4-25.52-71.26-30.78-34.08-6.93-67.7-4.97-100.76,6.18-31.7,10.68-58.68,28.53-81.02,53.28-26.84,29.73-43.05,64.51-48.2,104.31-3.63,28.03-1.47,55.59,7.51,82.44,12.08,36.11,33.01,66.07,63.14,89.52,15.47,12.04,32.34,21.55,50.72,28.37,.31,.12,.56,.4,1.33,.95-2.36,.88-4.3,2.11-6.32,2.25-8.62,.61-16.99,.36-25.02-4.09-38.64-21.45-67.87-51.73-86.54-91.85-14.64-31.44-20.23-64.56-17.45-99.16,3.06-38.14,15.83-72.67,38.27-103.58,12.77-17.6,28.06-32.72,45.71-45.55,33.19-24.11,70.35-36.7,111.15-38.54,42.66-1.92,82.11,8.84,118.09,31.74,37.83,24.08,64.74,57.36,81.21,99.02,3.02,7.64,5.53,15.51,7.45,23.53,.46,1.92,.84,3.86,1.36,6.28-4.03-1.14-7.58-2.47-11.39-2.65-1.33-.07-1.57-1.42-1.85-2.53-5.88-22.71-15.7-43.61-29.3-62.71-12.93-18.17-28.52-33.63-46.83-46.43Zm-197.29-3.69c-.6-2.85-.42-4.61,2.63-5.76,3.61-1.36,7.11-3.04,10.51-4.87,2.43-1.3,2.91-.36,3.29,1.85,3.02,17.71,8.55,34.63,16.3,50.81,12.29,25.67,29.09,47.89,50.79,66.41,10.58,9.03,22.04,16.67,33.91,23.87,8,4.86,16.46,6.15,25.45,5.84,3.2-.11,6.4-.32,10.32-.52-2.6,2.77-6.11,2.52-8.29,4.57,.22,.35,.45,.71,.67,1.06,4.96-1.67,10.05-3.05,14.87-5.07,10.8-4.53,21.86-4.35,33.1-2.59,1.82,.29,2.49,.13,6.83-1.97-13.82-3.7-27.48,.15-41.1-.44,1.93-1.79,4.39-1.4,6.53-1.82,10.49-2.04,20.93-4.41,31.57-5.63,2.47-.28,4.65-.26,6.89,.8,3.08,1.47,6.26,2.42,9.86,.78-13.08-7.15-28.07-5.73-41.86-9.72,.31-.43,.45-.79,.58-.78,14.43,.77,28.94,.46,43.27,2.67,3.05,.47,5.85,.52,8.77-.13,9.24-2.06,18.09-.19,26.85,2.64,2.74,.89,4.92,.71,8.05-.49,8.22-3.17,17.05-3.55,25.42,.58,1.27,.63,2.21,1.67,2.92,2.85,1.33,2.21,1.61,3.94-1.45,5.27-6.43,2.78-12.84,5.52-19.71,6.98-6.2,1.32-12,3.69-16.87,7.72-9.77,8.09-20.89,12.99-33.32,15.17-1.71,.3-3.38,.89-5.05,1.4-.32,.1-.57,.44-.87,.69,.62,1.43,1.88,1.38,3.04,1.35,9.94-.26,19.25,2.44,28.33,6.09,10.48,4.21,21.27,5.1,32.35,3.45,.87-.12,2.01-1.04,2.7,.17,.6,1.06-.37,1.89-.98,2.61-2.17,2.58-4.8,4.18-8.32,4.39-9.36,.55-18.34-1.68-27.34-3.63-10.5-2.28-20.79-3.41-31.27,.45-7.61,2.79-15.05,.7-22.08-2.65-5.41-2.58-10.68-5.42-16.01-8.15-.67-.34-1.3-.76-1.99-1.06-2.15-.91-5.53-2.61-6.36-.57-.94,2.35,2.98,2.33,4.73,3.42,1.2,.74,2.91,.75,3.81,2.86-6.15-.33-11.64-2.19-17.12-3.84-22.6-6.83-43.65-16.9-63.13-30.31-20.35-14.02-37.98-30.86-52.67-50.67-19.15-25.83-31.96-54.58-38.55-86.08Zm339.98,106.25c39.24-31.1,63.09-71.41,71.42-120.81,.44-2.58,1.1-3.39,3.8-2.42,7.75,2.8,7.9,2.73,6.21,10.71-6.31,29.8-19.1,56.55-38.1,80.37-17.44,21.87-38.48,39.41-63.1,52.63-20.51,11.02-42.33,18.3-65.33,22.03-.48,.08-.97,.18-1.46,.18-.2-.01-.39-.29-.82-.64,4.31-3.96,9.44-5.57,14.87-6.9,26.66-6.55,50.98-18.09,72.51-35.15Zm-49.06,67.44c-2.59,33.36-12.93,64.05-31.43,91.98-7.62,11.5-16.32,22.06-26.05,31.79-.86,.86-1.65,2.83-3.15,1.98-1.79-1.02-3.33-2.61-4.68-4.22-.71-.83,.61-1.43,1.16-2.02,12.91-13.71,23.75-28.88,32.26-45.69,9.89-19.52,16.43-40.09,18.95-61.85,.51-4.43,1.98-8.36,4.02-12.19,.56-1.05,6.96-3.53,8.03-3.07,1.64,.71,.64,2.18,.89,3.29Zm-138-1.66c9.1,2.67,8.83,2.61,9.98,12.06,2,16.33,6.11,32.16,12.34,47.44,5.52,13.54,12.46,26.29,20.89,38.24,12.37,17.53,27.24,32.55,44.65,45.08,19.08,13.73,39.97,23.66,62.65,29.73,9.67,2.58,19.45,4.79,29.51,5.41,3.78,.23,7.34,1.33,10.64,3.2,.7,.4,1.9,.6,1.67,1.67-.24,1.14-1.42,.73-2.23,.78-1,.06-2,.01-3,.01-21.43-1.31-42.2-5.6-62.3-13.23-19.13-7.26-36.81-17.09-52.9-29.65-20.63-16.09-37.63-35.39-50.63-58.2-11.25-19.72-18.62-40.77-22.38-63.1-.94-5.61-1.37-11.32-2.04-16.98-.31-2.58,.51-3.24,3.15-2.46Zm137.17,84.49c-9.92,20.05-22.84,38.01-37.97,54.46-2.62,2.85-4.35,2.74-6.98,.51-2.94-2.5-6.02-4.86-9.2-7.04-2.34-1.6-1.89-2.63-.09-4.39,14.29-13.97,26.13-29.8,35.62-47.39,13.51-25.06,21.38-51.74,22.93-80.21,.15-2.78,1.04-4.18,3.76-5.01,4.63-1.43,9.13-3.28,13.7-4.95,.1-.04,.24,.02,.73,.07-.31,33.2-7.88,64.43-22.5,93.95Zm-15.9-87.39c-1.57,.38-3.17,.73-4.78,.9-1.48,.15-2.99,.03-4.49,.03-9.97-.05-19.62-1.72-28.59-6.29-4.26-2.18-4.3-3.06-.28-5.62,3.78-2.42,7.76-4.21,12.39-4.84,38.27-5.22,73.12-19.02,103.51-43.02,37.54-29.65,62.12-67.74,72.79-114.58,.61-2.71-.13-6.76,2.3-7.7,1.81-.7,4.97,1.7,7.37,3.01,10.6,5.76,9.15,1.84,6.4,13.93-4.92,21.69-13.38,42-24.87,61.04-13.28,22.03-29.86,41.19-49.69,57.56-27.12,22.39-57.95,37.29-92.06,45.58Zm-83.69,153.6c1.62-1.03,6.25,1.22,6.24,3.06-.02,1.04-1.11,1.23-1.81,1.64-19.9,11.75-41.06,20.29-63.71,25.06-3.99,.84-7.95,1.85-13,2.13,3.37-4,7.09-5.69,11.07-6.58,21.87-4.91,42.3-13.25,61.21-25.31Zm10.29,28.03c-7.83,4.81-16.09,8.9-24.62,12.34-10.17,4.1-20.46,7.93-31.18,10.42-4.28,1-8.52,2.29-12.86,2.87-4.65,.62-9.27-.73-13.82-1.54-5.85-1.04-11.87-1.88-16.84-5.74-2.97-2.29-3.12-3.12,.01-5.1,4.45-2.81,9.16-4.76,14.53-5.44,28.84-3.67,55.71-13.14,80.61-28.13,2.38-1.44,3.85-2.02,6.27,.32,3.82,3.7,8.29,6.74,12.68,10.2-4.18,4.57-9.8,6.74-14.78,9.8Zm59.97,10.45c-8.41-3.59-16.6-7.91-24.48-12.83-5.97-3.72-12.15-7.24-17.67-11.51-12.58-9.74-24.59-20.16-35.16-32.18-9.08-10.32-17.33-21.2-24.43-32.95-13.72-22.67-22.78-47.09-27.58-73.16-1.89-10.27-2.57-20.62-3.35-30.99-.31-4.16,.18-4.42,3.9-2.95,3.94,1.55,7.87,3.11,11.87,4.46,1.93,.66,2.78,1.61,2.86,3.73,.72,18.88,4.8,37.1,11.3,54.77,8.19,22.27,20.18,42.29,35.73,60.27,25.09,28.99,56.12,48.93,92.27,60.98,18.53,6.18,37.69,9.49,57.29,10.15,6.9,.24,13.99-.18,20.34,3.52,1.3,.76,3.01,1.27,3.07,2.94,.06,1.48-1.45,2.16-2.61,2.9-10.98,7.05-23,10.41-36,10.44-8.69-.05-16.9-2.9-25.35-4.18-14.71-2.24-28.48-7.65-42-13.41Zm318.55-190.06c-.63,5.94-1.06,11.91-1.95,17.82-4.45,29.79-13.97,57.73-29.82,83.52-8.74,14.23-18.63,27.52-30.23,39.43-10.86,11.17-22.76,21.19-35.71,29.96-10.88,7.36-22.41,13.56-34.23,19.14-5.81,2.75-11.82,5.44-18.47,6.8-.33-2.71,2.1-2.91,3.51-3.89,1.4-.98,3.31-1.2,4.65-3.11-2.98-.29-5.24-.15-7.71,1.54-7.53,5.14-14.73,10.81-23.21,14.48-3.66,1.59-7.35,1.82-11.17,1.92-1.14,.98-2.2,1.19-3.06-.35-8.59-2.05-16.84-.87-25.24,1.65-7.84,2.35-15.56,5.06-23.44,7.26-.59,.87-1.23,1.48-2.25,.54-1.6,.18-3.22,.32-4.82,.57-5.24,.8-9.48-.81-12.64-5.12-.63-.25-.63-.51,0-.77,2.99-1.01,6.15,.36,9.13-.68,.48-.73,1-.81,1.56-.08,9.3,.2,17.62-3.15,25.57-7.44,7.97-4.29,16.13-7.85,25.23-8.85,1.41-.16,2.96-.22,4.07-1.88-3.31-1.78-6.9-1.57-10.22-1.82-10.31-.74-19.81-3.69-28.46-9.28-7.45-4.82-15.77-6.63-24.4-7.47-5.77-.56-11.13-2.68-16.65-4.19-2.68-.74-2.45-2.5-1.74-4.36,1.23-3.16,3.96-4.79,6.92-5.89,6.43-2.4,13.58-4.02,19.77-1.72,5.78,2.16,9.46-.27,13.86-2.16,7.84-3.37,15.96-4.75,24.48-3.84,4.96,.53,9.39-1.96,14.06-2.99,10.73-2.37,21.68-3.32,32.4-5.58,.6-.13,1.24-.02,1.96,.34-12.85,5.42-27.19,6.75-39.22,14.31,.25,.29,.5,.59,.75,.89,2.93,.2,5.62-.37,8.12-2.03,5.09-3.4,10.87-1.7,16.33-1.77,9.84-.12,19.6,1.79,29.47,1.76,.39,0,1.04-.08,1.22,1.18-13.68,2.14-27.99-.52-41.26,5.32,2.31,.12,4.32,1.61,6.84,.8,13.13-4.22,26.25-3.79,39.41-.04,4.73,1.35,9.55,2.48,14.67,2.12-4.53-1.38-9.06-2.76-14.27-4.34,3.04-1.39,5.52-.86,7.89-.97,11.71-.58,21.8-4.61,31.11-12.02,38.94-30.98,64.63-70.2,75.08-119,8.38-39.11,4.96-77.33-9.09-114.77-10.11-26.92-25.23-50.64-45.16-71.17-19.88-20.47-43.21-36.1-69.64-47.04-27.41-11.34-55.97-16.5-85.54-15.57-31.47,.99-61.39,8.44-89.44,23.02-6.21,3.22-12.25,6.72-18.1,10.54-1.35,.88-2.17,1.02-3.51-.16-3.28-2.88-6.68-5.62-10.21-8.19-2.07-1.51-2.33-2.31,.01-3.87,12.61-8.38,25.8-15.65,39.76-21.53,31.36-13.22,64.05-18.65,97.99-17.29,25.94,1.04,50.94,6.39,74.87,16.36,22,9.18,42.19,21.35,60.45,36.82,24.91,21.1,44.23,46.36,58.25,75.75,9.08,19.04,15,39.07,18.58,59.82,.4,2.32,.86,4.63,1.29,6.94,.86,.41,1.07,.91,.24,1.57-.21,1.52,.02,2.99,.51,4.43,1.15,.66,1.12,1.45,.24,2.32,.55,10.24,.96,20.48,.73,30.74,.78,.58,.7,1.1-.12,1.57Z" fill="#fec7ca"/>
  <path d="M532.157,733.998c6.937-1.607,13.465-4.449,20.147-6.801,9.29-3.27,18.712-2.527,28.137-1.468,2.913,.327,5.254-.346,8.305-1.703-14.007-3.64-27.439,.157-40.809-.171l-.127-.957c3.16-.624,6.328-1.214,9.48-1.879,9.515-2.007,19.061-3.806,28.724-4.991,2.743-.336,5.277,.018,7.573,1.274,2.839,1.553,5.627,1.286,9.254,.616-12.981-7.075-27.312-6.038-40.288-10.147,4.251,0,8.504-.077,12.753,.015,10.726,.234,21.464,.317,32.016,2.726,1.133,.259,2.479-.169,3.676-.476,9.009-2.306,17.785-1.362,26.505,1.558,3.736,1.251,6.936,2.165,11.456-.076,6.292-3.121,13.854-2.738,20.9-.644,2.29,.681,4.459,1.644,5.977,3.64,2.301,3.026,1.867,4.474-1.487,6.24-8.034,4.23-16.925,5.897-25.44,8.682-4.444,1.453-8.524,3.686-12.034,6.658-9.036,7.65-19.515,11.846-31.005,14.012-2.315,.436-4.959,.51-6.77,2.637,1.356,1.58,3.187,1.19,4.645,1.156,9.307-.214,17.94,2.506,26.333,6.015,10.667,4.46,21.667,4.951,32.914,3.555,.934-.116,1.949-.9,2.692,.243,.877,1.349-.691,1.651-1.206,2.305-2.062,2.617-4.711,4.344-8.111,4.718l-5.456,.012c-9.662-.334-18.982-2.966-28.462-4.471-9.315-1.478-18.257-1.117-27.154,1.659-5.896,1.84-11.359,.376-16.896-1.544-7.449-2.584-13.829-7.306-21.073-10.283-2.105-.865-4.197-1.496-6.82-.814,2.311,3.099,6.495,2.757,8.992,5.125-1.669,2.435-3.857,.933-5.293,.549-13.238-3.542-26.325-7.588-38.873-13.192-16.034-7.161-31.064-16.02-44.992-26.711-8.25-6.333-16.163-13.085-23.394-20.57-9.393-9.724-17.918-20.139-25.584-31.326-9.037-13.187-16.652-27.079-22.329-41.98-2.658-6.975-5.939-13.742-7.491-21.141-1.984-9.461-5.151-18.664-6.02-28.38-.16-1.793-.81-3.565-.653-5.426,.37-.524,.361-1.03-.076-1.514-.171-1.965-.342-3.93-.513-5.896,.265-1.306,.425-2.605-.247-3.851-.598-15.035-.274-30.04,1.475-44.998,.417-.475,.488-.977,.121-1.514,.207-6.307,2.01-12.34,3.214-18.472,1.915-9.754,5.105-19.157,8.417-28.493,2.081-5.865,4.675-11.549,7.342-17.2,8.492-17.997,18.916-34.785,31.904-49.822,9.818-11.366,20.567-21.774,32.396-31.246,32.804-26.266,70.157-41.241,111.499-46.708,37.571-4.969,74.223-.71,109.626,12.826,30.001,11.47,56.336,28.722,79.042,51.525,31.506,31.64,51.642,69.365,61.218,112.895,.833,3.784,.023,5.727-3.509,7.048-3.145,1.176-6.165,2.703-9.187,4.184-1.703,.834-2.529,.836-3.048-1.381-1.647-7.035-3.375-14.06-5.393-20.996-8.047-27.65-21.088-52.651-39.492-74.896-19.749-23.873-43.588-42.425-71.54-55.628-22.883-10.809-46.974-17.232-72.286-19.107-30.06-2.227-59.269,1.554-87.632,11.742-24.478,8.792-46.527,21.772-65.98,39.019-38.076,33.76-61.098,75.872-68.643,126.169-5.388,35.917-1.597,71.061,12.181,104.735,19.011,46.464,50.877,81.499,95.458,104.815,6.491,3.394,13.567,2.85,20.529,2.9,3.027,.022,6.056-.288,9.261,.271l-9.452,4.541c-.417,.12-.833,.239-1.25,.359-4.21,1.064-7.979,3.234-12.318,3.974l.36,1.273c3.488-.387,6.976-.775,10.463-1.162,6.772-.948,13.615-1.555,20.297-2.94,6.599-1.368,13.87,.937,20.693-3.728-4.584,0-8.365-.251-12.102,.049-9.829,.79-19.192,4.117-28.908,5.57-.328-.094-.807-.085-.958-.302-.481-.692,.373-.615,.618-.77,.57-.36,1.237-.566,1.865-.835,.615-.227,1.23-.454,1.846-.682Zm63.518-11.106c1.471,1.164,3.027,1.071,4.587,.958,2.682-.195,5.416,.095,7.462,1.797,5.676,4.722,11.576,3.458,17.576,1.086,3.837-1.517,7.383-4.205,12.065-2.577-5.548-4.034-11.044-8.537-18.127-7.015-7.862,1.689-15.527,4.33-23.564,5.751Zm61.398-7.574c3.172,1.035,6.254,2.065,9.196,3.515,.926,.456,2.183,.366,3.279,.314,1.09-.051,1.92-.75,1.921-1.887,0-1.025-.936-1.443-1.789-1.633-4.12-.914-8.276-1.331-12.606-.309Z" fill="#050404"/>
  <path d="M863.252,772.506c-1.606,.187-3.22,.324-4.818,.57-5.241,.808-9.485-.801-12.645-5.113v-.773c2.986-1.014,6.15,.365,9.134-.677,.52-.029,1.04-.058,1.559-.088,9.3,.207,17.615-3.147,25.564-7.431,7.974-4.298,16.131-7.857,25.237-8.857,1.406-.154,2.952-.22,4.064-1.881-3.309-1.773-6.895-1.571-10.22-1.812-10.305-.748-19.808-3.695-28.457-9.285-7.45-4.815-15.772-6.626-24.404-7.467-5.767-.561-11.123-2.679-16.643-4.193-2.685-.737-2.458-2.503-1.742-4.355,1.223-3.161,3.956-4.796,6.914-5.896,6.433-2.393,13.584-4.019,19.77-1.714,5.787,2.157,9.465-.277,13.865-2.167,7.837-3.366,15.955-4.743,24.481-3.833,4.957,.529,9.384-1.962,14.061-2.994,10.723-2.367,21.673-3.32,32.402-5.583,.593-.125,1.235-.016,1.96,.342-12.85,5.426-27.196,6.753-39.229,14.31-.622,1.042-.208,1.201,.758,.889,2.924,.201,5.613-.363,8.115-2.031,5.094-3.396,10.874-1.7,16.329-1.766,9.845-.119,19.607,1.787,29.473,1.764,.388,0,1.038-.08,1.217,1.179-13.682,2.134-27.989-.52-41.26,5.318,2.308,.116,4.322,1.605,6.846,.795,13.122-4.211,26.241-3.79,39.405-.033,4.728,1.349,9.548,2.482,14.669,2.12l-14.27-4.344c3.037-1.39,5.516-.854,7.892-.971,11.71-.577,21.8-4.609,31.113-12.02,38.936-30.981,64.623-70.195,75.076-119.001,8.376-39.112,4.961-77.329-9.095-114.762-10.109-26.922-25.226-50.641-45.157-71.171-19.876-20.472-43.206-36.103-69.641-47.041-27.407-11.34-55.969-16.5-85.536-15.57-31.473,.991-61.394,8.442-89.441,23.015-6.209,3.226-12.25,6.719-18.101,10.539-1.351,.882-2.173,1.026-3.513-.153-3.272-2.879-6.68-5.624-10.203-8.19-2.074-1.511-2.336-2.309,.011-3.87,12.607-8.385,25.794-15.65,39.757-21.535,31.356-13.217,64.044-18.643,97.985-17.284,25.948,1.039,50.943,6.382,74.877,16.36,22.001,9.172,42.186,21.345,60.451,36.816,24.909,21.097,44.223,46.363,58.244,75.751,9.082,19.036,15.001,39.071,18.583,59.824,.4,2.318,.859,4.626,1.29,6.939-.266,.575-.117,1.086,.239,1.566-.215,1.522,.02,2.992,.512,4.432-.278,.809-.266,1.588,.238,2.317,.546,10.24,.958,20.484,.729,30.743l-.116,1.569c-.638,5.942-1.067,11.915-1.95,17.82-4.451,29.791-13.977,57.733-29.827,83.526-8.742,14.225-18.623,27.51-30.223,39.428-10.865,11.162-22.76,21.188-35.716,29.953-10.882,7.363-22.409,13.566-34.225,19.149-5.81,2.745-11.821,5.439-18.469,6.796-.338-2.714,2.1-2.909,3.51-3.895,1.401-.98,3.309-1.194,4.649-3.105-2.981-.289-5.242-.151-7.715,1.539-7.525,5.141-14.727,10.808-23.212,14.482-3.656,1.583-7.35,1.822-11.162,1.917-1.021-.118-2.042-.236-3.063-.354-8.589-2.049-16.837-.862-25.242,1.656-7.838,2.348-15.559,5.064-23.44,7.259-.749,.179-1.497,.357-2.246,.536Zm124.557-47.885c.746,.23,1.926,.928,1.972-.328,.04-1.094-1.264-.651-2.06-.552-2.044-.497-4.087-1.004-6.134-1.489-1.253-.296-1.901,.022-1.365,1.441-1.367,.031-2.734,.089-4.1,.087-9.328-.011-18.499-2.551-27.876-1.737-3.334,.289-6.736,.152-10.704,1.327,1.106,.523,1.526,.711,1.936,.918,4.594,2.317,9.301,.365,13.941,.295,8.956-.135,17.894,1.038,26.851,.291,2.513-.085,5.026-.169,7.538-.254Zm-117.995,.139c5.24-2.15,9.674,.769,14.405,1.678,5.09,.978,10.123,1.247,14.331-2.967,2.429-2.433,5.556-3.716,9.151-3.556,1.237,.055,2.474-.205,3.523-1.104-1.121-1.097-2.543-.934-3.859-.97-5.355-.147-10.709-.338-15.911-1.758-9.326-2.547-15.304,3.237-21.641,8.678Zm-20.452-6.297c-3.927-.662-7.592,.157-11.193,1.251-1.316,.4-3.431,.664-2.816,2.685,.71,2.336,2.98,1.783,4.408,1.004,3.135-1.712,6.218-3.497,9.601-4.94Z" fill="#040303"/>
  <path d="M753.034,114.936c3.486,.214,6.972,.429,10.458,.643,.745,.488,1.526,.427,2.322,.155,10.379,1.642,20.747,3.272,31.01,5.637,15.059,3.471,29.47,8.715,43.366,15.316,26.956,12.805,50.456,30.378,70.531,52.461,13.111,14.423,24.052,30.351,33.017,47.691,8.702,16.832,15.144,34.461,19.423,52.871,3.092,13.301,4.961,26.806,5.635,40.467,.133,2.695-.035,3.33-2.887,1.817-3.828-2.031-8.044-3.365-12.164-4.795-1.964-.682-2.932-1.445-3.141-3.82-2.192-24.95-8.402-48.843-19.048-71.575-10.871-23.213-25.577-43.637-44.073-61.348-22.704-21.74-48.998-37.602-78.816-47.479-15.547-5.15-31.531-8.36-47.912-9.637-24.906-1.942-49.383,.28-73.436,6.995-32.176,8.982-60.619,24.702-85.129,47.446-25.743,23.889-44.247,52.512-55.717,85.666-5.694,16.46-9.005,33.447-10.288,50.808-.155,2.098-.826,3.095-2.76,3.755-4.168,1.422-8.383,2.803-12.349,4.685-3.249,1.542-3.204-.036-3.042-2.375,.335-4.852,.628-9.707,.938-14.561,.394-.734,.455-1.485,.113-2.256,.492-8.672,2.791-17.005,4.532-25.462,3.016-14.655,8.142-28.565,14.375-42.04,8.822-19.075,20.116-36.612,33.925-52.557,7.082-8.178,14.582-15.913,22.616-23.087,13.494-12.049,28.463-22.13,44.547-30.335,21.763-11.103,44.747-18.735,69.021-22.204,2.448-.35,4.866-.908,7.298-1.37,.568,.274,1.096,.163,1.601-.166,1.992-.193,3.984-.386,5.976-.578,.57,.472,1.061,.273,1.521-.18l26.252-.72c.742,.386,1.495,.579,2.285,.132Z" fill="#040303"/>
  <path d="M541.017,722.614c-2.356,.871-4.296,2.103-6.313,2.245-8.625,.608-16.996,.364-25.024-4.092-38.639-21.45-67.868-51.724-86.542-91.845-14.634-31.443-20.232-64.564-17.451-99.162,3.065-38.14,15.834-72.668,38.269-103.581,12.775-17.603,28.063-32.723,45.713-45.544,33.192-24.111,70.348-36.708,111.151-38.546,42.656-1.922,82.112,8.846,118.084,31.74,37.835,24.081,64.744,57.36,81.216,99.018,3.021,7.64,5.532,15.513,7.453,23.535,.46,1.92,.837,3.859,1.359,6.282-4.033-1.14-7.586-2.474-11.397-2.657-1.329-.064-1.561-1.414-1.848-2.521-5.881-22.72-15.697-43.615-29.295-62.718-12.929-18.163-28.519-33.624-46.831-46.424-21.679-15.153-45.401-25.528-71.258-30.785-34.086-6.93-67.7-4.965-100.761,6.177-31.7,10.683-58.678,28.533-81.02,53.283-26.839,29.732-43.051,64.507-48.202,104.314-3.627,28.029-1.474,55.585,7.507,82.434,12.081,36.118,33.011,66.073,63.142,89.522,15.473,12.042,32.336,21.555,50.72,28.372,.311,.115,.562,.396,1.327,.954Z" fill="#050404"/>
  <path d="M667.851,527.915c4.964-1.671,10.05-3.051,14.867-5.072,10.797-4.53,21.865-4.356,33.102-2.592,1.819,.286,2.486,.126,6.826-1.969-13.819-3.702-27.475,.15-41.095-.441,1.926-1.79,4.386-1.402,6.529-1.819,10.49-2.043,20.925-4.414,31.574-5.631,2.468-.282,4.646-.264,6.881,.8,3.083,1.469,6.264,2.417,9.86,.777-13.072-7.152-28.062-5.728-41.857-9.721,.311-.43,.454-.785,.578-.778,14.435,.767,28.949,.456,43.272,2.668,3.049,.471,5.853,.522,8.769-.128,9.239-2.06,18.089-.195,26.85,2.638,2.746,.888,4.927,.713,8.056-.492,8.219-3.167,17.045-3.543,25.419,.587,1.268,.626,2.208,1.669,2.918,2.848,1.329,2.207,1.615,3.938-1.454,5.268-6.421,2.783-12.831,5.526-19.707,6.985-6.202,1.316-12,3.689-16.865,7.714-9.776,8.089-20.898,12.993-33.325,15.169-1.713,.3-3.376,.896-5.047,1.407-.321,.098-.569,.437-.873,.683,.623,1.437,1.883,1.387,3.037,1.356,9.942-.266,19.253,2.434,28.337,6.087,10.476,4.212,21.263,5.099,32.352,3.454,.87-.129,2.007-1.049,2.69,.162,.603,1.069-.362,1.891-.974,2.618-2.17,2.574-4.804,4.176-8.324,4.384-9.357,.553-18.342-1.676-27.333-3.63-10.502-2.282-20.797-3.408-31.278,.448-7.601,2.797-15.047,.706-22.08-2.646-5.404-2.576-10.678-5.423-16.008-8.153-.667-.342-1.298-.76-1.985-1.053-2.151-.916-5.536-2.612-6.358-.572-.947,2.348,2.972,2.329,4.725,3.415,1.205,.746,2.911,.752,3.812,2.861-6.153-.331-11.645-2.185-17.119-3.839-22.603-6.83-43.653-16.898-63.134-30.313-20.353-14.015-37.973-30.852-52.666-50.666-19.155-25.833-31.957-54.574-38.557-86.081-.596-2.847-.417-4.609,2.634-5.758,3.607-1.359,7.113-3.045,10.512-4.871,2.428-1.304,2.91-.364,3.288,1.855,3.017,17.705,8.551,34.627,16.298,50.806,12.291,25.669,29.092,47.893,50.796,66.411,10.577,9.025,22.039,16.666,33.903,23.869,8.005,4.861,16.463,6.144,25.459,5.834,3.2-.11,6.397-.319,10.314-.52-2.6,2.776-6.107,2.527-8.293,4.572l-1.552,.643c-.372,.166-.744,.331-1.117,.497-1.317-.105-2.318,.534-3.236,1.372-2.905,.922-5.809,1.843-8.713,2.765,.061,.25,.122,.501,.183,.751,3.67-.384,7.341-.769,11.011-1.153,6.742-.355,13.409-1.441,19.992-2.769,6.5-1.311,13.631,.859,19.582-3.716-4.159-.247-8.302-.187-12.419,.174-9.475,.83-18.418,4.479-27.888,5.382-.039-.442-.079-.884-.118-1.325,.554-.17,1.109-.341,1.663-.511,.594-.191,1.188-.381,1.782-.572,.501-.157,1.002-.313,1.503-.47Zm103.471-9.014l.358-1.024c-2.197-1.283-4.324-2.713-6.608-3.817-3.587-1.734-7.315-3.853-11.406-2.704-7.789,2.189-15.665,3.952-23.562,5.661-.088,.019-.098,.395-.196,.832,1.401,.534,2.866,.381,4.313,.283,2.692-.183,5.416,.086,7.506,1.769,6.204,4.999,12.479,3.706,18.872,.643,3.383-1.621,6.774-3.14,10.723-1.643Zm19.805-9.377c3.5,1.33,6.938,2.508,10.279,3.976,.712,.313,1.725,.135,2.546-.051,.861-.195,1.582-.76,1.611-1.79,.025-.898-.628-1.371-1.336-1.579-4.282-1.259-8.636-1.404-13.1-.556Z" fill="#050404"/>
  <path d="M965.326,711.323c7.537-4.118,14.752-8.276,21.608-13.047,16.104-11.207,30.157-24.519,42.244-39.985,14.78-18.911,25.606-39.817,32.209-62.873,12.562-43.869,9.103-86.767-9.034-128.37-14.173-32.511-36.01-59.029-65.112-79.517-32.146-22.631-67.873-34.533-107.084-35.34-37.687-.775-72.827,8.615-104.974,28.544-2.113,1.31-3.664,1.8-5.314-.476-.647-.892-1.644-1.523-2.429-2.324-3.803-3.878-3.818-3.919,.978-6.87,35.676-21.95,74.501-32.004,116.304-30.432,39.011,1.467,74.652,13.541,106.763,35.543,31.925,21.875,55.825,50.596,71.531,86.114,13.87,31.368,19.596,64.133,16.73,98.214-3.34,39.703-17.61,75.236-42.468,106.477-12.776,16.056-27.559,29.997-44.679,41.215-6.922,4.536-15.221,5.737-23.622,4.101-1.063-.207-2.258,.293-3.646-.973Z" fill="#050404"/>
  <path d="M742.74,136.154c26.352,.132,51.277,4.546,75.198,14.069,34.613,13.781,63.441,35.341,86.524,64.612,21.972,27.862,35.225,59.476,40.905,94.375,.701,4.308,1.055,8.671,1.631,13.001,.271,2.033-.127,2.238-2.364,2.029-8.103-.756-9.904-5.51-10.982-12.875-5.451-37.248-20.834-70.119-45.83-98.296-24.064-27.127-53.505-46.199-88.199-56.822-24.603-7.533-49.755-9.979-75.459-7.358-28.542,2.91-55.105,11.627-79.662,26.28-22.903,13.667-42.072,31.472-57.621,53.225-16.049,22.453-26.832,47.139-32.336,74.138-1.093,5.362-1.786,10.815-2.447,16.252-.302,2.487-.886,4.227-3.768,4.605-2.08,.272-4.14,.935-6.121,1.664-2.143,.79-2.646,.163-2.464-1.979,1.488-17.5,5.183-34.526,11.09-51.05,10.992-30.752,28.44-57.423,52.053-79.867,22.469-21.356,48.56-36.823,78.246-46.207,20.294-6.415,41.018-9.612,61.604-9.797Z" fill="#050404"/>
  <path d="M850.375,763.448c-8.69-.05-16.895-2.894-25.348-4.181-14.708-2.24-28.479-7.646-41.998-13.411-8.412-3.587-16.598-7.906-24.481-12.825-5.966-3.723-12.147-7.242-17.665-11.515-12.58-9.742-24.59-20.159-35.167-32.182-9.079-10.32-17.325-21.199-24.428-32.941-13.716-22.675-22.776-47.099-27.577-73.165-1.891-10.266-2.574-20.624-3.347-30.988-.31-4.157,.173-4.425,3.9-2.955,3.931,1.55,7.864,3.111,11.864,4.467,1.93,.654,2.78,1.602,2.861,3.723,.72,18.879,4.8,37.108,11.301,54.776,8.192,22.264,20.175,42.288,35.733,60.27,25.083,28.99,56.116,48.927,92.264,60.98,18.535,6.181,37.697,9.483,57.292,10.149,6.9,.235,13.995-.185,20.345,3.521,1.294,.755,3,1.271,3.069,2.937,.061,1.481-1.457,2.157-2.618,2.903-10.975,7.046-22.998,10.404-36,10.435Z" fill="#040303"/>
  <path d="M787.192,554.711c-9.972-.046-19.625-1.719-28.589-6.295-4.261-2.175-4.3-3.054-.28-5.62,3.781-2.413,7.761-4.204,12.384-4.835,38.272-5.224,73.119-19.019,103.511-43.02,37.545-29.65,62.119-67.745,72.788-114.577,.617-2.71-.122-6.768,2.303-7.703,1.811-.698,4.97,1.697,7.372,3.005,10.596,5.769,9.146,1.841,6.399,13.939-4.924,21.685-13.378,41.992-24.864,61.038-13.282,22.023-29.862,41.187-49.693,57.558-27.126,22.392-57.952,37.294-92.059,45.574-1.576,.383-3.174,.738-4.783,.903-1.482,.153-2.991,.032-4.488,.032Z" fill="#040303"/>
  <path d="M834.856,547.223c-.305,33.201-7.875,64.424-22.491,93.95-9.925,20.049-22.84,38.009-37.978,54.459-2.618,2.845-4.343,2.734-6.972,.507-2.945-2.495-6.026-4.854-9.21-7.037-2.339-1.604-1.887-2.63-.084-4.391,14.294-13.966,26.129-29.803,35.615-47.395,13.513-25.059,21.386-51.74,22.93-80.206,.151-2.775,1.048-4.181,3.761-5.014,4.635-1.423,9.137-3.278,13.699-4.943,.105-.038,.246,.02,.73,.07Z" fill="#040303"/>
  <path d="M862.289,740.3c-21.426-1.31-42.204-5.597-62.304-13.227-19.121-7.258-36.802-17.089-52.898-29.65-20.627-16.097-37.629-35.391-50.633-58.203-11.244-19.724-18.613-40.767-22.37-63.098-.945-5.616-1.376-11.319-2.048-16.982-.306-2.578,.514-3.236,3.158-2.461,9.094,2.668,8.826,2.613,9.979,12.056,1.996,16.337,6.107,32.168,12.335,47.442,5.523,13.545,12.46,26.289,20.892,38.243,12.366,17.53,27.237,32.548,44.651,45.077,19.079,13.727,39.972,23.665,62.648,29.73,9.665,2.585,19.454,4.791,29.51,5.411,3.78,.233,7.338,1.334,10.638,3.201,.705,.399,1.902,.6,1.673,1.674-.243,1.136-1.42,.722-2.232,.772-.996,.061-1.998,.015-3,.014Z" fill="#070606"/>
  <path d="M675.08,517.308c-11.47,3.748-22.252,2.908-32.877-3.122-22.95-13.026-43.013-29.415-59.573-49.98-17.03-21.148-29.21-44.822-36.426-71.017-1.721-6.248-3.267-12.538-4.387-18.933-.337-1.925-.013-2.908,1.944-3.648,8.811-3.33,8.696-3.369,10.523,5.755,6.823,34.074,21.949,63.947,45.407,89.615,20.658,22.605,45.381,39.156,73.972,50.008,.345,.131,.713,.243,1.007,.452,.167,.119,.207,.418,.409,.872Z" fill="#060404"/>
  <path d="M655.141,499.135c3.658-18.516,9.923-36.742,18.532-54.163,9.517-19.258,21.593-36.758,35.948-52.735,2.058-2.291,3.488-2.428,5.757-.585,2.902,2.358,5.953,4.547,9.053,6.641,2.014,1.36,1.769,2.318,.216,3.969-25.985,27.62-43.053,59.996-51.468,96.95-.554,2.431-.967,4.894-1.453,7.341-.34,1.708-.89,2.766-2.992,1.705-3.997-2.017-8.085-3.854-12.152-5.73-1.264-.583-2.147-1.301-1.44-3.393Z" fill="#040303"/>
  <path d="M737.837,725.615c-4.173,4.565-9.795,6.733-14.78,9.794-7.83,4.809-16.091,8.905-24.616,12.341-10.171,4.099-20.459,7.929-31.178,10.424-4.28,.997-8.523,2.286-12.86,2.864-4.649,.619-9.274-.73-13.824-1.541-5.848-1.042-11.866-1.882-16.839-5.733-2.967-2.298-3.119-3.127,.01-5.104,4.446-2.808,9.159-4.759,14.529-5.442,28.839-3.666,55.709-13.137,80.605-28.129,2.386-1.437,3.859-2.022,6.274,.32,3.82,3.704,8.29,6.737,12.678,10.206Z" fill="#040303"/>
  <path d="M774.866,532.954c4.317-3.968,9.448-5.572,14.878-6.906,26.652-6.545,50.979-18.087,72.505-35.149,39.238-31.099,63.094-71.406,71.422-120.813,.435-2.579,1.103-3.384,3.797-2.412,7.748,2.797,7.902,2.724,6.213,10.701-6.313,29.808-19.102,56.55-38.098,80.375-17.44,21.874-38.485,39.409-63.099,52.628-20.517,11.018-42.334,18.299-65.328,22.029-.487,.079-.979,.186-1.467,.179-.194-.003-.383-.282-.822-.632Z" fill="#080606"/>
  <path d="M813.189,558.337c-2.593,33.368-12.927,64.054-31.432,91.988-7.613,11.492-16.314,22.055-26.043,31.785-.862,.862-1.658,2.832-3.151,1.981-1.792-1.022-3.338-2.616-4.687-4.217-.704-.836,.61-1.436,1.165-2.025,12.91-13.708,23.75-28.879,32.264-45.686,9.888-19.522,16.422-40.098,18.942-61.856,.513-4.431,1.986-8.355,4.025-12.183,.559-1.049,6.962-3.535,8.027-3.075,1.642,.709,.646,2.18,.89,3.288Z" fill="#070505"/>
  <path d="M686.212,500.625c1.371,.629,2.322,1.243,1.731,3.031-.699,2.113-1.196,4.366-1.313,6.582-.174,3.302-1.977,3.522-4.496,2.913-.121-.029-.248-.031-.37-.055-6.925-1.379-7.341-1.917-5.968-8.731,7.657-37.999,25.094-70.961,51.221-99.462,1.724-1.88,2.996-2.651,4.996-.307,1.688,1.979,4.932,3.342,5.411,5.449,.524,2.308-2.868,3.903-4.543,5.808-20.782,23.626-35.589,50.436-43.346,81.026-.724,2.856-.762,2.847-3.321,3.745Z" fill="#050404"/>
  <path d="M640.494,739.266c3.366-3.992,7.086-5.681,11.066-6.574,21.874-4.907,42.302-13.252,61.209-25.31,1.626-1.037,6.254,1.222,6.236,3.058-.01,1.039-1.109,1.232-1.805,1.643-19.899,11.748-41.06,20.29-63.711,25.054-3.991,.84-7.946,1.854-12.995,2.127Z" fill="#0c0a0a"/>
  <path d="M650.907,770.748l5.456-.012c-1.816,1.311-3.634,1.316-5.456,.012Z" fill="#c79c9e"/>
  <path d="M384.03,560.984c.672,1.246,.512,2.545,.247,3.851-1.314-1.205-1.065-2.51-.247-3.851Z" fill="#c79c9e"/>
  <path d="M914.181,763.055c1.021,.118,2.042,.236,3.063,.354-1.148,.983-2.207,1.192-3.063-.354Z" fill="#daabad"/>
  <path d="M1100.971,523.488c-.504-.729-.515-1.508-.238-2.317,1.149,.662,1.116,1.446,.238,2.317Z" fill="#daabad"/>
  <path d="M753.034,114.936c-.79,.447-1.543,.254-2.285-.132,.812-.83,1.575-.809,2.285,.132Z" fill="#daabad"/>
  <path d="M519.085,313.505c.342,.771,.282,1.522-.113,2.256-.813-.795-.786-1.547,.113-2.256Z" fill="#daabad"/>
  <path d="M765.815,115.735c-.796,.272-1.577,.332-2.322-.155,.839-.923,1.618-.945,2.322,.155Z" fill="#daabad"/>
  <path d="M863.252,772.506c.749-.179,1.497-.357,2.246-.536-.585,.867-1.23,1.48-2.246,.536Z" fill="#daabad"/>
  <path d="M724.497,115.524c-.46,.453-.951,.652-1.521,.18,.434-.68,.939-.751,1.521-.18Z" fill="#c79c9e"/>
  <path d="M384.789,570.73c.436,.484,.446,.99,.076,1.514-.656-.473-.685-.978-.076-1.514Z" fill="#c79c9e"/>
  <path d="M1100.221,516.739c-.356-.48-.505-.991-.239-1.566,.857,.403,1.069,.905,.239,1.566Z" fill="#daabad"/>
  <path d="M856.484,766.425c-.52,.029-1.04,.058-1.559,.088,.481-.729,.997-.811,1.559-.088Z" fill="#daabad"/>
  <path d="M385.626,514.472c.367,.537,.296,1.039-.121,1.514-.611-.557-.536-1.059,.121-1.514Z" fill="#c79c9e"/>
  <path d="M717,116.283c-.505,.329-1.033,.44-1.601,.166,.463-.735,.983-.926,1.601-.166Z" fill="#c79c9e"/>
  <path d="M1101.584,555.799l.116-1.569c.785,.584,.7,1.103-.116,1.569Z" fill="#daabad"/>
  <path d="M845.789,767.19v.773c-.624-.257-.626-.514,0-.773Z" fill="#daabad"/>
  <path d="M595.675,722.892c8.037-1.421,15.702-4.062,23.564-5.751,7.083-1.522,12.579,2.981,18.127,7.015-4.682-1.628-8.228,1.06-12.065,2.577-6.001,2.371-11.9,3.636-17.576-1.086-2.046-1.702-4.78-1.991-7.462-1.797-1.56,.113-3.116,.206-4.587-.958Z" fill="#f4bfc2"/>
  <path d="M528.786,736.586c9.717-1.453,19.079-4.78,28.908-5.57,3.737-.3,7.518-.049,12.102-.049-6.823,4.665-14.094,2.359-20.693,3.728-6.682,1.385-13.525,1.992-20.297,2.94l-.02-1.049Z" fill="#daabad"/>
  <path d="M657.073,715.318c4.331-1.021,8.487-.605,12.606,.309,.854,.189,1.79,.608,1.789,1.633,0,1.137-.831,1.836-1.921,1.887-1.096,.052-2.353,.142-3.279-.314-2.942-1.45-6.024-2.48-9.196-3.515Z" fill="#daabad"/>
  <path d="M528.786,736.586l.02,1.049c-3.488,.387-6.975,.775-10.463,1.162l-.36-1.273c4.339-.74,8.109-2.91,12.318-3.974l.01,1.13c-.628,.268-1.296,.474-1.865,.835-.245,.155-1.099,.077-.618,.77,.151,.217,.629,.208,.958,.302Z" fill="#c79c9e"/>
  <path d="M530.311,734.679l-.01-1.13c.417-.12,.833-.239,1.25-.359,.202,.269,.404,.538,.606,.807-.615,.227-1.23,.455-1.846,.682Z" fill="#fec7ca"/>
  <path d="M869.814,724.76c6.337-5.44,12.315-11.225,21.641-8.678,5.202,1.421,10.556,1.611,15.911,1.758,1.317,.036,2.739-.126,3.859,.97-1.049,.899-2.286,1.159-3.523,1.104-3.595-.16-6.722,1.123-9.151,3.556-4.208,4.214-9.241,3.945-14.331,2.967-4.731-.909-9.166-3.828-14.405-1.678Z" fill="#f4bfc2"/>
  <path d="M980.271,724.875c-8.958,.747-17.895-.426-26.851-.291-4.64,.07-9.347,2.022-13.941-.295-.41-.207-.83-.395-1.936-.918,3.967-1.174,7.369-1.037,10.704-1.327,9.377-.814,18.549,1.725,27.876,1.737,1.367,.002,2.734-.057,4.1-.087,.016,.394,.032,.788,.048,1.181Z" fill="#daabad"/>
  <path d="M849.363,718.462c-3.383,1.443-6.466,3.228-9.601,4.94-1.428,.78-3.698,1.332-4.408-1.004-.614-2.021,1.5-2.285,2.816-2.685,3.601-1.094,7.266-1.913,11.193-1.251Z" fill="#daabad"/>
  <path d="M980.271,724.875c-.016-.394-.032-.788-.048-1.181-.536-1.419,.112-1.737,1.365-1.441,2.048,.484,4.09,.991,6.134,1.489,.029,.293,.058,.586,.088,.88-2.513,.085-5.026,.169-7.538,.254Z" fill="#fec7ca"/>
  <path d="M987.809,724.621c-.029-.293-.058-.586-.088-.88,.796-.099,2.1-.542,2.06,.552-.046,1.256-1.226,.558-1.972,.328Z" fill="#daabad"/>
  <path d="M904.864,714.496c-.966,.312-1.38,.153-.758-.889,.252,.296,.505,.593,.758,.889Z" fill="#fec7ca"/>
  <path d="M771.322,518.901c-3.949-1.496-7.34,.022-10.723,1.643-6.393,3.063-12.668,4.356-18.872-.643-2.089-1.683-4.813-1.952-7.506-1.769-1.446,.098-2.911,.251-4.313-.283,.097-.438,.108-.813,.196-.832,7.897-1.708,15.772-3.472,23.562-5.661,4.091-1.149,7.819,.97,11.406,2.704,2.284,1.104,4.411,2.533,6.608,3.817l-.358,1.024Z" fill="#f4bfc2"/>
  <path d="M663.021,530.793c9.47-.903,18.413-4.552,27.888-5.382,4.117-.361,8.26-.421,12.419-.174-5.951,4.575-13.083,2.405-19.582,3.716-6.583,1.328-13.25,2.414-19.992,2.769-.244-.31-.488-.619-.731-.929Z" fill="#daabad"/>
  <path d="M791.127,509.524c4.465-.848,8.818-.703,13.1,.556,.708,.208,1.361,.681,1.336,1.579-.029,1.03-.75,1.595-1.611,1.79-.821,.186-1.834,.364-2.546,.051-3.34-1.468-6.778-2.646-10.279-3.976Z" fill="#daabad"/>
  <path d="M663.021,530.793c.244,.31,.487,.619,.731,.929-3.67,.384-7.341,.769-11.011,1.153-.061-.25-.122-.501-.183-.751,2.905-.922,5.809-1.843,8.714-2.764l1.631,.108c.039,.442,.079,.883,.118,1.325Z" fill="#fec7ca"/>
  <path d="M662.903,529.468l-1.631-.108c.917-.837,1.919-1.477,3.236-1.372,.019,.323,.039,.646,.058,.969-.554,.17-1.109,.341-1.663,.511Z" fill="#daabad"/>
  <path d="M664.566,528.956c-.019-.323-.039-.646-.058-.969,.372-.166,.744-.331,1.117-.497,.241,.298,.482,.596,.723,.894-.594,.191-1.188,.381-1.782,.572Z" fill="#fec7ca"/>
  <path d="M665.625,527.491l1.552-.643c.225,.356,.45,.711,.675,1.067-.501,.157-1.002,.313-1.503,.47-.241-.298-.482-.596-.723-.894Z" fill="#fec7ca"/>
</svg>