<?xml version="1.0" encoding="UTF-8"?>
<svg id="b" data-name="레이어 2" xmlns="http://www.w3.org/2000/svg" width="40.684" height="25.817" viewBox="0 0 40.684 25.817">
  <g id="c" data-name="레이어 1">
    <g>
      <path d="M20.342,23.17l-1.94,1.94-2.828-2.828,1.94-1.94-.889-.889-5.657,5.657-2.828-2.828,5.657-5.657-.889-.889L3.536,25.11l-2.828-2.828,9.373-9.374L.707,3.535,3.536.707l9.373,9.373.889-.888-5.657-5.657,2.828-2.828,5.657,5.657.889-.889-1.94-1.94,2.828-2.828,1.94,1.94,1.939-1.94,2.828,2.828-1.939,1.94.888.889L29.715.707l2.828,2.828-5.657,5.657.889.888L37.149.707l2.828,2.828-9.374,9.373,9.374,9.374-2.828,2.828-9.374-9.374-.889.889,5.657,5.657-2.828,2.828-5.657-5.657-.888.889,1.939,1.94-2.828,2.828-1.939-1.94ZM20.342,17.514l.888-.889-.888-.889-.889.889.889.889ZM16.625,13.797l.889-.889-.889-.888-.889.888.889.889ZM24.058,13.797l.889-.889-.889-.888-.888.888.888.889ZM20.342,10.08l.888-.888-.888-.889-.889.889.889.888Z" fill="#f7f7f9" stroke-width="0"/>
      <path d="M37.149,1.414l2.121,2.121-9.374,9.373,9.374,9.373-2.121,2.121-9.374-9.373-1.596,1.596,5.657,5.657-2.121,2.121-5.657-5.657-1.595,1.595,1.94,1.94-2.121,2.121-1.94-1.94-1.94,1.94-2.121-2.121,1.94-1.94-1.595-1.595-5.657,5.657-2.121-2.121,5.657-5.657-1.595-1.595L3.535,24.403l-2.121-2.121,9.373-9.373L1.414,3.535,3.535,1.414l9.373,9.373,1.595-1.595-5.657-5.657,2.121-2.121,5.657,5.657,1.595-1.595-1.94-1.94,2.121-2.121,1.94,1.94,1.94-1.94,2.121,2.121-1.94,1.94,1.595,1.595,5.657-5.657,2.121,2.121-5.657,5.657,1.596,1.596L37.149,1.414M20.342,10.787l1.595-1.596-1.595-1.595-1.595,1.596,1.595,1.595M24.058,14.504l1.596-1.596-1.596-1.596-1.595,1.596,1.595,1.596M16.625,14.504l1.595-1.595-1.595-1.595-1.595,1.595,1.595,1.595M20.342,18.221l1.595-1.595-1.595-1.596-1.595,1.595,1.595,1.596M29.715,0l-.707.707-4.95,4.95-.181-.181,1.233-1.233.707-.707-.707-.707-2.121-2.121-.707-.707-.707.707-1.233,1.233-1.233-1.233-.707-.707-.707.707-2.121,2.121-.707.707.707.707,1.233,1.233-.181.181L11.676.707l-.707-.707-.707.707-2.121,2.121-.707.707.707.707,4.95,4.95-.181.181L4.242.707l-.707-.707-.707.707L.707,2.828l-.707.707.707.707,8.666,8.666L.707,21.575l-.707.707.707.707,2.121,2.121.707.707.707-.707,8.666-8.666.181.181-4.95,4.95-.707.707.707.707,2.121,2.121.707.707.707-.707,4.95-4.95.181.181-1.233,1.233-.707.707.707.707,2.121,2.121.707.707.707-.707,1.233-1.233,1.233,1.233.707.707.707-.707,2.121-2.121.707-.707-.707-.707-1.233-1.233.181-.181,4.95,4.95.707.707.707-.707,2.121-2.121.707-.707-.707-.707-4.95-4.95.181-.181,8.666,8.666.707.707.707-.707,2.121-2.121.707-.707-.707-.707-8.667-8.666,8.667-8.666.707-.707-.707-.707-2.121-2.121-.707-.707-.707.707-8.666,8.666-.181-.181,4.95-4.95.707-.707-.707-.707-2.121-2.121-.707-.707h0ZM20.16,9.192l.181-.181.181.181-.181.181-.181-.181h0ZM23.877,12.909l.181-.181.181.181-.181.181-.181-.181h0ZM16.444,12.909l.181-.181.181.181-.181.181-.181-.181h0ZM20.16,16.625l.181-.181.181.181-.181.181-.181-.181h0Z" stroke-width="0"/>
    </g>
  </g>
</svg>