<?xml version="1.0" encoding="UTF-8"?>
<svg id="b" data-name="레이어 2" xmlns="http://www.w3.org/2000/svg" width="38.552" height="23.685" xmlns:xlink="http://www.w3.org/1999/xlink" viewBox="0 0 38.552 23.685">
  <defs>
    <linearGradient id="d" data-name="무제 그라디언트 65" x1="19.276" y1=".448" x2="19.276" y2="22.286" gradientUnits="userSpaceOnUse">
      <stop offset="0" stop-color="#ddd"/>
      <stop offset=".496" stop-color="#fff"/>
      <stop offset=".5" stop-color="#aaa"/>
      <stop offset="1" stop-color="#eee"/>
    </linearGradient>
  </defs>
  <g id="c" data-name="레이어 1">
    <g>
      <path d="M26.709,23.185c-1.254,0-2.503-.215-3.717-.639-1.214.424-2.463.639-3.717.639s-2.502-.215-3.716-.639c-1.215.424-2.464.639-3.717.639C5.588,23.185.5,18.097.5,11.842S5.588.5,11.843.5c1.253,0,2.502.215,3.717.639,1.214-.424,2.463-.639,3.716-.639s2.503.215,3.717.639c1.214-.424,2.463-.639,3.717-.639,6.255,0,11.343,5.088,11.343,11.342s-5.088,11.343-11.343,11.343ZM28.004,4.616c1.694,2.031,2.614,4.552,2.614,7.226s-.92,5.195-2.615,7.227c3.432-.614,6.049-3.626,6.049-7.227s-2.616-6.611-6.048-7.226ZM10.548,4.616c-3.432.614-6.048,3.626-6.048,7.226s2.616,6.612,6.048,7.227c-1.695-2.031-2.615-4.553-2.615-7.227s.92-5.194,2.615-7.226ZM21.781,17.28c.374.339.779.638,1.212.893,2.243-1.321,3.626-3.722,3.626-6.33s-1.383-5.008-3.626-6.329c-.433.255-.838.554-1.211.892.919,1.673,1.403,3.544,1.403,5.438s-.484,3.766-1.404,5.438ZM15.559,5.513c-2.243,1.321-3.626,3.722-3.626,6.329s1.383,5.009,3.626,6.33c.434-.255.84-.555,1.212-.893-.92-1.674-1.404-3.545-1.404-5.438s.484-3.764,1.404-5.437c-.374-.339-.779-.638-1.212-.893Z" fill="url(#d)" stroke-width="0"/>
      <path d="M26.709,1c5.979,0,10.843,4.864,10.843,10.842s-4.864,10.843-10.843,10.843c-1.307,0-2.555-.244-3.716-.67-1.161.426-2.41.67-3.717.67s-2.555-.244-3.717-.67c-1.161.426-2.409.67-3.717.67-5.979,0-10.843-4.864-10.843-10.843S5.864,1,11.843,1c1.307,0,2.555.244,3.717.67,1.161-.426,2.409-.67,3.717-.67s2.555.244,3.717.67c1.161-.426,2.409-.67,3.716-.67M26.744,19.683c4.309-.019,7.808-3.528,7.808-7.841s-3.499-7.821-7.808-7.841c2.074,1.976,3.375,4.757,3.375,7.841s-1.301,5.865-3.375,7.841M11.808,19.683c-2.074-1.976-3.375-4.757-3.375-7.841s1.301-5.864,3.375-7.841c-4.308.019-7.808,3.528-7.808,7.841s3.499,7.822,7.808,7.841M22.993,18.746c2.454-1.327,4.126-3.923,4.126-6.904s-1.672-5.577-4.126-6.903c-.68.367-1.299.832-1.84,1.375.966,1.621,1.532,3.508,1.532,5.528s-.566,3.907-1.532,5.528c.541.543,1.16,1.008,1.84,1.375M15.559,18.746c.68-.367,1.299-.832,1.84-1.375-.966-1.621-1.532-3.508-1.532-5.528s.566-3.907,1.532-5.528c-.541-.543-1.16-1.008-1.84-1.375-2.455,1.327-4.126,3.923-4.126,6.903s1.672,5.577,4.126,6.904M19.276,14.325c.262-.781.409-1.614.409-2.482s-.147-1.701-.409-2.482c-.262.781-.409,1.614-.409,2.482s.147,1.701.409,2.482M26.709,0c-1.253,0-2.501.205-3.716.611-1.216-.405-2.464-.611-3.717-.611s-2.501.205-3.717.611c-1.215-.405-2.464-.611-3.717-.611C5.313,0,0,5.312,0,11.842s5.313,11.843,11.843,11.843c1.253,0,2.501-.205,3.717-.611,1.215.405,2.464.611,3.717.611s2.501-.205,3.717-.611c1.215.405,2.464.611,3.716.611,6.53,0,11.843-5.313,11.843-11.843S33.239,0,26.709,0h0ZM29.271,18.184c1.204-1.878,1.847-4.057,1.847-6.342s-.643-4.463-1.847-6.341c2.506,1.018,4.28,3.48,4.28,6.341s-1.774,5.324-4.281,6.342h0ZM9.281,18.184c-2.506-1.018-4.281-3.481-4.281-6.342s1.774-5.324,4.28-6.341c-1.204,1.878-1.847,4.057-1.847,6.341s.643,4.464,1.847,6.342h0ZM22.41,6.525c.187-.152.382-.293.583-.424,1.941,1.259,3.126,3.411,3.126,5.741s-1.185,4.483-3.126,5.742c-.202-.131-.396-.273-.583-.424.837-1.653,1.276-3.475,1.276-5.318s-.439-3.665-1.275-5.317h0ZM15.559,17.584c-1.941-1.259-3.126-3.412-3.126-5.742s1.185-4.483,3.126-5.741c.202.131.396.272.583.424-.836,1.653-1.275,3.475-1.275,5.317s.439,3.665,1.276,5.318c-.187.152-.382.293-.583.424h0Z" stroke-width="0"/>
    </g>
  </g>
</svg>