<?xml version="1.0" encoding="UTF-8"?>
<svg id="b" data-name="레이어 2" xmlns="http://www.w3.org/2000/svg" width="33.25" height="25.817" xmlns:xlink="http://www.w3.org/1999/xlink" viewBox="0 0 33.25 25.817">
  <defs>
    <linearGradient id="d" data-name="무제 그라디언트 65" x1="16.625" y1=".673" x2="16.625" y2="24.268" gradientUnits="userSpaceOnUse">
      <stop offset="0" stop-color="#ddd"/>
      <stop offset=".496" stop-color="#fff"/>
      <stop offset=".5" stop-color="#aaa"/>
      <stop offset="1" stop-color="#eee"/>
    </linearGradient>
  </defs>
  <g id="c" data-name="레이어 1">
    <g>
      <path d="M16.625,19.453l-5.657,5.657-2.828-2.828,5.657-5.657-.889-.889L3.536,25.11l-2.828-2.828,9.373-9.374L.707,3.535,3.536.707l9.373,9.373.889-.888-5.657-5.657,2.828-2.828,5.657,5.657L22.282.707l2.828,2.828-5.656,5.657.889.888L29.715.707l2.828,2.828-9.373,9.373,9.373,9.374-2.828,2.828-9.373-9.374-.889.889,5.656,5.657-2.828,2.828-5.656-5.657ZM16.625,13.797l.889-.889-.889-.888-.889.888.889.889Z" fill="url(#d)" stroke-width="0"/>
      <path d="M29.715,1.414l2.121,2.121-9.373,9.373,9.373,9.373-2.121,2.121-9.373-9.373-1.595,1.595,5.657,5.657-2.121,2.121-5.657-5.657-5.657,5.657-2.121-2.121,5.657-5.657-1.595-1.595L3.535,24.403l-2.121-2.121,9.373-9.373L1.414,3.535,3.535,1.414l9.373,9.373,1.595-1.595-5.657-5.657,2.121-2.121,5.657,5.657,5.657-5.657,2.121,2.121-5.657,5.657,1.595,1.595L29.715,1.414M16.625,14.504l1.595-1.595-1.595-1.595-1.595,1.595,1.595,1.595M29.715,0l-.707.707-8.666,8.666-.181-.181,4.95-4.95.707-.707-.707-.707-2.121-2.121-.707-.707-.707.707-4.95,4.95L11.676.707l-.707-.707-.707.707-2.121,2.121-.707.707.707.707,4.95,4.95-.181.181L4.242.707l-.707-.707-.707.707L.707,2.828l-.707.707.707.707,8.666,8.666L.707,21.575l-.707.707.707.707,2.121,2.121.707.707.707-.707,8.666-8.666.181.181-4.95,4.95-.707.707.707.707,2.121,2.121.707.707.707-.707,4.95-4.95,4.95,4.95.707.707.707-.707,2.121-2.121.707-.707-.707-.707-4.95-4.95.181-.181,8.666,8.666.707.707.707-.707,2.121-2.121.707-.707-.707-.707-8.666-8.666,8.666-8.666.707-.707-.707-.707-2.121-2.121-.707-.707h0ZM16.444,12.909l.181-.181.181.181-.181.181-.181-.181h0Z" stroke-width="0"/>
    </g>
  </g>
</svg>