<?xml version="1.0" encoding="UTF-8"?>
<svg id="b" data-name="레이어 2" xmlns="http://www.w3.org/2000/svg" width="25.016" height="28.095" viewBox="0 0 25.016 28.095">
  <g id="c" data-name="레이어 1">
    <g>
      <g>
        <polygon points=".707 14.047 14.047 .707 16.875 3.536 6.363 14.047 16.875 24.56 14.047 27.388 .707 14.047" fill="#f7f7f9" stroke-width="0"/>
        <path d="M14.047,1.414l2.121,2.121L5.656,14.048l10.512,10.512-2.121,2.121L1.414,14.048,14.047,1.414M14.047,0l-.707.707L.707,13.34l-.707.707.707.707,12.633,12.633.707.707.707-.707,2.121-2.121.707-.707-.707-.707L7.071,14.048l9.805-9.805.707-.707-.707-.707-2.121-2.121-.707-.707h0Z" stroke-width="0"/>
      </g>
      <g>
        <polygon points="8.141 14.047 21.48 .707 24.308 3.536 13.797 14.047 24.308 24.56 21.48 27.388 8.141 14.047" fill="#f7f7f9" stroke-width="0"/>
        <path d="M21.481,1.414l2.121,2.121-10.512,10.512,10.512,10.512-2.121,2.121-12.633-12.633L21.481,1.414M21.481,0l-.707.707-12.633,12.633-.707.707.707.707,12.633,12.633.707.707.707-.707,2.121-2.121.707-.707-.707-.707-9.805-9.805,9.805-9.805.707-.707-.707-.707-2.121-2.121-.707-.707h0Z" stroke-width="0"/>
      </g>
    </g>
  </g>
</svg>