<?xml version="1.0" encoding="UTF-8"?>
<svg id="b" data-name="레이어 2" xmlns="http://www.w3.org/2000/svg" width="31.119" height="23.685" viewBox="0 0 31.119 23.685">
  <g id="c" data-name="레이어 1">
    <g>
      <path d="M19.276,23.185c-1.253,0-2.502-.215-3.716-.639-1.215.424-2.464.639-3.717.639C5.588,23.185.5,18.097.5,11.842S5.588.5,11.843.5c1.253,0,2.502.215,3.717.639,1.214-.424,2.463-.639,3.716-.639,6.255,0,11.343,5.088,11.343,11.342s-5.088,11.343-11.343,11.343ZM10.548,4.616c-3.432.614-6.048,3.626-6.048,7.226s2.616,6.612,6.048,7.227c-1.695-2.031-2.615-4.553-2.615-7.227s.92-5.194,2.615-7.226ZM20.571,4.616c1.695,2.031,2.615,4.552,2.615,7.226s-.92,5.195-2.615,7.227c3.432-.614,6.048-3.626,6.048-7.227s-2.616-6.611-6.048-7.226ZM15.56,5.513c-2.244,1.321-3.627,3.722-3.627,6.329s1.383,5.009,3.627,6.33c2.243-1.321,3.626-3.723,3.626-6.33s-1.383-5.008-3.626-6.329Z" fill="#f7f7f9" stroke-width="0"/>
      <path d="M19.276,1c5.979,0,10.843,4.864,10.843,10.842s-4.864,10.843-10.843,10.843c-1.307,0-2.555-.244-3.717-.67-1.161.426-2.409.67-3.717.67-5.979,0-10.843-4.864-10.843-10.843S5.864,1,11.843,1c1.307,0,2.555.244,3.717.67,1.161-.426,2.409-.67,3.717-.67M19.311,19.683c4.309-.019,7.808-3.528,7.808-7.841s-3.499-7.821-7.808-7.841c2.074,1.976,3.375,4.757,3.375,7.841s-1.301,5.865-3.375,7.841M11.808,19.683c-2.074-1.976-3.375-4.757-3.375-7.841s1.301-5.864,3.375-7.841c-4.308.019-7.808,3.528-7.808,7.841s3.499,7.822,7.808,7.841M15.559,18.746c2.455-1.327,4.126-3.923,4.126-6.904s-1.672-5.577-4.126-6.903c-2.455,1.327-4.126,3.923-4.126,6.903s1.672,5.577,4.126,6.904M19.276,0c-1.253,0-2.501.205-3.717.611-1.215-.405-2.464-.611-3.717-.611C5.313,0,0,5.312,0,11.842s5.313,11.843,11.843,11.843c1.253,0,2.501-.205,3.717-.611,1.215.405,2.464.611,3.717.611,6.53,0,11.843-5.313,11.843-11.843S25.806,0,19.276,0h0ZM21.838,18.184c1.204-1.878,1.847-4.057,1.847-6.342s-.643-4.463-1.847-6.341c2.506,1.018,4.28,3.48,4.28,6.341s-1.774,5.324-4.281,6.342h0ZM9.281,18.184c-2.506-1.018-4.281-3.481-4.281-6.342s1.774-5.324,4.28-6.341c-1.204,1.878-1.847,4.057-1.847,6.341s.643,4.464,1.847,6.342h0ZM15.559,17.584c-1.941-1.259-3.126-3.412-3.126-5.742s1.185-4.483,3.126-5.742c1.941,1.259,3.126,3.411,3.126,5.742s-1.185,4.483-3.126,5.742h0Z" stroke-width="0"/>
    </g>
  </g>
</svg>