<?xml version="1.0" encoding="UTF-8"?>
<svg id="b" data-name="레이어 2" xmlns="http://www.w3.org/2000/svg" width="35.528" height="28.095" xmlns:xlink="http://www.w3.org/1999/xlink" viewBox="0 0 35.528 28.095">
  <defs>
    <linearGradient id="d" data-name="무제 그라디언트 488" x1="17.764" y1=".84" x2="17.764" y2="26.693" gradientUnits="userSpaceOnUse">
      <stop offset="0" stop-color="#fdc200"/>
      <stop offset=".496" stop-color="#f7ecbc"/>
      <stop offset=".5" stop-color="#ffd000"/>
      <stop offset="1" stop-color="#fde459"/>
    </linearGradient>
  </defs>
  <g id="c" data-name="레이어 1">
    <g>
      <path d="M17.764,23.671l-3.717,3.717L.707,14.047,14.047.707l3.717,3.717,3.717-3.717,13.34,13.34-13.34,13.341-3.717-3.717ZM21.481,21.732l7.684-7.685-7.684-7.684-.889.889,6.796,6.795-6.796,6.796.889.889ZM14.047,21.732l.889-.889-6.796-6.796,6.796-6.795-.889-.889-7.684,7.684,7.684,7.685ZM17.764,18.015l3.968-3.968-3.968-3.967-3.968,3.967,3.968,3.968Z" fill="url(#d)" stroke-width="0"/>
      <path d="M21.481,1.414l12.633,12.633-12.633,12.633-3.717-3.717-3.717,3.717L1.414,14.047,14.047,1.414l3.717,3.717,3.717-3.717M21.481,22.439l8.391-8.391-8.391-8.391-1.595,1.595,6.796,6.796-6.796,6.796,1.595,1.595M14.047,22.439l1.595-1.595-6.796-6.796,6.796-6.796-1.595-1.595L5.656,14.047l8.391,8.391M17.764,18.722l4.675-4.675-4.675-4.675-4.675,4.675,4.675,4.675M21.481,0l-.707.707-3.009,3.009-3.009-3.009-.707-.707-.707.707L.707,13.34l-.707.707.707.707,12.633,12.633.707.707.707-.707,3.009-3.009,3.009,3.009.707.707.707-.707,12.633-12.633.707-.707-.707-.707L22.188.707l-.707-.707h0ZM21.299,7.252l.181-.181,6.977,6.977-6.977,6.977-.181-.181,6.089-6.089.707-.707-.707-.707-6.089-6.089h0ZM7.071,14.047l6.977-6.977.181.181-6.089,6.089-.707.707.707.707,6.089,6.089-.181.181-6.977-6.977h0ZM14.504,14.047l3.26-3.26,3.26,3.26-3.26,3.26-3.26-3.26h0Z" stroke-width="0"/>
    </g>
  </g>
</svg>