<?xml version="1.0" encoding="UTF-8"?>
<svg id="b" data-name="레이어 2" xmlns="http://www.w3.org/2000/svg" width="50.394" height="28.096" viewBox="0 0 50.394 28.096">
  <g id="c" data-name="레이어 1">
    <g>
      <path d="M25.198,23.672l-3.717,3.717-3.717-3.717-3.717,3.717L.707,14.048,14.047.707l3.717,3.717,3.717-3.716,3.717,3.717,3.716-3.717,3.717,3.717,3.717-3.717,13.34,13.34-13.34,13.341-3.717-3.717-3.717,3.717-3.716-3.717ZM21.481,21.732l.889-.889-.889-.889-.889.889.889.889ZM36.347,21.732l7.684-7.685-7.684-7.684-.889.889,6.796,6.795-6.796,6.796.889.889ZM28.913,21.732l.889-.889-.889-.889-.888.889.888.889ZM14.047,21.731l.889-.888-6.796-6.796,6.796-6.795-.889-.889-7.684,7.684,7.684,7.684ZM32.63,18.016l3.968-3.968-3.968-3.967-.889.888,3.079,3.079-3.079,3.079.889.889ZM17.764,18.016l.889-.889-3.079-3.079,3.079-3.078-.889-.889-3.968,3.967,3.968,3.968ZM25.198,18.016l.888-.889-.889-.889-.888.889.889.889ZM28.913,14.299l.251-.251-.251-.251-.251.251.251.251ZM21.481,14.299l.25-.251-.25-.25-.251.25.251.251ZM25.197,11.857l.889-.889-.888-.888-.889.888.888.889ZM21.481,8.141l.889-.888-.889-.889-.889.889.889.888ZM28.913,8.141l.889-.888-.889-.889-.888.889.888.888Z" fill="#f7f7f9" stroke-width="0"/>
      <path d="M14.047,1.414l3.717,3.717,3.716-3.716,3.717,3.717,3.717-3.717,3.717,3.717,3.717-3.717,12.633,12.633-12.633,12.633-3.717-3.717-3.717,3.717-3.717-3.717-3.717,3.717-3.716-3.716-3.717,3.717L1.414,14.048,14.047,1.414M36.347,22.439l8.391-8.391-8.391-8.391-1.595,1.595,6.796,6.796-6.796,6.796,1.595,1.595M28.914,8.848l1.595-1.595-1.595-1.595-1.595,1.595,1.595,1.595M21.481,8.848l1.595-1.596-1.595-1.595-1.595,1.595,1.595,1.596M14.047,22.439l1.595-1.595-6.795-6.795,6.795-6.795-1.595-1.595L5.656,14.048l8.391,8.391M32.63,18.723l4.675-4.675-4.675-4.675-1.595,1.595,3.079,3.079-3.079,3.079,1.595,1.595M25.197,12.565l1.596-1.596-1.595-1.595-1.596,1.596,1.595,1.596M17.764,18.722l1.595-1.595-3.079-3.079,3.079-3.079-1.595-1.595-4.674,4.674,4.674,4.674M28.914,15.006l.958-.958-.958-.958-.958.958.958.958M21.48,15.006l.958-.958-.958-.958-.958.958.958.958M25.197,18.723l1.595-1.595-1.596-1.596-1.595,1.596,1.596,1.596M21.481,22.439l1.595-1.595-1.595-1.596-1.595,1.596,1.595,1.595M28.914,22.439l1.595-1.595-1.595-1.595-1.595,1.595,1.595,1.595M14.047,0l-.707.707L.707,13.341l-.707.707.707.707,12.633,12.634.707.707.707-.707,3.01-3.01,3.009,3.009.707.707.707-.707,3.009-3.009,3.009,3.009.707.707.707-.707,3.009-3.009,3.009,3.009.707.707.707-.707,12.633-12.633.707-.707-.707-.707L37.054.708,36.347,0l-.707.707-3.009,3.009-3.009-3.009L28.914,0l-.707.707-3.009,3.009-3.009-3.009L21.481,0l-.707.707-3.009,3.009-3.01-3.01-.707-.707h0ZM36.166,7.252l.181-.181,6.977,6.977-6.977,6.977-.181-.181,6.089-6.089.707-.707-.707-.707-6.089-6.089h0ZM28.732,7.252l.181-.181.181.181-.181.181-.181-.181h0ZM21.299,7.252l.181-.181.181.181-.181.181-.181-.181h0ZM7.071,14.048l6.977-6.976.181.181-6.088,6.088-.707.707.707.707,6.088,6.088-.181.181-6.977-6.976h0ZM32.449,10.969l.181-.181,3.26,3.26-3.26,3.26-.181-.181,2.372-2.372.707-.707-.707-.707-2.372-2.372h0ZM25.016,10.969l.181-.181.181.181-.181.181-.181-.181h0ZM14.504,14.048l3.26-3.26.181.181-2.372,2.372-.707.707.707.707,2.372,2.372-.181.181-3.26-3.26h0ZM25.016,17.127l.181-.181.181.181-.181.181-.181-.181h0ZM21.299,20.844l.181-.181.181.181-.181.181-.181-.181h0ZM28.732,20.844l.181-.181.181.181-.181.181-.181-.181h0Z" stroke-width="0"/>
    </g>
  </g>
</svg>