<?xml version="1.0" encoding="UTF-8"?>
<svg id="b" data-name="레이어 2" xmlns="http://www.w3.org/2000/svg" width="25.817" height="25.817" xmlns:xlink="http://www.w3.org/1999/xlink" viewBox="0 0 25.817 25.817">
  <defs>
    <linearGradient id="d" data-name="무제 그라디언트 65" x1="12.909" y1=".673" x2="12.909" y2="24.268" gradientUnits="userSpaceOnUse">
      <stop offset="0" stop-color="#ddd"/>
      <stop offset=".496" stop-color="#fff"/>
      <stop offset=".5" stop-color="#aaa"/>
      <stop offset="1" stop-color="#eee"/>
    </linearGradient>
  </defs>
  <g id="c" data-name="레이어 1">
    <g>
      <polygon points="12.909 15.736 3.536 25.11 .707 22.282 10.08 12.908 .707 3.535 3.536 .707 12.909 10.08 22.282 .707 25.11 3.535 15.737 12.908 25.11 22.282 22.282 25.11 12.909 15.736" fill="url(#d)" stroke-width="0"/>
      <path d="M22.282,1.414l2.121,2.121-9.373,9.373,9.373,9.373-2.121,2.121-9.373-9.373L3.535,24.403l-2.121-2.121,9.373-9.373L1.414,3.535,3.535,1.414l9.373,9.373L22.282,1.414M22.282,0l-.707.707-8.666,8.666L4.242.707l-.707-.707-.707.707L.707,2.828l-.707.707.707.707,8.666,8.666L.707,21.575l-.707.707.707.707,2.121,2.121.707.707.707-.707,8.666-8.666,8.666,8.666.707.707.707-.707,2.121-2.121.707-.707-.707-.707-8.666-8.666,8.666-8.666.707-.707-.707-.707-2.121-2.121-.707-.707h0Z" stroke-width="0"/>
    </g>
  </g>
</svg>