<?xml version="1.0" encoding="UTF-8"?>
<svg id="b" data-name="레이어 2" xmlns="http://www.w3.org/2000/svg" width="23.686" height="23.685" xmlns:xlink="http://www.w3.org/1999/xlink" viewBox="0 0 23.686 23.685">
  <defs>
    <linearGradient id="d" data-name="무제 그라디언트 65" x1="11.843" y1=".448" x2="11.843" y2="22.286" gradientUnits="userSpaceOnUse">
      <stop offset="0" stop-color="#ddd"/>
      <stop offset=".496" stop-color="#fff"/>
      <stop offset=".5" stop-color="#aaa"/>
      <stop offset="1" stop-color="#eee"/>
    </linearGradient>
  </defs>
  <g id="c" data-name="레이어 1">
    <g>
      <path d="M11.843,23.185C5.588,23.185.5,18.097.5,11.842S5.588.5,11.843.5s11.343,5.088,11.343,11.342-5.088,11.343-11.343,11.343ZM11.843,4.5c-4.049,0-7.343,3.294-7.343,7.342s3.294,7.343,7.343,7.343,7.343-3.294,7.343-7.343-3.294-7.342-7.343-7.342Z" fill="url(#d)" stroke-width="0"/>
      <path d="M11.843,1c5.979,0,10.843,4.864,10.843,10.842s-4.864,10.843-10.843,10.843S1,17.821,1,11.842,5.864,1,11.843,1M11.843,19.685c4.325,0,7.843-3.518,7.843-7.843s-3.518-7.842-7.843-7.842-7.843,3.518-7.843,7.842,3.518,7.843,7.843,7.843M11.843,0C5.313,0,0,5.312,0,11.842s5.313,11.843,11.843,11.843,11.843-5.313,11.843-11.843S18.373,0,11.843,0h0ZM11.843,18.685c-3.773,0-6.843-3.07-6.843-6.843s3.07-6.842,6.843-6.842,6.843,3.069,6.843,6.842-3.07,6.843-6.843,6.843h0Z" stroke-width="0"/>
    </g>
  </g>
</svg>