<?xml version="1.0" encoding="UTF-8"?>
<svg id="b" data-name="레이어 2" xmlns="http://www.w3.org/2000/svg" width="28.095" height="28.095" xmlns:xlink="http://www.w3.org/1999/xlink" viewBox="0 0 28.095 28.095">
  <defs>
    <linearGradient id="d" data-name="무제 그라디언트 488" x1="14.048" y1=".84" x2="14.048" y2="26.693" gradientUnits="userSpaceOnUse">
      <stop offset="0" stop-color="#fdc200"/>
      <stop offset=".496" stop-color="#f7ecbc"/>
      <stop offset=".5" stop-color="#ffd000"/>
      <stop offset="1" stop-color="#fde459"/>
    </linearGradient>
  </defs>
  <g id="c" data-name="레이어 1">
    <g>
      <path d="M.707,14.047L14.047.707l13.341,13.34-13.341,13.341L.707,14.047ZM14.047,21.732l7.685-7.685-7.685-7.684-7.684,7.684,7.684,7.685Z" fill="url(#d)" stroke-width="0"/>
      <path d="M14.047,1.414l12.633,12.633-12.633,12.633L1.414,14.047,14.047,1.414M14.047,22.439l8.391-8.391L14.047,5.656,5.656,14.047l8.391,8.391M14.047,0l-.707.707L.707,13.34l-.707.707.707.707,12.633,12.633.707.707.707-.707,12.633-12.633.707-.707-.707-.707L14.755.707l-.707-.707h0ZM7.071,14.047l6.977-6.977,6.977,6.977-6.977,6.977-6.977-6.977h0Z" stroke-width="0"/>
    </g>
  </g>
</svg>