<?xml version="1.0" encoding="UTF-8"?>
<svg id="b" data-name="레이어 2" xmlns="http://www.w3.org/2000/svg" width="17.583" height="28.095" viewBox="0 0 17.583 28.095">
  <g id="c" data-name="레이어 1">
    <g>
      <polygon points=".707 14.047 14.048 .707 16.876 3.536 6.363 14.047 16.876 24.56 14.048 27.388 .707 14.047" fill="#f7f7f9" stroke-width="0"/>
      <path d="M14.047,1.414l2.121,2.121L5.656,14.048l10.512,10.512-2.121,2.121L1.414,14.048,14.047,1.414M14.047,0l-.707.707L.707,13.34l-.707.707.707.707,12.633,12.633.707.707.707-.707,2.121-2.121.707-.707-.707-.707L7.071,14.048l9.805-9.805.707-.707-.707-.707-2.121-2.121-.707-.707h0Z" stroke-width="0"/>
    </g>
  </g>
</svg>