<?xml version="1.0" encoding="UTF-8"?>
<svg id="a" data-name="레이어 1" xmlns="http://www.w3.org/2000/svg" width="1440" height="1440" viewBox="0 0 1440 1440">
  <circle cx="720" cy="720" r="720" fill="#fcd61d"/>
  <circle cx="720" cy="720" r="700.329" fill="#0f1c3f"/>
  <circle cx="720" cy="720" r="655.609" fill="#fff"/>
  <circle cx="720" cy="720" r="553.522" fill="#0f1c3f"/>
  <path d="M422.163,720c0-27.935,133.346-50.582,297.837-50.582s297.837,22.646,297.837,50.582" fill="none" stroke="#e7ebf7" stroke-miterlimit="10"/>
  <path d="M232.038,720c0-45.768,218.468-82.87,487.962-82.87s487.962,37.102,487.962,82.87" fill="none" stroke="#e7ebf7" stroke-miterlimit="10"/>
  <circle cx="720" cy="720" r="137.683" fill="#fff"/>
  <circle cx="1069.473" cy="662.164" r="27.247" fill="#fdde59"/>
  <path d="M1017.837,720c0,27.935-133.346,50.582-297.837,50.582s-297.837-22.646-297.837-50.582" fill="none" stroke="#e7ebf7" stroke-miterlimit="10"/>
  <circle cx="556.096" cy="762.238" r="77.745" fill="#fcd61d"/>
  <path d="M1207.962,720c0,45.768-218.468,82.87-487.962,82.87s-487.962-37.102-487.962-82.87" fill="none" stroke="#e7ebf7" stroke-miterlimit="10"/>
  <g>
    <path d="M260.403,1064.757l3.91,4.832-13.815,47.489,.321,.396,31.571-25.544,4.07,5.03-40.563,32.819-3.942-4.872,13.862-47.593-.32-.396-31.65,25.608-4.006-4.952,40.563-32.818Z" fill="#0f1c3f"/>
    <path d="M176.105,1031.401l29.349-18.128c3.035-1.874,6.193-2.837,9.476-2.888s6.413,.815,9.391,2.6c2.978,1.783,5.525,4.388,7.64,7.812,2.125,3.439,3.315,6.887,3.572,10.341s-.372,6.638-1.887,9.55c-1.515,2.912-3.79,5.306-6.825,7.18l-29.349,18.128-3.401-5.506,28.916-17.86c2.153-1.329,3.77-2.986,4.85-4.972,1.08-1.984,1.548-4.16,1.404-6.526s-.957-4.749-2.438-7.147-3.248-4.192-5.3-5.381-4.202-1.736-6.451-1.646c-2.249,.092-4.45,.803-6.604,2.133l-28.915,17.859-3.428-5.549Z" fill="#0f1c3f"/>
    <path d="M202.705,969.378l2.848,5.811-46.855,22.958-2.848-5.812,46.855-22.957Z" fill="#0f1c3f"/>
    <path d="M185.446,943.101l-48.982-11.3,10.104,26.468-5.379,2.054-12.883-33.751,4.379-1.672,48.981,11.3-10.103-26.468,5.379-2.054,12.883,33.751-4.379,1.672Z" fill="#0f1c3f"/>
    <path d="M157.539,836.812l-5.669,1.008-2.131-11.99c-.734-4.131-2.151-7.445-4.251-9.944-2.101-2.499-4.769-4.168-8.006-5.007-3.237-.839-6.963-.885-11.177-.135-4.164,.739-7.609,2.051-10.337,3.933-2.728,1.883-4.647,4.307-5.759,7.273-1.111,2.966-1.318,6.414-.619,10.344l2.301,12.943-5.669,1.008-2.372-13.345c-.883-4.966-.622-9.416,.784-13.349,1.406-3.934,3.864-7.187,7.374-9.76,3.511-2.573,7.908-4.33,13.192-5.27,5.352-.951,10.128-.816,14.33,.403s7.657,3.481,10.367,6.787c2.709,3.305,4.523,7.541,5.442,12.708l2.203,12.392Zm-.499-2.81l1.132,6.371-51.372,9.132-1.132-6.371,51.372-9.132Z" fill="#0f1c3f"/>
    <path d="M77.497,754.92l-.425-7.121,12.274,7.229,.319,5.341-12.167-5.449Zm18.232,18.104l-1.886-31.586,5.748-.343,1.5,25.126,17.395-1.039-1.4-23.447,5.697-.341,1.4,23.448,17.497-1.045-1.521-25.482,5.748-.343,1.907,31.941-52.084,3.11Z" fill="#0f1c3f"/>
    <path d="M96.229,661.629l.738-6.429,46.116,5.297,2.762-24.045,5.72,.657-3.5,30.474-51.836-5.955Z" fill="#0f1c3f"/>
    <path d="M158.105,601.506l-1.293,6.341-51.125-10.425,1.293-6.341,51.125,10.425Z" fill="#0f1c3f"/>
    <path d="M162.522,550.465l.178-.585-37.394-27.464,1.988-6.532,44.354,33.47-1.988,6.532-55.479,3.091,2.002-6.581,46.338-1.931Z" fill="#0f1c3f"/>
    <path d="M189.929,499.028l-2.458,5.986-48.265-19.823,2.458-5.986,48.265,19.823Z" fill="#0f1c3f"/>
    <path d="M200.946,473.286l-37.303-41.183,3.176-6.044,55.077,7.353-3.176,6.044-45.952-6.645-.19,.361,31.543,34.07-3.176,6.044Zm-1.335-41.28l5.052,2.654-12.442,23.681-5.052-2.654,12.442-23.681Z" fill="#0f1c3f"/>
    <path d="M193.398,380.55l3.63-5.357,38.426,26.042,13.578-20.036,4.767,3.23-17.209,25.393-43.192-29.272Z" fill="#0f1c3f"/>
    <path d="M276.047,355.916l-4.078,5.024-40.511-32.883,4.079-5.024,40.511,32.883Z" fill="#0f1c3f"/>
    <path d="M326.182,301.721l-4.37,4.422-48.728-8.467-.358,.362,28.885,28.545-4.548,4.603-37.112-36.676,4.405-4.458,48.836,8.502,.358-.362-28.958-28.617,4.477-4.53,37.112,36.676Z" fill="#0f1c3f"/>
    <path d="M322.26,226.988c-.736,.081-1.451-.006-2.146-.26-.695-.253-1.263-.661-1.703-1.223-.472-.602-.75-1.273-.835-2.016-.085-.742,.006-1.445,.274-2.108,.268-.663,.689-1.22,1.264-1.67,.615-.482,1.28-.776,1.994-.883,.715-.107,1.407-.023,2.075,.251,.668,.275,1.244,.72,1.726,1.334,.451,.575,.727,1.216,.828,1.924,.102,.708,.025,1.41-.228,2.104-.253,.695-.688,1.284-1.303,1.766-.562,.44-1.21,.701-1.946,.78Zm27.715-12.753l21.278,27.152c2.2,2.808,3.508,5.839,3.923,9.096,.416,3.256-.097,6.464-1.539,9.622-1.441,3.158-3.747,5.979-6.915,8.462-3.182,2.494-6.476,4.06-9.879,4.7-3.405,.64-6.638,.368-9.701-.814-3.062-1.182-5.694-3.177-7.894-5.984l-21.278-27.152,5.094-3.991,20.963,26.75c1.562,1.992,3.388,3.414,5.48,4.267,2.092,.853,4.306,1.076,6.642,.669s4.613-1.479,6.833-3.218c2.219-1.739,3.805-3.694,4.758-5.865,.953-2.171,1.259-4.369,.918-6.594-.341-2.225-1.292-4.333-2.853-6.325l-20.964-26.75,5.134-4.023Zm-16.125,3.67c-.735,.08-1.451-.007-2.146-.26-.695-.253-1.263-.662-1.703-1.223-.471-.602-.75-1.273-.835-2.016-.086-.742,.005-1.445,.273-2.108s.689-1.22,1.264-1.671c.602-.471,1.263-.763,1.984-.875,.722-.112,1.419-.028,2.093,.253,.673,.282,1.246,.723,1.717,1.325,.451,.575,.727,1.216,.829,1.924s.022,1.412-.238,2.112c-.26,.701-.691,1.286-1.293,1.758-.562,.44-1.21,.7-1.946,.78Z" fill="#0f1c3f"/>
    <path d="M448.549,213.802l-5.769,2.933-23.646-46.512,5.769-2.933,23.646,46.512Zm-2.544,1.293l-2.609-5.133,10.856-5.519c3.74-1.901,6.5-4.219,8.283-6.955,1.782-2.735,2.604-5.773,2.468-9.114s-1.174-6.92-3.114-10.735c-1.917-3.77-4.171-6.687-6.764-8.751-2.592-2.064-5.469-3.197-8.631-3.4-3.161-.203-6.521,.6-10.079,2.409l-11.719,5.958-2.609-5.133,12.082-6.142c4.497-2.286,8.831-3.327,13.002-3.123,4.171,.204,7.998,1.612,11.479,4.225,3.481,2.613,6.438,6.311,8.87,11.095,2.463,4.845,3.721,9.455,3.772,13.83,.052,4.375-1.11,8.338-3.487,11.89-2.377,3.552-5.904,6.517-10.583,8.896l-11.219,5.704Z" fill="#0f1c3f"/>
    <path d="M497.704,155.396l-4.978,1.96-3.49-19.709,6.448-2.539,2.021,20.288Z" fill="#0f1c3f"/>
    <path d="M527.748,123.575l30.347-8.963,1.631,5.522-24.14,7.13,4.936,16.712,22.528-6.654,1.617,5.473-22.528,6.654,4.965,16.811,24.482-7.231,1.631,5.522-30.688,9.064-14.78-50.04Z" fill="#0f1c3f"/>
    <path d="M593.968,106.164l17.461-3.083c3.897-.688,7.272-.594,10.127,.281,2.854,.876,5.125,2.385,6.814,4.527,1.689,2.143,2.81,4.778,3.362,7.905,.549,3.111,.403,5.948-.438,8.511-.841,2.563-2.451,4.727-4.83,6.493s-5.509,2.991-9.389,3.676l-14.05,2.481-1.019-5.771,13.749-2.428c2.676-.473,4.789-1.251,6.34-2.336,1.55-1.084,2.583-2.417,3.097-4,.514-1.583,.586-3.419,.217-5.51-.372-2.107-1.076-3.846-2.111-5.215-1.036-1.369-2.479-2.313-4.329-2.832-1.851-.518-4.115-.541-6.791-.068l-10.838,1.914,8.073,45.711-6.373,1.125-9.074-51.382Zm46.055,44.851l-7.426,1.312-16.52-20.884,7.226-1.276,16.721,20.849Z" fill="#0f1c3f"/>
    <path d="M663.39,148.188l16.022-53.206,6.816-.399,22.128,50.969-6.816,.399-18.025-42.788-.407,.024-12.902,44.601-6.816,.399Zm34.668-22.449l.334,5.697-26.705,1.565-.334-5.697,26.705-1.565Z" fill="#0f1c3f"/>
    <path d="M765.107,104.016c-.957-1.287-2.262-2.292-3.913-3.014-1.652-.722-3.521-1.142-5.607-1.259-2.255-.126-4.265,.127-6.026,.759-1.762,.633-3.154,1.575-4.177,2.828-1.023,1.253-1.58,2.693-1.672,4.321-.136,2.425,.735,4.328,2.614,5.709,1.879,1.381,4.188,2.515,6.929,3.399l5.16,1.718c2.406,.765,4.65,1.711,6.73,2.84,2.08,1.129,3.836,2.721,5.27,4.774,1.433,2.054,2.065,4.573,1.897,7.558-.16,2.866-1.052,5.397-2.671,7.595-1.621,2.197-3.889,3.877-6.803,5.041-2.915,1.164-6.331,1.635-10.248,1.416-3.697-.208-6.885-.99-9.564-2.348s-4.747-3.167-6.203-5.426c-1.455-2.259-2.203-4.835-2.245-7.73l6.664,.374c.064,1.892,.62,3.51,1.667,4.853,1.048,1.343,2.443,2.387,4.188,3.131,1.744,.744,3.685,1.176,5.821,1.296,2.374,.133,4.541-.136,6.501-.809,1.96-.672,3.522-1.686,4.688-3.042,1.164-1.355,1.799-2.957,1.902-4.805,.09-1.594-.284-2.959-1.122-4.095-.839-1.136-1.972-2.08-3.401-2.832-1.429-.752-3.204-1.485-5.324-2.199l-6.26-2.138c-4.204-1.46-7.39-3.362-9.555-5.703s-3.152-5.216-2.961-8.625c.16-2.866,1.092-5.361,2.793-7.485,1.701-2.125,3.942-3.722,6.725-4.79,2.781-1.069,5.852-1.509,9.209-1.321,3.323,.187,6.283,.948,8.879,2.284,2.596,1.336,4.594,3.103,5.993,5.299s2.067,4.611,2.005,7.245l-6.309-.354c-.093-1.689-.617-3.177-1.574-4.464Z" fill="#0f1c3f"/>
    <path d="M810.393,99.844l6.371,1.134-4.062,22.826,27.19,4.837,4.062-22.826,6.421,1.143-9.14,51.37-6.422-1.143,4.079-22.926-27.189-4.837-4.079,22.926-6.371-1.133,9.14-51.371Z" fill="#0f1c3f"/>
    <path d="M887.607,116.196l30.278,9.19-1.672,5.509-24.087-7.31-5.061,16.675,22.478,6.822-1.657,5.461-22.478-6.822-5.091,16.773,24.428,7.414-1.672,5.509-30.62-9.293,15.153-49.928Z" fill="#0f1c3f"/>
    <path d="M969.732,202.469l-5.691-2.501-9.504-48.536-.467-.205-16.339,37.178-5.924-2.604,20.992-47.768,5.737,2.521,9.511,48.649,.466,.205,16.38-37.271,5.831,2.562-20.992,47.768Z" fill="#0f1c3f"/>
    <path d="M1003.979,220.899l-5.64-3.174,25.589-45.471,5.64,3.174-25.589,45.471Z" fill="#0f1c3f"/>
    <path d="M1061.302,194.599l5.344,3.649-26.177,38.334,19.988,13.649-3.247,4.755-25.332-17.298,29.424-43.089Z" fill="#0f1c3f"/>
    <path d="M1145.512,259.988l-22.601,26.062c-2.337,2.694-5.064,4.556-8.182,5.584-3.118,1.028-6.364,1.136-9.739,.322-3.375-.814-6.583-2.539-9.624-5.176-3.054-2.648-5.219-5.583-6.495-8.803-1.277-3.22-1.627-6.446-1.05-9.678,.576-3.231,2.033-6.195,4.37-8.89l22.601-26.061,4.89,4.24-22.268,25.676c-1.658,1.912-2.706,3.976-3.145,6.192s-.235,4.433,.608,6.648c.844,2.216,2.331,4.247,4.461,6.094s4.352,3.032,6.664,3.554,4.528,.403,6.648-.355c2.119-.759,4.008-2.094,5.666-4.006l22.267-25.676,4.928,4.273Z" fill="#0f1c3f"/>
    <path d="M1138.654,327.11l-4.455-4.693,37.839-35.925,4.455,4.693-37.839,35.925Z" fill="#0f1c3f"/>
    <path d="M1185.898,383.791l-3.82-4.904,14.687-47.227-.312-.402-32.036,24.958-3.977-5.105,41.159-32.067,3.853,4.944-14.736,47.329,.313,.402,32.115-25.021,3.915,5.024-41.16,32.067Z" fill="#0f1c3f"/>
    <path d="M1254.826,410.941c.526-1.515,.623-3.159,.292-4.931-.332-1.772-1.036-3.554-2.112-5.344-1.163-1.937-2.502-3.455-4.016-4.557-1.515-1.102-3.077-1.723-4.688-1.865-1.611-.142-3.115,.208-4.513,1.047-2.082,1.251-3.166,3.042-3.252,5.372-.086,2.33,.275,4.877,1.085,7.641l1.48,5.233c.721,2.42,1.199,4.808,1.436,7.162,.235,2.355-.093,4.702-.985,7.042-.893,2.339-2.62,4.279-5.182,5.819-2.461,1.479-5.056,2.166-7.783,2.061s-5.393-1.035-7.993-2.791c-2.601-1.756-4.912-4.315-6.933-7.679-1.907-3.174-3.053-6.25-3.436-9.229-.384-2.98-.051-5.707,.999-8.18s2.76-4.542,5.13-6.204l3.438,5.722c-1.528,1.116-2.554,2.486-3.075,4.107-.521,1.622-.6,3.363-.234,5.224,.365,1.861,1.1,3.708,2.201,5.543,1.225,2.038,2.666,3.679,4.325,4.921,1.657,1.243,3.375,1.964,5.15,2.166,1.775,.201,3.456-.175,5.043-1.129,1.369-.822,2.287-1.899,2.755-3.23s.611-2.8,.43-4.405c-.182-1.604-.573-3.485-1.175-5.64l-1.752-6.378c-1.156-4.299-1.375-8.001-.656-11.108s2.542-5.54,5.468-7.298c2.46-1.479,5.047-2.111,7.761-1.899,2.714,.212,5.294,1.168,7.742,2.868,2.447,1.699,4.538,3.99,6.271,6.873,1.714,2.853,2.748,5.729,3.104,8.627,.354,2.898,.017,5.543-1.013,7.936-1.03,2.392-2.651,4.302-4.864,5.731l-3.254-5.416c1.345-1.026,2.28-2.296,2.807-3.812Z" fill="#0f1c3f"/>
    <path d="M1254.573,509.759l-2.232-6.074,48.977-17.994,2.231,6.074-48.976,17.994Zm-.984-2.678l5.404-1.985,4.2,11.431c1.446,3.938,3.423,6.953,5.929,9.045s5.425,3.268,8.76,3.526c3.334,.259,7.01-.35,11.027-1.826,3.97-1.458,7.132-3.353,9.487-5.685,2.355-2.331,3.82-5.054,4.395-8.169,.575-3.115,.174-6.546-1.203-10.292l-4.533-12.34,5.404-1.985,4.675,12.722c1.739,4.735,2.262,9.162,1.567,13.28-.694,4.119-2.544,7.752-5.549,10.901s-7.026,5.648-12.064,7.5c-5.102,1.875-9.827,2.58-14.178,2.115-4.351-.464-8.149-2.086-11.396-4.865-3.246-2.779-5.774-6.632-7.585-11.558l-4.34-11.813Z" fill="#0f1c3f"/>
    <path d="M1325.613,559.077l7.359,30.775-5.6,1.339-5.854-24.481-16.948,4.053,5.463,22.845-5.55,1.328-5.464-22.846-17.047,4.077,5.937,24.828-5.6,1.339-7.442-31.122,50.746-12.135Zm21.107,14.652l1.659,6.938-13.346-4.981-1.245-5.203,12.932,3.247Z" fill="#0f1c3f"/>
    <path d="M1296.961,670.024l43.198,25.706-1.546-28.289,5.749-.314,1.972,36.072-4.681,.256-43.198-25.706,1.546,28.289-5.749,.314-1.972-36.072,4.681-.256Z" fill="#0f1c3f"/>
    <path d="M1294.438,732.045l50.954,22.164-.404,6.815-53.217,15.985,.404-6.816,44.609-12.871,.024-.407-42.775-18.054,.404-6.816Zm18.219,37.066l-5.697-.338,1.584-26.704,5.697,.338-1.584,26.704Z" fill="#0f1c3f"/>
    <path d="M1326.28,838.302c1.392-.798,2.545-1.973,3.458-3.527,.914-1.555,1.554-3.36,1.918-5.417,.394-2.225,.382-4.249-.036-6.074-.419-1.825-1.188-3.319-2.311-4.484s-2.485-1.89-4.091-2.174c-2.392-.424-4.385,.215-5.98,1.916-1.595,1.7-2.995,3.858-4.2,6.475l-2.32,4.919c-1.046,2.298-2.253,4.413-3.621,6.344-1.369,1.931-3.158,3.485-5.367,4.664-2.21,1.178-4.786,1.506-7.729,.984-2.827-.501-5.234-1.687-7.223-3.557-1.989-1.87-3.387-4.322-4.195-7.354-.808-3.032-.87-6.48-.186-10.344,.646-3.646,1.804-6.718,3.471-9.217,1.668-2.499,3.709-4.336,6.126-5.513,2.416-1.176,5.063-1.612,7.942-1.309l-1.165,6.572c-1.886-.162-3.558,.197-5.017,1.077-1.458,.88-2.66,2.143-3.607,3.785-.946,1.644-1.606,3.52-1.979,5.626-.415,2.342-.405,4.525,.029,6.552,.434,2.026,1.255,3.698,2.462,5.016,1.206,1.317,2.721,2.139,4.544,2.462,1.572,.278,2.972,.069,4.199-.628,1.228-.696,2.3-1.71,3.217-3.039,.917-1.33,1.856-3.005,2.818-5.024l2.867-5.961c1.951-4.001,4.218-6.937,6.8-8.808,2.583-1.871,5.555-2.509,8.917-1.913,2.826,.501,5.192,1.723,7.1,3.664,1.907,1.942,3.226,4.357,3.955,7.247,.73,2.889,.802,5.989,.215,9.301-.581,3.278-1.689,6.126-3.325,8.545-1.636,2.418-3.628,4.19-5.976,5.318-2.347,1.128-4.824,1.504-7.432,1.129l1.103-6.222c1.688,.109,3.229-.234,4.62-1.031Z" fill="#0f1c3f"/>
    <path d="M1274.442,911.411c-3.286-3.069-5.463-6.598-6.531-10.586-1.068-3.987-.949-8.108,.356-12.362,1.311-4.271,3.524-7.753,6.644-10.446,3.118-2.694,6.899-4.39,11.342-5.088,4.442-.697,9.245-.254,14.408,1.331,5.164,1.585,9.396,3.914,12.699,6.988,3.303,3.075,5.481,6.6,6.536,10.574,1.054,3.975,.926,8.097-.385,12.367-1.306,4.254-3.511,7.734-6.615,10.442-3.105,2.706-6.887,4.406-11.346,5.099s-9.27,.247-14.434-1.338c-5.163-1.585-9.389-3.912-12.675-6.981Zm25.9,2.14c3.408-.482,6.254-1.696,8.54-3.643,2.284-1.946,3.896-4.445,4.832-7.498,.938-3.053,1.006-6.025,.205-8.918-.8-2.893-2.476-5.494-5.026-7.805-2.551-2.312-5.913-4.106-10.086-5.388-4.173-1.28-7.963-1.68-11.371-1.197-3.408,.481-6.255,1.695-8.54,3.642-2.285,1.945-3.896,4.445-4.833,7.498-.937,3.052-1.005,6.024-.205,8.918,.8,2.893,2.476,5.494,5.026,7.805,2.552,2.311,5.913,4.106,10.086,5.388,4.173,1.28,7.964,1.68,11.372,1.198Z" fill="#0f1c3f"/>
    <path d="M1255.531,969.123l-9.25,2.11-2.691,.622-14.071,3.104,2.938-6.444,9.321-2.022,2.468-.499,14.202-3.27-2.917,6.398Zm-10.353,12.023c-2.861-3.47-4.562-7.25-5.105-11.343-.542-4.093,.109-8.163,1.955-12.212,1.854-4.065,4.5-7.23,7.941-9.498,3.441-2.267,7.41-3.459,11.905-3.574,4.496-.116,9.201,.946,14.115,3.187,4.915,2.24,8.81,5.099,11.687,8.575,2.876,3.477,4.58,7.254,5.11,11.331,.53,4.078-.131,8.148-1.983,12.214-1.846,4.049-4.484,7.214-7.913,9.496-3.43,2.282-7.4,3.478-11.911,3.586-4.511,.109-9.224-.956-14.138-3.196-4.915-2.241-8.803-5.096-11.663-8.565Zm25.404,5.478c3.441-.037,6.421-.872,8.939-2.505,2.518-1.634,4.439-3.903,5.764-6.809s1.777-5.844,1.359-8.816c-.419-2.972-1.743-5.769-3.974-8.391-2.229-2.622-5.331-4.838-9.303-6.648s-7.679-2.698-11.12-2.661c-3.442,.036-6.422,.87-8.939,2.504-2.519,1.634-4.439,3.903-5.764,6.809s-1.777,5.844-1.359,8.816c.419,2.972,1.743,5.769,3.973,8.391,2.23,2.622,5.331,4.838,9.303,6.649,3.973,1.811,7.679,2.697,11.121,2.661Z" fill="#0f1c3f"/>
    <path d="M1241.626,1067.349l-29.302-18.204c-3.029-1.882-5.299-4.281-6.806-7.197-1.508-2.916-2.127-6.104-1.855-9.565,.271-3.461,1.468-6.901,3.592-10.32,2.133-3.435,4.689-6.035,7.667-7.805,2.979-1.769,6.109-2.623,9.392-2.563s6.438,1.03,9.468,2.912l29.302,18.204-3.415,5.496-28.869-17.934c-2.149-1.336-4.354-2.045-6.611-2.128s-4.414,.467-6.469,1.649c-2.055,1.184-3.825,2.973-5.313,5.367-1.487,2.395-2.307,4.775-2.457,7.142s.316,4.535,1.4,6.509c1.084,1.973,2.7,3.627,4.851,4.963l28.868,17.935-3.441,5.54Z" fill="#0f1c3f"/>
    <path d="M1219.269,1098.491l-19.736,24.733-4.501-3.591,15.7-19.676-13.621-10.869-14.651,18.361-4.461-3.56,14.651-18.36-13.701-10.933-15.922,19.953-4.501-3.591,19.959-25.012,40.784,32.543Z" fill="#0f1c3f"/>
  </g>
  <g>
    <path d="M581.159,558.213l2.055,3.758c.982,1.796,2.459,3.273,4.255,4.255l3.758,2.055-3.758,2.055c-1.796,.982-3.273,2.459-4.255,4.255l-2.055,3.758-2.055-3.758c-.982-1.796-2.459-3.273-4.255-4.255l-3.758-2.055,3.758-2.055c1.796-.982,3.273-2.459,4.255-4.255l2.055-3.758Z" fill="#fff"/>
    <path d="M686.524,518.643l2.055,3.758c.982,1.796,2.459,3.273,4.255,4.255l3.758,2.055-3.758,2.055c-1.796,.982-3.273,2.459-4.255,4.255l-2.055,3.758-2.055-3.758c-.982-1.796-2.459-3.273-4.255-4.255l-3.758-2.055,3.758-2.055c1.796-.982,3.273-2.459,4.255-4.255l2.055-3.758Z" fill="#fff"/>
    <path d="M1063.975,364.588l2.055,3.758c.982,1.796,2.459,3.273,4.255,4.255l3.758,2.055-3.758,2.055c-1.796,.982-3.273,2.459-4.255,4.255l-2.055,3.758-2.055-3.758c-.982-1.796-2.459-3.273-4.255-4.255l-3.758-2.055,3.758-2.055c1.796-.982,3.273-2.459,4.255-4.255l2.055-3.758Z" fill="#fff"/>
    <path d="M999.563,364.588l2.055,3.758c.982,1.796,2.459,3.273,4.255,4.255l3.758,2.055-3.758,2.055c-1.796,.982-3.273,2.459-4.255,4.255l-2.055,3.758-2.055-3.758c-.982-1.796-2.459-3.273-4.255-4.255l-3.758-2.055,3.758-2.055c1.796-.982,3.273-2.459,4.255-4.255l2.055-3.758Z" fill="#fff"/>
    <path d="M602.453,1185.536l2.055,3.758c.982,1.796,2.459,3.273,4.255,4.255l3.758,2.055-3.758,2.055c-1.796,.982-3.273,2.459-4.255,4.255l-2.055,3.758-2.055-3.758c-.982-1.796-2.459-3.273-4.255-4.255l-3.758-2.055,3.758-2.055c1.796-.982,3.273-2.459,4.255-4.255l2.055-3.758Z" fill="#fff"/>
    <path d="M624.931,508.575l2.055,3.758c.982,1.796,2.459,3.273,4.255,4.255l3.758,2.055-3.758,2.055c-1.796,.982-3.273,2.459-4.255,4.255l-2.055,3.758-2.055-3.758c-.982-1.796-2.459-3.273-4.255-4.255l-3.758-2.055,3.758-2.055c1.796-.982,3.273-2.459,4.255-4.255l2.055-3.758Z" fill="#fff"/>
    <path d="M908.715,815.08l2.055,3.758c.982,1.796,2.459,3.273,4.255,4.255l3.758,2.055-3.758,2.055c-1.796,.982-3.273,2.459-4.255,4.255l-2.055,3.758-2.055-3.758c-.982-1.796-2.459-3.273-4.255-4.255l-3.758-2.055,3.758-2.055c1.796-.982,3.273-2.459,4.255-4.255l2.055-3.758Z" fill="#fff"/>
    <path d="M412.095,949.456l2.055,3.758c.982,1.796,2.459,3.273,4.255,4.255l3.758,2.055-3.758,2.055c-1.796,.982-3.273,2.459-4.255,4.255l-2.055,3.758-2.055-3.758c-.982-1.796-2.459-3.273-4.255-4.255l-3.758-2.055,3.758-2.055c1.796-.982,3.273-2.459,4.255-4.255l2.055-3.758Z" fill="#fff"/>
    <path d="M872.211,1085.323l2.055,3.758c.982,1.796,2.459,3.273,4.255,4.255l3.758,2.055-3.758,2.055c-1.796,.982-3.273,2.459-4.255,4.255l-2.055,3.758-2.055-3.758c-.982-1.796-2.459-3.273-4.255-4.255l-3.758-2.055,3.758-2.055c1.796-.982,3.273-2.459,4.255-4.255l2.055-3.758Z" fill="#fff"/>
    <path d="M310.476,998.455l2.055,3.758c.982,1.796,2.459,3.273,4.255,4.255l3.758,2.055-3.758,2.055c-1.796,.982-3.273,2.459-4.255,4.255l-2.055,3.758-2.055-3.758c-.982-1.796-2.459-3.273-4.255-4.255l-3.758-2.055,3.758-2.055c1.796-.982,3.273-2.459,4.255-4.255l2.055-3.758Z" fill="#fff"/>
    <path d="M264.649,642.028l2.055,3.758c.982,1.796,2.459,3.273,4.255,4.255l3.758,2.055-3.758,2.055c-1.796,.982-3.273,2.459-4.255,4.255l-2.055,3.758-2.055-3.758c-.982-1.796-2.459-3.273-4.255-4.255l-3.758-2.055,3.758-2.055c1.796-.982,3.273-2.459,4.255-4.255l2.055-3.758Z" fill="#fff"/>
    <path d="M982.396,1118.036l2.055,3.758c.982,1.796,2.459,3.273,4.255,4.255l3.758,2.055-3.758,2.055c-1.796,.982-3.273,2.459-4.255,4.255l-2.055,3.758-2.055-3.758c-.982-1.796-2.459-3.273-4.255-4.255l-3.758-2.055,3.758-2.055c1.796-.982,3.273-2.459,4.255-4.255l2.055-3.758Z" fill="#fff"/>
    <path d="M1019.512,977.55l2.055,3.758c.982,1.796,2.459,3.273,4.255,4.255l3.758,2.055-3.758,2.055c-1.796,.982-3.273,2.459-4.255,4.255l-2.055,3.758-2.055-3.758c-.982-1.796-2.459-3.273-4.255-4.255l-3.758-2.055,3.758-2.055c1.796-.982,3.273-2.459,4.255-4.255l2.055-3.758Z" fill="#fff"/>
    <path d="M942.923,1145.498l2.055,3.758c.982,1.796,2.459,3.273,4.255,4.255l3.758,2.055-3.758,2.055c-1.796,.982-3.273,2.459-4.255,4.255l-2.055,3.758-2.055-3.758c-.982-1.796-2.459-3.273-4.255-4.255l-3.758-2.055,3.758-2.055c1.796-.982,3.273-2.459,4.255-4.255l2.055-3.758Z" fill="#fff"/>
    <path d="M952.991,384.724l2.055,3.758c.982,1.796,2.459,3.273,4.255,4.255l3.758,2.055-3.758,2.055c-1.796,.982-3.273,2.459-4.255,4.255l-2.055,3.758-2.055-3.758c-.982-1.796-2.459-3.273-4.255-4.255l-3.758-2.055,3.758-2.055c1.796-.982,3.273-2.459,4.255-4.255l2.055-3.758Z" fill="#fff"/>
    <path d="M697.347,334.617l2.055,3.758c.982,1.796,2.459,3.273,4.255,4.255l3.758,2.055-3.758,2.055c-1.796,.982-3.273,2.459-4.255,4.255l-2.055,3.758-2.055-3.758c-.982-1.796-2.459-3.273-4.255-4.255l-3.758-2.055,3.758-2.055c1.796-.982,3.273-2.459,4.255-4.255l2.055-3.758Z" fill="#fff"/>
    <path d="M1033.77,394.792l2.055,3.758c.982,1.796,2.459,3.273,4.255,4.255l3.758,2.055-3.758,2.055c-1.796,.982-3.273,2.459-4.255,4.255l-2.055,3.758-2.055-3.758c-.982-1.796-2.459-3.273-4.255-4.255l-3.758-2.055,3.758-2.055c1.796-.982,3.273-2.459,4.255-4.255l2.055-3.758Z" fill="#fff"/>
    <path d="M1157.374,592.385l2.055,3.758c.982,1.796,2.459,3.273,4.255,4.255l3.758,2.055-3.758,2.055c-1.796,.982-3.273,2.459-4.255,4.255l-2.055,3.758-2.055-3.758c-.982-1.796-2.459-3.273-4.255-4.255l-3.758-2.055,3.758-2.055c1.796-.982,3.273-2.459,4.255-4.255l2.055-3.758Z" fill="#fff"/>
    <path d="M1193.731,567.824l2.055,3.758c.982,1.796,2.459,3.273,4.255,4.255l3.758,2.055-3.758,2.055c-1.796,.982-3.273,2.459-4.255,4.255l-2.055,3.758-2.055-3.758c-.982-1.796-2.459-3.273-4.255-4.255l-3.758-2.055,3.758-2.055c1.796-.982,3.273-2.459,4.255-4.255l2.055-3.758Z" fill="#fff"/>
    <path d="M330.613,592.385l2.055,3.758c.982,1.796,2.459,3.273,4.255,4.255l3.758,2.055-3.758,2.055c-1.796,.982-3.273,2.459-4.255,4.255l-2.055,3.758-2.055-3.758c-.982-1.796-2.459-3.273-4.255-4.255l-3.758-2.055,3.758-2.055c1.796-.982,3.273-2.459,4.255-4.255l2.055-3.758Z" fill="#fff"/>
    <path d="M472.048,373.931l2.055,3.758c.982,1.796,2.459,3.273,4.255,4.255l3.758,2.055-3.758,2.055c-1.796,.982-3.273,2.459-4.255,4.255l-2.055,3.758-2.055-3.758c-.982-1.796-2.459-3.273-4.255-4.255l-3.758-2.055,3.758-2.055c1.796-.982,3.273-2.459,4.255-4.255l2.055-3.758Z" fill="#fff"/>
    <path d="M383.022,906.864l2.055,3.758c.982,1.796,2.459,3.273,4.255,4.255l3.758,2.055-3.758,2.055c-1.796,.982-3.273,2.459-4.255,4.255l-2.055,3.758-2.055-3.758c-.982-1.796-2.459-3.273-4.255-4.255l-3.758-2.055,3.758-2.055c1.796-.982,3.273-2.459,4.255-4.255l2.055-3.758Z" fill="#fff"/>
  </g>
  <g>
    <path d="M586.255,1284.465l13.577,2.78-8.322,40.63,21.033,4.309-2.245,10.957-34.61-7.089,10.567-51.587Z" fill="#0f1c3f"/>
    <path d="M697.142,1299.379l37.612,.609-.182,11.184-23.755-.386-.154,9.538,21.827,.354-.182,11.209-21.828-.354-.154,9.538,23.677,.384-.182,11.184-37.534-.609,.854-52.65Z" fill="#0f1c3f"/>
    <path d="M820.258,1336.984l18.089-37.938-24.522,4.822-2.158-10.975,41.83-8.226,1.493,7.594-18.115,37.942,24.548-4.827,2.158,10.975-41.829,8.226-1.493-7.594Z" fill="#0f1c3f"/>
  </g>
  <path d="M420.244,1224.3l-.044,7.144c-.021,3.415,.938,6.765,2.763,9.651l3.818,6.039-7.144-.044c-3.415-.021-6.765,.938-9.651,2.763l-6.039,3.818,.044-7.144c.021-3.415-.938-6.765-2.763-9.651l-3.818-6.039,7.144,.044c3.415,.021,6.765-.938,9.651-2.763l6.039-3.818Z" fill="#0f1c3f"/>
  <path d="M1024.769,1224.806l6.254,3.455c2.989,1.651,6.39,2.411,9.798,2.189l7.129-.465-3.455,6.254c-1.651,2.989-2.411,6.39-2.189,9.798l.465,7.129-6.254-3.455c-2.989-1.651-6.39-2.411-9.798-2.189l-7.129,.465,3.455-6.254c1.651-2.989,2.411-6.39,2.189-9.798l-.465-7.129Z" fill="#0f1c3f"/>
</svg>