<?xml version="1.0" encoding="UTF-8"?>
<svg id="b" data-name="레이어 2" xmlns="http://www.w3.org/2000/svg" width="322.742" height="605.556" viewBox="0 0 322.742 605.556">
  <g id="c" data-name="레이어 1">
    <g>
      <path d="M0,344.168l11.216-45.521c75.396,18.585,133.392-2.516,174.328-39.139,44.984,70.478,106.706,134.302,86.297,163.898-39.477,57.239-186.142,141.497-186.142,141.497l-23.36-40.644c.685-.396,36.261-20.918,75.803-47.775,53.141-36.087,77.648-59.16,88.666-71.624-1.624-3.591-4.393-8.927-9.09-16.519-8.285-13.389-19.634-29.119-31.651-45.769-4.119-5.71-8.314-11.52-12.527-17.423-23.896,13.086-49.775,21.553-76.991,25.199-30.741,4.113-63.228,2.037-96.548-6.18Z" fill="#2161ad"/>
      <path d="M185.544,259.508c100.517-89.908,98.228-273.341-1.596-192.479-67.855,54.971-40.436,126.63,1.596,192.479Zm27.388-155.614c-.256,7.097-1.307,15.964-3.762,26.329-3.353,14.186-8.557,28.286-15.255,41.611-9.125-30.073-3.692-49.323,19.017-67.941Z" fill="#066d3e"/>
      <path d="M11.216,298.647l11.216-45.521c33.093,8.157,63.325,7.229,89.87-2.773,3.751-1.407,7.432-3.003,11.047-4.763-7.154-14.004-13.329-28.313-18.007-42.863-10.121-31.504-12.045-61.303-5.712-88.576,7.438-32,25.876-60.11,54.81-83.546C178.645,10.99,199.854,2.693,217.597,.571c27.202-3.243,46.247,8.069,55.474,15.436,13.549,10.818,23.185,26.036,28.638,45.247,4.041,14.225,5.674,30.437,4.845,48.17-1.523,32.704-11.42,69.097-27.868,102.478-7.711,15.65-18.543,34.095-33.304,52.45,5.588,7.934,11.234,15.752,16.72,23.353,17.843,24.722,34.688,48.075,45.838,69.66,7.471,14.485,12,27.464,13.844,39.693,3.725,24.776-4.112,42.471-11.352,52.965-19.96,28.945-59.262,63.091-120.146,104.397-42.56,28.869-79.679,50.243-81.233,51.137l-23.354-40.652s146.665-84.258,186.142-141.497c20.409-29.596-41.313-93.42-86.297-163.898,100.517-89.908,98.228-273.341-1.596-192.479-67.855,54.971-40.436,126.63,1.596,192.479-40.935,36.623-98.932,57.724-174.328,39.139Z" fill="#1c1c1c"/>
    </g>
  </g>
</svg>