<?xml version="1.0" encoding="UTF-8"?>
<svg id="b" data-name="레이어 2" xmlns="http://www.w3.org/2000/svg" width="1439.999" height="587.867" viewBox="0 0 1439.999 587.867">
  <g id="c" data-name="레이어 1">
    <g>
      <g>
        <path d="M0,334.114l10.889-44.191c73.194,18.042,129.496-2.443,169.235-37.996,43.67,68.419,103.589,130.379,83.776,159.111-38.324,55.567-180.704,137.364-180.704,137.364l-22.678-39.456c.665-.385,35.201-20.307,73.589-46.379,51.589-35.033,75.38-57.432,86.076-69.532-1.577-3.486-4.264-8.666-8.825-16.036-8.043-12.998-19.06-28.269-30.727-44.432-3.999-5.543-8.071-11.184-12.161-16.915-23.198,12.704-48.321,20.923-74.742,24.463-29.843,3.993-61.381,1.977-93.728-6Z" fill="#2161ad"/>
        <path d="M180.124,251.928c97.581-87.281,95.359-265.357-1.55-186.856-65.873,53.366-39.254,122.931,1.55,186.856Zm26.588-151.068c-.248,6.889-1.269,15.498-3.653,25.56-3.255,13.772-8.307,27.459-14.809,40.396-8.858-29.195-3.584-47.882,18.462-65.956Z" fill="#066d3e"/>
        <path d="M10.889,289.923l10.889-44.191c32.126,7.919,61.475,7.018,87.245-2.692,3.641-1.366,7.215-2.915,10.724-4.624-6.945-13.595-12.94-27.486-17.481-41.611-9.826-30.584-11.693-59.512-5.545-85.988,7.221-31.065,25.12-58.354,53.208-81.106C173.426,10.669,194.016,2.615,211.24,.554c26.407-3.148,44.896,7.833,53.854,14.985,13.153,10.502,22.508,25.276,27.802,43.926,3.923,13.81,5.508,29.548,4.704,46.763-1.479,31.748-11.086,67.078-27.054,99.484-7.486,15.193-18.001,33.099-32.332,50.918,5.425,7.703,10.906,15.292,16.231,22.67,17.322,23.999,33.675,46.671,44.499,67.625,7.253,14.062,11.65,26.662,13.439,38.533,3.616,24.052-3.992,41.23-11.02,51.418-19.376,28.099-57.531,61.248-116.636,101.347-41.317,28.026-77.352,48.776-78.86,49.643l-22.671-39.465s142.38-81.797,180.704-137.364c19.813-28.732-40.107-90.691-83.776-159.111,97.581-87.281,95.359-265.357-1.55-186.856-65.873,53.366-39.254,122.931,1.55,186.856-39.74,35.553-96.042,56.038-169.235,37.996Z" fill="#1c1c1c"/>
      </g>
      <g>
        <g>
          <path d="M409.879,387.048l30.914-46.033h-31.251v-6.352h39.851v5.171l-30.914,46.033h31.25v6.352h-39.85v-5.171Z"/>
          <path d="M478.525,372.547c-2.351,.168-4.436,.318-6.253,.449-3.241,.206-5.747,.904-7.518,2.094-1.771,1.19-2.656,2.928-2.656,5.213,0,1.48,.384,2.731,1.152,3.752,.768,1.021,1.827,1.794,3.176,2.318,1.349,.525,2.904,.787,4.665,.787,2.492,0,4.651-.496,6.478-1.489,1.827-.993,3.208-2.295,4.146-3.906,.937-1.611,1.405-3.335,1.405-5.171v-13.49c0-1.836-.366-3.4-1.096-4.693-.73-1.292-1.822-2.276-3.274-2.95-1.452-.675-3.256-1.012-5.41-1.012-1.761,0-3.307,.253-4.637,.759-1.331,.506-2.427,1.194-3.288,2.065-.862,.871-1.461,1.879-1.799,3.021h-7.082c.281-2.305,1.176-4.352,2.684-6.141,1.508-1.789,3.508-3.181,6-4.174,2.492-.993,5.312-1.489,8.459-1.489,2.473,0,4.908,.375,7.307,1.124,2.398,.75,4.487,2.258,6.267,4.524,1.78,2.268,2.67,5.48,2.67,9.64v28.44h-6.801v-5.846h-.337c-.543,1.105-1.354,2.169-2.431,3.19-1.077,1.021-2.497,1.888-4.257,2.599-1.761,.712-3.804,1.068-6.126,1.068-2.754,0-5.251-.524-7.49-1.574-2.239-1.049-4.004-2.575-5.297-4.58-1.292-2.005-1.939-4.375-1.939-7.11,0-4.44,1.527-7.578,4.581-9.415,3.054-1.836,6.923-2.932,11.607-3.288,1.367-.093,2.937-.191,4.707-.295,1.771-.103,3.461-.191,5.073-.267,1.124-.075,1.911-.112,2.361-.112l.112,5.62c-1.087,.057-2.806,.169-5.157,.338Z"/>
          <path d="M519.931,355.909c-1.443-1.049-3.391-1.573-5.845-1.573-1.743,0-3.302,.28-4.679,.843s-2.459,1.34-3.246,2.333c-.787,.993-1.18,2.089-1.18,3.288,0,1.442,.599,2.66,1.798,3.653s3.054,1.798,5.564,2.417l6.464,1.573c3.859,.938,6.735,2.37,8.628,4.3,1.892,1.93,2.838,4.394,2.838,7.392,0,2.511-.666,4.74-1.996,6.688-1.331,1.948-3.265,3.484-5.803,4.608-2.539,1.124-5.579,1.687-9.12,1.687-3.204,0-5.981-.469-8.333-1.405-2.352-.937-4.22-2.313-5.606-4.131-1.387-1.817-2.267-4.037-2.642-6.661h7.138c.394,2.099,1.363,3.663,2.909,4.693,1.545,1.031,3.686,1.546,6.421,1.546,2.023,0,3.794-.271,5.312-.815,1.518-.543,2.679-1.315,3.485-2.318,.805-1.002,1.208-2.168,1.208-3.499,0-1.535-.576-2.81-1.729-3.821s-2.937-1.799-5.354-2.361l-6.52-1.518c-3.748-.861-6.604-2.29-8.571-4.285s-2.951-4.445-2.951-7.35c0-2.435,.675-4.618,2.023-6.548,1.349-1.93,3.232-3.438,5.649-4.524,2.417-1.086,5.18-1.63,8.291-1.63,2.923,0,5.499,.487,7.729,1.461,2.229,.975,4,2.352,5.312,4.132,1.311,1.78,2.117,3.85,2.417,6.211h-6.745c-.469-1.874-1.424-3.335-2.867-4.385Z"/>
          <path d="M544.716,390.336c-2.97-1.854-5.279-4.464-6.927-7.827-1.649-3.362-2.473-7.245-2.473-11.648,0-4.44,.824-8.352,2.473-11.733,1.648-3.381,3.958-6,6.927-7.854,2.969-1.854,6.394-2.782,10.271-2.782s7.302,.928,10.272,2.782c2.969,1.854,5.27,4.474,6.899,7.854,1.63,3.382,2.445,7.293,2.445,11.733,0,4.403-.815,8.286-2.445,11.648-1.63,3.363-3.93,5.973-6.899,7.827-2.97,1.854-6.394,2.782-10.272,2.782s-7.302-.928-10.271-2.782Zm17.34-5.48c1.92-1.461,3.349-3.419,4.286-5.873,.937-2.454,1.405-5.161,1.405-8.122,0-2.979-.469-5.7-1.405-8.164-.937-2.463-2.366-4.436-4.286-5.916-1.921-1.479-4.277-2.22-7.068-2.22-2.81,0-5.171,.74-7.082,2.22-1.911,1.48-3.345,3.453-4.3,5.916-.956,2.464-1.434,5.186-1.434,8.164,0,2.961,.478,5.668,1.434,8.122,.955,2.454,2.389,4.412,4.3,5.873,1.911,1.462,4.271,2.192,7.082,2.192,2.792,0,5.147-.73,7.068-2.192Z"/>
          <path d="M611.57,385.586h-.506c-.075,.15-.15,.263-.225,.338-.787,1.274-1.611,2.398-2.473,3.372-.862,.975-2.122,1.854-3.78,2.642s-3.695,1.181-6.112,1.181c-3.56,0-6.727-.918-9.499-2.754-2.773-1.836-4.937-4.44-6.492-7.813-1.555-3.372-2.333-7.307-2.333-11.803s.777-8.398,2.333-11.762c1.555-3.362,3.728-5.953,6.52-7.771,2.792-1.816,5.986-2.726,9.583-2.726,2.398,0,4.412,.375,6.042,1.124,1.63,.75,2.867,1.602,3.71,2.558,.843,.955,1.658,2.052,2.445,3.288,.056,.094,.103,.168,.141,.225,.037,.057,.084,.131,.141,.225h.73v-6.857h6.632v59.354h-6.857v-22.82Zm-5.466-.646c1.845-1.368,3.246-3.283,4.202-5.747s1.433-5.316,1.433-8.558c0-3.223-.469-6.042-1.405-8.459-.937-2.417-2.328-4.281-4.173-5.593-1.846-1.312-4.07-1.968-6.674-1.968-2.698,0-4.974,.693-6.829,2.08s-3.251,3.288-4.188,5.705c-.937,2.417-1.405,5.162-1.405,8.234,0,3.11,.478,5.901,1.434,8.374,.956,2.474,2.36,4.422,4.215,5.846s4.112,2.136,6.773,2.136c2.566,0,4.772-.684,6.618-2.051Z"/>
          <path d="M655.157,349.051h6.801v43.167h-6.801v-7.307h-.449c-.693,1.518-1.635,2.862-2.825,4.032-1.19,1.172-2.627,2.104-4.314,2.797-1.686,.692-3.579,1.04-5.677,1.04-2.773,0-5.208-.609-7.307-1.827-2.099-1.218-3.738-3.044-4.918-5.48-1.181-2.435-1.771-5.433-1.771-8.992v-27.43h6.857v26.924c0,2.042,.403,3.836,1.208,5.381,.805,1.546,1.911,2.74,3.316,3.584,1.405,.843,3.025,1.265,4.862,1.265,1.742,0,3.461-.44,5.157-1.321,1.695-.881,3.096-2.196,4.202-3.948,1.105-1.752,1.658-3.893,1.658-6.422v-25.462Z"/>
          <path d="M678.903,390.364c-3.045-1.836-5.382-4.427-7.012-7.771-1.63-3.345-2.445-7.218-2.445-11.621s.815-8.28,2.445-11.69,3.92-6.062,6.871-7.954c2.951-1.892,6.347-2.838,10.188-2.838,3.278,0,6.328,.722,9.147,2.164s5.11,3.775,6.872,6.997c1.761,3.223,2.642,7.363,2.642,12.422v2.867h-33.443v-5.846h26.473c0-2.398-.478-4.553-1.433-6.464s-2.314-3.4-4.075-4.469c-1.761-1.067-3.803-1.602-6.126-1.602-2.529,0-4.754,.628-6.674,1.883-1.921,1.256-3.405,2.918-4.455,4.988s-1.574,4.296-1.574,6.675v3.935c0,3.166,.553,5.869,1.658,8.107,1.105,2.239,2.66,3.948,4.665,5.129s4.337,1.771,6.998,1.771c1.648,0,3.138-.215,4.469-.646,1.33-.431,2.449-1.021,3.358-1.771,.908-.749,1.634-1.592,2.178-2.529h7.307c-.675,2.192-1.809,4.117-3.401,5.775s-3.583,2.946-5.972,3.864-5.035,1.377-7.939,1.377c-4.103,0-7.677-.918-10.721-2.754Zm13.476-60.197h7.869l-8.768,13.04h-5.901l6.801-13.04Z"/>
          <path d="M441.2,442.009c-1.134-1.358-2.632-2.384-4.497-3.077-1.864-.692-3.948-1.04-6.253-1.04-2.492,0-4.688,.403-6.59,1.209-1.902,.806-3.377,1.93-4.426,3.372-1.05,1.443-1.574,3.063-1.574,4.862,0,2.679,1.077,4.721,3.232,6.126,2.154,1.405,4.768,2.511,7.841,3.316l5.79,1.573c2.698,.693,5.227,1.598,7.588,2.712,2.36,1.115,4.393,2.76,6.098,4.933,1.705,2.174,2.558,4.909,2.558,8.206,0,3.166-.825,6.01-2.473,8.529-1.649,2.521-4.042,4.511-7.181,5.972-3.138,1.462-6.871,2.192-11.199,2.192-4.085,0-7.644-.665-10.679-1.995s-5.424-3.194-7.167-5.593-2.726-5.189-2.951-8.375h7.363c.187,2.08,.899,3.827,2.136,5.241,1.237,1.415,2.838,2.479,4.806,3.19s4.131,1.067,6.492,1.067c2.623,0,4.993-.431,7.11-1.293,2.117-.861,3.775-2.074,4.974-3.639s1.799-3.368,1.799-5.41c0-1.761-.497-3.241-1.489-4.44-.994-1.198-2.3-2.168-3.92-2.908-1.621-.74-3.621-1.438-6-2.094l-7.025-1.968c-4.722-1.349-8.347-3.246-10.876-5.69-2.529-2.445-3.794-5.551-3.794-9.316,0-3.166,.871-5.972,2.613-8.417,1.743-2.445,4.112-4.342,7.11-5.69,2.998-1.35,6.351-2.023,10.061-2.023,3.672,0,6.979,.655,9.92,1.967,2.941,1.312,5.25,3.134,6.927,5.466,1.677,2.333,2.562,4.951,2.656,7.855h-6.97c-.206-1.855-.876-3.462-2.009-4.82Z"/>
          <path d="M465.867,489.883h-6.857v-57.556h6.857v21.19h.562c.693-1.556,1.606-2.881,2.74-3.977,1.133-1.097,2.524-1.935,4.173-2.516,1.648-.58,3.578-.871,5.789-.871,2.998,0,5.602,.6,7.813,1.799,2.21,1.199,3.916,3.012,5.115,5.438,1.199,2.427,1.798,5.448,1.798,9.063v27.429h-6.857v-26.923c0-2.248-.394-4.178-1.18-5.789-.787-1.611-1.921-2.829-3.401-3.653s-3.25-1.237-5.312-1.237c-2.173,0-4.103,.46-5.789,1.378s-3.017,2.258-3.991,4.019-1.461,3.859-1.461,6.295v25.911Z"/>
          <path d="M521.099,452.449h-22.482v-5.733h22.482v5.733Zm-9.105-16.075v41.087c0,1.742,.262,3.087,.787,4.033,.524,.946,1.189,1.588,1.995,1.925,.805,.337,1.771,.506,2.895,.506,.675,0,2.023-.056,4.047-.169v6.352c-1.424,.225-3.017,.338-4.777,.338-2.005,0-3.902-.422-5.691-1.265-1.79-.844-3.256-2.108-4.398-3.794-1.143-1.687-1.714-3.729-1.714-6.127v-42.886h6.857Z"/>
          <path d="M534.142,488.028c-3.045-1.836-5.382-4.427-7.012-7.771-1.63-3.345-2.445-7.218-2.445-11.621s.815-8.28,2.445-11.69,3.92-6.062,6.871-7.954c2.951-1.892,6.347-2.838,10.188-2.838,3.278,0,6.328,.722,9.147,2.164s5.11,3.775,6.872,6.997c1.761,3.223,2.642,7.363,2.642,12.422v2.867h-33.443v-5.846h26.473c0-2.398-.478-4.553-1.433-6.464s-2.314-3.4-4.075-4.469c-1.761-1.067-3.803-1.602-6.126-1.602-2.529,0-4.754,.628-6.674,1.883-1.921,1.256-3.405,2.918-4.455,4.988s-1.574,4.296-1.574,6.675v3.935c0,3.166,.553,5.869,1.658,8.107,1.105,2.239,2.66,3.948,4.665,5.129s4.337,1.771,6.998,1.771c1.648,0,3.138-.215,4.469-.646,1.33-.431,2.449-1.021,3.358-1.771,.908-.749,1.634-1.592,2.178-2.529h7.307c-.675,2.192-1.809,4.117-3.401,5.775s-3.583,2.946-5.972,3.864-5.035,1.377-7.939,1.377c-4.103,0-7.677-.918-10.721-2.754Z"/>
          <path d="M577.348,489.883h-6.857v-57.556h6.857v57.556Z"/>
          <path d="M594.344,488c-2.97-1.854-5.279-4.464-6.927-7.827-1.649-3.362-2.473-7.245-2.473-11.648,0-4.44,.824-8.352,2.473-11.733,1.648-3.381,3.958-6,6.927-7.854,2.969-1.854,6.394-2.782,10.271-2.782s7.302,.928,10.272,2.782c2.969,1.854,5.27,4.474,6.899,7.854,1.63,3.382,2.445,7.293,2.445,11.733,0,4.403-.815,8.286-2.445,11.648-1.63,3.363-3.93,5.973-6.899,7.827-2.97,1.854-6.394,2.782-10.272,2.782s-7.302-.928-10.271-2.782Zm17.34-5.48c1.92-1.461,3.349-3.419,4.286-5.873,.937-2.454,1.405-5.161,1.405-8.122,0-2.979-.469-5.7-1.405-8.164-.937-2.463-2.366-4.436-4.286-5.916-1.921-1.479-4.277-2.22-7.068-2.22-2.81,0-5.171,.74-7.082,2.22-1.911,1.48-3.345,3.453-4.3,5.916-.956,2.464-1.434,5.186-1.434,8.164,0,2.961,.478,5.668,1.434,8.122,.955,2.454,2.389,4.412,4.3,5.873,1.911,1.462,4.271,2.192,7.082,2.192,2.792,0,5.147-.73,7.068-2.192Z"/>
          <path d="M649.867,452.449h-23.382v-5.733h23.382v5.733Zm-14.923-17.593c.993-1.686,2.407-2.979,4.244-3.878,1.836-.899,4.009-1.349,6.52-1.349,.805,0,1.676,.047,2.613,.141,.937,.094,1.771,.215,2.501,.365v6.07c-1.218-.188-2.398-.281-3.541-.281-2.417,0-4.183,.516-5.297,1.546-1.115,1.03-1.672,2.67-1.672,4.918v47.494h-6.857v-49.012c0-2.323,.497-4.328,1.49-6.015Z"/>
          <path d="M676.81,470.211c-2.351,.168-4.436,.318-6.253,.449-3.241,.206-5.747,.904-7.518,2.094-1.771,1.19-2.656,2.928-2.656,5.213,0,1.48,.384,2.731,1.152,3.752,.768,1.021,1.827,1.794,3.176,2.318,1.349,.525,2.904,.787,4.665,.787,2.492,0,4.651-.496,6.478-1.489,1.827-.993,3.208-2.295,4.146-3.906,.937-1.611,1.405-3.335,1.405-5.171v-13.49c0-1.836-.366-3.4-1.096-4.693-.73-1.292-1.822-2.276-3.274-2.95-1.452-.675-3.256-1.012-5.41-1.012-1.761,0-3.307,.253-4.637,.759-1.331,.506-2.427,1.194-3.288,2.065-.862,.871-1.461,1.879-1.799,3.021h-7.082c.281-2.305,1.176-4.352,2.684-6.141,1.508-1.789,3.508-3.181,6-4.174,2.492-.993,5.312-1.489,8.459-1.489,2.473,0,4.908,.375,7.307,1.124,2.398,.75,4.487,2.258,6.267,4.524,1.78,2.268,2.67,5.48,2.67,9.64v28.44h-6.801v-5.846h-.337c-.543,1.105-1.354,2.169-2.431,3.19-1.077,1.021-2.497,1.888-4.257,2.599-1.761,.712-3.804,1.068-6.126,1.068-2.754,0-5.251-.524-7.49-1.574-2.239-1.049-4.004-2.575-5.297-4.58-1.292-2.005-1.939-4.375-1.939-7.11,0-4.44,1.527-7.578,4.581-9.415,3.054-1.836,6.923-2.932,11.607-3.288,1.367-.093,2.937-.191,4.707-.295,1.771-.103,3.461-.191,5.073-.267,1.124-.075,1.911-.112,2.361-.112l.112,5.62c-1.087,.057-2.806,.169-5.157,.338Z"/>
          <path d="M718.217,453.573c-1.443-1.049-3.391-1.573-5.845-1.573-1.743,0-3.302,.28-4.679,.843s-2.459,1.34-3.246,2.333c-.787,.993-1.18,2.089-1.18,3.288,0,1.442,.599,2.66,1.798,3.653s3.054,1.798,5.564,2.417l6.464,1.573c3.859,.938,6.735,2.37,8.627,4.3s2.839,4.394,2.839,7.392c0,2.511-.665,4.74-1.995,6.688-1.331,1.948-3.266,3.484-5.804,4.608-2.539,1.124-5.579,1.687-9.12,1.687-3.204,0-5.981-.469-8.333-1.405-2.352-.937-4.22-2.313-5.606-4.131-1.387-1.817-2.267-4.037-2.642-6.661h7.138c.394,2.099,1.363,3.663,2.909,4.693,1.545,1.031,3.686,1.546,6.421,1.546,2.023,0,3.794-.271,5.312-.815,1.518-.543,2.679-1.315,3.485-2.318,.806-1.002,1.208-2.168,1.208-3.499,0-1.535-.576-2.81-1.728-3.821s-2.937-1.799-5.354-2.361l-6.52-1.518c-3.748-.861-6.604-2.29-8.571-4.285s-2.951-4.445-2.951-7.35c0-2.435,.675-4.618,2.023-6.548,1.349-1.93,3.232-3.438,5.649-4.524,2.417-1.086,5.18-1.63,8.291-1.63,2.923,0,5.499,.487,7.729,1.461,2.229,.975,4,2.352,5.312,4.132,1.311,1.78,2.117,3.85,2.417,6.211h-6.745c-.469-1.874-1.424-3.335-2.867-4.385Z"/>
          <path d="M742.938,489.883h-6.857v-57.556h6.857v21.19h.562c.693-1.556,1.606-2.881,2.74-3.977,1.134-1.097,2.524-1.935,4.173-2.516,1.648-.58,3.579-.871,5.79-.871,2.997,0,5.602,.6,7.812,1.799,2.21,1.199,3.915,3.012,5.114,5.438,1.199,2.427,1.799,5.448,1.799,9.063v27.429h-6.857v-26.923c0-2.248-.393-4.178-1.18-5.789s-1.921-2.829-3.4-3.653c-1.48-.824-3.251-1.237-5.312-1.237-2.174,0-4.104,.46-5.79,1.378-1.686,.918-3.017,2.258-3.99,4.019-.975,1.761-1.461,3.859-1.461,6.295v25.911Z"/>
          <path d="M801.415,470.211c-2.352,.168-4.436,.318-6.253,.449-3.241,.206-5.747,.904-7.518,2.094-1.771,1.19-2.655,2.928-2.655,5.213,0,1.48,.384,2.731,1.152,3.752,.768,1.021,1.826,1.794,3.175,2.318,1.35,.525,2.904,.787,4.665,.787,2.492,0,4.651-.496,6.479-1.489,1.826-.993,3.208-2.295,4.145-3.906,.938-1.611,1.405-3.335,1.405-5.171v-13.49c0-1.836-.365-3.4-1.096-4.693-.73-1.292-1.822-2.276-3.274-2.95-1.452-.675-3.255-1.012-5.409-1.012-1.762,0-3.308,.253-4.638,.759s-2.426,1.194-3.288,2.065c-.861,.871-1.461,1.879-1.798,3.021h-7.082c.28-2.305,1.175-4.352,2.684-6.141,1.508-1.789,3.508-3.181,6-4.174,2.491-.993,5.312-1.489,8.459-1.489,2.473,0,4.908,.375,7.307,1.124,2.398,.75,4.487,2.258,6.268,4.524,1.779,2.268,2.67,5.48,2.67,9.64v28.44h-6.802v-5.846h-.337c-.544,1.105-1.354,2.169-2.431,3.19-1.078,1.021-2.497,1.888-4.258,2.599-1.762,.712-3.804,1.068-6.127,1.068-2.754,0-5.251-.524-7.489-1.574-2.239-1.049-4.005-2.575-5.297-4.58-1.293-2.005-1.939-4.375-1.939-7.11,0-4.44,1.526-7.578,4.581-9.415,3.054-1.836,6.922-2.932,11.606-3.288,1.367-.093,2.937-.191,4.707-.295,1.771-.103,3.461-.191,5.072-.267,1.125-.075,1.911-.112,2.361-.112l.112,5.62c-1.087,.057-2.806,.169-5.157,.338Z"/>
          <path d="M842.822,453.573c-1.443-1.049-3.392-1.573-5.846-1.573-1.742,0-3.302,.28-4.68,.843-1.377,.562-2.459,1.34-3.245,2.333-.787,.993-1.181,2.089-1.181,3.288,0,1.442,.6,2.66,1.799,3.653,1.198,.993,3.054,1.798,5.564,2.417l6.464,1.573c3.859,.938,6.734,2.37,8.627,4.3s2.839,4.394,2.839,7.392c0,2.511-.665,4.74-1.995,6.688-1.331,1.948-3.266,3.484-5.804,4.608-2.539,1.124-5.578,1.687-9.119,1.687-3.204,0-5.981-.469-8.333-1.405s-4.22-2.313-5.606-4.131-2.268-4.037-2.642-6.661h7.138c.394,2.099,1.363,3.663,2.909,4.693,1.546,1.031,3.686,1.546,6.422,1.546,2.023,0,3.794-.271,5.312-.815,1.518-.543,2.679-1.315,3.484-2.318,.806-1.002,1.208-2.168,1.208-3.499,0-1.535-.575-2.81-1.728-3.821s-2.938-1.799-5.354-2.361l-6.52-1.518c-3.747-.861-6.604-2.29-8.571-4.285-1.968-1.995-2.951-4.445-2.951-7.35,0-2.435,.675-4.618,2.023-6.548,1.35-1.93,3.232-3.438,5.649-4.524,2.416-1.086,5.18-1.63,8.29-1.63,2.923,0,5.498,.487,7.729,1.461,2.229,.975,4,2.352,5.312,4.132,1.311,1.78,2.117,3.85,2.417,6.211h-6.745c-.469-1.874-1.424-3.335-2.866-4.385Z"/>
          <path d="M889.248,488.028c-2.772-1.836-4.937-4.44-6.492-7.813-1.555-3.372-2.332-7.307-2.332-11.803s.777-8.398,2.332-11.762c1.556-3.362,3.729-5.953,6.521-7.771,2.791-1.816,5.985-2.726,9.583-2.726,2.398,0,4.412,.375,6.042,1.124,1.63,.75,2.867,1.602,3.71,2.558,.843,.955,1.658,2.052,2.445,3.288,.056,.094,.103,.168,.14,.225,.038,.057,.085,.131,.141,.225h.506v-21.246h6.857v57.556h-6.632v-6.633h-.731c-.075,.15-.149,.263-.225,.338-.787,1.274-1.611,2.398-2.473,3.372-.862,.975-2.122,1.854-3.78,2.642s-3.695,1.181-6.112,1.181c-3.56,0-6.727-.918-9.499-2.754Zm17.129-5.424c1.845-1.368,3.246-3.283,4.201-5.747,.956-2.464,1.434-5.316,1.434-8.558,0-3.223-.469-6.042-1.405-8.459s-2.328-4.281-4.173-5.593c-1.846-1.312-4.071-1.968-6.675-1.968-2.698,0-4.975,.693-6.829,2.08s-3.251,3.288-4.188,5.705-1.405,5.162-1.405,8.234c0,3.11,.478,5.901,1.434,8.374,.955,2.474,2.36,4.422,4.215,5.846,1.855,1.424,4.112,2.136,6.773,2.136,2.566,0,4.772-.684,6.618-2.051Z"/>
          <path d="M936.056,488.028c-3.045-1.836-5.382-4.427-7.012-7.771-1.631-3.345-2.445-7.218-2.445-11.621s.814-8.28,2.445-11.69c1.63-3.41,3.92-6.062,6.871-7.954,2.95-1.892,6.346-2.838,10.188-2.838,3.278,0,6.327,.722,9.147,2.164,2.819,1.442,5.109,3.775,6.871,6.997,1.761,3.223,2.642,7.363,2.642,12.422v2.867h-33.442v-5.846h26.473c0-2.398-.478-4.553-1.434-6.464-.955-1.911-2.313-3.4-4.074-4.469-1.762-1.067-3.804-1.602-6.127-1.602-2.529,0-4.754,.628-6.675,1.883-1.92,1.256-3.405,2.918-4.454,4.988s-1.573,4.296-1.573,6.675v3.935c0,3.166,.552,5.869,1.658,8.107,1.104,2.239,2.659,3.948,4.665,5.129,2.004,1.181,4.337,1.771,6.997,1.771,1.648,0,3.138-.215,4.469-.646,1.33-.431,2.449-1.021,3.358-1.771,.908-.749,1.634-1.592,2.178-2.529h7.307c-.674,2.192-1.808,4.117-3.4,5.775s-3.583,2.946-5.972,3.864-5.035,1.377-7.939,1.377c-4.103,0-7.677-.918-10.721-2.754Zm13.475-60.197h7.869l-8.768,13.04h-5.902l6.801-13.04Z"/>
          <path d="M1002.083,489.883h-7.138v-57.556h7.138v57.556Zm-3.147,0v-6.352h13.434c4.627,0,8.501-.899,11.62-2.697,3.12-1.799,5.447-4.375,6.984-7.729,1.536-3.354,2.305-7.392,2.305-12.112,0-4.666-.759-8.66-2.276-11.986-1.518-3.325-3.78-5.878-6.787-7.658-3.008-1.779-6.713-2.67-11.115-2.67h-14.501v-6.352h14.951c5.564,0,10.346,1.144,14.347,3.429,3.999,2.286,7.058,5.584,9.175,9.893,2.117,4.31,3.176,9.424,3.176,15.345,0,5.995-1.067,11.156-3.203,15.484s-5.261,7.645-9.373,9.948c-4.112,2.305-9.062,3.457-14.853,3.457h-13.883Z"/>
          <path d="M1055.706,488c-2.97-1.854-5.279-4.464-6.928-7.827-1.648-3.362-2.473-7.245-2.473-11.648,0-4.44,.824-8.352,2.473-11.733,1.648-3.381,3.958-6,6.928-7.854s6.394-2.782,10.271-2.782,7.302,.928,10.271,2.782,5.27,4.474,6.899,7.854c1.631,3.382,2.445,7.293,2.445,11.733,0,4.403-.814,8.286-2.445,11.648-1.63,3.363-3.93,5.973-6.899,7.827s-6.393,2.782-10.271,2.782-7.302-.928-10.271-2.782Zm17.34-5.48c1.92-1.461,3.349-3.419,4.285-5.873,.938-2.454,1.405-5.161,1.405-8.122,0-2.979-.468-5.7-1.405-8.164-.937-2.463-2.365-4.436-4.285-5.916-1.921-1.479-4.276-2.22-7.068-2.22-2.811,0-5.171,.74-7.082,2.22-1.911,1.48-3.344,3.453-4.3,5.916-.955,2.464-1.433,5.186-1.433,8.164,0,2.961,.478,5.668,1.433,8.122,.956,2.454,2.389,4.412,4.3,5.873,1.911,1.462,4.271,2.192,7.082,2.192,2.792,0,5.147-.73,7.068-2.192Z"/>
          <path d="M1100.061,489.883h-6.857v-57.556h6.857v57.556Z"/>
          <path d="M1136.858,446.716h6.801v43.167h-6.801v-7.307h-.449c-.693,1.518-1.635,2.862-2.824,4.032-1.19,1.172-2.628,2.104-4.314,2.797-1.686,.692-3.578,1.04-5.677,1.04-2.772,0-5.209-.609-7.307-1.827-2.099-1.218-3.737-3.044-4.918-5.48-1.181-2.435-1.771-5.433-1.771-8.992v-27.43h6.857v26.924c0,2.042,.402,3.836,1.208,5.381,.806,1.546,1.911,2.74,3.316,3.584,1.405,.843,3.025,1.265,4.861,1.265,1.743,0,3.462-.44,5.157-1.321s3.096-2.196,4.201-3.948,1.658-3.893,1.658-6.422v-25.462Z"/>
          <path d="M1160.548,488c-2.97-1.854-5.279-4.464-6.928-7.827-1.648-3.362-2.473-7.245-2.473-11.648,0-4.44,.824-8.352,2.473-11.733,1.648-3.381,3.958-6,6.928-7.854s6.394-2.782,10.271-2.782,7.302,.928,10.271,2.782,5.27,4.474,6.899,7.854c1.631,3.382,2.445,7.293,2.445,11.733,0,4.403-.814,8.286-2.445,11.648-1.63,3.363-3.93,5.973-6.899,7.827s-6.393,2.782-10.271,2.782-7.302-.928-10.271-2.782Zm17.34-5.48c1.92-1.461,3.349-3.419,4.285-5.873,.938-2.454,1.405-5.161,1.405-8.122,0-2.979-.468-5.7-1.405-8.164-.937-2.463-2.365-4.436-4.285-5.916-1.921-1.479-4.276-2.22-7.068-2.22-2.811,0-5.171,.74-7.082,2.22-1.911,1.48-3.344,3.453-4.3,5.916-.955,2.464-1.433,5.186-1.433,8.164,0,2.961,.478,5.668,1.433,8.122,.956,2.454,2.389,4.412,4.3,5.873,1.911,1.462,4.271,2.192,7.082,2.192,2.792,0,5.147-.73,7.068-2.192Z"/>
          <path d="M1227.401,483.25h-.506c-.075,.15-.149,.263-.225,.338-.787,1.274-1.611,2.398-2.473,3.372-.862,.975-2.122,1.854-3.78,2.642s-3.695,1.181-6.112,1.181c-3.56,0-6.727-.918-9.499-2.754s-4.937-4.44-6.492-7.813c-1.555-3.372-2.332-7.307-2.332-11.803s.777-8.398,2.332-11.762c1.556-3.362,3.729-5.953,6.521-7.771,2.791-1.816,5.985-2.726,9.583-2.726,2.398,0,4.412,.375,6.042,1.124,1.63,.75,2.867,1.602,3.71,2.558,.843,.955,1.658,2.052,2.445,3.288,.056,.094,.103,.168,.14,.225,.038,.057,.085,.131,.141,.225h.731v-6.857h6.632v59.354h-6.857v-22.82Zm-5.466-.646c1.845-1.368,3.246-3.283,4.201-5.747,.956-2.464,1.434-5.316,1.434-8.558,0-3.223-.469-6.042-1.405-8.459s-2.328-4.281-4.173-5.593c-1.846-1.312-4.071-1.968-6.675-1.968-2.698,0-4.975,.693-6.829,2.08s-3.251,3.288-4.188,5.705-1.405,5.162-1.405,8.234c0,3.11,.478,5.901,1.434,8.374,.955,2.474,2.36,4.422,4.215,5.846,1.855,1.424,4.112,2.136,6.773,2.136,2.566,0,4.772-.684,6.618-2.051Z"/>
          <path d="M1270.989,446.716h6.801v43.167h-6.801v-7.307h-.449c-.693,1.518-1.635,2.862-2.824,4.032-1.19,1.172-2.628,2.104-4.314,2.797-1.686,.692-3.578,1.04-5.677,1.04-2.772,0-5.209-.609-7.307-1.827-2.099-1.218-3.737-3.044-4.918-5.48-1.181-2.435-1.771-5.433-1.771-8.992v-27.43h6.857v26.924c0,2.042,.402,3.836,1.208,5.381,.806,1.546,1.911,2.74,3.316,3.584,1.405,.843,3.025,1.265,4.861,1.265,1.743,0,3.462-.44,5.157-1.321s3.096-2.196,4.201-3.948,1.658-3.893,1.658-6.422v-25.462Z"/>
          <path d="M1294.679,488c-2.97-1.854-5.279-4.464-6.928-7.827-1.648-3.362-2.473-7.245-2.473-11.648,0-4.44,.824-8.352,2.473-11.733,1.648-3.381,3.958-6,6.928-7.854s6.394-2.782,10.271-2.782,7.302,.928,10.271,2.782,5.27,4.474,6.899,7.854c1.631,3.382,2.445,7.293,2.445,11.733,0,4.403-.814,8.286-2.445,11.648-1.63,3.363-3.93,5.973-6.899,7.827s-6.393,2.782-10.271,2.782-7.302-.928-10.271-2.782Zm17.34-5.48c1.92-1.461,3.349-3.419,4.285-5.873,.938-2.454,1.405-5.161,1.405-8.122,0-2.979-.468-5.7-1.405-8.164-.937-2.463-2.365-4.436-4.285-5.916-1.921-1.479-4.276-2.22-7.068-2.22-2.811,0-5.171,.74-7.082,2.22-1.911,1.48-3.344,3.453-4.3,5.916-.955,2.464-1.433,5.186-1.433,8.164,0,2.961,.478,5.668,1.433,8.122,.956,2.454,2.389,4.412,4.3,5.873,1.911,1.462,4.271,2.192,7.082,2.192,2.792,0,5.147-.73,7.068-2.192Z"/>
          <path d="M1339.141,487.943c-2.97-1.892-5.251-4.524-6.843-7.896-1.593-3.373-2.389-7.213-2.389-11.522,0-4.347,.814-8.216,2.445-11.606,1.63-3.391,3.925-6.033,6.885-7.926,2.96-1.892,6.37-2.838,10.229-2.838,3.017,0,5.766,.562,8.248,1.687,2.482,1.124,4.497,2.722,6.043,4.791,1.545,2.07,2.496,4.445,2.853,7.124h-6.802c-.355-1.367-.979-2.627-1.868-3.779-.891-1.152-2.043-2.065-3.457-2.74-1.415-.675-3.049-1.012-4.904-1.012-2.548,0-4.787,.665-6.717,1.995-1.93,1.331-3.428,3.209-4.496,5.635-1.068,2.427-1.602,5.241-1.602,8.445,0,3.278,.524,6.15,1.573,8.613,1.049,2.464,2.539,4.37,4.469,5.719,1.93,1.35,4.188,2.023,6.772,2.023,1.705,0,3.256-.299,4.651-.899,1.396-.599,2.571-1.456,3.527-2.571,.955-1.114,1.639-2.449,2.051-4.005h6.802c-.356,2.586-1.279,4.909-2.769,6.97-1.489,2.062-3.457,3.682-5.901,4.862-2.445,1.181-5.232,1.771-8.361,1.771-3.99,0-7.471-.946-10.44-2.839Zm12.802,1.715l-.45,2.248c1.687,.262,3.092,.932,4.216,2.01,1.124,1.077,1.686,2.617,1.686,4.623,0,1.648-.449,3.091-1.349,4.327-.899,1.237-2.248,2.201-4.047,2.895s-3.972,1.04-6.52,1.04l-.226-4.44c1.874,0,3.363-.29,4.469-.871s1.658-1.489,1.658-2.726c0-.844-.206-1.504-.618-1.981s-1.05-.839-1.911-1.082c-.862-.244-2.042-.422-3.541-.534l1.124-5.508h5.509Z"/>
          <path d="M1380.76,488.028c-3.045-1.836-5.382-4.427-7.012-7.771-1.631-3.345-2.445-7.218-2.445-11.621s.814-8.28,2.445-11.69c1.63-3.41,3.92-6.062,6.871-7.954,2.95-1.892,6.346-2.838,10.188-2.838,3.278,0,6.327,.722,9.147,2.164,2.819,1.442,5.109,3.775,6.871,6.997,1.761,3.223,2.642,7.363,2.642,12.422v2.867h-33.442v-5.846h26.473c0-2.398-.478-4.553-1.434-6.464-.955-1.911-2.313-3.4-4.074-4.469-1.762-1.067-3.804-1.602-6.127-1.602-2.529,0-4.754,.628-6.675,1.883-1.92,1.256-3.405,2.918-4.454,4.988s-1.573,4.296-1.573,6.675v3.935c0,3.166,.552,5.869,1.658,8.107,1.104,2.239,2.659,3.948,4.665,5.129,2.004,1.181,4.337,1.771,6.997,1.771,1.648,0,3.138-.215,4.469-.646,1.33-.431,2.449-1.021,3.358-1.771,.908-.749,1.634-1.592,2.178-2.529h7.307c-.674,2.192-1.808,4.117-3.4,5.775s-3.583,2.946-5.972,3.864-5.035,1.377-7.939,1.377c-4.103,0-7.677-.918-10.721-2.754Z"/>
          <path d="M1417.012,446.716h6.632v6.576h.45c.524-1.423,1.339-2.688,2.445-3.794s2.416-1.957,3.934-2.557,3.12-.899,4.806-.899c1.312,0,2.492,.037,3.541,.112v6.913c-.431-.094-1.035-.191-1.812-.295-.777-.103-1.541-.154-2.29-.154-2.062,0-3.916,.431-5.564,1.293-1.649,.861-2.941,2.061-3.878,3.597-.938,1.536-1.405,3.26-1.405,5.171v27.204h-6.857v-43.167Z"/>
        </g>
        <g>
          <path d="M406.41,246.19l55.001-78.94h-55.315v-16.238h79.307v12.101l-55.001,78.939h55.315v16.238h-79.306v-12.1Z"/>
          <path d="M544.075,172.619c-1.729-2.182-4.06-3.841-6.993-4.976-2.934-1.134-6.338-1.702-10.214-1.702-3.981,0-7.438,.594-10.372,1.781-2.934,1.188-5.186,2.855-6.757,5.002s-2.357,4.566-2.357,7.255c-.07,4.051,1.589,7.203,4.977,9.455,3.387,2.252,7.822,4.042,13.305,5.369l10.058,2.514c6.041,1.467,11.375,3.414,16.002,5.841,4.627,2.427,8.363,5.718,11.21,9.874,2.846,4.156,4.269,9.202,4.269,15.138,0,6.286-1.616,11.821-4.845,16.605-3.23,4.785-7.893,8.504-13.986,11.157-6.095,2.654-13.367,3.981-21.817,3.981-8.312,0-15.523-1.292-21.634-3.876-6.111-2.584-10.896-6.364-14.353-11.341-3.457-4.976-5.326-10.974-5.605-17.993h18.962c.279,3.632,1.422,6.697,3.431,9.193,2.007,2.497,4.653,4.374,7.936,5.631,3.282,1.257,6.984,1.886,11.105,1.886,4.191,0,7.927-.646,11.21-1.938,3.282-1.292,5.814-3.099,7.595-5.422,1.781-2.322,2.689-5.002,2.724-8.041-.035-2.653-.821-4.915-2.357-6.783-1.537-1.868-3.685-3.413-6.443-4.636-2.759-1.222-6.269-2.392-10.529-3.51l-12.205-3.143c-9.219-2.374-16.291-5.901-21.214-10.581-4.924-4.679-7.369-10.755-7.333-18.229-.036-6.181,1.658-11.663,5.081-16.448,3.422-4.784,8.11-8.503,14.064-11.157,5.954-2.654,12.667-3.981,20.141-3.981s14.169,1.31,19.984,3.929,10.345,6.278,13.593,10.974c3.248,4.697,4.924,10.049,5.028,16.055h-18.595c-.314-3.073-1.336-5.701-3.064-7.884Z"/>
          <path d="M591.21,258.29h-19.224v-107.278h19.224v107.278Zm-10.109,0v-16.71h26.243c7.508,0,13.758-1.379,18.753-4.138,4.993-2.758,8.748-6.879,11.262-12.362,2.515-5.482,3.771-12.327,3.771-20.534s-1.249-14.99-3.745-20.456c-2.497-5.465-6.208-9.56-11.131-12.283-4.924-2.724-11.035-4.086-18.333-4.086h-27.396v-16.71h28.444c10.581,0,19.722,2.13,27.422,6.391,7.7,4.261,13.601,10.416,17.705,18.465,4.103,8.049,6.155,17.609,6.155,28.679s-2.052,20.69-6.155,28.757c-4.104,8.067-10.058,14.248-17.862,18.543-7.805,4.295-17.121,6.443-27.946,6.443h-27.186Z"/>
          <path d="M754.598,234.037c-4.261,8.312-10.119,14.676-17.574,19.093-7.456,4.418-15.881,6.626-25.274,6.626-9.464,0-17.924-2.208-25.379-6.626-7.457-4.417-13.297-10.782-17.522-19.093-4.226-8.311-6.338-18.106-6.338-29.386s2.113-21.092,6.338-29.438c4.225-8.346,10.065-14.71,17.522-19.093,7.455-4.382,15.915-6.574,25.379-6.574,9.394,0,17.818,2.192,25.274,6.574,7.455,4.383,13.313,10.747,17.574,19.093,4.26,8.347,6.391,18.159,6.391,29.438s-2.131,21.076-6.391,29.386Zm-16.789-49.894c-2.497-5.675-5.989-9.97-10.476-12.886-4.488-2.915-9.683-4.374-15.584-4.374s-11.097,1.458-15.583,4.374c-4.488,2.917-7.988,7.211-10.503,12.886-2.514,5.675-3.771,12.511-3.771,20.507s1.257,14.824,3.771,20.481c2.515,5.657,6.015,9.953,10.503,12.886,4.487,2.934,9.682,4.4,15.583,4.4s11.096-1.467,15.584-4.4c4.486-2.933,7.979-7.229,10.476-12.886s3.746-12.484,3.746-20.481-1.249-14.832-3.746-20.507Zm-15.164,38.16l10.477,13.567,7.386,8.695,17.862,22.996h-18.806l-12.1-15.4-5.134-7.281-17.233-22.577h17.548Z"/>
        </g>
      </g>
    </g>
  </g>
</svg>