<svg xmlns="http://www.w3.org/2000/svg" viewBox="0 0 1800 1200"><rect width="1800" height="1200" style="fill:#72ff00"/><path d="M1008.61,323.82H1020c.91.12,1.81.3,2.73.34a154,154,0,0,1,30,4.37,159.45,159.45,0,0,1,82.07,49.16,157.78,157.78,0,0,1,38.73,79.67c1.3,7.46,1.79,15.07,2.65,22.61v11.42c-.13,1.09-.31,2.17-.37,3.26a160.68,160.68,0,0,1-45.53,103.69c-1.29,1.32-1.24,2,0,3.39,4.32,4.77,8.71,9.51,12.63,14.61a156.68,156.68,0,0,1,30.54,69.18c1.36,7.64,1.85,15.43,2.74,23.15v11.42c-.12.91-.24,1.81-.35,2.72-.88,7.36-1.31,14.81-2.71,22.07-7,36.54-24.61,67.2-52.67,91.6-28.22,24.54-61.23,37.56-98.59,39.45A160.9,160.9,0,0,1,901.59,830.3c-1.24-1.22-2-1.25-3.25,0-3.66,3.45-7.32,6.94-11.27,10-39.07,30.65-83.21,41.91-132,32.82-42.47-7.91-76.5-30-101.45-65.23C628.19,772,619.19,731.83,626,688.36c5.15-32.83,19.57-61.25,42.38-85.4,2.78-2.94,2.75-2.86,0-5.86-37.9-41.42-51.93-89.87-40.94-144.82,8.55-42.7,31.88-76.23,67.79-100.81A156.7,156.7,0,0,1,768,324.91c4-.43,7.94-.73,11.9-1.09h11.42c.79.11,1.57.24,2.36.33,7.12.82,14.32,1.21,21.35,2.51a158.79,158.79,0,0,1,83.25,43.06c1.33,1.28,2.06,1.29,3.38,0A156.55,156.55,0,0,1,934,345.25a159.58,159.58,0,0,1,62.72-20.34C1000.67,324.49,1004.65,324.18,1008.61,323.82ZM1010.88,792c10.87,0,18.79-1.19,26.51-3.65a78.73,78.73,0,0,0,54.92-82.11,75.41,75.41,0,0,0-20.93-47c-10.93-11.45-22.28-22.51-33.5-33.7-7-7-11.11-15.37-11.51-25.34-.46-11.17,3.54-20.62,11.43-28.5,10.39-10.36,20.81-20.68,31.11-31.13,18.68-18.95,26.54-41.73,22.83-68.06a78.35,78.35,0,0,0-71.53-67c-23.2-1.92-43.58,5.16-60.52,21.12-11.47,10.81-22.42,22.19-33.57,33.35-7,7-15.28,11-25.18,11.45-11.24.48-20.74-3.55-28.66-11.5-10.35-10.39-20.65-20.84-31.13-31.1-19.8-19.39-43.53-27.21-70.8-22.25-40.28,7.33-67.6,43.54-64.21,84.33A75.5,75.5,0,0,0,727.19,538c10.95,11.43,22.3,22.49,33.5,33.68,7,7,11,15.31,11.39,25.21.45,11.17-3.55,20.63-11.44,28.5-10.38,10.36-20.83,20.66-31.1,31.13-19.41,19.79-27.27,43.5-22.34,70.77,7.3,40.36,43.4,67.61,84.45,64.28a74.83,74.83,0,0,0,46.7-20.72c11.57-11,22.69-22.45,34-33.74,7-7,15.29-11,25.18-11.45,11.17-.48,20.65,3.48,28.53,11.37q15.62,15.63,31.26,31.24C972.86,783.84,991.69,791.64,1010.88,792Z"/></svg>