<?xml version="1.0" encoding="UTF-8"?>
<svg id="a" data-name="레이어 1" xmlns="http://www.w3.org/2000/svg" width="14.583" height="19.077" viewBox="0 0 14.583 19.077">
  <polygon points="7.728 10.565 7.228 11.555 6.578 12.825 6.148 13.675 4.778 16.375 3.708 16.375 5.508 12.825 5.938 11.975 6.648 10.565 7.728 10.565" stroke-width="0"/>
  <polygon points="7.728 10.565 7.228 11.555 6.578 12.825 6.148 13.675 4.778 16.375 3.708 16.375 5.508 12.825 5.938 11.975 6.648 10.565 7.728 10.565" stroke-width="0"/>
  <polygon points="8.349 16.375 7.28 16.375 5.219 13.675 4.58 12.825 2.859 10.565 3.929 10.565 5.009 11.975 5.65 12.825 8.349 16.375" stroke-width="0"/>
  <polygon points="9.375 13.685 8.305 13.685 7.225 11.555 6.715 10.565 7.795 10.565 9.375 13.685" stroke-width="0"/>
  <polygon points="9.155 10.566 9.645 11.526 8.565 11.526 8.075 10.566 9.155 10.566" stroke-width="0"/>
  <polygon points="10.397 13.072 9.327 13.072 8.797 12.031 9.867 12.031 10.397 13.072" stroke-width="0"/>
  <rect x="6.812" y="5.284" width=".96" height="8.509" transform="translate(-2.247 16.83) rotate(-90)" stroke-width="0"/>
  <rect x="6.812" y="2.179" width=".96" height="8.509" transform="translate(.858 13.725) rotate(-90)" stroke-width="0"/>
  <rect x="6.812" y="6.511" width=".96" height="3.507" stroke-width="0"/>
  <rect x="10.586" y="6.433" width=".96" height="8.854" stroke-width="0"/>
  <rect x="3.037" y="6.433" width=".96" height="3.585" stroke-width="0"/>
  <polygon points="7.772 13.819 7.772 14.914 11.546 16.382 11.546 15.287 7.772 13.819" stroke-width="0"/>
</svg>