<?xml version="1.0" encoding="UTF-8"?>
<svg id="a" data-name="레이어 1" xmlns="http://www.w3.org/2000/svg" width="14.583" height="19.077" viewBox="0 0 14.583 19.077">
  <path d="M13.386,13.529c0,1.57-1.27,2.84-2.84,2.84s-2.85-1.27-2.85-2.84v-7.58h.96v7.58c0,1.04.85,1.88,1.89,1.88s1.88-.84,1.88-1.88h.96Z" stroke-width="0"/>
  <path d="M8.656,8.799c0,.85-.37,1.61-.96,2.13-.5.44-1.16.71-1.88.71-1.57,0-2.85-1.27-2.85-2.84v-2.85h.96v2.85c0,1.04.85,1.88,1.89,1.88s1.88-.84,1.88-1.88h.96Z" stroke-width="0"/>
  <polygon points="7.315 5.953 6.221 5.953 2.966 16.371 4.06 16.371 7.315 5.953" stroke-width="0"/>
  <path d="M13.093,9.839c-1.483,1.8-6.627,5.28-8.67,6.53h-1.46c4.936-3.014,9.47-7.05,9.47-7.05l.66.52Z" stroke-width="0"/>
  <path d="M12.173,7.849c-.67,0-1.21.54-1.21,1.21,0,.53.34.98.81,1.14.12.05.26.07.4.07.34,0,.64-.13.86-.35.02-.03.04-.05.06-.08.18-.21.29-.48.29-.78,0-.67-.54-1.21-1.21-1.21ZM12.463,9.269c-.01.02-.02.03-.03.05-.07.06-.16.1-.26.1-.2,0-.36-.16-.36-.36s.16-.36.36-.36.36.16.36.36c0,.08-.03.15-.07.21Z" stroke-width="0"/>
</svg>