<?xml version="1.0" encoding="UTF-8"?>
<svg id="a" data-name="레이어 1" xmlns="http://www.w3.org/2000/svg" width="14.583" height="19.077" viewBox="0 0 14.583 19.077">
  <path d="M12.624,13.528c0,1.57-1.27,2.84-2.84,2.84s-2.85-1.27-2.85-2.84v-7.58h.96v7.58c0,1.04.85,1.88,1.89,1.88s1.88-.84,1.88-1.88h.96Z" stroke-width="0"/>
  <path d="M7.894,8.798c0,.85-.37,1.61-.96,2.13-.5.44-1.16.71-1.88.71-1.57,0-2.85-1.27-2.85-2.84v-2.85h.96v2.85c0,1.04.85,1.88,1.89,1.88s1.88-.84,1.88-1.88h.96Z" stroke-width="0"/>
  <rect x="5.049" y="5.953" width="1.094" height="8.756" stroke-width="0"/>
  <path d="M4.468,13.04c-.92,0-1.67.74-1.67,1.67,0,.92.75,1.67,1.67,1.67.93,0,1.67-.75,1.67-1.67,0-.93-.74-1.67-1.67-1.67ZM4.468,15.29c-.32,0-.58-.26-.58-.58s.26-.58.58-.58.58.26.58.58-.26.58-.58.58Z" stroke-width="0"/>
</svg>