<?xml version="1.0" encoding="UTF-8"?>
<svg id="a" data-name="레이어 1" xmlns="http://www.w3.org/2000/svg" width="14.583" height="19.077" viewBox="0 0 14.583 19.077">
  <polygon points="8.364 3.878 7.192 3.878 6.606 5.719 7.485 5.719 8.364 3.878" stroke-width="0"/>
  <g>
    <polygon points="10.774 5.949 10.703 6.049 10.703 6.059 9.224 8.629 4.764 16.369 3.644 16.369 3.714 16.249 5.194 13.679 9.664 5.949 10.774 5.949" stroke-width="0"/>
    <path d="M10.734,16.359l-1.02.01s-.95-3.57-.49-7.74c.09-.87.25-1.77.49-2.67l1.02-.01c-.01.03-.02.07-.03.1v.01c-1.34,5.16.03,10.3.03,10.3Z" stroke-width="0"/>
    <path d="M3.68,5.963s1.392,5.212,0,10.406l1.02-.009c1.392-5.194,0-10.406,0-10.406l-1.02.009Z" stroke-width="0"/>
  </g>
</svg>