<?xml version="1.0" encoding="UTF-8"?>
<svg id="a" data-name="레이어 1" xmlns="http://www.w3.org/2000/svg" width="14.583" height="19.077" viewBox="0 0 14.583 19.077">
  <polygon points="8.086 5.963 6.812 5.952 3.674 11.169 4.948 11.18 8.086 5.963" stroke-width="0"/>
  <rect x="6.812" y="4.949" width=".96" height="7.235" transform="translate(15.858 1.274) rotate(90)" stroke-width="0"/>
  <rect x="9.949" y="8.086" width=".96" height="3.617" transform="translate(20.858 19.789) rotate(180)" stroke-width="0"/>
  <polygon points="8.086 16.383 6.812 16.373 3.674 11.169 4.948 11.18 8.086 16.383" stroke-width="0"/>
  <polygon points="3.674 16.383 4.948 16.373 8.086 11.169 6.812 11.18 3.674 16.383" stroke-width="0"/>
  <polygon points="9.635 15.427 10.909 15.417 8.086 11.169 6.812 11.18 9.635 15.427" stroke-width="0"/>
  <polygon points="9.516 11.165 10.186 12.175 8.896 12.175 8.236 11.185 9.516 11.165" stroke-width="0"/>
  <polygon points="10.919 13.288 9.649 13.298 8.979 12.288 10.259 12.288 10.919 13.288" stroke-width="0"/>
</svg>