<?xml version="1.0" encoding="UTF-8"?>
<svg id="a" data-name="레이어 1" xmlns="http://www.w3.org/2000/svg" width="14.583" height="19.077" viewBox="0 0 14.583 19.077">
  <path d="M8.767,8.803c0,.85-.37,1.61-.96,2.13-.5.44-1.16.71-1.88.71-1.57,0-2.85-1.27-2.85-2.84v-2.85h.96v2.85c0,1.04.85,1.88,1.89,1.88s1.88-.84,1.88-1.88h.96Z" stroke-width="0"/>
  <rect x="7.807" y="5.953" width=".96" height="10.418" stroke-width="0"/>
  <polygon points="11.084 10.103 10.014 10.103 7.904 5.953 8.984 5.953 11.084 10.103" stroke-width="0"/>
  <polygon points="10.494 5.953 10.984 6.913 9.904 6.913 9.414 5.953 10.494 5.953" stroke-width="0"/>
  <polygon points="12.072 9.068 11.002 9.068 10.472 8.028 11.542 8.028 12.072 9.068" stroke-width="0"/>
</svg>