<?xml version="1.0" encoding="UTF-8"?>
<svg id="a" data-name="레이어 1" xmlns="http://www.w3.org/2000/svg" width="14.583" height="19.077" viewBox="0 0 14.583 19.077">
  <rect x="4.305" y="10.682" width=".96" height="5.689" stroke-width="0"/>
  <rect x="9.4" y="10.682" width=".96" height="5.689" stroke-width="0"/>
  <rect x="6.853" y="8.615" width=".96" height="5.095" transform="translate(18.495 3.83) rotate(90)" stroke-width="0"/>
  <rect x="6.853" y="13.355" width=".96" height="5.095" transform="translate(23.235 8.569) rotate(90)" stroke-width="0"/>
  <rect x="6.853" y="10.985" width=".96" height="5.095" transform="translate(20.865 6.199) rotate(90)" stroke-width="0"/>
  <polygon points="10.54 5.953 5.623 10.289 4.125 10.289 9.032 5.953 10.54 5.953" stroke-width="0"/>
  <path d="M10.54,10.293s-1.392-2.173,0-4.339l-1.02.004c-1.392,2.166,0,4.339,0,4.339l1.02-.004Z" stroke-width="0"/>
  <path d="M4.125,5.957s1.392,2.173,0,4.339l1.02-.004c1.392-2.166,0-4.339,0-4.339l-1.02.004Z" stroke-width="0"/>
</svg>