<?xml version="1.0" encoding="UTF-8"?>
<svg id="a" data-name="레이어 1" xmlns="http://www.w3.org/2000/svg" width="14.583" height="19.077" viewBox="0 0 14.583 19.077">
  <polygon points="8.877 5.953 3.587 16.371 2.517 16.371 7.797 5.953 8.877 5.953" stroke-width="0"/>
  <polygon points="8.877 5.953 3.587 16.371 2.517 16.371 7.797 5.953 8.877 5.953" stroke-width="0"/>
  <polygon points="2.517 5.953 10.453 16.371 11.523 16.371 3.597 5.953 2.517 5.953" stroke-width="0"/>
  <polygon points="10.988 10.099 9.918 10.099 7.808 5.949 8.888 5.949 10.988 10.099" stroke-width="0"/>
  <polygon points="10.398 5.949 10.888 6.909 9.808 6.909 9.318 5.949 10.398 5.949" stroke-width="0"/>
  <polygon points="11.977 9.064 10.907 9.064 10.377 8.024 11.447 8.024 11.977 9.064" stroke-width="0"/>
</svg>