<?xml version="1.0" encoding="UTF-8"?>
<svg id="a" data-name="레이어 1" xmlns="http://www.w3.org/2000/svg" width="14.583" height="19.077" viewBox="0 0 14.583 19.077">
  <polygon points="9.708 5.953 4.418 16.371 3.348 16.371 8.628 5.953 9.708 5.953" stroke-width="0"/>
  <polygon points="9.708 5.953 4.418 16.371 3.348 16.371 8.628 5.953 9.708 5.953" stroke-width="0"/>
  <polygon points="3.348 5.953 11.284 16.371 12.354 16.371 4.428 5.953 3.348 5.953" stroke-width="0"/>
  <polygon points="11.819 10.098 10.749 10.098 8.639 5.948 9.719 5.948 11.819 10.098" stroke-width="0"/>
  <polygon points="11.229 5.948 11.719 6.908 10.639 6.908 10.149 5.948 11.229 5.948" stroke-width="0"/>
  <polygon points="12.808 9.063 11.738 9.063 11.208 8.023 12.278 8.023 12.808 9.063" stroke-width="0"/>
  <rect x="4.203" y="15.421" width="7.355" height=".958" stroke-width="0"/>
</svg>