<?xml version="1.0" encoding="UTF-8"?>
<svg id="a" data-name="레이어 1" xmlns="http://www.w3.org/2000/svg" width="14.583" height="19.077" viewBox="0 0 14.583 19.077">
  <polygon points="8.423 5.953 7.292 5.953 3.674 11.95 4.806 11.95 8.423 5.953" stroke-width="0"/>
  <rect x="6.812" y="3.776" width=".96" height="7.235" transform="translate(14.685 .102) rotate(90)" stroke-width="0"/>
  <rect x="6.812" y="5.921" width=".96" height="7.235" transform="translate(16.83 2.247) rotate(90)" stroke-width="0"/>
  <polygon points="8.423 16.371 7.292 16.371 3.674 11.95 4.806 11.95 8.423 16.371" stroke-width="0"/>
  <polygon points="3.674 16.371 4.917 16.371 9.212 11.162 7.969 11.162 3.674 16.371" stroke-width="0"/>
  <polygon points="10.909 15.422 9.212 11.162 8.305 11.162 10.003 15.422 10.909 15.422" stroke-width="0"/>
  <polygon points="10.263 11.16 10.533 11.84 9.743 11.84 9.473 11.16 10.263 11.16" stroke-width="0"/>
  <polygon points="11.713 14.741 10.923 14.741 10.653 14.061 11.443 14.061 11.713 14.741" stroke-width="0"/>
</svg>