<?xml version="1.0" encoding="UTF-8"?>
<svg id="a" data-name="레이어 1" xmlns="http://www.w3.org/2000/svg" width="14.583" height="19.077" viewBox="0 0 14.583 19.077">
  <path d="M12.949,13.53c0,1.57-1.27,2.84-2.84,2.84s-2.85-1.27-2.85-2.84v-7.58h.96v7.58c0,1.04.85,1.88,1.89,1.88s1.88-.84,1.88-1.88h.96Z" stroke-width="0"/>
  <path d="M8.219,8.8c0,.85-.37,1.61-.96,2.13-.5.44-1.16.71-1.88.71-1.57,0-2.85-1.27-2.85-2.84v-2.85h.96v2.85c0,1.04.85,1.88,1.89,1.88s1.88-.84,1.88-1.88h.96Z" stroke-width="0"/>
  <polygon points="6.879 5.954 5.785 5.954 2.529 16.372 3.623 16.372 6.879 5.954" stroke-width="0"/>
  <path d="M12.657,9.84c-1.483,1.8-6.627,5.28-8.67,6.53h-1.46c4.936-3.014,9.47-7.05,9.47-7.05l.66.52Z" stroke-width="0"/>
  <rect x="4.578" y="5.707" width=".96" height="1.453" transform="translate(11.491 1.375) rotate(90)" stroke-width="0"/>
</svg>