<?xml version="1.0" encoding="UTF-8"?>
<svg id="a" data-name="레이어 1" xmlns="http://www.w3.org/2000/svg" width="14.583" height="19.077" viewBox="0 0 14.583 19.077">
  <path d="M12.949,13.532c0,1.57-1.27,2.84-2.84,2.84s-2.85-1.27-2.85-2.84v-7.58h.96v7.58c0,1.04.85,1.88,1.89,1.88s1.88-.84,1.88-1.88h.96Z" stroke-width="0"/>
  <path d="M8.219,8.802c0,.85-.37,1.61-.96,2.13-.5.44-1.16.71-1.88.71-1.57,0-2.85-1.27-2.85-2.84v-2.85h.96v2.85c0,1.04.85,1.88,1.89,1.88s1.88-.84,1.88-1.88h.96Z" stroke-width="0"/>
  <path d="M11.666,5.625c-.71,0-1.28.58-1.28,1.28,0,.71.57,1.29,1.28,1.29s1.28-.58,1.28-1.29c0-.7-.57-1.28-1.28-1.28ZM11.666,7.375c-.25,0-.46-.21-.46-.46s.21-.46.46-.46c.26,0,.46.21.46.46s-.2.46-.46.46Z" stroke-width="0"/>
</svg>