<?xml version="1.0" encoding="UTF-8"?>
<svg id="a" data-name="레이어 1" xmlns="http://www.w3.org/2000/svg" width="14.583" height="19.077" viewBox="0 0 14.583 19.077">
  <polygon points="9.487 5.949 9.417 6.049 9.417 6.059 7.937 8.629 3.477 16.369 2.357 16.369 2.427 16.249 3.907 13.679 8.377 5.949 9.487 5.949" stroke-width="0"/>
  <path d="M9.447,16.359l-1.02.01s-.95-3.57-.49-7.74c.09-.87.25-1.77.49-2.67l1.02-.01c-.01.03-.02.07-.03.1v.01c-1.34,5.16.03,10.3.03,10.3Z" stroke-width="0"/>
  <path d="M2.393,5.963s1.392,5.212,0,10.406l1.02-.009c1.392-5.194,0-10.406,0-10.406l-1.02.009Z" stroke-width="0"/>
</svg>