<svg xmlns="http://www.w3.org/2000/svg" width="2160" height="1440" viewBox="0 0 2160 1440">
  <rect width="2160" height="1440" fill="#080535"/>
  <g>
    <polygon points="1636.908 294.812 1669.295 394.49 1774.102 394.49 1689.311 456.094 1721.698 555.771 1636.908 494.167 1552.117 555.771 1584.504 456.094 1499.713 394.49 1604.52 394.49 1636.908 294.812" fill="#f4c500"/>
    <polygon points="1017.626 974.564 1025.926 1000.107 1052.783 1000.107 1031.055 1015.893 1039.354 1041.436 1017.626 1025.65 995.898 1041.436 1004.198 1015.893 982.47 1000.107 1009.327 1000.107 1017.626 974.564" fill="#f4c500"/>
    <polygon points="630.347 791.21 638.646 816.753 665.504 816.753 643.776 832.539 652.075 858.082 630.347 842.296 608.619 858.082 616.918 832.539 595.19 816.753 622.047 816.753 630.347 791.21" fill="#f4c500"/>
    <polygon points="771.664 593.545 779.963 619.088 806.82 619.088 785.092 634.875 793.392 660.417 771.664 644.631 749.936 660.417 758.235 634.875 736.507 619.088 763.364 619.088 771.664 593.545" fill="#f4c500"/>
    <polygon points="421.055 1078.316 429.354 1103.858 456.212 1103.858 434.484 1119.645 442.783 1145.188 421.055 1129.401 399.327 1145.188 407.626 1119.645 385.898 1103.858 412.756 1103.858 421.055 1078.316" fill="#f4c500"/>
  </g>
</svg>
