<?xml version="1.0" encoding="utf-8"?>
<!-- Generator: Adobe Illustrator 26.5.0, SVG Export Plug-In . SVG Version: 6.00 Build 0)  -->
<svg version="1.1" id="레이어_1" xmlns="http://www.w3.org/2000/svg" xmlns:xlink="http://www.w3.org/1999/xlink" x="0px"
	 y="0px" viewBox="0 0 36 36" style="enable-background:new 0 0 36 36;" xml:space="preserve">
<style type="text/css">
	.st0{fill:#2C2C2C;}
	.st1{fill:#FFFFFF;}
</style>
<path d="M36,9v18c0,1.8-1.2,3.2-2.7,3.8c-0.2,0.1-0.4,0.1-0.5,0.1C32.5,31,32.2,31,32,31H4c-2.2,0-4-1.8-4-4V9c0-0.3,0-0.5,0.1-0.8
	c0-0.1,0.1-0.2,0.1-0.4l0,0c0.2-0.5,0.4-0.9,0.7-1.3C1,6.4,1,6.3,1.1,6.2c0.1,0,0.2-0.1,0.3-0.2C2.1,5.4,3,5,4,5h28
	C34.2,5,36,6.8,36,9z"/>
<path class="st0" d="M0.9,6.5C0.6,6.9,0.3,7.3,0.2,7.8C0.3,7.3,0.6,6.9,0.9,6.5z"/>
<g>
	<path d="M36,9v9H13.3V5H32C34.2,5,36,6.8,36,9z"/>
	<path class="st1" d="M13.3,5v13H0V9c0-0.3,0-0.5,0.1-0.8c0-0.1,0.1-0.2,0.1-0.4l0,0c0.2-0.5,0.4-0.9,0.7-1.3C1,6.4,1,6.3,1.1,6.2
		c0.1,0,0.2-0.1,0.3-0.2C2.1,5.4,3,5,4,5H13.3z"/>
	<path class="st1" d="M36,18v9c0,1.8-1.2,3.2-2.7,3.8c-0.2,0.1-0.4,0.1-0.5,0.1C32.5,31,32.2,31,32,31H13.3V18H36z"/>
	<path d="M13.3,18v13H4c-2.2,0-4-1.8-4-4v-9H13.3z"/>
</g>
<g>
	<rect x="10.1" y="5" class="st1" width="6.3" height="26"/>
	<rect x="10.6" y="5" width="5.3" height="26"/>
	<rect x="11.3" y="5" class="st1" width="4" height="26"/>
	<rect x="12.1" y="5" width="2.3" height="26"/>
</g>
<g>
	<rect x="0" y="14.8" class="st1" width="36" height="6.3"/>
	<rect x="0" y="15.4" width="36" height="5.3"/>
	<rect x="0" y="16" class="st1" width="36" height="4"/>
	<rect x="0" y="16.9" width="36" height="2.3"/>
</g>
<g>
	<circle class="st1" cx="13.3" cy="18" r="6.7"/>
	<circle cx="13.3" cy="18" r="6.3"/>
	<circle class="st1" cx="13.3" cy="18" r="6.1"/>
	<circle cx="13.3" cy="18" r="5.8"/>
	<circle class="st1" cx="13.3" cy="18" r="5.4"/>
</g>
<g>
	<path d="M17.6,20.4c-0.8-0.3-1.7-0.6-2.6-0.7c0.1,0.9,0.4,1.8,0.7,2.6h0.4c-0.3-0.7-0.5-1.4-0.6-2.1c0.7,0.1,1.4,0.4,2.1,0.6V20.4z
		 M15.5,15.8c0.1-0.7,0.4-1.4,0.6-2.1h-0.4c-0.3,0.8-0.6,1.7-0.7,2.6c0.9-0.1,1.8-0.4,2.6-0.7v-0.4C16.9,15.4,16.2,15.6,15.5,15.8z
		 M10.4,13.6c0.3,0.7,0.5,1.4,0.6,2.1c-0.7-0.1-1.4-0.4-2.1-0.6v0.4c0.8,0.3,1.7,0.6,2.6,0.7c-0.1-0.9-0.4-1.8-0.7-2.6H10.4z
		 M8.9,20.4v0.4c0.7-0.3,1.4-0.5,2.1-0.6c-0.1,0.7-0.4,1.4-0.6,2.1h0.4c0.3-0.8,0.6-1.7,0.7-2.6C10.6,19.9,9.8,20.1,8.9,20.4z"/>
	<g>
		<path d="M17.6,16.2v3.6c-0.8-0.3-1.7-0.5-2.5-0.6L14.3,19l0.1,0.8c0.1,0.9,0.3,1.7,0.6,2.5h-3.6c0.3-0.8,0.5-1.7,0.6-2.5l0.1-0.8
			l-0.8,0.1c-0.9,0.1-1.7,0.3-2.5,0.6v-3.6c0.8,0.3,1.7,0.5,2.5,0.6l0.8,0.1L12,16c-0.1-0.9-0.3-1.7-0.6-2.5H15
			c-0.3,0.8-0.5,1.7-0.6,2.5l-0.1,1l0.8-0.1C16,16.7,16.8,16.5,17.6,16.2z"/>
	</g>
</g>
</svg>
