<?xml version="1.0" encoding="UTF-8"?>
<svg id="a" data-name="레이어 1" xmlns="http://www.w3.org/2000/svg" width="2160" height="1440" viewBox="0 0 2160 1440">
  <g>
    <rect width="1080" height="1440" fill="#00d8ff"/>
    <path d="M500.738,536.85c-24.055,12.605-48.045,24.898-71.779,37.668-50.463,27.152-111.99,.32-124.69-55.65-7.942-35,2.621-65.312,31.418-87.127,28.354-21.48,59.873-23.687,91.571-7.666,24.206,12.234,47.534,26.203,71.265,39.38,2.877,1.597,5.824,3.067,11.072,5.819-14.966-28.168-28.623-54.22-42.602-80.097-17.503-32.401-16.927-64.235,4.694-94.119,21.006-29.033,50.81-40.195,85.561-33.309,36.063,7.146,58.78,30.264,66.889,66.217,5.255,23.3-.105,44.947-12.58,65.535-14.987,24.735-28.544,50.336-42.608,75.361,2.484,2.542,3.969,.917,5.485,.121,25.115-13.192,50.478-25.938,75.269-39.714,37.575-20.879,83.162-12.515,110.228,20.981,25.214,31.204,24.363,78.25-1.96,108.464-28.422,32.623-73.856,39.311-110.879,17.058-23.686-14.237-47.979-27.464-73.355-39.803,12.871,24.362,25.594,48.802,38.642,73.068,27.439,51.032-.814,113.635-57.596,125.089-35.196,7.1-65.216-4.162-86.439-33.393-20.666-28.464-22.364-59.567-6.157-90.854,11.626-22.445,24.417-44.286,36.582-66.454,.953-1.736,3.025-3.197,1.97-6.574Z" fill="#fd5761"/>
    <circle cx="540" cy="1030.609" r="155.4"/>
  </g>
  <g>
    <rect x="1080" width="1080" height="1440" fill="#ffe200"/>
    <g>
      <path d="M1928.41,720c0,105.36-53.21,202.16-140.57,258.78v461.22h-335.68v-461.22c-87.36-56.62-140.57-153.42-140.57-258.78s53.21-202.16,140.57-258.78V0h335.68V461.22c87.36,56.62,140.57,153.42,140.57,258.78Z" fill="#fc6c01"/>
      <path d="M1921.11,534.93c-23.2-37.69-53.21-70.58-88.27-97.06V0h-90V486.95c83.59,44.15,140.57,131.94,140.57,233.05s-56.98,188.9-140.57,233.05v486.95h90v-437.87c35.06-26.48,65.07-59.37,88.27-97.06,34.22-55.57,52.3-119.56,52.3-185.07s-18.08-129.5-52.3-185.07ZM1407.16,0V437.87c-35.06,26.48-65.07,59.37-88.27,97.06-34.22,55.57-52.3,119.56-52.3,185.07s18.08,129.5,52.3,185.07c23.2,37.69,53.21,70.58,88.27,97.06v437.87h90v-486.95c-83.59-44.15-140.57-131.94-140.57-233.05s56.98-188.9,140.57-233.05V0h-90Z" fill="#fff"/>
    </g>
    <g>
      <path d="M1627.703,514.515c7.816,43.884,32.508,71.08,71.606,85.832,15.287,5.768,30.817,10.888,46.145,16.55,40.933,15.119,69.371,41.742,78.471,85.944,.725,3.522,1.094,7.117,.838,11.24-13.385-18.393-28.931-34.096-48.292-46.013-19.004-11.697-39.829-19.377-59.919-28.683-1.221-.565-3.85-.919-3.868-.85-1.759,6.603-6.401,4.497-8.6,1.657-2.447-3.16,3.862-4.235,4.145-7.891-4.335-2.997-19.038,4.477-10.559-11.337-8.956,.189-16.019-1.015-11.638-13.403-9.112,4.374-13.512,1.553-16.438-6.19-1.926-5.096-4.85-9.278-12.214-4.221-9.249,6.352-5.695-7.331-10.847-8.258-19.36,19.09-16.689,27.08-38.96-.458-3.456,.858-3.632,4.285-4.902,6.684-1.668,3.151-3.355,5.028-6.409,1.867-7.604-7.869-10.321-.5-13.476,4.395-5.064,7.855-4.911,7.953-14.605,5.261-.206,6.341,1.284,14.561-9.573,12.34-1.282-.262-3.495,.271-2.781,2.128,5.734,14.92-7.753,5.38-11.605,11.043-.303,1.665,4.629,2.246,5.005,5.643-2.504,1.529-6.239,5.092-7.983,1.386-2.287-4.859-4.306-2.379-6.66-1.393-19.756,8.269-39.985,15.375-58.658,26.201-19.818,11.49-36.157,26.523-49.465,45.995-1.795-24.271,16.867-58.27,41.335-75.832,13.679-9.818,28.745-16.869,44.878-21.873,15.255-4.732,30.511-9.613,45.367-15.446,39.594-15.547,59.672-39.202,69.66-82.316Z" fill="#070200"/>
      <path d="M1751.773,887.16c.272-37.631-8.138-72.421-27.777-104.291-7.867-12.767-18.251-23.526-27.708-35.03-4.958-6.031-3.52-18.317,2.706-22.919,4.62-3.416,7.438,.925,10.292,3.169,26.135,20.549,42.262,47.501,50.288,79.526,1.039,4.147,1.843,8.352,3.074,13.986,2.889-17.397-2.821-39.985-14.596-59.677-9.613-16.076-21.944-29.805-36.372-41.719-4.201-3.469-3.188-17.011,1.296-19.666,2.637-1.561,3.987,.816,5.5,2.087,14.201,11.919,28.897,23.319,41.71,36.771,15.763,16.549,23.394,36.625,23.25,59.368-.208,33.037-12.888,61.812-31.663,88.396Z" fill="#070200"/>
      <path d="M1495.1,887.092c-17.777-28.839-29.478-56.35-30.129-87.445-.554-26.456,8.523-49.204,28.389-66.975,11.635-10.407,23.839-20.199,36.113-29.854,2.375-1.868,5.935-8.654,8.77-2.924,2.291,4.629,9.675,10.663,1.915,17.223-6.099,5.156-12.42,10.124-17.996,15.809-21.451,21.87-36.243,47.094-38.032,78.529-.115,2.025,.274,4.079,.958,6.26,7.289-34.925,22.841-64.989,50.873-87.549,4.266-3.433,8.552-12.303,15.71-5.915,7.795,6.957,7.22,15.551,.386,23.365-9.081,10.385-18.824,20.205-26.497,31.777-19.381,29.23-28.986,61.47-29.93,96.413-.074,2.752-.254,5.501-.53,11.286Z" fill="#060200"/>
      <path d="M1440.12,796.589c-5.589-22.302-7.869-44.45-2.345-66.974,4.624-18.851,14.843-33.76,29.826-45.548,18.093-14.234,38.74-24.206,59.164-34.503,1.451-.732,2.814-2.324,4.862-.952,9.603,6.431,11.667,28.022,2.551,36.099-11.13,9.861-23.194,18.665-34.818,27.97-19.756,15.816-36.925,33.83-48.574,56.635-4.435,8.682-7.293,17.93-10.667,27.274Z" fill="#050100"/>
      <path d="M1720.983,649.754c16.679,9.023,32.529,17.781,48.03,27.279,39.279,24.067,50.305,59.827,44.372,103.05-.979,7.136-2.684,14.173-4.561,23.879-2.763-8.825-4.45-15.38-6.847-21.665-10.121-26.543-28.147-47.212-49.422-65.325-10.236-8.714-20.971-16.845-31.137-25.636-13.108-11.334-13.69-15.771-5.544-30.94,1.704-3.173,3.129-6.496,5.109-10.642Z" fill="#040100"/>
      <path d="M1532.087,922.679c-32.77-40.581-16.871-131.511,29.788-171.741,.675,10.633,4.176,19.162,13.023,24.961,5.105,3.346,.192,6.414-1.579,8.921-15.364,21.756-28.662,44.545-36.499,70.208-6.778,22.195-9.053,44.682-4.734,67.65Z" fill="#070200"/>
      <path d="M1713.017,923.876c10.172-50.526-8.604-93.495-35.427-134.196-4.477-6.793-7.751-11.661,1.69-17.088,6.933-3.986,6.871-12.335,8.799-20.344,17.634,17.22,29.641,37.056,36.378,59.895,9.134,30.967,10.92,62.189,.547,93.323-2.373,7.123-4.595,14.526-11.135,19.338-.285-.308-.569-.618-.852-.927Z" fill="#060200"/>
      <path d="M1803.522,630.962c-26.507-18.084-54.827-27.48-84.48-33.319-15.878-3.126-30.651-8.862-43.747-18.543-5.215-3.855-10.226-7.915-14.332-15.814,25.206,14.832,51.222,10.389,76.705,10.541,36.792,.219,57.169,15.801,65.175,49.949,.396,1.69,.346,3.484,.68,7.186Z" fill="#070200"/>
      <path d="M1591.654,564.518c-10.88,16.045-27.515,23.11-45.147,28.032-17.109,4.776-34.878,6.841-51.872,12.353-15.608,5.063-30.041,12.523-44.469,20.643,.102-24.057,19.682-47.733,42.929-52.624,13.725-2.888,27.5-1.68,41.293-.924,19.309,1.058,38.598,1.829,56.201-8.482,.355,.333,.71,.667,1.065,1.001Z" fill="#070200"/>
      <path d="M1669.157,796.302c40.86,53.826,38.628,114.603,8.308,145.715,0-13.852,.058-27.039-.012-40.225-.162-30.706-3.781-60.919-12.739-90.404-2.155-7.092-1.869-7.179,4.443-15.087Z" fill="#0a0300"/>
      <path d="M1566.845,939.225c-28.599-28.513-29.888-91.792,12.742-144.321,3.416,4.34,6.452,8.301,4.255,14.685-13.805,40.107-16.664,81.677-15.946,123.692,.033,1.949,1.067,4.276-1.051,5.944Z" fill="#070200"/>
      <path d="M1591.622,726.601c22.156,9.776,44.235,10.665,67.249,.744-.102,6.676-3.063,10.159-7.902,12.38-5.597,2.568-11.333,4.845-16.858,7.557-9.702,4.762-11.243,16.436-3.038,23.668,7.246,6.386,14.933,11.815,25.484,7.574,2.469-.993,5.24-1.202,6.221,2.142,1.247,4.254-.722,7.769-3.231,11.004-2.221,2.865-3.987,1.306-6.325-.285-25.062-17.058-33.535-17.187-57.644-1.005-2.147,1.441-3.861,3.661-6.289,.694-2.896-3.539-4.524-7.419-2.83-12.047,1.445-3.945,3.979-1.551,6.241-1.097,16.617,3.336,30.183-5.933,30.156-20.06-.011-5.613-2.141-8.707-7.071-10.765-5.344-2.23-10.537-4.828-15.755-7.352-5.124-2.478-9.044-5.832-8.408-13.153Z" fill="#140700"/>
      <path d="M1665.857,557.797c16.813-1.536,30.184-7.821,43.549-14.344,12.372-6.038,24.189-2.787,35.094,4.156,9.568,6.091,17.027,14.495,25.485,25.535-6-2.134-9.818-3.34-13.52-4.836-14.831-5.992-29.741-8.052-45.725-4.186-14.699,3.555-29.439,2.455-44.882-6.325Z" fill="#0c0400"/>
      <path d="M1486.225,568.603c5.739-8.976,12.545-16.025,20.567-21.69,13.498-9.531,27.706-12.237,42.82-3.404,11.265,6.584,23.203,11.457,38.254,12.992-11.469,7.39-22.73,9.691-33.478,7.154-23.368-5.516-45.858-5.541-68.163,4.949Z" fill="#0d0400"/>
      <path d="M1622.983,896.41c-7.289-11.848-8.032-24.955-9.181-37.837-1.031-11.563-1.011-23.218-1.891-34.798-.485-6.39,1.224-8.976,8.236-8.99,15.751-.03,15.815-.417,15.124,15.579-.69,15.967-1.971,31.905-4.912,47.616-1.184,6.323-3.139,12.647-7.377,18.431Z" fill="#070200"/>
      <path d="M1650.803,811.091c19.701,39.823,12.816,94.64-13.64,110.025,12.243-35.625,15.193-71.043,13.64-110.025Z" fill="#110600"/>
      <path d="M1608.614,921.549c-13.684-8.435-19.07-18.662-21.534-30.737-5.147-25.229-.253-49.559,7.516-73.828,.908,34.34,2.265,68.553,14.018,104.565Z" fill="#0c0400"/>
      <path d="M1589.143,700.493c1.123-4.48,2.385-8.931,3.341-13.447,2.363-11.166-2.91-19.146-13.945-21.844-3.101-.758-6.153-2.087-8.944-3.658-4.185-2.354-8.119-5.153-12.9-8.24,6.298-3.595,11.963-12.699,20.911-9.484,21.452,7.707,23.897,12.569,21.296,30.541-1.351,9.337-3.607,18.274-9.76,26.131Z" fill="#0d0400"/>
      <path d="M1697.526,657.666c-6.538,.027-11.545-1.32-14.373,4.536-.991,2.051-4.807,2.979-7.508,3.91-5.08,1.752-10.008,.402-13.664,8.293-2.63,5.678-1.854,10.183-2.665,15.184-.224,1.382-.034,2.832-.034,4.746-8.227-11.667-9.291-35.856-2.153-41.517,14.222-11.279,25.078-10.368,40.398,4.848Z" fill="#110600"/>
      <path d="M1692.319,499.012c-16.707,15.998-32.268,31.622-36.66,55.499-12.451-26.791,5.627-54.246,36.66-55.499Z" fill="#0d0400"/>
      <path d="M1580.417,549.099c-10.444-3.956-19.658-10.63-30.581-13.584-9.488-2.566-18.941-4.767-29.094-2.529,13.284-15.649,32.043-16.843,47.297-3.077,5.663,5.111,10.489,10.981,13.148,18.324-.255,.29-.512,.579-.77,.866Z" fill="#0d0400"/>
      <path d="M1598.841,554.322c-3.761-24.03-18.763-40.288-34.995-56.327,29.011-.711,47.751,29.257,34.995,56.327Z" fill="#0d0400"/>
      <path d="M1732.433,534.168c-22.937-.731-41.286,7.277-59.935,17.771,13.301-30.149,38.492-38.116,59.935-17.771Z" fill="#0c0400"/>
      <path d="M1590.589,563.517c.767-.357,1.534-.715,2.301-1.072,.578,1.282-.16,1.778-1.236,2.072-.355-.334-.71-.667-1.065-1Z" fill="#070200"/>
      <path d="M1581.188,548.234c.966,.665,1.565,1.385,.362,2.38-.377-.505-.755-1.009-1.132-1.514,.259-.287,.515-.576,.77-.866Z" fill="#0d0400"/>
      <path d="M1713.869,924.804c-.379,.515-.757,1.03-1.136,1.545-1.18-.973-.688-1.748,.288-2.469,.279,.306,.563,.615,.848,.924Z" fill="#060200"/>
    </g>
  </g>
</svg>