<?xml version="1.0" encoding="UTF-8"?>
<svg id="a" data-name="레이어 1" xmlns="http://www.w3.org/2000/svg" width="2160" height="1440" viewBox="0 0 2160 1440">
  <g>
    <rect x="796.561" y=".014" width="1363.454" height="719.975" transform="translate(2956.583 719.97) rotate(179.999)"/>
    <rect x="-.01" y=".03" width="796.542" height="719.975" transform="translate(796.531 720.025) rotate(179.998)" fill="#fff"/>
    <rect x="796.561" y="720.006" width="1363.454" height="719.975" transform="translate(2956.599 2159.953) rotate(179.999)" fill="#fff"/>
    <rect x="-.01" y="720.022" width="796.542" height="719.975" transform="translate(796.55 2160.008) rotate(179.998)"/>
  </g>
  <g>
    <rect x="606.234" y=".006" width="380.615" height="1439.988" fill="#fff"/>
    <rect x="637.862" y=".006" width="317.361" height="1439.988"/>
    <rect x="676.446" y=".006" width="240.192" height="1439.988" fill="#fff"/>
    <rect x="728.05" y=".006" width="136.985" height="1439.988"/>
  </g>
  <g>
    <rect x="889.683" y="-359.997" width="380.615" height="2159.995" transform="translate(1799.99 -359.99) rotate(90)" fill="#fff"/>
    <rect x="921.31" y="-359.997" width="317.361" height="2159.995" transform="translate(1799.99 -359.99) rotate(90)"/>
    <rect x="959.894" y="-359.997" width="240.192" height="2159.995" transform="translate(1799.99 -359.99) rotate(90)" fill="#fff"/>
    <rect x="1011.498" y="-359.997" width="136.985" height="2159.995" transform="translate(1799.99 -359.99) rotate(90)"/>
  </g>
  <g>
    <circle cx="796.542" cy="720" r="403.418" fill="#fff"/>
    <circle cx="796.542" cy="720" r="378.705"/>
    <circle cx="796.542" cy="720" r="364.057" fill="#fff"/>
    <circle cx="796.542" cy="720" r="350.459"/>
    <circle cx="796.542" cy="720" r="322.393" fill="#fff"/>
  </g>
  <g>
    <path d="M1057.6,864.593c-50.098-19.42-102.922-33.422-157.729-41.264,7.842,54.807,21.845,107.613,41.264,157.729h26.678c-16.64-41.194-29.262-83.874-37.724-127.511,43.636,8.462,86.317,21.084,127.511,37.706v-26.66Zm-127.511-278.141c8.462-43.636,21.084-86.335,37.724-127.511h-26.678c-19.42,50.116-33.422,102.94-41.264,157.729,54.807-7.842,107.631-21.845,157.729-41.264v-26.66c-41.193,16.623-83.874,29.244-127.511,37.706Zm-304.818-127.511c16.64,41.176,29.262,83.874,37.742,127.511-43.654-8.462-86.353-21.084-127.528-37.724v26.678c50.116,19.42,102.94,33.422,157.729,41.264-7.842-54.789-21.845-107.613-41.264-157.729h-26.678Zm-89.787,405.651v26.678c41.176-16.64,83.874-29.262,127.528-37.724-8.462,43.637-21.084,86.317-37.742,127.511h26.678c19.42-50.116,33.422-102.922,41.264-157.729-54.789,7.842-107.613,21.845-157.729,41.264Z"/>
    <path d="M1057.6,613.237v213.527c-49.337-18.11-100.515-31.015-152.701-38.485l-46.77-6.691,6.709,46.752c7.47,52.204,20.376,103.365,38.467,152.719h-213.527c18.11-49.354,31.015-100.515,38.485-152.719l6.692-46.752-46.752,6.691c-52.204,7.47-103.365,20.376-152.719,38.485v-213.527c49.354,18.11,100.515,31.015,152.719,38.485l46.752,6.691-6.692-46.77c-7.47-52.187-20.376-103.365-38.485-152.701h213.527c-18.092,49.337-30.997,100.514-38.467,152.701l-6.709,46.77,46.77-6.691c52.187-7.47,103.365-20.376,152.701-38.485Z"/>
  </g>
</svg>