<?xml version="1.0" encoding="utf-8"?>
<!-- Generator: Adobe Illustrator 26.5.0, SVG Export Plug-In . SVG Version: 6.00 Build 0)  -->
<svg version="1.1" id="레이어_1" xmlns="http://www.w3.org/2000/svg" xmlns:xlink="http://www.w3.org/1999/xlink" x="0px"
	 y="0px" viewBox="0 0 36 36" style="enable-background:new 0 0 36 36;" xml:space="preserve">
<style type="text/css">
	.st0{fill:#0088FE;}
	.st1{fill:#BE83FE;}
	.st2{fill:#BE84FE;}
</style>
<g>
	<g>
		<path class="st0" d="M36,21.9V27c0,2.2-1.8,4-4,4c0,0,0,0,0,0c-7.1,0-14.2,0-21.3,0c0-0.1,0.1-0.1,0.1-0.2c0.5-0.6,1-1.2,1.5-1.8
			c1.8-2.1,3.5-4.2,5.3-6.3c1.2-1.4,2.4-2.8,3.5-4.2c0.1-0.2,0.2-0.2,0-0.4c-2.3-2.3-4.6-4.6-6.9-6.9C14.2,11.1,14.1,11,14,11
			c-0.3,0.7-0.5,1.4-0.8,2.1c-0.9,2.4-1.7,4.7-2.6,7.1c-1,2.7-2,5.5-3,8.2C7.3,29.3,7,30.1,6.7,31H3.8C1.7,30.9,0,29.1,0,27v-0.4
			c0.8-2.2,1.5-4.3,2.3-6.5C3.2,17.8,4.1,15.4,5,13c0.8-2.2,1.6-4.5,2.4-6.7C7.6,5.9,7.8,5.5,7.8,5h11.3c0.1,0.1,0.1,0.2,0.2,0.2
			C24.9,10.8,30.5,16.3,36,21.9z"/>
		<path class="st1" d="M36,9v12.9c-5.5-5.5-11.1-11.1-16.6-16.6c-0.1-0.1-0.1-0.2-0.2-0.2c4.3,0,8.6,0,12.8,0c0,0,0,0,0.1,0
			C34.2,5,36,6.8,36,9z"/>
		<path class="st1" d="M7.8,5C7.8,5.5,7.6,5.9,7.4,6.3C6.6,8.5,5.8,10.8,5,13c-0.9,2.4-1.8,4.8-2.6,7.2c-0.8,2.2-1.6,4.3-2.3,6.5V9
			c0-2.2,1.7-3.9,3.9-4H7.8z"/>
		<path class="st2" d="M6.7,31c0.3-0.9,0.6-1.7,0.9-2.6c1-2.7,2-5.5,3-8.2c0.9-2.4,1.7-4.7,2.6-7.1c0.3-0.7,0.5-1.4,0.8-2.1
			c0.1,0,0.2,0.1,0.2,0.2c2.3,2.3,4.6,4.6,6.9,6.9c0.2,0.2,0.1,0.3,0,0.4c-1.2,1.4-2.4,2.8-3.5,4.2c-1.8,2.1-3.5,4.2-5.3,6.3
			c-0.5,0.6-1,1.2-1.5,1.8c-0.1,0.1-0.1,0.1-0.1,0.2C9.4,31,8.1,31,6.7,31z"/>
	</g>
</g>
</svg>
