<?xml version="1.0" encoding="UTF-8"?>
<svg id="b" data-name="레이어 2" xmlns="http://www.w3.org/2000/svg" width="160.716" height="103.141" xmlns:xlink="http://www.w3.org/1999/xlink" viewBox="0 0 160.716 103.141">
  <defs>
    <linearGradient id="d" data-name="무제 그라디언트 105" x1="34.444" y1="2.157" x2="34.444" y2="99.056" gradientUnits="userSpaceOnUse">
      <stop offset="0" stop-color="#2c2c2c"/>
      <stop offset=".496" stop-color="#aaa"/>
      <stop offset=".503" stop-color="#222"/>
      <stop offset="1" stop-color="#444"/>
    </linearGradient>
    <linearGradient id="e" data-name="무제 그라디언트 105" x1="80.359" y1="2.157" x2="80.359" y2="99.055" xlink:href="#d"/>
    <linearGradient id="f" data-name="무제 그라디언트 105" x1="126.272" y1="2.157" x2="126.272" y2="99.056" xlink:href="#d"/>
  </defs>
  <g id="c" data-name="레이어 1">
    <g>
      <g>
        <polygon points="2.829 51.571 51.571 2.828 66.06 17.317 31.806 51.571 66.06 85.824 51.571 100.313 2.829 51.571" fill="url(#d)" stroke-width="0"/>
        <path d="M51.571,5.657l11.66,11.66L28.977,51.571l34.254,34.254-11.66,11.66L5.657,51.571,51.571,5.657M51.571,0l-2.828,2.828L2.828,48.742l-2.828,2.828,2.828,2.828,45.914,45.914,2.828,2.828,2.828-2.828,11.66-11.66,2.828-2.828-2.828-2.828-31.425-31.425,31.425-31.425,2.828-2.828-2.828-2.828-11.66-11.66-2.828-2.828h0Z" stroke-width="0"/>
      </g>
      <g>
        <path d="M31.616,51.571L80.358,2.829l48.743,48.742-48.743,48.742L31.616,51.571ZM80.358,71.335l19.766-19.765-19.766-19.765-19.765,19.765,19.765,19.765Z" fill="url(#e)" stroke-width="0"/>
        <path d="M80.358,5.657l11.661,11.66h0s34.254,34.254,34.254,34.254l-34.254,34.253h0s-11.661,11.66-11.661,11.66l-11.66-11.66h0s-34.254-34.254-34.254-34.254l34.254-34.254,11.66-11.66M80.358,74.164l22.593-22.593-22.593-22.593-22.593,22.593,22.593,22.593M80.358,0l-2.828,2.828-11.66,11.66L31.616,48.742l-2.828,2.828,2.828,2.828,34.254,34.253,11.66,11.66,2.828,2.828,2.828-2.828,11.661-11.66,34.254-34.254,2.828-2.828-2.828-2.828L94.847,14.489l-11.66-11.66-2.828-2.828h0ZM63.421,51.571l16.937-16.936,16.936,16.936-16.936,16.936-16.937-16.936h0Z" stroke-width="0"/>
      </g>
      <g>
        <polygon points="94.657 85.824 128.911 51.571 94.657 17.317 109.146 2.828 157.887 51.571 109.146 100.313 94.657 85.824" fill="url(#f)" stroke-width="0"/>
        <path d="M109.146,5.657l45.913,45.914-45.913,45.914-11.661-11.66,34.254-34.254-34.254-34.254,11.661-11.66M109.146,0l-2.828,2.828-11.661,11.66-2.829,2.828,2.829,2.828,31.425,31.425-31.425,31.425-2.829,2.828,2.829,2.828,11.661,11.66,2.828,2.828,2.828-2.828,45.913-45.914,2.828-2.828-2.828-2.828L111.975,2.828,109.146,0h0Z" stroke-width="0"/>
      </g>
    </g>
  </g>
</svg>