<?xml version="1.0" encoding="UTF-8"?>
<svg id="b" data-name="레이어 2" xmlns="http://www.w3.org/2000/svg" width="322.124" height="91.827" viewBox="0 0 322.124 91.827">
  <g id="c" data-name="레이어 1">
    <g>
      <polygon points="132.275 91.827 86.361 45.914 132.275 0 143.936 11.66 109.682 45.914 143.936 80.167 132.275 91.827" stroke-width="0"/>
      <polygon points="103.488 91.827 57.574 45.914 103.488 0 115.149 11.66 80.895 45.914 115.149 80.167 103.488 91.827" stroke-width="0"/>
      <polygon points="74.701 91.827 28.787 45.914 74.701 0 86.361 11.66 52.108 45.914 86.361 80.167 74.701 91.827" stroke-width="0"/>
      <polygon points="45.914 91.827 0 45.914 45.914 0 57.574 11.66 23.32 45.914 57.574 80.167 45.914 91.827" stroke-width="0"/>
      <polygon points="276.21 0 322.124 45.914 276.21 91.827 264.55 80.167 298.803 45.914 264.55 11.66 276.21 0" stroke-width="0"/>
      <polygon points="132.275 91.827 120.615 80.167 154.869 45.914 120.615 11.66 132.275 0 178.19 45.914 132.275 91.827" stroke-width="0"/>
      <polygon points="161.064 91.827 149.403 80.167 183.657 45.914 149.403 11.66 161.064 0 206.976 45.914 161.064 91.827" stroke-width="0"/>
      <polygon points="189.85 91.827 178.19 80.167 212.444 45.914 178.19 11.66 189.85 0 235.763 45.914 189.85 91.827" stroke-width="0"/>
      <polygon points="218.637 91.827 206.976 80.167 241.23 45.914 206.976 11.66 218.637 0 264.55 45.914 218.637 91.827" stroke-width="0"/>
      <polygon points="247.424 91.827 235.763 80.167 270.017 45.914 235.763 11.66 247.424 0 293.337 45.914 247.424 91.827" stroke-width="0"/>
    </g>
  </g>
</svg>