<?xml version="1.0" encoding="UTF-8"?>
<svg id="b" data-name="레이어 2" xmlns="http://www.w3.org/2000/svg" width="275.864" height="103.141" xmlns:xlink="http://www.w3.org/1999/xlink" viewBox="0 0 275.864 103.141">
  <defs>
    <linearGradient id="d" data-name="무제 그라디언트 65" x1="92.018" y1="2.43" x2="92.018" y2="99.147" gradientUnits="userSpaceOnUse">
      <stop offset="0" stop-color="#ddd"/>
      <stop offset=".496" stop-color="#fff"/>
      <stop offset=".5" stop-color="#aaa"/>
      <stop offset="1" stop-color="#eee"/>
    </linearGradient>
    <linearGradient id="e" data-name="무제 그라디언트 65" x1="63.231" y1="2.43" x2="63.231" y2="99.147" xlink:href="#d"/>
    <linearGradient id="f" data-name="무제 그라디언트 65" x1="34.444" y1="2.43" x2="34.444" y2="99.147" xlink:href="#d"/>
    <linearGradient id="g" data-name="무제 그라디언트 65" x1="137.932" y1="2.43" x2="137.932" y2="99.147" xlink:href="#d"/>
    <linearGradient id="h" data-name="무제 그라디언트 65" x1="183.846" y1="2.43" x2="183.846" y2="99.147" xlink:href="#d"/>
    <linearGradient id="i" data-name="무제 그라디언트 65" x1="212.633" y1="2.43" x2="212.633" y2="99.147" xlink:href="#d"/>
    <linearGradient id="j" data-name="무제 그라디언트 65" x1="241.42" y1="2.43" x2="241.42" y2="99.147" xlink:href="#d"/>
  </defs>
  <g id="c" data-name="레이어 1">
    <g>
      <g>
        <polygon points="60.403 51.57 109.145 2.828 123.634 17.317 89.38 51.57 123.634 85.824 109.145 100.312 60.403 51.57" fill="url(#d)" stroke-width="0"/>
        <path d="M109.145,5.657l11.66,11.66-34.254,34.253,34.254,34.254-11.66,11.66-45.914-45.914L109.145,5.657M109.145,0l-2.828,2.828-45.914,45.914-2.828,2.828,2.828,2.828,45.914,45.914,2.828,2.828,2.828-2.828,11.66-11.66,2.828-2.828-2.828-2.828-31.425-31.425,31.425-31.425,2.828-2.828-2.828-2.828-11.66-11.66-2.828-2.828h0Z" stroke-width="0"/>
      </g>
      <g>
        <polygon points="31.616 51.57 80.358 2.828 94.846 17.317 60.593 51.57 94.846 85.824 80.358 100.312 31.616 51.57" fill="url(#e)" stroke-width="0"/>
        <path d="M80.358,5.657l11.66,11.66-34.254,34.253,34.254,34.254-11.66,11.66-45.914-45.914L80.358,5.657M80.358,0l-2.828,2.828L31.616,48.742l-2.828,2.828,2.828,2.828,45.914,45.914,2.828,2.828,2.828-2.828,11.66-11.66,2.828-2.828-2.828-2.828-31.425-31.425,31.425-31.425,2.828-2.828-2.828-2.828-11.66-11.66-2.828-2.828h0Z" stroke-width="0"/>
      </g>
      <g>
        <polygon points="2.829 51.57 51.571 2.828 66.059 17.317 31.805 51.57 66.059 85.824 51.571 100.312 2.829 51.57" fill="url(#f)" stroke-width="0"/>
        <path d="M51.571,5.657l11.66,11.66L28.977,51.571l34.254,34.254-11.66,11.66L5.657,51.571,51.571,5.657M51.571,0l-2.828,2.828L2.828,48.742l-2.828,2.828,2.828,2.828,45.914,45.914,2.828,2.828,2.828-2.828,11.66-11.66,2.828-2.828-2.828-2.828-31.425-31.425,31.425-31.425,2.828-2.828-2.828-2.828-11.66-11.66-2.828-2.828h0Z" stroke-width="0"/>
      </g>
      <g>
        <path d="M89.19,51.57L137.932,2.828l48.742,48.742-48.742,48.742-48.742-48.742ZM137.932,71.335l19.765-19.765-19.765-19.764-19.766,19.764,19.766,19.765Z" fill="url(#g)" stroke-width="0"/>
        <path d="M137.932,5.657l11.661,11.66h0s34.254,34.253,34.254,34.253l-34.254,34.253h0s-11.661,11.66-11.661,11.66l-11.66-11.66-34.254-34.254L137.932,5.657M137.932,74.164l22.593-22.593-22.593-22.593-22.593,22.593,22.593,22.593M137.932,0l-2.828,2.828-45.914,45.914-2.828,2.828,2.828,2.828,34.254,34.254,11.66,11.66,2.828,2.828,2.828-2.828,11.661-11.66,34.254-34.254,2.828-2.828-2.828-2.828-34.254-34.253-11.66-11.66L137.932,0h0ZM120.996,51.571l16.937-16.936,16.936,16.936-16.936,16.936-16.937-16.936h0Z" stroke-width="0"/>
      </g>
      <g>
        <polygon points="152.231 85.824 186.485 51.57 152.231 17.317 166.72 2.829 215.462 51.57 166.72 100.312 152.231 85.824" fill="url(#h)" stroke-width="0"/>
        <path d="M166.72,5.657l45.913,45.914-45.913,45.914-11.661-11.66,34.254-34.254-34.254-34.253,11.661-11.66M166.721,0l-2.828,2.828-11.661,11.66-2.829,2.828,2.829,2.828,31.425,31.425-31.425,31.425-2.829,2.828,2.829,2.828,11.661,11.66,2.828,2.828,2.828-2.828,45.913-45.914,2.828-2.828-2.828-2.828L169.549,2.828,166.721,0h0Z" stroke-width="0"/>
      </g>
      <g>
        <polygon points="181.018 85.824 215.272 51.57 181.018 17.317 195.507 2.828 244.248 51.57 195.507 100.312 181.018 85.824" fill="url(#i)" stroke-width="0"/>
        <path d="M195.507,5.657l45.913,45.914-45.913,45.914-11.661-11.66,34.254-34.254-34.254-34.253,11.661-11.66M195.507,0l-2.828,2.828-11.661,11.66-2.829,2.828,2.829,2.828,31.425,31.425-31.425,31.425-2.829,2.828,2.829,2.828,11.661,11.66,2.828,2.828,2.828-2.828,45.913-45.914,2.828-2.828-2.828-2.828L198.336,2.828,195.507,0h0Z" stroke-width="0"/>
      </g>
      <g>
        <polygon points="209.805 85.824 244.059 51.57 209.805 17.317 224.294 2.828 273.035 51.57 224.294 100.312 209.805 85.824" fill="url(#j)" stroke-width="0"/>
        <path d="M224.294,5.657l45.913,45.914-45.913,45.914-11.661-11.66,34.254-34.254-34.254-34.253,11.661-11.66M224.294,0l-2.828,2.828-11.661,11.66-2.829,2.828,2.829,2.828,31.425,31.425-31.425,31.425-2.829,2.828,2.829,2.828,11.661,11.66,2.828,2.828,2.828-2.828,45.913-45.914,2.828-2.828-2.828-2.828L227.122,2.828,224.294,0h0Z" stroke-width="0"/>
      </g>
    </g>
  </g>
</svg>