<?xml version="1.0" encoding="UTF-8"?>
<svg id="b" data-name="레이어 2" xmlns="http://www.w3.org/2000/svg" width="448.585" height="103.141" xmlns:xlink="http://www.w3.org/1999/xlink" viewBox="0 0 448.585 103.141">
  <defs>
    <linearGradient id="d" data-name="무제 그라디언트 488" x1="34.444" y1="2.604" x2="34.444" y2="99.053" gradientUnits="userSpaceOnUse">
      <stop offset="0" stop-color="#fdc200"/>
      <stop offset=".496" stop-color="#f7ecbc"/>
      <stop offset=".5" stop-color="#ffd000"/>
      <stop offset="1" stop-color="#fde459"/>
    </linearGradient>
    <linearGradient id="e" data-name="무제 그라디언트 488" x1="298.993" y1="2.604" x2="298.993" y2="99.053" xlink:href="#d"/>
    <linearGradient id="f" data-name="무제 그라디언트 488" x1="327.78" y1="2.604" x2="327.78" y2="99.053" xlink:href="#d"/>
    <linearGradient id="g" data-name="무제 그라디언트 488" x1="356.567" y1="2.604" x2="356.567" y2="99.053" xlink:href="#d"/>
    <linearGradient id="h" data-name="무제 그라디언트 488" x1="385.354" y1="2.604" x2="385.354" y2="99.053" xlink:href="#d"/>
    <linearGradient id="i" data-name="무제 그라디언트 488" x1="414.141" y1="2.604" x2="414.141" y2="99.053" xlink:href="#d"/>
    <linearGradient id="j" data-name="무제 그라디언트 488" x1="80.358" y1="2.604" x2="80.358" y2="99.053" xlink:href="#d"/>
    <linearGradient id="k" data-name="무제 그라디언트 488" x1="126.272" y1="2.604" x2="126.272" y2="99.053" xlink:href="#d"/>
    <linearGradient id="l" data-name="무제 그라디언트 488" x1="155.059" y1="2.604" x2="155.059" y2="99.053" xlink:href="#d"/>
    <linearGradient id="m" data-name="무제 그라디언트 488" x1="183.846" y1="2.604" x2="183.846" y2="99.053" xlink:href="#d"/>
    <linearGradient id="n" data-name="무제 그라디언트 488" x1="212.633" y1="2.604" x2="212.633" y2="99.053" xlink:href="#d"/>
    <linearGradient id="o" data-name="무제 그라디언트 488" x1="241.419" y1="2.604" x2="241.419" y2="99.053" xlink:href="#d"/>
    <linearGradient id="p" data-name="무제 그라디언트 488" x1="270.206" y1="2.604" x2="270.206" y2="99.053" xlink:href="#d"/>
  </defs>
  <g id="c" data-name="레이어 1">
    <g>
      <g>
        <polygon points="2.829 51.571 51.571 2.829 66.059 17.317 31.806 51.571 66.059 85.824 51.571 100.312 2.829 51.571" fill="url(#d)" stroke-width="0"/>
        <path d="M51.571,5.657l11.66,11.66L28.977,51.571l34.254,34.254-11.66,11.66L5.657,51.571,51.571,5.657M51.571,0l-2.828,2.828L2.828,48.742l-2.828,2.828,2.828,2.828,45.914,45.914,2.828,2.828,2.828-2.828,11.66-11.66,2.828-2.828-2.828-2.828-31.425-31.425,31.425-31.425,2.828-2.828-2.828-2.828-11.66-11.66-2.828-2.828h0Z" stroke-width="0"/>
      </g>
      <g>
        <polygon points="267.378 85.824 301.632 51.571 267.378 17.317 281.866 2.829 330.608 51.571 281.866 100.312 267.378 85.824" fill="url(#e)" stroke-width="0"/>
        <path d="M281.866,5.657l45.914,45.914-45.914,45.914-11.66-11.66,34.254-34.254-34.254-34.254,11.66-11.66M281.866,0l-2.828,2.828-11.66,11.66-2.828,2.828,2.828,2.828,31.425,31.425-31.425,31.425-2.828,2.828,2.828,2.828,11.66,11.66,2.828,2.828,2.828-2.828,45.914-45.914,2.828-2.828-2.828-2.828L284.695,2.828l-2.828-2.828h0Z" stroke-width="0"/>
      </g>
      <g>
        <polygon points="296.165 85.824 330.419 51.571 296.165 17.317 310.653 2.829 359.395 51.571 310.653 100.312 296.165 85.824" fill="url(#f)" stroke-width="0"/>
        <path d="M310.653,5.657l45.914,45.914-45.914,45.914-11.66-11.66,34.254-34.254-34.254-34.254,11.66-11.66M310.653,0l-2.828,2.828-11.66,11.66-2.828,2.828,2.828,2.828,31.426,31.425-31.426,31.425-2.828,2.828,2.828,2.828,11.66,11.66,2.828,2.828,2.828-2.828,45.914-45.914,2.828-2.828-2.828-2.828L313.482,2.828l-2.828-2.828h0Z" stroke-width="0"/>
      </g>
      <g>
        <polygon points="324.952 85.824 359.206 51.571 324.952 17.317 339.44 2.829 388.182 51.571 339.44 100.312 324.952 85.824" fill="url(#g)" stroke-width="0"/>
        <path d="M339.441,5.657l45.914,45.914-45.914,45.914-11.66-11.66,34.254-34.254-34.254-34.254,11.66-11.66M339.441,0l-2.828,2.828-11.66,11.66-2.828,2.828,2.828,2.828,31.425,31.425-31.425,31.425-2.828,2.828,2.828,2.828,11.66,11.66,2.828,2.828,2.828-2.828,45.914-45.914,2.828-2.828-2.828-2.828L342.269,2.828l-2.828-2.828h0Z" stroke-width="0"/>
      </g>
      <g>
        <polygon points="353.739 85.824 387.993 51.571 353.739 17.317 368.227 2.829 416.97 51.571 368.227 100.312 353.739 85.824" fill="url(#h)" stroke-width="0"/>
        <path d="M368.228,5.657l45.914,45.914-45.914,45.914-11.66-11.66,34.254-34.254-34.254-34.254,11.66-11.66M368.228,0l-2.828,2.828-11.66,11.66-2.828,2.828,2.828,2.828,31.425,31.425-31.425,31.425-2.828,2.828,2.828,2.828,11.66,11.66,2.828,2.828,2.828-2.828,45.914-45.914,2.828-2.828-2.828-2.828L371.056,2.828l-2.828-2.828h0Z" stroke-width="0"/>
      </g>
      <g>
        <polygon points="382.525 85.824 416.779 51.571 382.525 17.317 397.014 2.829 445.756 51.571 397.014 100.312 382.525 85.824" fill="url(#i)" stroke-width="0"/>
        <path d="M397.014,5.657l45.914,45.914-45.914,45.914-11.66-11.66,34.254-34.254-34.254-34.254,11.66-11.66M397.014,0l-2.828,2.828-11.66,11.66-2.828,2.828,2.828,2.828,31.425,31.425-31.425,31.425-2.828,2.828,2.828,2.828,11.66,11.66,2.828,2.828,2.828-2.828,45.914-45.914,2.828-2.828-2.828-2.828L399.842,2.828l-2.828-2.828h0Z" stroke-width="0"/>
      </g>
      <g>
        <path d="M31.616,51.571L80.357,2.829l48.743,48.742-48.743,48.741L31.616,51.571ZM80.358,71.336l19.765-19.765-19.765-19.766-19.766,19.766,19.766,19.765Z" fill="url(#j)" stroke-width="0"/>
        <path d="M80.358,5.657l11.661,11.66h0s34.254,34.254,34.254,34.254l-34.254,34.254h0l-11.661,11.66-11.66-11.66-34.253-34.254,34.253-34.254,11.66-11.66M80.358,74.164l22.593-22.593-22.593-22.593-22.593,22.593,22.593,22.593M80.358,0l-2.828,2.828-11.66,11.66L31.616,48.742l-2.828,2.828,2.828,2.828,34.253,34.254,11.66,11.66,2.828,2.828,2.828-2.828,11.661-11.66,34.254-34.254,2.828-2.828-2.828-2.828L94.847,14.489l-11.661-11.66-2.828-2.828h0ZM63.421,51.571l16.937-16.936,16.936,16.936-16.936,16.936-16.937-16.936h0Z" stroke-width="0"/>
      </g>
      <g>
        <polygon points="94.657 85.824 128.911 51.571 94.657 17.317 109.146 2.829 157.887 51.571 109.146 100.312 94.657 85.824" fill="url(#k)" stroke-width="0"/>
        <path d="M109.146,5.657l45.913,45.914-45.913,45.914-11.661-11.66,34.254-34.254-34.254-34.254,11.661-11.66M109.146,0l-2.828,2.828-11.661,11.66-2.829,2.828,2.828,2.828,31.425,31.425-31.425,31.425-2.828,2.828,2.829,2.828,11.661,11.66,2.828,2.828,2.828-2.828,45.913-45.914,2.828-2.828-2.828-2.828L111.975,2.828l-2.828-2.828h0Z" stroke-width="0"/>
      </g>
      <g>
        <polygon points="123.444 85.824 157.698 51.571 123.444 17.317 137.932 2.829 186.674 51.571 137.932 100.312 123.444 85.824" fill="url(#l)" stroke-width="0"/>
        <path d="M137.933,5.657l45.913,45.914-45.913,45.914-11.661-11.66,34.254-34.254-34.254-34.254,11.661-11.66M137.933,0l-2.828,2.828-11.661,11.66-2.829,2.828,2.828,2.828,31.425,31.425-31.425,31.425-2.828,2.828,2.829,2.828,11.661,11.66,2.828,2.828,2.828-2.828,45.913-45.914,2.828-2.828-2.828-2.828L140.761,2.828l-2.828-2.828h0Z" stroke-width="0"/>
      </g>
      <g>
        <polygon points="152.23 85.824 186.484 51.571 152.23 17.317 166.72 2.829 215.461 51.571 166.72 100.312 152.23 85.824" fill="url(#m)" stroke-width="0"/>
        <path d="M166.72,5.657l45.913,45.914-45.913,45.914-11.661-11.66,34.254-34.254-34.254-34.254,11.661-11.66M166.72,0l-2.828,2.828-11.661,11.66-2.829,2.828,2.829,2.828,31.425,31.425-31.425,31.425-2.829,2.828,2.829,2.828,11.661,11.66,2.828,2.828,2.828-2.828,45.913-45.914,2.828-2.828-2.828-2.828L169.548,2.828l-2.828-2.828h0Z" stroke-width="0"/>
      </g>
      <g>
        <polygon points="181.017 85.824 215.271 51.571 181.017 17.317 195.507 2.829 244.248 51.571 195.507 100.312 181.017 85.824" fill="url(#n)" stroke-width="0"/>
        <path d="M195.506,5.657l45.913,45.914-45.913,45.914-11.661-11.66,34.254-34.254-34.254-34.254,11.661-11.66M195.506,0l-2.828,2.828-11.661,11.66-2.829,2.828,2.829,2.828,31.425,31.425-31.425,31.425-2.829,2.828,2.829,2.828,11.661,11.66,2.828,2.828,2.828-2.828,45.913-45.914,2.828-2.828-2.828-2.828L198.335,2.828l-2.828-2.828h0Z" stroke-width="0"/>
      </g>
      <g>
        <polygon points="209.805 85.824 244.058 51.571 209.805 17.317 224.293 2.829 273.034 51.571 224.293 100.312 209.805 85.824" fill="url(#o)" stroke-width="0"/>
        <path d="M224.293,5.657l45.913,45.914-45.913,45.914-11.661-11.66,34.254-34.254-34.254-34.254,11.661-11.66M224.293,0l-2.828,2.828-11.661,11.66-2.829,2.828,2.829,2.828,31.425,31.425-31.425,31.425-2.829,2.828,2.829,2.828,11.661,11.66,2.828,2.828,2.828-2.828,45.913-45.914,2.828-2.828-2.828-2.828L227.122,2.828l-2.828-2.828h0Z" stroke-width="0"/>
      </g>
      <g>
        <polygon points="238.592 85.824 272.846 51.571 238.592 17.317 253.08 2.829 301.821 51.571 253.08 100.312 238.592 85.824" fill="url(#p)" stroke-width="0"/>
        <path d="M253.08,5.657l45.913,45.914-45.913,45.914-11.661-11.66,34.254-34.254-34.254-34.254,11.661-11.66M253.08,0l-2.828,2.828-11.661,11.66-2.829,2.828,2.829,2.828,31.425,31.425-31.425,31.425-2.829,2.828,2.829,2.828,11.661,11.66,2.828,2.828,2.828-2.828,45.913-45.914,2.828-2.828-2.828-2.828L255.908,2.828l-2.828-2.828h0Z" stroke-width="0"/>
      </g>
    </g>
  </g>
</svg>