<?xml version="1.0" encoding="UTF-8"?>
<svg id="b" data-name="레이어 2" xmlns="http://www.w3.org/2000/svg" width="391.012" height="103.141" xmlns:xlink="http://www.w3.org/1999/xlink" viewBox="0 0 391.012 103.141">
  <defs>
    <linearGradient id="d" data-name="무제 그라디언트 488" x1="63.231" y1="2.704" x2="63.231" y2="98.536" gradientUnits="userSpaceOnUse">
      <stop offset="0" stop-color="#fdc200"/>
      <stop offset=".496" stop-color="#f7ecbc"/>
      <stop offset=".5" stop-color="#ffd000"/>
      <stop offset="1" stop-color="#fde459"/>
    </linearGradient>
    <linearGradient id="e" data-name="무제 그라디언트 488" x1="34.444" x2="34.444" xlink:href="#d"/>
    <linearGradient id="f" data-name="무제 그라디언트 488" x1="298.994" y1="2.704" x2="298.994" y2="98.536" xlink:href="#d"/>
    <linearGradient id="g" data-name="무제 그라디언트 488" x1="327.781" y1="2.704" x2="327.781" y2="98.536" xlink:href="#d"/>
    <linearGradient id="h" data-name="무제 그라디언트 488" x1="356.568" y1="2.704" x2="356.568" y2="98.536" xlink:href="#d"/>
    <linearGradient id="i" data-name="무제 그라디언트 488" x1="109.145" y1="2.704" x2="109.145" y2="98.536" xlink:href="#d"/>
    <linearGradient id="j" data-name="무제 그라디언트 488" x1="155.059" y1="2.704" x2="155.059" y2="98.536" xlink:href="#d"/>
    <linearGradient id="k" data-name="무제 그라디언트 488" x1="183.846" y1="2.704" x2="183.846" y2="98.536" xlink:href="#d"/>
    <linearGradient id="l" data-name="무제 그라디언트 488" x1="212.633" y1="2.704" x2="212.633" y2="98.536" xlink:href="#d"/>
    <linearGradient id="m" data-name="무제 그라디언트 488" x1="241.42" y1="2.704" x2="241.42" y2="98.536" xlink:href="#d"/>
    <linearGradient id="n" data-name="무제 그라디언트 488" x1="270.206" y1="2.704" x2="270.206" y2="98.536" xlink:href="#d"/>
  </defs>
  <g id="c" data-name="레이어 1">
    <g>
      <g>
        <polygon points="31.616 51.57 80.358 2.828 94.846 17.317 60.592 51.57 94.846 85.824 80.358 100.313 31.616 51.57" fill="url(#d)" stroke-width="0"/>
        <path d="M80.358,5.657l11.66,11.66-34.254,34.254,34.254,34.254-11.66,11.66-45.914-45.914L80.358,5.657M80.358,0l-2.828,2.828L31.616,48.742l-2.828,2.828,2.828,2.828,45.914,45.914,2.828,2.828,2.828-2.828,11.66-11.66,2.828-2.828-2.828-2.828-31.425-31.425,31.425-31.425,2.828-2.828-2.828-2.828-11.66-11.66-2.828-2.828h0Z" stroke-width="0"/>
      </g>
      <g>
        <polygon points="2.829 51.57 51.571 2.828 66.059 17.317 31.805 51.57 66.059 85.824 51.571 100.313 2.829 51.57" fill="url(#e)" stroke-width="0"/>
        <path d="M51.571,5.657l11.66,11.66L28.977,51.57l34.254,34.254-11.66,11.66L5.657,51.57,51.571,5.657M51.571,0l-2.828,2.828L2.828,48.742l-2.828,2.828,2.828,2.828,45.914,45.914,2.828,2.828,2.828-2.828,11.66-11.66,2.828-2.828-2.828-2.828-31.425-31.425,31.425-31.425,2.828-2.828-2.828-2.828-11.66-11.66-2.828-2.828h0Z" stroke-width="0"/>
      </g>
      <g>
        <polygon points="267.379 85.824 301.632 51.57 267.379 17.317 281.867 2.828 330.609 51.57 281.867 100.313 267.379 85.824" fill="url(#f)" stroke-width="0"/>
        <path d="M281.867,5.657l45.914,45.914-45.914,45.914-11.66-11.66,34.254-34.254-34.254-34.254,11.66-11.66M281.867,0l-2.828,2.828-11.66,11.66-2.828,2.828,2.828,2.828,31.425,31.425-31.425,31.425-2.828,2.828,2.828,2.828,11.66,11.66,2.828,2.828,2.828-2.828,45.914-45.914,2.828-2.828-2.828-2.828L284.695,2.828l-2.828-2.828h0Z" stroke-width="0"/>
      </g>
      <g>
        <polygon points="296.166 85.824 330.42 51.57 296.166 17.317 310.654 2.828 359.396 51.57 310.654 100.313 296.166 85.824" fill="url(#g)" stroke-width="0"/>
        <path d="M310.654,5.657l45.914,45.914-45.914,45.914-11.66-11.66,34.254-34.254-34.254-34.254,11.66-11.66M310.654,0l-2.828,2.828-11.66,11.66-2.828,2.828,2.828,2.828,31.425,31.425-31.425,31.425-2.828,2.828,2.828,2.828,11.66,11.66,2.828,2.828,2.828-2.828,45.914-45.914,2.828-2.828-2.828-2.828L313.482,2.828l-2.828-2.828h0Z" stroke-width="0"/>
      </g>
      <g>
        <polygon points="324.953 85.824 359.207 51.57 324.953 17.317 339.441 2.828 388.183 51.57 339.441 100.313 324.953 85.824" fill="url(#h)" stroke-width="0"/>
        <path d="M339.441,5.657l45.914,45.914-45.914,45.914-11.66-11.66,34.254-34.254-34.254-34.254,11.66-11.66M339.441,0l-2.828,2.828-11.66,11.66-2.828,2.828,2.828,2.828,31.426,31.425-31.426,31.425-2.828,2.828,2.828,2.828,11.66,11.66,2.828,2.828,2.828-2.828,45.914-45.914,2.828-2.828-2.828-2.828L342.269,2.828l-2.828-2.828h0Z" stroke-width="0"/>
      </g>
      <g>
        <path d="M60.403,51.57L109.145,2.828l48.742,48.742-48.742,48.742-48.742-48.742ZM109.145,71.335l19.765-19.765-19.765-19.765-19.766,19.765,19.766,19.765Z" fill="url(#i)" stroke-width="0"/>
        <path d="M109.145,5.657l11.661,11.66h0s34.254,34.254,34.254,34.254l-34.254,34.253h0s-11.661,11.66-11.661,11.66l-11.66-11.66-34.254-34.254,34.254-34.254,11.66-11.66M109.145,74.164l22.593-22.593-22.593-22.593-22.593,22.593,22.593,22.593M109.145,0l-2.828,2.828-11.66,11.66-34.254,34.254-2.828,2.828,2.828,2.828,34.254,34.254,11.66,11.66,2.828,2.828,2.828-2.828,11.661-11.66,34.254-34.254,2.828-2.828-2.828-2.828L123.634,14.489l-11.66-11.66-2.828-2.828h0ZM92.208,51.57l16.937-16.936,16.936,16.936-16.936,16.936-16.937-16.936h0Z" stroke-width="0"/>
      </g>
      <g>
        <polygon points="123.444 85.824 157.698 51.57 123.444 17.317 137.933 2.828 186.674 51.57 137.933 100.313 123.444 85.824" fill="url(#j)" stroke-width="0"/>
        <path d="M137.933,5.657l45.913,45.914-45.913,45.914-11.661-11.66,34.254-34.254-34.254-34.254,11.661-11.66M137.933,0l-2.828,2.828-11.661,11.66-2.829,2.828,2.829,2.828,31.425,31.425-31.425,31.425-2.829,2.828,2.829,2.828,11.661,11.66,2.828,2.828,2.828-2.828,45.913-45.914,2.828-2.828-2.828-2.828L140.762,2.828l-2.828-2.828h0Z" stroke-width="0"/>
      </g>
      <g>
        <polygon points="152.231 85.824 186.485 51.57 152.231 17.317 166.72 2.828 215.462 51.57 166.72 100.313 152.231 85.824" fill="url(#k)" stroke-width="0"/>
        <path d="M166.72,5.657l45.913,45.914-45.913,45.914-11.661-11.66,34.254-34.254-34.254-34.254,11.661-11.66M166.72,0l-2.828,2.828-11.661,11.66-2.829,2.828,2.829,2.828,31.425,31.425-31.425,31.425-2.829,2.828,2.829,2.828,11.661,11.66,2.828,2.828,2.828-2.828,45.913-45.914,2.828-2.828-2.828-2.828L169.548,2.828l-2.828-2.828h0Z" stroke-width="0"/>
      </g>
      <g>
        <polygon points="181.018 85.824 215.272 51.57 181.018 17.317 195.506 2.828 244.248 51.57 195.506 100.313 181.018 85.824" fill="url(#l)" stroke-width="0"/>
        <path d="M195.507,5.657l45.913,45.914-45.913,45.914-11.661-11.66,34.254-34.254-34.254-34.254,11.661-11.66M195.507,0l-2.828,2.828-11.661,11.66-2.829,2.828,2.829,2.828,31.425,31.425-31.425,31.425-2.829,2.828,2.829,2.828,11.661,11.66,2.828,2.828,2.828-2.828,45.913-45.914,2.828-2.828-2.828-2.828L198.335,2.828l-2.828-2.828h0Z" stroke-width="0"/>
      </g>
      <g>
        <polygon points="209.805 85.824 244.059 51.57 209.805 17.317 224.294 2.828 273.035 51.57 224.294 100.313 209.805 85.824" fill="url(#m)" stroke-width="0"/>
        <path d="M224.294,5.657l45.913,45.914-45.913,45.914-11.661-11.66,34.254-34.254-34.254-34.254,11.661-11.66M224.294,0l-2.828,2.828-11.661,11.66-2.829,2.828,2.829,2.828,31.425,31.425-31.425,31.425-2.829,2.828,2.829,2.828,11.661,11.66,2.828,2.828,2.828-2.828,45.913-45.914,2.828-2.828-2.828-2.828L227.122,2.828l-2.828-2.828h0Z" stroke-width="0"/>
      </g>
      <g>
        <polygon points="238.591 85.824 272.845 51.57 238.591 17.317 253.081 2.828 301.821 51.57 253.081 100.313 238.591 85.824" fill="url(#n)" stroke-width="0"/>
        <path d="M253.08,5.657l45.913,45.914-45.913,45.914-11.661-11.66,34.254-34.254-34.254-34.254,11.661-11.66M253.08,0l-2.828,2.828-11.661,11.66-2.829,2.828,2.829,2.828,31.425,31.425-31.425,31.425-2.829,2.828,2.829,2.828,11.661,11.66,2.828,2.828,2.828-2.828,45.913-45.914,2.828-2.828-2.828-2.828L255.909,2.828l-2.828-2.828h0Z" stroke-width="0"/>
      </g>
    </g>
  </g>
</svg>