<svg xmlns="http://www.w3.org/2000/svg" width="180" height="252" viewBox="0 0 180 252">
  <g>
    <g>
      <path d="M169,241H11V11H169ZM16,236H164V16H16Z" fill="#1b2e88"/>
      <path d="M162.5,234.5H17.5V17.5h145Zm-144-1h143V18.5H18.5Z" fill="#1b2e88"/>
    </g>
    <g>
      <path d="M73.209,33.887a.56.56,0,0,1-.368.1h-1.2V32.342h1.688v1.232A.391.391,0,0,1,73.209,33.887Z" fill="#231815"/>
      <path d="M76.009,33.887a.56.56,0,0,1-.368.1h-1.2V32.342H76.13v1.232A.4.4,0,0,1,76.009,33.887Z" fill="#231815"/>
      <path d="M84.48,36.734,83.6,34.99a.558.558,0,0,1-.077-.179.713.713,0,0,0-.076-.2c-.052.123-.081.191-.084.2a1.532,1.532,0,0,1-.084.179l-.7,1.385a.548.548,0,0,1-.264.279.893.893,0,0,1-.391.08h-1.3l1.969-3.551-1.841-3.376h1.761l.775,1.568a.513.513,0,0,1,.076.184.6.6,0,0,0,.076.191,1.25,1.25,0,0,0,.092-.228.892.892,0,0,1,.076-.18l.76-1.535h1.761L84.28,33.183l1.977,3.551Z" fill="#231815"/>
      <path d="M89.792,36.734l-.88-1.744a.554.554,0,0,1-.075-.179.834.834,0,0,0-.076-.2,1.839,1.839,0,0,0-.084.2,1.945,1.945,0,0,1-.084.179l-.7,1.385a.558.558,0,0,1-.263.279.9.9,0,0,1-.393.08h-1.3L87.9,33.183l-1.84-3.376h1.76l.777,1.568a.592.592,0,0,1,.076.184.6.6,0,0,0,.075.191,1.254,1.254,0,0,0,.093-.228.732.732,0,0,1,.076-.18l.76-1.535H91.44l-1.847,3.376,1.975,3.551Z" fill="#231815"/>
      <path d="M93.96,33.91a1.951,1.951,0,0,0,.045-.24,1.416,1.416,0,0,1,.044-.232l.983-3.631H96.7l-1.96,6.544a.563.563,0,0,1-.195.307.555.555,0,0,1-.349.109h-.888l-2.08-6.96H92.9l.993,3.639a1.952,1.952,0,0,1,.044.228C93.945,33.773,93.955,33.852,93.96,33.91Z" fill="#231815"/>
      <path d="M97.056,29.807H98.68v6.367a.492.492,0,0,1-.192.4.684.684,0,0,1-.448.156h-.984Z" fill="#231815"/>
      <path d="M105.433,33.887a.564.564,0,0,1-.369.1h-1.2V32.342h1.689v1.232A.391.391,0,0,1,105.433,33.887Z" fill="#231815"/>
      <path d="M108.232,33.887a.56.56,0,0,1-.368.1h-1.2V32.342h1.689v1.232A.4.4,0,0,1,108.232,33.887Z" fill="#231815"/>
    </g>
    <g>
      <g>
        <g>
          <path d="M39.666,190.736a.5.5,0,0,1,.145.358v.815a.5.5,0,0,1-.5.5h-5.4a.5.5,0,0,0-.5.5v8.511a.5.5,0,0,1-.5.5H31.474a.5.5,0,0,1-.5-.5V191.089a.5.5,0,0,1,.5-.5h7.837A.5.5,0,0,1,39.666,190.736Zm-2.288,11.2v-5.672h2.436v5.672Z" fill="#231815"/>
          <path d="M93.159,190.733a.5.5,0,0,1,.148.356v10.339a.5.5,0,0,1-.5.5H91.368a.5.5,0,0,1-.5-.5V197.67a.5.5,0,0,0-.5-.5h-5.4a.5.5,0,0,1-.5-.5v-.818a.5.5,0,0,1,.5-.5h5.4a.5.5,0,0,0,.5-.5V191.1a.5.5,0,0,1,.5-.5H92.8A.5.5,0,0,1,93.159,190.733Z" fill="#231815"/>
          <path d="M148.083,191.088v10.344a.5.5,0,0,1-.5.5h-7.844a.5.5,0,0,1-.5-.5v-.821a.5.5,0,0,1,.5-.5h5.4a.5.5,0,0,0,.5-.5v-8.517a.5.5,0,0,1,.5-.5h1.438a.5.5,0,0,1,.506.494Zm-8.7,6.143v-6.646h2.436v6.646Zm2.843,0v-6.646h2.436v6.646Z" fill="#231815"/>
        </g>
        <g>
          <path d="M84.723,214.526l1.918-2.749H84.712v-.562h2.765v.418l-1.919,2.749h1.928v.567H84.723Z" fill="#231815"/>
          <path d="M87.844,214.949l1.315-3.734h.825l1.321,3.734h-.718l-.312-.923H88.87l-.309.923Zm2.251-1.465-.508-1.5h-.031l-.5,1.5Z" fill="#231815"/>
          <path d="M91.737,211.215h1.4a1.238,1.238,0,1,1,.146,2.472,1.175,1.175,0,0,1-.157,0H92.4v1.263h-.671Zm1.3,1.919a.686.686,0,0,0,.142-1.363.676.676,0,0,0-.142.006h-.629v1.357Z" fill="#231815"/>
        </g>
        <rect x="30.565" y="204.531" width="117.962" height="1" fill="#231815"/>
      </g>
      <g>
        <path d="M85.806,223.228a.331.331,0,0,1-.237.228.688.688,0,0,1-.229.038.541.541,0,0,1-.349-.111c-.238-.2.086-.722.1-.743h.014v.014s-.328.525-.1.716a.6.6,0,0,0,.558.071.307.307,0,0,0,.222-.213.684.684,0,0,0-.076-.521.153.153,0,0,0-.137-.048.242.242,0,0,0-.192.137c-.042.087-.08.286.136.638v.01l-.01.006H85.5c-.221-.361-.181-.567-.137-.658a.259.259,0,0,1,.209-.148.174.174,0,0,1,.155.054A.708.708,0,0,1,85.806,223.228Z" fill="#231815"/>
        <path d="M85.993,223.479a.01.01,0,0,1-.01.008h0a.009.009,0,0,1-.006-.011,4.364,4.364,0,0,0,.012-.824v-.007H86a.009.009,0,0,1,.01.008h0A4.136,4.136,0,0,1,85.993,223.479Z" fill="#231815"/>
        <path d="M87.086,223.228a.33.33,0,0,1-.235.228.72.72,0,0,1-.23.038.544.544,0,0,1-.35-.111c-.237-.2.086-.722.1-.743h.014l0,.007v.007s-.329.525-.105.716a.608.608,0,0,0,.559.071.307.307,0,0,0,.222-.213.684.684,0,0,0-.076-.521.158.158,0,0,0-.136-.048.242.242,0,0,0-.193.137c-.042.087-.08.286.136.638v.01l-.009.006h-.009c-.221-.361-.18-.567-.136-.658a.256.256,0,0,1,.208-.148.172.172,0,0,1,.154.054A.7.7,0,0,1,87.086,223.228Z" fill="#231815"/>
        <path d="M87.812,223.362a.47.47,0,0,1-.32.09,2.046,2.046,0,0,1-.349-.037l-.009-.007v-.01h.01c.343.06.544.045.653-.048a.354.354,0,0,0,.095-.294.467.467,0,0,0-.28-.419.233.233,0,0,0-.246.015.158.158,0,0,0-.062.122.165.165,0,0,0,.061.11v.015H87.35a.158.158,0,0,1,0-.263.25.25,0,0,1,.268-.02.491.491,0,0,1,.292.438A.361.361,0,0,1,87.812,223.362Z" fill="#231815"/>
        <path d="M89.617,224.05a.791.791,0,0,1-.6.244.771.771,0,0,1-.462-.141v-.013h0l.011,0,0,0a.833.833,0,0,0,1.039-.1c.127-.162.069-.375,0-.62a3.028,3.028,0,0,1-.074-.313c-.1.269-.285.384-.426.373a.282.282,0,0,1-.24-.224.621.621,0,0,1-.443.23.286.286,0,0,1-.337-.224v0a.6.6,0,0,1,.2-.617.01.01,0,0,1,.014,0h0v.013h0a.581.581,0,0,0-.2.6.269.269,0,0,0,.313.214h0a.606.606,0,0,0,.437-.237.6.6,0,0,1-.014-.095c-.021-.264-.012-.442.023-.463a.017.017,0,0,1,.019,0,.788.788,0,0,1,.043.419.316.316,0,0,1-.048.143.264.264,0,0,0,.224.226c.141.011.325-.11.419-.4,0-.026-.006-.052-.008-.079a.6.6,0,0,1,.066-.405.022.022,0,0,1,.022,0c.031.025.019.171-.033.393-.008.032-.016.063-.026.092a2.757,2.757,0,0,0,.08.349C89.692,223.662,89.752,223.879,89.617,224.05Zm-.754-.92a.536.536,0,0,0,.01.07.27.27,0,0,0,.034-.114.812.812,0,0,0-.032-.4,1.067,1.067,0,0,0-.012.443Zm.675-.119.012-.046c.066-.285.049-.365.04-.371a.628.628,0,0,0-.055.386Z" fill="#231815"/>
        <path d="M90.425,223.362a.474.474,0,0,1-.321.09,2.046,2.046,0,0,1-.349-.037l-.008-.007v-.01h.011c.344.06.544.045.652-.048a.352.352,0,0,0,.1-.294.468.468,0,0,0-.28-.419.232.232,0,0,0-.247.015.158.158,0,0,0-.062.122.171.171,0,0,0,.062.11v.015a.012.012,0,0,1-.014,0,.182.182,0,0,1-.071-.125.179.179,0,0,1,.07-.138.25.25,0,0,1,.268-.02.491.491,0,0,1,.292.438A.37.37,0,0,1,90.425,223.362Z" fill="#231815"/>
        <path d="M90.7,223.479a.01.01,0,0,1-.01.008h0a.011.011,0,0,1-.008-.011,4.282,4.282,0,0,0,.013-.824v-.007H90.7a.011.011,0,0,1,.01.009A4.212,4.212,0,0,1,90.7,223.479Z" fill="#231815"/>
        <path d="M91.711,223.41v.007a.01.01,0,0,1-.009.012h-.061c-.11.011-.22.017-.332.018a.678.678,0,0,1-.373-.072.172.172,0,0,1-.063-.182c.032-.1.163-.161.358-.177a.393.393,0,0,1,.355.215c0-.036-.009-.074-.013-.113a.755.755,0,0,0-.138-.453c-.159-.152-.51.037-.513.039a.011.011,0,1,1-.015-.015c.015-.007.368-.2.538-.035a.777.777,0,0,1,.144.466c.006.06.011.117.021.168a.518.518,0,0,1,.045.121l.039,0Zm-.078.007-.006-.015a.5.5,0,0,1-.028-.1.588.588,0,0,0-.1-.142.321.321,0,0,0-.238-.11h-.025c-.184.014-.311.074-.341.162a.151.151,0,0,0,.058.159C91.063,223.463,91.469,223.433,91.633,223.417Z" fill="#231815"/>
        <path d="M92.7,223.149c-.079.762-.147,1.12-.148,1.122a.011.011,0,0,1-.01.009h-.007v-.007s.062-.321.135-1h0a.381.381,0,0,0-.057.029c-.131.066-.437.221-.609.113a.361.361,0,0,1-.123-.335.521.521,0,0,1,.253-.475.379.379,0,0,1,.386.025A.539.539,0,0,1,92.7,223.149Zm-.2-.5a.358.358,0,0,0-.2-.062.373.373,0,0,0-.164.039.5.5,0,0,0-.241.457c0,.16.034.267.113.316.162.1.461-.049.588-.114.053-.027.065-.033.074-.03,0-.034.008-.069.011-.106a.515.515,0,0,0-.181-.5Z" fill="#231815"/>
        <path d="M94.258,222.772v.01h-.011a3.4,3.4,0,0,0-.652-.155.482.482,0,0,1,.085.62.449.449,0,0,1-.387.215h-.022a.446.446,0,0,1-.356-.179.6.6,0,0,1,.063-.531.446.446,0,0,1,.47-.169,3.847,3.847,0,0,1,.807.181Zm-.69-.136v-.012l-.124-.019a.84.84,0,0,0-.1-.007.4.4,0,0,0-.35.167.574.574,0,0,0-.06.509.419.419,0,0,0,.338.167.428.428,0,0,0,.39-.205A.455.455,0,0,0,93.568,222.636Z" fill="#231815"/>
      </g>
    </g>
    <g>
      <path d="M90,130.266a18.55,18.55,0,1,1,18.55-18.55A18.571,18.571,0,0,1,90,130.266Zm0-32.1a13.55,13.55,0,1,0,13.55,13.55A13.566,13.566,0,0,0,90,98.166Z" fill="#172e7d"/>
      <path d="M116.163,140.379H63.837a2.5,2.5,0,0,1-2.5-2.5V85.553a2.5,2.5,0,0,1,2.5-2.5h52.326a2.5,2.5,0,0,1,2.5,2.5v52.326A2.5,2.5,0,0,1,116.163,140.379Zm-49.826-5h47.326V88.053H66.337Z" fill="#172e7d"/>
      <path d="M90,167.135a2.5,2.5,0,0,1-1.768-.733L35.312,113.483a2.5,2.5,0,0,1,0-3.535L88.231,57.029a2.5,2.5,0,0,1,3.536,0l52.919,52.919a2.5,2.5,0,0,1,0,3.535L91.767,166.4A2.5,2.5,0,0,1,90,167.135Zm-49.383-55.42L90,161.1l49.384-49.385L90,62.332Z" fill="#172e7d"/>
    </g>
  </g>
</svg>
