<svg xmlns="http://www.w3.org/2000/svg" width="180" height="252" viewBox="0 0 180 252">
  <g>
    <g>
      <path d="M169,241H11V11H169ZM16,236H164V16H16Z" fill="#1b2e88"/>
      <path d="M162.5,234.5H17.5V17.5h145Zm-144-1h143V18.5H18.5Z" fill="#1b2e88"/>
    </g>
    <g>
      <path d="M75.152,29.807h1.624v6.367a.492.492,0,0,1-.192.4.681.681,0,0,1-.447.156h-.985Z" fill="#231815"/>
      <path d="M84.624,36.734l-.88-1.744a.535.535,0,0,1-.076-.179.713.713,0,0,0-.076-.2c-.053.123-.081.191-.084.2a1.532,1.532,0,0,1-.084.179l-.7,1.385a.56.56,0,0,1-.264.279.9.9,0,0,1-.392.08h-1.3l1.968-3.551L80.9,29.807h1.76l.776,1.568a.532.532,0,0,1,.076.184.575.575,0,0,0,.076.191,1.25,1.25,0,0,0,.092-.228.838.838,0,0,1,.076-.18l.76-1.535h1.76l-1.848,3.376L86.4,36.734Z" fill="#231815"/>
      <path d="M89.776,36.734,88.9,34.99a.579.579,0,0,1-.076-.179.713.713,0,0,0-.076-.2c-.053.123-.081.191-.084.2a1.532,1.532,0,0,1-.084.179l-.7,1.385a.56.56,0,0,1-.264.279.893.893,0,0,1-.391.08h-1.3l1.969-3.551-1.841-3.376h1.761l.775,1.568a.513.513,0,0,1,.076.184.6.6,0,0,0,.076.191,1.25,1.25,0,0,0,.092-.228.838.838,0,0,1,.076-.18l.76-1.535H91.43l-1.849,3.376,1.977,3.551Z" fill="#231815"/>
      <path d="M91.76,29.807h1.624v6.367a.492.492,0,0,1-.192.4.684.684,0,0,1-.448.156H91.76Z" fill="#231815"/>
      <path d="M97.456,36.734l-.88-1.744a.535.535,0,0,1-.076-.179.713.713,0,0,0-.076-.2c-.053.123-.081.191-.084.2a1.532,1.532,0,0,1-.084.179l-.7,1.385a.56.56,0,0,1-.264.279.9.9,0,0,1-.392.08H93.6l1.968-3.551-1.84-3.376h1.76l.776,1.568a.532.532,0,0,1,.076.184.575.575,0,0,0,.076.191,1.25,1.25,0,0,0,.092-.228.838.838,0,0,1,.076-.18l.76-1.535H99.1l-1.848,3.376,1.976,3.551Z" fill="#231815"/>
      <path d="M103.216,29.807h1.624v6.367a.5.5,0,0,1-.193.4.681.681,0,0,1-.447.156h-.984Z" fill="#231815"/>
    </g>
    <g>
      <g>
        <g>
          <path d="M30.805,192.41v-1.823h8.847v1.823Zm0,9.521v-1.825h8.847v1.825Z" fill="#231815"/>
          <path d="M52.42,200.253a.5.5,0,0,1,.147.357v.817a.5.5,0,0,1-.5.5H44.231a.5.5,0,0,1-.5-.5V191.091a.5.5,0,0,1,.5-.5H45.66a.5.5,0,0,1,.5.5V199.6a.5.5,0,0,0,.5.5h5.4A.5.5,0,0,1,52.42,200.253Zm-4.275-7.843v-1.823H52.57v1.823Z" fill="#231815"/>
          <path d="M55.55,192.41v-1.823H64.4v1.823Zm0,9.521v-1.825H64.4v1.825Z" fill="#231815"/>
          <path d="M77.164,200.253a.5.5,0,0,1,.148.357v.817a.5.5,0,0,1-.5.5H68.976a.5.5,0,0,1-.5-.5V191.091a.5.5,0,0,1,.5-.5H70.4a.5.5,0,0,1,.5.5V199.6a.5.5,0,0,0,.5.5h5.4A.5.5,0,0,1,77.164,200.253Zm-2.291-3.994v-5.672H77.31v5.672Z" fill="#231815"/>
          <path d="M84.158,199.284a.5.5,0,0,0,.386.822h4.833a.5.5,0,0,1,.5.5v.821a.5.5,0,0,1-.5.5H81.54a.5.5,0,0,1-.5-.5v-1.141a.509.509,0,0,1,.115-.321l5.611-6.735a.5.5,0,0,0-.386-.822H81.539a.5.5,0,0,1-.5-.5v-.821a.5.5,0,0,1,.5-.5h7.843a.5.5,0,0,1,.5.5v1.141a.5.5,0,0,1-.116.321Z" fill="#231815"/>
          <path d="M100.416,190.733a.5.5,0,0,1,.147.356v10.339a.5.5,0,0,1-.5.5H98.625a.5.5,0,0,1-.5-.5V197.67a.5.5,0,0,0-.5-.5h-5.4a.5.5,0,0,1-.5-.5v-.818a.5.5,0,0,1,.5-.5h5.4a.5.5,0,0,0,.5-.5V191.1a.5.5,0,0,1,.5-.5h1.434A.5.5,0,0,1,100.416,190.733Z" fill="#231815"/>
          <path d="M105.1,196.259v-5.672h2.436v5.672Zm8.843-5.168v10.331a.5.5,0,0,1-.5.5H105.6a.5.5,0,0,1-.5-.5v-.816a.5.5,0,0,1,.5-.5H111a.5.5,0,0,0,.5-.5v-8.513a.5.5,0,0,1,.5-.5h1.433a.5.5,0,0,1,.507.493v0Z" fill="#231815"/>
          <path d="M119.067,201.931V190.585h2.442v11.346Z" fill="#231815"/>
          <path d="M133.924,191.089v10.339a.5.5,0,0,1-.5.5h-1.437a.5.5,0,0,1-.5-.5V197.67a.5.5,0,0,0-.5-.5h-5.4a.5.5,0,0,1-.5-.5v-.818a.5.5,0,0,1,.5-.5h5.4a.5.5,0,0,0,.5-.5V191.1a.5.5,0,0,1,.5-.5h1.437A.5.5,0,0,1,133.924,191.089Zm-5.644-2.162V187.1h2.442v1.824H128.28Z" fill="#231815"/>
          <path d="M147.766,190.736a.509.509,0,0,1,.144.358v.815a.5.5,0,0,1-.5.5h-5.4a.5.5,0,0,0-.5.5v8.511a.5.5,0,0,1-.5.5h-1.434a.5.5,0,0,1-.5-.5V191.089a.5.5,0,0,1,.5-.5h7.837A.508.508,0,0,1,147.766,190.736Z" fill="#231815"/>
        </g>
        <g>
          <path d="M74.6,211.215h2.428v.562H75.269V212.8H76.9v.561H75.269v1.022h1.769v.567H74.6Z" fill="#231815"/>
          <path d="M77.664,211.215h.67v3.167h1.65v.567h-2.32Z" fill="#231815"/>
          <path d="M80.513,211.215h2.429v.562H81.184V212.8h1.629v.561H81.184v1.022h1.768v.567H80.513Z" fill="#231815"/>
          <path d="M83.578,214.949v-3.734h1.289a1.868,1.868,0,0,1-.02,3.734Zm1.233-.583c.781,0,1.175-.428,1.175-1.289s-.394-1.281-1.155-1.279h-.583v2.568Z" fill="#231815"/>
          <path d="M87.24,211.215h1.4a1.158,1.158,0,0,1,1.3.989,1.14,1.14,0,0,1,.01.2,1.069,1.069,0,0,1-.673,1.063l.807,1.48h-.748l-.733-1.367h-.7v1.367h-.67Zm1.3,1.806c.506,0,.732-.214.732-.615s-.226-.629-.732-.629h-.63v1.244Z" fill="#231815"/>
          <path d="M90.283,214.949l1.316-3.734h.825l1.32,3.734h-.717l-.312-.923H91.31l-.31.923Zm2.252-1.465-.509-1.5H92l-.506,1.5Z" fill="#231815"/>
          <path d="M95.219,214.16h.041l.974-2.945h.738l-1.321,3.734h-.825l-1.315-3.734h.738Z" fill="#231815"/>
          <path d="M98.075,214.949h-.67v-3.734h.67Z" fill="#231815"/>
          <path d="M98.526,214.949l1.315-3.734h.825l1.32,3.734h-.716l-.312-.923H99.553l-.31.923Zm1.573-4.935.408.83h-.49l-.563-.83Zm.678,3.47-.507-1.5h-.032l-.506,1.5Z" fill="#231815"/>
          <path d="M103.688,211.736c-.425,0-.677.2-.68.485,0,.314.33.443.639.515l.351.093c.557.129,1.094.423,1.094,1.073s-.519,1.1-1.413,1.1c-.869,0-1.421-.418-1.45-1.155h.661c.03.389.358.58.783.583.441,0,.745-.217.748-.537,0-.293-.271-.418-.676-.521l-.423-.108c-.613-.16-1-.469-1-1.006,0-.66.585-1.1,1.372-1.1s1.33.445,1.341,1.077H104.4C104.361,211.919,104.091,211.733,103.688,211.736Z" fill="#231815"/>
        </g>
        <rect x="30.792" y="204.531" width="117.962" height="1" fill="#231815"/>
      </g>
      <g>
        <path d="M86.032,223.228a.33.33,0,0,1-.235.228.7.7,0,0,1-.231.038.541.541,0,0,1-.348-.111c-.239-.2.086-.722.1-.743a.011.011,0,0,1,.015,0v.014s-.328.525-.1.716a.605.605,0,0,0,.559.071.312.312,0,0,0,.222-.213.684.684,0,0,0-.076-.521.153.153,0,0,0-.137-.048.242.242,0,0,0-.192.137c-.043.087-.08.286.135.638v.01l-.009.006h-.009c-.221-.361-.18-.567-.137-.658a.259.259,0,0,1,.209-.148.172.172,0,0,1,.154.054A.7.7,0,0,1,86.032,223.228Z" fill="#231815"/>
        <path d="M86.221,223.479a.012.012,0,0,1-.011.008h0a.009.009,0,0,1-.007-.011,4.282,4.282,0,0,0,.013-.824v-.007h.007a.011.011,0,0,1,.01.009A4.212,4.212,0,0,1,86.221,223.479Z" fill="#231815"/>
        <path d="M87.312,223.228a.323.323,0,0,1-.234.228.694.694,0,0,1-.23.038.544.544,0,0,1-.35-.111c-.237-.2.086-.722.1-.743h.014v.014s-.329.525-.1.716a.6.6,0,0,0,.558.071.312.312,0,0,0,.223-.213.693.693,0,0,0-.076-.521.153.153,0,0,0-.137-.048.24.24,0,0,0-.192.137c-.042.087-.08.286.135.638v.01l-.007.006h-.01c-.221-.361-.181-.567-.137-.658a.257.257,0,0,1,.209-.148.172.172,0,0,1,.154.054A.7.7,0,0,1,87.312,223.228Z" fill="#231815"/>
        <path d="M88.039,223.362a.47.47,0,0,1-.32.09,2.047,2.047,0,0,1-.35-.037l-.008-.007v-.01h.01c.344.06.545.045.652-.048a.346.346,0,0,0,.1-.294.468.468,0,0,0-.279-.419.231.231,0,0,0-.246.015.157.157,0,0,0-.064.122.171.171,0,0,0,.062.11l0,.007v.008h-.015a.189.189,0,0,1-.07-.125.175.175,0,0,1,.069-.138.252.252,0,0,1,.269-.02.49.49,0,0,1,.291.438A.371.371,0,0,1,88.039,223.362Z" fill="#231815"/>
        <path d="M89.844,224.05a.8.8,0,0,1-.6.244.771.771,0,0,1-.462-.141v-.014a.01.01,0,0,1,.014,0h0a.831.831,0,0,0,1.037-.1c.128-.162.069-.375,0-.62a3.024,3.024,0,0,1-.073-.313c-.1.269-.285.384-.427.373a.28.28,0,0,1-.238-.224.626.626,0,0,1-.445.23.286.286,0,0,1-.336-.223v-.006a.6.6,0,0,1,.2-.617h.014v.013h0a.582.582,0,0,0-.2.6.267.267,0,0,0,.311.214h.005a.608.608,0,0,0,.438-.237.752.752,0,0,1-.015-.095c-.02-.264-.011-.442.024-.463a.015.015,0,0,1,.018,0,.769.769,0,0,1,.043.419.294.294,0,0,1-.048.143.266.266,0,0,0,.225.226c.141.011.324-.11.419-.4,0-.026-.007-.052-.009-.079a.6.6,0,0,1,.067-.405.02.02,0,0,1,.021,0c.031.025.02.171-.032.393-.008.032-.017.063-.026.092a2.6,2.6,0,0,0,.08.349C89.919,223.662,89.979,223.879,89.844,224.05Zm-.754-.92a.536.536,0,0,0,.01.07.285.285,0,0,0,.034-.114.836.836,0,0,0-.032-.4,1.034,1.034,0,0,0-.012.443Zm.675-.119.011-.046c.067-.285.049-.365.04-.371a.635.635,0,0,0-.054.386Z" fill="#231815"/>
        <path d="M90.651,223.362a.47.47,0,0,1-.32.09,2.047,2.047,0,0,1-.35-.037l-.007-.007v-.01h.01c.344.06.544.045.653-.048a.354.354,0,0,0,.095-.294.467.467,0,0,0-.28-.419.233.233,0,0,0-.246.015.158.158,0,0,0-.062.122.167.167,0,0,0,.062.11v.015a.014.014,0,0,1-.015,0,.183.183,0,0,1-.07-.125.178.178,0,0,1,.069-.138.252.252,0,0,1,.269-.02.491.491,0,0,1,.292.438A.369.369,0,0,1,90.651,223.362Z" fill="#231815"/>
        <path d="M90.926,223.479a.01.01,0,0,1-.01.008h0a.011.011,0,0,1-.008-.011,4.282,4.282,0,0,0,.014-.824v-.007h.007a.009.009,0,0,1,.009.009h0A4.212,4.212,0,0,1,90.926,223.479Z" fill="#231815"/>
        <path d="M91.938,223.41v.007a.01.01,0,0,1-.008.012h-.062c-.109.011-.22.017-.331.018a.678.678,0,0,1-.373-.072.169.169,0,0,1-.063-.182c.032-.1.163-.161.358-.177a.392.392,0,0,1,.354.215c0-.036-.008-.074-.012-.113a.764.764,0,0,0-.138-.453c-.159-.152-.511.037-.514.039h-.014a.011.011,0,0,1,0-.015c.014-.007.368-.2.538-.035a.776.776,0,0,1,.143.466c.006.06.012.117.022.168a.518.518,0,0,1,.045.121l.039,0Zm-.079.007V223.4a.5.5,0,0,1-.029-.1.588.588,0,0,0-.1-.142.323.323,0,0,0-.239-.11h-.024c-.185.014-.312.074-.341.162a.149.149,0,0,0,.058.159C91.29,223.463,91.7,223.433,91.859,223.417Z" fill="#231815"/>
        <path d="M92.923,223.149c-.079.762-.148,1.12-.149,1.122s0,.009-.009.009h-.007v-.007s.061-.321.135-1h0a.627.627,0,0,0-.058.029c-.131.066-.436.221-.608.113a.361.361,0,0,1-.123-.335.519.519,0,0,1,.253-.475.378.378,0,0,1,.385.025A.538.538,0,0,1,92.923,223.149Zm-.2-.5a.358.358,0,0,0-.2-.062.378.378,0,0,0-.165.039.5.5,0,0,0-.241.457c0,.16.034.267.114.316.162.1.46-.049.587-.114.053-.027.066-.033.075-.03,0-.034.007-.069.01-.106a.515.515,0,0,0-.181-.5Z" fill="#231815"/>
        <path d="M94.484,222.772v.01h-.01a3.409,3.409,0,0,0-.653-.155.482.482,0,0,1,.085.62.447.447,0,0,1-.386.215H93.5a.443.443,0,0,1-.355-.179.6.6,0,0,1,.062-.531.447.447,0,0,1,.471-.169,3.847,3.847,0,0,1,.807.181Zm-.689-.136v-.012l-.124-.019a.84.84,0,0,0-.1-.007.4.4,0,0,0-.349.167.574.574,0,0,0-.061.509.419.419,0,0,0,.338.167.43.43,0,0,0,.391-.205.456.456,0,0,0-.09-.6Z" fill="#231815"/>
      </g>
    </g>
    <path d="M90,150.368a2.493,2.493,0,0,1-1.768-.732L53.6,115a2.5,2.5,0,0,1,0-3.535L88.232,76.834a2.5,2.5,0,0,1,3.536,0L126.4,111.467a2.5,2.5,0,0,1,0,3.535L91.768,149.636A2.5,2.5,0,0,1,90,150.368ZM58.9,113.235l31.1,31.1,31.1-31.1L90,82.137Z" fill="#172e7d"/>
  </g>
</svg>
