<?xml version="1.0" encoding="UTF-8"?><svg xmlns="http://www.w3.org/2000/svg" viewBox="0 0 1440 762.37" width="1440" height="762.37"><defs><style>.d{fill:#fff;}.e{fill:#5e95b4;}</style></defs><g id="a"/><g id="b"><g id="c"><g><rect class="d" width="1440" height="762.37"/><g><polygon class="e" points="592.94 169.42 592.94 254.13 254.12 254.13 254.12 592.95 169.41 592.95 169.41 169.42 592.94 169.42"/><polygon class="e" points="762.35 169.42 762.35 592.95 677.65 592.95 677.65 423.55 338.83 423.55 338.83 338.84 677.65 338.84 677.65 169.42 762.35 169.42"/><rect class="e" x="1016.46" y="169.42" width="84.71" height="254.13"/><rect class="e" x="1185.88" y="169.42" width="84.71" height="254.13"/><polygon class="e" points="1270.59 508.24 1270.59 592.95 847.06 592.95 847.06 169.42 931.77 169.42 931.77 508.24 1270.59 508.24"/><rect class="e" x="338.82" y="508.24" width="84.71" height="84.71"/><path class="e" d="M0,0V762.37H1440V0H0ZM84.71,677.66V84.71H1355.29V677.66H84.71Z"/><rect class="e" x="508.24" y="508.24" width="84.71" height="84.71"/></g></g></g></g></svg>