<svg xmlns="http://www.w3.org/2000/svg" width="1440" height="1440" viewBox="0 0 1440 1440">
  <g>
    <rect y="338.817" width="1440" height="762.365" fill="#fff"/>
    <g>
      <polygon points="592.936 508.236 592.936 592.946 254.118 592.946 254.118 931.764 169.409 931.764 169.409 508.236 592.936 508.236" fill="#5e95b4"/>
      <polygon points="762.355 508.236 762.355 931.764 677.645 931.764 677.645 762.365 338.828 762.365 338.828 677.656 677.645 677.656 677.645 508.236 762.355 508.236" fill="#5e95b4"/>
      <rect x="1016.463" y="508.236" width="84.71" height="254.129" fill="#5e95b4"/>
      <rect x="1185.882" y="508.236" width="84.71" height="254.129" fill="#5e95b4"/>
      <polygon points="1270.591 847.054 1270.591 931.764 847.064 931.764 847.064 508.236 931.774 508.236 931.774 847.054 1270.591 847.054" fill="#5e95b4"/>
      <rect x="338.817" y="847.054" width="84.71" height="84.71" fill="#5e95b4"/>
      <path d="M0,338.817v762.366H1440V338.817Zm84.71,677.656V423.527H1355.29v592.946Z" fill="#5e95b4"/>
      <rect x="508.237" y="847.054" width="84.71" height="84.71" fill="#5e95b4"/>
    </g>
  </g>
</svg>
