<svg xmlns="http://www.w3.org/2000/svg" width="1440" height="1440" viewBox="0 0 1440 1440">
  <rect width="1440" height="1440" rx="384.596" fill="#fff"/>
  <g>
    <rect x="130.13" y="407.711" width="1179.739" height="624.578" fill="#fff"/>
    <g>
      <polygon points="615.901 546.51 615.901 615.909 338.32 615.909 338.32 893.49 268.921 893.49 268.921 546.51 615.901 546.51" fill="#5e95b4"/>
      <polygon points="754.7 546.51 754.7 893.49 685.3 893.49 685.3 754.708 407.72 754.708 407.72 685.309 685.3 685.309 685.3 546.51 754.7 546.51" fill="#5e95b4"/>
      <rect x="962.881" y="546.51" width="69.399" height="208.198" fill="#5e95b4"/>
      <rect x="1101.68" y="546.51" width="69.399" height="208.198" fill="#5e95b4"/>
      <polygon points="1171.079 824.091 1171.079 893.49 824.099 893.49 824.099 546.51 893.499 546.51 893.499 824.091 1171.079 824.091" fill="#5e95b4"/>
      <rect x="407.711" y="824.091" width="69.399" height="69.399" fill="#5e95b4"/>
      <path d="M130.13,407.711v624.578H1309.87V407.711Zm69.4,555.178V477.111H1240.47V962.889Z" fill="#5e95b4"/>
      <rect x="546.51" y="824.091" width="69.399" height="69.399" fill="#5e95b4"/>
    </g>
  </g>
</svg>
