<?xml version="1.0" encoding="UTF-8"?>
<svg id="a" data-name="레이어 1" xmlns="http://www.w3.org/2000/svg" width="100" height="100" viewBox="0 0 100 100">
  <path d="M17.5,80c.181-10.048,3.635-21.087,12.658-26.64,7.255-4.605,16.421-5.983,24.728-3.94,8.946,2.114,16.461,9.614,15.588,19.322-.241,5.352-3.804,11.44-9.348,12.732-5.913,1.656-15.589.961-19.869-4.002-1.459-1.687-1.186-4.662.129-6.382,3.388-4.489,9.2-5.458,14.41-5.403,8.737.038,17.346,5.233,20.802,13.418,1.33,3.204-3.448,5.095-4.657,1.824-3.053-9.867-15.616-14.169-24.72-10.195-1.702.812-3.285,1.927-3.586,3.678.042,1.555,1.931,2.355,3.503,3.013,3.956,1.379,8.734,1.516,12.73.167,3.997-1.276,5.582-5.176,5.843-9.145.295-5.55-3.142-10.381-8.141-12.7-8.844-4.186-21.114-2.682-28.239,4.169-5.312,5.122-7.11,12.636-6.833,20.084.018,3.413-5.007,3.437-5,0h0Z" stroke-width="0"/>
  <path d="M30.811,14.105c5.461,2.188,3.757,8.665,2.174,12.863-1.925,6.64-3.627,13.481-5.103,20.235-2.256,10.816-4.631,21.792-5.382,32.798-.035,1.41-1.237,2.525-2.649,2.437-1.305-.077-2.317-1.153-2.351-2.437-.07-2.995.141-5.896.432-8.763.875-8.494,2.596-17.001,4.608-25.275,1.765-6.935,3.572-13.884,6.377-20.5,1.329-3.109,4.364-7.144,1.072-9.939-.762-.56-.043-1.803.822-1.418h0Z" stroke-width="0"/>
</svg>