<?xml version="1.0" encoding="UTF-8"?>
<svg id="a" data-name="레이어 1" xmlns="http://www.w3.org/2000/svg" width="100" height="100" viewBox="0 0 100 100">
  <path d="M20.354,77.525c9.028.989,29.3,4.793,35.132-3.524,4.494-5.594,3.316-10.932,1.756-17.382-.062-.511-.137-.952-.025-1.572.202-1.493,1.967-2.581,3.403-1.984,1.13.39,1.842,1.661,2.352,2.474,4.09,7.032,9.507,22.907.797,28.281-.751.411-1.592-.506-1.142-1.217,3.684-7.311-.404-18.287-4.458-25.379.122.117.275.25.5.359,1.487.811,3.374-.397,3.403-1.81,1.435,16.321-.753,27.431-19.494,28.466-7.857.461-15.523-.559-22.93-1.762-1.372-.211-2.311-1.502-2.088-2.872.217-1.337,1.461-2.252,2.795-2.078h0Z" stroke-width="0"/>
  <circle cx="82.781" cy="26.388" r="5" fill="none" stroke="#000" stroke-linecap="round" stroke-miterlimit="10" stroke-width="2.5"/>
  <path d="M30.811,14.105c5.461,2.188,3.757,8.665,2.174,12.863-1.925,6.64-3.627,13.481-5.103,20.235-2.256,10.816-4.631,21.792-5.382,32.798-.035,1.41-1.237,2.525-2.649,2.437-1.305-.077-2.317-1.153-2.351-2.437-.07-2.995.141-5.896.432-8.763.875-8.494,2.596-17.001,4.608-25.275,1.765-6.935,3.572-13.884,6.377-20.5,1.329-3.109,4.364-7.144,1.072-9.939-.762-.56-.043-1.803.822-1.418h0Z" stroke-width="0"/>
  <path d="M16.69,38.653c13.476-5.365,26.933-14.446,42.161-13.205,5.057.656,11.076,1.605,13.964,6.564,1.135,2.047,1.429,4.319,1.431,6.509-.007,1.099-.116,2.452-.846,3.812-1.921,3.602-6.179,3.751-9.594,3.348-5.568-.184-9.341-4.092-10.888-9.144-.341-.939,1.027-1.543,1.495-.67,1.514,2.878,3.758,5.665,7.078,5.993,2.74.454,7.485-1.008,7.312-1.863.468-2.076.18-5.419-1.637-6.764-2.219-1.719-5.983-2.387-8.875-2.826-6.83-1.021-13.575,1.032-19.89,3.765-6.529,2.799-13.027,6.074-19.628,9.167-3.134,1.378-5.243-3.252-2.083-4.687h0Z" stroke-width="0"/>
  <path d="M55.464,19.227c-2.959,5.02-4.004,11.331-5.209,17.045-.527,2.502-4.215,1.876-3.882-.664.755-4.762,1.667-9.504,3.182-14.125.846-1.961,2.03-7.256,5.3-5.487,1.095.693,1.373,2.186.609,3.231h0Z" stroke-width="0"/>
</svg>