<?xml version="1.0" encoding="UTF-8"?>
<svg id="a" data-name="레이어 1" xmlns="http://www.w3.org/2000/svg" width="100" height="100" viewBox="0 0 100 100">
  <path d="M20.354,77.525c8.02.878,16.558,1.6,23.663-2.262,5.773-3.178,7.796-10.303,5.206-16.363-.67-2.121-2.011-3.985-2.128-6.36.025-.442.18-1.041.528-1.47.175-.193.195-.325.819-.706.639-.306.819-.269,1.133-.301.437.003.546.036.827.109.537.177.62.265.797.354,2.057,1.339,3.647,2.956,5.384,4.581,5.861,5.94,15.781,16.358,14.857,25.35-1.158,6.598-10.364,9.45-15.496,5.295-3.071-2.156-3.885-6.896-2.042-10.024,4.521-7.826,15.079-10.662,23.285-12.587,1.004-.22,1.43,1.301.428,1.613-6.372,2.134-21.873,7.512-20.997,15.568.784,3.21,5.011,4.225,7.798,2.74,1.885-.936,3.19-2.357,2.631-4.728-1.122-4.887-4.972-9.546-8.229-13.513-3.106-3.535-6.393-7.166-10.113-10.038.161.08.589.233,1.007.208.291-.03.448.005,1.068-.287.601-.373.611-.484.773-.659.285-.378.441-.843.457-1.215.007-.321-.02-.31-.016-.319.876,3.123,1.513,6.477,1.848,9.895,2.807,20.306-19.275,22.798-34.195,20.067-3.184-.585-2.536-5.28.707-4.95h0Z" stroke-width="0"/>
  <circle cx="82.781" cy="26.388" r="5" fill="none" stroke="#000" stroke-linecap="round" stroke-miterlimit="10" stroke-width="2.5"/>
  <path d="M30.811,14.105c5.461,2.188,3.757,8.665,2.174,12.863-1.925,6.64-3.627,13.481-5.103,20.235-2.256,10.816-4.631,21.792-5.382,32.798-.035,1.41-1.237,2.525-2.649,2.437-1.305-.077-2.317-1.153-2.351-2.437-.07-2.995.141-5.896.432-8.763.875-8.494,2.596-17.001,4.608-25.275,1.765-6.935,3.572-13.884,6.377-20.5,1.329-3.109,4.364-7.144,1.072-9.939-.762-.56-.043-1.803.822-1.418h0Z" stroke-width="0"/>
  <path d="M16.69,38.653c13.476-5.365,26.933-14.446,42.161-13.205,5.057.656,11.076,1.605,13.964,6.564,1.135,2.047,1.429,4.319,1.431,6.509-.007,1.099-.116,2.452-.846,3.812-1.921,3.602-6.179,3.751-9.594,3.348-5.568-.184-9.341-4.092-10.888-9.144-.341-.939,1.027-1.543,1.495-.67,1.514,2.878,3.758,5.665,7.078,5.993,2.74.454,7.485-1.008,7.312-1.863.468-2.076.18-5.419-1.637-6.764-2.219-1.719-5.983-2.387-8.875-2.826-6.83-1.021-13.575,1.032-19.89,3.765-6.529,2.799-13.027,6.074-19.628,9.167-3.134,1.378-5.243-3.252-2.083-4.687h0Z" stroke-width="0"/>
  <path d="M55.464,19.227c-2.959,5.02-4.004,11.331-5.209,17.045-.527,2.502-4.215,1.876-3.882-.664.755-4.762,1.667-9.504,3.182-14.125.846-1.961,2.03-7.256,5.3-5.487,1.095.693,1.373,2.186.609,3.231h0Z" stroke-width="0"/>
</svg>