<?xml version="1.0" encoding="UTF-8"?>
<svg id="a" data-name="레이어 1" xmlns="http://www.w3.org/2000/svg" width="100" height="100" viewBox="0 0 100 100">
  <path d="M18.545,82.033c-7.409-5.532-12.18-13.472-6.773-22.332,4.801-7.078,24.39-10.139,32.6-9.818.646.132,1.142.283,1.639.865,1.055,1.25.331,3.057-.998,3.553-10.097,4.896-9.395,18.783,1.068,22.633,6.777,2.031,18.337-.826,20.684-8.228.922-4.169-2.425-9.787-5.317-12.35-.704-.551-1.247-.908-1.878-.915-1.49.711-2.723,2.074-3.753,3.404-5.481,7.658-4.66,22.145.677,29.817.737.942-.564,2.21-1.483,1.418-3.147-2.706-4.856-6.529-6.032-10.383-2.834-9.672-1.548-22.157,7.489-28.327,8.489-5.233,17.76,11.712,15.363,18.727-3.226,11.159-21.14,15.782-30.382,10.073-11.691-6.84-11.07-23.555,1.063-29.454,0,0,.731-.344.731-.344.084-.037-.019,0-.15.09-1.171.738-1.158,2.731.088,3.45.151.086.347.188.488.205-.156-.033-.654-.059-1.057-.061-7.454.176-22.726,1.96-27.504,7.894-3.925,6.642.426,12.314,6.347,16.018,2.854,1.961-.137,6.132-2.911,4.066h0Z" stroke-width="0"/>
  <circle cx="82.781" cy="26.388" r="5" fill="none" stroke="#000" stroke-linecap="round" stroke-miterlimit="10" stroke-width="2.5"/>
  <path d="M30.811,14.105c5.461,2.188,3.757,8.665,2.174,12.863-1.925,6.64-3.627,13.481-5.103,20.235-2.256,10.816-4.631,21.792-5.382,32.798-.035,1.41-1.237,2.525-2.649,2.437-1.305-.077-2.317-1.153-2.351-2.437-.07-2.995.141-5.896.432-8.763.875-8.494,2.596-17.001,4.608-25.275,1.765-6.935,3.572-13.884,6.377-20.5,1.329-3.109,4.364-7.144,1.072-9.939-.762-.56-.043-1.803.822-1.418h0Z" stroke-width="0"/>
  <path d="M16.69,38.653c13.476-5.365,26.933-14.446,42.161-13.205,5.057.656,11.076,1.605,13.964,6.564,1.135,2.047,1.429,4.319,1.431,6.509-.007,1.099-.116,2.452-.846,3.812-1.921,3.602-6.179,3.751-9.594,3.348-5.568-.184-9.341-4.092-10.888-9.144-.341-.939,1.027-1.543,1.495-.67,1.514,2.878,3.758,5.665,7.078,5.993,2.74.454,7.485-1.008,7.312-1.863.468-2.076.18-5.419-1.637-6.764-2.219-1.719-5.983-2.387-8.875-2.826-6.83-1.021-13.575,1.032-19.89,3.765-6.529,2.799-13.027,6.074-19.628,9.167-3.134,1.378-5.243-3.252-2.083-4.687h0Z" stroke-width="0"/>
  <path d="M55.464,19.227c-2.959,5.02-4.004,11.331-5.209,17.045-.527,2.502-4.215,1.876-3.882-.664.755-4.762,1.667-9.504,3.182-14.125.846-1.961,2.03-7.256,5.3-5.487,1.095.693,1.373,2.186.609,3.231h0Z" stroke-width="0"/>
</svg>