<?xml version="1.0" encoding="UTF-8"?>
<svg id="a" data-name="레이어 1" xmlns="http://www.w3.org/2000/svg" width="100" height="100" viewBox="0 0 100 100">
  <path d="M17.5,80c.282-9.845,2.987-20.94,11.802-26.791,12.697-8.634,33.455-5.744,40.322,8.983,3.885,8.526,1.721,17.889-8.694,19.303-7.161.915-15.865-1.258-20.773-6.783-.793-.992.649-2.243,1.518-1.325,3.011,3.04,7.84,4.381,12.059,4.814,4.093.346,8.439-.353,11.424-3.252,2.3-2.693,1.565-7.493-.013-10.648-3.679-7.71-12.853-11.49-21.135-10.944-8.812.247-16.694,5.125-19.672,13.597-1.481,4.077-2.005,8.581-1.838,13.07.013,3.43-5.037,3.427-5.001-.024h0Z" stroke-width="0"/>
  <path d="M30.811,14.105c5.461,2.188,3.757,8.665,2.174,12.863-1.925,6.64-3.627,13.481-5.103,20.235-2.256,10.816-4.631,21.792-5.382,32.798-.035,1.41-1.237,2.525-2.649,2.437-1.305-.077-2.317-1.153-2.351-2.437-.07-2.995.141-5.896.432-8.763.875-8.494,2.596-17.001,4.608-25.275,1.765-6.935,3.572-13.884,6.377-20.5,1.329-3.109,4.364-7.144,1.072-9.939-.762-.56-.043-1.803.822-1.418h0Z" stroke-width="0"/>
  <path d="M14.612,44.793c4.687-3.12,9.612-4.085,14.819-5.219,4.94-.975,9.886-1.598,14.838-2.077,7.446-.697,14.89-1.092,22.38-.951,2.513.103,5.061.1,7.553.744,1.705.382,2.819,2.241,1.891,3.842-.688,1.223-2.238,1.657-3.461.969.012.031.038.046.066.042,0,0-.264-.061-.264-.061-1.906-.371-3.935-.408-5.916-.49-12.048-.189-24.298.609-36.138,2.806-4.363.908-9.407,1.984-12.976,4.405-2.664,1.775-5.408-2.093-2.792-4.011h0Z" stroke-width="0"/>
  <path d="M20.27,31.97c3.085-2.245,6.444-3.539,9.79-4.584,6.686-2.007,13.516-2.89,20.456-3.112,3.414-.034,6.953-.143,10.259.919,1.573.419,2.843,1.841,2.077,3.498-.421.91-1.354,1.421-2.299,1.347-1.803-.097-3.14-.591-5.14-.625-7.991-.424-16.242.427-23.913,2.672-3.03.924-6.002,2.112-8.35,3.833-2.633,1.836-5.452-1.977-2.881-3.95h0Z" stroke-width="0"/>
</svg>