<?xml version="1.0" encoding="UTF-8"?>
<svg id="a" data-name="레이어 1" xmlns="http://www.w3.org/2000/svg" width="100" height="100" viewBox="0 0 100 100">
  <path d="M20.354,77.525c8.02.878,16.558,1.6,23.663-2.262,5.773-3.178,7.796-10.303,5.206-16.363-.67-2.121-2.011-3.985-2.128-6.36.025-.442.18-1.041.528-1.47.175-.193.195-.325.819-.706.639-.306.819-.269,1.133-.301.437.003.546.036.827.109.537.177.62.265.797.354,2.057,1.339,3.647,2.956,5.384,4.581,5.861,5.94,15.781,16.358,14.857,25.35-1.158,6.598-10.364,9.45-15.496,5.295-3.071-2.156-3.885-6.896-2.042-10.024,4.521-7.826,15.079-10.662,23.285-12.587,1.004-.22,1.43,1.301.428,1.613-6.372,2.134-21.873,7.512-20.997,15.568.784,3.21,5.011,4.225,7.798,2.74,1.885-.936,3.19-2.357,2.631-4.728-1.122-4.887-4.972-9.546-8.229-13.513-3.106-3.535-6.393-7.166-10.113-10.038.161.08.589.233,1.007.208.291-.03.448.005,1.068-.287.601-.373.611-.484.773-.659.285-.378.441-.843.457-1.215.007-.321-.02-.31-.016-.319.876,3.123,1.513,6.477,1.848,9.895,2.807,20.306-19.275,22.798-34.195,20.067-3.184-.585-2.536-5.28.707-4.95h0Z" stroke-width="0"/>
  <path d="M30.811,14.105c5.461,2.188,3.757,8.665,2.174,12.863-1.925,6.64-3.627,13.481-5.103,20.235-2.256,10.816-4.631,21.792-5.382,32.798-.035,1.41-1.237,2.525-2.649,2.437-1.305-.077-2.317-1.153-2.351-2.437-.07-2.995.141-5.896.432-8.763.875-8.494,2.596-17.001,4.608-25.275,1.765-6.935,3.572-13.884,6.377-20.5,1.329-3.109,4.364-7.144,1.072-9.939-.762-.56-.043-1.803.822-1.418h0Z" stroke-width="0"/>
  <path d="M14.612,44.793c4.687-3.12,9.612-4.085,14.819-5.219,4.94-.975,9.886-1.598,14.838-2.077,7.446-.697,14.89-1.092,22.38-.951,2.513.103,5.061.1,7.553.744,1.705.382,2.819,2.241,1.891,3.842-.688,1.223-2.238,1.657-3.461.969.012.031.038.046.066.042,0,0-.264-.061-.264-.061-1.906-.371-3.935-.408-5.916-.49-12.048-.189-24.298.609-36.138,2.806-4.363.908-9.407,1.984-12.976,4.405-2.664,1.775-5.408-2.093-2.792-4.011h0Z" stroke-width="0"/>
  <path d="M20.27,31.97c3.085-2.245,6.444-3.539,9.79-4.584,6.686-2.007,13.516-2.89,20.456-3.112,3.414-.034,6.953-.143,10.259.919,1.573.419,2.843,1.841,2.077,3.498-.421.91-1.354,1.421-2.299,1.347-1.803-.097-3.14-.591-5.14-.625-7.991-.424-16.242.427-23.913,2.672-3.03.924-6.002,2.112-8.35,3.833-2.633,1.836-5.452-1.977-2.881-3.95h0Z" stroke-width="0"/>
</svg>