<?xml version="1.0" encoding="UTF-8"?>
<svg id="a" data-name="레이어 1" xmlns="http://www.w3.org/2000/svg" width="100" height="100" viewBox="0 0 100 100">
  <path d="M20.354,77.525c9.029.989,29.299,4.793,35.132-3.524,4.494-5.595,3.316-10.932,1.756-17.382-.062-.511-.136-.952-.025-1.572.202-1.493,1.967-2.581,3.403-1.984,1.13.39,1.842,1.661,2.352,2.475,4.09,7.032,9.507,22.907.797,28.281-.751.411-1.592-.505-1.142-1.217,3.684-7.311-.404-18.287-4.458-25.379.121.117.275.25.5.359,1.488.811,3.374-.398,3.403-1.81,1.434,16.322-.753,27.431-19.494,28.466-7.857.461-15.523-.559-22.93-1.762-1.372-.211-2.311-1.501-2.088-2.872.217-1.337,1.461-2.252,2.795-2.078h0Z" stroke-width="0"/>
  <path d="M67.458,50.528c-1.3-2.755-4.369-4.253-7.119-3.114.032-.021.062-.003.296-.21,1.025-.991.513-2.815-.91-3.141,2.706-.284,5.516-.385,8.356.512,2.428.738,4.558,2.066,6.31,3.628.827.738.9,2.007.162,2.835-.658.738-1.74.874-2.551.374-1.773-1.036-3.476-1.973-5.26-2.516-2.136-.691-4.679-.833-7.131-.863-.582-.086-.551.035-1.398-.402-.632-.391-1.061-1.208-.933-2.016.592-2.831,5.173-2.331,7.102-1.507,1.271.534,2.396,1.458,3.103,2.579.527.78,1.859,4.014.522,4.157-.236.009-.444-.121-.548-.316h0Z" stroke-width="0"/>
  <path d="M30.811,14.105c5.461,2.188,3.757,8.665,2.174,12.863-1.925,6.64-3.627,13.481-5.103,20.235-2.256,10.816-4.631,21.792-5.382,32.798-.035,1.41-1.237,2.525-2.649,2.437-1.305-.077-2.317-1.153-2.351-2.437-.07-2.995.141-5.896.432-8.763.875-8.494,2.596-17.001,4.608-25.275,1.765-6.935,3.572-13.884,6.377-20.5,1.329-3.109,4.364-7.144,1.072-9.939-.762-.56-.043-1.803.822-1.418h0Z" stroke-width="0"/>
  <path d="M14.612,44.793c4.687-3.12,9.612-4.085,14.819-5.219,4.94-.975,9.886-1.598,14.838-2.077,7.446-.697,14.89-1.092,22.38-.951,2.513.103,5.061.1,7.553.744,1.705.382,2.819,2.241,1.891,3.842-.688,1.223-2.238,1.657-3.461.969.012.031.038.046.066.042,0,0-.264-.061-.264-.061-1.906-.371-3.935-.408-5.916-.49-12.048-.189-24.298.609-36.138,2.806-4.363.908-9.407,1.984-12.976,4.405-2.664,1.775-5.408-2.093-2.792-4.011h0Z" stroke-width="0"/>
  <path d="M20.27,31.97c3.085-2.245,6.444-3.539,9.79-4.584,6.686-2.007,13.516-2.89,20.456-3.112,3.414-.034,6.953-.143,10.259.919,1.573.419,2.843,1.841,2.077,3.498-.421.91-1.354,1.421-2.299,1.347-1.803-.097-3.14-.591-5.14-.625-7.991-.424-16.242.427-23.913,2.672-3.03.924-6.002,2.112-8.35,3.833-2.633,1.836-5.452-1.977-2.881-3.95h0Z" stroke-width="0"/>
</svg>