<?xml version="1.0" encoding="UTF-8"?>
<svg id="a" data-name="레이어 1" xmlns="http://www.w3.org/2000/svg" width="100" height="100" viewBox="0 0 100 100">
  <path d="M55.519,47.294c.332-.051.856.068.904.105,1.184.463,2.082,1.281,3.026,2.053,1.311,1.238,4.356,3.423,2.2,5.341-.942.779-2.403.506-3.004-.557-.765-1.28-1.984-2.739-3.136-3.785,0,0-.167-.143-.167-.143-.042-.034.015.001.037-.003-.069-.029.317.098.52.024-1.998.216-2.371-2.753-.379-3.035h0Z" stroke-width="0"/>
  <path d="M61.524,46.016c.332-.052.856.068.904.105,1.184.463,2.082,1.281,3.026,2.052,1.311,1.238,4.356,3.423,2.2,5.342-.942.779-2.403.506-3.004-.557-.765-1.28-1.984-2.739-3.136-3.785,0,0-.167-.143-.167-.143-.042-.034.015.001.037-.003-.069-.029.317.098.52.024-1.998.216-2.371-2.753-.379-3.035h0Z" stroke-width="0"/>
  <path d="M19.654,77.524c6.844-.761,28.542-4.622,31.796-10.559.051-2.556-1.321-5.041-2.509-7.305-1.424-2.522-3.163-4.922-5.14-6.995-1.457-1.505-4.089-3.93-6-3.611-.177.043-.185.084-.333.19-4.158,5.024-4.746,19.345-3.338,25.607.17.663.408,1.321.664,1.599.028.024.233.145.468.244,6.019,1.996,12.924,2.128,19.309,2.197,3.825-.182,7.8-.045,11.182-1.635,1.056-.824,1.486-2.197,1.84-3.719.572-2.664.414-5.716.048-8.567-.117-.642.329-1.259.977-1.34.56-.072,1.078.276,1.236.8.476,1.569.792,3.092.988,4.695.68,5.569-.04,11.656-6.633,12.968-6.319,1.538-12.505,1.54-18.881,1.261-4.116-.443-12.626-.43-14.933-4.538-3.542-6.719-.537-25.043,3.712-31.182,2.04-3.063,5.902-2.506,8.483-.689,5.369,3.786,9.144,9.296,11.67,15.27,1.116,2.771,1.674,6.118-.633,8.382-4.117,4.091-9.878,5.738-15.158,7.533-5.954,1.849-11.952,3.272-18.126,4.346-3.357.484-4.082-4.486-.692-4.952h0Z" stroke-width="0"/>
  <path d="M30.811,14.105c5.461,2.188,3.757,8.665,2.174,12.863-1.925,6.64-3.627,13.481-5.103,20.235-2.256,10.816-4.631,21.792-5.382,32.798-.035,1.41-1.237,2.525-2.649,2.437-1.305-.077-2.317-1.153-2.351-2.437-.07-2.995.141-5.896.432-8.763.875-8.494,2.596-17.001,4.608-25.275,1.765-6.935,3.572-13.884,6.377-20.5,1.329-3.109,4.364-7.144,1.072-9.939-.762-.56-.043-1.803.822-1.418h0Z" stroke-width="0"/>
  <path d="M14.612,44.793c4.687-3.12,9.612-4.085,14.819-5.219,4.94-.975,9.886-1.598,14.838-2.077,7.446-.697,14.89-1.092,22.38-.951,2.513.103,5.061.1,7.553.744,1.705.382,2.819,2.241,1.891,3.842-.688,1.223-2.238,1.657-3.461.969.012.031.038.046.066.042,0,0-.264-.061-.264-.061-1.906-.371-3.935-.408-5.916-.49-12.048-.189-24.298.609-36.138,2.806-4.363.908-9.407,1.984-12.976,4.405-2.664,1.775-5.408-2.093-2.792-4.011h0Z" stroke-width="0"/>
  <path d="M20.27,31.97c3.085-2.245,6.444-3.539,9.79-4.584,6.686-2.007,13.516-2.89,20.456-3.112,3.414-.034,6.953-.143,10.259.919,1.573.419,2.843,1.841,2.077,3.498-.421.91-1.354,1.421-2.299,1.347-1.803-.097-3.14-.591-5.14-.625-7.991-.424-16.242.427-23.913,2.672-3.03.924-6.002,2.112-8.35,3.833-2.633,1.836-5.452-1.977-2.881-3.95h0Z" stroke-width="0"/>
</svg>