<?xml version="1.0" encoding="UTF-8"?>
<svg id="a" data-name="레이어 1" xmlns="http://www.w3.org/2000/svg" width="100" height="100" viewBox="0 0 100 100">
  <path d="M18.545,82.033c-5.139-4.689-16.231-10.119-12.529-18.632,2.23-5.046,18.342-22.794,20.68-10.179,1.495,6.769,1.479,17.588,7.537,21.702,1.957.63,4.197.684,6.319.848,6.291.26,12.738.144,18.941-.857,1.432-.24,3.03-.68,3.935-1.182-.023.017-.067.106-.051.08.746-1.342.949-2.781,1.149-4.42.473-4.828.085-10.084-.224-15.241-.034-.572.402-1.063.973-1.097.47-.028.886.263,1.038.685.915,2.547,1.562,5.125,2.054,7.778.751,4.729,1.455,10.087-.773,14.663-3.119,5.881-28.793,5.71-34.804,3.77-9.15-4.014-9.364-17.643-10.869-25.729-.101-.548-.279-1.137-.34-1.268.049.087.138.174.219.253.215.206.475.319.636.353.31.061.268,0,.146.038-2.54.845-4.898,2.809-7.127,4.669-1.858,1.647-3.674,3.442-5.019,5.379-3.407,4.109,1.056,7.533,4.523,10.035,2.058,1.492,4.268,2.892,6.502,4.29,2.916,1.959-.129,6.197-2.917,4.062h0Z" stroke-width="0"/>
  <path d="M30.811,14.105c5.461,2.188,3.757,8.665,2.174,12.863-1.925,6.64-3.627,13.481-5.103,20.235-2.256,10.816-4.631,21.792-5.382,32.798-.035,1.41-1.237,2.525-2.649,2.437-1.305-.077-2.317-1.153-2.351-2.437-.07-2.995.141-5.896.432-8.763.875-8.494,2.596-17.001,4.608-25.275,1.765-6.935,3.572-13.884,6.377-20.5,1.329-3.109,4.364-7.144,1.072-9.939-.762-.56-.043-1.803.822-1.418h0Z" stroke-width="0"/>
  <path d="M63.111,28.249c-3.201,2.304-6.664,3.327-10.244,4.659-5.059,1.739-10.829,3.325-15.993,4.73-3.808.987-7.302,1.89-11.401,1.859-.729-.025-1.749-.089-2.631-.424-.809-.195-1.234-1.857-.863-2.634.181-.426.279-.587.412-.977.289-.549.644-.723.918-.886,2.496-1.043,5.304-.922,7.902-1.101,5.565-.198,11.123-.221,16.688.009,3.709.153,7.409.473,11.12.966,3.699.617,7.633.863,11.002,2.799,1.644.959,2.341,3.538.224,4.73-1.22.646-2.733.18-3.379-1.04.262.431.34.389.304.379-2.68-1.399-5.868-1.86-8.858-2.524-3.542-.68-7.142-1.231-10.747-1.774-3.608-.521-7.232-1.017-10.868-1.311-4.132-.241-8.978-.693-12.584.558.017-.123.063-.028.319-.305.331-.305.445-1.559.116-1.758,1.515-.197,3.842-.552,5.782-.96,7.099-1.199,14.229-3.012,21.256-4.741,3.589-.796,7.219-1.808,10.874-2.031.953-.093,1.433,1.237.652,1.776h0Z" stroke-width="0"/>
</svg>