<?xml version="1.0" encoding="UTF-8"?>
<svg id="a" data-name="레이어 1" xmlns="http://www.w3.org/2000/svg" width="100" height="100" viewBox="0 0 100 100">
  <path d="M20.354,77.525c9.028.989,29.3,4.793,35.132-3.524,4.494-5.594,3.316-10.932,1.756-17.382-.062-.511-.137-.952-.025-1.572.202-1.493,1.967-2.581,3.403-1.984,1.13.39,1.842,1.661,2.352,2.474,4.09,7.032,9.507,22.907.797,28.281-.751.411-1.592-.506-1.142-1.217,3.684-7.311-.404-18.287-4.458-25.379.122.117.275.25.5.359,1.487.811,3.374-.397,3.403-1.81,1.435,16.321-.753,27.431-19.494,28.466-7.857.461-15.523-.559-22.93-1.762-1.372-.211-2.311-1.502-2.088-2.872.217-1.337,1.461-2.252,2.795-2.078h0Z" stroke-width="0"/>
  <path d="M30.811,14.105c5.461,2.188,3.757,8.665,2.174,12.863-1.925,6.64-3.627,13.481-5.103,20.235-2.256,10.816-4.631,21.792-5.382,32.798-.035,1.41-1.237,2.525-2.649,2.437-1.305-.077-2.317-1.153-2.351-2.437-.07-2.995.141-5.896.432-8.763.875-8.494,2.596-17.001,4.608-25.275,1.765-6.935,3.572-13.884,6.377-20.5,1.329-3.109,4.364-7.144,1.072-9.939-.762-.56-.043-1.803.822-1.418h0Z" stroke-width="0"/>
  <path d="M63.111,28.249c-3.201,2.304-6.664,3.327-10.244,4.659-5.059,1.739-10.829,3.325-15.993,4.73-3.808.987-7.302,1.89-11.401,1.859-.729-.025-1.749-.089-2.631-.424-.809-.195-1.234-1.857-.863-2.634.181-.426.279-.587.412-.977.289-.549.644-.723.918-.886,2.496-1.043,5.304-.922,7.902-1.101,5.565-.198,11.123-.221,16.688.009,3.709.153,7.409.473,11.12.966,3.699.617,7.633.863,11.002,2.799,1.644.959,2.341,3.538.224,4.73-1.22.646-2.733.18-3.379-1.04.262.431.34.389.304.379-2.68-1.399-5.868-1.86-8.858-2.524-3.542-.68-7.142-1.231-10.747-1.774-3.608-.521-7.232-1.017-10.868-1.311-4.132-.241-8.978-.693-12.584.558.017-.123.063-.028.319-.305.331-.305.445-1.559.116-1.758,1.515-.197,3.842-.552,5.782-.96,7.099-1.199,14.229-3.012,21.256-4.741,3.589-.796,7.219-1.808,10.874-2.031.953-.093,1.433,1.237.652,1.776h0Z" stroke-width="0"/>
</svg>