<?xml version="1.0" encoding="UTF-8"?>
<svg id="a" data-name="레이어 1" xmlns="http://www.w3.org/2000/svg" width="100" height="100" viewBox="0 0 100 100">
  <path d="M20.354,77.525c8.02.878,16.558,1.6,23.663-2.262,5.773-3.178,7.796-10.303,5.206-16.363-.67-2.121-2.011-3.985-2.128-6.36.025-.442.18-1.041.528-1.47.175-.193.195-.325.819-.706.639-.306.819-.269,1.133-.301.437.003.546.036.827.109.537.177.62.265.797.354,2.057,1.339,3.647,2.956,5.384,4.581,5.861,5.94,15.781,16.358,14.857,25.35-1.158,6.598-10.364,9.45-15.496,5.295-3.071-2.156-3.885-6.896-2.042-10.024,4.521-7.826,15.079-10.662,23.285-12.587,1.004-.22,1.43,1.301.428,1.613-6.372,2.134-21.873,7.512-20.997,15.568.784,3.21,5.011,4.225,7.798,2.74,1.885-.936,3.19-2.357,2.631-4.728-1.122-4.887-4.972-9.546-8.229-13.513-3.106-3.535-6.393-7.166-10.113-10.038.161.08.589.233,1.007.208.291-.03.448.005,1.068-.287.601-.373.611-.484.773-.659.285-.378.441-.843.457-1.215.007-.321-.02-.31-.016-.319.876,3.123,1.513,6.477,1.848,9.895,2.807,20.306-19.275,22.798-34.195,20.067-3.184-.585-2.536-5.28.707-4.95h0Z" stroke-width="0"/>
  <path d="M30.811,14.105c5.461,2.188,3.757,8.665,2.174,12.863-1.925,6.64-3.627,13.481-5.103,20.235-2.256,10.816-4.631,21.792-5.382,32.798-.035,1.41-1.237,2.525-2.649,2.437-1.305-.077-2.317-1.153-2.351-2.437-.07-2.995.141-5.896.432-8.763.875-8.494,2.596-17.001,4.608-25.275,1.765-6.935,3.572-13.884,6.377-20.5,1.329-3.109,4.364-7.144,1.072-9.939-.762-.56-.043-1.803.822-1.418h0Z" stroke-width="0"/>
  <path d="M63.111,28.249c-3.201,2.304-6.664,3.327-10.244,4.659-5.059,1.739-10.829,3.325-15.993,4.73-3.808.987-7.302,1.89-11.401,1.859-.729-.025-1.749-.089-2.631-.424-.809-.195-1.234-1.857-.863-2.634.181-.426.279-.587.412-.977.289-.549.644-.723.918-.886,2.496-1.043,5.304-.922,7.902-1.101,5.565-.198,11.123-.221,16.688.009,3.709.153,7.409.473,11.12.966,3.699.617,7.633.863,11.002,2.799,1.644.959,2.341,3.538.224,4.73-1.22.646-2.733.18-3.379-1.04.262.431.34.389.304.379-2.68-1.399-5.868-1.86-8.858-2.524-3.542-.68-7.142-1.231-10.747-1.774-3.608-.521-7.232-1.017-10.868-1.311-4.132-.241-8.978-.693-12.584.558.017-.123.063-.028.319-.305.331-.305.445-1.559.116-1.758,1.515-.197,3.842-.552,5.782-.96,7.099-1.199,14.229-3.012,21.256-4.741,3.589-.796,7.219-1.808,10.874-2.031.953-.093,1.433,1.237.652,1.776h0Z" stroke-width="0"/>
</svg>