<?xml version="1.0" encoding="UTF-8"?>
<svg id="a" data-name="레이어 1" xmlns="http://www.w3.org/2000/svg" width="100" height="100" viewBox="0 0 100 100">
  <path d="M20.432,77.538c3.158.51,6.689.341,9.937.296,6.809-.305,13.842-.827,20.425-2.475,1.82-.526,3.693-.982,4.891-2.062.045-.045.02-.042.017.006-.032.054-.022.165-.019.227,0,0,.022.065.008.014-1.629-6.056-7.318-13.751-13.938-13.497-5.296.489-11.499,6.959-11.272,12.332.111.316.76.651,1.441,1.005,4.387,1.965,9.524,2.722,14.362,3.196,4.082.271,8.161.423,11.872-.837,1.374-.58,1.565-.757,2.228-2.2,1.751-4.575,2.702-10.372,2.254-15.04.856,1.318,3.125,1.183,3.901-.204.057-.095.083-.144.118-.222.177-.443.115-.4.132-.425.225,8.356,1.807,16.678,2.578,25.088.089.793-.485,1.509-1.279,1.594-.722.078-1.377-.393-1.551-1.078-.869-3.416-1.649-6.839-2.358-10.286-.739-3.445-1.364-6.902-1.904-10.431-.232-1.937-.694-3.891-.398-5.883.278-1.757,2.346-2.862,3.952-1.89,4.321,2.698,1.073,16.874-.759,20.865-2.884,7.094-12.997,6.362-19.194,6.108-3.642-.281-7.233-.836-10.811-1.793-2.968-.914-5.864-1.574-8.342-4.015-2.563-3.01-1.213-7.305.39-10.334,2.956-5.241,7.987-9.478,14.32-9.859,8.631-.139,15.336,8.906,17.72,16.348.255.747.367,1.618.099,2.383-1.85,6.464-30.151,7.971-36.698,8.131-.945-.002-1.825.014-2.997-.14-3.391-.552-2.531-5.573.875-4.923h0Z" stroke-width="0"/>
  <path d="M30.811,14.105c5.461,2.188,3.757,8.665,2.174,12.863-1.925,6.64-3.627,13.481-5.103,20.235-2.256,10.816-4.631,21.792-5.382,32.798-.035,1.41-1.237,2.525-2.649,2.437-1.305-.077-2.317-1.153-2.351-2.437-.07-2.995.141-5.896.432-8.763.875-8.494,2.596-17.001,4.608-25.275,1.765-6.935,3.572-13.884,6.377-20.5,1.329-3.109,4.364-7.144,1.072-9.939-.762-.56-.043-1.803.822-1.418h0Z" stroke-width="0"/>
  <path d="M63.111,28.249c-3.201,2.304-6.664,3.327-10.244,4.659-5.059,1.739-10.829,3.325-15.993,4.73-3.808.987-7.302,1.89-11.401,1.859-.729-.025-1.749-.089-2.631-.424-.809-.195-1.234-1.857-.863-2.634.181-.426.279-.587.412-.977.289-.549.644-.723.918-.886,2.496-1.043,5.304-.922,7.902-1.101,5.565-.198,11.123-.221,16.688.009,3.709.153,7.409.473,11.12.966,3.699.617,7.633.863,11.002,2.799,1.644.959,2.341,3.538.224,4.73-1.22.646-2.733.18-3.379-1.04.262.431.34.389.304.379-2.68-1.399-5.868-1.86-8.858-2.524-3.542-.68-7.142-1.231-10.747-1.774-3.608-.521-7.232-1.017-10.868-1.311-4.132-.241-8.978-.693-12.584.558.017-.123.063-.028.319-.305.331-.305.445-1.559.116-1.758,1.515-.197,3.842-.552,5.782-.96,7.099-1.199,14.229-3.012,21.256-4.741,3.589-.796,7.219-1.808,10.874-2.031.953-.093,1.433,1.237.652,1.776h0Z" stroke-width="0"/>
</svg>