<?xml version="1.0" encoding="UTF-8"?>
<svg id="a" data-name="레이어 1" xmlns="http://www.w3.org/2000/svg" width="100" height="100" viewBox="0 0 100 100">
  <path d="M17.5,80c.181-10.048,3.635-21.087,12.658-26.64,7.255-4.605,16.421-5.983,24.728-3.94,8.946,2.114,16.461,9.614,15.588,19.322-.241,5.352-3.804,11.44-9.348,12.732-5.913,1.656-15.589.961-19.869-4.002-1.459-1.687-1.186-4.662.129-6.382,3.388-4.489,9.2-5.458,14.41-5.403,8.737.038,17.346,5.233,20.802,13.418,1.33,3.204-3.448,5.095-4.657,1.824-3.053-9.867-15.616-14.169-24.72-10.195-1.702.812-3.285,1.927-3.586,3.678.042,1.555,1.931,2.355,3.503,3.013,3.956,1.379,8.734,1.516,12.73.167,3.997-1.276,5.582-5.176,5.843-9.146.295-5.55-3.142-10.381-8.141-12.7-8.844-4.186-21.114-2.682-28.239,4.169-5.312,5.122-7.11,12.636-6.833,20.084.018,3.413-5.007,3.437-5,0h0Z" stroke-width="0"/>
  <path d="M68.315,50.528c-1.3-2.755-4.369-4.253-7.119-3.114.032-.021.062-.003.296-.21.998-.911.537-2.838-.891-3.127-.102-.029.118-.023.255-.044,2.609-.256,5.335-.329,8.082.542,2.428.738,4.558,2.066,6.31,3.628.827.738.9,2.007.162,2.834-.658.738-1.74.874-2.551.374-1.773-1.036-3.476-1.973-5.26-2.515-2.136-.691-4.679-.833-7.131-.863-.582-.086-.551.035-1.398-.402-.632-.391-1.061-1.208-.933-2.017.592-2.831,5.174-2.331,7.102-1.507,1.271.534,2.396,1.458,3.103,2.579.527.78,1.859,4.014.522,4.157-.236.009-.444-.121-.548-.316h0Z" stroke-width="0"/>
  <path d="M30.811,14.105c5.461,2.188,3.757,8.665,2.174,12.863-1.925,6.64-3.627,13.481-5.103,20.235-2.256,10.816-4.631,21.792-5.382,32.798-.035,1.41-1.237,2.525-2.649,2.437-1.305-.077-2.317-1.153-2.351-2.437-.07-2.995.141-5.896.432-8.763.875-8.494,2.596-17.001,4.608-25.275,1.765-6.935,3.572-13.884,6.377-20.5,1.329-3.109,4.364-7.144,1.072-9.939-.762-.56-.043-1.803.822-1.418h0Z" stroke-width="0"/>
  <path d="M63.111,28.249c-3.201,2.304-6.664,3.327-10.244,4.659-5.059,1.739-10.829,3.325-15.993,4.73-3.808.987-7.302,1.89-11.401,1.859-.729-.025-1.749-.089-2.631-.424-.809-.195-1.234-1.857-.863-2.634.181-.426.279-.587.412-.977.289-.549.644-.723.918-.886,2.496-1.043,5.304-.922,7.902-1.101,5.565-.198,11.123-.221,16.688.009,3.709.153,7.409.473,11.12.966,3.699.617,7.633.863,11.002,2.799,1.644.959,2.341,3.538.224,4.73-1.22.646-2.733.18-3.379-1.04.262.431.34.389.304.379-2.68-1.399-5.868-1.86-8.858-2.524-3.542-.68-7.142-1.231-10.747-1.774-3.608-.521-7.232-1.017-10.868-1.311-4.132-.241-8.978-.693-12.584.558.017-.123.063-.028.319-.305.331-.305.445-1.559.116-1.758,1.515-.197,3.842-.552,5.782-.96,7.099-1.199,14.229-3.012,21.256-4.741,3.589-.796,7.219-1.808,10.874-2.031.953-.093,1.433,1.237.652,1.776h0Z" stroke-width="0"/>
</svg>