<?xml version="1.0" encoding="UTF-8"?>
<svg id="a" data-name="레이어 1" xmlns="http://www.w3.org/2000/svg" width="100" height="100" viewBox="0 0 100 100">
  <path d="M20.794,77.629c5.341,1.492,11.521,1.982,17.173,2.287,5.866.214,11.817.168,17.418-.849,2.262-.44,4.534-1.002,6.484-2.124,2.116-1.586,3.187-4.598,3.663-7.269.436-2.717.194-5.652-.873-8.083-1.684-3.554-3.797-5.659-6.965-3.744-2.771,1.708-5.505,5.554-5.577,8.794,1.055,7.169,12.375,9.287,17.291,13.854,5.012,4.272.291,9.804-4.275,11.856-5.71,2.895-15.635,2.294-16.983-5.31-.186-.987,1.244-1.378,1.598-.458.466,1.251,1.254,2.311,2.357,3.023,3.394,2.036,7.969,1.164,11.304-.643,1.613-.908,3.104-2.157,3.863-3.747.128-.373.094-.411.033-.561-1.379-1.872-4.07-2.752-6.204-3.879-2.704-1.305-5.544-2.646-8.256-4.622-4.915-3.381-7.338-9.218-4.504-14.746,2.554-5.638,9.354-11.974,15.821-7.995,5.296,3.689,5.334,10.994,5.114,16.69-.307,3.871-1.23,8.133-4.588,10.734-2.513,1.701-5.482,2.465-8.346,3.092-6.252,1.236-12.44,1.389-18.595,1.145-6.343-.342-12.308-.792-18.54-2.703-1.311-.431-2.025-1.843-1.595-3.154.432-1.326,1.873-2.031,3.183-1.587h0Z" stroke-width="0"/>
  <path d="M30.811,14.105c5.461,2.188,3.757,8.665,2.174,12.863-1.925,6.64-3.627,13.481-5.103,20.235-2.256,10.816-4.631,21.792-5.382,32.798-.035,1.41-1.237,2.525-2.649,2.437-1.305-.077-2.317-1.153-2.351-2.437-.07-2.995.141-5.896.432-8.763.875-8.494,2.596-17.001,4.608-25.275,1.765-6.935,3.572-13.884,6.377-20.5,1.329-3.109,4.364-7.144,1.072-9.939-.762-.56-.043-1.803.822-1.418h0Z" stroke-width="0"/>
  <path d="M63.111,28.249c-3.201,2.304-6.664,3.327-10.244,4.659-5.059,1.739-10.829,3.325-15.993,4.73-3.808.987-7.302,1.89-11.401,1.859-.729-.025-1.749-.089-2.631-.424-.809-.195-1.234-1.857-.863-2.634.181-.426.279-.587.412-.977.289-.549.644-.723.918-.886,2.496-1.043,5.304-.922,7.902-1.101,5.565-.198,11.123-.221,16.688.009,3.709.153,7.409.473,11.12.966,3.699.617,7.633.863,11.002,2.799,1.644.959,2.341,3.538.224,4.73-1.22.646-2.733.18-3.379-1.04.262.431.34.389.304.379-2.68-1.399-5.868-1.86-8.858-2.524-3.542-.68-7.142-1.231-10.747-1.774-3.608-.521-7.232-1.017-10.868-1.311-4.132-.241-8.978-.693-12.584.558.017-.123.063-.028.319-.305.331-.305.445-1.559.116-1.758,1.515-.197,3.842-.552,5.782-.96,7.099-1.199,14.229-3.012,21.256-4.741,3.589-.796,7.219-1.808,10.874-2.031.953-.093,1.433,1.237.652,1.776h0Z" stroke-width="0"/>
</svg>