<?xml version="1.0" encoding="UTF-8"?>
<svg id="a" data-name="레이어 1" xmlns="http://www.w3.org/2000/svg" width="100" height="100" viewBox="0 0 100 100">
  <path d="M17.5,80c.181-10.048,3.635-21.087,12.658-26.64,7.255-4.605,16.421-5.983,24.728-3.94,8.946,2.114,16.461,9.614,15.588,19.322-.241,5.352-3.804,11.44-9.348,12.732-5.913,1.656-15.589.961-19.869-4.002-1.459-1.687-1.186-4.662.129-6.382,3.388-4.489,9.2-5.458,14.41-5.403,8.737.038,17.346,5.233,20.802,13.418,1.33,3.204-3.448,5.095-4.657,1.824-3.053-9.867-15.616-14.169-24.72-10.195-1.702.812-3.285,1.927-3.586,3.678.042,1.555,1.931,2.355,3.503,3.013,3.956,1.379,8.734,1.516,12.73.167,3.997-1.276,5.582-5.176,5.843-9.145.295-5.55-3.142-10.381-8.141-12.7-8.844-4.186-21.114-2.682-28.239,4.169-5.312,5.122-7.11,12.636-6.833,20.084.018,3.413-5.007,3.437-5,0h0Z" stroke-width="0"/>
  <path d="M17.5,80c.139-9.317,1.354-18.188,2.611-27.317,1.287-8.997,2.819-17.922,4.9-26.869.856-3.037,1.311-6.343,3.22-9.179,4.745-5.2,11.636,5.976,12.036,10.208.047.308-.009.827-.125,1.149-.811,1.886-2.604,2.911-3.989,4.115-3.726,2.838-7.468,5.465-11.606,7.688-2.205,1.07-4.471,2.326-7.04,2.443-.485.022-1.341-.148-1.935-.525-2.339-1.153-4.015-3.972-3.878-6.45-.022-.632.488-1.164,1.124-1.15.238.005.457.084.634.216,1.06.784,1.795,1.485,2.521,1.936.605.402,1.178.678,1.826.946.048.025.158.059.203.082.091.035-.087-.037-.088-.041-.346-.113-.391-.09-.447-.098-.017-.004.013-.007.066-.017,1.605-.416,3.191-1.171,4.752-1.897,4.773-2.275,10.834-5.187,14.357-8.446-.016.051-.018.066-.044.184-.02.07-.014.266-.016.202-.385-2.226-2.288-4.284-3.955-5.844-.441-.422-1.386-1.095-1.798-1.175.336.154,1.023-.145,1.251-.427-.873,1.92-1.569,4.794-2.132,7.234-2.822,13.039-4.741,26.515-6.357,39.811-.511,4.45-1.011,8.975-1.091,13.278-.13,3.24-4.928,3.238-4.999-.059h0Z" stroke-width="0"/>
</svg>