<?xml version="1.0" encoding="UTF-8"?>
<svg id="a" data-name="레이어 1" xmlns="http://www.w3.org/2000/svg" width="100" height="100" viewBox="0 0 100 100">
  <path d="M18.545,82.033c-5.139-4.689-16.231-10.119-12.529-18.632,2.23-5.046,18.342-22.794,20.68-10.179,1.495,6.769,1.479,17.588,7.537,21.702,1.957.63,4.197.684,6.319.848,6.291.26,12.738.144,18.941-.857,1.432-.24,3.03-.68,3.935-1.182-.023.017-.067.106-.051.08.746-1.342.949-2.781,1.149-4.42.473-4.828.085-10.084-.224-15.241-.034-.572.402-1.063.973-1.097.47-.028.886.263,1.038.685.915,2.547,1.562,5.125,2.054,7.778.751,4.729,1.455,10.087-.773,14.663-3.119,5.881-28.793,5.71-34.804,3.77-9.15-4.014-9.364-17.643-10.869-25.729-.101-.548-.279-1.137-.34-1.268.049.087.138.174.219.253.215.206.475.319.636.353.31.061.268,0,.146.038-2.54.845-4.898,2.809-7.127,4.669-1.858,1.647-3.674,3.442-5.019,5.379-3.407,4.109,1.056,7.533,4.523,10.035,2.058,1.492,4.268,2.892,6.502,4.29,2.916,1.959-.129,6.197-2.917,4.062h0Z" stroke-width="0"/>
  <path d="M17.5,80c.139-9.317,1.354-18.188,2.611-27.317,1.287-8.997,2.819-17.922,4.9-26.869.856-3.037,1.311-6.343,3.22-9.179,4.745-5.2,11.636,5.976,12.036,10.208.047.308-.009.827-.125,1.149-.811,1.886-2.604,2.911-3.989,4.115-3.726,2.838-7.468,5.465-11.606,7.688-2.205,1.07-4.471,2.326-7.04,2.443-.485.022-1.341-.148-1.935-.525-2.339-1.153-4.015-3.972-3.878-6.45-.022-.632.488-1.164,1.124-1.15.238.005.457.084.634.216,1.06.784,1.795,1.485,2.521,1.936.605.402,1.178.678,1.826.946.048.025.158.059.203.082.091.035-.087-.037-.088-.041-.346-.113-.391-.09-.447-.098-.017-.004.013-.007.066-.017,1.605-.416,3.191-1.171,4.752-1.897,4.773-2.275,10.834-5.187,14.357-8.446-.016.051-.018.066-.044.184-.02.07-.014.266-.016.202-.385-2.226-2.288-4.284-3.955-5.844-.441-.422-1.386-1.095-1.798-1.175.336.154,1.023-.145,1.251-.427-.873,1.92-1.569,4.794-2.132,7.234-2.822,13.039-4.741,26.515-6.357,39.811-.511,4.45-1.011,8.975-1.091,13.278-.13,3.24-4.928,3.238-4.999-.059h0Z" stroke-width="0"/>
</svg>