<?xml version="1.0" encoding="UTF-8"?>
<svg id="a" data-name="레이어 1" xmlns="http://www.w3.org/2000/svg" width="100" height="100" viewBox="0 0 100 100">
  <path d="M20.354,77.525c8.02.878,16.558,1.6,23.663-2.262,5.773-3.178,7.796-10.303,5.206-16.363-.67-2.121-2.011-3.985-2.128-6.36.025-.442.18-1.041.528-1.47.175-.193.195-.325.819-.706.639-.306.819-.269,1.133-.301.437.003.546.036.827.109.537.177.62.265.797.354,2.057,1.339,3.647,2.956,5.384,4.581,5.861,5.94,15.781,16.358,14.857,25.35-1.158,6.598-10.364,9.45-15.496,5.295-3.071-2.156-3.885-6.896-2.042-10.024,4.521-7.826,15.079-10.662,23.285-12.587,1.004-.22,1.43,1.301.428,1.613-6.372,2.134-21.873,7.512-20.997,15.568.784,3.21,5.011,4.225,7.798,2.74,1.885-.936,3.19-2.357,2.631-4.728-1.122-4.887-4.972-9.546-8.229-13.513-3.106-3.535-6.393-7.166-10.113-10.038.161.08.589.233,1.007.208.291-.03.448.005,1.068-.287.601-.373.611-.484.773-.659.285-.378.441-.843.457-1.215.007-.321-.02-.31-.016-.319.876,3.123,1.513,6.477,1.848,9.895,2.807,20.306-19.275,22.798-34.195,20.067-3.184-.585-2.536-5.28.707-4.95h0Z" stroke-width="0"/>
  <path d="M17.5,80c.139-9.317,1.354-18.188,2.611-27.317,1.287-8.997,2.819-17.922,4.9-26.869.856-3.037,1.311-6.343,3.22-9.179,4.745-5.2,11.636,5.976,12.036,10.208.047.308-.009.827-.125,1.149-.811,1.886-2.604,2.911-3.989,4.115-3.726,2.838-7.468,5.465-11.606,7.688-2.205,1.07-4.471,2.326-7.04,2.443-.485.022-1.341-.148-1.935-.525-2.339-1.153-4.015-3.972-3.878-6.45-.022-.632.488-1.164,1.124-1.15.238.005.457.084.634.216,1.06.784,1.795,1.485,2.521,1.936.605.402,1.178.678,1.826.946.048.025.158.059.203.082.091.035-.087-.037-.088-.041-.346-.113-.391-.09-.447-.098-.017-.004.013-.007.066-.017,1.605-.416,3.191-1.171,4.752-1.897,4.773-2.275,10.834-5.187,14.357-8.446-.016.051-.018.066-.044.184-.02.07-.014.266-.016.202-.385-2.226-2.288-4.284-3.955-5.844-.441-.422-1.386-1.095-1.798-1.175.336.154,1.023-.145,1.251-.427-.873,1.92-1.569,4.794-2.132,7.234-2.822,13.039-4.741,26.515-6.357,39.811-.511,4.45-1.011,8.975-1.091,13.278-.13,3.24-4.928,3.238-4.999-.059h0Z" stroke-width="0"/>
</svg>