<?xml version="1.0" encoding="UTF-8"?>
<svg id="a" data-name="레이어 1" xmlns="http://www.w3.org/2000/svg" width="100" height="100" viewBox="0 0 100 100">
  <path d="M17.5,80c.282-9.845,2.987-20.94,11.802-26.791,12.697-8.634,33.455-5.744,40.322,8.983,3.885,8.526,1.721,17.889-8.694,19.304-7.161.915-15.865-1.258-20.773-6.783-.793-.992.649-2.243,1.518-1.325,3.011,3.04,7.84,4.382,12.059,4.814,4.093.346,8.439-.352,11.424-3.252,2.3-2.693,1.565-7.493-.013-10.648-3.679-7.71-12.853-11.49-21.135-10.944-8.812.247-16.694,5.125-19.672,13.597-1.481,4.077-2.005,8.581-1.838,13.07.013,3.43-5.037,3.427-5.001-.024h0Z" stroke-width="0"/>
  <path d="M71.577,50.528c-1.3-2.755-4.369-4.253-7.119-3.114.032-.021.062-.003.296-.21.998-.911.537-2.838-.891-3.127-.102-.029.118-.023.255-.044,2.609-.256,5.335-.329,8.082.542,2.428.738,4.558,2.066,6.31,3.628.827.738.9,2.007.162,2.834-.658.738-1.74.874-2.551.374-1.773-1.036-3.476-1.973-5.26-2.515-2.136-.691-4.679-.833-7.131-.863-.582-.086-.551.035-1.398-.402-.632-.391-1.061-1.208-.933-2.017.592-2.831,5.174-2.331,7.102-1.507,1.271.534,2.396,1.458,3.103,2.579.527.78,1.859,4.014.522,4.157-.236.009-.444-.121-.548-.316h0Z" stroke-width="0"/>
  <path d="M17.5,80c.139-9.317,1.354-18.188,2.611-27.317,1.287-8.997,2.819-17.922,4.9-26.869.856-3.037,1.311-6.343,3.22-9.179,4.745-5.2,11.636,5.976,12.036,10.208.047.308-.009.827-.125,1.149-.811,1.886-2.604,2.911-3.989,4.115-3.726,2.838-7.468,5.465-11.606,7.688-2.205,1.07-4.471,2.326-7.04,2.443-.485.022-1.341-.148-1.935-.525-2.339-1.153-4.015-3.972-3.878-6.45-.022-.632.488-1.164,1.124-1.15.238.005.457.084.634.216,1.06.784,1.795,1.485,2.521,1.936.605.402,1.178.678,1.826.946.048.025.158.059.203.082.091.035-.087-.037-.088-.041-.346-.113-.391-.09-.447-.098-.017-.004.013-.007.066-.017,1.605-.416,3.191-1.171,4.752-1.897,4.773-2.275,10.834-5.187,14.357-8.446-.016.051-.018.066-.044.184-.02.07-.014.266-.016.202-.385-2.226-2.288-4.284-3.955-5.844-.441-.422-1.386-1.095-1.798-1.175.336.154,1.023-.145,1.251-.427-.873,1.92-1.569,4.794-2.132,7.234-2.822,13.039-4.741,26.515-6.357,39.811-.511,4.45-1.011,8.975-1.091,13.278-.13,3.24-4.928,3.238-4.999-.059h0Z" stroke-width="0"/>
</svg>