<?xml version="1.0" encoding="UTF-8"?>
<svg id="a" data-name="레이어 1" xmlns="http://www.w3.org/2000/svg" width="100" height="100" viewBox="0 0 100 100">
  <path d="M55.519,47.294c.332-.051.856.068.904.105,1.184.463,2.082,1.281,3.026,2.053,1.311,1.238,4.356,3.423,2.2,5.341-.942.779-2.403.506-3.004-.557-.765-1.28-1.984-2.739-3.136-3.785,0,0-.167-.143-.167-.143-.042-.034.015.001.037-.003-.069-.029.317.098.52.024-1.998.216-2.371-2.753-.379-3.035h0Z" stroke-width="0"/>
  <path d="M61.524,46.016c.332-.052.856.068.904.105,1.184.463,2.082,1.281,3.026,2.052,1.311,1.238,4.356,3.423,2.2,5.342-.942.779-2.403.506-3.004-.557-.765-1.28-1.984-2.739-3.136-3.785,0,0-.167-.143-.167-.143-.042-.034.015.001.037-.003-.069-.029.317.098.52.024-1.998.216-2.371-2.753-.379-3.035h0Z" stroke-width="0"/>
  <path d="M19.654,77.524c6.844-.761,28.542-4.622,31.796-10.559.051-2.556-1.321-5.041-2.509-7.305-1.424-2.522-3.163-4.922-5.14-6.995-1.457-1.505-4.089-3.93-6-3.611-.177.043-.185.084-.333.19-4.158,5.024-4.746,19.345-3.338,25.607.17.663.408,1.321.664,1.599.028.024.233.145.468.244,6.019,1.996,12.924,2.128,19.309,2.197,3.825-.182,7.8-.045,11.182-1.635,1.056-.824,1.486-2.197,1.84-3.719.572-2.664.414-5.716.048-8.567-.117-.642.329-1.259.977-1.34.56-.072,1.078.276,1.236.8.476,1.569.792,3.092.988,4.695.68,5.569-.04,11.656-6.633,12.968-6.319,1.538-12.505,1.54-18.881,1.261-4.116-.443-12.626-.43-14.933-4.538-3.542-6.719-.537-25.043,3.712-31.182,2.04-3.063,5.902-2.506,8.483-.689,5.369,3.786,9.144,9.296,11.67,15.27,1.116,2.771,1.674,6.118-.633,8.382-4.117,4.091-9.878,5.738-15.158,7.533-5.954,1.849-11.952,3.272-18.126,4.346-3.357.484-4.082-4.486-.692-4.952h0Z" stroke-width="0"/>
  <path d="M17.5,80c.139-9.317,1.354-18.188,2.611-27.317,1.287-8.997,2.819-17.922,4.9-26.869.856-3.037,1.311-6.343,3.22-9.179,4.745-5.2,11.636,5.976,12.036,10.208.047.308-.009.827-.125,1.149-.811,1.886-2.604,2.911-3.989,4.115-3.726,2.838-7.468,5.465-11.606,7.688-2.205,1.07-4.471,2.326-7.04,2.443-.485.022-1.341-.148-1.935-.525-2.339-1.153-4.015-3.972-3.878-6.45-.022-.632.488-1.164,1.124-1.15.238.005.457.084.634.216,1.06.784,1.795,1.485,2.521,1.936.605.402,1.178.678,1.826.946.048.025.158.059.203.082.091.035-.087-.037-.088-.041-.346-.113-.391-.09-.447-.098-.017-.004.013-.007.066-.017,1.605-.416,3.191-1.171,4.752-1.897,4.773-2.275,10.834-5.187,14.357-8.446-.016.051-.018.066-.044.184-.02.07-.014.266-.016.202-.385-2.226-2.288-4.284-3.955-5.844-.441-.422-1.386-1.095-1.798-1.175.336.154,1.023-.145,1.251-.427-.873,1.92-1.569,4.794-2.132,7.234-2.822,13.039-4.741,26.515-6.357,39.811-.511,4.45-1.011,8.975-1.091,13.278-.13,3.24-4.928,3.238-4.999-.059h0Z" stroke-width="0"/>
</svg>