<?xml version="1.0" encoding="UTF-8"?>
<svg id="a" data-name="레이어 1" xmlns="http://www.w3.org/2000/svg" width="100" height="100" viewBox="0 0 100 100">
  <path d="M18.545,82.033c-7.409-5.532-12.18-13.472-6.773-22.332,4.801-7.078,24.39-10.139,32.6-9.818.646.132,1.142.283,1.639.865,1.055,1.25.331,3.057-.998,3.553-10.097,4.896-9.395,18.783,1.068,22.633,6.777,2.031,18.337-.826,20.684-8.228.922-4.169-2.425-9.787-5.317-12.35-.704-.551-1.247-.908-1.878-.915-1.49.711-2.723,2.074-3.753,3.404-5.481,7.658-4.66,22.145.677,29.817.737.942-.564,2.21-1.483,1.418-3.147-2.706-4.856-6.529-6.032-10.383-2.834-9.672-1.548-22.157,7.489-28.327,8.489-5.233,17.76,11.712,15.363,18.727-3.226,11.159-21.14,15.782-30.382,10.073-11.691-6.84-11.07-23.555,1.063-29.454,0,0,.731-.344.731-.344.084-.037-.019,0-.15.09-1.171.738-1.158,2.731.088,3.45.151.086.347.188.488.205-.156-.033-.654-.059-1.057-.061-7.454.176-22.726,1.96-27.504,7.894-3.925,6.642.426,12.314,6.347,16.018,2.854,1.961-.137,6.132-2.911,4.066h0Z" stroke-width="0"/>
  <path d="M17.5,80c.139-9.317,1.354-18.188,2.611-27.317,1.287-8.997,2.819-17.922,4.9-26.869.856-3.037,1.311-6.343,3.22-9.179,4.745-5.2,11.636,5.976,12.036,10.208.047.308-.009.827-.125,1.149-.811,1.886-2.604,2.911-3.989,4.115-3.726,2.838-7.468,5.465-11.606,7.688-2.205,1.07-4.471,2.326-7.04,2.443-.485.022-1.341-.148-1.935-.525-2.339-1.153-4.015-3.972-3.878-6.45-.022-.632.488-1.164,1.124-1.15.238.005.457.084.634.216,1.06.784,1.795,1.485,2.521,1.936.605.402,1.178.678,1.826.946.048.025.158.059.203.082.091.035-.087-.037-.088-.041-.346-.113-.391-.09-.447-.098-.017-.004.013-.007.066-.017,1.605-.416,3.191-1.171,4.752-1.897,4.773-2.275,10.834-5.187,14.357-8.446-.016.051-.018.066-.044.184-.02.07-.014.266-.016.202-.385-2.226-2.288-4.284-3.955-5.844-.441-.422-1.386-1.095-1.798-1.175.336.154,1.023-.145,1.251-.427-.873,1.92-1.569,4.794-2.132,7.234-2.822,13.039-4.741,26.515-6.357,39.811-.511,4.45-1.011,8.975-1.091,13.278-.13,3.24-4.928,3.238-4.999-.059h0Z" stroke-width="0"/>
</svg>