<?xml version="1.0" encoding="UTF-8"?>
<svg id="a" data-name="레이어 1" xmlns="http://www.w3.org/2000/svg" width="100" height="100" viewBox="0 0 100 100">
  <path d="M17.5,80c.181-10.048,3.635-21.087,12.658-26.64,7.255-4.605,16.421-5.983,24.728-3.94,8.946,2.114,16.461,9.614,15.588,19.322-.241,5.352-3.804,11.44-9.348,12.732-5.913,1.656-15.589.961-19.869-4.002-1.459-1.687-1.186-4.662.129-6.382,3.388-4.489,9.2-5.458,14.41-5.403,8.737.038,17.346,5.233,20.802,13.418,1.33,3.204-3.448,5.095-4.657,1.824-3.053-9.867-15.616-14.169-24.72-10.195-1.702.812-3.285,1.927-3.586,3.678.042,1.555,1.931,2.355,3.503,3.013,3.956,1.379,8.734,1.516,12.73.167,3.997-1.276,5.582-5.176,5.843-9.145.295-5.55-3.142-10.381-8.141-12.7-8.844-4.186-21.114-2.682-28.239,4.169-5.312,5.122-7.11,12.636-6.833,20.084.018,3.413-5.007,3.437-5,0h0Z" stroke-width="0"/>
  <path d="M30.811,14.105c5.461,2.188,3.757,8.665,2.174,12.863-1.925,6.64-3.627,13.481-5.103,20.235-2.256,10.816-4.631,21.792-5.382,32.798-.035,1.41-1.237,2.525-2.649,2.437-1.305-.077-2.317-1.153-2.351-2.437-.07-2.995.141-5.896.432-8.763.875-8.494,2.596-17.001,4.608-25.275,1.765-6.935,3.572-13.884,6.377-20.5,1.329-3.109,4.364-7.144,1.072-9.939-.762-.56-.043-1.803.822-1.418h0Z" stroke-width="0"/>
  <path d="M63.111,28.249c-3.195,2.32-6.666,3.315-10.247,4.649-3.494,1.225-7.055,2.217-10.619,3.237-3.283.858-18.509,5.745-20.2,2.06-.317-.73-.218-1.678.184-2.311.284-.99,1.094-1.397,1.88-1.629,4.185-.987,8.433-.763,12.668-.914,3.706-.036,7.415-.023,11.121.144,3.709.153,7.409.473,11.12.966,3.699.617,7.633.863,11.002,2.799,1.644.959,2.341,3.539.224,4.73-1.22.646-2.733.18-3.379-1.04.363.572.426.39.044.216-2.666-1.214-5.686-1.748-8.599-2.361-7.126-1.296-14.379-2.441-21.615-3.085-4.18-.208-8.564-.744-12.496.536-.123.056-.169.154-.089.022.017-.123.063-.028.319-.305.369-.339.431-1.618.076-1.797,5.362-.649,11.041-1.869,16.449-3.046,5.121-1.222,10.796-2.699,15.978-3.836,1.812-.39,3.718-.703,5.525-.811.951-.091,1.432,1.235.653,1.776h0Z" stroke-width="0"/>
  <circle cx="76.081" cy="26.796" r="5" fill="none" stroke="#000" stroke-linecap="round" stroke-miterlimit="10" stroke-width="2.5"/>
</svg>