<?xml version="1.0" encoding="UTF-8"?>
<svg id="a" data-name="레이어 1" xmlns="http://www.w3.org/2000/svg" width="100" height="100" viewBox="0 0 100 100">
  <path d="M20.354,77.525c8.02.878,16.558,1.6,23.663-2.262,5.773-3.178,7.796-10.303,5.206-16.363-.67-2.121-2.011-3.985-2.128-6.36.025-.442.18-1.041.528-1.47.175-.193.195-.325.819-.706.639-.306.819-.269,1.133-.301.437.003.546.036.827.109.537.177.62.265.797.354,2.057,1.339,3.647,2.956,5.384,4.581,5.861,5.94,15.781,16.358,14.857,25.35-1.158,6.598-10.364,9.45-15.496,5.295-3.071-2.156-3.885-6.896-2.042-10.024,4.521-7.826,15.079-10.662,23.285-12.587,1.004-.22,1.43,1.301.428,1.613-6.372,2.134-21.873,7.512-20.997,15.568.784,3.21,5.011,4.225,7.798,2.74,1.885-.936,3.19-2.357,2.631-4.728-1.122-4.887-4.972-9.546-8.229-13.513-3.106-3.535-6.393-7.166-10.113-10.038.161.08.589.233,1.007.208.291-.03.448.005,1.068-.287.601-.373.611-.484.773-.659.285-.378.441-.843.457-1.215.007-.321-.02-.31-.016-.319.876,3.123,1.513,6.477,1.848,9.895,2.807,20.306-19.275,22.798-34.195,20.067-3.184-.585-2.536-5.28.707-4.95h0Z" stroke-width="0"/>
  <path d="M30.811,14.105c5.461,2.188,3.757,8.665,2.174,12.863-1.925,6.64-3.627,13.481-5.103,20.235-2.256,10.816-4.631,21.792-5.382,32.798-.035,1.41-1.237,2.525-2.649,2.437-1.305-.077-2.317-1.153-2.351-2.437-.07-2.995.141-5.896.432-8.763.875-8.494,2.596-17.001,4.608-25.275,1.765-6.935,3.572-13.884,6.377-20.5,1.329-3.109,4.364-7.144,1.072-9.939-.762-.56-.043-1.803.822-1.418h0Z" stroke-width="0"/>
  <path d="M63.111,28.249c-3.195,2.32-6.666,3.315-10.247,4.649-3.494,1.225-7.055,2.217-10.619,3.237-3.283.858-18.509,5.745-20.2,2.06-.317-.73-.218-1.678.184-2.311.284-.99,1.094-1.397,1.88-1.629,4.185-.987,8.433-.763,12.668-.914,3.706-.036,7.415-.023,11.121.144,3.709.153,7.409.473,11.12.966,3.699.617,7.633.863,11.002,2.799,1.644.959,2.341,3.539.224,4.73-1.22.646-2.733.18-3.379-1.04.363.572.426.39.044.216-2.666-1.214-5.686-1.748-8.599-2.361-7.126-1.296-14.379-2.441-21.615-3.085-4.18-.208-8.564-.744-12.496.536-.123.056-.169.154-.089.022.017-.123.063-.028.319-.305.369-.339.431-1.618.076-1.797,5.362-.649,11.041-1.869,16.449-3.046,5.121-1.222,10.796-2.699,15.978-3.836,1.812-.39,3.718-.703,5.525-.811.951-.091,1.432,1.235.653,1.776h0Z" stroke-width="0"/>
  <circle cx="76.081" cy="26.796" r="5" fill="none" stroke="#000" stroke-linecap="round" stroke-miterlimit="10" stroke-width="2.5"/>
</svg>