<?xml version="1.0" encoding="UTF-8"?>
<svg id="a" data-name="레이어 1" xmlns="http://www.w3.org/2000/svg" width="100" height="100" viewBox="0 0 100 100">
  <path d="M18.545,82.033c-5.139-4.689-16.231-10.119-12.529-18.632,2.23-5.046,18.342-22.794,20.68-10.179,1.495,6.769,1.479,17.588,7.537,21.702,1.957.63,4.197.684,6.319.848,6.291.26,12.738.144,18.941-.857,1.432-.24,3.03-.68,3.935-1.182-.023.017-.067.106-.051.08.746-1.342.949-2.781,1.149-4.42.473-4.828.085-10.084-.224-15.241-.034-.572.402-1.063.973-1.097.47-.028.886.263,1.038.685.915,2.547,1.562,5.125,2.054,7.778.751,4.729,1.455,10.087-.773,14.663-3.119,5.881-28.793,5.71-34.804,3.77-9.15-4.014-9.364-17.643-10.869-25.729-.101-.548-.279-1.137-.34-1.268.049.087.138.174.219.253.215.206.475.319.636.353.31.061.268,0,.146.038-2.54.845-4.898,2.809-7.127,4.669-1.858,1.647-3.674,3.442-5.019,5.379-3.407,4.109,1.056,7.533,4.523,10.036,2.058,1.492,4.268,2.892,6.502,4.29,2.916,1.959-.129,6.197-2.917,4.062h0Z" stroke-width="0"/>
  <path d="M70.297,50.528c-1.3-2.755-4.369-4.253-7.119-3.114.032-.021.062-.003.296-.21.998-.911.537-2.838-.891-3.127-.102-.029.118-.023.255-.044,2.609-.256,5.335-.329,8.082.542,2.428.738,4.558,2.066,6.31,3.628.827.738.9,2.007.162,2.834-.658.738-1.74.874-2.551.374-1.773-1.036-3.476-1.973-5.26-2.515-2.136-.691-4.679-.833-7.131-.863-.582-.086-.551.035-1.398-.402-.632-.391-1.061-1.208-.933-2.017.592-2.831,5.174-2.331,7.102-1.507,1.271.534,2.396,1.458,3.103,2.579.527.78,1.859,4.014.522,4.157-.236.009-.444-.121-.548-.316h0Z" stroke-width="0"/>
  <path d="M30.811,14.105c5.461,2.188,3.757,8.665,2.174,12.863-1.925,6.64-3.627,13.481-5.103,20.235-2.256,10.816-4.631,21.792-5.382,32.798-.035,1.41-1.237,2.525-2.649,2.437-1.305-.077-2.317-1.153-2.351-2.437-.07-2.995.141-5.896.432-8.763.875-8.494,2.596-17.001,4.608-25.275,1.765-6.935,3.572-13.884,6.377-20.5,1.329-3.109,4.364-7.144,1.072-9.939-.762-.56-.043-1.803.822-1.418h0Z" stroke-width="0"/>
  <path d="M63.111,28.249c-3.195,2.32-6.666,3.315-10.247,4.649-3.494,1.225-7.055,2.217-10.619,3.237-3.283.858-18.509,5.745-20.2,2.06-.317-.73-.218-1.678.184-2.311.284-.99,1.094-1.397,1.88-1.629,4.185-.987,8.433-.763,12.668-.914,3.706-.036,7.415-.023,11.121.144,3.709.153,7.409.473,11.12.966,3.699.617,7.633.863,11.002,2.799,1.644.959,2.341,3.539.224,4.73-1.22.646-2.733.18-3.379-1.04.363.572.426.39.044.216-2.666-1.214-5.686-1.748-8.599-2.361-7.126-1.296-14.379-2.441-21.615-3.085-4.18-.208-8.564-.744-12.496.536-.123.056-.169.154-.089.022.017-.123.063-.028.319-.305.369-.339.431-1.618.076-1.797,5.362-.649,11.041-1.869,16.449-3.046,5.121-1.222,10.796-2.699,15.978-3.836,1.812-.39,3.718-.703,5.525-.811.951-.091,1.432,1.235.653,1.776h0Z" stroke-width="0"/>
  <circle cx="76.081" cy="26.796" r="5" fill="none" stroke="#000" stroke-linecap="round" stroke-miterlimit="10" stroke-width="2.5"/>
</svg>