<?xml version="1.0" encoding="UTF-8"?>
<svg id="a" data-name="레이어 1" xmlns="http://www.w3.org/2000/svg" width="100" height="100" viewBox="0 0 100 100">
  <path d="M20.794,77.629c5.341,1.492,11.521,1.982,17.173,2.287,5.866.214,11.817.168,17.418-.849,2.262-.44,4.534-1.002,6.484-2.124,2.116-1.586,3.187-4.598,3.663-7.269.436-2.717.194-5.652-.873-8.083-1.684-3.554-3.797-5.659-6.965-3.744-2.771,1.708-5.505,5.554-5.577,8.794,1.055,7.169,12.375,9.287,17.291,13.854,5.012,4.272.291,9.804-4.275,11.856-5.71,2.895-15.635,2.294-16.983-5.31-.186-.987,1.244-1.378,1.598-.458.466,1.251,1.254,2.311,2.357,3.023,3.394,2.036,7.969,1.164,11.304-.643,1.613-.908,3.104-2.157,3.863-3.747.128-.373.094-.411.033-.561-1.379-1.872-4.07-2.752-6.204-3.879-2.704-1.305-5.544-2.646-8.256-4.622-4.915-3.381-7.338-9.218-4.504-14.746,2.554-5.638,9.354-11.974,15.821-7.995,5.296,3.689,5.334,10.994,5.114,16.69-.307,3.871-1.23,8.133-4.588,10.734-2.513,1.701-5.482,2.465-8.346,3.092-6.252,1.236-12.44,1.389-18.595,1.145-6.343-.342-12.308-.792-18.54-2.703-1.311-.431-2.025-1.843-1.595-3.154.432-1.326,1.873-2.031,3.183-1.587h0Z" stroke-width="0"/>
  <path d="M30.811,14.105c5.461,2.188,3.757,8.665,2.174,12.863-1.925,6.64-3.627,13.481-5.103,20.235-2.256,10.816-4.631,21.792-5.382,32.798-.035,1.41-1.237,2.525-2.649,2.437-1.305-.077-2.317-1.153-2.351-2.437-.07-2.995.141-5.896.432-8.763.875-8.494,2.596-17.001,4.608-25.275,1.765-6.935,3.572-13.884,6.377-20.5,1.329-3.109,4.364-7.144,1.072-9.939-.762-.56-.043-1.803.822-1.418h0Z" stroke-width="0"/>
  <path d="M63.111,28.249c-3.195,2.32-6.666,3.315-10.247,4.649-3.494,1.225-7.055,2.217-10.619,3.237-3.283.858-18.509,5.745-20.2,2.06-.317-.73-.218-1.678.184-2.311.284-.99,1.094-1.397,1.88-1.629,4.185-.987,8.433-.763,12.668-.914,3.706-.036,7.415-.023,11.121.144,3.709.153,7.409.473,11.12.966,3.699.617,7.633.863,11.002,2.799,1.644.959,2.341,3.539.224,4.73-1.22.646-2.733.18-3.379-1.04.363.572.426.39.044.216-2.666-1.214-5.686-1.748-8.599-2.361-7.126-1.296-14.379-2.441-21.615-3.085-4.18-.208-8.564-.744-12.496.536-.123.056-.169.154-.089.022.017-.123.063-.028.319-.305.369-.339.431-1.618.076-1.797,5.362-.649,11.041-1.869,16.449-3.046,5.121-1.222,10.796-2.699,15.978-3.836,1.812-.39,3.718-.703,5.525-.811.951-.091,1.432,1.235.653,1.776h0Z" stroke-width="0"/>
  <circle cx="76.081" cy="26.796" r="5" fill="none" stroke="#000" stroke-linecap="round" stroke-miterlimit="10" stroke-width="2.5"/>
</svg>