<?xml version="1.0" encoding="UTF-8"?>
<svg id="a" data-name="레이어 1" xmlns="http://www.w3.org/2000/svg" width="100" height="100" viewBox="0 0 100 100">
  <path d="M19.654,77.524c6.844-.761,28.542-4.622,31.796-10.559.051-2.556-1.321-5.041-2.509-7.305-1.424-2.522-3.163-4.922-5.14-6.995-1.457-1.505-4.089-3.93-6-3.611-.177.043-.185.084-.333.19-4.158,5.024-4.746,19.345-3.338,25.607.17.663.408,1.321.664,1.599.028.024.233.145.468.244,6.019,1.996,12.924,2.128,19.309,2.197,3.825-.182,7.8-.045,11.182-1.635,1.056-.824,1.486-2.197,1.84-3.719.572-2.664.414-5.716.048-8.567-.117-.642.329-1.259.977-1.34.56-.072,1.078.276,1.236.8.476,1.569.792,3.092.988,4.695.68,5.569-.04,11.656-6.633,12.968-6.319,1.538-12.505,1.54-18.881,1.261-4.116-.443-12.626-.43-14.933-4.538-3.542-6.719-.537-25.043,3.712-31.182,2.04-3.063,5.902-2.506,8.483-.689,5.369,3.786,9.144,9.296,11.67,15.27,1.116,2.771,1.674,6.118-.633,8.382-4.117,4.091-9.878,5.738-15.158,7.533-5.954,1.849-11.952,3.272-18.126,4.346-3.357.484-4.082-4.486-.692-4.952h0Z" stroke-width="0"/>
  <path d="M30.811,14.105c5.461,2.188,3.757,8.665,2.174,12.863-1.925,6.64-3.627,13.481-5.103,20.235-2.256,10.816-4.631,21.792-5.382,32.798-.035,1.41-1.237,2.525-2.649,2.437-1.305-.077-2.317-1.153-2.351-2.437-.07-2.995.141-5.896.432-8.763.875-8.494,2.596-17.001,4.608-25.275,1.765-6.935,3.572-13.884,6.377-20.5,1.329-3.109,4.364-7.144,1.072-9.939-.762-.56-.043-1.803.822-1.418h0Z" stroke-width="0"/>
  <path d="M63.111,28.249c-3.195,2.32-6.666,3.315-10.247,4.649-3.494,1.225-7.055,2.217-10.619,3.237-3.283.858-18.509,5.745-20.2,2.06-.317-.73-.218-1.678.184-2.311.284-.99,1.094-1.397,1.88-1.629,4.185-.987,8.433-.763,12.668-.914,3.706-.036,7.415-.023,11.121.144,3.709.153,7.409.473,11.12.966,3.699.617,7.633.863,11.002,2.799,1.644.959,2.341,3.539.224,4.73-1.22.646-2.733.18-3.379-1.04.363.572.426.39.044.216-2.666-1.214-5.686-1.748-8.599-2.361-7.126-1.296-14.379-2.441-21.615-3.085-4.18-.208-8.564-.744-12.496.536-.123.056-.169.154-.089.022.017-.123.063-.028.319-.305.369-.339.431-1.618.076-1.797,5.362-.649,11.041-1.869,16.449-3.046,5.121-1.222,10.796-2.699,15.978-3.836,1.812-.39,3.718-.703,5.525-.811.951-.091,1.432,1.235.653,1.776h0Z" stroke-width="0"/>
  <circle cx="76.081" cy="26.796" r="5" fill="none" stroke="#000" stroke-linecap="round" stroke-miterlimit="10" stroke-width="2.5"/>
</svg>