<?xml version="1.0" encoding="UTF-8"?>
<svg id="a" data-name="레이어 1" xmlns="http://www.w3.org/2000/svg" width="100" height="100" viewBox="0 0 100 100">
  <path d="M20.354,77.525c8.02.878,16.558,1.6,23.663-2.262,5.773-3.178,7.796-10.303,5.206-16.363-.67-2.121-2.011-3.985-2.128-6.36.025-.442.18-1.041.528-1.47.175-.193.195-.325.819-.706.639-.306.819-.269,1.133-.301.437.003.546.036.827.109.537.177.62.265.797.354,2.057,1.339,3.647,2.956,5.384,4.581,5.861,5.94,15.781,16.358,14.857,25.35-1.158,6.598-10.364,9.45-15.496,5.295-3.071-2.156-3.885-6.896-2.042-10.024,4.521-7.826,15.079-10.662,23.285-12.587,1.004-.22,1.43,1.301.428,1.613-6.372,2.134-21.873,7.512-20.997,15.568.784,3.21,5.011,4.225,7.798,2.74,1.885-.936,3.19-2.357,2.631-4.728-1.122-4.887-4.972-9.546-8.229-13.513-3.106-3.535-6.393-7.166-10.113-10.038.161.08.589.233,1.007.208.291-.03.448.005,1.068-.287.601-.373.611-.484.773-.659.285-.378.441-.843.457-1.215.007-.321-.02-.31-.016-.319.876,3.123,1.513,6.477,1.848,9.895,2.807,20.306-19.275,22.798-34.195,20.067-3.184-.585-2.536-5.28.707-4.95h0Z" stroke-width="0"/>
  <path d="M9.048,66.497c3.003-9.295,7.621-18.183,11.685-27.097,3.286-7.341,5.268-15.112,8.846-22.371,1.516-2.495,6.418-1.706,7.014,1.375.175.802-.03,1.621-.173,2.405-3.915,17.161-8.993,35.2-12.732,52.372-.439,2.203-1.049,4.86-1.15,6.947-.176,3.291-5.052,3.222-5.079-.128.029-1.641.243-2.819.437-4.12,3.46-18.92,9.089-37.47,13.533-56.109,0,0,.08-.401.08-.401,0,0,.041-.2.041-.2l.015-.105c.005-.027.018-.086.018-.086-.019.15,0,.276.031.446.023.507.756,1.227.958,1.185-.003-.014-.173-.018-.078-.03.487-.089.998-.439,1.244-.803-.028.039-.051.077-.091.144-3.445,6.733-6.718,13.802-9.593,20.849-2.731,6.934-4.762,14.183-8.369,20.773-1.202,2.21-2.439,4.402-4.156,6.437-.521.618-1.445.697-2.063.175-.495-.417-.642-1.089-.418-1.66h0Z" stroke-width="0"/>
</svg>