<?xml version="1.0" encoding="UTF-8"?>
<svg id="a" data-name="레이어 1" xmlns="http://www.w3.org/2000/svg" width="100" height="100" viewBox="0 0 100 100">
  <path d="M20.432,77.538c3.158.51,6.689.341,9.937.296,6.809-.305,13.842-.827,20.425-2.475,1.82-.526,3.693-.982,4.891-2.062.045-.045.02-.042.017.006-.032.054-.022.165-.019.227,0,0,.022.065.008.014-1.629-6.056-7.318-13.751-13.938-13.497-5.296.489-11.499,6.959-11.272,12.332.111.316.76.651,1.441,1.005,4.387,1.965,9.524,2.722,14.362,3.196,4.082.271,8.161.423,11.872-.837,1.374-.58,1.565-.757,2.228-2.2,1.751-4.575,2.702-10.372,2.254-15.04.856,1.318,3.125,1.183,3.901-.204.057-.095.083-.144.118-.222.177-.443.115-.4.132-.425.225,8.356,1.807,16.678,2.578,25.088.089.793-.485,1.509-1.279,1.594-.722.078-1.377-.393-1.551-1.078-.869-3.416-1.649-6.839-2.358-10.286-.739-3.445-1.364-6.902-1.904-10.431-.232-1.937-.694-3.891-.398-5.883.278-1.757,2.346-2.862,3.952-1.89,4.321,2.698,1.073,16.874-.759,20.865-2.884,7.094-12.997,6.362-19.194,6.108-3.642-.281-7.233-.836-10.811-1.793-2.968-.914-5.864-1.574-8.342-4.015-2.563-3.01-1.213-7.305.39-10.334,2.956-5.241,7.987-9.478,14.32-9.859,8.631-.139,15.336,8.906,17.72,16.348.255.747.367,1.618.099,2.383-1.85,6.464-30.151,7.971-36.698,8.131-.945-.002-1.825.014-2.997-.14-3.391-.552-2.531-5.573.875-4.923h0Z" stroke-width="0"/>
  <path d="M9.048,66.497c3.003-9.295,7.621-18.183,11.685-27.097,3.286-7.341,5.268-15.112,8.846-22.371,1.516-2.495,6.418-1.706,7.014,1.375.175.802-.03,1.621-.173,2.405-3.915,17.161-8.993,35.2-12.732,52.372-.439,2.203-1.049,4.86-1.15,6.947-.176,3.291-5.052,3.222-5.079-.128.029-1.641.243-2.819.437-4.12,3.46-18.92,9.089-37.47,13.533-56.109,0,0,.08-.401.08-.401,0,0,.041-.2.041-.2l.015-.105c.005-.027.018-.086.018-.086-.019.15,0,.276.031.446.023.507.756,1.227.958,1.185-.003-.014-.173-.018-.078-.03.487-.089.998-.439,1.244-.803-.028.039-.051.077-.091.144-3.445,6.733-6.718,13.802-9.593,20.849-2.731,6.934-4.762,14.183-8.369,20.773-1.202,2.21-2.439,4.402-4.156,6.437-.521.618-1.445.697-2.063.175-.495-.417-.642-1.089-.418-1.66h0Z" stroke-width="0"/>
</svg>