<?xml version="1.0" encoding="UTF-8"?>
<svg id="a" data-name="레이어 1" xmlns="http://www.w3.org/2000/svg" width="100" height="100" viewBox="0 0 100 100">
  <path d="M20.354,77.525c9.029.989,29.299,4.793,35.132-3.524,4.494-5.595,3.316-10.932,1.756-17.382-.062-.511-.136-.952-.025-1.572.202-1.493,1.967-2.581,3.403-1.984,1.13.39,1.842,1.661,2.352,2.475,4.09,7.032,9.507,22.907.797,28.281-.751.411-1.592-.505-1.142-1.217,3.684-7.311-.404-18.287-4.458-25.379.121.117.275.25.5.359,1.488.811,3.374-.398,3.403-1.81,1.434,16.322-.753,27.431-19.494,28.466-7.857.461-15.523-.559-22.93-1.762-1.372-.211-2.311-1.501-2.088-2.872.217-1.337,1.461-2.252,2.795-2.078h0Z" stroke-width="0"/>
  <path d="M67.458,50.528c-1.3-2.755-4.369-4.253-7.119-3.114.032-.021.062-.003.296-.21,1.025-.991.513-2.815-.91-3.141,2.706-.284,5.516-.385,8.356.512,2.428.738,4.558,2.066,6.31,3.628.827.738.9,2.007.162,2.835-.658.738-1.74.874-2.551.374-1.773-1.036-3.476-1.973-5.26-2.516-2.136-.691-4.679-.833-7.131-.863-.582-.086-.551.035-1.398-.402-.632-.391-1.061-1.208-.933-2.016.592-2.831,5.173-2.331,7.102-1.507,1.271.534,2.396,1.458,3.103,2.579.527.78,1.859,4.014.522,4.157-.236.009-.444-.121-.548-.316h0Z" stroke-width="0"/>
  <path d="M9.048,66.497c3.003-9.295,7.621-18.183,11.685-27.097,3.286-7.341,5.268-15.112,8.846-22.371,1.516-2.495,6.418-1.706,7.014,1.375.175.802-.03,1.621-.173,2.405-3.915,17.161-8.993,35.2-12.732,52.372-.439,2.203-1.049,4.86-1.15,6.947-.176,3.291-5.052,3.222-5.079-.128.029-1.641.243-2.819.437-4.12,3.46-18.92,9.089-37.47,13.533-56.109,0,0,.08-.401.08-.401,0,0,.041-.2.041-.2l.015-.105c.005-.027.018-.086.018-.086-.019.15,0,.276.031.446.023.507.756,1.227.958,1.185-.003-.014-.173-.018-.078-.03.487-.089.998-.439,1.244-.803-.028.039-.051.077-.091.144-3.445,6.733-6.718,13.802-9.593,20.849-2.731,6.934-4.762,14.183-8.369,20.773-1.202,2.21-2.439,4.402-4.156,6.437-.521.618-1.445.697-2.063.175-.495-.417-.642-1.089-.418-1.66h0Z" stroke-width="0"/>
</svg>