<?xml version="1.0" encoding="UTF-8"?>
<svg id="a" data-name="레이어 1" xmlns="http://www.w3.org/2000/svg" width="100" height="100" viewBox="0 0 100 100">
  <path d="M19.654,77.524c7.584-.572,14.368.372,21.694.553,3.68-.012,7.784.458,11.065-1.149.382-.33.286-.266.289-.739-1.185-6.324-5.201-11.91-9.111-16.907-2.248-2.559-4.789-5.783-7.749-6.928.037.009.229-.094.179-.081-.068.039-.349.334-.581.7-1.953,3.308-2.885,7.177-3.924,10.915-1.695,6.756-3.021,13.719-3.834,20.657-.183,2.18-.523,4.571-.098,6.685.341,1.343-1.617,2.003-2.151.713-.313-.761-.421-1.397-.525-2.037-.524-4.244-.233-8.53.105-12.758.689-7.221,1.775-14.406,3.93-21.389,2.385-8.003,6.418-11.614,13.396-4.932,5.241,5.395,8.709,11.895,11.926,18.588,1.274,3.048,3.724,7.932.319,10.422-1.811,1.3-3.972,1.587-5.973,1.845-4.981.469-9.734.292-14.481.223-4.568-.055-9.388-.179-13.807.574-3.409.52-4.115-4.541-.672-4.955h0Z" stroke-width="0"/>
  <path d="M56.906,50.528c-1.3-2.755-4.369-4.253-7.119-3.114.032-.021.062-.003.296-.21.998-.911.537-2.838-.891-3.127-.102-.029.118-.023.255-.044,2.609-.256,5.335-.329,8.082.542,2.428.738,4.558,2.066,6.31,3.628.827.738.9,2.007.162,2.834-.658.738-1.74.874-2.551.374-1.773-1.036-3.476-1.973-5.26-2.515-2.136-.691-4.679-.833-7.131-.863-.582-.086-.551.035-1.398-.402-.632-.391-1.061-1.208-.933-2.017.592-2.831,5.174-2.331,7.102-1.507,1.271.534,2.396,1.458,3.103,2.579.527.78,1.859,4.014.522,4.157-.236.009-.444-.121-.548-.316h0Z" stroke-width="0"/>
  <path d="M9.048,66.497c3.003-9.295,7.621-18.183,11.685-27.097,3.286-7.341,5.268-15.112,8.846-22.371,1.516-2.495,6.418-1.706,7.014,1.375.175.802-.03,1.621-.173,2.405-3.915,17.161-8.993,35.2-12.732,52.372-.439,2.203-1.049,4.86-1.15,6.947-.176,3.291-5.052,3.222-5.079-.128.029-1.641.243-2.819.437-4.12,3.46-18.92,9.089-37.47,13.533-56.109,0,0,.08-.401.08-.401,0,0,.041-.2.041-.2l.015-.105c.005-.027.018-.086.018-.086-.019.15,0,.276.031.446.023.507.756,1.227.958,1.185-.003-.014-.173-.018-.078-.03.487-.089.998-.439,1.244-.803-.028.039-.051.077-.091.144-3.445,6.733-6.718,13.802-9.593,20.849-2.731,6.934-4.762,14.183-8.369,20.773-1.202,2.21-2.439,4.402-4.156,6.437-.521.618-1.445.697-2.063.175-.495-.417-.642-1.089-.418-1.66h0Z" stroke-width="0"/>
</svg>