<?xml version="1.0" encoding="UTF-8"?>
<svg id="a" data-name="레이어 1" xmlns="http://www.w3.org/2000/svg" width="100" height="100" viewBox="0 0 100 100">
  <path d="M55.519,47.294c.332-.051.856.068.904.105,1.184.463,2.082,1.281,3.026,2.053,1.311,1.238,4.356,3.423,2.2,5.341-.942.779-2.403.506-3.004-.557-.765-1.28-1.984-2.739-3.136-3.785,0,0-.167-.143-.167-.143-.042-.034.015.001.037-.003-.069-.029.317.098.52.024-1.998.216-2.371-2.753-.379-3.035h0Z" stroke-width="0"/>
  <path d="M61.524,46.016c.332-.052.856.068.904.105,1.184.463,2.082,1.281,3.026,2.052,1.311,1.238,4.356,3.423,2.2,5.342-.942.779-2.403.506-3.004-.557-.765-1.28-1.984-2.739-3.136-3.785,0,0-.167-.143-.167-.143-.042-.034.015.001.037-.003-.069-.029.317.098.52.024-1.998.216-2.371-2.753-.379-3.035h0Z" stroke-width="0"/>
  <path d="M19.654,77.524c6.844-.761,28.542-4.622,31.796-10.559.051-2.556-1.321-5.041-2.509-7.305-1.424-2.522-3.163-4.922-5.14-6.995-1.457-1.505-4.089-3.93-6-3.611-.177.043-.185.084-.333.19-4.158,5.024-4.746,19.345-3.338,25.607.17.663.408,1.321.664,1.599.028.024.233.145.468.244,6.019,1.996,12.924,2.128,19.309,2.197,3.825-.182,7.8-.045,11.182-1.635,1.056-.824,1.486-2.197,1.84-3.719.572-2.664.414-5.716.048-8.567-.117-.642.329-1.259.977-1.34.56-.072,1.078.276,1.236.8.476,1.569.792,3.092.988,4.695.68,5.569-.04,11.656-6.633,12.968-6.319,1.538-12.505,1.54-18.881,1.261-4.116-.443-12.626-.43-14.933-4.538-3.542-6.719-.537-25.043,3.712-31.182,2.04-3.063,5.902-2.506,8.483-.689,5.369,3.786,9.144,9.296,11.67,15.27,1.116,2.771,1.674,6.118-.633,8.382-4.117,4.091-9.878,5.738-15.158,7.533-5.954,1.849-11.952,3.272-18.126,4.346-3.357.484-4.082-4.486-.692-4.952h0Z" stroke-width="0"/>
  <path d="M9.048,66.497c3.003-9.295,7.621-18.183,11.685-27.097,3.286-7.341,5.268-15.112,8.846-22.371,1.516-2.495,6.418-1.706,7.014,1.375.175.802-.03,1.621-.173,2.405-3.915,17.161-8.993,35.2-12.732,52.372-.439,2.203-1.049,4.86-1.15,6.947-.176,3.291-5.052,3.222-5.079-.128.029-1.641.243-2.819.437-4.12,3.46-18.92,9.089-37.47,13.533-56.109,0,0,.08-.401.08-.401,0,0,.041-.2.041-.2l.015-.105c.005-.027.018-.086.018-.086-.019.15,0,.276.031.446.023.507.756,1.227.958,1.185-.003-.014-.173-.018-.078-.03.487-.089.998-.439,1.244-.803-.028.039-.051.077-.091.144-3.445,6.733-6.718,13.802-9.593,20.849-2.731,6.934-4.762,14.183-8.369,20.773-1.202,2.21-2.439,4.402-4.156,6.437-.521.618-1.445.697-2.063.175-.495-.417-.642-1.089-.418-1.66h0Z" stroke-width="0"/>
</svg>