<?xml version="1.0" encoding="UTF-8"?>
<svg id="a" data-name="레이어 1" xmlns="http://www.w3.org/2000/svg" width="100" height="100" viewBox="0 0 100 100">
  <path d="M19.654,77.524c7.584-.572,14.368.372,21.694.553,3.68-.012,7.784.458,11.065-1.149.382-.33.286-.266.289-.739-1.185-6.323-5.201-11.91-9.111-16.907-2.248-2.559-4.789-5.783-7.749-6.928.037.009.229-.094.179-.081-.068.039-.349.334-.581.7-1.953,3.308-2.885,7.177-3.924,10.916-1.695,6.756-3.021,13.719-3.834,20.656-.183,2.18-.523,4.571-.098,6.685.341,1.342-1.618,2.003-2.151.713-.313-.761-.421-1.397-.525-2.037-.524-4.244-.233-8.529.105-12.758.689-7.222,1.775-14.406,3.93-21.389,2.385-8.003,6.418-11.614,13.396-4.932,5.241,5.395,8.709,11.894,11.926,18.588,1.274,3.048,3.724,7.932.319,10.422-1.811,1.3-3.972,1.588-5.973,1.845-4.981.469-9.734.292-14.481.223-4.568-.055-9.388-.179-13.807.574-3.408.52-4.115-4.541-.672-4.955h0Z" stroke-width="0"/>
  <path d="M30.811,14.105c5.461,2.188,3.757,8.665,2.174,12.862-1.925,6.64-3.627,13.481-5.103,20.235-2.256,10.816-4.631,21.792-5.382,32.798-.035,1.41-1.238,2.524-2.649,2.437-1.305-.078-2.317-1.153-2.351-2.437-.07-2.995.141-5.896.432-8.763.875-8.494,2.596-17.002,4.608-25.275,1.765-6.935,3.572-13.884,6.377-20.5,1.329-3.109,4.364-7.144,1.072-9.939-.762-.56-.043-1.803.822-1.418h0Z" stroke-width="0"/>
  <path d="M14.579,44.748c9.861-7.148,41.792-8.548,53.921-6.326,1.878.324,3.335,2.039,2.319,3.917-.677,1.203-2.201,1.63-3.405.953-.004.017.001.023.009.017-.019-.011-.153-.038-.223-.059-1.701-.394-3.529-.482-5.313-.605-10.908-.461-22.066.083-32.79,2.079-3.954.826-8.418,1.875-11.633,4.106-2.716,1.838-5.547-2.104-2.885-4.083h0Z" stroke-width="0"/>
  <path d="M20.237,31.925c3.096-2.247,6.461-3.537,9.81-4.579,6.691-2.004,13.526-2.868,20.469-3.054,3.414-.015,6.941-.11,10.258.905,1.596.403,2.891,1.833,2.139,3.515-.435.973-1.446,1.508-2.452,1.383l-1.193-.151c-2-.563-4.13-.615-6.233-.662-7.214-.054-14.618.79-21.522,2.844-3.026.927-5.992,2.119-8.329,3.837-2.695,1.884-5.582-2.022-2.947-4.039h0Z" stroke-width="0"/>
  <path d="M76.345,21.527c1.67,1.925,2.635,4.023,3.46,6.389.221.762.433,1.407.384,2.346-.254,3.537-5.5,3.404-5.168-.287.21-1.365,1.486-2.301,2.851-2.091-.66-.151-1.685.237-2.104.811-.262.327-.408.684-.412.976.014.121.043.018.056-.065.057-2.091-.493-4.544-1.411-6.413-.789-1.49,1.211-2.893,2.344-1.667h0Z" stroke-width="0"/>
</svg>