<?xml version="1.0" encoding="UTF-8"?>
<svg id="a" data-name="레이어 1" xmlns="http://www.w3.org/2000/svg" width="100" height="100" viewBox="0 0 100 100">
  <path d="M20.354,77.525c8.02.878,16.558,1.6,23.663-2.262,5.773-3.178,7.796-10.303,5.206-16.363-.67-2.121-2.011-3.985-2.128-6.36.025-.442.18-1.041.528-1.47.175-.193.195-.325.819-.706.639-.306.819-.269,1.133-.301.437.003.546.036.827.109.537.177.62.265.797.354,2.057,1.339,3.647,2.956,5.384,4.581,5.861,5.94,15.781,16.358,14.857,25.35-1.158,6.598-10.364,9.45-15.496,5.295-3.071-2.156-3.885-6.896-2.042-10.024,4.521-7.826,15.079-10.662,23.285-12.587,1.004-.22,1.43,1.301.428,1.613-6.372,2.134-21.873,7.512-20.997,15.568.784,3.21,5.011,4.225,7.798,2.74,1.885-.936,3.19-2.357,2.631-4.728-1.122-4.887-4.972-9.546-8.229-13.513-3.106-3.535-6.393-7.166-10.113-10.038.161.08.589.233,1.007.208.291-.03.448.005,1.068-.287.601-.373.611-.484.773-.659.285-.378.441-.843.457-1.215.007-.321-.02-.31-.016-.319.876,3.123,1.513,6.477,1.848,9.895,2.807,20.306-19.275,22.798-34.195,20.067-3.184-.585-2.536-5.28.707-4.95h0Z" stroke-width="0"/>
  <path d="M30.811,14.105c5.461,2.188,3.757,8.665,2.174,12.863-1.925,6.64-3.627,13.481-5.103,20.235-2.256,10.816-4.631,21.792-5.382,32.798-.035,1.41-1.238,2.525-2.649,2.437-1.305-.077-2.317-1.153-2.351-2.437-.07-2.995.141-5.896.432-8.763.875-8.494,2.596-17.001,4.608-25.275,1.765-6.935,3.572-13.884,6.377-20.5,1.329-3.109,4.364-7.144,1.072-9.939-.762-.56-.043-1.803.822-1.418h0Z" stroke-width="0"/>
  <path d="M14.579,44.748c9.879-6.484,28.996-7.046,40.74-7.266,4.585.102,9.264-.07,13.765,1.111,1.622.421,2.616,2.225,1.736,3.746-.677,1.203-2.201,1.63-3.405.953-.004.017.001.023.009.017-.019-.011-.153-.039-.223-.059-1.701-.394-3.529-.482-5.313-.605-10.908-.461-22.066.083-32.79,2.079-3.954.826-8.418,1.875-11.633,4.106-2.716,1.838-5.547-2.104-2.885-4.083h0Z" stroke-width="0"/>
  <path d="M20.237,31.925c3.096-2.247,6.461-3.537,9.81-4.579,6.691-2.004,13.526-2.868,20.469-3.054,3.414-.015,6.941-.11,10.258.905,1.596.403,2.891,1.833,2.139,3.515-.435.973-1.446,1.508-2.452,1.382l-1.193-.151c-2-.563-4.13-.615-6.233-.662-7.214-.054-14.618.79-21.522,2.844-3.026.927-5.992,2.119-8.329,3.837-2.695,1.884-5.582-2.022-2.947-4.039h0Z" stroke-width="0"/>
  <path d="M76.345,21.527c1.67,1.925,2.635,4.023,3.46,6.39.221.762.433,1.407.384,2.346-.254,3.537-5.5,3.404-5.168-.287.21-1.365,1.486-2.301,2.851-2.091-.66-.151-1.685.237-2.104.811-.262.327-.408.684-.412.976.014.121.043.018.056-.065.057-2.091-.493-4.544-1.411-6.413-.789-1.489,1.211-2.893,2.344-1.667h0Z" stroke-width="0"/>
</svg>