<?xml version="1.0" encoding="UTF-8"?>
<svg id="a" data-name="레이어 1" xmlns="http://www.w3.org/2000/svg" width="100" height="100" viewBox="0 0 100 100">
  <path d="M20.432,77.538c3.158.51,6.689.341,9.937.296,6.809-.305,13.842-.827,20.425-2.475,1.82-.526,3.693-.982,4.891-2.062.045-.045.02-.042.017.006-.032.054-.022.165-.019.227,0,0,.022.065.008.014-1.629-6.056-7.318-13.751-13.938-13.497-5.296.489-11.499,6.959-11.272,12.332.111.316.76.651,1.441,1.005,4.387,1.965,9.524,2.722,14.362,3.196,4.082.271,8.161.423,11.872-.837,1.374-.58,1.565-.757,2.228-2.2,1.751-4.575,2.702-10.372,2.254-15.04.856,1.318,3.125,1.183,3.901-.204.057-.095.083-.144.118-.222.177-.443.115-.4.132-.425.225,8.356,1.807,16.678,2.578,25.088.089.793-.485,1.509-1.279,1.594-.722.078-1.377-.393-1.551-1.078-.869-3.416-1.649-6.839-2.358-10.286-.739-3.445-1.364-6.902-1.904-10.431-.232-1.937-.694-3.891-.398-5.883.278-1.757,2.346-2.862,3.952-1.89,4.321,2.698,1.073,16.874-.759,20.865-2.884,7.094-12.997,6.362-19.194,6.108-3.642-.281-7.233-.836-10.811-1.793-2.968-.914-5.864-1.574-8.342-4.015-2.563-3.01-1.213-7.305.39-10.334,2.956-5.241,7.987-9.478,14.32-9.859,8.631-.139,15.336,8.906,17.72,16.348.255.747.367,1.618.099,2.383-1.85,6.464-30.151,7.971-36.698,8.131-.945-.002-1.825.014-2.997-.14-3.391-.552-2.531-5.573.875-4.923h0Z" stroke-width="0"/>
  <path d="M30.811,14.105c5.461,2.188,3.757,8.665,2.174,12.863-1.925,6.64-3.627,13.481-5.103,20.235-2.256,10.816-4.631,21.792-5.382,32.798-.035,1.41-1.238,2.525-2.649,2.437-1.305-.077-2.317-1.153-2.351-2.437-.07-2.995.141-5.896.432-8.763.875-8.494,2.596-17.001,4.608-25.275,1.765-6.935,3.572-13.884,6.377-20.5,1.329-3.109,4.364-7.144,1.072-9.939-.762-.56-.043-1.803.822-1.418h0Z" stroke-width="0"/>
  <path d="M14.579,44.748c9.879-6.484,28.996-7.046,40.74-7.266,4.585.102,9.264-.07,13.765,1.111,1.622.421,2.616,2.225,1.736,3.746-.677,1.203-2.201,1.63-3.405.953-.004.017.001.023.009.017-.019-.011-.153-.039-.223-.059-1.701-.394-3.529-.482-5.313-.605-10.908-.461-22.066.083-32.79,2.079-3.954.826-8.418,1.875-11.633,4.106-2.716,1.838-5.547-2.104-2.885-4.083h0Z" stroke-width="0"/>
  <path d="M20.237,31.925c3.096-2.247,6.461-3.537,9.81-4.579,6.691-2.004,13.526-2.868,20.469-3.054,3.414-.015,6.941-.11,10.258.905,1.596.403,2.891,1.833,2.139,3.515-.435.973-1.446,1.508-2.452,1.382l-1.193-.151c-2-.563-4.13-.615-6.233-.662-7.214-.054-14.618.79-21.522,2.844-3.026.927-5.992,2.119-8.329,3.837-2.695,1.884-5.582-2.022-2.947-4.039h0Z" stroke-width="0"/>
  <path d="M76.345,21.527c1.67,1.925,2.635,4.023,3.46,6.39.221.762.433,1.407.384,2.346-.254,3.537-5.5,3.404-5.168-.287.21-1.365,1.486-2.301,2.851-2.091-.66-.151-1.685.237-2.104.811-.262.327-.408.684-.412.976.014.121.043.018.056-.065.057-2.091-.493-4.544-1.411-6.413-.789-1.489,1.211-2.893,2.344-1.667h0Z" stroke-width="0"/>
</svg>