<?xml version="1.0" encoding="UTF-8"?>
<svg id="a" data-name="레이어 1" xmlns="http://www.w3.org/2000/svg" width="100" height="100" viewBox="0 0 100 100">
  <path d="M18.545,82.033c-5.139-4.689-16.231-10.119-12.529-18.632,2.23-5.046,18.342-22.794,20.68-10.179,1.495,6.769,1.479,17.588,7.537,21.702,1.957.63,4.197.684,6.319.848,6.291.26,12.738.144,18.941-.857,1.432-.24,3.03-.68,3.935-1.182-.023.017-.067.106-.051.08.746-1.342.949-2.781,1.149-4.42.473-4.828.085-10.084-.224-15.241-.034-.572.402-1.063.973-1.097.47-.028.886.263,1.038.685.915,2.547,1.562,5.125,2.054,7.778.751,4.729,1.455,10.087-.773,14.663-3.119,5.881-28.793,5.71-34.804,3.77-9.15-4.014-9.364-17.643-10.869-25.729-.101-.548-.279-1.137-.34-1.268.049.087.138.174.219.253.215.206.475.319.636.353.31.061.268,0,.146.038-2.54.845-4.898,2.809-7.127,4.669-1.858,1.647-3.674,3.442-5.019,5.379-3.407,4.109,1.056,7.533,4.523,10.036,2.058,1.492,4.268,2.892,6.502,4.29,2.916,1.959-.129,6.197-2.917,4.062h0Z" stroke-width="0"/>
  <path d="M75.656,53.554c-1.3-2.755-4.369-4.253-7.119-3.114.032-.021.062-.003.296-.21.998-.911.537-2.838-.891-3.127-.102-.029.118-.023.255-.044,2.609-.256,5.335-.329,8.082.542,2.428.738,4.558,2.066,6.31,3.628.827.738.9,2.007.162,2.834-.658.738-1.74.874-2.551.374-1.773-1.036-3.476-1.973-5.26-2.515-2.136-.691-4.679-.833-7.131-.863-.582-.086-.551.035-1.398-.402-.632-.391-1.061-1.208-.933-2.017.592-2.831,5.174-2.331,7.102-1.507,1.271.534,2.396,1.458,3.103,2.579.527.78,1.859,4.014.522,4.157-.236.009-.444-.121-.548-.316h0Z" stroke-width="0"/>
  <path d="M30.811,14.105c5.461,2.188,3.757,8.665,2.174,12.863-1.925,6.64-3.627,13.481-5.103,20.235-2.256,10.816-4.631,21.792-5.382,32.798-.035,1.41-1.238,2.525-2.649,2.437-1.305-.077-2.317-1.153-2.351-2.437-.07-2.995.141-5.896.432-8.763.875-8.494,2.596-17.001,4.608-25.275,1.765-6.935,3.572-13.884,6.377-20.5,1.329-3.109,4.364-7.144,1.072-9.939-.762-.56-.043-1.803.822-1.418h0Z" stroke-width="0"/>
  <path d="M14.579,44.748c9.879-6.484,28.996-7.046,40.74-7.266,4.585.102,9.264-.07,13.765,1.111,1.622.421,2.616,2.225,1.736,3.746-.677,1.203-2.201,1.63-3.405.953-.004.017.001.023.009.017-.019-.011-.153-.039-.223-.059-1.701-.394-3.529-.482-5.313-.605-10.908-.461-22.066.083-32.79,2.079-3.954.826-8.418,1.875-11.633,4.106-2.716,1.838-5.547-2.104-2.885-4.083h0Z" stroke-width="0"/>
  <path d="M20.237,31.925c3.096-2.247,6.461-3.537,9.81-4.579,6.691-2.004,13.526-2.868,20.469-3.054,3.414-.015,6.941-.11,10.258.905,1.596.403,2.891,1.833,2.139,3.515-.435.973-1.446,1.508-2.452,1.382l-1.193-.151c-2-.563-4.13-.615-6.233-.662-7.214-.054-14.618.79-21.522,2.844-3.026.927-5.992,2.119-8.329,3.837-2.695,1.884-5.582-2.022-2.947-4.039h0Z" stroke-width="0"/>
  <path d="M76.345,21.527c1.67,1.925,2.635,4.023,3.46,6.39.221.762.433,1.407.384,2.346-.254,3.537-5.5,3.404-5.168-.287.21-1.365,1.486-2.301,2.851-2.091-.66-.151-1.685.237-2.104.811-.262.327-.408.684-.412.976.014.121.043.018.056-.065.057-2.091-.493-4.544-1.411-6.413-.789-1.489,1.211-2.893,2.344-1.667h0Z" stroke-width="0"/>
</svg>