<?xml version="1.0" encoding="UTF-8"?>
<svg id="a" data-name="레이어 1" xmlns="http://www.w3.org/2000/svg" width="100" height="100" viewBox="0 0 100 100">
  <path d="M18.545,82.033c-7.409-5.532-12.18-13.472-6.773-22.332,4.801-7.078,24.39-10.139,32.6-9.818.646.132,1.142.283,1.639.865,1.055,1.25.331,3.057-.998,3.553-10.097,4.896-9.395,18.783,1.068,22.633,6.777,2.031,18.337-.826,20.684-8.228.922-4.169-2.425-9.787-5.317-12.35-.704-.551-1.247-.908-1.878-.915-1.49.711-2.723,2.074-3.753,3.404-5.481,7.658-4.66,22.145.677,29.817.737.942-.564,2.21-1.483,1.418-3.147-2.706-4.856-6.529-6.032-10.383-2.834-9.672-1.548-22.157,7.489-28.327,8.489-5.233,17.76,11.712,15.363,18.727-3.226,11.159-21.14,15.782-30.382,10.073-11.691-6.84-11.07-23.555,1.063-29.454,0,0,.731-.344.731-.344.084-.037-.019,0-.15.09-1.171.738-1.158,2.731.088,3.45.151.086.347.188.488.205-.156-.033-.654-.059-1.057-.061-7.454.176-22.726,1.96-27.504,7.894-3.925,6.642.426,12.314,6.347,16.018,2.854,1.961-.137,6.132-2.911,4.066h0Z" stroke-width="0"/>
  <path d="M30.811,14.105c5.461,2.188,3.757,8.665,2.174,12.863-1.925,6.64-3.627,13.481-5.103,20.235-2.256,10.816-4.631,21.792-5.382,32.798-.035,1.41-1.238,2.525-2.649,2.437-1.305-.077-2.317-1.153-2.351-2.437-.07-2.995.141-5.896.432-8.763.875-8.494,2.596-17.001,4.608-25.275,1.765-6.935,3.572-13.884,6.377-20.5,1.329-3.109,4.364-7.144,1.072-9.939-.762-.56-.043-1.803.822-1.418h0Z" stroke-width="0"/>
  <path d="M14.579,44.748c9.879-6.484,28.996-7.046,40.74-7.266,4.585.102,9.264-.07,13.765,1.111,1.622.421,2.616,2.225,1.736,3.746-.677,1.203-2.201,1.63-3.405.953-.004.017.001.023.009.017-.019-.011-.153-.039-.223-.059-1.701-.394-3.529-.482-5.313-.605-10.908-.461-22.066.083-32.79,2.079-3.954.826-8.418,1.875-11.633,4.106-2.716,1.838-5.547-2.104-2.885-4.083h0Z" stroke-width="0"/>
  <path d="M20.237,31.925c3.096-2.247,6.461-3.537,9.81-4.579,6.691-2.004,13.526-2.868,20.469-3.054,3.414-.015,6.941-.11,10.258.905,1.596.403,2.891,1.833,2.139,3.515-.435.973-1.446,1.508-2.452,1.382l-1.193-.151c-2-.563-4.13-.615-6.233-.662-7.214-.054-14.618.79-21.522,2.844-3.026.927-5.992,2.119-8.329,3.837-2.695,1.884-5.582-2.022-2.947-4.039h0Z" stroke-width="0"/>
  <path d="M76.345,21.527c1.67,1.925,2.635,4.023,3.46,6.39.221.762.433,1.407.384,2.346-.254,3.537-5.5,3.404-5.168-.287.21-1.365,1.486-2.301,2.851-2.091-.66-.151-1.685.237-2.104.811-.262.327-.408.684-.412.976.014.121.043.018.056-.065.057-2.091-.493-4.544-1.411-6.413-.789-1.489,1.211-2.893,2.344-1.667h0Z" stroke-width="0"/>
</svg>