<?xml version="1.0" encoding="UTF-8"?>
<svg id="a" data-name="레이어 1" xmlns="http://www.w3.org/2000/svg" width="100" height="100" viewBox="0 0 100 100">
  <path d="M20.354,77.525c9.029.989,29.299,4.793,35.132-3.524,4.494-5.595,3.316-10.932,1.756-17.382-.062-.511-.136-.952-.025-1.572.202-1.493,1.967-2.581,3.403-1.984,1.13.39,1.842,1.661,2.352,2.475,4.09,7.032,9.507,22.907.797,28.281-.751.411-1.592-.505-1.142-1.217,3.684-7.311-.404-18.287-4.458-25.379.121.117.275.25.5.359,1.488.811,3.374-.398,3.403-1.81,1.434,16.322-.753,27.431-19.494,28.466-7.857.461-15.523-.559-22.93-1.762-1.372-.211-2.311-1.501-2.088-2.872.217-1.337,1.461-2.252,2.795-2.078h0Z" stroke-width="0"/>
  <path d="M67.458,50.528c-1.3-2.755-4.369-4.253-7.119-3.114.032-.021.062-.003.296-.21,1.025-.991.513-2.815-.91-3.141,2.706-.284,5.516-.385,8.356.512,2.428.738,4.558,2.066,6.31,3.628.827.738.9,2.007.162,2.835-.658.738-1.74.874-2.551.374-1.773-1.036-3.476-1.973-5.26-2.516-2.136-.691-4.679-.833-7.131-.863-.582-.086-.551.035-1.398-.402-.632-.391-1.061-1.208-.933-2.016.592-2.831,5.173-2.331,7.102-1.507,1.271.534,2.396,1.458,3.103,2.579.527.78,1.859,4.014.522,4.157-.236.009-.444-.121-.548-.316h0Z" stroke-width="0"/>
  <path d="M80.61,21.527c1.67,1.925,2.635,4.023,3.46,6.39.221.762.433,1.407.384,2.346-.254,3.537-5.5,3.404-5.168-.287.21-1.365,1.486-2.301,2.851-2.091-.66-.151-1.685.237-2.104.811-.262.327-.408.684-.412.976.013.121.043.018.056-.065.057-2.091-.493-4.544-1.411-6.413-.789-1.49,1.211-2.893,2.344-1.667h0Z" stroke-width="0"/>
  <path d="M71.99,33.684c-7.679-10.609-21.652-16.697-34.133-12.495-12.782,4.461-17.584,18.964-18.096,31.479-.333,6.689.152,13.505,1.25,20.137.362,2.114.807,4.452,1.376,6.452.43,1.336-.328,2.775-1.678,3.167-3.24.79-3.445-3.144-3.995-5.264-.748-3.481-1.294-6.992-1.673-10.529-2.168-18.421,1.114-43.056,21.189-50.125,14.287-5.066,31.011,3.132,37.591,16.06.595,1.181-1.069,2.184-1.832,1.118h0Z" stroke-width="0"/>
</svg>