<?xml version="1.0" encoding="UTF-8"?>
<svg id="a" data-name="레이어 1" xmlns="http://www.w3.org/2000/svg" width="100" height="100" viewBox="0 0 100 100">
  <path d="M19.654,77.524c7.584-.572,14.368.372,21.694.553,3.68-.012,7.784.458,11.065-1.149.382-.33.286-.266.289-.739-1.185-6.324-5.201-11.91-9.111-16.907-2.248-2.559-4.789-5.783-7.749-6.928.037.009.229-.094.179-.081-.068.039-.349.334-.581.7-1.953,3.308-2.885,7.177-3.924,10.915-1.695,6.756-3.021,13.719-3.834,20.657-.183,2.18-.523,4.571-.098,6.685.341,1.343-1.617,2.003-2.151.713-.313-.761-.421-1.397-.525-2.037-.524-4.244-.233-8.53.105-12.758.689-7.221,1.775-14.406,3.93-21.389,2.385-8.003,6.418-11.614,13.396-4.932,5.241,5.395,8.709,11.895,11.926,18.588,1.274,3.048,3.724,7.932.319,10.422-1.811,1.3-3.972,1.587-5.973,1.845-4.981.469-9.734.292-14.481.223-4.568-.055-9.388-.179-13.807.574-3.409.52-4.115-4.541-.672-4.955h0Z" stroke-width="0"/>
  <path d="M56.906,50.528c-1.3-2.755-4.369-4.253-7.119-3.114.032-.021.062-.003.296-.21.998-.911.537-2.838-.891-3.127-.102-.029.118-.023.255-.044,2.609-.256,5.335-.329,8.082.542,2.428.738,4.558,2.066,6.31,3.628.827.738.9,2.007.162,2.834-.658.738-1.74.874-2.551.374-1.773-1.036-3.476-1.973-5.26-2.515-2.136-.691-4.679-.833-7.131-.863-.582-.086-.551.035-1.398-.402-.632-.391-1.061-1.208-.933-2.017.592-2.831,5.174-2.331,7.102-1.507,1.271.534,2.396,1.458,3.103,2.579.527.78,1.859,4.014.522,4.157-.236.009-.444-.121-.548-.316h0Z" stroke-width="0"/>
  <path d="M80.61,21.527c1.67,1.925,2.635,4.023,3.46,6.39.221.762.433,1.407.384,2.346-.254,3.537-5.5,3.404-5.168-.287.21-1.365,1.486-2.301,2.851-2.091-.66-.151-1.685.237-2.104.811-.262.327-.408.684-.412.976.013.121.043.018.056-.065.057-2.091-.493-4.544-1.411-6.413-.789-1.49,1.211-2.893,2.344-1.667h0Z" stroke-width="0"/>
  <path d="M71.99,33.684c-7.679-10.609-21.652-16.697-34.133-12.495-12.782,4.461-17.584,18.964-18.096,31.479-.333,6.689.152,13.505,1.25,20.137.362,2.114.807,4.452,1.376,6.452.43,1.336-.328,2.775-1.678,3.167-3.24.79-3.445-3.144-3.995-5.264-.748-3.481-1.294-6.992-1.673-10.529-2.168-18.421,1.114-43.056,21.189-50.125,14.287-5.066,31.011,3.132,37.591,16.06.595,1.181-1.069,2.184-1.832,1.118h0Z" stroke-width="0"/>
</svg>