<?xml version="1.0" encoding="UTF-8"?>
<svg id="a" data-name="레이어 1" xmlns="http://www.w3.org/2000/svg" width="100" height="100" viewBox="0 0 100 100">
  <path d="M20.794,77.629c5.341,1.492,11.521,1.982,17.173,2.287,5.866.214,11.817.168,17.418-.849,2.262-.44,4.534-1.002,6.484-2.124,2.116-1.586,3.187-4.598,3.663-7.269.436-2.717.194-5.652-.873-8.083-1.684-3.554-3.797-5.659-6.965-3.744-2.771,1.708-5.505,5.554-5.577,8.794,1.055,7.169,12.375,9.287,17.291,13.854,5.012,4.272.291,9.804-4.275,11.856-5.71,2.895-15.635,2.294-16.983-5.31-.186-.987,1.244-1.378,1.598-.458.466,1.251,1.254,2.311,2.357,3.023,3.394,2.036,7.969,1.164,11.304-.643,1.613-.908,3.104-2.157,3.863-3.747.128-.373.094-.411.033-.561-1.379-1.872-4.07-2.752-6.204-3.879-2.704-1.305-5.544-2.646-8.256-4.622-4.915-3.381-7.338-9.218-4.504-14.746,2.554-5.638,9.354-11.974,15.821-7.995,5.296,3.689,5.334,10.994,5.114,16.69-.307,3.871-1.23,8.133-4.588,10.734-2.513,1.701-5.482,2.465-8.346,3.092-6.252,1.236-12.44,1.389-18.595,1.145-6.343-.342-12.308-.792-18.54-2.703-1.311-.431-2.025-1.843-1.595-3.154.432-1.326,1.873-2.031,3.183-1.587h0Z" stroke-width="0"/>
  <path d="M80.61,21.527c1.67,1.925,2.635,4.023,3.46,6.39.221.762.433,1.407.384,2.346-.254,3.537-5.5,3.404-5.168-.287.21-1.365,1.486-2.301,2.851-2.091-.66-.151-1.685.237-2.104.811-.262.327-.408.684-.412.976.013.121.043.018.056-.065.057-2.091-.493-4.544-1.411-6.413-.789-1.49,1.211-2.893,2.344-1.667h0Z" stroke-width="0"/>
  <path d="M71.99,33.684c-7.679-10.609-21.652-16.697-34.133-12.495-12.782,4.461-17.584,18.964-18.096,31.479-.333,6.689.152,13.505,1.25,20.137.362,2.114.807,4.452,1.376,6.452.43,1.336-.328,2.775-1.678,3.167-3.24.79-3.445-3.144-3.995-5.264-.748-3.481-1.294-6.992-1.673-10.529-2.168-18.421,1.114-43.056,21.189-50.125,14.287-5.066,31.011,3.132,37.591,16.06.595,1.181-1.069,2.184-1.832,1.118h0Z" stroke-width="0"/>
</svg>