<?xml version="1.0" encoding="UTF-8"?>
<svg id="a" data-name="레이어 1" xmlns="http://www.w3.org/2000/svg" width="100" height="100" viewBox="0 0 100 100">
  <path d="M18.545,82.033c-7.409-5.532-12.18-13.472-6.773-22.332,4.801-7.078,24.39-10.139,32.6-9.818.646.132,1.142.283,1.639.865,1.055,1.25.331,3.057-.998,3.553-10.097,4.896-9.395,18.783,1.068,22.633,6.777,2.031,18.337-.826,20.684-8.228.922-4.169-2.425-9.787-5.317-12.35-.704-.551-1.247-.908-1.878-.915-1.49.711-2.723,2.074-3.753,3.404-5.481,7.658-4.66,22.145.677,29.817.737.942-.564,2.21-1.483,1.418-3.147-2.706-4.856-6.529-6.032-10.383-2.834-9.672-1.548-22.157,7.489-28.327,8.489-5.233,17.76,11.712,15.363,18.727-3.226,11.159-21.14,15.782-30.382,10.073-11.691-6.84-11.07-23.555,1.063-29.454,0,0,.731-.344.731-.344.084-.037-.019,0-.15.09-1.171.738-1.158,2.731.088,3.45.151.086.347.188.488.205-.156-.033-.654-.059-1.057-.061-7.454.176-22.726,1.96-27.504,7.894-3.925,6.642.426,12.314,6.347,16.018,2.854,1.961-.137,6.132-2.911,4.066h0Z" stroke-width="0"/>
  <path d="M80.61,21.527c1.67,1.925,2.635,4.023,3.46,6.39.221.762.433,1.407.384,2.346-.254,3.537-5.5,3.404-5.168-.287.21-1.365,1.486-2.301,2.851-2.091-.66-.151-1.685.237-2.104.811-.262.327-.408.684-.412.976.013.121.043.018.056-.065.057-2.091-.493-4.544-1.411-6.413-.789-1.49,1.211-2.893,2.344-1.667h0Z" stroke-width="0"/>
  <path d="M71.99,33.684c-7.679-10.609-21.652-16.697-34.133-12.495-12.782,4.461-17.584,18.964-18.096,31.479-.333,6.689.152,13.505,1.25,20.137.362,2.114.807,4.452,1.376,6.452.43,1.336-.328,2.775-1.678,3.167-3.24.79-3.445-3.144-3.995-5.264-.748-3.481-1.294-6.992-1.673-10.529-2.168-18.421,1.114-43.056,21.189-50.125,14.287-5.066,31.011,3.132,37.591,16.06.595,1.181-1.069,2.184-1.832,1.118h0Z" stroke-width="0"/>
</svg>