<?xml version="1.0" encoding="UTF-8"?>
<svg id="a" data-name="레이어 1" xmlns="http://www.w3.org/2000/svg" width="100" height="100" viewBox="0 0 100 100">
  <path d="M20.354,77.525c9.028.989,29.3,4.793,35.132-3.524,4.494-5.594,3.316-10.932,1.756-17.382-.062-.511-.137-.952-.025-1.572.202-1.493,1.967-2.581,3.403-1.984,1.13.39,1.842,1.661,2.352,2.474,4.09,7.032,9.507,22.907.797,28.281-.751.411-1.592-.506-1.142-1.217,3.684-7.311-.404-18.287-4.458-25.379.122.117.275.25.5.359,1.487.811,3.374-.397,3.403-1.81,1.435,16.321-.753,27.431-19.494,28.466-7.857.461-15.523-.559-22.93-1.762-1.372-.211-2.311-1.502-2.088-2.872.217-1.337,1.461-2.252,2.795-2.078h0Z" stroke-width="0"/>
  <circle cx="83.704" cy="26.388" r="5" fill="none" stroke="#000" stroke-linecap="round" stroke-miterlimit="10" stroke-width="2.5"/>
  <path d="M30.811,14.105c5.461,2.188,3.757,8.665,2.174,12.863-1.925,6.64-3.627,13.481-5.103,20.235-2.256,10.816-4.631,21.792-5.382,32.798-.035,1.41-1.237,2.525-2.649,2.437-1.305-.077-2.317-1.153-2.351-2.437-.07-2.995.141-5.896.432-8.763.875-8.494,2.596-17.001,4.608-25.275,1.765-6.935,3.572-13.884,6.377-20.5,1.329-3.109,4.364-7.144,1.072-9.939-.762-.56-.043-1.803.822-1.418h0Z" stroke-width="0"/>
  <path d="M17.244,39.888c2.954-2.755,6.374-4.431,9.836-6.115,7.112-3.332,14.426-6.296,22.262-7.872,10.419-2.196,26.49,1.17,26.926,14.21.218,4.757-4.334,8.363-8.537,9.042-4.491.764-9.053-1.034-12.087-4.14-1.46-1.49-2.585-3.166-3.566-4.875-.226-.394-.09-.897.304-1.123.358-.206.807-.111,1.055.203,3.021,4.043,8.203,7.364,13.214,5.498,2.029-.778,4.365-2.252,4.361-4.467-.386-9.364-13.451-10.843-20.895-9.758-3.553.555-7.069,1.752-10.493,3.264-7.048,2.942-13.551,7.356-21.391,8.342-1.176.154-1.886-1.44-.991-2.21h0Z" stroke-width="0"/>
</svg>