<?xml version="1.0" encoding="UTF-8"?>
<svg id="a" data-name="레이어 1" xmlns="http://www.w3.org/2000/svg" width="100" height="100" viewBox="0 0 100 100">
  <path d="M17.5,80c.181-10.048,3.635-21.087,12.658-26.64,7.255-4.605,16.421-5.983,24.728-3.94,8.946,2.114,16.461,9.614,15.588,19.322-.241,5.352-3.804,11.44-9.348,12.732-5.913,1.656-15.589.961-19.869-4.002-1.459-1.687-1.186-4.662.129-6.382,3.388-4.489,9.2-5.458,14.41-5.403,8.737.038,17.346,5.233,20.802,13.418,1.33,3.204-3.448,5.095-4.657,1.824-3.053-9.867-15.616-14.169-24.72-10.195-1.702.812-3.285,1.927-3.586,3.678.042,1.555,1.931,2.355,3.503,3.013,3.956,1.379,8.734,1.516,12.73.167,3.997-1.276,5.582-5.176,5.843-9.146.295-5.55-3.142-10.381-8.141-12.7-8.844-4.186-21.114-2.682-28.239,4.169-5.312,5.122-7.11,12.636-6.833,20.084.018,3.413-5.007,3.437-5,0h0Z" stroke-width="0"/>
  <path d="M79.781,58.57c-1.3-2.755-4.369-4.253-7.119-3.114.032-.021.062-.003.296-.21.998-.911.537-2.838-.891-3.127-.102-.029.118-.023.255-.044,2.609-.256,5.335-.329,8.082.542,2.428.738,4.558,2.066,6.31,3.628.827.738.9,2.007.162,2.834-.658.738-1.74.874-2.551.374-1.773-1.036-3.476-1.973-5.26-2.515-2.136-.691-4.679-.833-7.131-.863-.582-.086-.551.035-1.398-.402-.632-.391-1.061-1.208-.933-2.017.592-2.831,5.174-2.331,7.102-1.507,1.271.534,2.396,1.458,3.103,2.579.527.78,1.859,4.014.522,4.157-.236.009-.444-.121-.548-.316h0Z" stroke-width="0"/>
  <circle cx="83.704" cy="26.388" r="5" fill="none" stroke="#000" stroke-linecap="round" stroke-miterlimit="10" stroke-width="2.5"/>
  <path d="M30.811,14.105c5.461,2.188,3.757,8.665,2.174,12.863-1.925,6.64-3.627,13.481-5.103,20.235-2.256,10.816-4.631,21.792-5.382,32.798-.035,1.41-1.237,2.525-2.649,2.437-1.305-.077-2.317-1.153-2.351-2.437-.07-2.995.141-5.896.432-8.763.875-8.494,2.596-17.001,4.608-25.275,1.765-6.935,3.572-13.884,6.377-20.5,1.329-3.109,4.364-7.144,1.072-9.939-.762-.56-.043-1.803.822-1.418h0Z" stroke-width="0"/>
  <path d="M17.244,39.888c2.954-2.755,6.374-4.431,9.836-6.115,7.112-3.332,14.426-6.296,22.262-7.872,10.419-2.196,26.49,1.17,26.926,14.21.218,4.757-4.334,8.363-8.537,9.042-4.491.764-9.053-1.034-12.087-4.14-1.46-1.49-2.585-3.166-3.566-4.875-.226-.394-.09-.897.304-1.123.358-.206.807-.111,1.055.203,3.021,4.043,8.203,7.364,13.214,5.498,2.029-.778,4.365-2.252,4.361-4.467-.386-9.364-13.451-10.843-20.895-9.758-3.553.555-7.069,1.752-10.493,3.264-7.048,2.942-13.551,7.356-21.391,8.342-1.176.154-1.886-1.44-.991-2.21h0Z" stroke-width="0"/>
</svg>