<?xml version="1.0" encoding="UTF-8"?>
<svg id="a" data-name="레이어 1" xmlns="http://www.w3.org/2000/svg" width="100" height="100" viewBox="0 0 100 100">
  <path d="M17.5,80c.282-9.845,2.987-20.94,11.802-26.791,12.697-8.634,33.455-5.744,40.322,8.983,3.885,8.526,1.721,17.889-8.694,19.304-7.161.915-15.865-1.258-20.773-6.783-.793-.992.649-2.243,1.518-1.325,3.011,3.04,7.84,4.382,12.059,4.814,4.093.346,8.439-.352,11.424-3.252,2.3-2.693,1.565-7.493-.013-10.648-3.679-7.71-12.853-11.49-21.135-10.944-8.812.247-16.694,5.125-19.672,13.597-1.481,4.077-2.005,8.581-1.838,13.07.013,3.43-5.037,3.427-5.001-.024h0Z" stroke-width="0"/>
  <path d="M68.173,50.939c.332-.051.856.068.904.105,1.184.463,2.082,1.281,3.026,2.053,1.311,1.238,4.356,3.423,2.2,5.341-.942.779-2.403.506-3.004-.557-.765-1.28-1.984-2.739-3.136-3.785,0,0-.167-.143-.167-.143-.042-.034.015.001.037-.003-.069-.029.317.098.52.024-1.998.216-2.371-2.753-.379-3.035h0Z" stroke-width="0"/>
  <path d="M74.179,49.661c.332-.052.856.068.904.105,1.184.463,2.082,1.281,3.026,2.052,1.311,1.238,4.356,3.423,2.2,5.342-.942.779-2.403.506-3.004-.557-.765-1.28-1.984-2.739-3.136-3.785,0,0-.167-.143-.167-.143-.042-.034.015.001.037-.003-.069-.029.317.098.52.024-1.998.216-2.371-2.753-.379-3.035h0Z" stroke-width="0"/>
  <circle cx="83.704" cy="26.388" r="5" fill="none" stroke="#000" stroke-linecap="round" stroke-miterlimit="10" stroke-width="2.5"/>
  <path d="M30.811,14.105c5.461,2.188,3.757,8.665,2.174,12.863-1.925,6.64-3.627,13.481-5.103,20.235-2.256,10.816-4.631,21.792-5.382,32.798-.035,1.41-1.237,2.525-2.649,2.437-1.305-.077-2.317-1.153-2.351-2.437-.07-2.995.141-5.896.432-8.763.875-8.494,2.596-17.001,4.608-25.275,1.765-6.935,3.572-13.884,6.377-20.5,1.329-3.109,4.364-7.144,1.072-9.939-.762-.56-.043-1.803.822-1.418h0Z" stroke-width="0"/>
  <path d="M17.244,39.888c2.954-2.755,6.374-4.431,9.836-6.115,7.112-3.332,14.426-6.296,22.262-7.872,10.419-2.196,26.49,1.17,26.926,14.21.218,4.757-4.334,8.363-8.537,9.042-4.491.764-9.053-1.034-12.087-4.14-1.46-1.49-2.585-3.166-3.566-4.875-.226-.394-.09-.897.304-1.123.358-.206.807-.111,1.055.203,3.021,4.043,8.203,7.364,13.214,5.498,2.029-.778,4.365-2.252,4.361-4.467-.386-9.364-13.451-10.843-20.895-9.758-3.553.555-7.069,1.752-10.493,3.264-7.048,2.942-13.551,7.356-21.391,8.342-1.176.154-1.886-1.44-.991-2.21h0Z" stroke-width="0"/>
</svg>