<?xml version="1.0" encoding="UTF-8"?>
<svg id="a" data-name="레이어 1" xmlns="http://www.w3.org/2000/svg" width="100" height="100" viewBox="0 0 100 100">
  <path d="M20.354,77.525c9.028.989,29.3,4.793,35.132-3.524,4.494-5.594,3.316-10.932,1.756-17.382-.062-.511-.137-.952-.025-1.572.202-1.493,1.967-2.581,3.403-1.984,1.13.39,1.842,1.661,2.352,2.474,4.09,7.032,9.507,22.907.797,28.281-.751.411-1.592-.506-1.142-1.217,3.684-7.311-.404-18.287-4.458-25.379.122.117.275.25.5.359,1.487.811,3.374-.397,3.403-1.81,1.435,16.321-.753,27.431-19.494,28.466-7.857.461-15.523-.559-22.93-1.762-1.372-.211-2.311-1.502-2.088-2.872.217-1.337,1.461-2.252,2.795-2.078h0Z" stroke-width="0"/>
  <path d="M69.85,21.527c1.67,1.925,2.635,4.023,3.46,6.39.221.762.433,1.407.384,2.346-.254,3.537-5.5,3.404-5.168-.287.21-1.365,1.486-2.301,2.851-2.091-.66-.151-1.685.237-2.104.811-.262.327-.408.684-.412.976.013.121.043.018.056-.065.057-2.091-.493-4.544-1.411-6.413-.789-1.49,1.211-2.893,2.344-1.667h0Z" stroke-width="0"/>
  <path d="M9.048,66.497c3.003-9.295,7.621-18.183,11.685-27.097,1.948-4.557,3.615-9.228,5.334-13.901,1.056-2.745,1.969-5.613,3.413-8.308.097-.166.261-.399.383-.548.804-1.039,2.482-1.22,3.662-.985,1.525.173,3.326,1.685,3.133,3.654-.041.465-.147,1.037-.238,1.497-4.149,18.397-9.741,37.468-13.434,55.934-.219,1.207-.428,2.467-.448,3.385-.176,3.291-5.052,3.222-5.079-.128.3-5.333,1.639-10.073,2.694-15.201,3.301-14.483,7.296-28.931,10.874-43.277.08-.347.466-1.999.524-2.352,0,0,.015-.105.015-.105.005-.027.018-.086.018-.086-.065.453.226,1.084.514,1.341.427.364.497.278.475.291-.003-.014-.173-.018-.078-.03.146-.024.157-.04.353-.11.436-.196.659-.379.891-.693-1.314,2.334-2.435,4.893-3.658,7.404-2.11,4.473-4.188,8.982-6.026,13.589-1.869,4.595-3.27,9.39-5.187,13.989-2.023,4.658-4.07,9.195-7.339,13.221-.521.618-1.445.697-2.063.175-.495-.417-.642-1.09-.418-1.66h0Z" stroke-width="0"/>
</svg>