<?xml version="1.0" encoding="UTF-8"?>
<svg id="a" data-name="레이어 1" xmlns="http://www.w3.org/2000/svg" width="100" height="100" viewBox="0 0 100 100">
  <path d="M20.794,77.629c5.341,1.492,11.521,1.982,17.173,2.287,5.866.214,11.817.168,17.418-.849,2.262-.44,4.534-1.002,6.484-2.124,2.116-1.586,3.187-4.598,3.663-7.269.436-2.717.194-5.652-.873-8.083-1.684-3.554-3.797-5.659-6.965-3.744-2.771,1.708-5.505,5.554-5.577,8.794,1.055,7.169,12.375,9.287,17.291,13.854,5.012,4.272.291,9.804-4.275,11.856-5.71,2.895-15.635,2.294-16.983-5.31-.186-.987,1.244-1.378,1.598-.458.466,1.251,1.254,2.311,2.357,3.023,3.394,2.036,7.969,1.164,11.304-.643,1.613-.908,3.104-2.157,3.863-3.747.128-.373.094-.411.033-.561-1.379-1.872-4.07-2.752-6.204-3.879-2.704-1.305-5.544-2.646-8.256-4.622-4.915-3.381-7.338-9.218-4.504-14.746,2.554-5.638,9.354-11.974,15.821-7.995,5.296,3.689,5.334,10.994,5.114,16.69-.307,3.871-1.23,8.133-4.588,10.734-2.513,1.701-5.482,2.465-8.346,3.092-6.252,1.236-12.44,1.389-18.595,1.145-6.343-.342-12.308-.792-18.54-2.703-1.311-.431-2.025-1.843-1.595-3.154.432-1.326,1.873-2.031,3.183-1.587h0Z" stroke-width="0"/>
  <path d="M69.85,21.527c1.67,1.925,2.635,4.023,3.46,6.39.221.762.433,1.407.384,2.346-.254,3.537-5.5,3.404-5.168-.287.21-1.365,1.486-2.301,2.851-2.091-.66-.151-1.685.237-2.104.811-.262.327-.408.684-.412.976.013.121.043.018.056-.065.057-2.091-.493-4.544-1.411-6.413-.789-1.49,1.211-2.893,2.344-1.667h0Z" stroke-width="0"/>
  <path d="M9.048,66.497c3.003-9.295,7.621-18.183,11.685-27.097,1.948-4.557,3.615-9.228,5.334-13.901,1.056-2.745,1.969-5.613,3.413-8.308.097-.166.261-.399.383-.548.804-1.039,2.482-1.22,3.662-.985,1.525.173,3.326,1.685,3.133,3.654-.041.465-.147,1.037-.238,1.497-4.149,18.397-9.741,37.468-13.434,55.934-.219,1.207-.428,2.467-.448,3.385-.176,3.291-5.052,3.222-5.079-.128.3-5.333,1.639-10.073,2.694-15.201,3.301-14.483,7.296-28.931,10.874-43.277.08-.347.466-1.999.524-2.352,0,0,.015-.105.015-.105.005-.027.018-.086.018-.086-.065.453.226,1.084.514,1.341.427.364.497.278.475.291-.003-.014-.173-.018-.078-.03.146-.024.157-.04.353-.11.436-.196.659-.379.891-.693-1.314,2.334-2.435,4.893-3.658,7.404-2.11,4.473-4.188,8.982-6.026,13.589-1.869,4.595-3.27,9.39-5.187,13.989-2.023,4.658-4.07,9.195-7.339,13.221-.521.618-1.445.697-2.063.175-.495-.417-.642-1.09-.418-1.66h0Z" stroke-width="0"/>
</svg>