<?xml version="1.0" encoding="UTF-8"?>
<svg id="a" data-name="레이어 1" xmlns="http://www.w3.org/2000/svg" width="100" height="100" viewBox="0 0 100 100">
  <path d="M18.545,82.033c-7.409-5.532-12.18-13.472-6.773-22.332,4.801-7.078,24.39-10.139,32.6-9.818.646.132,1.142.283,1.639.865,1.055,1.25.331,3.057-.998,3.553-10.097,4.896-9.395,18.783,1.068,22.633,6.777,2.031,18.337-.826,20.684-8.228.922-4.169-2.425-9.787-5.317-12.35-.704-.551-1.247-.908-1.878-.915-1.49.711-2.723,2.074-3.753,3.404-5.481,7.658-4.66,22.145.677,29.817.737.942-.564,2.21-1.483,1.418-3.147-2.706-4.856-6.529-6.032-10.383-2.834-9.672-1.548-22.157,7.489-28.327,8.489-5.233,17.76,11.712,15.363,18.727-3.226,11.159-21.14,15.782-30.382,10.073-11.691-6.84-11.07-23.555,1.063-29.454,0,0,.731-.344.731-.344.084-.037-.019,0-.15.09-1.171.738-1.158,2.731.088,3.45.151.086.347.188.488.205-.156-.033-.654-.059-1.057-.061-7.454.176-22.726,1.96-27.504,7.894-3.925,6.642.426,12.314,6.347,16.018,2.854,1.961-.137,6.132-2.911,4.066h0Z" stroke-width="0"/>
  <path d="M69.85,21.527c1.67,1.925,2.635,4.023,3.46,6.39.221.762.433,1.407.384,2.346-.254,3.537-5.5,3.404-5.168-.287.21-1.365,1.486-2.301,2.851-2.091-.66-.151-1.685.237-2.104.811-.262.327-.408.684-.412.976.013.121.043.018.056-.065.057-2.091-.493-4.544-1.411-6.413-.789-1.49,1.211-2.893,2.344-1.667h0Z" stroke-width="0"/>
  <path d="M9.048,66.497c3.003-9.295,7.621-18.183,11.685-27.097,1.948-4.557,3.615-9.228,5.334-13.901,1.056-2.745,1.969-5.613,3.413-8.308.097-.166.261-.399.383-.548.804-1.039,2.482-1.22,3.662-.985,1.525.173,3.326,1.685,3.133,3.654-.041.465-.147,1.037-.238,1.497-4.149,18.397-9.741,37.468-13.434,55.934-.219,1.207-.428,2.467-.448,3.385-.176,3.291-5.052,3.222-5.079-.128.3-5.333,1.639-10.073,2.694-15.201,3.301-14.483,7.296-28.931,10.874-43.277.08-.347.466-1.999.524-2.352,0,0,.015-.105.015-.105.005-.027.018-.086.018-.086-.065.453.226,1.084.514,1.341.427.364.497.278.475.291-.003-.014-.173-.018-.078-.03.146-.024.157-.04.353-.11.436-.196.659-.379.891-.693-1.314,2.334-2.435,4.893-3.658,7.404-2.11,4.473-4.188,8.982-6.026,13.589-1.869,4.595-3.27,9.39-5.187,13.989-2.023,4.658-4.07,9.195-7.339,13.221-.521.618-1.445.697-2.063.175-.495-.417-.642-1.09-.418-1.66h0Z" stroke-width="0"/>
</svg>