<?xml version="1.0" encoding="UTF-8"?>
<svg id="a" data-name="레이어 1" xmlns="http://www.w3.org/2000/svg" width="100" height="100" viewBox="0 0 100 100">
  <path d="M18.545,82.033c-5.139-4.689-16.231-10.119-12.529-18.632,2.23-5.046,18.342-22.794,20.68-10.179,1.495,6.769,1.479,17.588,7.537,21.702,1.957.63,4.197.684,6.319.848,6.291.26,12.738.144,18.941-.857,1.432-.24,3.03-.68,3.935-1.182-.023.017-.067.106-.051.08.746-1.342.949-2.781,1.149-4.42.473-4.828.085-10.084-.224-15.241-.034-.572.402-1.063.973-1.097.47-.028.886.263,1.038.685.915,2.547,1.562,5.125,2.054,7.778.751,4.729,1.455,10.087-.773,14.663-3.119,5.881-28.793,5.71-34.804,3.77-9.15-4.014-9.364-17.643-10.869-25.729-.101-.548-.279-1.137-.34-1.268.049.087.138.174.219.253.215.206.475.319.636.353.31.061.268,0,.146.038-2.54.845-4.898,2.809-7.127,4.669-1.858,1.647-3.674,3.442-5.019,5.379-3.407,4.109,1.056,7.533,4.523,10.035,2.058,1.492,4.268,2.892,6.502,4.29,2.916,1.959-.129,6.197-2.917,4.062h0Z" stroke-width="0"/>
  <path d="M72.071,33.634c-3.022-3.327-6.339-6.037-9.794-8.817-6.958-4.925-16.433-6.342-24.42-3.629-8.148,2.799-13.567,10.323-15.942,18.452-3.132,10.658-2.63,22.24-.903,33.163.361,2.116.808,4.451,1.376,6.452.431,1.336-.328,2.775-1.678,3.167-3.254.778-3.436-3.131-3.995-5.264-.748-3.481-1.294-6.992-1.673-10.529-1.379-14.169-.633-30.03,8.842-41.564,6.359-7.864,17.402-11.695,27.235-9.439,4.89.996,9.36,3.205,13.433,5.886,4.217,2.471,7.408,6.6,9.189,11.102.39,1.019-.958,1.828-1.67,1.019h0Z" stroke-width="0"/>
</svg>