<?xml version="1.0" encoding="UTF-8"?>
<svg id="a" data-name="레이어 1" xmlns="http://www.w3.org/2000/svg" width="100" height="100" viewBox="0 0 100 100">
  <path d="M20.354,77.525c9.028.989,29.3,4.793,35.132-3.524,4.494-5.594,3.316-10.932,1.756-17.382-.062-.511-.137-.952-.025-1.572.202-1.493,1.967-2.581,3.403-1.984,1.13.39,1.842,1.661,2.352,2.474,4.09,7.032,9.507,22.907.797,28.281-.751.411-1.592-.506-1.142-1.217,3.684-7.311-.404-18.287-4.458-25.379.122.117.275.25.5.359,1.487.811,3.374-.397,3.403-1.81,1.435,16.321-.753,27.431-19.494,28.466-7.857.461-15.523-.559-22.93-1.762-1.372-.211-2.311-1.502-2.088-2.872.217-1.337,1.461-2.252,2.795-2.078h0Z" stroke-width="0"/>
  <path d="M72.071,33.634c-3.022-3.327-6.339-6.037-9.794-8.817-6.958-4.925-16.433-6.342-24.42-3.629-8.148,2.799-13.567,10.323-15.942,18.452-3.132,10.658-2.63,22.24-.903,33.163.361,2.116.808,4.451,1.376,6.452.431,1.336-.328,2.775-1.678,3.167-3.254.778-3.436-3.131-3.995-5.264-.748-3.481-1.294-6.992-1.673-10.529-1.379-14.169-.633-30.03,8.842-41.564,6.359-7.864,17.402-11.695,27.235-9.439,4.89.996,9.36,3.205,13.433,5.886,4.217,2.471,7.408,6.6,9.189,11.102.39,1.019-.958,1.828-1.67,1.019h0Z" stroke-width="0"/>
</svg>