<?xml version="1.0" encoding="UTF-8"?>
<svg id="a" data-name="레이어 1" xmlns="http://www.w3.org/2000/svg" width="100" height="100" viewBox="0 0 100 100">
  <path d="M19.654,77.524c7.584-.572,14.368.372,21.694.553,3.68-.012,7.784.458,11.065-1.149.382-.33.286-.266.289-.739-1.185-6.323-5.201-11.91-9.111-16.907-2.248-2.559-4.789-5.783-7.749-6.928.037.009.229-.094.179-.081-.068.039-.349.334-.581.7-1.953,3.308-2.885,7.177-3.924,10.916-1.695,6.756-3.021,13.719-3.834,20.656-.183,2.18-.523,4.571-.098,6.685.341,1.342-1.618,2.003-2.151.713-.313-.761-.421-1.397-.525-2.037-.524-4.244-.233-8.529.105-12.758.689-7.222,1.775-14.406,3.93-21.389,2.385-8.003,6.418-11.614,13.396-4.932,5.241,5.395,8.709,11.894,11.926,18.588,1.274,3.048,3.724,7.932.319,10.422-1.811,1.3-3.972,1.588-5.973,1.845-4.981.469-9.734.292-14.481.223-4.568-.055-9.388-.179-13.807.574-3.408.52-4.115-4.541-.672-4.955h0Z" stroke-width="0"/>
  <path d="M72.071,33.634c-3.022-3.327-6.339-6.037-9.794-8.817-6.958-4.925-16.433-6.342-24.42-3.629-8.148,2.799-13.567,10.323-15.942,18.452-3.132,10.658-2.63,22.24-.903,33.163.361,2.116.808,4.451,1.376,6.452.431,1.336-.328,2.775-1.678,3.167-3.254.778-3.436-3.131-3.995-5.264-.748-3.481-1.294-6.992-1.673-10.529-1.379-14.169-.633-30.03,8.842-41.564,6.359-7.864,17.402-11.695,27.235-9.439,4.89.996,9.36,3.205,13.433,5.886,4.217,2.471,7.408,6.6,9.189,11.102.39,1.019-.958,1.828-1.67,1.019h0Z" stroke-width="0"/>
</svg>