<?xml version="1.0" encoding="UTF-8"?>
<svg id="a" data-name="레이어 1" xmlns="http://www.w3.org/2000/svg" width="100" height="100" viewBox="0 0 100 100">
  <path d="M18.545,82.033c-7.409-5.532-12.18-13.472-6.773-22.332,4.801-7.078,24.39-10.139,32.6-9.818.646.132,1.142.283,1.639.865,1.055,1.25.331,3.057-.998,3.553-10.097,4.896-9.395,18.783,1.068,22.633,6.777,2.031,18.337-.826,20.684-8.228.922-4.169-2.425-9.787-5.317-12.35-.704-.551-1.247-.908-1.878-.915-1.49.711-2.723,2.074-3.753,3.404-5.481,7.658-4.66,22.145.677,29.817.737.942-.564,2.21-1.483,1.418-3.147-2.706-4.856-6.529-6.032-10.383-2.834-9.672-1.548-22.157,7.489-28.327,8.489-5.233,17.76,11.712,15.363,18.727-3.226,11.159-21.14,15.782-30.382,10.073-11.691-6.84-11.07-23.555,1.063-29.454,0,0,.731-.344.731-.344.084-.037-.019,0-.15.09-1.171.738-1.158,2.731.088,3.45.151.086.347.188.488.205-.156-.033-.654-.059-1.057-.061-7.454.176-22.726,1.96-27.504,7.894-3.925,6.642.426,12.314,6.347,16.018,2.854,1.961-.137,6.132-2.911,4.066h0Z" stroke-width="0"/>
  <path d="M72.071,33.634c-3.022-3.327-6.339-6.037-9.794-8.817-6.958-4.925-16.433-6.342-24.42-3.629-8.148,2.799-13.567,10.323-15.942,18.452-3.132,10.658-2.63,22.24-.903,33.163.361,2.116.808,4.451,1.376,6.452.431,1.336-.328,2.775-1.678,3.167-3.254.778-3.436-3.131-3.995-5.264-.748-3.481-1.294-6.992-1.673-10.529-1.379-14.169-.633-30.03,8.842-41.564,6.359-7.864,17.402-11.695,27.235-9.439,4.89.996,9.36,3.205,13.433,5.886,4.217,2.471,7.408,6.6,9.189,11.102.39,1.019-.958,1.828-1.67,1.019h0Z" stroke-width="0"/>
</svg>