<?xml version="1.0" encoding="UTF-8"?>
<svg id="a" data-name="레이어 1" xmlns="http://www.w3.org/2000/svg" width="100" height="100" viewBox="0 0 100 100">
  <path d="M19.654,77.524c7.584-.572,14.368.372,21.694.553,3.68-.012,7.784.458,11.065-1.149.382-.33.286-.266.289-.739-1.185-6.324-5.201-11.91-9.111-16.907-2.248-2.559-4.789-5.783-7.749-6.928.037.009.229-.094.179-.081-.068.039-.349.334-.581.7-1.953,3.308-2.885,7.177-3.924,10.915-1.695,6.756-3.021,13.719-3.834,20.657-.183,2.18-.523,4.571-.098,6.685.341,1.343-1.617,2.003-2.151.713-.313-.761-.421-1.397-.525-2.037-.524-4.244-.233-8.53.105-12.758.689-7.221,1.775-14.406,3.93-21.389,2.385-8.003,6.418-11.614,13.396-4.932,5.241,5.395,8.709,11.895,11.926,18.588,1.274,3.048,3.724,7.932.319,10.422-1.811,1.3-3.972,1.587-5.973,1.845-4.981.469-9.734.292-14.481.223-4.568-.055-9.388-.179-13.807.574-3.409.52-4.115-4.541-.672-4.955h0Z" stroke-width="0"/>
  <path d="M56.906,50.528c-1.3-2.755-4.369-4.253-7.119-3.114.032-.021.062-.003.296-.21.998-.911.537-2.838-.891-3.127-.102-.029.118-.023.255-.044,2.609-.256,5.335-.329,8.082.542,2.428.738,4.558,2.066,6.31,3.628.827.738.9,2.007.162,2.834-.658.738-1.74.874-2.551.374-1.773-1.036-3.476-1.973-5.26-2.515-2.136-.691-4.679-.833-7.131-.863-.582-.086-.551.035-1.398-.402-.632-.391-1.061-1.208-.933-2.017.592-2.831,5.174-2.331,7.102-1.507,1.271.534,2.396,1.458,3.103,2.579.527.78,1.859,4.014.522,4.157-.236.009-.444-.121-.548-.316h0Z" stroke-width="0"/>
  <path d="M15.663,37.984c4.708-3.116,9.632-4.062,14.852-5.183,4.944-.96,9.891-1.567,14.843-2.03,7.446-.664,14.888-1.024,22.373-.85,2.499.114,5.032.122,7.507.768,1.598.359,2.667,2.087,1.792,3.597-.642,1.141-2.087,1.546-3.228.904.002.025.016.037.032.03,0,0-.277-.062-.277-.062-1.92-.363-3.958-.392-5.949-.465-12.054-.131-24.303.724-36.14,2.954-4.351.92-9.396,2.014-12.943,4.441-2.731,1.834-5.554-2.141-2.862-4.105h0Z" stroke-width="0"/>
  <circle cx="68.388" cy="18.08" r="5" fill="none" stroke="#000" stroke-linecap="round" stroke-miterlimit="10" stroke-width="2.5"/>
  <path d="M30.811,14.105c5.461,2.188,3.757,8.665,2.174,12.863-1.925,6.64-3.627,13.481-5.103,20.235-2.256,10.816-4.631,21.792-5.382,32.798-.035,1.41-1.238,2.525-2.649,2.437-1.305-.077-2.317-1.153-2.351-2.437-.07-2.995.141-5.896.432-8.763.875-8.494,2.596-17.001,4.608-25.275,1.765-6.935,3.572-13.884,6.377-20.5,1.329-3.109,4.364-7.144,1.072-9.939-.762-.56-.043-1.803.822-1.418h0Z" stroke-width="0"/>
</svg>