<?xml version="1.0" encoding="UTF-8"?>
<svg id="a" data-name="레이어 1" xmlns="http://www.w3.org/2000/svg" width="100" height="100" viewBox="0 0 100 100">
  <path d="M20.432,77.538c3.158.51,6.689.341,9.937.296,6.809-.305,13.842-.827,20.425-2.475,1.82-.526,3.693-.982,4.891-2.062.045-.045.02-.042.017.006-.032.054-.022.165-.019.227,0,0,.022.065.008.014-1.629-6.056-7.318-13.751-13.938-13.497-5.296.489-11.499,6.959-11.272,12.332.111.316.76.651,1.441,1.005,4.387,1.965,9.524,2.722,14.362,3.196,4.082.271,8.161.423,11.872-.837,1.374-.58,1.565-.757,2.228-2.2,1.751-4.575,2.702-10.372,2.254-15.04.856,1.318,3.125,1.183,3.901-.204.057-.095.083-.144.118-.222.177-.443.115-.4.132-.425.225,8.356,1.807,16.678,2.578,25.088.089.793-.485,1.509-1.279,1.594-.722.078-1.377-.393-1.551-1.078-.869-3.416-1.649-6.839-2.358-10.286-.739-3.445-1.364-6.902-1.904-10.431-.232-1.937-.694-3.891-.398-5.883.278-1.757,2.346-2.862,3.952-1.89,4.321,2.698,1.073,16.874-.759,20.865-2.884,7.094-12.997,6.362-19.194,6.108-3.642-.281-7.233-.836-10.811-1.793-2.968-.914-5.864-1.574-8.342-4.015-2.563-3.01-1.213-7.305.39-10.334,2.956-5.241,7.987-9.478,14.32-9.859,8.631-.139,15.336,8.906,17.72,16.348.255.747.367,1.618.099,2.383-1.85,6.464-30.151,7.971-36.698,8.131-.945-.002-1.825.014-2.997-.14-3.391-.552-2.531-5.573.875-4.923h0Z" stroke-width="0"/>
  <path d="M15.201,17.808c1.419.476,2.683,1.137,3.642,1.429.524.143.83.122,1.579.02,2.296-.385,4.361-1.265,6.679-2.125,1.224-.388,2.512-1.053,4.168-.944,1.789.1,3.144,2.015,2.61,3.794-.103.45-.286.817-.418,1.209-2.315,6.066-3.857,12.668-5.311,19.191-2.697,12.954-5.158,26.478-5.649,39.618.017,1.407-1.138,2.563-2.548,2.532-1.375-.026-2.47-1.159-2.452-2.532.093-7.072.973-13.805,1.99-20.573,2.2-13.554,4.719-27.022,9.256-40.042,0,0,.224-.622.224-.622.015-.044.005-.024-.01.036-.285,1.088.78,2.373,1.779,2.429-3.253.957-9.002,3.721-13.319,2.162-2.186-.822-3.899-2.679-3.785-5.097.044-.432.43-.746.862-.702.069-.004.62.187.704.216h0Z" stroke-width="0"/>
</svg>