<?xml version="1.0" encoding="UTF-8"?>
<svg id="a" data-name="레이어 1" xmlns="http://www.w3.org/2000/svg" width="100" height="100" viewBox="0 0 100 100">
  <path d="M17.5,80c.282-9.845,2.987-20.94,11.802-26.791,12.697-8.634,33.455-5.744,40.322,8.983,3.885,8.526,1.721,17.889-8.694,19.304-7.161.915-15.865-1.258-20.773-6.783-.793-.992.649-2.243,1.518-1.325,3.011,3.04,7.84,4.382,12.059,4.814,4.093.346,8.439-.352,11.424-3.252,2.3-2.693,1.565-7.493-.013-10.648-3.679-7.71-12.853-11.49-21.135-10.944-8.812.247-16.694,5.125-19.672,13.597-1.481,4.077-2.005,8.581-1.838,13.07.013,3.43-5.037,3.427-5.001-.024h0Z" stroke-width="0"/>
  <path d="M71.577,50.528c-1.3-2.755-4.369-4.253-7.119-3.114.032-.021.062-.003.296-.21.998-.911.537-2.838-.891-3.127-.102-.029.118-.023.255-.044,2.609-.256,5.335-.329,8.082.542,2.428.738,4.558,2.066,6.31,3.628.827.738.9,2.007.162,2.834-.658.738-1.74.874-2.551.374-1.773-1.036-3.476-1.973-5.26-2.515-2.136-.691-4.679-.833-7.131-.863-.582-.086-.551.035-1.398-.402-.632-.391-1.061-1.208-.933-2.017.592-2.831,5.174-2.331,7.102-1.507,1.271.534,2.396,1.458,3.103,2.579.527.78,1.859,4.014.522,4.157-.236.009-.444-.121-.548-.316h0Z" stroke-width="0"/>
  <path d="M15.201,17.808c1.419.476,2.683,1.137,3.642,1.429.524.143.83.122,1.579.02,2.296-.385,4.361-1.265,6.679-2.125,1.224-.388,2.512-1.053,4.168-.944,1.789.1,3.144,2.015,2.61,3.794-.103.45-.286.817-.418,1.209-2.315,6.066-3.857,12.668-5.311,19.191-2.697,12.954-5.158,26.478-5.649,39.618.017,1.407-1.138,2.563-2.548,2.532-1.375-.026-2.47-1.159-2.452-2.532.093-7.072.973-13.805,1.99-20.573,2.2-13.554,4.719-27.022,9.256-40.042,0,0,.224-.622.224-.622.015-.044.005-.024-.01.036-.285,1.088.78,2.373,1.779,2.429-3.253.957-9.002,3.721-13.319,2.162-2.186-.822-3.899-2.679-3.785-5.097.044-.432.43-.746.862-.702.069-.004.62.187.704.216h0Z" stroke-width="0"/>
</svg>