<?xml version="1.0" encoding="UTF-8"?>
<svg id="a" data-name="레이어 1" xmlns="http://www.w3.org/2000/svg" width="100" height="100" viewBox="0 0 100 100">
  <path d="M20.354,77.525c9.029.989,29.299,4.793,35.132-3.524,4.494-5.595,3.316-10.932,1.756-17.382-.062-.511-.136-.952-.025-1.572.202-1.493,1.967-2.581,3.403-1.984,1.13.39,1.842,1.661,2.352,2.475,4.09,7.032,9.507,22.907.797,28.281-.751.411-1.592-.505-1.142-1.217,3.684-7.311-.404-18.287-4.458-25.379.121.117.275.25.5.359,1.488.811,3.374-.398,3.403-1.81,1.434,16.322-.753,27.431-19.494,28.466-7.857.461-15.523-.559-22.93-1.762-1.372-.211-2.311-1.501-2.088-2.872.217-1.337,1.461-2.252,2.795-2.078h0Z" stroke-width="0"/>
  <path d="M67.458,50.528c-1.3-2.755-4.369-4.253-7.119-3.114.032-.021.062-.003.296-.21,1.025-.991.513-2.815-.91-3.141,2.706-.284,5.516-.385,8.356.512,2.428.738,4.558,2.066,6.31,3.628.827.738.9,2.007.162,2.835-.658.738-1.74.874-2.551.374-1.773-1.036-3.476-1.973-5.26-2.516-2.136-.691-4.679-.833-7.131-.863-.582-.086-.551.035-1.398-.402-.632-.391-1.061-1.208-.933-2.016.592-2.831,5.173-2.331,7.102-1.507,1.271.534,2.396,1.458,3.103,2.579.527.78,1.859,4.014.522,4.157-.236.009-.444-.121-.548-.316h0Z" stroke-width="0"/>
  <path d="M15.201,17.808c1.419.476,2.683,1.137,3.642,1.429.524.143.83.122,1.579.02,2.296-.385,4.361-1.265,6.679-2.125,1.224-.388,2.512-1.053,4.168-.944,1.789.1,3.144,2.015,2.61,3.794-.103.45-.286.817-.418,1.209-2.315,6.066-3.857,12.668-5.311,19.191-2.697,12.954-5.158,26.478-5.649,39.618.017,1.407-1.138,2.563-2.548,2.532-1.375-.026-2.47-1.159-2.452-2.532.093-7.072.973-13.805,1.99-20.573,2.2-13.554,4.719-27.022,9.256-40.042,0,0,.224-.622.224-.622.015-.044.005-.024-.01.036-.285,1.088.78,2.373,1.779,2.429-3.253.957-9.002,3.721-13.319,2.162-2.186-.822-3.899-2.679-3.785-5.097.044-.432.43-.746.862-.702.069-.004.62.187.704.216h0Z" stroke-width="0"/>
</svg>