<?xml version="1.0" encoding="UTF-8"?>
<svg id="a" data-name="레이어 1" xmlns="http://www.w3.org/2000/svg" width="100" height="100" viewBox="0 0 100 100">
  <path d="M20.794,77.629c5.341,1.492,11.521,1.982,17.173,2.287,5.866.214,11.817.168,17.418-.849,2.262-.44,4.534-1.002,6.484-2.124,2.116-1.586,3.187-4.598,3.663-7.269.436-2.717.194-5.652-.873-8.083-1.684-3.554-3.797-5.659-6.965-3.744-2.771,1.708-5.505,5.554-5.577,8.794,1.055,7.169,12.375,9.287,17.291,13.854,5.012,4.272.291,9.804-4.275,11.856-5.71,2.895-15.635,2.294-16.983-5.31-.186-.987,1.244-1.378,1.598-.458.466,1.251,1.254,2.311,2.357,3.023,3.394,2.036,7.969,1.164,11.304-.643,1.613-.908,3.104-2.157,3.863-3.747.128-.373.094-.411.033-.561-1.379-1.872-4.07-2.752-6.204-3.879-2.704-1.305-5.544-2.646-8.256-4.622-4.915-3.381-7.338-9.218-4.504-14.746,2.554-5.638,9.354-11.974,15.821-7.995,5.296,3.689,5.334,10.994,5.114,16.69-.307,3.871-1.23,8.133-4.588,10.734-2.513,1.701-5.482,2.465-8.346,3.092-6.252,1.236-12.44,1.389-18.595,1.145-6.343-.342-12.308-.792-18.54-2.703-1.311-.431-2.025-1.843-1.595-3.154.432-1.326,1.873-2.031,3.183-1.587h0Z" stroke-width="0"/>
  <path d="M15.201,17.808c1.419.476,2.683,1.137,3.642,1.429.524.143.83.122,1.579.02,2.296-.385,4.361-1.265,6.679-2.125,1.224-.388,2.512-1.053,4.168-.944,1.789.1,3.144,2.015,2.61,3.794-.103.45-.286.817-.418,1.209-2.315,6.066-3.857,12.668-5.311,19.191-2.697,12.954-5.158,26.478-5.649,39.618.017,1.407-1.138,2.563-2.548,2.532-1.375-.026-2.47-1.159-2.452-2.532.093-7.072.973-13.805,1.99-20.573,2.2-13.554,4.719-27.022,9.256-40.042,0,0,.224-.622.224-.622.015-.044.005-.024-.01.036-.285,1.088.78,2.373,1.779,2.429-3.253.957-9.002,3.721-13.319,2.162-2.186-.822-3.899-2.679-3.785-5.097.044-.432.43-.746.862-.702.069-.004.62.187.704.216h0Z" stroke-width="0"/>
</svg>