<?xml version="1.0" encoding="UTF-8"?>
<svg id="a" data-name="레이어 1" xmlns="http://www.w3.org/2000/svg" width="100" height="100" viewBox="0 0 100 100">
  <path d="M19.654,77.524c6.844-.761,28.542-4.622,31.796-10.559.051-2.556-1.321-5.041-2.509-7.305-1.424-2.522-3.163-4.922-5.14-6.995-1.457-1.505-4.089-3.93-6-3.611-.177.043-.185.084-.333.19-4.158,5.024-4.746,19.345-3.338,25.607.17.663.408,1.321.664,1.599.028.024.233.145.468.244,6.019,1.996,12.924,2.128,19.309,2.197,3.825-.182,7.8-.045,11.182-1.635,1.056-.824,1.486-2.197,1.84-3.719.572-2.664.414-5.716.048-8.567-.117-.642.329-1.259.977-1.34.56-.072,1.078.276,1.236.8.476,1.569.792,3.092.988,4.695.68,5.569-.04,11.656-6.633,12.968-6.319,1.538-12.505,1.54-18.881,1.261-4.116-.443-12.626-.43-14.933-4.538-3.542-6.719-.537-25.043,3.712-31.182,2.04-3.063,5.902-2.506,8.483-.689,5.369,3.786,9.144,9.296,11.67,15.27,1.116,2.771,1.674,6.118-.633,8.382-4.117,4.091-9.878,5.738-15.158,7.533-5.954,1.849-11.952,3.272-18.126,4.346-3.357.484-4.082-4.486-.692-4.952h0Z" stroke-width="0"/>
  <path d="M15.201,17.808c1.419.476,2.683,1.137,3.642,1.429.524.143.83.122,1.579.02,2.296-.385,4.361-1.265,6.679-2.125,1.224-.388,2.512-1.053,4.168-.944,1.789.1,3.144,2.015,2.61,3.794-.103.45-.286.817-.418,1.209-2.315,6.066-3.857,12.668-5.311,19.191-2.697,12.954-5.158,26.478-5.649,39.618.017,1.407-1.138,2.563-2.548,2.532-1.375-.026-2.47-1.159-2.452-2.532.093-7.072.973-13.805,1.99-20.573,2.2-13.554,4.719-27.022,9.256-40.042,0,0,.224-.622.224-.622.015-.044.005-.024-.01.036-.285,1.088.78,2.373,1.779,2.429-3.253.957-9.002,3.721-13.319,2.162-2.186-.822-3.899-2.679-3.785-5.097.044-.432.43-.746.862-.702.069-.004.62.187.704.216h0Z" stroke-width="0"/>
</svg>