<?xml version="1.0" encoding="UTF-8"?>
<svg id="a" data-name="레이어 1" xmlns="http://www.w3.org/2000/svg" width="100" height="100" viewBox="0 0 100 100">
  <path d="M17.5,80c.282-9.845,2.987-20.94,11.802-26.791,12.697-8.634,33.455-5.744,40.322,8.983,3.885,8.526,1.721,17.889-8.694,19.304-7.161.915-15.865-1.258-20.773-6.783-.793-.992.649-2.243,1.518-1.325,3.011,3.04,7.84,4.382,12.059,4.814,4.093.346,8.439-.352,11.424-3.252,2.3-2.693,1.565-7.493-.013-10.648-3.679-7.71-12.853-11.49-21.135-10.944-8.812.247-16.694,5.125-19.672,13.597-1.481,4.077-2.005,8.581-1.838,13.07.013,3.43-5.037,3.427-5.001-.024h0Z" stroke-width="0"/>
  <path d="M63.882,47.294c.332-.051.856.068.904.105,1.184.463,2.082,1.281,3.026,2.053,1.311,1.238,4.356,3.423,2.2,5.341-.942.779-2.403.506-3.004-.557-.765-1.28-1.984-2.739-3.136-3.785,0,0-.167-.143-.167-.143-.042-.034.015.001.037-.003-.069-.029.317.098.52.024-1.998.216-2.371-2.753-.379-3.035h0Z" stroke-width="0"/>
  <path d="M69.887,46.016c.332-.052.856.068.904.105,1.184.463,2.082,1.281,3.026,2.052,1.311,1.238,4.356,3.423,2.2,5.342-.942.779-2.403.506-3.004-.557-.765-1.28-1.984-2.739-3.136-3.785,0,0-.167-.143-.167-.143-.042-.034.015.001.037-.003-.069-.029.317.098.52.024-1.998.216-2.371-2.753-.379-3.035h0Z" stroke-width="0"/>
  <path d="M30.811,14.105c5.461,2.188,3.757,8.665,2.174,12.863-1.925,6.64-3.627,13.481-5.103,20.235-2.256,10.816-4.631,21.792-5.382,32.798-.035,1.41-1.237,2.525-2.649,2.437-1.305-.077-2.317-1.153-2.351-2.437-.07-2.995.141-5.896.432-8.763.875-8.494,2.596-17.001,4.608-25.275,1.765-6.935,3.572-13.884,6.377-20.5,1.329-3.109,4.363-7.144,1.072-9.939-.762-.56-.043-1.803.822-1.418h0Z" stroke-width="0"/>
  <path d="M16.69,38.653c13.476-5.365,26.933-14.446,42.161-13.205,5.057.656,11.076,1.605,13.964,6.564,1.135,2.047,1.429,4.319,1.431,6.509-.007,1.099-.116,2.452-.846,3.812-1.921,3.602-6.179,3.751-9.594,3.348-5.568-.184-9.341-4.092-10.888-9.144-.341-.939,1.027-1.543,1.495-.67,1.514,2.878,3.758,5.665,7.078,5.993,2.74.454,7.485-1.008,7.312-1.863.468-2.076.18-5.419-1.637-6.764-2.219-1.719-5.983-2.387-8.875-2.826-6.83-1.021-13.575,1.032-19.89,3.765-6.529,2.799-13.027,6.074-19.628,9.167-3.134,1.378-5.243-3.252-2.083-4.687h0Z" stroke-width="0"/>
  <path d="M55.464,19.227c-2.959,5.02-4.004,11.331-5.209,17.045-.527,2.502-4.215,1.876-3.882-.664.755-4.762,1.667-9.504,3.182-14.125.846-1.961,2.03-7.256,5.3-5.487,1.095.693,1.373,2.186.609,3.231h0Z" stroke-width="0"/>
</svg>