<?xml version="1.0" encoding="UTF-8"?>
<svg id="a" data-name="레이어 1" xmlns="http://www.w3.org/2000/svg" width="1280" height="1280" viewBox="0 0 1280 1280">
  <path d="m1208.506,797.669c-68.95,249.204-297.363,432.155-568.506,432.155-232.294,0-433.222-134.276-529.388-329.457,407.893-107.599,672.364-134.991,1097.893-102.698Z" fill="#0f9351"/>
  <path d="m952.653,139.775c-74.347,202.406-296.79,575.447-883.809,648.021-12.183-47.233-18.668-96.752-18.668-147.796,0-325.752,264.072-589.824,589.824-589.824,114.846,0,222.011,32.821,312.654,89.599Z" fill="#348cce"/>
  <path d="m1229.824,640c0,30.875-2.369,61.199-6.953,90.795-119.97-22.549-345.135-51.653-590.152-16.053-20.708-39.212,287.595-243.2,404.035-511.189,118.61,107.892,193.071,263.474,193.071,436.446Z" fill="#ef9d33"/>
  <circle cx="419.789" cy="467.175" r="112.951"/>
  <polyline points="780.438 718.54 862.725 561.562 925.065 703.658 1013.293 557.467 1084.2 712.232 1169.113 568.847 1208.506 730.795" fill="#fff"/>
  <path d="m1055.89,153.542c-27.064-23.171-56.086-44.114-86.785-62.535C872.939,33.22,760.345,0,640,0,286.539,0,0,286.54,0,640c0,52.803,6.391,104.104,18.457,153.19,10.284,41.897,24.707,82.188,42.812,120.392,102.557,216.605,323.148,366.418,578.731,366.418,297.574,0,547.727-203.097,619.385-478.238,5.195-19.946,9.451-40.268,12.711-60.929,5.206-32.845,7.903-66.522,7.903-100.833,0-194.689-86.938-369.08-224.11-486.458ZM50.176,640c0-325.752,264.072-589.824,589.824-589.824,114.846,0,222.011,32.821,312.654,89.599-74.347,202.406-296.79,575.447-883.809,648.021-12.183-47.233-18.668-96.752-18.668-147.796Zm589.824,589.824c-232.294,0-433.222-134.276-529.388-329.457,407.893-107.599,672.364-134.991,1097.893-102.698-68.95,249.204-297.363,432.155-568.506,432.155Zm582.87-499.029c-119.97-22.549-345.135-51.653-590.152-16.053-20.708-39.212,287.595-243.2,404.035-511.189,118.61,107.892,193.071,263.474,193.071,436.446,0,30.875-2.369,61.199-6.953,90.795Z"/>
</svg>