<?xml version="1.0" encoding="UTF-8"?>
<svg id="a" data-name="레이어 1" xmlns="http://www.w3.org/2000/svg" width="1280" height="1280" viewBox="0 0 1280 1280">
  <rect x="0" width="1280" height="1280"/>
  <g>
    <g>
      <path d="m1010.507,637.544c-44.936,162.411-193.797,281.644-370.507,281.644-151.391,0-282.339-87.51-345.013-214.714,265.832-70.124,438.194-87.977,715.52-66.93Z" fill="#0f9351"/>
      <path d="m843.763,208.781c-48.453,131.912-193.424,375.031-575.997,422.329-7.94-30.783-12.166-63.055-12.166-96.322,0-212.299,172.101-384.4,384.4-384.4,74.847,0,144.689,21.39,203.763,58.394Z" fill="#348cce"/>
      <path d="m1024.4,534.788c0,20.122-1.544,39.884-4.532,59.173-78.187-14.696-224.932-33.664-384.614-10.462-13.496-25.555,187.431-158.498,263.318-333.152,77.3,70.315,125.828,171.712,125.828,284.441Z" fill="#ef9d33"/>
      <circle cx="496.484" cy="422.154" r="73.612"/>
      <polyline points="731.527 585.974 785.155 483.669 825.783 576.275 883.283 481 929.494 581.863 984.834 488.416 1010.507 593.961" fill="#fff"/>
      <path d="m911.044,217.753c-17.638-15.101-36.552-28.75-56.56-40.756-62.673-37.661-136.053-59.311-214.485-59.311-230.357,0-417.101,186.744-417.101,417.101,0,34.413,4.165,67.847,12.029,99.837,6.702,27.305,16.102,53.564,27.902,78.462,66.838,141.166,210.603,238.802,377.171,238.802,193.935,0,356.965-132.362,403.666-311.678,3.386-12.999,6.16-26.243,8.284-39.709,3.393-21.406,5.151-43.354,5.151-65.715,0-126.883-56.659-240.537-146.057-317.035ZM255.6,534.788c0-212.299,172.101-384.4,384.4-384.4,74.847,0,144.689,21.39,203.763,58.394-48.453,131.912-193.424,375.031-575.997,422.329-7.94-30.783-12.166-63.055-12.166-96.322Zm384.4,384.4c-151.391,0-282.339-87.51-345.013-214.714,265.832-70.124,438.194-87.977,715.52-66.93-44.936,162.411-193.797,281.644-370.507,281.644Zm379.869-325.227c-78.187-14.696-224.932-33.664-384.614-10.462-13.496-25.555,187.431-158.498,263.318-333.152,77.3,70.315,125.828,171.712,125.828,284.441,0,20.122-1.544,39.884-4.532,59.173Z"/>
    </g>
    <g>
      <g>
        <path d="m379.167,1087.429h-38.991v20.64h44.437v14.431h-60.828v-80.27h58.868v14.213h-42.477v17.045h38.991v13.941Z" fill="#348cce"/>
        <path d="m446.511,1116.509c-5.99,5.482-13.651,8.223-22.981,8.223-11.545,0-20.621-3.703-27.229-11.109-6.607-7.441-9.911-17.644-9.911-30.604,0-14.014,3.758-24.813,11.272-32.401,6.535-6.607,14.849-9.912,24.941-9.912,13.506,0,23.38,4.431,29.625,13.288,3.448,4.975,5.3,9.966,5.555,14.976h-16.772c-1.09-3.848-2.487-6.753-4.193-8.713-3.05-3.485-7.569-5.229-13.56-5.229-6.1,0-10.91,2.46-14.432,7.379-3.521,4.92-5.282,11.882-5.282,20.885s1.86,15.747,5.582,20.23c3.721,4.484,8.449,6.726,14.186,6.726,5.882,0,10.365-1.924,13.451-5.772,1.706-2.069,3.122-5.173,4.248-9.312h16.609c-1.453,8.75-5.156,15.866-11.109,21.348Z" fill="#348cce"/>
        <path d="m498.116,1124.731c-11.473,0-20.24-3.122-26.303-9.366-8.133-7.66-12.198-18.696-12.198-33.11,0-14.703,4.065-25.739,12.198-33.109,6.062-6.244,14.83-9.367,26.303-9.367s20.239,3.123,26.303,9.367c8.096,7.37,12.145,18.406,12.145,33.109,0,14.414-4.049,25.45-12.145,33.11-6.063,6.244-14.831,9.366-26.303,9.366Zm15.848-21.564c3.884-4.901,5.826-11.872,5.826-20.912s-1.951-15.964-5.854-20.884c-3.903-4.919-9.176-7.379-15.82-7.379s-11.944,2.45-15.901,7.352-5.936,11.872-5.936,20.911,1.979,16.011,5.936,20.912,9.258,7.352,15.901,7.352,11.927-2.45,15.848-7.352Z" fill="#348cce"/>
        <path d="m540.079,1084.053h31.258v14.703h-31.258v-14.703Z" fill="#348cce"/>
      </g>
      <g>
        <path d="m610.352,1122.499h-36.377v-80.27h38.991c9.838.146,16.809,2.995,20.911,8.55,2.469,3.413,3.703,7.497,3.703,12.253,0,4.9-1.234,8.841-3.703,11.817-1.38,1.67-3.412,3.194-6.099,4.574,4.102,1.488,7.196,3.849,9.285,7.079,2.087,3.231,3.131,7.152,3.131,11.763,0,4.757-1.198,9.022-3.594,12.798-1.525,2.505-3.432,4.61-5.719,6.316-2.578,1.961-5.618,3.304-9.121,4.03-3.504.727-7.307,1.089-11.409,1.089Zm7.951-50.646c2.178-1.307,3.268-3.648,3.268-7.024,0-3.739-1.453-6.208-4.356-7.406-2.506-.835-5.7-1.253-9.585-1.253h-17.644v17.699h19.713c3.521,0,6.39-.672,8.604-2.016Zm-8.332,15.303h-19.985v21.401h19.713c3.521,0,6.263-.471,8.224-1.415,3.557-1.743,5.336-5.083,5.336-10.021,0-4.175-1.725-7.043-5.173-8.604-1.925-.871-4.629-1.324-8.114-1.361Z" fill="#0f9351"/>
        <path d="m695.993,1105.073c-.399,3.521-2.232,7.098-5.5,10.728-5.083,5.772-12.198,8.659-21.347,8.659-7.552,0-14.214-2.433-19.986-7.298-5.772-4.864-8.658-12.778-8.658-23.743,0-10.273,2.604-18.152,7.814-23.635,5.209-5.481,11.972-8.223,20.285-8.223,4.937,0,9.385.926,13.342,2.777s7.225,4.774,9.803,8.768c2.323,3.521,3.83,7.606,4.52,12.253.399,2.723.562,6.644.49,11.763h-40.625c.218,5.954,2.088,10.129,5.609,12.525,2.142,1.488,4.719,2.232,7.732,2.232,3.194,0,5.791-.907,7.788-2.723,1.089-.98,2.05-2.342,2.886-4.084h15.847Zm-15.356-18.189c-.255-4.102-1.498-7.215-3.73-9.339s-5.001-3.186-8.305-3.186c-3.594,0-6.381,1.125-8.359,3.376s-3.222,5.301-3.729,9.148h24.124Z" fill="#0f9351"/>
        <path d="m727.341,1074.631c-5.265,0-8.877,2.233-10.837,6.698-1.018,2.36-1.525,5.374-1.525,9.04v32.13h-15.466v-59.249h14.976v8.658c1.996-3.05,3.885-5.245,5.664-6.589,3.194-2.396,7.242-3.595,12.144-3.595,6.135,0,11.154,1.606,15.058,4.819,3.902,3.214,5.854,8.542,5.854,15.983v39.972h-15.901v-36.105c0-3.121-.417-5.518-1.252-7.188-1.525-3.05-4.43-4.575-8.713-4.575Z" fill="#0f9351"/>
        <path d="m761.956,1069.566c4.103-5.228,11.145-7.842,21.129-7.842,6.499,0,12.271,1.289,17.317,3.867s7.57,7.442,7.57,14.594v27.229c0,1.889.035,4.176.108,6.862.109,2.033.417,3.412.926,4.139.508.727,1.271,1.325,2.287,1.797v2.287h-16.882c-.472-1.198-.799-2.323-.979-3.376-.183-1.053-.327-2.251-.437-3.595-2.143,2.324-4.61,4.303-7.405,5.936-3.341,1.925-7.116,2.887-11.327,2.887-5.374,0-9.812-1.534-13.315-4.602-3.504-3.067-5.255-7.415-5.255-13.043,0-7.297,2.813-12.579,8.44-15.847,3.086-1.778,7.624-3.05,13.614-3.812l5.283-.654c2.867-.362,4.919-.816,6.153-1.361,2.214-.943,3.322-2.414,3.322-4.411,0-2.432-.845-4.111-2.532-5.037-1.688-.926-4.166-1.389-7.434-1.389-3.668,0-6.263.908-7.788,2.724-1.089,1.343-1.815,3.158-2.178,5.445h-14.976c.326-5.191,1.778-9.457,4.356-12.798Zm11.545,41.715c1.451,1.197,3.23,1.797,5.337,1.797,3.34,0,6.416-.98,9.23-2.94,2.812-1.961,4.274-5.536,4.384-10.729v-5.772c-.98.618-1.97,1.116-2.968,1.498-.999.381-2.369.734-4.112,1.062l-3.484.653c-3.268.581-5.609,1.289-7.025,2.124-2.396,1.416-3.594,3.613-3.594,6.589,0,2.651.743,4.557,2.232,5.719Zm1.144-56.146l10.456-16.282h17.317l-16.556,16.282h-11.218Z" fill="#0f9351"/>
        <path d="m841.117,1111.444v11.6l-7.352.271c-7.334.254-12.344-1.016-15.03-3.812-1.743-1.778-2.614-4.52-2.614-8.223v-36.541h-8.277v-11.055h8.277v-16.555h15.357v16.555h9.639v11.055h-9.639v31.367c0,2.433.308,3.948.926,4.547.616.6,2.505.898,5.663.898.472,0,.971-.008,1.498-.026.525-.019,1.043-.046,1.552-.082Z" fill="#0f9351"/>
        <path d="m838.973,1037.002h12.635l7.134,9.203,7.079-9.203h12.634l-12.743,16.282h-13.94l-12.798-16.282Zm34.145,40.461c-6.244,0-10.438,2.034-12.579,6.1-1.198,2.287-1.797,5.809-1.797,10.564v28.372h-15.63v-59.358h14.812v10.347c2.396-3.956,4.483-6.661,6.263-8.113,2.904-2.433,6.68-3.649,11.327-3.649.29,0,.535.01.735.027.199.019.644.046,1.334.082v15.901c-.98-.109-1.852-.182-2.614-.218-.762-.036-1.38-.055-1.852-.055Z" fill="#0f9351"/>
        <path d="m906.045,1111.444v11.6l-7.352.271c-7.334.254-12.344-1.016-15.03-3.812-1.743-1.778-2.614-4.52-2.614-8.223v-36.541h-8.277v-11.055h8.277v-16.555h15.357v16.555h9.639v11.055h-9.639v31.367c0,2.433.308,3.948.926,4.547.616.6,2.505.898,5.663.898.472,0,.971-.008,1.498-.026.525-.019,1.043-.046,1.552-.082Z" fill="#0f9351"/>
        <path d="m957.705,1070.656c5.01,6.281,7.516,13.705,7.516,22.272,0,8.713-2.506,16.165-7.516,22.354-5.01,6.19-12.616,9.285-22.817,9.285s-17.808-3.095-22.817-9.285c-5.01-6.189-7.516-13.642-7.516-22.354,0-8.567,2.506-15.991,7.516-22.272,5.01-6.28,12.615-9.421,22.817-9.421s17.808,3.141,22.817,9.421Zm-22.872,3.703c-4.538,0-8.032,1.606-10.482,4.819-2.451,3.213-3.676,7.797-3.676,13.75s1.225,10.547,3.676,13.777c2.45,3.232,5.944,4.847,10.482,4.847s8.023-1.614,10.456-4.847c2.432-3.23,3.648-7.822,3.648-13.777s-1.217-10.537-3.648-13.75c-2.433-3.213-5.918-4.819-10.456-4.819Z" fill="#0f9351"/>
      </g>
    </g>
  </g>
</svg>