<?xml version="1.0" encoding="UTF-8"?>
<svg id="a" data-name="레이어 1" xmlns="http://www.w3.org/2000/svg" width="1280" height="1280" viewBox="0 0 1280 1280">
  <rect x="0" width="1280" height="1280"/>
  <g>
    <g>
      <path d="m1010.507,637.544c-44.936,162.411-193.797,281.644-370.507,281.644-151.391,0-282.339-87.51-345.013-214.714,265.832-70.124,438.194-87.977,715.52-66.93Z" fill="#0f9351"/>
      <path d="m843.763,208.781c-48.453,131.912-193.424,375.031-575.997,422.329-7.94-30.783-12.166-63.055-12.166-96.322,0-212.299,172.101-384.4,384.4-384.4,74.847,0,144.689,21.39,203.763,58.394Z" fill="#348cce"/>
      <path d="m1024.4,534.788c0,20.122-1.544,39.884-4.532,59.173-78.187-14.696-224.932-33.664-384.614-10.462-13.496-25.555,187.431-158.498,263.318-333.152,77.3,70.315,125.828,171.712,125.828,284.441Z" fill="#ef9d33"/>
      <circle cx="496.484" cy="422.154" r="73.612"/>
      <polyline points="731.527 585.974 785.155 483.669 825.783 576.275 883.283 481 929.494 581.863 984.834 488.416 1010.507 593.961" fill="#fff"/>
      <path d="m911.044,217.753c-17.638-15.101-36.552-28.75-56.56-40.756-62.673-37.661-136.053-59.311-214.485-59.311-230.357,0-417.101,186.744-417.101,417.101,0,34.413,4.165,67.847,12.029,99.837,6.702,27.305,16.102,53.564,27.902,78.462,66.838,141.166,210.603,238.802,377.171,238.802,193.935,0,356.965-132.362,403.666-311.678,3.386-12.999,6.16-26.243,8.284-39.709,3.393-21.406,5.151-43.354,5.151-65.715,0-126.883-56.659-240.537-146.057-317.035ZM255.6,534.788c0-212.299,172.101-384.4,384.4-384.4,74.847,0,144.689,21.39,203.763,58.394-48.453,131.912-193.424,375.031-575.997,422.329-7.94-30.783-12.166-63.055-12.166-96.322Zm384.4,384.4c-151.391,0-282.339-87.51-345.013-214.714,265.832-70.124,438.194-87.977,715.52-66.93-44.936,162.411-193.797,281.644-370.507,281.644Zm379.869-325.227c-78.187-14.696-224.932-33.664-384.614-10.462-13.496-25.555,187.431-158.498,263.318-333.152,77.3,70.315,125.828,171.712,125.828,284.441,0,20.122-1.544,39.884-4.532,59.173Z"/>
    </g>
    <g>
      <g>
        <path d="m239.213,1042.229h17.916l17.427,60.938,17.59-60.938h17.426l-27.392,80.27h-15.848l-27.119-80.27Z" fill="#348cce"/>
        <path d="m355.187,1105.073c-.399,3.521-2.232,7.098-5.5,10.728-5.083,5.772-12.198,8.659-21.347,8.659-7.552,0-14.214-2.433-19.986-7.298-5.772-4.864-8.658-12.778-8.658-23.743,0-10.273,2.604-18.152,7.814-23.635,5.209-5.481,11.972-8.223,20.285-8.223,4.937,0,9.385.926,13.342,2.777s7.225,4.774,9.803,8.768c2.323,3.521,3.83,7.606,4.52,12.253.399,2.723.562,6.644.49,11.763h-40.625c.218,5.954,2.088,10.129,5.609,12.525,2.142,1.488,4.719,2.232,7.732,2.232,3.194,0,5.791-.907,7.788-2.723,1.089-.98,2.05-2.342,2.886-4.084h15.847Zm-15.356-18.189c-.255-4.102-1.498-7.215-3.73-9.339s-5.001-3.186-8.305-3.186c-3.594,0-6.381,1.125-8.359,3.376s-3.222,5.301-3.729,9.148h24.124Z" fill="#348cce"/>
        <path d="m411.476,1122.499h-19.332l-10.237-17.808-10.293,17.808h-18.842l20.258-30.061-19.387-29.188h19.006l9.911,17.208,9.693-17.208h18.461l-19.496,28.916,20.258,30.333Z" fill="#348cce"/>
        <path d="m428.772,1041.739v14.322h-15.737v-14.322h15.737Zm0,21.401v59.358h-15.737v-59.358h15.737Z" fill="#348cce"/>
        <path d="m487.35,1084.434h-15.901c-.291-2.214-1.035-4.211-2.232-5.99-1.743-2.396-4.448-3.594-8.114-3.594-5.229,0-8.805,2.596-10.729,7.787-1.017,2.759-1.524,6.426-1.524,11,0,4.356.508,7.86,1.524,10.511,1.852,4.938,5.337,7.405,10.456,7.405,3.63,0,6.208-.979,7.732-2.94,1.525-1.96,2.451-4.501,2.777-7.624h15.848c-.363,4.72-2.069,9.186-5.119,13.396-4.865,6.789-12.071,10.184-21.619,10.184s-16.574-2.832-21.075-8.495c-4.502-5.664-6.753-13.016-6.753-22.056,0-10.201,2.486-18.134,7.461-23.797,4.974-5.664,11.835-8.496,20.585-8.496,7.441,0,13.532,1.671,18.271,5.011,4.737,3.34,7.542,9.239,8.413,17.698Z" fill="#348cce"/>
        <path d="m544.674,1122.499h-18.733l-14.214-25.377-6.426,6.698v18.679h-15.248v-79.997h15.248v43.238l19.332-22.327h19.224l-20.748,22.709,21.565,36.377Z" fill="#348cce"/>
        <path d="m593.938,1070.656c5.01,6.281,7.516,13.705,7.516,22.272,0,8.713-2.506,16.165-7.516,22.354-5.01,6.19-12.616,9.285-22.817,9.285s-17.808-3.095-22.817-9.285c-5.01-6.189-7.516-13.642-7.516-22.354,0-8.567,2.506-15.991,7.516-22.272,5.01-6.28,12.615-9.421,22.817-9.421s17.808,3.141,22.817,9.421Zm-22.872,3.703c-4.538,0-8.032,1.606-10.482,4.819-2.451,3.213-3.676,7.797-3.676,13.75s1.225,10.547,3.676,13.777c2.45,3.232,5.944,4.847,10.482,4.847s8.023-1.614,10.456-4.847c2.432-3.23,3.648-7.822,3.648-13.777s-1.217-10.537-3.648-13.75c-2.433-3.213-5.918-4.819-10.456-4.819Z" fill="#348cce"/>
      </g>
      <g>
        <path d="m659.998,1122.499h-18.733l-14.214-25.377-6.426,6.698v18.679h-15.248v-79.997h15.248v43.238l19.332-22.327h19.224l-20.748,22.709,21.565,36.377Z" fill="#0f9351"/>
        <path d="m661.993,1069.566c4.103-5.228,11.145-7.842,21.129-7.842,6.499,0,12.271,1.289,17.317,3.867s7.57,7.442,7.57,14.594v27.229c0,1.889.035,4.176.108,6.862.109,2.033.417,3.412.926,4.139.508.727,1.271,1.325,2.287,1.797v2.287h-16.882c-.472-1.198-.799-2.323-.979-3.376-.183-1.053-.327-2.251-.437-3.595-2.143,2.324-4.61,4.303-7.405,5.936-3.341,1.925-7.116,2.887-11.327,2.887-5.374,0-9.812-1.534-13.315-4.602-3.504-3.067-5.255-7.415-5.255-13.043,0-7.297,2.813-12.579,8.44-15.847,3.086-1.778,7.624-3.05,13.614-3.812l5.283-.654c2.867-.362,4.919-.816,6.153-1.361,2.214-.943,3.322-2.414,3.322-4.411,0-2.432-.845-4.111-2.532-5.037-1.688-.926-4.166-1.389-7.434-1.389-3.668,0-6.263.908-7.788,2.724-1.089,1.343-1.815,3.158-2.178,5.445h-14.976c.326-5.191,1.778-9.457,4.356-12.798Zm11.545,41.715c1.451,1.197,3.23,1.797,5.337,1.797,3.34,0,6.416-.98,9.23-2.94,2.812-1.961,4.274-5.536,4.384-10.729v-5.772c-.98.618-1.97,1.116-2.968,1.498-.999.381-2.369.734-4.112,1.062l-3.484.653c-3.268.581-5.609,1.289-7.025,2.124-2.396,1.416-3.594,3.613-3.594,6.589,0,2.651.743,4.557,2.232,5.719Z" fill="#0f9351"/>
        <path d="m743.822,1077.463c-6.244,0-10.438,2.034-12.579,6.1-1.198,2.287-1.797,5.809-1.797,10.564v28.372h-15.63v-59.358h14.812v10.347c2.396-3.956,4.483-6.661,6.263-8.113,2.904-2.433,6.68-3.649,11.327-3.649.29,0,.535.01.735.027.199.019.644.046,1.334.082v15.901c-.98-.109-1.852-.182-2.614-.218-.762-.036-1.38-.055-1.852-.055Z" fill="#0f9351"/>
        <path d="m799.076,1070.656c5.01,6.281,7.516,13.705,7.516,22.272,0,8.713-2.506,16.165-7.516,22.354-5.01,6.19-12.616,9.285-22.817,9.285s-17.808-3.095-22.817-9.285c-5.01-6.189-7.516-13.642-7.516-22.354,0-8.567,2.506-15.991,7.516-22.272,5.01-6.28,12.615-9.421,22.817-9.421s17.808,3.141,22.817,9.421Zm-22.872,3.703c-4.538,0-8.032,1.606-10.482,4.819-2.451,3.213-3.676,7.797-3.676,13.75s1.225,10.547,3.676,13.777c2.45,3.232,5.944,4.847,10.482,4.847s8.023-1.614,10.456-4.847c2.432-3.23,3.648-7.822,3.648-13.777s-1.217-10.537-3.648-13.75c-2.433-3.213-5.918-4.819-10.456-4.819Z" fill="#0f9351"/>
        <path d="m837.068,1111.444v11.6l-7.352.271c-7.334.254-12.344-1.016-15.03-3.812-1.743-1.778-2.614-4.52-2.614-8.223v-36.541h-8.277v-11.055h8.277v-16.555h15.357v16.555h9.639v11.055h-9.639v31.367c0,2.433.308,3.948.926,4.547.616.6,2.505.898,5.663.898.472,0,.971-.008,1.498-.026.525-.019,1.043-.046,1.552-.082Z" fill="#0f9351"/>
        <path d="m869.068,1077.463c-6.244,0-10.438,2.034-12.579,6.1-1.198,2.287-1.797,5.809-1.797,10.564v28.372h-15.63v-59.358h14.812v10.347c2.396-3.956,4.483-6.661,6.263-8.113,2.904-2.433,6.68-3.649,11.327-3.649.29,0,.535.01.735.027.199.019.644.046,1.334.082v15.901c-.98-.109-1.852-.182-2.614-.218-.762-.036-1.38-.055-1.852-.055Z" fill="#0f9351"/>
        <path d="m925.63,1105.073c-.399,3.521-2.232,7.098-5.5,10.728-5.083,5.772-12.198,8.659-21.347,8.659-7.552,0-14.214-2.433-19.986-7.298-5.772-4.864-8.658-12.778-8.658-23.743,0-10.273,2.604-18.152,7.814-23.635,5.209-5.481,11.972-8.223,20.285-8.223,4.937,0,9.385.926,13.342,2.777s7.225,4.774,9.803,8.768c2.323,3.521,3.83,7.606,4.52,12.253.399,2.723.562,6.644.49,11.763h-40.625c.218,5.954,2.088,10.129,5.609,12.525,2.142,1.488,4.719,2.232,7.732,2.232,3.194,0,5.791-.907,7.788-2.723,1.089-.98,2.05-2.342,2.886-4.084h15.847Zm-15.356-18.189c-.255-4.102-1.498-7.215-3.73-9.339s-5.001-3.186-8.305-3.186c-3.594,0-6.381,1.125-8.359,3.376s-3.222,5.301-3.729,9.148h24.124Z" fill="#0f9351"/>
        <path d="m956.979,1074.631c-5.265,0-8.877,2.233-10.837,6.698-1.018,2.36-1.525,5.374-1.525,9.04v32.13h-15.466v-59.249h14.976v8.658c1.996-3.05,3.885-5.245,5.664-6.589,3.194-2.396,7.242-3.595,12.144-3.595,6.135,0,11.154,1.606,15.058,4.819,3.902,3.214,5.854,8.542,5.854,15.983v39.972h-15.901v-36.105c0-3.121-.417-5.518-1.252-7.188-1.525-3.05-4.43-4.575-8.713-4.575Z" fill="#0f9351"/>
        <path d="m1043.381,1042.338v80.161h-15.084v-8.223c-2.215,3.521-4.738,6.081-7.569,7.678-2.832,1.598-6.354,2.396-10.565,2.396-6.935,0-12.77-2.805-17.508-8.414-4.737-5.608-7.106-12.806-7.106-21.592,0-10.129,2.332-18.098,6.998-23.906,4.664-5.809,10.899-8.714,18.706-8.714,3.594,0,6.788.79,9.584,2.369,2.795,1.579,5.064,3.767,6.808,6.562v-28.318h15.737Zm-41.822,50.863c0,5.482,1.089,9.856,3.268,13.124,2.142,3.304,5.409,4.956,9.802,4.956s7.733-1.634,10.021-4.901,3.431-7.496,3.431-12.688c0-7.261-1.834-12.452-5.5-15.575-2.252-1.887-4.866-2.831-7.842-2.831-4.539,0-7.869,1.715-9.993,5.146s-3.186,7.688-3.186,12.771Z" fill="#0f9351"/>
      </g>
    </g>
  </g>
</svg>