<?xml version="1.0" encoding="utf-8"?>
<!-- Generator: Adobe Illustrator 26.5.0, SVG Export Plug-In . SVG Version: 6.00 Build 0)  -->
<svg version="1.1" id="레이어_1" xmlns="http://www.w3.org/2000/svg" xmlns:xlink="http://www.w3.org/1999/xlink" x="0px"
	 y="0px" viewBox="0 0 36 36" style="enable-background:new 0 0 36 36;" xml:space="preserve">
<style type="text/css">
	.st0{fill:#3B74FE;}
	.st1{fill:#FEFEFE;}
	.st2{fill:#E0E5F2;}
	.st3{fill:#CCD4E3;}
	.st4{fill:#CED5E3;}
	.st5{fill:#C1CBE4;}
	.st6{fill:#5C87F2;}
</style>
<g>
	<path class="st0" d="M0,11.4v13.1h36V11.4H0z M22.8,18.3c0,0.5-0.1,1-0.3,1.5c-0.6,1.4-1.6,2.3-3,2.7c-0.4,0.1-0.7,0.2-1.1,0.2
		c0,0-0.1,0-0.2,0h-0.5c-0.4,0-0.7-0.1-1.1-0.2c-1-0.3-1.9-0.9-2.5-1.7c-0.5-0.7-0.9-1.5-1-2.3c0-0.1,0-0.2,0-0.3c0-0.2,0-0.4,0-0.5
		v-0.2c0.1-1.1,0.5-2,1.2-2.8c0.8-0.9,1.7-1.4,2.8-1.6c0.2,0,0.5-0.1,0.8-0.1c0,0,0,0,0.1,0c0.8,0,1.6,0.2,2.3,0.6
		c1.3,0.7,2.1,1.8,2.4,3.3c0,0.2,0.1,0.4,0.1,0.6C22.8,17.8,22.8,18.1,22.8,18.3z"/>
	<path class="st1" d="M36,9v2.4H0V9c0-2.2,1.8-4,4-4h28C34.2,5,36,6.8,36,9z"/>
	<path class="st1" d="M36,24.6V27c0,2.2-1.8,4-4,4H4c-2.2,0-4-1.8-4-4v-2.4H36z"/>
	<path class="st2" d="M13.1,17.6c0.1-1.1,0.5-2,1.2-2.8c0.8-0.9,1.7-1.4,2.8-1.6c0.2,0,0.5-0.1,0.8-0.1c0,0,0,0,0.1,0
		c0.8,0,1.6,0.2,2.3,0.6c1.3,0.7,2.1,1.8,2.4,3.3c0,0.2,0.1,0.4,0.1,0.6c0,0.2,0,0.5,0,0.7c0,0.5-0.1,1-0.4,1.5
		c-0.6,1.4-1.6,2.3-3,2.7c-0.3,0.1-0.7,0.2-1.1,0.2c-0.1,0-0.1,0-0.2,0c-0.2,0-0.3,0-0.5,0c-0.4,0-0.7-0.1-1.1-0.2
		c-1-0.3-1.9-0.9-2.5-1.7c-0.5-0.7-0.8-1.4-1-2.3c0-0.1,0-0.2,0-0.3C13.2,18.1,13.2,17.9,13.1,17.6z M17.4,18c0,0.2,0,0.5,0.1,0.7
		c0.1,0.7,0.3,1.3,0.7,1.8c0.4,0.6,0.9,1.2,1.6,1.6c0,0,0.1,0,0.1,0c0.1,0,0.3-0.1,0.4-0.2c0.6-0.4,1.1-0.8,1.5-1.4
		c0.3-0.5,0.5-1,0.7-1.5c0.1-0.3,0.1-0.5,0.1-0.8c0-0.2,0-0.4-0.1-0.7c0-0.1,0-0.1,0-0.1c-0.1-0.2-0.1-0.4-0.2-0.7
		c-0.1-0.2-0.1-0.5-0.3-0.7c-0.3-0.6-0.8-1.2-1.3-1.6c-0.2-0.2-0.5-0.3-0.8-0.5c-0.1-0.1-0.2-0.1-0.3,0c-0.5,0.4-1,0.8-1.3,1.3
		C17.7,16.1,17.4,17,17.4,18z"/>
	<path class="st3" d="M13.1,17.6c0,0.2,0,0.5,0,0.7c0-0.2,0-0.4,0-0.5C13.1,17.7,13.1,17.7,13.1,17.6z"/>
	<path class="st4" d="M22.8,18.3c0-0.2,0-0.5,0-0.7C22.9,17.9,22.9,18.1,22.8,18.3z"/>
	<path class="st5" d="M17.8,22.8c0.2,0,0.3,0,0.5,0C18.1,22.8,17.9,22.8,17.8,22.8z"/>
	<path class="st6" d="M18,13.1C18,13.1,18,13.1,18,13.1C18,13.1,18,13.1,18,13.1z"/>
	<path class="st0" d="M17.4,18c0-1,0.3-1.9,0.8-2.7c0.4-0.5,0.8-1,1.3-1.3c0.1-0.1,0.2-0.1,0.3,0c0.3,0.1,0.5,0.3,0.8,0.5
		c0.6,0.4,1,1,1.3,1.6c0.1,0.2,0.2,0.4,0.3,0.7c0.1,0.2,0.1,0.5,0.2,0.7c0,0,0,0.1,0,0.1c0,0.2,0.1,0.4,0.1,0.7
		c-0.1,0.3-0.1,0.5-0.1,0.8c-0.1,0.6-0.3,1-0.7,1.5c-0.4,0.6-0.9,1-1.5,1.4C20,22,19.9,22,19.8,22.1c-0.1,0-0.1,0-0.1,0
		c-0.6-0.4-1.2-0.9-1.6-1.6c-0.4-0.6-0.6-1.2-0.7-1.8C17.4,18.4,17.4,18.2,17.4,18z"/>
</g>
</svg>
