<?xml version="1.0" encoding="UTF-8"?>
<svg id="a" data-name="레이어 1" xmlns="http://www.w3.org/2000/svg" width="1920" height="1080" viewBox="0 0 1920 1080">
  <rect x=".286" y=".143" width="1920" height="1080" fill="#fff"/>
  <rect x=".571" y="267.286" width="1919.429" height="545.714" fill="#4f7eff"/>
  <path d="M1058.74,365.2c-29.09-16.41-62.67-25.77-98.45-25.77-110.86,0-200.72,89.86-200.72,200.71s89.86,200.72,200.72,200.72c35.78,0,69.36-9.36,98.45-25.77,61.04-34.42,102.26-99.87,102.26-174.95s-41.22-140.52-102.26-174.94Zm-20.18,341.82c-62.65-29.42-106.02-93.09-106.02-166.88s43.37-137.45,106.02-166.88c62.64,29.43,106.01,93.09,106.01,166.88s-43.37,137.45-106.01,166.88Z" fill="#e6e9f5"/>
</svg>