<?xml version="1.0" encoding="utf-8"?>
<!-- Generator: Adobe Illustrator 26.0.1, SVG Export Plug-In . SVG Version: 6.00 Build 0)  -->
<svg version="1.1" id="레이어_1" xmlns="http://www.w3.org/2000/svg" xmlns:xlink="http://www.w3.org/1999/xlink" x="0px"
	 y="0px" viewBox="0 0 36 36" style="enable-background:new 0 0 36 36;" xml:space="preserve">
<style type="text/css">
	.st0{fill:#FFD800;}
	.st1{fill:#FFFFFF;}
	.st2{fill:#FF5151;}
	.st3{fill:#3737DD;}
</style>
<g>
	<path class="st0" d="M36,9v18c0,2.2-1.8,4-4,4H4c-2.2,0-4-1.8-4-4V9c0-2.2,1.8-4,4-4h28C34.2,5,36,6.8,36,9z"/>
	<g>
		<rect x="15.4" y="5" class="st1" width="5.2" height="10.4"/>
		<rect x="15.4" y="20.6" class="st1" width="5.2" height="10.4"/>
		<rect y="15.4" class="st1" width="36" height="5.2"/>
	</g>
	<g>
		<rect x="16.7" y="5" class="st2" width="2.6" height="11.7"/>
		<rect x="16.7" y="19.3" class="st2" width="2.6" height="11.7"/>
		<rect y="16.7" class="st2" width="36" height="2.6"/>
	</g>
	<g>
		<path class="st3" d="M7.6,11.1c0,0.8-0.2,1.5-0.7,2.2h2.2c-0.4-0.6-0.7-1.4-0.7-2.2v-0.4H7.6V11.1z"/>
		<path class="st3" d="M8.5,9.3c0-0.8,0.2-1.5,0.7-2.2H6.9c0.4,0.6,0.7,1.4,0.7,2.2v0.4h0.9V9.3z"/>
		<path class="st3" d="M8.5,9.8H7.6H7.2C6.4,9.8,5.6,9.5,5,9.1v2.2c0.6-0.4,1.4-0.7,2.2-0.7h0.4h0.9h0.4c0.8,0,1.5,0.2,2.2,0.7V9.1
			c-0.6,0.4-1.4,0.7-2.2,0.7H8.5z"/>
		<path class="st3" d="M8.5,24.9c0-0.8,0.2-1.5,0.7-2.2H6.9c0.4,0.6,0.7,1.4,0.7,2.2v0.4h0.9V24.9z"/>
		<path class="st3" d="M7.6,26.7c0,0.8-0.2,1.5-0.7,2.2h2.2c-0.4-0.6-0.7-1.4-0.7-2.2v-0.4H7.6V26.7z"/>
		<path class="st3" d="M8.5,25.4H7.6H7.2c-0.8,0-1.5-0.2-2.2-0.7v2.2c0.6-0.4,1.4-0.7,2.2-0.7h0.4h0.9h0.4c0.8,0,1.5,0.2,2.2,0.7
			v-2.2c-0.6,0.4-1.4,0.7-2.2,0.7H8.5z"/>
		<path class="st3" d="M28.4,9.3c0-0.8,0.2-1.5,0.7-2.2h-2.2c0.4,0.6,0.7,1.4,0.7,2.2v0.4h0.9V9.3z"/>
		<path class="st3" d="M27.5,11.1c0,0.8-0.2,1.5-0.7,2.2h2.2c-0.4-0.6-0.7-1.4-0.7-2.2v-0.4h-0.9V11.1z"/>
		<path class="st3" d="M28.8,9.8h-0.4h-0.9h-0.4c-0.8,0-1.5-0.2-2.2-0.7v2.2c0.6-0.4,1.4-0.7,2.2-0.7h0.4h0.9h0.4
			c0.8,0,1.5,0.2,2.2,0.7V9.1C30.4,9.5,29.6,9.8,28.8,9.8z"/>
		<path class="st3" d="M27.5,26.7c0,0.8-0.2,1.5-0.7,2.2h2.2c-0.4-0.6-0.7-1.4-0.7-2.2v-0.4h-0.9V26.7z"/>
		<path class="st3" d="M28.4,24.9c0-0.8,0.2-1.5,0.7-2.2h-2.2c0.4,0.6,0.7,1.4,0.7,2.2v0.4h0.9V24.9z"/>
		<path class="st3" d="M28.4,25.4h-0.9h-0.4c-0.8,0-1.5-0.2-2.2-0.7v2.2c0.6-0.4,1.4-0.7,2.2-0.7h0.4h0.9h0.4c0.8,0,1.5,0.2,2.2,0.7
			v-2.2c-0.6,0.4-1.4,0.7-2.2,0.7H28.4z"/>
	</g>
</g>
</svg>
