<?xml version="1.0" encoding="utf-8"?>
<!-- Generator: Adobe Illustrator 26.2.1, SVG Export Plug-In . SVG Version: 6.00 Build 0)  -->
<svg version="1.1" id="레이어_1" xmlns="http://www.w3.org/2000/svg" xmlns:xlink="http://www.w3.org/1999/xlink" x="0px"
	 y="0px" viewBox="0 0 36 36" style="enable-background:new 0 0 36 36;" xml:space="preserve">
<style type="text/css">
	.st0{fill:#FFD800;}
	.st1{fill:#FFFFFF;}
	.st2{fill:#FF5151;}
	.st3{fill:#3737DD;}
</style>
<g>
	<path class="st0" d="M36,13v10c0,2.2-1.8,4-4,4H4c-2.2,0-4-1.8-4-4V13c0-2.2,1.8-4,4-4h28C34.2,9,36,10.8,36,13z"/>
	<g>
		<polygon class="st1" points="19.8,16.2 19.8,9 18.9,9 17.1,9 16.2,9 16.2,16.2 0,16.2 0,17.1 0,18.9 0,19.8 16.2,19.8 16.2,27 
			17.1,27 18.9,27 19.8,27 19.8,19.8 36,19.8 36,18.9 36,17.1 36,16.2 		"/>
		<g>
			<polygon class="st2" points="36,17.1 36,18.9 18.9,18.9 18.9,27 17.1,27 17.1,18.9 0,18.9 0,17.1 17.1,17.1 17.1,9 18.9,9 
				18.9,17.1 			"/>
		</g>
	</g>
	<g>
		<path class="st3" d="M8.4,12.9v0.3c0,0.6,0.2,1.1,0.5,1.5H7.3c0.3-0.4,0.5-0.9,0.5-1.5v-0.3H7.5c-0.6,0-1.1,0.2-1.5,0.5v-1.5
			c0.4,0.3,0.9,0.5,1.5,0.5h0.3V12c0-0.6-0.2-1.1-0.5-1.5h1.5c-0.3,0.4-0.5,0.9-0.5,1.5v0.3h0.3c0.6,0,1.1-0.2,1.5-0.5v1.5
			c-0.4-0.3-0.9-0.5-1.5-0.5L8.4,12.9L8.4,12.9z"/>
		<path class="st3" d="M8.4,23.7V24c0,0.6,0.2,1.1,0.5,1.5H7.3c0.3-0.4,0.5-0.9,0.5-1.5v-0.3H7.5c-0.6,0-1.1,0.2-1.5,0.5v-1.5
			c0.4,0.3,0.9,0.5,1.5,0.5h0.3v-0.3c0-0.6-0.2-1.1-0.5-1.5h1.5c-0.3,0.4-0.5,0.9-0.5,1.5v0.3h0.3c0.6,0,1.1-0.2,1.5-0.5v1.5
			c-0.4-0.3-0.9-0.5-1.5-0.5H8.4z"/>
		<path class="st3" d="M28.2,12.9v0.3c0,0.6,0.2,1.1,0.5,1.5h-1.5c0.3-0.4,0.5-0.9,0.5-1.5v-0.3h-0.3c-0.6,0-1.1,0.2-1.5,0.5v-1.5
			c0.4,0.3,0.9,0.5,1.5,0.5h0.3V12c0-0.6-0.2-1.1-0.5-1.5h1.5c-0.3,0.4-0.5,0.9-0.5,1.5v0.3h0.3c0.6,0,1.1-0.2,1.5-0.5v1.5
			c-0.4-0.3-0.9-0.5-1.5-0.5L28.2,12.9L28.2,12.9z"/>
		<path class="st3" d="M28.2,23.7V24c0,0.6,0.2,1.1,0.5,1.5h-1.5c0.3-0.4,0.5-0.9,0.5-1.5v-0.3h-0.3c-0.6,0-1.1,0.2-1.5,0.5v-1.5
			c0.4,0.3,0.9,0.5,1.5,0.5h0.3v-0.3c0-0.6-0.2-1.1-0.5-1.5h1.5c-0.3,0.4-0.5,0.9-0.5,1.5v0.3h0.3c0.6,0,1.1-0.2,1.5-0.5v1.5
			c-0.4-0.3-0.9-0.5-1.5-0.5H28.2z"/>
	</g>
</g>
</svg>
