<svg xmlns="http://www.w3.org/2000/svg" width="1440" height="720" viewBox="0 0 1440 720">
  <rect width="1440" height="720" fill="#ffd800"/>
  <g>
    <polygon points="792 288 792 0 756 0 684 0 648 0 648 288 0 288 0 324 0 396 0 432 648 432 648 720 684 720 756 720 792 720 792 432 1440 432 1440 396 1440 324 1440 288 792 288" fill="#fff"/>
    <polygon points="1440 324 1440 396 756 396 756 720 684 720 684 396 0 396 0 324 684 324 684 0 756 0 756 324 1440 324" fill="#ff5151"/>
  </g>
  <g>
    <path d="M335.99,155.8v12a107.369,107.369,0,0,0,18.21,60H293.8a107.432,107.432,0,0,0,18.19-60v-12H300A107.41,107.41,0,0,0,240,174V113.61a107.48,107.48,0,0,0,60,18.19h11.99v-12a107.5,107.5,0,0,0-18.19-60h60.4a107.442,107.442,0,0,0-18.21,60v12H348a107.48,107.48,0,0,0,60-18.19V174a107.41,107.41,0,0,0-60-18.2Z" fill="#3737dd"/>
    <path d="M335.99,588.19V600.2a107.418,107.418,0,0,0,18.21,60H293.8a107.48,107.48,0,0,0,18.19-60V588.19H300a107.41,107.41,0,0,0-60,18.2V546a107.48,107.48,0,0,0,60,18.19h11.99V552.2a107.456,107.456,0,0,0-18.19-60h60.4a107.393,107.393,0,0,0-18.21,60v11.99H348A107.48,107.48,0,0,0,408,546v60.39a107.41,107.41,0,0,0-60-18.2Z" fill="#3737dd"/>
    <path d="M1127.99,155.8v12a107.369,107.369,0,0,0,18.21,60h-60.4a107.432,107.432,0,0,0,18.19-60v-12H1092a107.41,107.41,0,0,0-60,18.2V113.61a107.48,107.48,0,0,0,60,18.19h11.99v-12a107.5,107.5,0,0,0-18.19-60h60.4a107.442,107.442,0,0,0-18.21,60v12H1140a107.48,107.48,0,0,0,60-18.19V174a107.41,107.41,0,0,0-60-18.2Z" fill="#3737dd"/>
    <path d="M1127.99,588.19V600.2a107.418,107.418,0,0,0,18.21,60h-60.4a107.48,107.48,0,0,0,18.19-60V588.19H1092a107.41,107.41,0,0,0-60,18.2V546a107.48,107.48,0,0,0,60,18.19h11.99V552.2a107.456,107.456,0,0,0-18.19-60h60.4a107.393,107.393,0,0,0-18.21,60v11.99H1140A107.48,107.48,0,0,0,1200,546v60.39a107.41,107.41,0,0,0-60-18.2Z" fill="#3737dd"/>
  </g>
</svg>
