<svg xmlns="http://www.w3.org/2000/svg" width="3840" height="2160" viewBox="0 0 3840 2160">
  <rect width="3840" height="2160" fill="#5e95b4"/>
  <g>
    <path d="M652.319,1947.626H575.344c-3.192,8.5-5.443,13.816-7.189,19.29-4.5,14.087-14.42,21.744-24.672,18.09-9.33-3.325-11.385-10.482-13.721-20.259-6.527-27.319,20.094-41.944,22.657-66.141,1.019-9.637,16.271-17.769,24.85-26.393L596.584,1890c6.894-5.919,13.306-11.428,20.012-17.187C627.1,1894.805,637.014,1915.57,652.319,1947.626Z" fill="#c1c0c0"/>
    <g>
      <path d="M3309.78,1126.2l-70.257,46.336-18.742-28.442v-52.081l1.036-28.441s4.239-36.636,6.311-39.461c2.166-2.825-26.842-50.574-26.842-50.574l-2.072-37.859L3164.086,907.9l-17.329-50.009c-13.656,7.441-28.347,13-42.944,17.424-8.478-7.818-15.258-14.127-22.416-20.72H2931.56c-27.312-33.057-63.476-12.9-93.237-19.024-20.06,20.154-37.389,38.33-55.942,55.188-3.578,3.3-12.431,3.2-17.7,1.319-4.708-1.7-10.077-7.534-11.207-12.431-4.992-21.1,5.744-38.708,14.879-55.284-22.507-27.028-46.24-50.478-84.383-47.842-15.257-19.683-43.981-18.647-59.239-39.649-10.923-15.068-26.181-26.935-38.33-39.178-14.032-38.049,16.763-82.689-21.284-115.463,22.226-14.033,19.4-35.976,17.8-57.449-6.592-6.686-12.809-13.844-20.06-19.871-11.961-10.172-18.46-12.149-31.55-1.6-10.266,8.38-19.118,15.161-32.679,12.618-13.657-2.542-24.3,2.073-32.117,13.374-4.426,6.4-8.852,5.65-14.691-4.9,3.013-12.243-5.839-27.877,4.333-41.439,22.131-14.5,50.478,7.629,69.6-12.526,5.274-15.634-6.4-32.962,7.629-45.393,20.342-18.083,16.575-37.389,4.52-59.8-11.772,0-24.016-.565-36.258.188-15.163.849-35.223-2.543-44.076,5.652-16.1,14.974-39.932,12.149-54.058,31.549-16.2,22.132-38.519,39.838-55.47,56.789-75.249-.47-75.249-.47-134.017-38.9-9.511,29.007-34.47,17.611-54.811,20.531-8.853,8.852-17.706,17.8-27.031,27.123,5.935,6.5,11.961,13.091,16.011,17.611-5.839,10.925-17.328,22.509-15.539,31.551,5.274,27.688-21.662,42.192-23.074,66.771-.565,9.512-17.8,9.984-31.267.848-5.085-3.484-9.135-8.382-13.279-12.243h-123c-28.065,25.522-51.8,45.866-73.741,68-5.18,5.181-4.051,16.482-5.934,25.146h-38.237c-20.247,10.643-27.4,35.976-51.138,38.708-19.966-6.687-35.034-21.1-58.767-20.059-59.239,2.73-118.76.94-172.158.94C1530,678.1,1517.472,669.627,1517,670.381c-16.575,21.472-37.2,17.234-59.71,10.452-15.821-27.028-48.878-32.114-71.293-51.892-18.648,5.275-25.9-13.561-39.461-18.459-18.081-6.592-24.769,16.576-39.177,17.895-18.365,1.79-34.565.753-50.575,16.2-13.372,12.9-27.4-3.109-37.671-14.787-16.387,30.42-15.633,32.02-52.551,49.633-19.212,9.135-39.462,14.974-52.174,34.657,0,11.772-5.275,29.384,1.034,35.788,14.6,14.88,15.447,30.891,18.93,49.443,5.086,27.783-25.05,41.627-20.624,67.9,1.224,7.534-3.015,18.27-8.382,24.2-12.714,13.938-14.221,25.993-.189,39.178,13.374,12.526,11.3,32.585,25.8,46.43,16.764,15.822,35.976,4.05,51.8,12.525,2.637,1.413,4.522,4.238,6.876,6.592v19.024q23.166,22.887,46.9,46.242c13-12.336,26.369-24.957,38.141-36.07h57.355c7.157,13.75,13.373,26.935,20.625,39.555,8.854,15.164,8.854,34.564,26.181,46.053,11.678,7.722,21.944,12.431,32.21,2.355,9.418-9.324,18.271-16.669,34.375-12.62,7.063,7.629,15.539,16.858,24.957,26.935,1.507,13.185,3.2,28.065,4.709,42.1,12.62,4.428,23.545,8.288,37.389,13.186-23.639,24.674-58.015-4.144-81.088,24.769,6.122,10.642,13,22.885,20.06,35.316-6.122,6.122-11.678,14.692-19.588,19.025-17.8,9.888-35.977,22.037-55.19,25.146-27.311,4.332-12.431-28.631-28.254-39.556-20.341-14.032-35.975-34.752-53.964-52.268-6.78-6.593-24.956.659-29.289,11.961-3.107,8-4.8,16.668-6.875,24.39h-59.52q-22.887-23.166-46.242-46.523c3.862-27.124-11.961-31.079-33.527-29.007-3.957.376-61.216-29.006-60.934-30.515,3.3-23.261-17.988-30.513-28.629-44.734H982.163c-31.174-14.879-54.247-27.594-78.546-37.2-27.028-10.736-40.308,25.052-65.924,22.038-9.135,19.212-31.832,13.467-46.241,25.805-22.227,19.024-45.489,11.961-63.665-10.549-47.089,0-94.178-.187-141.267.283-5.369.094-10.644,4.332-16.2,6.78-1.79,14.693-3.485,29.574-5.086,42.946-12.432,12.338-23.544,23.451-36.541,36.447,7.816,18.836-6.31,41.533,8.759,61.969,14.221,1.6,29.1,3.3,47.184,5.275v118.758c27.122,14.88,19.305,39.179,23.261,59.426,14.316,10.172,35.882,7.818,45.675,25.994,32.022-4.426,57.922,11.961,82.6,27.689,23.263,14.879,46.336,9.606,70.164,7.157,17.988-26.369,45.3-12.9,68.749-16.011,19.213,19.119,49.349,21,66.868,43.606,11.489,14.786,26.276,26.934,40.12,40.685v94.084c-12.621,20.908-35.129,29.478-56.79,40.4v36.635c-18.836,9.229-36.353,20.813-55.66,26.464-23.167,6.687-33.81,26.181-48.972,40.684-5.462,5.18-10.925,10.455-16.294,15.823,27.5,31.266,57.167,68.467,64.985,50.573,39.554,0,75.436,5.369,108.963-13.278,7.251-16.67,14.786-33.9,23.168-53.024,48.785-3.2,69.5-52.645,110.942-70.162,6.969-23.922,23.262-23.45,42.475-16.858,2.26.754,7.816-1.412,8.382-3.3,11.395-36.636,32.679-9.041,55.094-9.418,17.8-.282,38.047-19.777,58.673-31.644-4.521-14.221-4.521-14.221,17.7-24.58,12.15-27.971,24.675-56.6,38.049-87.21,19.683-6.5,40.4-13.373,65.076-21.471,6.688,2.919,17.989,7.815,26.371,11.489,52.08-20.437,101.618-39.837,149.838-58.767,31.643,13.75,59.991,26.746,88.9,38.519,13.938,5.744,32.019,16.574,42.38,11.959,18.647-8.381,34.94,2.638,53.492-3.389,55.848-18.365,4.427-197.963,50.2-178,51.8,22.51,103.785,44.641,155.113,68.186,16.009,7.345,38.235,7.628,44.169,29.666,3.579,13.09,10.642,7.44,19.307,6.781,58.013-4.238,58.013-3.862,104.066,15.821,7.722,15.54,8.665,39.273,37.39,28.914,7.722-2.826,17.8-2.921,25.805-.755a136.775,136.775,0,0,1,34.562,14.787c32.3,19.5,67.714,22.32,105.574,20.53,1.32-.658,5.746-1.129,6.686-3.3,10.455-22.7,20.344-45.77,30.138-68.279-2.542-6.5-5.368-12.148-6.969-18.177-5.651-20.719,24.3-38.894,4.709-60.839,11.772-11.3,22.131-25.145,35.787-33.432,15.916-9.607,34.752-14.41,56.507-22.981,8.1,3.579,18.93,9.418,30.513,12.81,4.8,1.506,15.07-.66,16.106-3.674,6.687-18.271,16.011-23.639,35.128-15.445,6.593,2.825,17.329-4.05,26.276-6.593,2.166,4.616,6.028,9.7,7.064,15.257,3.107,16.953,5.084,34.094,7.439,51.234,23.45,5.367,23.263,27.5,29.479,43.793,6.78,17.987,23.45,18.27,38.518,27.688,7.723,24.11,16.293,50.573,24.581,76.661,15.162.753,24.3,3.107,32.491,1.224,12.149-2.826,23.262-11.489,35.223-12.715,20.155-1.977,40.591,0,64.324.377-2.637,44.076,15.821,81.842,33.81,119.795,30.326,5.746,11.961,28.442,15.351,44.923,23.262,11.3,43.322,30.608,75.248,19.024,18.176-6.592,24.3,13.374,29.854,29.855,30.326,13.28,62.347,25.9,92.861,41.345,9.606,4.9,15.257,17.422,26.652,31.266,14.974,6.5,34.941,15.257,55.848,24.392,9.23-10.735,22.979-18.081,28.819-31.455q0-136.466.094-273.117c0-2.825,1.318-5.651,1.978-8.476,11.112-11.113,22.885-21.661,32.962-33.622,3.2-3.861,3.672-12.148,2.166-17.517-2.637-9.512-10.172-13.844-20.813-12.808-9.136.848-18.365.188-26.087.188-12.9,15.258-29.008,24.2-29.574,47.089-.281,11.113-18.458,12.621-34,3.58v-54.813c-8.947-12.713-18.552-25.144-17.895-25.616,20.72-17.894,17.141-53.4,48.221-64.419,4.708,0,11.3-1.223,17.234.189,35.035,8.665,59.8-23.827,95.968-21.19,24.109,1.79,44.263,16.67,66.866,21.756l36.07-106.893,5.558-71.575ZM1180.315,1513.088c-18.554-.188-30.985,3.672-28.161,25.428,3.39,26.088-22.32,41.345-23.92,65.359-26.371,12.244-46.525,3.58-64.608-17.328-7.628-8.759-19.024-14.221-28.63-21.19,16.764-16.763,27.783-27.877,41.722-41.722V1469.3c5.085-5.744,10.924-12.714,17.139-19.307,10.549-10.925,22.133-19.588,21.662-38.613-.189-10.453,21.378-14.692,30.231-6.686,9.041,8.287,23.733,18.082,23.733,27.122-.1,22.792,6.123,40.78,19.307,58.674C1191.615,1494.253,1183.327,1513.088,1180.315,1513.088Z" fill="#fff"/>
      <path d="M2731.822,515.489c-14.246,7.572-22.473,11.945-30.7,16.315-12.542-10.326-27.645-18.763-37.006-31.438-12.567-17.014-20.7-37.3-29.81-54.451,3.876-8.328,6.379-13.7,9.108-19.564,22.495-7.135,40.777,8.794,63.082,12.311C2703.494,466.732,2717.452,489.8,2731.822,515.489Z" fill="#fff"/>
    </g>
    <path d="M3486.053,2146.785c-9.784,9.786-16.388,16.39-23.421,23.422-13.708.615-16.862-13.547-25.929-19.565-10.275-6.818-20.146-14.245-29.778-21.113,6.788-14.892,8.97-23.987,14.491-30.035,2.923-3.208,11.647-1.125,19.81-1.531Z" fill="#c1c0c0"/>
    <path d="M3092.091,1872.087c5.135,2,13.939,3.045,14.743,6.159,2.844,11.01,3.563,22.709,3.908,34.182.306,10.185-5.773,15.679-15.989,16.145-13.732.625-22.459-4.21-21.554-19.768.346-5.942.056-11.92.056-17.882Q3092.809,1891.64,3092.091,1872.087Z" fill="#c1c0c0"/>
    <path d="M3129.55,1833.761l34.068,2.489c-.35,18.883-15.725,23.555-22.746,34.176C3120.484,1863.554,3133.343,1846.447,3129.55,1833.761Z" fill="#c1c0c0"/>
    <g>
      <path d="M434.461,112.755c-5.11,5.11-11.2,12.317-18.4,18.154-13.593,11.019-24.259,37.46-43.595,25.488-14.9-9.22-21.233-32.986-29.914-50.989-2.007-4.163.046-14.268,3.471-16.379,15.093-9.3,11.078-27.548,20.044-38.37,4.015-4.848,20.1-7.051,23.774-3.425,10.339,10.208,25.414,16.637,28.29,34.594C419.855,92.553,428.6,102.152,434.461,112.755Z" fill="#caa99f"/>
      <path d="M266.741,983.717c-44.911,2.074-44.911,2.074-73.117-22.66v-58.88L218.769,873.7c28.85,13.938,27.982,46.989,46.984,66.963C272.017,947.247,266.741,964.814,266.741,983.717Z" fill="#caa99f"/>
      <path d="M284.96,598.522c7.252,8.006,13.185,14.5,19.4,21.473v77.131c-10.172,3.486-21.1,7.158-36.354,12.432-.659,13.091-1.506,27.971-2.26,42.569-11.678,20.342-33.151,24.58-51.893,34-15.821,8-21.473,30.8-43.7,31.267-18.177.471-11.773,17.8-17.613,25.71-7.722,10.455-24.016,14.41-36.54,21.191v37.859L22.767,995.39c11.867,21.191,34.377,3.2,49.255,13.279,2.073,2.26,6.029,4.52,6.123,6.78.376,25.052.283,50.1.283,74.4,6.309,7.158,12.148,13.657,17.987,20.155-9.512,9.512-18.364,18.364-27.312,27.4H10.054c-2.167-7.44-4.332-15.822-7.063-23.921-3.2-9.606-9.136-16.105-20.061-13.468-5.556,1.32-15.161,5.275-14.974,7.346,2.354,25.522-10.831,45.395-20.437,67.244-3.861,9.042-6.309,24.675,5.369,35.317,4.237-2.26,8.758-4.426,12.9-6.969,25.052-15.54,37.3-12.055,36.07,12.055-.942,20.154,9.983,32.491,17.518,47.371-6.875,6.969-13.562,13.562-20.25,20.249-2.354,1.883-4.709,5.274-7.063,5.274-31.267.376-62.533.281-91.73.281-8.569-7.439-15.444-13.466-21.943-19.117-43.7,9.982-76.755,51.986-130.625,35.034-20.625-36.73-34-84.383-77.32-109.812-19.778-4.049-29.2,10.925-37.671,22.6-10.548,14.409-10.813,9.635-17.6,12.063-6.084,2.176-13.532,2.415-15.509,8.82,0,0-9.554-18.152-19.348-28.041-9.888-9.794-32.3.753-32.3.753l-36.541,12.621-45.582,2.072-54.813-22.415s-29.477,21.755-31.549,22.415c-2.073.754-16.105-28.914-16.105-28.914-17.516,5.275-35.129,11.4-41.061-3.86-.754-1.883-7.723,1.318-11.113.941-4.992-.564-8.665-4.237-14.221-3.2-18.553,3.673-37.766,8.757-56.225,13.184-14.315-11.866-14.033-13.279-34.092-6.592-28.348,9.512-47.843,1.131-72.235,3.673-18.647,1.978-19.683-21.378-44.264-7.44-6.027-7.063-12.243-14.032-18.459-21.1,9.512-19.685-3.39-23.451-10.548-31.174-6.122-6.875-12.9-13.091-18.365-18.459,5.651-20.437,10.454-37.86,14.881-55,.282-1.506-2.073-2.26-6.593-6.78-15.351,3.39-37.106,11.3-55.471,14.5l-27.877-27.877c-5.556-5.557-10.454-11.866-16.858-16.481-6.969-5.086-5.18-14.5-5.085-24.11,0-5.558-19.59,5.65-22.792-3.862-1.036-3.013-4.237-4.52-8.287-8.476-12.714,3.862-29.666,4.239-42.757,14.127-28.913,21.944-51.233,17.988-76.85,28.253-6.4,2.637-7.817-9.229-2.26-18.081,3.861-6.028,8.382-11.961,12.149-17.236l-16.67-16.669-23.639-25.522s-99.828-56.036-108.21-53.21-12.62-82.783-8.382-95.687c4.238-12.807-69.127-91.258-69.127-91.258l-8.853-193.913s76.567-76.85,94.744-78.922c18.27-2.165,1.6-108.493-8.382-107.363-9.983,1.036-11.961-79.957-10.171-85.7s24.2-85.609,11.584-93.519c-12.621-8.006,19.682-51.045,26.652-48.5,7.064,2.543,117.911-57.26,105.291-55.847-12.62,1.319,94.461-91.824,94.461-91.824s62.817,28.631,83.819,22.32c21.1-6.31,0-33.056,0-37.2,0-4.237,95.591-34.28,87.3-15.821C-952.92-48.86-807.225-79.751-800.162-92.464c7.063-12.809,151.627,53.493,160.009,53.493,8.475,0,29.477,84.2,33.715,91.258,4.239,6.969,42.1,11.208,42.1,11.208s51.985,4.239,67.431,0,42.1-68.749,42.1-68.749l23.828-7.064,29.477-35.035c9.7,1.13,23.734,15.351,25.711,25.523,7.816,41.249,46.148,56.319,67.621,85.231,27.593-4.145,28.818,12.431,29.289,33.621.47,23.45,29.478,39.932,18.836,67.809-.848,2.26,6.78,9.229,11.583,11.772,7.722,3.956,23.545,7.628,23.545,8.571-5.085,21.755,21,29.477,21.1,48.6.094,5.275,4.238,10.642,7.063,17.235h64.512c12.244-15.822,29.2-37.765,45.4-58.861C-74.612,202.5-68.208,208.059-61.9,213.427c19.307-16.858,21.19-17.423,26.559,1.978,2.826,10.453,6.4,15.257,16.2,18.27,7.818,2.449,21.473,8.1,21.1,11.3C-.212,268.615,20.7,275.678,31.245,289.9c24.956-10.924,32.679,30.326,58.3,19.213,4.992-2.166,13.185-1.6,17.988,1.037,20.531,11.395,38.991,28.441,60.84,34.94,20.154,6.026,43.7-.095,65.454,2.071,7.534.754,13.75,14.127,21.472,15.163,14.41,1.978,31.267,3.013,43.7-2.825,10.548-4.9,20.247-18.93,31.644-12.055,7.91,4.9,8.287,20.813,14.785,29.854,7.158,10.078,18.553,17.141,25.8,27.217,4.9,6.688,9.324,17.14,7.629,24.392-1.977,7.912-11.207,14.127-17.328,21.1,5.933,6.4,12.053,13.187,18.271,19.967-9.607,31.831-12.715,29.007-44.735,65.925C318.111,555.388,309.823,583.172,284.96,598.522Z" fill="#caa99f"/>
    </g>
    <path d="M-2433.981,3203.335c-35.317-35.694,4525.471-382.2,4490.06-417.616,3.389-14.785-6.593-31.455,7.345-45.2h60.651c13.09,13.091,24.109,24.2,35.694,35.693,46.618,0,93.9-3.107,140.514,1.131,27.405,2.543,41.814-24.3,67.807-20.531,7.818,1.13,17.142-3.3,24.958-7.063,20.908-10.077,41.344-21.1,61.029-31.267,11.772,7.628,21.566,14.127,31.548,20.53,22.7-14.032,51.139-16.575,69.41-37.954,34.846,2.731,44.075-30.608,64.983-47.184,11.207-8.946,21.944-8.38,33.9-9.982,8.381-1.036,16.2-6.027,24.2-9.418,25.616-10.83,25.616-10.736,57.731,2.072,26.088,10.359,52.834,17.047,76.1-4.709,11.584-10.736,23.826-6.5,35.223-5.745,20.436,1.413,33.714,26.559,58.3,18.836,4.049-1.319,10.17,4.8,15.444,7.158,28.913,13.372,32.022,12.526,52.175-11.113,9.606-11.3,9.324-21.944-1.317-32.209-10.925-10.454-19.4-24.863-38.52-21.473-1.978.283-5.462-7.439-6.5-9.041,6.592-11.679,12.338-21.756,19.966-35.224-22.7-13.844-32.492-37.105-54.812-47-3.391,3.486-5.651,5.652-7.817,7.912-2.26,2.166-5.933,6.592-6.5,6.31-4.144-2.825-9.512-5.838-11.208-10.077-6.874-17.046,14.221-23.545,15.351-37.86-29.2-15.163-2.543-56.224-32.773-71.952-2.355-1.224-.755-19.495,4.237-23.922,16.576-14.6,11.114-41.249,32.491-53.21,14.127-7.817,17.141-22.32,19.213-39.084,2.354-19.589,13.185-38.236,21.19-56.883,3.956-9.23,31.739-7.535,30.891,1.035-2.92,31.55,27.029,25.9,40.4,39.367v29.2c11.772,17.518,20.341,30.136,24.392,36.071,33.527,4.049,60.274-8.289,79.015,17.893,2.355,3.3,18.836,1.131,24.111-3.578,9.888-8.948,21-10.172,32.019-14.5,13-5.086,21.662-21.284,39.555-18.177,13.28-22.6,44.547-17.517,59.333-39.648,9.323-13.939,7.44-28.537-9.513-34.941-7.816-2.919-15.632-5.744-21.661-8-3.766-17.99,6.029-34.847-8.852-47.278-21-1.32-43.981,3.013-57.543-19.872-18.553,4.8-26.746-11.207-39.649-18.27-7.252-4.049-18.554-1.789-27.783-.566-24.015,3.109-49.538-7.911-72.14,6.029-2.826,12.336,1.129,27.97-14.409,30.7-7.535,1.318-18.176-3.014-24.111-8.477-8.38-7.91-16.292-15.632-21.1-28.723-12.056-32.493-30.137-62.818-46.241-93.708-.66-1.318-5.935-.189-9.041-.189.47,13-5.84,19.307-17.235,18.836-12.621,20.908-20.719,46.243-54.153,34.188.66-17.989,16.67-23.075,24.392-34.188h29.761c-2.166-13.09,4.143-19.306,17.235-18.836-1.32-18.836,26.839-25.805,19.023-47.371,10.548-4.239,22.132-6.876,31.267-13.091,9.983-6.78,17.707-16.858,26.276-25.616,21.473-21.85,42.852-43.793,63.193-64.607H3073.3c-.566-13.09,5.744-19.306,18.836-18.836q6.78-30.654,37.483-37.671h.188c0-.188.093-.471.093-.659,1.036-7.439,4.427-13.091,8.759-18.083-20.907-9.135-40.874-17.893-55.848-24.392-11.395-13.844-17.046-26.369-26.652-31.266-30.514-15.446-62.535-28.065-92.861-41.345-5.555-16.481-11.678-36.447-29.854-29.855-31.926,11.584-51.986-7.722-75.248-19.024-3.39-16.481,14.975-39.177-15.351-44.923-17.989-37.953-36.447-75.719-33.81-119.795-23.733-.377-44.169-2.354-64.324-.377-11.961,1.226-23.074,9.889-35.223,12.715-8.192,1.883-17.329-.471-32.491-1.224-8.288-26.088-16.858-52.551-24.581-76.661-15.068-9.418-31.738-9.7-38.518-27.688-6.216-16.293-6.029-38.426-29.479-43.793-2.355-17.14-4.332-34.281-7.439-51.234-1.036-5.556-4.9-10.641-7.064-15.257-8.947,2.543-19.683,9.418-26.276,6.593-19.117-8.194-28.441-2.826-35.128,15.445-1.036,3.014-11.3,5.18-16.106,3.674-11.583-3.392-22.413-9.231-30.513-12.81-21.755,8.571-40.591,13.374-56.507,22.981-13.656,8.287-24.015,22.131-35.787,33.432,19.588,21.945-10.36,40.12-4.709,60.839,1.6,6.029,4.427,11.679,6.969,18.177-9.794,22.509-19.683,45.582-30.138,68.279-.94,2.167-5.366,2.638-6.686,3.3-37.86,1.79-73.271-1.034-105.574-20.53a136.775,136.775,0,0,0-34.562-14.787c-8.007-2.166-18.083-2.071-25.805.755-28.725,10.359-29.668-13.374-37.39-28.914-46.053-19.683-46.053-20.059-104.066-15.821-8.665.659-15.728,6.309-19.307-6.781-5.934-22.038-28.16-22.321-44.169-29.666-51.328-23.545-103.315-45.676-155.113-68.186-45.77-19.965,5.651,159.633-50.2,178-18.552,6.027-34.845-4.992-53.492,3.389-10.361,4.615-28.442-6.215-42.38-11.959-28.914-11.773-57.262-24.769-88.9-38.519-48.22,18.93-97.758,38.33-149.838,58.767-8.382-3.674-19.683-8.57-26.371-11.489-24.673,8.1-45.393,14.973-65.076,21.471-13.374,30.608-25.9,59.239-38.049,87.21-22.226,10.359-22.226,10.359-17.7,24.58-20.626,11.867-40.873,31.362-58.673,31.644-22.415.377-43.7-27.218-55.094,9.418-.566,1.884-6.122,4.05-8.382,3.3-19.213-6.592-35.506-7.064-42.475,16.858-41.439,17.517-62.157,66.961-110.942,70.162-8.382,19.119-15.917,36.354-23.168,53.024-33.527,18.647-69.409,13.278-108.963,13.278-7.818,17.894-37.483-19.307-64.985-50.573-35.128,34-69.314,69.126-103.878,103.69-2.073,27.406,2.072,55.188-2.073,81.182-10.358,1.977-16.2,3.484-22.036,4.049-6.217.471-12.715-.846-18.835.283-16.859,3.014-13.657,16.952-14.976,28.63-.282,2.449-4.143,4.521-8.946,9.229-29.572-5.65-65.36,13.844-93.143-18.647-6.593,6.028-13.185,11.961-19.494,17.8-6.4-5.839-13-11.772-20.061-18.082-7.722,13.938-27.405,17.988-26.934,36.918.565,19.024-17.235,24.392-26.653,35.975-9.512,11.773-21.285,21.85-31.457,32.021v61.31c-20.058,27.595-32.868,45.3-44.074,60.84H317.64c-13.844,10.924-23.45,18.459-33.339,26.275,30.8,22.321,17.706,51.611,18.552,77.6-11.678,11.585-23.261,22.321-33.714,34-7.157,8.006,0,31.079,9.135,29.1,22.791-4.991,28.065,25.9,48.972,20.059,23.828-6.309,29.2-41.909,61.028-37.482,12.621,11.96,26.087,24.77,39.837,37.859h93.237c9.229,9.23,18.177,18.083,27.5,27.407v56.318c-17.518,15.823-30.419,37.86-49.632,47.372-23.733,1.977-41.72.282-53.4-18.365-14.314,21.661-35.787,20.342-60.275,17.518-26.652-35.506-61.31-63.571-108.3-74.214-6.5,6.123-13.278,12.432-20.059,18.743-26.747-22.886-26.747-22.886-58.767-2.355-.66.376-4.239-4.144-6.782-6.593v-84.289c16.294-13.467,37.766-31.268,56.32-46.618,0-52.458.282-99.547-.471-146.636-.095-4.9-6.028-9.8-9.23-14.787H179.293c-10.549-26.181-33.9-18.176-55.1-17.422-19.212,18.93-36.351,40.5-65.076,44.924v41.249c-10.736,3.767-21.661,7.534-34.47,12.055-1.507,14.032-3.107,28.819-4.708,43.7-12.714,7.91-17.423,26.746-47.09,26.087-7.346-.471-12.336-18.93-25.146-26.652-12.431-7.44-25.616-13.751-38.8-20.061-10.455-4.9-23.827-6.5-31.362-14.032-7.629-7.628-7.629-22.319-14.5-31.173-9.135-11.772-18.741-26.182-40.873-19.683-6.405,7.158-14.785,16.481-25.052,27.688-.941,18.176-2.071,39.272-3.013,57.637-11.585,11.491-22.6,19.119-28.818,29.572-10.266,17.423-16.952,36.917-26.087,55-14.6,29.289-30.608,56.978-53.4,81.936-27.5,30.137-67.055,36.446-98.511,60.367,0,36.825.094,74.307-.283,111.791-.093,2.26-4.143,4.426-7.064,7.345h-36.257c-28.442-14.314-31.833-41.344-33.056-62.251-23.922-45.677-74.4-50.574-100.3-87.775-18.082,0-42.192-7.251-54.246,1.7-19.306,14.221-37.107,19.683-59.521,17.046-15.352-15.444-30.89-30.984-46.43-46.523-4.145-14.5,5.933-31.08-8-45.865H-792.91c-46.995,24.58-51.892,75.061-89.281,101.241,0,11.585.846,24.016-.283,36.259-1.32,14.975,5.274,30.985-3.956,44.17-65.454,49.349-96.062,54.811-137.312,23.826h-26.935c-39.931.1-39.084,2.167-77.226,18.083-25.616,10.736-33.9,30.326-43.04,52.928-4.049,10.266-16.387,17.236-22.32,23.168-20.813,0-42.286-6.592-51.139,1.225-27.123,23.828-57.637,16.293-87.491,17.423-18.742.753-37.671-.471-56.413.376-18.271.754-42-3.389-53.117,6.31-14.691,12.808-37.389,6.5-46.9,25.052l-46.147,43.792c-12.526,0-25.428,1.884-37.577-.47-18.93-3.579-25.334,15.634-39.461,18.93-22.414,5.367-32.774-27.878-58.3-19.306-6.028,2.072-17.518-4.427-23.168-10.172-12.055-12.338-28.348-21.379-33.81-39.084,24.486-32.4,24.486-32.3-14.315-46.148-2.637-.942-4.521-4.238-6.028-5.745,5.839-10.265,15.634-19.871,16.482-30.325,2.354-27.971.847-56.318.847-84.384-23.827-18.365-27.594-39.743-11.395-63.852,9.323-1.979,17.894-3.768,26.558-5.651,10.642-35.411-8.1-74.871,21.567-106.045,6.216-6.592-1.507-24.863,1.507-36.635,3.579-13.751,14.785-25.805,17.423-39.556,2.731-14.315,4.143-29.854-10.36-42.569-23.168-20.341.942-31.737,11.207-45.3,0-15.728.094-31.361-.094-47.089-.188-18.741-27.123-26.275-20.343-48.031-28.253-25.333-22.32-54.058-7.722-83.066,3.391-6.875,6.5-13.938,9.7-20.718a121.812,121.812,0,0,1,10.172-17.518c9.7-13.279,23.638-22.32,49.255-19.965,24.392,2.26,44.452.283,60.556,18.27,6.217,6.969,14.6,19.967,19.684,18.93,35.223-7.064,22.32,30.7,38.9,39.648h27.029c55-22.13,56.789-77.414,93.8-103.407-9.606-10.453-17.988-19.589-31.644-34.469-10.548,16.2-20.436,31.267-29.478,45.112-31.926-21.379-53.116-46.807-69.315-79.957,20.06-41.346,60.651-54.718,104.915-75.531,9.041,13.749,19.307,29.382,35.223,53.681,12.619-17.989,19.871-27.594,26.275-37.672,6.969-11.018-1.789-31.173,23.074-32.4,13.373-.66,25.805-13.092,39.555-17.33,11.019-3.484,24.675,3.3,34-8.946,14.41-18.742,33.339-9.135,50.763-7.535-5.745-5.745-32.681-40.026-32.681-40.026s-25.334-28.065-32.3-29.478c-7.063-1.413-19.683-13.374-19.683-15.445,0-1.318-17.14-5.179-30.514-8.1-8.664-1.789-15.822-3.2-15.822-3.2l-11.866-19.119-.753-1.224-1.036-.282-30.514-7.44-7.44-23.168v4.144c-9.795,9.795-18.648,18.647-27.406,27.5h-94.178c-14.692,15.258-25.994,29.385-30.608,53.588-5.181,26.841-17.141,56.884-42.663,76.1h-60.086c-14.033-10.641,0-34.469-24.863-36.259-10.736-.847-20.908-9.982-32.115-15.822-4.615,4.239-11.3,10.455-17.423,16.105h-75.249c-4.8-4.8-8.475-10.925-13.844-13.374-21.1-9.606-42.756-17.893-64.041-27.028-2.637-1.131-6.122-4.333-6.216-6.593-.282-44.829-57.26-53.022-61.687-97.191-1.6-15.728-29.948-21.756-32.585-42.475-4.238-33.151-14.975-10.549-26.087-4.144-17.424,10.076-28.066-3.108-38.425-14.6-9.324,6.686-18.46,13.278-26.182,18.741-8.57-3.3-14.974-4.238-19.118-7.723-9.512-8.1-17.988-17.517-30.326-29.854-42.38-4.239-88.81,1.129-134.11-2.26-19.118-18.271,6.122-53.682-27.311-64.984,22.791-9.983,18.93-36.07,32.02-53.116,21.567-28.065,47.843-50.009,81.747-50.481,15.634-.187,31.267,0,45.771,0,7.346,6.5,13.844,12.244,19.871,17.519,7.723-6.592,14.6-12.433,23.545-20.06,33.433,17.234,67.244,34,100.488,51.891,20.908,11.3,40.215,14.409,57.543-5.461,10.36-11.772,42.287.659,34.658-31.079,12.431-13.563,24.957-27.218,37.389-40.875l70.916-23.733c4.426,4.428,8.853,8.948,14.127,14.127,11.584,0,24.015.283,36.447-.094,21.755-.659,42.1-1.978,59.144,17.989,5.274,6.121,23.921.941,38.99.941,2.166-7.91,3.578-16.576,6.969-24.485,2.166-4.992,7.346-12.527,10.925-12.432,7.628.282,20.718,3.3,23.261,6.309,12.244-21.285-22.7-50.856-7.534-71.763,16.387-22.792,18.082-55.848,29.478-80.052,22.132-16.105,26.464-21.85,49.82-31.456,19.59-19.589,32.774-16.858,54.718-37.294,6.875-6.4,22.509-56.13,34.47-62.535l154.922-57.543c18.93-6.4,36.824-4.426,54.812-26.558l-23.639-25.522s-99.828-56.036-108.21-53.21-12.62-82.783-8.382-95.687c4.238-12.807-69.127-91.258-69.127-91.258l-8.853-193.913s76.567-76.85,94.744-78.922c18.27-2.165,1.6-108.493-8.382-107.363-9.983,1.036-11.961-79.957-10.171-85.7s24.2-85.609,11.584-93.519c-12.621-8.006,19.682-51.045,26.652-48.5,7.064,2.543,117.911-57.26,105.291-55.847-12.62,1.319,94.461-91.824,94.461-91.824s62.817,28.631,83.819,22.32c21.1-6.31,0-33.056,0-37.2,0-4.237,95.591-34.28,87.3-15.821C-952.92-48.86-807.225-79.751-800.162-92.464c7.063-12.809,151.627,53.493,160.009,53.493,8.475,0,29.477,84.2,33.715,91.258,4.239,6.969,42.1,11.208,42.1,11.208s51.985,4.239,67.431,0,42.1-68.749,42.1-68.749l23.828-7.064,29.477-35.035c-24.863-2.825-39.367-15.917-47.089-36.635-8.1-21.756-27.029-39.555-20.154-67.526M-1922.486,2110.838c0,9.889-12.431,19.777-19.683,30.419-17.329-20.813-37.2-29.477-32.491-52.552l-37.672-18.835c12.149-12.243,23.262-23.262,40.5-40.5-15.351-9.042-30.7-18.083-36.353-21.473-7.44-29.384,2.261-49.255-16.2-63.571-14.974-11.584-1.789-30.042-7.345-43.793-4.333-10.547-20.06-14.5-18.554-30.042,1.036-11.018,6.875-14.127,16.576-17.706,28.724-10.642,28.63-13.091,4.049-45.582,14.881-24.11,27.218-44.17,40.026-64.889,18.836,9.229,35.6,17.611,55.942,27.689-14.786,5.179-25.71,9.041-36.73,13a272.83,272.83,0,0,0,29.949,59.427c10.642,15.915-2.731,43.6,21.19,56.79,3.014,22.037,4.05,43.321-17.7,57.636,11.019,11.113,22.132,22.132,33.245,33.245C-1881.141,2034.553-1922.3,2069.4-1922.486,2110.838Z" fill="#c1c0c0"/>
    <path d="M4470.863-381.46c-3.3,13.751-1605.322,230.229-1603.345,241.907,3.674,20.908-14.126,30.7-16.858,47.184,6.029,1.883,11.584,3.672,17.141,5.555,12.244,4.144,22.6,19.307,16.859,25.9-11.584,13.373-19.873,32.775-42.381,30.42-17.047-1.884-30.513,3.014-40.025,17.046-11.02,16.387-28.725,20.531-45.395,26.276-13.091,21.944,9.229,50.1-13.373,70.163-19.212,16.952,1.6,50.48-26.276,65.266-2.449,1.318-.848,18.93,4.049,24.014,16.764,17.519,12.81,48.691,40.686,59.71,5.932-5.18,12.431-10.736,19.024-16.481,27.971,22.6,27.971,22.6,58.39.659,8.947,8.853,17.8,17.705,26.653,26.652v37.671c15.539,15.541,31.079,30.985,47.654,47.561,8.194-9.23,16.387-18.459,26.369-29.76,1.037-17.895,2.166-39.085,3.2-58.485,16.953-10.454,32.114-5.651,47-4.615,6.686,6.687,15.539,12.243,19.589,20.154,12.055,23.168,22.131,47.372,33.527,72.234,18.835,0,38.708-4.237,55.849.943,31.173,9.229,49.631-21.19,77.226-19.778,11.678-18.082,29.006-20.248,48.689-19.118,21.85,1.225,43.7.282,57.733.282,42.756-22.036,79.014-40.684,113.766-58.579,35.222,25.617,35.222,25.617,60.557,3.956,11.208,5.934,21,13.751,32.021,16.293,11.961,2.826,25.05-.094,37.577,1.036,5.369.471,10.453,4.709,16.481,7.723v34.751c11.584,22.886,42.663,30.985,39.084,61.31,29.949,20.155,15.351,50.01,17.14,76.286-14.032,11.865-37.106,7.251-46.052,26.745-23.827-6.026-30.608,17.141-45.583,26.37-17.611,10.925-16.387,31.645-26.935,45.489-8.853,11.584-19.212,28.254-37.3,21.755-25.8-9.229-34.28,27.6-58.3,19.4-4.615,10.455-7.252,22.416-14.127,30.891-11.772,14.6-26.182,27.03-39.554,40.308-42.852.755-49.915,39.273-64.136,66.114-12.15,22.79-21.568,48.408-35.694,69.6-15.256,23.073-38.048,41.627-59.049,60.368a140.175,140.175,0,0,1-25.994,18.176l17.329,50.009,35.128,27.783,2.072,37.859s29.008,47.749,26.842,50.574c-2.072,2.825-6.311,39.461-6.311,39.461l-1.036,28.441V1144.1l18.742,28.442,70.257-46.336,36.448,40.78-5.558,71.575-36.07,106.893a59.25,59.25,0,0,0,29.007,0c17.141-4.332,36.354-.755,53.681-.755,9.229,44.735,18.836,84.761,53.871,112.638,15.163-22.791,45.959-31.926,48.6-65.83.753-10.171,20.813-21.285,34.092-27.406,28.913-13.467,50.2-32.3,60.84-61.876-8.571-9.511-14.692-16.293-21-23.262,12.432-13.09,24.959-26.369,37.107-39.272-3.2-22.414,4.521-40.685,15.917-57.919-33.057-23.921-41.252-67.15-71.86-93.237-2.73-2.355,2.732-16.953,7.158-24.11,4.8-7.816,12.9-13.562,19.59-20.342,26.84,32.4,63.193,13.561,90.318,17.141,19.306-9.889,36.445-15.917,50.008-26.559,17.234-13.373,31.455-30.514,48.785-47.843h110.471c18.835,0,42.944-7.251,55.281,1.7,17.235,12.62,38.8,14.221,54.813,29.007,12.337,11.491,31.173,14.6,46.335,24.393,11.113,7.158,30.607.753,46.148,1.789,5.368.377,10.359,5.086,16.67,8.476v36.636c32.868,11.96,9.041,46.24,25.145,64.7,43.605,4.8,43.605,4.8,57.919,38.9,39.744,4.9,80.146-2.166,116.594,3.484,9.8,9.794,16.387,16.481,26.37,26.37,0,18.271-.094,39.744,0,61.31,0,3.014,28.629,60.84,30.7,60.84,39.084-2.638,36.636,33.432,52.081,53.681,15.728,20.343,17.611,38.424,3.2,58.014-17.234,23.45-17.047,44.169,4.9,64.606,10.831,10.171,25.9,18.742,22.133,37.86,20.059,15.068,14.973,45.865,39.837,61.122-20.249,13.656-39.461,26.558-58.767,39.555,2.542,14.5-6.687,31.549,9.324,43.227h37.482c26.747,21.944,37.2,52.929,50.009,81.183-8.854,9.606-15.163,16.387-21.191,22.979V1956.48c6.311,7.157,12.056,13.656,17.423,19.777-11.584,22.038-35.788,22.791-52.081,35.034-19.588,14.6-35.411,34.188-51.138,50.009-24.957-1.036-50.95-8.57-46.995,28.065-26.182,19.213-39.648,44.169-41.25,77.6-.47,8.758-12.9,17.517-15.54,30.985-4.614,23.356-40.967,28.536-37.671,59.992.566,5.933-11.678,13.749-18.836,19.871-12.338,10.548-20.153,22.037-18.458,39.837.753,7.818-5.652,16.2-8.006,24.581-10.358,37.765-42.192,58.674-66.677,85.89,0,20.532-4.992,43.135,17.139,56.7-5.744,7.157-16.2,14.127-16.387,21.378-1.6,43.887-.094,87.87-1.223,131.85-.283,14.41,12.055,21.473,14.785,31.55,5.274,19.871,3.768,41.627,4.8,59.144-14.785,14.785-25.8,25.9-37.012,37.107-.659,21.19,2.826,43.886-19.776,57.541C4119.9,2848.255,5631.427,938.211,5642.54,963.733" fill="#c1c0c0"/>
  </g>
  <g>
    <line x1="1525.57" y1="2269.571" x2="1525.57" y2="-36.601" fill="none" stroke="#236b8b" stroke-miterlimit="10" opacity="0.5"/>
    <line x1="-85.261" y1="1063.01" x2="3968.205" y2="1063.01" fill="none" stroke="#236b8b" stroke-miterlimit="10" opacity="0.5"/>
    <g>
      <g>
        <path d="M1664.978,1098.786v-5.057h11.644v-63.276h-11.644V1025.4h65.277l3.32,26.027h-5.058a65.454,65.454,0,0,0-1.185-7.077,29.089,29.089,0,0,0-2.055-5.679,11.678,11.678,0,0,0-3.61-4.542,18.447,18.447,0,0,0-5.874-2.641,32.444,32.444,0,0,0-8.719-1.03h-15.121v29.083h5.374q7.218,0,9.273-2.925t2.054-9.72h5.111v30.294h-5.111q0-6.8-2.054-9.694t-9.273-2.9h-5.374v29.136h14.541v5.057q-4.741-.316-21.759-.315Q1669.087,1098.471,1664.978,1098.786Z" fill="#040000"/>
        <path d="M1849.588,1098.786v-3.54h8.151v-44.293h-8.151v-3.54H1896.5l2.323,18.218h-3.541a43.214,43.214,0,0,0-.866-5.12,17.132,17.132,0,0,0-1.549-3.975,8.993,8.993,0,0,0-2.638-3.106,12.337,12.337,0,0,0-4.167-1.811,24.732,24.732,0,0,0-6.122-.666h-11.469v19.436h4.167q5.052,0,6.528-2.047t1.475-6.8h3.541v21.242h-3.541q0-4.758-1.475-6.8t-6.528-2.047h-4.167v21.317h11.467a32.418,32.418,0,0,0,6.01-.5,12.414,12.414,0,0,0,4.424-1.659,16.455,16.455,0,0,0,3.061-2.49,10.533,10.533,0,0,0,2.083-3.486,24.623,24.623,0,0,0,1.212-4.125q.382-1.967.952-4.891h3.577l-3.5,20.689Z" fill="#040000"/>
        <path d="M1982.135,1098.786v-3.54h8.15V1050.51h-8.15v-3.54q2.877.22,13.83.221,11.949,0,15.231-.221v3.54h-10.178v44.736h7.781a17.082,17.082,0,0,0,5.108-.72,13.749,13.749,0,0,0,3.762-1.733,11.093,11.093,0,0,0,2.674-2.729,21.028,21.028,0,0,0,1.825-2.987,16.588,16.588,0,0,0,1.088-3.319,29.364,29.364,0,0,0,.59-3.025q.111-.976.383-2.636h3.748l-2.5,20.689Z" fill="#040000"/>
        <path d="M2109.407,1098.786v-3.54H2118V1050.51h-8.593v-3.54q3.1.22,13.959.221t13.959-.221v3.54h-8.593v44.736h8.593v3.54q-3.1-.221-13.959-.221T2109.407,1098.786Z" fill="#040000"/>
        <path d="M2218.276,1098.786v-3.54h1.881a34.455,34.455,0,0,0,4.094-.222,4.131,4.131,0,0,0,1.881-.423q.294-.278.3-1.568V1050.51h-8.151v-3.54h17.3a4.957,4.957,0,0,1,1.512.147,2.985,2.985,0,0,1,.959.849l30.094,35.331v-30.574q0-1.29-.312-1.549a5.039,5.039,0,0,0-1.964-.443,36.52,36.52,0,0,0-3.966-.221h-1.909v-3.54q3.095.22,10.2.221,7.251,0,10.085-.221v3.54H2278.4a34.358,34.358,0,0,0-4.075.221,4.1,4.1,0,0,0-1.873.425q-.293.276-.293,1.567v43.63a4.188,4.188,0,0,1-.3,1.972q-.3.462-1.75.461a2.908,2.908,0,0,1-1.18-.147,4.315,4.315,0,0,1-.849-.848l-37.634-44.256v39.5q0,1.292.3,1.568a4.352,4.352,0,0,0,1.954.423,36.952,36.952,0,0,0,4.021.222h1.881v3.54q-3.1-.221-10.216-.221Q2221.152,1098.565,2218.276,1098.786Z" fill="#040000"/>
        <path d="M2361.776,1098.786v-3.54h8.151V1050.51h-8.151v-3.54q2.877.22,13.517.221t13.517-.221v3.54h-8.151V1074.7l27.955-23.346c-.2-.048-.307-.1-.332-.147q0-.147-.664-.3a24.982,24.982,0,0,0-4.389-.406v-3.54q2.73.22,11.028.221,4.683,0,7.708-.221v3.54h-1.291q-5.421,0-7.081,1.365L2395.448,1067l20.395,26.737a3.285,3.285,0,0,0,1.511,1.254,15.182,15.182,0,0,0,3.652.259h2.176v3.54q-2.8-.221-11.028-.221-10.179,0-13.313.221v-3.54q4.167,0,5.532-.627a3.3,3.3,0,0,0-.59-1.033l-15.563-20.468-7.561,6.269v15.859h8.151v3.54q-2.877-.221-13.517-.221T2361.776,1098.786Z" fill="#040000"/>
        <path d="M2504.907,1098.786v-3.54h8.593V1050.51h-8.593v-3.54q3.1.22,13.959.221t13.959-.221v3.54h-8.593v44.736h8.593v3.54q-3.1-.221-13.959-.221T2504.907,1098.786Z" fill="#040000"/>
        <path d="M2613.924,1098.786v-3.54h1.586a18.922,18.922,0,0,0,4.978-.389,2.278,2.278,0,0,0,1.439-1.35l18.735-45.467a5.691,5.691,0,0,1,.517-1.181,1.716,1.716,0,0,1,.793-.571,4.392,4.392,0,0,1,1.64-.24,5.644,5.644,0,0,1,1.217.092,2.523,2.523,0,0,1,.9.535,3.35,3.35,0,0,1,.9,1.365l19.325,47.206h7.339v3.54q-2.656-.221-12.319-.221-10.437,0-13.313.221v-3.54h7.191l-4.536-11.064h-20.247l-3.762,9.176a1.213,1.213,0,0,0-.294.889q0,1,6.711,1v3.54q-2.8-.221-9.957-.221Q2622.517,1098.565,2613.924,1098.786Zm17.666-18.145h17.222l-8.592-20.984Z" fill="#040000"/>
      </g>
      <g>
        <path d="M3792.787,1050.576a1.093,1.093,0,0,1,.256-.8.8.8,0,0,1,.584-.257,1.032,1.032,0,0,1,.717.27.948.948,0,0,1,.3.74.958.958,0,0,1-.352.789,1.059,1.059,0,0,1-.85.213,2.482,2.482,0,0,0,1.235,1.039,4.1,4.1,0,0,0,1.543.324,1.9,1.9,0,0,0,1.406-.67,3.342,3.342,0,0,0,.629-2.307,3.827,3.827,0,0,0-.541-2.178,1.821,1.821,0,0,0-1.608-.8h-.794a1.856,1.856,0,0,1-.395-.025c-.061-.017-.09-.073-.09-.169,0-.113.11-.181.326-.2a6.247,6.247,0,0,0,.7-.051,1.846,1.846,0,0,0,1.6-.952,4,4,0,0,0,.5-2.071,1.964,1.964,0,0,0-.526-1.547,1.774,1.774,0,0,0-1.2-.457,3.884,3.884,0,0,0-1.334.255,2.145,2.145,0,0,0-1.08.826q1.128,0,1.127.923a.928.928,0,0,1-.252.667.887.887,0,0,1-.67.264.892.892,0,0,1-.931-.949,2.11,2.11,0,0,1,.924-1.728,3.656,3.656,0,0,1,2.287-.707,3.813,3.813,0,0,1,2.285.7,2.105,2.105,0,0,1,.972,1.772,3.082,3.082,0,0,1-.687,1.95,3.67,3.67,0,0,1-1.777,1.241,3.812,3.812,0,0,1,2.191,1.191,3.006,3.006,0,0,1,.818,2.045,3.253,3.253,0,0,1-1.109,2.45,4.119,4.119,0,0,1-5.186.225A2.475,2.475,0,0,1,3792.787,1050.576Z" fill="#040000"/>
        <path d="M3801.734,1047.253a9.991,9.991,0,0,1,.668-4.087,3.205,3.205,0,0,1,3.129-2.145,3.749,3.749,0,0,1,.953.128,3.2,3.2,0,0,1,1.108.611,3.483,3.483,0,0,1,1,1.274,10.093,10.093,0,0,1,.721,4.219,9.869,9.869,0,0,1-.668,4.06,3.258,3.258,0,0,1-3.129,2.092,3.6,3.6,0,0,1-1.631-.413,3.117,3.117,0,0,1-1.34-1.406A9.264,9.264,0,0,1,3801.734,1047.253Zm1.495-.22a25.008,25.008,0,0,0,.193,3.8,2.776,2.776,0,0,0,.822,1.674,1.867,1.867,0,0,0,2.592-.035,2.8,2.8,0,0,0,.787-1.709,35.663,35.663,0,0,0,.018-7.234,2.617,2.617,0,0,0-.866-1.639,2.1,2.1,0,0,0-1.261-.47,1.805,1.805,0,0,0-.489.07,2.937,2.937,0,0,0-.609.273,1.751,1.751,0,0,0-.639.7,4.08,4.08,0,0,0-.408,1.257A26.584,26.584,0,0,0,3803.229,1047.033Z" fill="#040000"/>
        <path d="M3811.025,1042.718a1.934,1.934,0,0,1,.584-1.415,1.98,1.98,0,1,1-.584,1.415Zm1.1-.914a1.219,1.219,0,0,0-.377.909,1.191,1.191,0,0,0,.377.9,1.257,1.257,0,0,0,.9.361,1.228,1.228,0,0,0,.888-.361,1.206,1.206,0,0,0,.369-.9,1.277,1.277,0,0,0-1.257-1.278A1.24,1.24,0,0,0,3812.123,1041.8Z" fill="#040000"/>
        <path d="M3816.615,1053.01v-.563h.43a2.6,2.6,0,0,0,1.2-.162.822.822,0,0,0,.223-.69v-9.475a.8.8,0,0,0-.229-.681,2.592,2.592,0,0,0-1.195-.163h-.43v-.562q.633.053,2.662.053,2.013,0,2.647-.053v.562h-.432a2.589,2.589,0,0,0-1.2.163.812.812,0,0,0-.225.681v5.716l5.635-5.374a.812.812,0,0,0,.324-.6.488.488,0,0,0-.3-.466,1.032,1.032,0,0,0-.532-.123v-.562c.411.035,1.174.053,2.293.053q1.064,0,1.53-.053v.562a3.553,3.553,0,0,0-2.557,1.08l-3.244,3.109,4.158,6.113a1.9,1.9,0,0,0,.746.711,3.07,3.07,0,0,0,1.143.158v.563q-1.134-.054-2.065-.054-1.943,0-2.576.054v-.563c.709,0,1.065-.181,1.065-.544a1.335,1.335,0,0,0-.274-.615l-3.26-4.812-2.084,1.975v3.144a.825.825,0,0,0,.225.685,2.516,2.516,0,0,0,1.2.167h.432v.563q-.633-.054-2.664-.054Q3817.247,1052.956,3816.615,1053.01Z" fill="#040000"/>
      </g>
      <g>
        <path d="M10.756,1050.576a1.088,1.088,0,0,1,.256-.8.8.8,0,0,1,.584-.257,1.032,1.032,0,0,1,.717.27,1.064,1.064,0,0,1-.054,1.529,1.057,1.057,0,0,1-.849.213,2.483,2.483,0,0,0,1.234,1.039,4.107,4.107,0,0,0,1.544.324,1.9,1.9,0,0,0,1.4-.67,3.341,3.341,0,0,0,.63-2.307,3.827,3.827,0,0,0-.542-2.178,1.819,1.819,0,0,0-1.607-.8H13.28a1.875,1.875,0,0,1-.4-.025c-.059-.017-.089-.073-.089-.169,0-.113.109-.181.327-.2a6.278,6.278,0,0,0,.705-.051,1.846,1.846,0,0,0,1.6-.952,4.012,4.012,0,0,0,.5-2.071,1.967,1.967,0,0,0-.524-1.547,1.778,1.778,0,0,0-1.2-.457,3.881,3.881,0,0,0-1.335.255,2.138,2.138,0,0,0-1.079.826q1.125,0,1.126.923a.928.928,0,0,1-.252.667.886.886,0,0,1-.67.264.9.9,0,0,1-.932-.949,2.112,2.112,0,0,1,.925-1.728,3.656,3.656,0,0,1,2.287-.707,3.811,3.811,0,0,1,2.285.7,2.107,2.107,0,0,1,.972,1.772,3.087,3.087,0,0,1-.687,1.95,3.679,3.679,0,0,1-1.777,1.241,3.812,3.812,0,0,1,2.19,1.191,3,3,0,0,1,.819,2.045,3.247,3.247,0,0,1-1.11,2.45,3.842,3.842,0,0,1-2.727,1.036,3.842,3.842,0,0,1-2.458-.811A2.475,2.475,0,0,1,10.756,1050.576Z" fill="#040000"/>
        <path d="M19.7,1047.253a9.974,9.974,0,0,1,.668-4.087,3.2,3.2,0,0,1,3.128-2.145,3.763,3.763,0,0,1,.954.128,3.2,3.2,0,0,1,1.107.611,3.483,3.483,0,0,1,1,1.274,10.077,10.077,0,0,1,.721,4.219,9.869,9.869,0,0,1-.668,4.06,3.258,3.258,0,0,1-3.129,2.092,3.6,3.6,0,0,1-1.631-.413,3.112,3.112,0,0,1-1.34-1.406A9.266,9.266,0,0,1,19.7,1047.253Zm1.494-.22a25.008,25.008,0,0,0,.193,3.8,2.782,2.782,0,0,0,.822,1.674,1.867,1.867,0,0,0,2.592-.035,2.8,2.8,0,0,0,.787-1.709,23.584,23.584,0,0,0,.194-3.727,23.523,23.523,0,0,0-.176-3.507,2.612,2.612,0,0,0-.865-1.639,2.1,2.1,0,0,0-1.262-.47,1.8,1.8,0,0,0-.488.07,2.969,2.969,0,0,0-.611.273,1.74,1.74,0,0,0-.637.7,4.052,4.052,0,0,0-.409,1.257A26.786,26.786,0,0,0,21.2,1047.033Z" fill="#040000"/>
        <path d="M28.994,1042.718a1.931,1.931,0,0,1,.585-1.415,1.989,1.989,0,0,1,2.83,0,2,2,0,0,1-1.42,3.388,1.9,1.9,0,0,1-1.42-.593A1.923,1.923,0,0,1,28.994,1042.718Zm1.1-.914a1.22,1.22,0,0,0-.378.909,1.192,1.192,0,0,0,.378.9,1.257,1.257,0,0,0,.9.361,1.226,1.226,0,0,0,.887-.361,1.2,1.2,0,0,0,.37-.9,1.275,1.275,0,0,0-1.257-1.278A1.24,1.24,0,0,0,30.092,1041.8Z" fill="#040000"/>
        <path d="M34.583,1053.01v-.563h.431a2.6,2.6,0,0,0,1.2-.162.822.822,0,0,0,.224-.69v-9.475a.8.8,0,0,0-.229-.681,2.589,2.589,0,0,0-1.2-.163h-.431v-.562q.633.053,2.664.053,2.011,0,2.645-.053v.562h-.431a2.6,2.6,0,0,0-1.2.163.812.812,0,0,0-.223.681v5.716l5.633-5.374a.815.815,0,0,0,.326-.6.615.615,0,0,0-.048-.224.589.589,0,0,0-.256-.242,1.028,1.028,0,0,0-.531-.123v-.562q.615.053,2.294.053,1.063,0,1.529-.053v.562a3.555,3.555,0,0,0-2.558,1.08l-3.243,3.109,4.157,6.113a1.9,1.9,0,0,0,.747.711,3.07,3.07,0,0,0,1.143.158v.563q-1.134-.054-2.065-.054-1.942,0-2.576.054v-.563q1.063,0,1.064-.544a1.331,1.331,0,0,0-.273-.615l-3.26-4.812-2.083,1.975v3.144a.825.825,0,0,0,.223.685,2.524,2.524,0,0,0,1.2.167h.431v.563q-.633-.054-2.663-.054Q35.216,1052.956,34.583,1053.01Z" fill="#040000"/>
      </g>
      <g>
        <path d="M1489.346,12.069v-.562a4.42,4.42,0,0,0,3.306-1.152c.191,0,.3.024.337.071a.918.918,0,0,1,.049.395V20.912a.76.76,0,0,0,.274.7,3.707,3.707,0,0,0,1.47.167h.593v.563q-.631-.054-2.917-.054t-2.91.054v-.563h.572a3.564,3.564,0,0,0,1.406-.162c.182-.108.272-.344.272-.707V11.6A5.6,5.6,0,0,1,1489.346,12.069Z" fill="#040000"/>
        <path d="M1497.731,22.344a1.8,1.8,0,0,1,.03-.422.72.72,0,0,1,.168-.246l3.427-3.85a6.23,6.23,0,0,0,1.894-3.989,3.389,3.389,0,0,0-.629-2.06,2.084,2.084,0,0,0-1.785-.859,2.426,2.426,0,0,0-1.447.478,2.731,2.731,0,0,0-.968,1.333.911.911,0,0,1,.233-.018.859.859,0,0,1,.685.284.983.983,0,0,1,.246.665.853.853,0,0,1-.306.723,1,1,0,0,1-.608.235,1.7,1.7,0,0,1-.28-.027.886.886,0,0,1-.41-.279.958.958,0,0,1-.25-.7,3.2,3.2,0,0,1,.944-2.253,3.15,3.15,0,0,1,2.391-1,3.879,3.879,0,0,1,2.71.978,3.236,3.236,0,0,1,1.074,2.5,3.269,3.269,0,0,1-.161,1.026,4.788,4.788,0,0,1-.375.866,5.592,5.592,0,0,1-.79.985c-.383.405-.73.751-1.037,1.039s-.809.736-1.5,1.346l-1.893,1.856h3.221a4.6,4.6,0,0,0,1.694-.141,5.632,5.632,0,0,0,.393-1.6h.448l-.5,3.129Z" fill="#040000"/>
        <path d="M1506.538,16.587a9.974,9.974,0,0,1,.668-4.087,3.2,3.2,0,0,1,3.128-2.145,3.763,3.763,0,0,1,.954.128,3.186,3.186,0,0,1,1.107.611,3.483,3.483,0,0,1,1,1.274,10.077,10.077,0,0,1,.721,4.219,9.869,9.869,0,0,1-.668,4.06,3.258,3.258,0,0,1-3.129,2.092,3.6,3.6,0,0,1-1.631-.413,3.112,3.112,0,0,1-1.34-1.406A9.266,9.266,0,0,1,1506.538,16.587Zm1.494-.22a25.008,25.008,0,0,0,.193,3.8,2.782,2.782,0,0,0,.822,1.674,1.867,1.867,0,0,0,2.592-.035,2.8,2.8,0,0,0,.787-1.709,23.708,23.708,0,0,0,.194-3.727,23.523,23.523,0,0,0-.176-3.507,2.612,2.612,0,0,0-.865-1.639,2.1,2.1,0,0,0-1.262-.47,1.8,1.8,0,0,0-.488.07,2.946,2.946,0,0,0-.611.273,1.74,1.74,0,0,0-.637.7,4.052,4.052,0,0,0-.409,1.257A26.786,26.786,0,0,0,1508.032,16.367Z" fill="#040000"/>
        <path d="M1515.828,12.052a1.931,1.931,0,0,1,.585-1.415,1.989,1.989,0,0,1,2.83,0,2,2,0,0,1-1.42,3.388,1.9,1.9,0,0,1-1.42-.593A1.923,1.923,0,0,1,1515.828,12.052Zm1.1-.914a1.22,1.22,0,0,0-.378.909,1.192,1.192,0,0,0,.378.9,1.257,1.257,0,0,0,.9.361,1.226,1.226,0,0,0,.887-.361,1.2,1.2,0,0,0,.37-.9,1.275,1.275,0,0,0-1.257-1.278A1.24,1.24,0,0,0,1516.926,11.138Z" fill="#040000"/>
        <path d="M1521.417,22.344v-.563a3.687,3.687,0,0,0,1.064-.127.959.959,0,0,0,.562-.369,1.441,1.441,0,0,0,.189-.4,1.868,1.868,0,0,0,.04-.435V11.058a.488.488,0,0,0-.065-.316.807.807,0,0,0-.374-.1q-.537-.036-.9-.036h-.519v-.562h3.059a.921.921,0,0,1,.325.035.7.7,0,0,1,.194.2l6.354,9.336V11.937a2.114,2.114,0,0,0-.035-.431,1.4,1.4,0,0,0-.189-.4.958.958,0,0,0-.567-.369,3.81,3.81,0,0,0-1.063-.123v-.562q1.889.053,2.1.053t2.106-.053v.562a3.817,3.817,0,0,0-1.064.123.932.932,0,0,0-.562.369,1.515,1.515,0,0,0-.189.409,1.818,1.818,0,0,0-.04.426v9.934a1.306,1.306,0,0,1-.035.383c-.023.06-.094.09-.211.09-.082,0-.185-.081-.308-.241l-7.347-10.79a1.86,1.86,0,0,0-.176-.22v9.353a2.172,2.172,0,0,0,.035.435,1.317,1.317,0,0,0,.19.4.977.977,0,0,0,.566.369,3.684,3.684,0,0,0,1.063.127v.563q-1.889-.054-2.1-.054T1521.417,22.344Z" fill="#040000"/>
        <path d="M1541.333,17.848q0-.215.431-.215c.035,0,.084,0,.145.009l.11.008h5.071v-5.1c0-.012,0-.046-.008-.1a1.363,1.363,0,0,1-.009-.137c0-.288.077-.431.232-.431s.234.143.234.431V17.65h5.08l.105-.008q.089-.009.141-.009.413,0,.417.215c0,.144-.142.215-.435.215a1.178,1.178,0,0,1-.132-.008c-.052-.006-.085-.009-.1-.009h-5.08V23.4c0,.275-.079.414-.234.414s-.232-.144-.232-.432a1.328,1.328,0,0,1,.009-.136c0-.056.008-.09.008-.1v-5.1h-5.071l-.118.009c-.068.006-.119.008-.154.008C1541.471,18.063,1541.333,17.992,1541.333,17.848Z" fill="#040000"/>
        <path d="M1555.062,19.621q0-2.011,2.593-3.31a10.714,10.714,0,0,1-1.319-.976,2.877,2.877,0,0,1-.791-1.976,2.779,2.779,0,0,1,.955-2.13,3.291,3.291,0,0,1,2.306-.874,3.629,3.629,0,0,1,2.268.747,2.327,2.327,0,0,1,.975,1.933q0,1.668-2.179,2.792a10.285,10.285,0,0,1,1.784,1.274,3.212,3.212,0,0,1,.879,2.212,3.142,3.142,0,0,1-1.108,2.436,3.822,3.822,0,0,1-2.636.99,4.113,4.113,0,0,1-2.611-.872A2.724,2.724,0,0,1,1555.062,19.621Zm.9,0a2.389,2.389,0,0,0,.84,1.862,2.921,2.921,0,0,0,2.008.746,3.173,3.173,0,0,0,1.983-.649,1.969,1.969,0,0,0,.847-1.616,1.93,1.93,0,0,0-.127-.7,1.759,1.759,0,0,0-.379-.584,3.9,3.9,0,0,0-.4-.378c-.1-.079-.25-.185-.443-.32l-2.215-1.4A3.454,3.454,0,0,0,1555.958,19.621Zm.378-6.964a1.728,1.728,0,0,0,.906,1.458l2.232,1.44a2.98,2.98,0,0,0,1.784-2.521,2.03,2.03,0,0,0-.729-1.594,2.562,2.562,0,0,0-1.74-.636,2.881,2.881,0,0,0-1.723.522A1.58,1.58,0,0,0,1556.336,12.657Z" fill="#040000"/>
      </g>
      <g>
        <path d="M1489.346,2139.726v-.563a4.424,4.424,0,0,0,3.306-1.151c.191,0,.3.023.337.07a.924.924,0,0,1,.049.4v10.09a.762.762,0,0,0,.274.7,3.727,3.727,0,0,0,1.47.167h.593V2150q-.631-.052-2.917-.054t-2.91.054v-.562h.572a3.538,3.538,0,0,0,1.406-.163c.182-.108.272-.343.272-.707v-9.317A5.6,5.6,0,0,1,1489.346,2139.726Z" fill="#040000"/>
        <path d="M1497.731,2150a1.811,1.811,0,0,1,.03-.422.74.74,0,0,1,.168-.246l3.427-3.85a6.23,6.23,0,0,0,1.894-3.988,3.387,3.387,0,0,0-.629-2.06,2.083,2.083,0,0,0-1.785-.86,2.42,2.42,0,0,0-1.447.479,2.724,2.724,0,0,0-.968,1.332.911.911,0,0,1,.233-.018.859.859,0,0,1,.685.284.985.985,0,0,1,.246.665.852.852,0,0,1-.306.723,1,1,0,0,1-.608.235,1.692,1.692,0,0,1-.28-.026.894.894,0,0,1-.41-.279.961.961,0,0,1-.25-.7,3.2,3.2,0,0,1,.944-2.253,3.15,3.15,0,0,1,2.391-1,3.874,3.874,0,0,1,2.71.978,3.236,3.236,0,0,1,1.074,2.5,3.274,3.274,0,0,1-.161,1.026,4.788,4.788,0,0,1-.375.866,5.592,5.592,0,0,1-.79.985c-.383.4-.73.751-1.037,1.038s-.809.737-1.5,1.346l-1.893,1.856h3.221a4.644,4.644,0,0,0,1.694-.14,5.644,5.644,0,0,0,.393-1.6h.448l-.5,3.129Z" fill="#040000"/>
        <path d="M1506.538,2144.243a9.974,9.974,0,0,1,.668-4.087,3.205,3.205,0,0,1,3.128-2.144,3.763,3.763,0,0,1,.954.128,3.2,3.2,0,0,1,1.107.61,3.483,3.483,0,0,1,1,1.274,10.077,10.077,0,0,1,.721,4.219,9.874,9.874,0,0,1-.668,4.061,3.259,3.259,0,0,1-3.129,2.092,3.6,3.6,0,0,1-1.631-.414,3.112,3.112,0,0,1-1.34-1.406A9.263,9.263,0,0,1,1506.538,2144.243Zm1.494-.22a25,25,0,0,0,.193,3.8,2.782,2.782,0,0,0,.822,1.675,1.869,1.869,0,0,0,2.592-.035,2.807,2.807,0,0,0,.787-1.71,35.461,35.461,0,0,0,.018-7.233,2.607,2.607,0,0,0-.865-1.639,2.1,2.1,0,0,0-1.262-.471,1.806,1.806,0,0,0-.488.071,2.882,2.882,0,0,0-.611.272,1.74,1.74,0,0,0-.637.7,4.052,4.052,0,0,0-.409,1.257A26.786,26.786,0,0,0,1508.032,2144.023Z" fill="#040000"/>
        <path d="M1515.828,2139.708a1.932,1.932,0,0,1,.585-1.415,1.988,1.988,0,0,1,2.83,0,2,2,0,0,1-1.42,3.388,1.9,1.9,0,0,1-1.42-.593A1.927,1.927,0,0,1,1515.828,2139.708Zm1.1-.914a1.223,1.223,0,0,0-.378.91,1.191,1.191,0,0,0,.378.9,1.253,1.253,0,0,0,.9.361,1.222,1.222,0,0,0,.887-.361,1.2,1.2,0,0,0,.37-.9,1.275,1.275,0,0,0-1.257-1.279A1.24,1.24,0,0,0,1516.926,2138.794Z" fill="#040000"/>
        <path d="M1521.417,2150v-.562a3.687,3.687,0,0,0,1.064-.127.955.955,0,0,0,.562-.37,1.428,1.428,0,0,0,.189-.4,1.858,1.858,0,0,0,.04-.434v-9.388a.49.49,0,0,0-.065-.317.807.807,0,0,0-.374-.1c-.358-.024-.657-.035-.9-.035h-.519v-.563h3.059a.921.921,0,0,1,.325.035.713.713,0,0,1,.194.2l6.354,9.336v-7.684a2.1,2.1,0,0,0-.035-.43,1.4,1.4,0,0,0-.189-.4.958.958,0,0,0-.567-.369,3.81,3.81,0,0,0-1.063-.123v-.563q1.889.052,2.1.053t2.106-.053v.563a3.817,3.817,0,0,0-1.064.123.932.932,0,0,0-.562.369,1.525,1.525,0,0,0-.189.408,1.818,1.818,0,0,0-.04.426v9.934a1.309,1.309,0,0,1-.035.384c-.023.06-.094.089-.211.089-.082,0-.185-.08-.308-.241l-7.347-10.789a1.782,1.782,0,0,0-.176-.22v9.353a2.161,2.161,0,0,0,.035.434,1.307,1.307,0,0,0,.19.4.973.973,0,0,0,.566.37,3.684,3.684,0,0,0,1.063.127V2150q-1.889-.052-2.1-.054T1521.417,2150Z" fill="#040000"/>
        <path d="M1541.333,2145.505q0-.216.431-.216c.035,0,.084,0,.145.009l.11.009h5.071v-5.1c0-.012,0-.045-.008-.1a1.328,1.328,0,0,1-.009-.136q0-.432.232-.432c.155,0,.234.144.234.432v5.334h5.08c.011,0,.047,0,.105-.009s.106-.009.141-.009q.413,0,.417.216t-.435.215a1.213,1.213,0,0,1-.132-.009c-.052-.006-.085-.009-.1-.009h-5.08v5.353c0,.275-.079.413-.234.413s-.232-.144-.232-.431a1.345,1.345,0,0,1,.009-.137c0-.055.008-.089.008-.1v-5.1h-5.071l-.118.009c-.068.006-.119.009-.154.009Q1541.333,2145.72,1541.333,2145.505Z" fill="#040000"/>
        <path d="M1555.062,2147.277q0-2.01,2.593-3.31a10.754,10.754,0,0,1-1.319-.975,2.879,2.879,0,0,1-.791-1.976,2.779,2.779,0,0,1,.955-2.13,3.291,3.291,0,0,1,2.306-.874,3.629,3.629,0,0,1,2.268.747,2.324,2.324,0,0,1,.975,1.932q0,1.67-2.179,2.792a10.4,10.4,0,0,1,1.784,1.274,3.216,3.216,0,0,1,.879,2.213,3.138,3.138,0,0,1-1.108,2.435,3.823,3.823,0,0,1-2.636.991,4.114,4.114,0,0,1-2.611-.873A2.724,2.724,0,0,1,1555.062,2147.277Zm.9,0a2.391,2.391,0,0,0,.84,1.863,2.921,2.921,0,0,0,2.008.746,3.174,3.174,0,0,0,1.983-.65,1.966,1.966,0,0,0,.847-1.616,1.924,1.924,0,0,0-.127-.7,1.759,1.759,0,0,0-.379-.584,3.9,3.9,0,0,0-.4-.378c-.1-.079-.25-.185-.443-.32l-2.215-1.4A3.455,3.455,0,0,0,1555.958,2147.277Zm.378-6.964a1.727,1.727,0,0,0,.906,1.458l2.232,1.44a2.978,2.978,0,0,0,1.784-2.521,2.028,2.028,0,0,0-.729-1.593,2.563,2.563,0,0,0-1.74-.637,2.888,2.888,0,0,0-1.723.522A1.58,1.58,0,0,0,1556.336,2140.313Z" fill="#040000"/>
      </g>
    </g>
    <g>
      <path d="M3020.171,2057.875v-4.949h11.393v-61.915h-11.393v-4.949h63.875l3.248,25.466h-4.949a64.147,64.147,0,0,0-1.16-6.924,28.465,28.465,0,0,0-2.011-5.557,11.427,11.427,0,0,0-3.531-4.444,18.046,18.046,0,0,0-5.748-2.584,31.777,31.777,0,0,0-8.533-1.008h-14.8v28.457h5.259q7.062,0,9.073-2.862t2.011-9.511h5v29.643h-5q0-6.649-2.011-9.486t-9.073-2.835h-5.259v28.509H3060.8v4.949q-4.639-.309-21.291-.31Q3024.192,2057.565,3020.171,2057.875Z" fill="#040000"/>
      <path d="M3095.232,2057.875v-3.465h7.976v-43.341h-7.976v-3.464h45.9l2.273,17.828h-3.464a42.264,42.264,0,0,0-.848-5.011,16.681,16.681,0,0,0-1.516-3.889,8.793,8.793,0,0,0-2.58-3.039,12.093,12.093,0,0,0-4.078-1.773,24.224,24.224,0,0,0-5.99-.652h-11.224v19.019h4.078q4.944,0,6.388-2t1.443-6.658h3.465v20.786h-3.465q0-4.656-1.443-6.658t-6.388-2h-4.078v20.858h11.221a31.8,31.8,0,0,0,5.881-.486,12.132,12.132,0,0,0,4.33-1.624,16.036,16.036,0,0,0,2.994-2.437,10.285,10.285,0,0,0,2.038-3.41,24.109,24.109,0,0,0,1.186-4.037q.374-1.924.931-4.786h3.5l-3.422,20.245Z" fill="#040000"/>
      <path d="M3151.023,2057.875v-3.465H3159v-43.773h-7.976v-3.465q2.815.216,13.534.217,11.693,0,14.9-.217v3.465H3169.5v43.773h7.615a16.741,16.741,0,0,0,5-.7,13.5,13.5,0,0,0,3.681-1.7,10.86,10.86,0,0,0,2.616-2.67,20.535,20.535,0,0,0,1.786-2.924,16.218,16.218,0,0,0,1.065-3.248,28.767,28.767,0,0,0,.578-2.959q.106-.956.375-2.58h3.666l-2.444,20.245Z" fill="#040000"/>
      <path d="M3201.654,2057.875v-3.465h8.408v-43.773h-8.408v-3.465q3.032.216,13.659.217t13.66-.217v3.465h-8.41v43.773h8.41v3.465q-3.033-.217-13.66-.217T3201.654,2057.875Z" fill="#040000"/>
      <path d="M3234.276,2057.875v-3.465h1.841a33.693,33.693,0,0,0,4.006-.216,4.019,4.019,0,0,0,1.84-.415q.288-.27.289-1.534v-41.608h-7.976v-3.465H3251.2a4.85,4.85,0,0,1,1.48.144,2.932,2.932,0,0,1,.938.83l29.447,34.573V2012.8q0-1.263-.3-1.516a4.914,4.914,0,0,0-1.921-.432,35.467,35.467,0,0,0-3.881-.217h-1.867v-3.465q3.024.216,9.978.217,7.1,0,9.869-.217v3.465h-1.832a33.337,33.337,0,0,0-3.987.217,4,4,0,0,0-1.833.415q-.286.269-.287,1.533v42.691a4.13,4.13,0,0,1-.291,1.931q-.292.452-1.712.451a2.819,2.819,0,0,1-1.155-.145,4.134,4.134,0,0,1-.831-.83l-36.825-43.3v38.649c0,.843.095,1.354.289,1.534a4.233,4.233,0,0,0,1.912.415,36.074,36.074,0,0,0,3.933.216h1.841v3.465q-3.032-.217-10-.217Q3237.092,2057.658,3234.276,2057.875Z" fill="#040000"/>
      <path d="M3300.785,2057.875v-3.465h7.976v-43.773h-7.976v-3.465q2.815.216,13.227.217t13.225-.217v3.465h-7.975v23.673l27.354-22.843c-.192-.048-.3-.1-.325-.145,0-.095-.216-.192-.649-.288a24.472,24.472,0,0,0-4.294-.4v-3.465q2.67.216,10.79.217,4.581,0,7.542-.217v3.465h-1.263q-5.305,0-6.929,1.335l-17.755,14.8,19.956,26.163a3.222,3.222,0,0,0,1.48,1.227,14.939,14.939,0,0,0,3.572.252h2.13v3.465q-2.744-.217-10.79-.217-9.962,0-13.028.217v-3.465a15.33,15.33,0,0,0,5.413-.613,3.2,3.2,0,0,0-.577-1.01l-15.229-20.029-7.4,6.136v15.516h7.975v3.465q-2.814-.217-13.225-.217T3300.785,2057.875Z" fill="#040000"/>
      <path d="M3366.935,2057.875v-3.465h8.408v-43.773h-8.408v-3.465q3.03.216,13.659.217t13.659-.217v3.465h-8.409v43.773h8.409v3.465q-3.033-.217-13.659-.217T3366.935,2057.875Z" fill="#040000"/>
      <path d="M3399.7,2057.875v-3.465h1.552a18.551,18.551,0,0,0,4.872-.38,2.229,2.229,0,0,0,1.407-1.321l18.332-44.49a5.661,5.661,0,0,1,.506-1.155,1.677,1.677,0,0,1,.776-.559,4.319,4.319,0,0,1,1.606-.234,5.583,5.583,0,0,1,1.19.089,2.457,2.457,0,0,1,.884.524,3.273,3.273,0,0,1,.885,1.335l18.909,46.191h7.182v3.465q-2.6-.217-12.053-.217-10.213,0-13.028.217v-3.465h7.037l-4.439-10.826h-19.811l-3.682,8.98a1.186,1.186,0,0,0-.288.869q0,.978,6.567.977v3.465q-2.742-.217-9.743-.217Q3408.109,2057.658,3399.7,2057.875Zm17.286-17.755h16.853l-8.408-20.534Z" fill="#040000"/>
      <path d="M3504.741,2041.43v-4.95l36.8-46.19a4.76,4.76,0,0,1,1.469-1.418,6.361,6.361,0,0,1,2.139-.233q2.121,0,2.64.568a4.711,4.711,0,0,1,.518,2.786v44.487h10.208v4.95H3548.3v11.5h10.208v4.949q-3.708-.309-17.1-.31-14.1,0-18.116.31v-4.949h11.5v-11.5Zm5.413-4.95h26.086v-32.736Z" fill="#040000"/>
      <path d="M3567.017,2043.183a8.165,8.165,0,0,1,2.152-6.058,7.792,7.792,0,0,1,5.745-2.14,8.24,8.24,0,0,1,5.915,2.211,7.591,7.591,0,0,1,2.324,5.759q0,6.222-6.3,7.918a24.507,24.507,0,0,0,13.421,3.548,10.863,10.863,0,0,0,5.411-1.261,9.857,9.857,0,0,0,3.3-2.779,11.758,11.758,0,0,0,1.665-4.04,21.669,21.669,0,0,0,.65-3.963q.052-1.442.053-3.655,0-2.314-.052-3.731a20.819,20.819,0,0,0-.7-3.989,11.483,11.483,0,0,0-1.758-4.066,9.848,9.848,0,0,0-3.439-2.7,11.977,11.977,0,0,0-5.585-1.21h-4.656q-1.206,0-1.678-.052a1.609,1.609,0,0,1-.919-.477,1.908,1.908,0,0,1-.445-1.426q0-1.745,1.3-1.849,1.2-.213,5.1-.423a10.416,10.416,0,0,0,4.656-1.207,8.328,8.328,0,0,0,3.13-2.876,27.633,27.633,0,0,0,1.863-3.465,14.637,14.637,0,0,0,1.06-3.7q.311-2,.363-2.9t.051-1.618q0-10.216-9.105-10.219a18.4,18.4,0,0,0-11.748,3.784q6.264,1.484,6.264,7.361a7.029,7.029,0,0,1-2.053,5.112,8.036,8.036,0,0,1-10.791.034,7.077,7.077,0,0,1-2.158-5.361q0-6.444,5.838-10.8t15.269-4.356q10.738,0,16.8,4.22t6.063,10.534a15.049,15.049,0,0,1-4.4,10.857,24.67,24.67,0,0,1-10.5,6.449,33.729,33.729,0,0,1,9.229,3.358,16.716,16.716,0,0,1,5.722,4.853,19.943,19.943,0,0,1,2.631,5.062,15.8,15.8,0,0,1,.772,4.906q0,8.157-6.71,14.2t-19.923,6.04q-10.348,0-17.092-4.408T3567.017,2043.183Z" fill="#040000"/>
      <path d="M3627.438,2029.469q-.053-2.112-.051-5.284t.051-5.288a61.82,61.82,0,0,1,.593-6.169,41.711,41.711,0,0,1,1.444-6.92,36.825,36.825,0,0,1,2.783-6.352,18.974,18.974,0,0,1,4.485-5.653,21.921,21.921,0,0,1,6.754-3.641,28.126,28.126,0,0,1,9.434-1.472,27.5,27.5,0,0,1,9.461,1.524,23,23,0,0,1,6.753,3.64,18.686,18.686,0,0,1,4.485,5.654,38.414,38.414,0,0,1,2.809,6.351,38.988,38.988,0,0,1,1.418,6.869q.514,4.053.567,6.169t.052,5.288q0,3.171-.052,5.336t-.567,6.134a38.167,38.167,0,0,1-1.418,6.754,34.231,34.231,0,0,1-2.809,6.16,18.792,18.792,0,0,1-4.537,5.491,22.529,22.529,0,0,1-6.8,3.557,28.441,28.441,0,0,1-9.331,1.444,27.868,27.868,0,0,1-9.435-1.5,23.777,23.777,0,0,1-6.779-3.556,17.816,17.816,0,0,1-4.485-5.49,37.393,37.393,0,0,1-2.783-6.162,38.054,38.054,0,0,1-1.444-6.753A60.808,60.808,0,0,1,3627.438,2029.469Zm13.456-6.547q0,16.807.979,22.271.927,5.156,4.253,7.6a11.4,11.4,0,0,0,6.831,2.449,12.52,12.52,0,0,0,4.124-.7,10.61,10.61,0,0,0,4.279-3.377,13.809,13.809,0,0,0,2.887-7.217q.722-5.464.722-21.034,0-19.848-1.8-23.766a10.336,10.336,0,0,0-4.226-4.949,11.442,11.442,0,0,0-5.981-1.7,14.455,14.455,0,0,0-3.866.541,10.351,10.351,0,0,0-4.383,3.119,11.694,11.694,0,0,0-2.938,6.805Q3640.893,2008.436,3640.894,2022.922Z" fill="#040000"/>
      <path d="M3689.353,2057.875v-1.907a6.912,6.912,0,0,1,.2-2.165,5.723,5.723,0,0,1,1.119-1.393l21.072-21.652q11.424-11.6,11.425-21.962a16.076,16.076,0,0,0-3.7-10.723q-3.7-4.382-10.261-4.382a16.35,16.35,0,0,0-10.81,3.661,10.728,10.728,0,0,1,2.289.9,7.622,7.622,0,0,1,2.39,2.4,7.328,7.328,0,0,1,1.271,4.331,6.867,6.867,0,0,1-2.365,5.645,7.982,7.982,0,0,1-5.162,1.934,8.3,8.3,0,0,1-5.034-1.831q-2.44-1.829-2.441-5.954,0-7.064,6.443-11.547t16.055-4.486q11.211,0,18.459,5.49a17.283,17.283,0,0,1,7.246,14.461,18.862,18.862,0,0,1-1.047,6.547,18.182,18.182,0,0,1-3.98,5.955,54.564,54.564,0,0,1-5.433,5.129q-2.5,2.011-8.162,6.187-4.965,3.609-15.241,12.167h15.431q9.534,0,10.714-.619,1.384-.721,2.768-9.641h4.95l-3.3,23.457Z" fill="#040000"/>
    </g>
    <g>
      <g>
        <path d="M3670.771,1939.7a.568.568,0,0,1,.335-.57,1.884,1.884,0,0,1,.819-.143,3.989,3.989,0,0,0,1.177-.2,3.282,3.282,0,0,0,1.246-.694,2.482,2.482,0,0,1,.441-.34,1.256,1.256,0,0,1,.46-.056c.516,0,.772.277.772.827v11.295h1.369q.8,0,.8.7,0,.679-.807.679h-5.531a.881.881,0,0,1-.533-.142.6.6,0,0,1-.233-.272.831.831,0,0,1-.042-.262.92.92,0,0,1,.041-.266.628.628,0,0,1,.247-.285.892.892,0,0,1,.543-.152h1.569v-9.7a10.429,10.429,0,0,1-1.836.26Q3670.772,1940.384,3670.771,1939.7Z" fill="#040000"/>
        <path d="M3680.445,1945.093v-.635q0-4.22,1.419-5.655a3.94,3.94,0,0,1,2.959-1.105,4.22,4.22,0,0,1,2.036.46,3.584,3.584,0,0,1,1.287,1.1,5.132,5.132,0,0,1,.69,1.625,9.472,9.472,0,0,1,.3,1.7c.031.476.047,1.041.047,1.689v.12c0,.061,0,.175.008.343s.01.311.01.426q0,1.061-.074,1.88a8.722,8.722,0,0,1-.347,1.724,4.394,4.394,0,0,1-.739,1.487,3.544,3.544,0,0,1-1.29.972,4.587,4.587,0,0,1-1.96.386,3.84,3.84,0,0,1-3.032-1.168Q3680.445,1948.993,3680.445,1945.093Zm2.576-.5a17.358,17.358,0,0,0,.332,4.455,2.249,2.249,0,0,0,.52.8,1.261,1.261,0,0,0,.94.384,1.212,1.212,0,0,0,.923-.376,2.382,2.382,0,0,0,.512-.788,16.346,16.346,0,0,0,.359-4.437v-.128q0-2.117-.078-3.048a4.353,4.353,0,0,0-.318-1.443,1.5,1.5,0,0,0-1.4-.936,1.405,1.405,0,0,0-1.117.5,2.476,2.476,0,0,0-.571,1.471Q3683.022,1942.021,3683.021,1944.6Z" fill="#040000"/>
        <path d="M3690.8,1945.093v-.635q0-4.22,1.419-5.655a3.937,3.937,0,0,1,2.959-1.105,4.223,4.223,0,0,1,2.036.46,3.588,3.588,0,0,1,1.286,1.1,5.132,5.132,0,0,1,.69,1.625,9.385,9.385,0,0,1,.3,1.7c.031.476.047,1.041.047,1.689v.12c0,.061,0,.175.009.343s.01.311.01.426q0,1.061-.075,1.88a8.717,8.717,0,0,1-.346,1.724,4.414,4.414,0,0,1-.74,1.487,3.535,3.535,0,0,1-1.29.972,4.584,4.584,0,0,1-1.96.386,3.841,3.841,0,0,1-3.032-1.168Q3690.8,1948.993,3690.8,1945.093Zm2.575-.5a17.358,17.358,0,0,0,.332,4.455,2.263,2.263,0,0,0,.52.8,1.263,1.263,0,0,0,.941.384,1.213,1.213,0,0,0,.923-.376,2.394,2.394,0,0,0,.511-.788,16.288,16.288,0,0,0,.36-4.437v-.128q0-2.117-.078-3.048a4.35,4.35,0,0,0-.319-1.443,1.5,1.5,0,0,0-1.4-.936,1.4,1.4,0,0,0-1.116.5,2.47,2.47,0,0,0-.571,1.471Q3693.377,1942.021,3693.377,1944.6Z" fill="#040000"/>
        <path d="M3708.57,1950.316v-11.891q0-.828.9-.827h.549a1.3,1.3,0,0,1,.535.1.5.5,0,0,1,.279.277,1.232,1.232,0,0,1,.079.271c.006.062.01.15.01.267v6.98l1.37-1.278a19.967,19.967,0,0,1,1.609-1.431,1.566,1.566,0,0,1,.866-.207h1.241c.275.013.432.127.468.341a.963.963,0,0,1-.349.548q-.332.317-2.832,2.616.018.019,3.256,4.277a.935.935,0,0,1,.192.431c0,.277-.189.414-.57.414h-.993a1.4,1.4,0,0,1-.575-.092,1.563,1.563,0,0,1-.483-.45l-2.373-3.127-.864.79v2.052q0,.828-.9.827h-.481a1.482,1.482,0,0,1-.535-.082.489.489,0,0,1-.285-.244,1.154,1.154,0,0,1-.093-.275A1.714,1.714,0,0,1,3708.57,1950.316Z" fill="#040000"/>
        <path d="M3718.366,1950.354v-7.045a.74.74,0,0,1,.846-.829h.754a1.685,1.685,0,0,1,.29.019,1.452,1.452,0,0,1,.266.083.416.416,0,0,1,.235.244,1.234,1.234,0,0,1,.074.464v.378c.238-.228.427-.4.565-.521a4.721,4.721,0,0,1,2.506-.786,3.658,3.658,0,0,1,1.719.331,1.969,1.969,0,0,1,.894,1.068,3.88,3.88,0,0,1,3.135-1.4,4.121,4.121,0,0,1,1.366.2,2.433,2.433,0,0,1,.831.455,1.628,1.628,0,0,1,.42.736,3.608,3.608,0,0,1,.161.791q.018.313.018.873v4.94a.959.959,0,0,1-.179.629.883.883,0,0,1-.7.216h-.83a2.077,2.077,0,0,1-.272-.017.861.861,0,0,1-.208-.056.508.508,0,0,1-.139-.087.9.9,0,0,1-.105-.115.889.889,0,0,1-.079-.111.351.351,0,0,1-.037-.142.7.7,0,0,0-.018-.124.43.43,0,0,1-.01-.119v-5.235c0-.238-.006-.421-.018-.547a1.513,1.513,0,0,0-.12-.431.681.681,0,0,0-.341-.36,1.5,1.5,0,0,0-.637-.115,1.791,1.791,0,0,0-1.281.479,2.539,2.539,0,0,0-.7,1.086,3.83,3.83,0,0,0-.092.974v4.006a1.184,1.184,0,0,1-.046.248,1.145,1.145,0,0,1-.123.308.85.85,0,0,1-.243.244.7.7,0,0,1-.413.114h-.861a.9.9,0,0,1-.706-.216.948.948,0,0,1-.184-.629v-5.243a1.878,1.878,0,0,0-.224-1.052.994.994,0,0,0-.86-.319,1.989,1.989,0,0,0-1.454.631,2.391,2.391,0,0,0-.625,1.762v4.221a.747.747,0,0,1-.846.845h-.846Q3718.366,1951.2,3718.366,1950.354Z" fill="#040000"/>
      </g>
      <polyline points="3744 1951.2 3744 1960.103 3531.176 1960.103 3531.176 1951.2" fill="none" stroke="#040000" stroke-miterlimit="10"/>
    </g>
  </g>
</svg>
