<svg xmlns="http://www.w3.org/2000/svg" width="720" height="1440" viewBox="0 0 720 1440">
  <g>
    <rect width="40" height="1440" fill="#fff"/>
    <polygon points="80 0 40 0 40 1439.999 80 1439.999 120 1439.999 120 0 80 0" fill="#197ebc"/>
    <polygon points="160 0 120 0 120 1439.999 160 1439.999 200 1439.999 200 0 160 0" fill="#fff"/>
    <rect x="200" width="40" height="1440" fill="#197ebc"/>
    <polygon points="440 0 400 0 360 0 320 0 280 0 240 0 240 1439.999 280 1439.999 320 1439.999 360 1439.999 400 1439.999 440 1439.999 480 1439.999 480 0 440 0" fill="#000050"/>
    <rect x="480" width="40" height="1440" fill="#197ebc"/>
    <polygon points="560 0 520 0 520 1439.999 560 1439.999 600 1439.999 600 0 560 0" fill="#fff"/>
    <polygon points="640 0 600 0 600 1439.999 640 1439.999 680 1439.999 680 0 640 0" fill="#197ebc"/>
    <rect x="680" width="40" height="1440" fill="#fff"/>
  </g>
</svg>
