<svg xmlns="http://www.w3.org/2000/svg" width="2160" height="1440" viewBox="0 0 2160 1440">
  <g>
    <rect width="120" height="1440" fill="#fff"/>
    <polygon points="240 0 120 0 120 1439.999 240 1439.999 360 1439.999 360 0 240 0" fill="#197ebc"/>
    <polygon points="480 0 360 0 360 1439.999 480 1439.999 600 1439.999 600 0 480 0" fill="#fff"/>
    <rect x="600" width="120" height="1440" fill="#197ebc"/>
    <polygon points="1320 0 1200 0 1080 0 960 0 840 0 720 0 720 1439.999 840 1439.999 960 1439.999 1080 1439.999 1200 1439.999 1320 1439.999 1440 1439.999 1440 0 1320 0" fill="#000050"/>
    <rect x="1440" width="120" height="1440" fill="#197ebc"/>
    <polygon points="1680 0 1560 0 1560 1439.999 1680 1439.999 1800 1439.999 1800 0 1680 0" fill="#fff"/>
    <polygon points="1920 0 1800 0 1800 1439.999 1920 1439.999 2040 1439.999 2040 0 1920 0" fill="#197ebc"/>
    <rect x="2040" width="120" height="1440" fill="#fff"/>
  </g>
</svg>
