<svg xmlns="http://www.w3.org/2000/svg" width="2160" height="1440" viewBox="0 0 2160 1440">
  <rect width="2160" height="1440" fill="#cc0d0d"/>
  <path d="M1412.7,706.026c0,213.2-172.832,386.042-386.042,386.042-127.931,0-241.325-62.23-311.565-158.064a403.021,403.021,0,0,0,105.336,13.922c222.274,0,402.462-180.188,402.462-402.462a400.55,400.55,0,0,0-51.739-197.532C1312.777,405.128,1412.7,543.909,1412.7,706.026Z" fill="#f9db00"/>
  <g>
    <polygon points="834.281 367.677 727.677 367.677 727.677 474.281 697.677 474.281 697.676 337.676 834.281 337.677 834.281 367.677" fill="#f9db00"/>
    <rect x="1098.725" y="186.557" width="30" height="1134.335" transform="translate(-206.761 1008.283) rotate(-45)" fill="#f9db00"/>
  </g>
</svg>
