<svg xmlns="http://www.w3.org/2000/svg" viewBox="0 0 60 40"><defs><clipPath id="a"><path d="M0 0h60v40H0z"/></clipPath></defs><g style="clip-path:url(#a)"><path fill="#3b2cb0" d="M0 0h60v40H0z"/><path fill="#378546" d="M11 40h13V27L11 40zM37 0H24v13L37 0zM0 13h24v7H0zM24 20h36v7H24z"/><path d="M11 0h13v13L11 0zM37 40H24V27l13 13zM0 20h24v7H0zM24 13h36v7H24z"/><g stroke="#fff" stroke-width="3"><path d="M0 13h60M0 20h60M0 27h60M24 0v40M24 13 40-3M24 27 8 43M24 27l16 16M24 13 8-3"/><circle cx="24" cy="20" r="6"/></g></g></svg>