<?xml version="1.0" encoding="UTF-8"?>
<svg id="a" data-name="레이어 1" xmlns="http://www.w3.org/2000/svg" width="1440" height="104.114" viewBox="0 0 1440 104.114">
  <path d="M6.946,87.833L85.469,22.91H37.369L47.407,1.383h82.045l-6.946,14.897L43.935,81.202h48.148l-10.038,21.527H0l6.946-14.897Z" fill="#b51c74"/>
  <path d="M87.902,102.729L168.808,1.383h36.273l-13.608,101.346h-28.75l11.879-74.08h-.791l-57.158,74.08h-28.75Zm98.067-39.985l-9.369,20.092h-55.62l9.369-20.092h55.62Z" fill="#b51c74"/>
  <path d="M281.337,26.843c-.344-1.599-1.33-2.82-2.968-3.66-1.638-.841-3.957-1.263-6.959-1.263-2.837,0-5.378,.355-7.62,1.064-2.244,.709-4.113,1.675-5.606,2.896-1.494,1.221-2.635,2.64-3.42,4.256-1.316,2.541-1.202,4.595,.345,6.161,1.543,1.565,4.513,2.879,8.902,3.934l7.607,1.83c6.422,1.584,11.304,3.777,14.649,6.581,3.342,2.806,5.186,6.245,5.529,10.318,.343,4.075-.699,8.752-3.126,14.03-3.079,6.532-7.333,12.116-12.761,16.751-5.426,4.633-11.757,8.163-18.99,10.589-7.235,2.424-15.106,3.637-23.617,3.637-8.874,0-15.916-1.311-21.127-3.932-5.21-2.623-8.324-6.648-9.338-12.076-1.018-5.424,.336-12.198,4.052-20.312h25.386c-1.282,3.101-1.698,5.724-1.244,7.869,.451,2.145,1.702,3.76,3.752,4.849,2.048,1.087,4.854,1.633,8.417,1.633,2.969,0,5.686-.38,8.152-1.139,2.466-.758,4.547-1.813,6.251-3.166,1.702-1.351,2.994-2.936,3.873-4.751,.738-1.647,.887-3.085,.45-4.306-.439-1.219-1.563-2.308-3.376-3.265-1.814-.957-4.411-1.847-7.785-2.671l-9.182-2.277c-8.332-2.012-13.891-5.336-16.679-9.972-2.787-4.633-2.388-10.761,1.199-18.382,2.905-6.304,7.213-11.877,12.921-16.726,5.71-4.849,12.267-8.618,19.672-11.308,7.405-2.688,15.052-4.031,22.935-4.031,8.018,0,14.378,1.36,19.079,4.081,4.704,2.722,7.521,6.549,8.454,11.48,.932,4.931-.101,10.647-3.098,17.146h-25.533c.879-2.308,1.147-4.264,.805-5.865Z" fill="#b51c74"/>
  <path d="M379.479,80.163c-7.935,7.819-16.565,13.765-25.886,17.841-9.323,4.075-18.62,6.111-27.889,6.111-9.338,0-16.759-2.035-22.263-6.111-5.508-4.075-8.572-10.028-9.188-17.864-.62-7.835,1.611-17.196,6.687-28.083,5.092-10.92,11.602-20.306,19.538-28.158,7.932-7.85,16.544-13.797,25.835-17.838,9.29-4.042,18.602-6.06,27.94-6.06,9.269,0,16.674,2.019,22.212,6.06s8.622,9.988,9.25,17.838c.625,7.852-1.606,17.238-6.698,28.158-5.092,10.918-11.606,20.289-19.538,28.106Zm-3-43.867c.358-4.306-.57-7.554-2.777-9.749-2.212-2.193-5.643-3.29-10.293-3.29s-9.09,1.097-13.312,3.29c-4.224,2.195-8.18,5.443-11.87,9.749-3.69,4.304-6.982,9.56-9.874,15.761-2.892,6.203-4.493,11.438-4.802,15.711-.31,4.274,.616,7.521,2.777,9.749,2.161,2.226,5.569,3.339,10.221,3.339s9.111-1.112,13.384-3.339c4.27-2.228,8.228-5.475,11.87-9.749,3.642-4.272,6.909-9.508,9.801-15.711,2.892-6.201,4.518-11.457,4.876-15.761Z" fill="#b51c74"/>
  <path d="M428.933,1.383h26.671l-37.22,79.819h41.322l-10.038,21.527h-67.992L428.933,1.383Z" fill="#b51c74"/>
  <path d="M481.527,102.729h-26.671L502.115,1.383h26.671l-47.258,101.346Z" fill="#b51c74"/>
  <path d="M574.171,102.729h-22.319l-12.159-54.68h-.644l-25.499,54.68h-26.671L534.138,1.383h22.761l11.635,54.533h.793L594.757,1.383h26.673l-47.258,101.346Z" fill="#b51c74"/>
  <path d="M608.352,102.729h-26.671L628.94,1.383h26.671l-47.258,101.346Zm-15.635,0l10.569-22.665h26.572c5.443,0,10.366-.881,14.769-2.646,4.401-1.765,8.489-4.694,12.262-8.786,3.771-4.088,7.279-9.615,10.526-16.575,3.244-6.96,4.881-12.504,4.908-16.628,.025-4.123-1.387-7.051-4.241-8.784-2.856-1.731-7.12-2.598-12.794-2.598h-26.277l10.569-22.665h27.661c10.326,0,18.361,2.012,24.106,6.039,5.743,4.025,8.88,9.854,9.409,17.492s-1.643,16.684-6.52,27.143-11.126,19.488-18.745,27.09c-7.621,7.607-16.162,13.436-25.626,17.496-9.464,4.056-19.326,6.085-29.585,6.085h-27.562Z" fill="#b51c74"/>
  <path d="M668.457,102.729L749.362,1.383h36.273l-13.608,101.346h-28.75l11.879-74.08h-.791l-57.158,74.08h-28.75Zm98.069-39.985l-9.369,20.092h-55.62l9.369-20.092h55.62Z" fill="#b51c74"/>
  <path d="M859.742,26.843c-.344-1.599-1.33-2.82-2.969-3.66-1.637-.841-3.955-1.263-6.958-1.263-2.837,0-5.378,.355-7.621,1.064s-4.113,1.675-5.605,2.896c-1.494,1.221-2.636,2.64-3.42,4.256-1.316,2.541-1.202,4.595,.344,6.161,1.544,1.565,4.514,2.879,8.903,3.934l7.607,1.83c6.421,1.584,11.304,3.777,14.649,6.581,3.341,2.806,5.185,6.245,5.529,10.318,.342,4.075-.699,8.752-3.127,14.03-3.078,6.532-7.332,12.116-12.76,16.751-5.426,4.633-11.757,8.163-18.99,10.589-7.235,2.424-15.106,3.637-23.617,3.637-8.874,0-15.916-1.311-21.127-3.932-5.21-2.623-8.324-6.648-9.338-12.076-1.018-5.424,.336-12.198,4.052-20.312h25.386c-1.282,3.101-1.698,5.724-1.244,7.869,.451,2.145,1.702,3.76,3.752,4.849,2.048,1.087,4.854,1.633,8.417,1.633,2.969,0,5.685-.38,8.152-1.139,2.466-.758,4.547-1.813,6.251-3.166,1.702-1.351,2.994-2.936,3.872-4.751,.739-1.647,.888-3.085,.451-4.306-.439-1.219-1.563-2.308-3.376-3.265-1.815-.957-4.411-1.847-7.785-2.671l-9.183-2.277c-8.331-2.012-13.891-5.336-16.678-9.972-2.787-4.633-2.388-10.761,1.198-18.382,2.906-6.304,7.214-11.877,12.922-16.726,5.71-4.849,12.267-8.618,19.672-11.308,7.405-2.688,15.052-4.031,22.935-4.031,8.018,0,14.378,1.36,19.079,4.081,4.703,2.722,7.521,6.549,8.454,11.48,.932,4.931-.101,10.647-3.099,17.146h-25.533c.879-2.308,1.148-4.264,.806-5.865Z" fill="#b51c74"/>
  <path d="M905.16,1.383h26.671l-18.598,39.886h37.412L969.243,1.383h26.671l-47.258,101.346h-26.671l18.6-39.884h-37.412l-18.6,39.884h-26.671L905.16,1.383Z" fill="#b51c74"/>
  <path d="M954.136,102.729L1035.042,1.383h36.273l-13.608,101.346h-28.75l11.879-74.08h-.791l-57.158,74.08h-28.75Zm98.069-39.985l-9.369,20.092h-55.62l9.369-20.092h55.62Z" fill="#b51c74"/>
  <path d="M1108.255,1.383h26.671l-37.219,79.819h41.322l-10.039,21.527h-67.992L1108.255,1.383Z" fill="#b51c74"/>
  <path d="M1160.847,102.729h-26.671L1181.435,1.383h26.671l-47.258,101.346Z" fill="#b51c74"/>
  <path d="M1253.493,102.729h-22.319l-12.158-54.68h-.644l-25.5,54.68h-26.671L1213.46,1.383h22.761l11.636,54.533h.793l25.428-54.533h26.673l-47.258,101.346Z" fill="#b51c74"/>
  <path d="M1290.928,1.383h149.072s-149.072,3.15-154.333,31.497" fill="#b51c74"/>
</svg>